<?xml version="1.0" encoding="UTF-8" standalone="no"?><!-- Generator: Gravit.io --><svg xmlns="http://www.w3.org/2000/svg" xmlns:xlink="http://www.w3.org/1999/xlink" style="isolation:isolate" viewBox="0 0 183.789 254.563" width="183.789pt" height="254.563pt"><defs><clipPath id="_clipPath_Yu2hw9eF2qNhiwsUssRvyEKuVwb6saW0"><rect width="183.789" height="254.563"/></clipPath></defs><g clip-path="url(#_clipPath_Yu2hw9eF2qNhiwsUssRvyEKuVwb6saW0)"><g><g><path d=" M 61.515 141.893 L 0 141.893 L 0 34.71 L 61.515 34.71 L 61.515 141.893 Z " fill="rgb(0,0,0)"/></g><g><linearGradient id="_lgradient_0" x1="0" y1="0.5" x2="1" y2="0.5" gradientTransform="matrix(94.908,0,0,254.488,0,0)" gradientUnits="userSpaceOnUse"><stop offset="0%" stop-opacity="1" style="stop-color:rgb(108,110,112)"/><stop offset="53.6%" stop-opacity="1" style="stop-color:rgb(63,62,64)"/><stop offset="100%" stop-opacity="1" style="stop-color:rgb(63,62,64)"/></linearGradient><path d=" M 0.904 0 C 0.364 0.332 0 0.927 0 1.607 L 0 34.71 L 61.515 34.71 L 61.515 41.061 L 0 41.061 L 0 68.32 L 61.515 68.32 L 61.515 74.672 L 0 74.672 L 0 101.931 L 61.515 101.931 L 61.515 108.282 L 0 108.282 L 0 135.541 L 61.515 135.541 L 61.515 141.893 L 0 141.893 L 0 252.59 C 0 253.645 0.855 254.488 1.885 254.488 L 93.022 254.488 C 94.064 254.488 94.908 253.645 94.908 252.59 L 94.908 1.607 C 94.908 0.927 94.549 0.332 94.009 0 L 0.904 0 Z " fill="url(#_lgradient_0)"/></g><g><path d=" M 94.908 41.061 L 63.574 41.061 L 63.574 34.71 L 94.908 34.71 L 94.908 41.061 Z " fill="rgb(38,170,225)"/></g><g><path d=" M 94.908 74.672 L 63.574 74.672 L 63.574 68.321 L 94.908 68.321 L 94.908 74.672 Z " fill="rgb(38,170,225)"/></g><g><path d=" M 94.908 108.282 L 63.574 108.282 L 63.574 101.931 L 94.908 101.931 L 94.908 108.282 Z " fill="rgb(38,170,225)"/></g><g><path d=" M 94.908 141.893 L 63.574 141.893 L 63.574 135.542 L 94.908 135.542 L 94.908 141.893 Z " fill="rgb(38,170,225)"/></g><g><path d=" M 94.908 245.805 L 0 245.805 L 0 239.454 L 94.908 239.454 L 94.908 245.805 Z " fill="rgb(0,0,0)"/></g><g><linearGradient id="_lgradient_1" x1="0" y1="0.5" x2="1" y2="0.5" gradientTransform="matrix(75.502,0,0,109.816,100.062,136.516)" gradientUnits="userSpaceOnUse"><stop offset="0%" stop-opacity="1" style="stop-color:rgb(240,223,201)"/><stop offset="77.7%" stop-opacity="1" style="stop-color:rgb(236,212,183)"/><stop offset="100%" stop-opacity="1" style="stop-color:rgb(236,212,183)"/></linearGradient><path d=" M 167.215 137.654 L 167.215 169.882 L 167.215 194.651 L 167.215 226.875 C 167.215 233.003 162.242 237.989 156.113 237.989 L 100.062 237.989 L 104.609 242.542 L 108.405 246.332 L 164.449 246.332 C 170.578 246.332 175.564 241.352 175.564 235.223 L 175.564 202.995 L 175.564 181.718 L 175.564 178.224 L 175.564 145.996 L 175.564 143.514 C 175.564 143.514 173.443 143.103 171.235 141.109 C 169.759 139.775 167.129 136.519 167.129 136.519 L 167.098 136.516 C 167.142 136.897 167.215 137.263 167.215 137.654 Z " fill="url(#_lgradient_1)"/></g><g><linearGradient id="_lgradient_2" x1="0" y1="0.5" x2="1" y2="0.5" gradientTransform="matrix(101.546,0,0,128.014,82.243,126.549)" gradientUnits="userSpaceOnUse"><stop offset="0%" stop-opacity="1" style="stop-color:rgb(147,149,151)"/><stop offset="15%" stop-opacity="1" style="stop-color:rgb(106,107,110)"/><stop offset="53.6%" stop-opacity="1" style="stop-color:rgb(63,62,64)"/><stop offset="100%" stop-opacity="1" style="stop-color:rgb(63,62,64)"/></linearGradient><path d=" M 154.265 126.549 L 152.74 126.549 L 111.45 126.549 L 97.935 126.549 L 93.352 126.549 C 87.223 126.549 82.243 131.525 82.243 137.654 L 82.243 169.882 L 82.243 194.651 L 82.243 226.875 C 82.243 229.617 83.248 232.109 84.892 234.057 L 84.885 234.057 L 84.923 234.089 C 85.288 234.516 85.692 234.926 86.119 235.286 L 101.687 250.878 C 103.722 253.136 106.662 254.563 109.924 254.563 L 172.686 254.563 C 178.815 254.563 183.789 249.576 183.789 243.448 L 183.789 211.221 L 183.789 186.457 L 183.789 154.221 C 183.789 149.093 180.291 144.786 175.564 143.514 L 175.564 145.996 L 175.564 178.224 L 175.564 181.718 L 175.564 202.995 L 175.564 235.223 C 175.564 241.352 170.578 246.332 164.449 246.332 L 108.405 246.332 L 104.609 242.542 L 100.062 237.989 L 156.113 237.989 C 162.242 237.989 167.215 233.003 167.215 226.875 L 167.215 194.651 L 167.215 169.882 L 167.215 137.654 C 167.215 131.525 162.229 126.549 156.113 126.549 L 154.265 126.549 Z " fill="url(#_lgradient_2)"/></g></g></g></svg>