<?xml version="1.0" encoding="UTF-8" standalone="no"?><!-- Generator: Gravit.io --><svg xmlns="http://www.w3.org/2000/svg" xmlns:xlink="http://www.w3.org/1999/xlink" style="isolation:isolate" viewBox="0 0 183.789 252.14" width="183.789pt" height="252.14pt"><defs><clipPath id="_clipPath_7po7wAKwMadx5fjXqb9POefzLZARnriR"><rect width="183.789" height="252.14"/></clipPath></defs><g clip-path="url(#_clipPath_7po7wAKwMadx5fjXqb9POefzLZARnriR)"><g><g><path d=" M 60.864 140.666 L 0 140.666 L 0 34.617 L 60.864 34.617 L 60.864 140.666 Z " fill="rgb(0,0,0)"/></g><g><linearGradient id="_lgradient_3" x1="0" y1="0.5" x2="1" y2="0.5" gradientTransform="matrix(93.903,0,0,252.066,0,0)" gradientUnits="userSpaceOnUse"><stop offset="0%" stop-opacity="1" style="stop-color:rgb(108,110,112)"/><stop offset="53.6%" stop-opacity="1" style="stop-color:rgb(63,62,64)"/><stop offset="100%" stop-opacity="1" style="stop-color:rgb(63,62,64)"/></linearGradient><path d=" M 1.809 0 C 0.816 0.031 0 0.853 0 1.865 L 0 34.617 L 60.864 34.617 L 60.864 40.901 L 0 40.901 L 0 67.872 L 60.864 67.872 L 60.864 74.156 L 0 74.156 L 0 101.127 L 60.864 101.127 L 60.864 107.411 L 0 107.411 L 0 134.382 L 60.864 134.382 L 60.864 140.666 L 0 140.666 L 0 250.195 C 0 251.232 0.847 252.066 1.865 252.066 L 92.038 252.066 C 93.07 252.066 93.903 251.232 93.903 250.195 L 93.903 1.865 C 93.903 0.853 93.1 0.031 92.095 0 L 1.809 0 Z " fill="url(#_lgradient_3)"/></g><g><path d=" M 93.904 40.901 L 62.901 40.901 L 62.901 34.617 L 93.904 34.617 L 93.904 40.901 Z " fill="rgb(38,170,225)"/></g><g><path d=" M 93.904 74.157 L 62.901 74.157 L 62.901 67.873 L 93.904 67.873 L 93.904 74.157 Z " fill="rgb(38,170,225)"/></g><g><path d=" M 93.904 107.411 L 62.901 107.411 L 62.901 101.127 L 93.904 101.127 L 93.904 107.411 Z " fill="rgb(38,170,225)"/></g><g><path d=" M 93.904 140.666 L 62.901 140.666 L 62.901 134.382 L 93.904 134.382 L 93.904 140.666 Z " fill="rgb(38,170,225)"/></g><g><path d=" M 93.904 243.475 L 0 243.475 L 0 237.191 L 93.904 237.191 L 93.904 243.475 Z " fill="rgb(0,0,0)"/></g><g><linearGradient id="_lgradient_4" x1="0" y1="0.5" x2="6.123233995736766e-17" y2="-0.5" gradientTransform="matrix(127.036,0,0,93.603,44.173,158.537)" gradientUnits="userSpaceOnUse"><stop offset="0%" stop-opacity="1" style="stop-color:rgb(182,154,119)"/><stop offset="1.3%" stop-opacity="1" style="stop-color:rgb(182,154,119)"/><stop offset="100%" stop-opacity="1" style="stop-color:rgb(208,184,154)"/></linearGradient><path d=" M 111.59 158.537 L 108.743 170.263 L 49.609 170.263 C 46.602 170.263 44.173 172.693 44.173 175.695 L 44.173 246.709 C 44.173 249.709 46.602 252.14 49.609 252.14 L 165.777 252.14 C 168.778 252.14 171.208 249.709 171.208 246.709 L 171.208 175.695 C 171.208 172.693 168.778 170.263 165.777 170.263 L 161.887 170.263 L 159.04 158.537 L 111.59 158.537 Z " fill="url(#_lgradient_4)"/></g><g><path d=" M 169.674 245.16 L 171.208 240.582 L 171.208 184.548 L 61.563 184.548 C 58.556 184.548 56.93 186.603 56.126 188.851 L 44.301 247.344 C 44.399 248.145 44.663 248.863 45.068 249.517 C 45.669 249.62 46.614 249.468 48.075 249.468 L 164.244 249.468 C 167.244 249.468 169.674 247.541 169.674 245.16 Z " fill="rgb(144,107,59)"/></g><g><linearGradient id="_lgradient_5" x1="0" y1="0.5" x2="6.123233995736766e-17" y2="1.5" gradientTransform="matrix(139.616,0,0,66.286,44.173,185.854)" gradientUnits="userSpaceOnUse"><stop offset="0%" stop-opacity="1" style="stop-color:rgb(240,223,201)"/><stop offset="77.7%" stop-opacity="1" style="stop-color:rgb(236,212,183)"/><stop offset="100%" stop-opacity="1" style="stop-color:rgb(236,212,183)"/></linearGradient><path d=" M 62.19 185.854 C 59.182 185.854 57.686 187.784 56.752 190.25 L 44.173 247.743 C 44.173 250.173 46.602 252.14 49.609 252.14 L 165.777 252.14 C 168.778 252.14 171.208 250.173 171.208 247.743 L 183.789 190.25 C 183.789 187.821 181.358 185.854 178.358 185.854 L 62.19 185.854 Z " fill="url(#_lgradient_5)"/></g></g></g></svg>