<?xml version="1.0" encoding="UTF-8" standalone="no"?><!-- Generator: Gravit.io --><svg xmlns="http://www.w3.org/2000/svg" xmlns:xlink="http://www.w3.org/1999/xlink" style="isolation:isolate" viewBox="0 0 183.789 70.093" width="183.789pt" height="70.093pt"><defs><clipPath id="_clipPath_Q7LSFZmv5nmpm2Az9tt45RU9RsY1J4B9"><rect width="183.789" height="70.093"/></clipPath></defs><g clip-path="url(#_clipPath_Q7LSFZmv5nmpm2Az9tt45RU9RsY1J4B9)"><g><g><linearGradient id="_lgradient_6" x1="0" y1="0.5" x2="6.123233995736766e-17" y2="-0.5" gradientTransform="matrix(110.25,0,0,41.694,10.088,25.459)" gradientUnits="userSpaceOnUse"><stop offset="0%" stop-opacity="1" style="stop-color:rgb(98,99,102)"/><stop offset="24.9%" stop-opacity="1" style="stop-color:rgb(98,99,102)"/><stop offset="100%" stop-opacity="1" style="stop-color:rgb(49,47,49)"/></linearGradient><path d=" M 10.088 67.153 L 120.339 67.153 L 120.339 25.459 L 10.088 25.459 L 10.088 67.153 Z " fill="url(#_lgradient_6)"/></g><g><radialGradient id="_rgradient_0" fx="0.5" fy="0.5" cx="0.5" cy="0.5" r="0.5" gradientTransform="matrix(13.97,0,0,13.97,39.368,47.547)" gradientUnits="userSpaceOnUse"><stop offset="0%" stop-opacity="1" style="stop-color:rgb(219,220,222)"/><stop offset="52.1%" stop-opacity="1" style="stop-color:rgb(219,220,222)"/><stop offset="100%" stop-opacity="1" style="stop-color:rgb(160,162,165)"/></radialGradient><path d=" M 39.368 54.531 C 39.368 58.39 42.495 61.517 46.353 61.517 C 50.211 61.517 53.338 58.39 53.338 54.531 C 53.338 50.674 50.211 47.547 46.353 47.547 C 42.495 47.547 39.368 50.674 39.368 54.531 Z " fill="url(#_rgradient_0)"/></g><g><linearGradient id="_lgradient_7" x1="0" y1="0.5" x2="1" y2="0.5" gradientTransform="matrix(11.509,0,0,11.511,40.599,48.777)" gradientUnits="userSpaceOnUse"><stop offset="0%" stop-opacity="1" style="stop-color:rgb(147,47,30)"/><stop offset="77.3%" stop-opacity="1" style="stop-color:rgb(147,47,30)"/><stop offset="99.6%" stop-opacity="1" style="stop-color:rgb(153,60,38)"/><stop offset="100%" stop-opacity="1" style="stop-color:rgb(153,60,38)"/></linearGradient><path d=" M 40.599 54.531 C 40.599 57.71 43.175 60.287 46.353 60.287 C 49.531 60.287 52.108 57.71 52.108 54.531 C 52.108 51.353 49.531 48.777 46.353 48.777 C 43.175 48.777 40.599 51.353 40.599 54.531 Z " fill="url(#_lgradient_7)"/></g><g><path d=" M 48.258 54.532 C 48.258 55.584 47.405 56.438 46.353 56.438 C 45.301 56.438 44.448 55.584 44.448 54.532 C 44.448 53.48 45.301 52.627 46.353 52.627 C 47.405 52.627 48.258 53.48 48.258 54.532 Z " fill="rgb(35,31,32)"/></g><g><radialGradient id="_rgradient_1" fx="0.5" fy="0.5" cx="0.5" cy="0.5" r="0.5" gradientTransform="matrix(13.97,0,0,13.971,39.368,31.595)" gradientUnits="userSpaceOnUse"><stop offset="0%" stop-opacity="1" style="stop-color:rgb(219,220,222)"/><stop offset="52.1%" stop-opacity="1" style="stop-color:rgb(219,220,222)"/><stop offset="100%" stop-opacity="1" style="stop-color:rgb(160,162,165)"/></radialGradient><path d=" M 39.368 38.581 C 39.368 42.438 42.495 45.566 46.353 45.566 C 50.211 45.566 53.338 42.438 53.338 38.581 C 53.338 34.722 50.211 31.595 46.353 31.595 C 42.495 31.595 39.368 34.722 39.368 38.581 Z " fill="url(#_rgradient_1)"/></g><g><path d=" M 52.108 38.581 C 52.108 41.759 49.532 44.336 46.354 44.336 C 43.175 44.336 40.599 41.759 40.599 38.581 C 40.599 35.402 43.175 32.826 46.354 32.826 C 49.532 32.826 52.108 35.402 52.108 38.581 Z " fill="rgb(255,255,255)"/></g><g><path d=" M 48.258 38.581 C 48.258 39.632 47.405 40.486 46.353 40.486 C 45.301 40.486 44.448 39.632 44.448 38.581 C 44.448 37.529 45.301 36.675 46.353 36.675 C 47.405 36.675 48.258 37.529 48.258 38.581 Z " fill="rgb(35,31,32)"/></g><g><radialGradient id="_rgradient_2" fx="0.5" fy="0.5" cx="0.5" cy="0.5" r="0.5" gradientTransform="matrix(13.971,0,0,13.97,58.958,47.547)" gradientUnits="userSpaceOnUse"><stop offset="0%" stop-opacity="1" style="stop-color:rgb(219,220,222)"/><stop offset="52.1%" stop-opacity="1" style="stop-color:rgb(219,220,222)"/><stop offset="100%" stop-opacity="1" style="stop-color:rgb(160,162,165)"/></radialGradient><path d=" M 58.958 54.531 C 58.958 58.39 62.086 61.517 65.944 61.517 C 69.802 61.517 72.929 58.39 72.929 54.531 C 72.929 50.674 69.802 47.547 65.944 47.547 C 62.086 47.547 58.958 50.674 58.958 54.531 Z " fill="url(#_rgradient_2)"/></g><g><linearGradient id="_lgradient_8" x1="0" y1="0.5" x2="1" y2="0.5" gradientTransform="matrix(11.51,0,0,11.511,60.189,48.777)" gradientUnits="userSpaceOnUse"><stop offset="0%" stop-opacity="1" style="stop-color:rgb(147,47,30)"/><stop offset="77.3%" stop-opacity="1" style="stop-color:rgb(147,47,30)"/><stop offset="99.6%" stop-opacity="1" style="stop-color:rgb(153,60,38)"/><stop offset="100%" stop-opacity="1" style="stop-color:rgb(153,60,38)"/></linearGradient><path d=" M 60.189 54.531 C 60.189 57.71 62.765 60.287 65.944 60.287 C 69.122 60.287 71.699 57.71 71.699 54.531 C 71.699 51.353 69.122 48.777 65.944 48.777 C 62.765 48.777 60.189 51.353 60.189 54.531 Z " fill="url(#_lgradient_8)"/></g><g><path d=" M 67.849 54.532 C 67.849 55.584 66.996 56.438 65.944 56.438 C 64.892 56.438 64.039 55.584 64.039 54.532 C 64.039 53.48 64.892 52.627 65.944 52.627 C 66.996 52.627 67.849 53.48 67.849 54.532 Z " fill="rgb(35,31,32)"/></g><g><radialGradient id="_rgradient_3" fx="0.5" fy="0.5" cx="0.5" cy="0.5" r="0.5" gradientTransform="matrix(13.971,0,0,13.971,58.958,31.595)" gradientUnits="userSpaceOnUse"><stop offset="0%" stop-opacity="1" style="stop-color:rgb(219,220,222)"/><stop offset="52.1%" stop-opacity="1" style="stop-color:rgb(219,220,222)"/><stop offset="100%" stop-opacity="1" style="stop-color:rgb(160,162,165)"/></radialGradient><path d=" M 58.958 38.581 C 58.958 42.438 62.086 45.566 65.944 45.566 C 69.802 45.566 72.929 42.438 72.929 38.581 C 72.929 34.722 69.802 31.595 65.944 31.595 C 62.086 31.595 58.958 34.722 58.958 38.581 Z " fill="url(#_rgradient_3)"/></g><g><path d=" M 71.699 38.581 C 71.699 41.759 69.122 44.336 65.944 44.336 C 62.765 44.336 60.189 41.759 60.189 38.581 C 60.189 35.402 62.765 32.826 65.944 32.826 C 69.122 32.826 71.699 35.402 71.699 38.581 Z " fill="rgb(255,255,255)"/></g><g><path d=" M 67.849 38.581 C 67.849 39.632 66.996 40.486 65.944 40.486 C 64.892 40.486 64.039 39.632 64.039 38.581 C 64.039 37.529 64.892 36.675 65.944 36.675 C 66.996 36.675 67.849 37.529 67.849 38.581 Z " fill="rgb(35,31,32)"/></g><g><radialGradient id="_rgradient_4" fx="0.5" fy="0.5" cx="0.5" cy="0.5" r="0.5" gradientTransform="matrix(13.97,0,0,13.97,78.549,47.547)" gradientUnits="userSpaceOnUse"><stop offset="0%" stop-opacity="1" style="stop-color:rgb(219,220,222)"/><stop offset="52.1%" stop-opacity="1" style="stop-color:rgb(219,220,222)"/><stop offset="100%" stop-opacity="1" style="stop-color:rgb(160,162,165)"/></radialGradient><path d=" M 78.549 54.531 C 78.549 58.39 81.676 61.517 85.534 61.517 C 89.392 61.517 92.519 58.39 92.519 54.531 C 92.519 50.674 89.392 47.547 85.534 47.547 C 81.676 47.547 78.549 50.674 78.549 54.531 Z " fill="url(#_rgradient_4)"/></g><g><linearGradient id="_lgradient_9" x1="0" y1="0.5" x2="1" y2="0.5" gradientTransform="matrix(11.51,0,0,11.511,79.78,48.777)" gradientUnits="userSpaceOnUse"><stop offset="0%" stop-opacity="1" style="stop-color:rgb(147,47,30)"/><stop offset="77.3%" stop-opacity="1" style="stop-color:rgb(147,47,30)"/><stop offset="99.6%" stop-opacity="1" style="stop-color:rgb(153,60,38)"/><stop offset="100%" stop-opacity="1" style="stop-color:rgb(153,60,38)"/></linearGradient><path d=" M 79.78 54.531 C 79.78 57.71 82.356 60.287 85.534 60.287 C 88.713 60.287 91.289 57.71 91.289 54.531 C 91.289 51.353 88.713 48.777 85.534 48.777 C 82.356 48.777 79.78 51.353 79.78 54.531 Z " fill="url(#_lgradient_9)"/></g><g><path d=" M 87.439 54.532 C 87.439 55.584 86.586 56.438 85.534 56.438 C 84.482 56.438 83.629 55.584 83.629 54.532 C 83.629 53.48 84.482 52.627 85.534 52.627 C 86.586 52.627 87.439 53.48 87.439 54.532 Z " fill="rgb(35,31,32)"/></g><g><radialGradient id="_rgradient_5" fx="0.5" fy="0.5" cx="0.5" cy="0.5" r="0.5" gradientTransform="matrix(13.97,0,0,13.971,78.549,31.595)" gradientUnits="userSpaceOnUse"><stop offset="0%" stop-opacity="1" style="stop-color:rgb(219,220,222)"/><stop offset="52.1%" stop-opacity="1" style="stop-color:rgb(219,220,222)"/><stop offset="100%" stop-opacity="1" style="stop-color:rgb(160,162,165)"/></radialGradient><path d=" M 78.549 38.581 C 78.549 42.438 81.676 45.566 85.534 45.566 C 89.392 45.566 92.519 42.438 92.519 38.581 C 92.519 34.722 89.392 31.595 85.534 31.595 C 81.676 31.595 78.549 34.722 78.549 38.581 Z " fill="url(#_rgradient_5)"/></g><g><path d=" M 91.289 38.581 C 91.289 41.759 88.713 44.336 85.534 44.336 C 82.356 44.336 79.78 41.759 79.78 38.581 C 79.78 35.402 82.356 32.826 85.534 32.826 C 88.713 32.826 91.289 35.402 91.289 38.581 Z " fill="rgb(255,255,255)"/></g><g><path d=" M 87.439 38.581 C 87.439 39.632 86.586 40.486 85.534 40.486 C 84.482 40.486 83.629 39.632 83.629 38.581 C 83.629 37.529 84.482 36.675 85.534 36.675 C 86.586 36.675 87.439 37.529 87.439 38.581 Z " fill="rgb(35,31,32)"/></g><g><radialGradient id="_rgradient_6" fx="0.5" fy="0.5" cx="0.5" cy="0.5" r="0.5" gradientTransform="matrix(13.97,0,0,13.97,98.14,47.547)" gradientUnits="userSpaceOnUse"><stop offset="0%" stop-opacity="1" style="stop-color:rgb(219,220,222)"/><stop offset="52.1%" stop-opacity="1" style="stop-color:rgb(219,220,222)"/><stop offset="100%" stop-opacity="1" style="stop-color:rgb(160,162,165)"/></radialGradient><path d=" M 98.14 54.531 C 98.14 58.39 101.267 61.517 105.124 61.517 C 108.983 61.517 112.11 58.39 112.11 54.531 C 112.11 50.674 108.983 47.547 105.124 47.547 C 101.267 47.547 98.14 50.674 98.14 54.531 Z " fill="url(#_rgradient_6)"/></g><g><linearGradient id="_lgradient_10" x1="0" y1="0.5" x2="1" y2="0.5" gradientTransform="matrix(11.509,0,0,11.511,99.37,48.777)" gradientUnits="userSpaceOnUse"><stop offset="0%" stop-opacity="1" style="stop-color:rgb(147,47,30)"/><stop offset="77.3%" stop-opacity="1" style="stop-color:rgb(147,47,30)"/><stop offset="99.6%" stop-opacity="1" style="stop-color:rgb(153,60,38)"/><stop offset="100%" stop-opacity="1" style="stop-color:rgb(153,60,38)"/></linearGradient><path d=" M 99.37 54.531 C 99.37 57.71 101.946 60.287 105.124 60.287 C 108.303 60.287 110.879 57.71 110.879 54.531 C 110.879 51.353 108.303 48.777 105.124 48.777 C 101.946 48.777 99.37 51.353 99.37 54.531 Z " fill="url(#_lgradient_10)"/></g><g><path d=" M 107.03 54.532 C 107.03 55.584 106.177 56.438 105.124 56.438 C 104.073 56.438 103.22 55.584 103.22 54.532 C 103.22 53.48 104.073 52.627 105.124 52.627 C 106.177 52.627 107.03 53.48 107.03 54.532 Z " fill="rgb(35,31,32)"/></g><g><radialGradient id="_rgradient_7" fx="0.5" fy="0.5" cx="0.5" cy="0.5" r="0.5" gradientTransform="matrix(13.97,0,0,13.971,98.14,31.595)" gradientUnits="userSpaceOnUse"><stop offset="0%" stop-opacity="1" style="stop-color:rgb(219,220,222)"/><stop offset="52.1%" stop-opacity="1" style="stop-color:rgb(219,220,222)"/><stop offset="100%" stop-opacity="1" style="stop-color:rgb(160,162,165)"/></radialGradient><path d=" M 98.14 38.581 C 98.14 42.438 101.267 45.566 105.124 45.566 C 108.983 45.566 112.11 42.438 112.11 38.581 C 112.11 34.722 108.983 31.595 105.124 31.595 C 101.267 31.595 98.14 34.722 98.14 38.581 Z " fill="url(#_rgradient_7)"/></g><g><path d=" M 110.88 38.581 C 110.88 41.759 108.303 44.336 105.125 44.336 C 101.947 44.336 99.37 41.759 99.37 38.581 C 99.37 35.402 101.947 32.826 105.125 32.826 C 108.303 32.826 110.88 35.402 110.88 38.581 Z " fill="rgb(255,255,255)"/></g><g><path d=" M 107.03 38.581 C 107.03 39.632 106.177 40.486 105.124 40.486 C 104.073 40.486 103.22 39.632 103.22 38.581 C 103.22 37.529 104.073 36.675 105.124 36.675 C 106.177 36.675 107.03 37.529 107.03 38.581 Z " fill="rgb(35,31,32)"/></g><g><linearGradient id="_lgradient_11" x1="0" y1="0.5" x2="6.123233995736766e-17" y2="1.5" gradientTransform="matrix(12.154,0,0,47.29,0,22.661)" gradientUnits="userSpaceOnUse"><stop offset="0%" stop-opacity="1" style="stop-color:rgb(98,99,102)"/><stop offset="24.9%" stop-opacity="1" style="stop-color:rgb(98,99,102)"/><stop offset="100%" stop-opacity="1" style="stop-color:rgb(65,64,66)"/></linearGradient><path d=" M 3.695 22.661 C 1.654 22.661 0 24.315 0 26.356 L 0 66.256 C 0 68.296 1.654 69.951 3.695 69.951 L 8.459 69.951 C 10.5 69.951 12.154 68.296 12.154 66.256 L 12.154 26.356 C 12.154 24.315 10.5 22.661 8.459 22.661 L 3.695 22.661 Z " fill="url(#_lgradient_11)"/></g><g><linearGradient id="_lgradient_12" x1="0" y1="0.5" x2="6.123233995736766e-17" y2="1.5" gradientTransform="matrix(12.154,0,0,47.29,118.273,22.661)" gradientUnits="userSpaceOnUse"><stop offset="0%" stop-opacity="1" style="stop-color:rgb(98,99,102)"/><stop offset="24.9%" stop-opacity="1" style="stop-color:rgb(98,99,102)"/><stop offset="100%" stop-opacity="1" style="stop-color:rgb(65,64,66)"/></linearGradient><path d=" M 121.968 22.661 C 119.927 22.661 118.273 24.315 118.273 26.356 L 118.273 66.256 C 118.273 68.296 119.927 69.951 121.968 69.951 L 126.732 69.951 C 128.772 69.951 130.426 68.296 130.426 66.256 L 130.426 26.356 C 130.426 24.315 128.772 22.661 126.732 22.661 L 121.968 22.661 Z " fill="url(#_lgradient_12)"/></g><g><linearGradient id="_lgradient_13" x1="0" y1="0.5" x2="1" y2="0.5" gradientTransform="matrix(11.35,0,0,10.918,18.996,49.073)" gradientUnits="userSpaceOnUse"><stop offset="0%" stop-opacity="1" style="stop-color:rgb(187,189,191)"/><stop offset="50.2%" stop-opacity="1" style="stop-color:rgb(230,231,232)"/><stop offset="100%" stop-opacity="1" style="stop-color:rgb(219,220,222)"/></linearGradient><path d=" M 18.996 59.991 L 30.346 59.991 L 30.346 49.073 L 18.996 49.073 L 18.996 59.991 Z " fill="url(#_lgradient_13)"/></g><g><path d=" M 25.155 54.643 C 25.155 54.362 24.938 54.145 24.664 54.145 C 24.404 54.145 24.188 54.362 24.188 54.643 C 24.188 54.899 24.404 55.124 24.664 55.124 C 24.938 55.124 25.155 54.899 25.155 54.643 Z  M 27.275 54.527 C 27.275 55.967 26.097 57.132 24.664 57.132 C 23.233 57.132 22.064 55.967 22.064 54.527 C 22.064 53.09 23.233 51.931 24.664 51.931 C 26.097 51.931 27.275 53.09 27.275 54.527 Z " fill="rgb(35,31,32)"/></g><g><linearGradient id="_lgradient_14" x1="0" y1="0.5" x2="6.123233995736766e-17" y2="-0.5" gradientTransform="matrix(70.093,0,0,70.093,113.696,0)" gradientUnits="userSpaceOnUse"><stop offset="0%" stop-opacity="1" style="stop-color:rgb(7,59,107)"/><stop offset="12.4%" stop-opacity="1" style="stop-color:rgb(7,59,107)"/><stop offset="100%" stop-opacity="1" style="stop-color:rgb(24,92,156)"/></linearGradient><path d=" M 113.696 35.046 C 113.696 54.402 129.387 70.093 148.743 70.093 C 168.098 70.093 183.789 54.402 183.789 35.046 C 183.789 15.691 168.098 0 148.743 0 C 129.387 0 113.696 15.691 113.696 35.046 Z " fill="url(#_lgradient_14)"/></g><g><linearGradient id="_lgradient_15" x1="0" y1="0.5" x2="6.123233995736766e-17" y2="-0.5" gradientTransform="matrix(19.022,0,0,23.861,139.232,2.97)" gradientUnits="userSpaceOnUse"><stop offset="0%" stop-opacity="1" style="stop-color:rgb(177,179,181)"/><stop offset="78.10000000000001%" stop-opacity="1" style="stop-color:rgb(219,220,222)"/><stop offset="100%" stop-opacity="1" style="stop-color:rgb(219,220,222)"/></linearGradient><path d=" M 139.232 18.443 L 144.585 18.443 L 144.585 26.831 L 152.9 26.831 L 152.9 18.443 L 158.254 18.443 L 148.743 2.97 L 139.232 18.443 Z " fill="url(#_lgradient_15)"/></g><g><linearGradient id="_lgradient_16" x1="0" y1="0.5" x2="6.123233995736766e-17" y2="-0.5" gradientTransform="matrix(19.022,0,0,23.86,139.232,43.262)" gradientUnits="userSpaceOnUse"><stop offset="0%" stop-opacity="1" style="stop-color:rgb(177,179,181)"/><stop offset="78.10000000000001%" stop-opacity="1" style="stop-color:rgb(219,220,222)"/><stop offset="100%" stop-opacity="1" style="stop-color:rgb(219,220,222)"/></linearGradient><path d=" M 144.585 43.262 L 144.585 51.65 L 139.232 51.65 L 148.743 67.122 L 158.254 51.65 L 152.9 51.65 L 152.9 43.262 L 144.585 43.262 Z " fill="url(#_lgradient_16)"/></g><g><linearGradient id="_lgradient_17" x1="0" y1="0.5" x2="6.123233995736766e-17" y2="-0.5" gradientTransform="matrix(23.86,0,0,19.021,116.667,25.535)" gradientUnits="userSpaceOnUse"><stop offset="0%" stop-opacity="1" style="stop-color:rgb(177,179,181)"/><stop offset="78.10000000000001%" stop-opacity="1" style="stop-color:rgb(219,220,222)"/><stop offset="100%" stop-opacity="1" style="stop-color:rgb(219,220,222)"/></linearGradient><path d=" M 116.667 35.046 L 132.139 44.557 L 132.139 39.204 L 140.527 39.204 L 140.527 30.889 L 132.139 30.889 L 132.139 25.535 L 116.667 35.046 Z " fill="url(#_lgradient_17)"/></g><g><linearGradient id="_lgradient_18" x1="0" y1="0.5" x2="6.123233995736766e-17" y2="-0.5" gradientTransform="matrix(23.861,0,0,19.021,156.958,25.535)" gradientUnits="userSpaceOnUse"><stop offset="0%" stop-opacity="1" style="stop-color:rgb(177,179,181)"/><stop offset="78.10000000000001%" stop-opacity="1" style="stop-color:rgb(219,220,222)"/><stop offset="100%" stop-opacity="1" style="stop-color:rgb(219,220,222)"/></linearGradient><path d=" M 165.346 30.889 L 156.958 30.889 L 156.958 39.204 L 165.346 39.204 L 165.346 44.557 L 180.819 35.046 L 165.346 25.535 L 165.346 30.889 Z " fill="url(#_lgradient_18)"/></g></g></g></svg>