<?xml version="1.0" encoding="UTF-8" standalone="no"?><!-- Generator: Gravit.io --><svg xmlns="http://www.w3.org/2000/svg" xmlns:xlink="http://www.w3.org/1999/xlink" style="isolation:isolate" viewBox="0 0 256 255.994" width="256pt" height="255.994pt"><defs><clipPath id="_clipPath_t1Fdi82KOjK7I7o3RMR9p62qaCUPdSOz"><rect width="256" height="255.994"/></clipPath></defs><g clip-path="url(#_clipPath_t1Fdi82KOjK7I7o3RMR9p62qaCUPdSOz)"><g><g><linearGradient id="_lgradient_0" x1="0" y1="0.5" x2="6.123233995736766e-17" y2="-0.5" gradientTransform="matrix(256,0,0,255.994,0,0)" gradientUnits="userSpaceOnUse"><stop offset="0%" stop-opacity="1" style="stop-color:rgb(108,110,112)"/><stop offset="53.6%" stop-opacity="1" style="stop-color:rgb(63,62,64)"/><stop offset="100%" stop-opacity="1" style="stop-color:rgb(63,62,64)"/></linearGradient><path d=" M 127.995 0 C 57.309 0 0 57.306 0 127.998 C 0 198.69 57.309 255.994 127.995 255.994 C 198.691 255.994 256 198.69 256 127.998 C 256 57.306 198.691 0 127.995 0 Z " fill="url(#_lgradient_0)"/></g><g><linearGradient id="_lgradient_1" x1="0" y1="0.5" x2="6.123233995736766e-17" y2="1.5" gradientTransform="matrix(250.185,0,0,250.184,2.904,2.905)" gradientUnits="userSpaceOnUse"><stop offset="0%" stop-opacity="1" style="stop-color:rgb(108,110,112)"/><stop offset="53.6%" stop-opacity="1" style="stop-color:rgb(63,62,64)"/><stop offset="100%" stop-opacity="1" style="stop-color:rgb(63,62,64)"/></linearGradient><path d=" M 2.904 127.998 C 2.904 197.084 58.909 253.089 127.995 253.089 C 197.085 253.089 253.089 197.084 253.089 127.998 C 253.089 58.912 197.085 2.905 127.995 2.905 C 58.909 2.905 2.904 58.912 2.904 127.998 Z " fill="url(#_lgradient_1)"/></g><g><linearGradient id="_lgradient_2" x1="0" y1="0.5" x2="6.123233995736766e-17" y2="-0.5" gradientTransform="matrix(227.941,0,0,227.938,14.029,14.026)" gradientUnits="userSpaceOnUse"><stop offset="0%" stop-opacity="1" style="stop-color:rgb(255,255,255)"/><stop offset="30.5%" stop-opacity="1" style="stop-color:rgb(253,254,254)"/><stop offset="100%" stop-opacity="1" style="stop-color:rgb(215,233,248)"/></linearGradient><path d=" M 14.029 127.998 C 14.029 190.942 65.052 241.964 127.995 241.964 C 190.935 241.964 241.97 190.942 241.97 127.998 C 241.97 65.051 190.935 14.026 127.995 14.026 C 65.052 14.026 14.029 65.051 14.029 127.998 Z " fill="url(#_lgradient_2)"/></g><g><linearGradient id="_lgradient_3" x1="0" y1="0.5" x2="6.123233995736766e-17" y2="1.5" gradientTransform="matrix(220.677,0,0,220.679,17.655,17.658)" gradientUnits="userSpaceOnUse"><stop offset="0%" stop-opacity="1" style="stop-color:rgb(255,255,255)"/><stop offset="30.5%" stop-opacity="1" style="stop-color:rgb(253,254,254)"/><stop offset="100%" stop-opacity="1" style="stop-color:rgb(215,233,248)"/></linearGradient><path d=" M 17.655 127.998 C 17.655 188.934 67.06 238.337 127.995 238.337 C 188.941 238.337 238.332 188.934 238.332 127.998 C 238.332 67.057 188.941 17.658 127.995 17.658 C 67.06 17.658 17.655 67.057 17.655 127.998 Z " fill="url(#_lgradient_3)"/></g><g><path d=" M 118.345 33.238 L 118.282 33.238 L 114.863 35.079 L 114.355 33.056 L 118.646 30.76 L 120.88 30.76 L 120.88 50.408 L 118.345 50.408 L 118.345 33.238 Z " fill="rgb(35,31,32)"/></g><g><path d=" M 128.039 50.408 L 128.039 48.774 L 130.16 46.778 C 135.147 42.004 137.444 39.434 137.475 36.472 C 137.475 34.478 136.503 32.601 133.573 32.601 C 131.791 32.601 130.31 33.54 129.4 34.295 L 128.554 32.422 C 129.915 31.271 131.853 30.427 134.119 30.427 C 138.348 30.427 140.104 33.326 140.104 36.14 C 140.104 39.766 137.475 42.699 133.359 46.687 L 131.791 48.171 L 131.791 48.231 L 140.587 48.231 L 140.587 50.408 L 128.039 50.408 Z " fill="rgb(35,31,32)"/></g><g><path d=" M 170.996 42.427 L 170.934 42.427 L 167.52 44.268 L 167.006 42.245 L 171.297 39.948 L 173.543 39.948 L 173.543 59.596 L 170.996 59.596 L 170.996 42.427 Z " fill="rgb(35,31,32)"/></g><g><path d=" M 201.062 95.46 L 201.062 93.829 L 203.17 91.833 C 208.165 87.056 210.461 84.486 210.486 81.524 C 210.486 79.53 209.52 77.657 206.596 77.657 C 204.814 77.657 203.321 78.595 202.418 79.348 L 201.577 77.474 C 202.932 76.326 204.864 75.479 207.135 75.479 C 211.364 75.479 213.121 78.381 213.121 81.192 C 213.121 84.819 210.486 87.752 206.382 91.742 L 204.814 93.223 L 204.814 93.283 L 213.61 93.283 L 213.61 95.46 L 201.062 95.46 Z " fill="rgb(35,31,32)"/></g><g><path d=" M 211.954 136.719 C 212.707 137.202 214.426 137.962 216.309 137.962 C 219.722 137.962 220.776 135.784 220.751 134.153 C 220.713 131.399 218.241 130.219 215.669 130.219 L 214.188 130.219 L 214.188 128.224 L 215.669 128.224 C 217.601 128.224 220.048 127.226 220.048 124.899 C 220.048 123.33 219.057 121.937 216.609 121.937 C 215.028 121.937 213.523 122.634 212.682 123.236 L 211.979 121.303 C 213.008 120.544 215.003 119.791 217.124 119.791 C 220.989 119.791 222.771 122.088 222.771 124.478 C 222.771 126.53 221.529 128.224 219.12 129.134 L 219.12 129.19 C 221.529 129.648 223.499 131.462 223.499 134.209 C 223.499 137.353 221.014 140.107 216.334 140.107 C 214.125 140.107 212.192 139.411 211.226 138.746 L 211.954 136.719 Z " fill="rgb(35,31,32)"/></g><g><path d=" M 207.826 177.565 L 207.826 170.977 C 207.826 169.948 207.864 168.925 207.927 167.896 L 207.826 167.865 C 207.224 169.044 206.747 169.891 206.195 170.794 L 201.389 177.508 L 201.389 177.565 L 207.826 177.565 Z  M 207.826 184.975 L 207.826 179.623 L 198.703 179.623 L 198.703 177.872 L 207.462 165.324 L 210.336 165.324 L 210.336 177.565 L 213.084 177.565 L 213.084 179.623 L 210.336 179.623 L 210.336 184.975 L 207.826 184.975 Z " fill="rgb(35,31,32)"/></g><g><path d=" M 176.957 200.761 L 169.453 200.761 L 168.7 205.806 C 169.151 205.749 169.578 205.686 170.306 205.686 C 171.812 205.686 173.33 206.019 174.535 206.747 C 176.041 207.625 177.346 209.344 177.346 211.791 C 177.346 215.631 174.296 218.505 170.03 218.505 C 167.884 218.505 166.077 217.903 165.136 217.294 L 165.801 215.267 C 166.617 215.757 168.223 216.359 170.03 216.359 C 172.515 216.359 174.66 214.727 174.66 212.099 C 174.66 209.558 172.929 207.744 169.001 207.744 C 167.884 207.744 167.006 207.864 166.278 207.958 L 167.558 198.521 L 176.957 198.521 L 176.957 200.761 Z " fill="rgb(35,31,32)"/></g><g><path d=" M 132.067 225.369 C 132.067 222.558 130.461 220.864 128.014 220.864 C 126.414 220.864 124.902 221.862 124.174 223.286 C 124.024 223.587 123.904 223.976 123.904 224.434 C 123.967 227.697 125.448 230.112 128.227 230.112 C 130.524 230.112 132.067 228.18 132.067 225.369 Z  M 132.82 214.031 C 132.243 214.031 131.615 214.031 130.825 214.182 C 126.653 214.847 124.45 217.903 123.992 221.165 L 124.055 221.165 C 124.99 219.866 126.653 218.837 128.829 218.837 C 132.306 218.837 134.753 221.379 134.753 225.219 C 134.753 228.813 132.306 232.139 128.196 232.139 C 124.024 232.139 121.276 228.876 121.276 223.769 C 121.276 219.929 122.631 216.842 124.601 214.91 C 126.232 213.31 128.409 212.312 130.887 212.005 C 131.672 211.886 132.306 211.829 132.82 211.854 L 132.82 214.031 Z " fill="rgb(35,31,32)"/></g><g><path d=" M 89.308 197.693 L 89.308 199.45 L 80.756 217.344 L 78.002 217.344 L 86.529 199.964 L 86.529 199.901 L 76.916 199.901 L 76.916 197.693 L 89.308 197.693 Z " fill="rgb(35,31,32)"/></g><g><path d=" M 45.187 171.14 C 45.162 173.103 46.674 174.164 48.939 174.766 C 50.633 174.189 51.9 172.985 51.9 171.196 C 51.9 169.628 50.991 167.996 48.575 167.996 C 46.398 167.996 45.187 169.446 45.187 171.14 Z  M 52.503 180.966 C 52.503 178.606 50.84 177.427 48.18 176.699 C 45.884 177.332 44.647 178.876 44.647 180.752 C 44.553 182.716 46.065 184.466 48.575 184.466 C 50.966 184.466 52.503 182.986 52.503 180.966 Z  M 41.924 181.084 C 41.924 178.638 43.405 176.881 45.795 175.827 L 45.795 175.701 C 43.618 174.703 42.652 173.016 42.652 171.322 C 42.652 168.235 45.312 166.089 48.757 166.089 C 52.565 166.089 54.473 168.479 54.473 170.927 C 54.473 172.589 53.651 174.371 51.235 175.526 L 51.235 175.613 C 53.682 176.548 55.194 178.336 55.194 180.689 C 55.194 184.134 52.264 186.405 48.487 186.405 C 44.403 186.405 41.924 183.958 41.924 181.084 Z " fill="rgb(35,31,32)"/></g><g><path d=" M 31.785 128.463 C 31.785 130.879 33.266 132.635 35.594 132.635 C 37.344 132.635 38.737 131.726 39.434 130.546 C 39.553 130.308 39.704 130.038 39.704 129.58 C 39.704 126.229 38.436 123.657 35.65 123.657 C 33.385 123.657 31.785 125.652 31.785 128.463 Z  M 30.813 139.738 C 31.39 139.8 32.055 139.738 32.959 139.65 C 34.477 139.437 35.952 138.803 37.075 137.742 C 38.373 136.563 39.308 134.844 39.672 132.516 L 39.584 132.516 C 38.461 133.871 36.924 134.63 34.929 134.63 C 31.421 134.63 29.15 131.97 29.15 128.613 C 29.15 124.893 31.842 121.63 35.863 121.63 C 39.885 121.63 42.364 124.893 42.364 129.912 C 42.364 134.235 40.914 137.259 38.976 139.135 C 37.463 140.616 35.38 141.52 33.266 141.764 C 32.293 141.915 31.421 141.946 30.813 141.915 L 30.813 139.738 Z " fill="rgb(35,31,32)"/></g><g><path d=" M 38.856 76.869 L 38.794 76.869 L 35.38 78.714 L 34.866 76.687 L 39.157 74.391 L 41.391 74.391 L 41.391 94.039 L 38.856 94.039 L 38.856 76.869 Z " fill="rgb(35,31,32)"/></g><g><path d=" M 50.972 84.304 C 50.972 89.414 52.547 92.316 54.962 92.316 C 57.685 92.316 58.984 89.142 58.984 84.125 C 58.984 79.288 57.742 76.144 54.993 76.144 C 52.666 76.144 50.972 78.955 50.972 84.304 Z  M 61.644 84.003 C 61.644 90.685 59.166 94.371 54.811 94.371 C 50.972 94.371 48.374 90.776 48.311 84.276 C 48.311 77.685 51.154 74.058 55.144 74.058 C 59.285 74.058 61.644 77.747 61.644 84.003 Z " fill="rgb(35,31,32)"/></g><g><path d=" M 74.576 43.82 L 74.513 43.82 L 71.094 45.664 L 70.586 43.64 L 74.877 41.341 L 77.111 41.341 L 77.111 60.988 L 74.576 60.988 L 74.576 43.82 Z " fill="rgb(35,31,32)"/></g><g><path d=" M 90.08 43.82 L 90.017 43.82 L 86.598 45.664 L 86.09 43.64 L 90.381 41.341 L 92.615 41.341 L 92.615 60.988 L 90.08 60.988 L 90.08 43.82 Z " fill="rgb(35,31,32)"/></g><g><path d=" M 208.855 131.468 L 127.989 133.476 L 127.989 123.324 L 208.855 125.338 L 208.855 131.468 Z " fill="rgb(35,31,32)"/></g><g><path d=" M 100.564 131.468 L 127.989 133.476 L 127.989 123.324 L 100.564 125.338 L 100.564 131.468 Z " fill="rgb(35,31,32)"/></g><g><path d=" M 78.635 83.809 L 130.009 123.913 L 123.515 131.719 L 74.72 88.518 L 78.635 83.809 Z " fill="rgb(35,31,32)"/></g><g><path d=" M 145.708 139.593 L 130.009 123.914 L 123.516 131.719 L 141.793 144.305 L 145.708 139.593 Z " fill="rgb(35,31,32)"/></g></g></g></svg>