<?xml version="1.0" encoding="UTF-8" standalone="no"?><!-- Generator: Gravit.io --><svg xmlns="http://www.w3.org/2000/svg" xmlns:xlink="http://www.w3.org/1999/xlink" style="isolation:isolate" viewBox="0 0 255.886 138.685" width="255.886pt" height="138.685pt"><defs><clipPath id="_clipPath_VWktXeRU7qSTwTn81Es3yNXq8RLNMxLP"><rect width="255.886" height="138.685"/></clipPath></defs><g clip-path="url(#_clipPath_VWktXeRU7qSTwTn81Es3yNXq8RLNMxLP)"><g><linearGradient id="_lgradient_4" x1="0" y1="0.5" x2="6.123233995736766e-17" y2="-0.5" gradientTransform="matrix(255.886,0,0,138.685,0,0)" gradientUnits="userSpaceOnUse"><stop offset="0%" stop-opacity="1" style="stop-color:rgb(177,179,181)"/><stop offset="17.599999999999998%" stop-opacity="1" style="stop-color:rgb(177,179,181)"/><stop offset="56.2%" stop-opacity="1" style="stop-color:rgb(202,204,206)"/><stop offset="100%" stop-opacity="1" style="stop-color:rgb(202,204,206)"/></linearGradient><path d=" M 86.307 1.613 C 47.45 10.701 45.584 44.314 45.11 55.299 C 45.11 55.299 2.487 55.668 0 90.956 L 0 98.047 C 2.468 138.668 44.322 138.672 44.322 138.672 L 228.359 138.672 C 228.359 138.672 255.886 140.181 255.886 111.139 C 255.886 87.541 236.617 79.293 226.398 79.293 C 216.167 79.293 209.483 84.791 209.483 84.791 C 209.586 78.582 217.374 53.865 193.032 38.503 C 168.507 23.023 149.776 40.584 149.776 40.584 C 150.425 21.181 128.714 0.001 100.074 0 C 95.632 0 91.026 0.509 86.307 1.613 Z " fill="url(#_lgradient_4)"/></g></g></svg>