<?xml version="1.0" encoding="UTF-8" standalone="no"?><!-- Generator: Gravit.io --><svg xmlns="http://www.w3.org/2000/svg" xmlns:xlink="http://www.w3.org/1999/xlink" style="isolation:isolate" viewBox="0 0 192.199 256" width="192.199pt" height="256pt"><defs><clipPath id="_clipPath_lscm8WHdcHCQU1M3qePzhu0Dxv5526Vb"><rect width="192.199" height="256"/></clipPath></defs><g clip-path="url(#_clipPath_lscm8WHdcHCQU1M3qePzhu0Dxv5526Vb)"><g><g><path d=" M 61.812 142.853 L 0.001 142.853 L 0.001 35.149 L 61.812 35.149 L 61.812 142.853 Z " fill="rgb(0,0,0)"/></g><g><linearGradient id="_lgradient_76" x1="0" y1="0.5" x2="1" y2="0.5" gradientTransform="matrix(95.361,0,0,255.981,0,0)" gradientUnits="userSpaceOnUse"><stop offset="0%" stop-opacity="1" style="stop-color:rgb(108,110,112)"/><stop offset="53.6%" stop-opacity="1" style="stop-color:rgb(63,62,64)"/><stop offset="100%" stop-opacity="1" style="stop-color:rgb(63,62,64)"/></linearGradient><path d=" M 1.901 0 C 0.851 0 0 0.844 0 1.888 L 0 35.149 L 61.812 35.149 L 61.812 41.536 L 0 41.536 L 0 68.923 L 61.812 68.923 L 61.812 75.311 L 0 75.311 L 0 102.698 L 61.812 102.698 L 61.812 109.079 L 0 109.079 L 0 136.471 L 61.812 136.471 L 61.812 142.853 L 0 142.853 L 0 254.081 C 0 255.137 0.851 255.981 1.901 255.981 L 93.461 255.981 C 94.511 255.981 95.361 255.137 95.361 254.081 L 95.361 1.888 C 95.361 0.844 94.511 0 93.461 0 L 1.901 0 Z " fill="url(#_lgradient_76)"/></g><g><path d=" M 95.361 41.536 L 63.874 41.536 L 63.874 35.149 L 95.361 35.149 L 95.361 41.536 Z " fill="rgb(38,170,225)"/></g><g><path d=" M 95.361 75.311 L 63.874 75.311 L 63.874 68.923 L 95.361 68.923 L 95.361 75.311 Z " fill="rgb(38,170,225)"/></g><g><path d=" M 95.361 109.078 L 63.874 109.078 L 63.874 102.697 L 95.361 102.697 L 95.361 109.078 Z " fill="rgb(38,170,225)"/></g><g><path d=" M 95.361 142.853 L 63.874 142.853 L 63.874 136.472 L 95.361 136.472 L 95.361 142.853 Z " fill="rgb(38,170,225)"/></g><g><path d=" M 95.361 247.257 L 0.001 247.257 L 0.001 240.882 L 95.361 240.882 L 95.361 247.257 Z " fill="rgb(0,0,0)"/></g><g><linearGradient id="_lgradient_77" x1="0" y1="0.5" x2="1" y2="0.5" gradientTransform="matrix(141.352,0,0,141.347,50.847,114.653)" gradientUnits="userSpaceOnUse"><stop offset="0%" stop-opacity="1" style="stop-color:rgb(158,160,163)"/><stop offset="36.199999999999996%" stop-opacity="1" style="stop-color:rgb(219,220,222)"/><stop offset="83.3%" stop-opacity="1" style="stop-color:rgb(157,159,161)"/><stop offset="100%" stop-opacity="1" style="stop-color:rgb(160,162,165)"/></linearGradient><path d=" M 110.545 114.653 L 103.527 133.753 C 101.302 134.534 99.108 135.466 96.983 136.54 L 78.783 128.115 L 63.79 143.116 L 72.334 161.59 C 71.308 163.715 70.415 165.921 69.671 168.183 L 50.847 175.089 L 50.847 196.307 L 69.952 203.327 C 70.733 205.558 71.665 207.745 72.727 209.87 L 64.315 228.063 L 79.308 243.062 L 97.783 234.513 C 99.92 235.544 102.126 236.438 104.376 237.182 L 111.283 256 L 132.5 256 L 139.513 236.9 C 141.757 236.113 143.95 235.182 146.069 234.119 L 164.256 242.538 L 179.256 227.538 L 170.706 209.064 C 171.738 206.927 172.631 204.72 173.375 202.47 L 192.199 195.564 L 192.199 174.346 L 173.093 167.34 C 172.318 165.103 171.387 162.908 170.318 160.784 L 178.731 142.59 L 163.737 127.591 L 145.263 136.141 C 143.119 135.109 140.913 134.216 138.669 133.472 L 131.763 114.653 L 110.545 114.653 Z  M 103.707 185.327 C 103.707 175.502 111.695 167.508 121.519 167.508 C 131.345 167.508 139.338 175.502 139.338 185.327 C 139.338 195.152 131.345 203.145 121.519 203.145 C 111.695 203.145 103.707 195.152 103.707 185.327 Z " fill="url(#_lgradient_77)"/></g><g><linearGradient id="_lgradient_78" x1="0" y1="0.5" x2="1" y2="0.5" gradientTransform="matrix(133.975,0,0,133.975,54.535,118.34)" gradientUnits="userSpaceOnUse"><stop offset="0%" stop-opacity="1" style="stop-color:rgb(108,110,112)"/><stop offset="53.6%" stop-opacity="1" style="stop-color:rgb(63,62,64)"/><stop offset="100%" stop-opacity="1" style="stop-color:rgb(63,62,64)"/></linearGradient><path d=" M 113.118 118.34 L 106.377 136.698 C 103.127 137.709 100.018 139.038 97.084 140.646 L 79.574 132.542 L 68.212 143.903 L 76.43 161.659 C 74.874 164.618 73.6 167.748 72.645 171.015 L 54.535 177.665 L 54.535 193.732 L 72.892 200.474 C 73.904 203.723 75.233 206.832 76.841 209.766 L 68.737 227.277 L 80.098 238.638 L 97.854 230.42 C 100.812 231.976 103.942 233.25 107.209 234.206 L 113.859 252.315 L 129.927 252.315 L 136.668 233.957 C 139.917 232.947 143.027 231.617 145.961 230.009 L 163.471 238.113 L 174.833 226.752 L 166.615 208.997 C 168.171 206.038 169.445 202.908 170.4 199.641 L 188.51 192.991 L 188.51 176.923 L 170.152 170.182 C 169.141 166.932 167.812 163.824 166.204 160.89 L 174.308 143.379 L 162.947 132.018 L 145.191 140.236 C 142.233 138.679 139.103 137.405 135.836 136.45 L 129.186 118.34 L 113.118 118.34 Z  M 100.017 185.327 C 100.017 173.451 109.646 163.823 121.522 163.823 C 133.399 163.823 143.028 173.451 143.028 185.327 C 143.028 197.205 133.399 206.833 121.522 206.833 C 109.646 206.833 100.017 197.205 100.017 185.327 Z " fill="url(#_lgradient_78)"/></g><g><linearGradient id="_lgradient_79" x1="0" y1="0.5" x2="1" y2="0.5" gradientTransform="matrix(55.37,0,0,55.369,94.163,157.643)" gradientUnits="userSpaceOnUse"><stop offset="0%" stop-opacity="1" style="stop-color:rgb(63,62,64)"/><stop offset="53.6%" stop-opacity="1" style="stop-color:rgb(63,62,64)"/><stop offset="100%" stop-opacity="1" style="stop-color:rgb(108,110,112)"/></linearGradient><path d=" M 94.163 185.327 C 94.163 200.618 106.558 213.012 121.848 213.012 C 137.138 213.012 149.533 200.618 149.533 185.327 C 149.533 170.038 137.138 157.643 121.848 157.643 C 106.558 157.643 94.163 170.038 94.163 185.327 Z  M 100.342 185.327 C 100.342 173.451 109.971 163.823 121.848 163.823 C 133.725 163.823 143.353 173.451 143.353 185.327 C 143.353 197.205 133.725 206.833 121.848 206.833 C 109.971 206.833 100.342 197.205 100.342 185.327 Z " fill="url(#_lgradient_79)"/></g></g></g></svg>