<?xml version="1.0" encoding="UTF-8" standalone="no"?><!-- Generator: Gravit.io --><svg xmlns="http://www.w3.org/2000/svg" xmlns:xlink="http://www.w3.org/1999/xlink" style="isolation:isolate" viewBox="0 0 180.399 256" width="180.399pt" height="256pt"><defs><clipPath id="_clipPath_dYlx07JckcddcFIzEC8RBuWZhXSQbshZ"><rect width="180.399" height="256"/></clipPath></defs><g clip-path="url(#_clipPath_dYlx07JckcddcFIzEC8RBuWZhXSQbshZ)"><g><g><path d=" M 61.813 142.858 L 0 142.858 L 0 35.163 L 61.813 35.163 L 61.813 142.858 Z " fill="rgb(0,0,0)"/></g><g><linearGradient id="_lgradient_67" x1="0" y1="0.5" x2="1" y2="0.5" gradientTransform="matrix(95.367,0,0,256,0,0)" gradientUnits="userSpaceOnUse"><stop offset="0%" stop-opacity="1" style="stop-color:rgb(108,110,112)"/><stop offset="53.6%" stop-opacity="1" style="stop-color:rgb(63,62,64)"/><stop offset="100%" stop-opacity="1" style="stop-color:rgb(63,62,64)"/></linearGradient><path d=" M 1.895 0 C 0.86 0 0 0.847 0 1.895 L 0 35.163 L 61.813 35.163 L 61.813 41.545 L 0 41.545 L 0 68.93 L 61.813 68.93 L 61.813 75.312 L 0 75.312 L 0 102.709 L 61.813 102.709 L 61.813 109.091 L 0 109.091 L 0 136.476 L 61.813 136.476 L 61.813 142.858 L 0 142.858 L 0 254.093 C 0 255.152 0.86 256 1.895 256 L 93.473 256 C 94.521 256 95.367 255.152 95.367 254.093 L 95.367 1.895 C 95.367 0.847 94.521 0 93.473 0 L 1.895 0 Z " fill="url(#_lgradient_67)"/></g><g><path d=" M 95.368 41.545 L 63.882 41.545 L 63.882 35.163 L 95.368 35.163 L 95.368 41.545 Z " fill="rgb(38,170,225)"/></g><g><path d=" M 95.368 75.312 L 63.882 75.312 L 63.882 68.93 L 95.368 68.93 L 95.368 75.312 Z " fill="rgb(38,170,225)"/></g><g><path d=" M 95.368 109.091 L 63.882 109.091 L 63.882 102.709 L 95.368 102.709 L 95.368 109.091 Z " fill="rgb(38,170,225)"/></g><g><path d=" M 95.368 142.858 L 63.882 142.858 L 63.882 136.476 L 95.368 136.476 L 95.368 142.858 Z " fill="rgb(38,170,225)"/></g><g><path d=" M 95.368 247.275 L 0 247.275 L 0 240.893 L 95.368 240.893 L 95.368 247.275 Z " fill="rgb(0,0,0)"/></g><g><path d=" M 127.399 255.788 C 74.396 255.788 74.396 252.429 74.396 249.973 L 74.396 168.79 C 74.396 166.335 74.396 162.976 127.399 162.976 C 180.399 162.976 180.399 166.335 180.399 168.79 L 180.399 249.973 C 180.399 252.429 180.399 255.788 127.399 255.788 Z " fill="rgb(0,0,0)"/></g><g><linearGradient id="_lgradient_68" x1="0" y1="0.5" x2="1" y2="0.5" gradientTransform="matrix(100.494,0,0,29.124,77.151,168.79)" gradientUnits="userSpaceOnUse"><stop offset="0%" stop-opacity="1" style="stop-color:rgb(46,147,208)"/><stop offset="5.2%" stop-opacity="1" style="stop-color:rgb(46,147,208)"/><stop offset="28.799999999999997%" stop-opacity="1" style="stop-color:rgb(37,169,225)"/><stop offset="80.30000000000001%" stop-opacity="1" style="stop-color:rgb(46,147,208)"/><stop offset="100%" stop-opacity="1" style="stop-color:rgb(46,147,208)"/></linearGradient><path d=" M 127.398 171.851 C 99.643 171.851 77.151 170.479 77.151 168.79 L 77.151 194.854 C 77.151 196.543 99.643 197.914 127.398 197.914 C 155.145 197.914 177.645 196.543 177.645 194.854 L 177.645 168.79 C 177.645 170.479 155.145 171.851 127.398 171.851 Z " fill="url(#_lgradient_68)"/></g><g><linearGradient id="_lgradient_69" x1="0" y1="0.5" x2="1" y2="0.5" gradientTransform="matrix(100.494,0,0,29.124,77.151,196.35)" gradientUnits="userSpaceOnUse"><stop offset="0%" stop-opacity="1" style="stop-color:rgb(46,147,208)"/><stop offset="5.2%" stop-opacity="1" style="stop-color:rgb(46,147,208)"/><stop offset="28.799999999999997%" stop-opacity="1" style="stop-color:rgb(37,169,225)"/><stop offset="80.30000000000001%" stop-opacity="1" style="stop-color:rgb(46,147,208)"/><stop offset="100%" stop-opacity="1" style="stop-color:rgb(46,147,208)"/></linearGradient><path d=" M 127.398 199.41 C 99.643 199.41 77.151 198.039 77.151 196.35 L 77.151 222.414 C 77.151 224.102 99.643 225.474 127.398 225.474 C 155.145 225.474 177.645 224.102 177.645 222.414 L 177.645 196.35 C 177.645 198.039 155.145 199.41 127.398 199.41 Z " fill="url(#_lgradient_69)"/></g><g><linearGradient id="_lgradient_70" x1="0" y1="0.5" x2="1" y2="0.5" gradientTransform="matrix(100.494,0,0,29.123,77.151,223.91)" gradientUnits="userSpaceOnUse"><stop offset="0%" stop-opacity="1" style="stop-color:rgb(46,147,208)"/><stop offset="5.2%" stop-opacity="1" style="stop-color:rgb(46,147,208)"/><stop offset="28.799999999999997%" stop-opacity="1" style="stop-color:rgb(37,169,225)"/><stop offset="80.30000000000001%" stop-opacity="1" style="stop-color:rgb(46,147,208)"/><stop offset="100%" stop-opacity="1" style="stop-color:rgb(46,147,208)"/></linearGradient><path d=" M 127.398 226.97 C 99.643 226.97 77.151 225.598 77.151 223.91 L 77.151 249.974 C 77.151 251.662 99.643 253.033 127.398 253.033 C 155.145 253.033 177.645 251.662 177.645 249.974 L 177.645 223.91 C 177.645 225.598 155.145 226.97 127.398 226.97 Z " fill="url(#_lgradient_70)"/></g></g></g></svg>