<?xml version="1.0" encoding="UTF-8" standalone="no"?><!-- Generator: Gravit.io --><svg xmlns="http://www.w3.org/2000/svg" xmlns:xlink="http://www.w3.org/1999/xlink" style="isolation:isolate" viewBox="0 0 204.88 256" width="204.88pt" height="256pt"><defs><clipPath id="_clipPath_eZB6LVkr7gKsctHmp0wgFyy5S6a8fEDd"><rect width="204.88" height="256"/></clipPath></defs><g clip-path="url(#_clipPath_eZB6LVkr7gKsctHmp0wgFyy5S6a8fEDd)"><g><g><path d=" M 80.989 256 L 129.019 256 L 129.019 0 L 80.989 0 L 80.989 256 Z " fill="rgb(0,0,0)"/></g><g><linearGradient id="_lgradient_65" x1="0" y1="0.5" x2="1" y2="0.5" gradientTransform="matrix(95.367,0,0,256,0,0)" gradientUnits="userSpaceOnUse"><stop offset="0%" stop-opacity="1" style="stop-color:rgb(108,110,112)"/><stop offset="53.6%" stop-opacity="1" style="stop-color:rgb(63,62,64)"/><stop offset="100%" stop-opacity="1" style="stop-color:rgb(63,62,64)"/></linearGradient><path d=" M 1.894 0 C 0.86 0 0 0.847 0 1.894 L 0 35.163 L 0 41.544 L 0 68.93 L 0 75.312 L 0 102.709 L 0 109.091 L 0 136.475 L 0 142.857 L 0 254.093 C 0 255.152 0.86 256 1.894 256 L 93.473 256 C 94.52 256 95.367 255.152 95.367 254.093 L 95.367 1.894 C 95.367 0.847 94.52 0 93.473 0 L 1.894 0 Z " fill="url(#_lgradient_65)"/></g><g><linearGradient id="_lgradient_66" x1="0" y1="0.5" x2="1" y2="0.5" gradientTransform="matrix(95.37,0,0,256,109.51,0)" gradientUnits="userSpaceOnUse"><stop offset="0%" stop-opacity="1" style="stop-color:rgb(108,110,112)"/><stop offset="53.6%" stop-opacity="1" style="stop-color:rgb(63,62,64)"/><stop offset="100%" stop-opacity="1" style="stop-color:rgb(63,62,64)"/></linearGradient><path d=" M 111.403 0 C 110.356 0 109.51 0.847 109.51 1.894 L 109.51 254.093 C 109.51 255.152 110.356 256 111.403 256 L 202.984 256 C 204.019 256 204.88 255.152 204.88 254.093 L 204.88 142.857 L 204.88 136.475 L 204.88 109.091 L 204.88 102.709 L 204.88 75.312 L 204.88 68.93 L 204.88 41.544 L 204.88 35.163 L 204.88 1.894 C 204.88 0.847 204.019 0 202.984 0 L 111.403 0 Z " fill="url(#_lgradient_66)"/></g><g><path d=" M 105.748 179.623 L 99.366 179.623 L 99.366 76.402 L 105.748 76.402 L 105.748 179.623 Z " fill="rgb(38,170,225)"/></g><g><path d=" M 204.879 247.275 L 109.509 247.275 L 109.509 240.893 L 204.879 240.893 L 204.879 247.275 Z " fill="rgb(0,0,0)"/></g><g><path d=" M 95.367 247.275 L 0 247.275 L 0 240.893 L 95.367 240.893 L 95.367 247.275 Z " fill="rgb(0,0,0)"/></g><g><path d=" M 19.638 15.201 C 19.638 17.481 17.787 19.327 15.509 19.327 C 13.231 19.327 11.384 17.481 11.384 15.201 C 11.384 12.92 13.231 11.075 15.509 11.075 C 17.787 11.075 19.638 12.92 19.638 15.201 Z " fill="rgb(0,0,0)"/></g><g><path d=" M 30.582 15.201 C 30.582 17.481 28.734 19.327 26.456 19.327 C 24.178 19.327 22.33 17.481 22.33 15.201 C 22.33 12.92 24.178 11.075 26.456 11.075 C 28.734 11.075 30.582 12.92 30.582 15.201 Z " fill="rgb(0,0,0)"/></g><g><path d=" M 41.529 15.201 C 41.529 17.481 39.681 19.327 37.403 19.327 C 35.125 19.327 33.274 17.481 33.274 15.201 C 33.274 12.92 35.125 11.075 37.403 11.075 C 39.681 11.075 41.529 12.92 41.529 15.201 Z " fill="rgb(0,0,0)"/></g><g><path d=" M 19.638 25.808 C 19.638 28.089 17.787 29.934 15.509 29.934 C 13.231 29.934 11.384 28.089 11.384 25.808 C 11.384 23.527 13.231 21.682 15.509 21.682 C 17.787 21.682 19.638 23.527 19.638 25.808 Z " fill="rgb(0,0,0)"/></g><g><path d=" M 30.582 25.808 C 30.582 28.089 28.734 29.934 26.456 29.934 C 24.178 29.934 22.33 28.089 22.33 25.808 C 22.33 23.527 24.178 21.682 26.456 21.682 C 28.734 21.682 30.582 23.527 30.582 25.808 Z " fill="rgb(0,0,0)"/></g><g><path d=" M 41.529 25.808 C 41.529 28.089 39.681 29.934 37.403 29.934 C 35.125 29.934 33.274 28.089 33.274 25.808 C 33.274 23.527 35.125 21.682 37.403 21.682 C 39.681 21.682 41.529 23.527 41.529 25.808 Z " fill="rgb(0,0,0)"/></g><g><path d=" M 19.638 36.415 C 19.638 38.696 17.787 40.541 15.509 40.541 C 13.231 40.541 11.384 38.696 11.384 36.415 C 11.384 34.134 13.231 32.289 15.509 32.289 C 17.787 32.289 19.638 34.134 19.638 36.415 Z " fill="rgb(0,0,0)"/></g><g><path d=" M 30.582 36.415 C 30.582 38.696 28.734 40.541 26.456 40.541 C 24.178 40.541 22.33 38.696 22.33 36.415 C 22.33 34.134 24.178 32.289 26.456 32.289 C 28.734 32.289 30.582 34.134 30.582 36.415 Z " fill="rgb(0,0,0)"/></g><g><path d=" M 41.529 36.415 C 41.529 38.696 39.681 40.541 37.403 40.541 C 35.125 40.541 33.274 38.696 33.274 36.415 C 33.274 34.134 35.125 32.289 37.403 32.289 C 39.681 32.289 41.529 34.134 41.529 36.415 Z " fill="rgb(0,0,0)"/></g></g></g></svg>