<?xml version="1.0" encoding="UTF-8" standalone="no"?><!-- Generator: Gravit.io --><svg xmlns="http://www.w3.org/2000/svg" xmlns:xlink="http://www.w3.org/1999/xlink" style="isolation:isolate" viewBox="0 0 194.808 255.667" width="194.808pt" height="255.667pt"><defs><clipPath id="_clipPath_w1CQisjMK77hc7R4AHZk0jzWGbVzm3Rl"><rect width="194.808" height="255.667"/></clipPath></defs><g clip-path="url(#_clipPath_w1CQisjMK77hc7R4AHZk0jzWGbVzm3Rl)"><g><g><linearGradient id="_lgradient_57" x1="0" y1="0.5" x2="6.123233995736766e-17" y2="1.5" gradientTransform="matrix(116.524,0,0,62.106,36.736,0)" gradientUnits="userSpaceOnUse"><stop offset="0%" stop-opacity="1" style="stop-color:rgb(219,220,222)"/><stop offset="10.7%" stop-opacity="1" style="stop-color:rgb(219,220,222)"/><stop offset="83.3%" stop-opacity="1" style="stop-color:rgb(157,159,161)"/><stop offset="100%" stop-opacity="1" style="stop-color:rgb(160,162,165)"/></linearGradient><path d=" M 88.468 0 C 59.898 0 36.736 23.162 36.736 51.733 L 36.736 62.106 L 42.088 62.106 L 42.088 51.733 C 42.088 26.224 62.96 5.353 88.469 5.353 L 101.528 5.353 C 127.038 5.353 147.909 26.224 147.909 51.733 L 147.909 62.106 L 153.26 62.106 L 153.26 51.733 C 153.26 23.162 130.099 0 101.527 0 L 88.468 0 Z " fill="url(#_lgradient_57)"/></g><g><linearGradient id="_lgradient_58" x1="0" y1="0.5" x2="1" y2="0.5" gradientTransform="matrix(181.716,0,0,137.36,4.507,74.937)" gradientUnits="userSpaceOnUse"><stop offset="0%" stop-opacity="1" style="stop-color:rgb(46,44,45)"/><stop offset="100%" stop-opacity="1" style="stop-color:rgb(87,88,90)"/></linearGradient><path d=" M 147.461 74.937 C 147.395 108.841 110.12 135.671 94.845 136.071 L 94.317 136.088 C 80.146 136.088 42.603 108.322 42.534 74.937 L 36.762 74.937 C 36.777 82.763 38.625 90.246 41.662 97.198 C 42.714 101.235 44.196 108.345 44.079 116.087 C 43.899 127.985 33.623 138.982 27.313 141.506 C 21.003 144.03 4.778 140.786 4.778 140.786 C 4.778 140.786 4.801 140.839 4.804 140.848 L 4.507 140.786 C 4.507 140.786 16.835 176.562 76.821 183.802 C 83.574 184.617 91.758 212.297 99.769 212.297 C 106.907 212.297 112.639 184.711 118.664 184.056 C 172.751 178.178 183.85 148.531 185.642 142.053 C 186.044 141.246 186.223 140.786 186.223 140.786 C 186.223 140.786 186.108 140.807 185.941 140.84 C 185.944 140.824 185.951 140.786 185.951 140.786 L 185.157 140.984 C 181.49 141.642 169.04 143.648 163.688 141.506 C 157.378 138.982 147.102 127.985 146.921 116.087 C 146.742 104.189 150.347 93.732 150.347 93.732 L 149.81 93.744 C 151.953 87.816 153.222 81.52 153.234 74.937 L 147.461 74.937 Z " fill="url(#_lgradient_58)"/></g><g><linearGradient id="_lgradient_59" x1="0" y1="0.5" x2="1" y2="0.5" gradientTransform="matrix(116.262,0,0,63.947,36.867,7.851)" gradientUnits="userSpaceOnUse"><stop offset="0%" stop-opacity="1" style="stop-color:rgb(46,44,45)"/><stop offset="100%" stop-opacity="1" style="stop-color:rgb(87,88,90)"/></linearGradient><path d=" M 36.867 70.921 L 39.151 70.921 C 39.085 71.455 39.048 71.798 39.048 71.798 C 39.048 71.798 40.125 71.496 41.806 70.921 L 42.701 70.921 C 42.708 70.812 42.727 70.706 42.733 70.596 C 48.738 68.452 60.411 63.414 64.619 55.436 C 70.383 44.511 66.488 38.737 66.488 38.737 C 66.488 38.737 75.186 51.439 100.642 56.502 C 113.283 59.016 119.601 59.518 128.401 58.828 C 136.439 58.197 143.197 62.892 146.83 66.106 C 147.026 67.697 147.205 69.294 147.294 70.921 L 153.129 70.921 C 151.356 35.802 125.965 7.851 95 7.851 C 64.031 7.851 38.641 35.802 36.867 70.921 Z " fill="url(#_lgradient_59)"/></g><g><linearGradient id="_lgradient_60" x1="0" y1="0.5" x2="6.123233995736766e-17" y2="-0.5" gradientTransform="matrix(50.037,0,0,47.801,104.082,97.296)" gradientUnits="userSpaceOnUse"><stop offset="0%" stop-opacity="1" style="stop-color:rgb(219,220,222)"/><stop offset="10.7%" stop-opacity="1" style="stop-color:rgb(219,220,222)"/><stop offset="83.3%" stop-opacity="1" style="stop-color:rgb(157,159,161)"/><stop offset="100%" stop-opacity="1" style="stop-color:rgb(160,162,165)"/></linearGradient><path d=" M 148.73 97.296 C 146.695 115.993 133.36 132.448 114.134 137.349 L 104.082 139.912 L 105.404 145.097 L 115.456 142.535 C 137.157 137.002 152.088 118.405 154.119 97.296 L 148.73 97.296 Z " fill="url(#_lgradient_60)"/></g><g><linearGradient id="_lgradient_61" x1="0" y1="0.5" x2="1" y2="0.5" gradientTransform="matrix(18.05,0,0,52.476,25.516,46.34)" gradientUnits="userSpaceOnUse"><stop offset="0%" stop-opacity="1" style="stop-color:rgb(160,162,165)"/><stop offset="10.7%" stop-opacity="1" style="stop-color:rgb(219,220,222)"/><stop offset="83.3%" stop-opacity="1" style="stop-color:rgb(157,159,161)"/><stop offset="89.7%" stop-opacity="1" style="stop-color:rgb(219,220,222)"/><stop offset="100%" stop-opacity="1" style="stop-color:rgb(219,220,222)"/></linearGradient><path d=" M 35.617 46.34 C 30.061 46.34 25.516 51.219 25.516 57.185 L 25.516 87.971 C 25.516 93.935 30.061 98.816 35.617 98.816 L 43.24 98.816 L 43.24 52.131 C 43.24 50.172 43.359 48.241 43.566 46.34 L 35.617 46.34 Z " fill="url(#_lgradient_61)"/></g><g><linearGradient id="_lgradient_62" x1="0" y1="0.5" x2="1" y2="0.5" gradientTransform="matrix(18.05,0,0,52.476,146.43,45.67)" gradientUnits="userSpaceOnUse"><stop offset="0%" stop-opacity="1" style="stop-color:rgb(219,220,222)"/><stop offset="10.7%" stop-opacity="1" style="stop-color:rgb(219,220,222)"/><stop offset="83.3%" stop-opacity="1" style="stop-color:rgb(157,159,161)"/><stop offset="89.7%" stop-opacity="1" style="stop-color:rgb(219,220,222)"/><stop offset="100%" stop-opacity="1" style="stop-color:rgb(160,162,165)"/></linearGradient><path d=" M 146.756 45.67 L 146.756 92.355 C 146.756 94.314 146.637 96.245 146.43 98.146 L 154.38 98.146 C 159.935 98.146 164.48 93.267 164.48 87.301 L 164.48 56.515 C 164.48 50.55 159.935 45.67 154.38 45.67 L 146.756 45.67 Z " fill="url(#_lgradient_62)"/></g><g><linearGradient id="_lgradient_63" x1="0" y1="0.5" x2="6.123233995736766e-17" y2="1.5" gradientTransform="matrix(33.986,0,0,33.919,82.74,121.164)" gradientUnits="userSpaceOnUse"><stop offset="2.712487444293826e-15%" stop-opacity="1" style="stop-color:rgb(147,47,30)"/><stop offset="18.6%" stop-opacity="1" style="stop-color:rgb(147,47,30)"/><stop offset="99.6%" stop-opacity="1" style="stop-color:rgb(153,60,38)"/><stop offset="100%" stop-opacity="1" style="stop-color:rgb(153,60,38)"/></linearGradient><path d=" M 90.389 123.953 C 85.016 127.401 82.031 133.857 82.885 140.184 C 84.58 152.74 98.414 159.136 109.077 152.294 C 114.45 148.846 117.436 142.389 116.582 136.062 C 115.36 127.013 107.833 121.163 99.731 121.164 C 96.592 121.164 93.366 122.042 90.389 123.953 Z " fill="url(#_lgradient_63)"/></g><g><linearGradient id="_lgradient_64" x1="0" y1="0.5" x2="6.123233995736766e-17" y2="-0.5" gradientTransform="matrix(194.808,0,0,99.508,0,156.159)" gradientUnits="userSpaceOnUse"><stop offset="0%" stop-opacity="1" style="stop-color:rgb(147,47,30)"/><stop offset="18.2744%" stop-opacity="1" style="stop-color:rgb(147,47,30)"/><stop offset="99.5984%" stop-opacity="1" style="stop-color:rgb(153,60,38)"/><stop offset="100%" stop-opacity="1" style="stop-color:rgb(153,60,38)"/></linearGradient><path d=" M 97.885 206.773 L 84.809 156.159 C 84.809 156.159 42.214 157.049 22.948 168.988 C 22.205 169.452 21.462 169.937 20.72 170.423 C -2.328 185.705 0.199 196.954 0.011 221.737 C 0.001 222.487 0 252.076 0 255.667 L 194.381 255.667 L 194.381 221.737 C 194.193 196.954 199.616 185.705 176.562 170.423 C 175.82 169.937 175.077 169.452 174.335 168.988 C 155.084 157.049 112.473 156.159 112.473 156.159 L 97.885 206.773 Z " fill="url(#_lgradient_64)"/></g></g></g></svg>