<?xml version="1.0" encoding="UTF-8" standalone="no"?><!-- Generator: Gravit.io --><svg xmlns="http://www.w3.org/2000/svg" xmlns:xlink="http://www.w3.org/1999/xlink" style="isolation:isolate" viewBox="0 0 186.411 251.521" width="186.411pt" height="251.521pt"><defs><clipPath id="_clipPath_uTNJYmTRWV5lNnbVMtrg0OCB0NqbaUg7"><rect width="186.411" height="251.521"/></clipPath></defs><g clip-path="url(#_clipPath_uTNJYmTRWV5lNnbVMtrg0OCB0NqbaUg7)"><g><g><path d=" M 60.344 139.462 L 0.001 139.462 L 0.001 34.315 L 60.344 34.315 L 60.344 139.462 Z " fill="rgb(0,0,0)"/></g><g><linearGradient id="_lgradient_2" x1="0" y1="0.5" x2="1" y2="0.5" gradientTransform="matrix(93.097,0,0,249.904,0,0)" gradientUnits="userSpaceOnUse"><stop offset="0%" stop-opacity="1" style="stop-color:rgb(108,110,112)"/><stop offset="53.6%" stop-opacity="1" style="stop-color:rgb(63,62,64)"/><stop offset="100%" stop-opacity="1" style="stop-color:rgb(63,62,64)"/></linearGradient><path d=" M 1.856 0 C 0.831 0 0 0.823 0 1.842 L 0 34.315 L 60.344 34.315 L 60.344 40.551 L 0 40.551 L 0 67.287 L 60.344 67.287 L 60.344 73.523 L 0 73.523 L 0 100.26 L 60.344 100.26 L 60.344 106.489 L 0 106.489 L 0 133.231 L 60.344 133.231 L 60.344 139.462 L 0 139.462 L 0 248.05 C 0 249.079 0.831 249.904 1.856 249.904 L 91.242 249.904 C 92.267 249.904 93.097 249.079 93.097 248.05 L 93.097 1.842 C 93.097 0.823 92.267 0 91.242 0 L 1.856 0 Z " fill="url(#_lgradient_2)"/></g><g><path d=" M 93.097 40.55 L 62.359 40.55 L 62.359 34.315 L 93.097 34.315 L 93.097 40.55 Z " fill="rgb(38,170,225)"/></g><g><path d=" M 93.097 73.523 L 62.359 73.523 L 62.359 67.287 L 93.097 67.287 L 93.097 73.523 Z " fill="rgb(38,170,225)"/></g><g><path d=" M 93.097 106.489 L 62.359 106.489 L 62.359 100.26 L 93.097 100.26 L 93.097 106.489 Z " fill="rgb(38,170,225)"/></g><g><path d=" M 93.097 139.462 L 62.359 139.462 L 62.359 133.231 L 93.097 133.231 L 93.097 139.462 Z " fill="rgb(38,170,225)"/></g><g><path d=" M 93.097 241.386 L 0.001 241.386 L 0.001 235.163 L 93.097 235.163 L 93.097 241.386 Z " fill="rgb(0,0,0)"/></g><g><radialGradient id="_rgradient_14" fx="0.367" fy="0.336" cx="0.367" cy="0.336" r="0.353" gradientTransform="matrix(112.414,0,0,112.818,73.997,100.071)" gradientUnits="userSpaceOnUse"><stop offset="0%" stop-opacity="1" style="stop-color:rgb(46,147,208)"/><stop offset="100%" stop-opacity="1" style="stop-color:rgb(42,46,119)"/></radialGradient><path d=" M 73.997 156.479 C 73.997 187.584 99.209 212.889 130.201 212.889 C 161.194 212.889 186.411 187.584 186.411 156.479 C 186.411 125.369 161.194 100.071 130.201 100.071 C 99.209 100.071 73.997 125.369 73.997 156.479 Z " fill="url(#_rgradient_14)"/></g><g><radialGradient id="_rgradient_15" fx="0.5" fy="0.5" cx="0.5" cy="0.5" r="0.491" gradientTransform="matrix(108.954,0,0,105.038,74.806,100.701)" gradientUnits="userSpaceOnUse"><stop offset="0%" stop-opacity="1" style="stop-color:rgb(204,219,240)"/><stop offset="100%" stop-opacity="1" style="stop-color:rgb(173,197,230)"/></radialGradient><path d=" M 123.818 101.078 C 123.612 101.097 123.423 101.088 123.238 101.079 C 123.028 101.069 122.823 101.058 122.606 101.089 C 122.167 101.148 121.71 101.311 121.282 101.417 C 121.084 101.468 120.902 101.53 120.721 101.592 C 121.266 101.464 121.944 101.464 122.501 101.464 C 123.15 101.464 123.701 101.652 124.327 101.581 C 124.475 101.563 124.651 101.628 124.829 101.693 C 125.115 101.797 125.41 101.901 125.616 101.663 C 125.798 101.804 125.798 101.804 125.979 101.739 C 126.12 102.026 126.372 102.143 126.564 101.844 C 126.747 102.122 126.961 102.116 127.199 102.109 C 127.298 102.106 127.401 102.104 127.508 102.12 C 127.894 102.208 128.245 102.454 128.621 102.554 C 129.499 102.788 131.659 102.764 132.205 103.666 C 131.361 104.087 131.918 104.574 132.31 105.048 C 132.514 105.294 132.631 105.411 132.579 105.786 C 132.514 106.19 132.205 106.126 132.684 106.36 C 132.954 106.5 133.716 106.384 133.487 106.91 C 133.364 107.215 132.925 107.163 132.684 107.11 C 132.163 106.981 131.314 106.278 130.793 106.747 C 130.887 106.916 131.051 107.262 130.998 107.472 C 130.933 107.73 130.577 107.795 130.57 108.047 C 130.534 108.714 131.402 108.516 131.724 108.702 C 132.304 109.036 131.983 109.499 131.8 109.909 C 131.648 110.266 131.507 111.133 132.193 110.811 C 132.503 111.122 132.556 111.537 132.802 111.9 C 133.082 112.31 133.797 112.48 134.043 112.866 C 134.22 113.166 134.015 113.715 134.365 113.926 C 134.557 114.037 134.811 113.968 135.062 113.898 C 135.263 113.842 135.464 113.786 135.63 113.821 C 135.168 114.313 135.232 114.817 134.635 115.121 C 134.454 115.227 133.856 115.414 134.015 115.754 C 134.102 115.941 134.571 115.859 134.729 115.97 C 134.688 116.076 134.664 116.27 134.594 116.375 C 134.781 116.503 135.478 116.608 135.343 116.972 C 135.232 117.252 134.664 117.054 134.476 117.019 C 134.155 116.954 133.927 116.889 133.704 116.697 C 133.434 116.48 133.469 116.163 133.006 116.246 C 132.898 116.833 132.786 116.807 132.46 116.781 C 132.364 116.774 132.249 116.765 132.11 116.774 C 132.099 117.299 133.293 117.593 133.68 117.873 C 134.29 118.301 136.422 119.607 134.741 120.046 C 134.283 120.175 133.728 120.269 133.405 120.708 C 133.095 121.13 133.533 121.523 133.381 121.896 C 133.293 122.114 132.995 122.155 132.878 122.347 C 132.784 122.501 132.814 122.752 132.72 122.934 C 132.527 123.355 132.076 123.514 131.818 123.876 C 131.479 124.38 131.479 125.001 130.998 125.405 C 130.664 125.674 130.237 126.131 129.833 126.261 C 129.295 126.436 129.007 126.237 129.411 126.84 C 129.692 127.256 130.172 127.396 130.447 127.794 C 130.055 127.97 130.161 128.145 129.979 128.415 C 129.821 128.662 129.393 128.884 129.305 129.165 C 129.264 129.294 129.487 129.364 129.458 129.517 C 129.422 129.668 129.264 129.826 129.188 129.95 C 129.007 130.242 128.826 130.447 128.609 130.693 C 128.726 130.815 128.784 131.016 128.826 131.162 C 128.376 131.428 127.932 131.316 127.491 131.205 C 127.164 131.121 126.836 131.038 126.511 131.109 C 127.051 130.553 126.12 130.781 126.126 130.418 C 126.138 130.148 126.511 130.049 126.716 130.009 C 127.08 129.92 127.104 129.996 127.426 129.815 C 127.725 129.634 128.375 129.305 128.568 129.001 C 128.709 128.808 128.632 128.585 128.737 128.38 C 128.826 128.211 129.047 128.211 129.089 127.964 C 128.684 127.847 128.205 127.631 127.777 127.578 C 127.314 127.525 127.11 127.736 126.705 127.824 C 126.278 127.935 125.89 127.912 125.452 128.069 C 124.702 128.34 123.947 128.298 123.215 128.52 C 122.875 128.615 122.541 128.918 122.167 128.966 C 121.674 129.036 121.451 128.937 120.972 129.212 C 120.275 129.61 119.291 130.231 118.863 130.911 C 118.582 131.343 118.582 131.777 118.384 132.221 C 118.219 132.585 117.897 132.832 117.686 133.166 C 117.44 133.516 117.399 133.88 117.277 134.284 C 117.118 134.822 116.784 134.887 116.474 135.28 C 117.095 136.287 115.836 137.112 115.32 137.763 C 114.998 138.172 114.934 138.699 114.518 139.015 C 114.184 139.273 113.564 139.19 113.394 139.566 C 114.337 140.345 113.469 142.108 114.892 142.623 C 115.256 142.753 115.408 142.495 115.736 142.46 C 116.046 142.43 116.316 142.57 116.586 142.623 C 117.247 142.753 117.856 142.647 118.489 142.951 C 119.138 143.256 119.923 144.193 120.609 143.993 C 121.324 143.783 121.657 142.623 121.92 141.938 C 122.061 141.581 122.213 141.019 122.113 140.621 C 122.085 140.491 121.857 140.257 121.867 140.139 C 121.867 139.799 122.05 140.012 122.137 139.789 C 122.384 139.233 122.037 139.286 121.546 139.039 C 121.13 138.845 120.908 138.57 120.662 138.184 C 120.093 137.259 120.391 136.415 120.92 135.49 C 121.047 135.262 121.247 134.834 121.44 134.653 C 121.61 134.494 121.857 134.494 122.02 134.353 C 122.213 134.178 122.395 133.358 122.799 133.698 C 123.262 134.096 122.242 135.607 122.02 135.981 C 121.662 136.58 122.037 137.024 122.488 137.422 C 122.671 137.587 122.969 137.89 123.197 137.979 C 123.376 138.05 123.54 138.025 123.715 138.001 C 123.83 137.985 123.95 137.968 124.081 137.979 C 124.51 138.008 124.702 138.354 124.405 138.705 C 125.241 138.992 125.06 139.764 124.65 140.281 C 124.222 140.836 124.146 141.417 124.275 142.055 C 124.386 142.57 124.532 142.623 124.139 142.986 C 123.836 143.256 123.613 143.396 123.379 143.725 C 122.969 144.321 122.331 144.814 121.605 144.942 C 121.037 145.048 120.468 145.071 119.913 145.265 C 119.589 145.376 118.946 145.844 118.629 145.692 C 118.026 145.406 118.816 145.118 118.875 144.796 C 118.905 144.521 118.517 144.251 118.294 144.035 C 118.137 143.888 117.516 143.232 117.323 143.197 C 116.573 143.062 117.054 143.83 117.118 144.099 C 117.235 144.55 117.182 144.925 117.336 145.363 C 117.774 146.571 116.72 146.29 116.175 146.904 C 116.017 147.086 116.017 147.402 115.789 147.618 C 115.619 147.788 115.426 147.941 115.256 148.11 C 114.764 148.585 114.805 148.925 114.593 149.534 C 114.424 150.003 114.155 150.594 113.897 151.01 C 113.558 151.56 113.042 152.157 112.486 152.497 C 112.035 152.755 111.491 152.767 111.115 153.117 C 110.957 153.271 110.911 153.463 110.728 153.599 C 110.57 153.726 110.348 153.716 110.207 153.927 C 109.833 154.448 110.536 154.278 110.893 154.512 C 111.519 154.939 112.563 155.882 112.357 156.661 C 112.087 157.698 111.18 158.073 110.324 158.494 C 109.727 158.786 109.252 158.811 108.615 158.875 C 108.111 158.927 107.852 159.015 107.87 159.561 C 107.905 160.075 108.128 160.386 107.895 160.883 C 107.689 161.317 107.179 161.657 107.262 162.207 C 107.326 162.711 107.8 162.923 108.088 163.238 C 108.463 163.671 108.281 163.975 108.356 164.474 C 108.465 165.223 109.091 165.146 109.719 165.07 C 110 165.036 110.282 165.002 110.518 165.042 C 110.957 165.125 111.115 165.434 111.519 165.475 C 111.906 165.511 112.538 165.446 112.808 165.171 C 113.148 164.807 113.194 164.187 113.622 163.789 C 113.92 163.497 114.361 163.454 114.646 163.168 C 114.881 162.923 115.127 162.266 115.203 161.938 C 115.291 161.504 115.01 161.106 115.162 160.673 C 115.279 160.322 115.695 160.111 115.9 159.829 C 116.04 159.636 116.122 159.402 116.274 159.209 C 116.392 159.045 116.65 158.916 116.743 158.781 C 117.213 158.165 116.679 157.282 117.469 156.802 C 118.319 156.304 119.344 156.632 120.07 155.812 C 120.416 155.431 120.444 155.191 120.867 155.548 C 120.908 155.578 120.989 155.812 121.165 155.935 C 121.335 156.052 121.581 156.07 121.774 156.151 C 122.225 156.299 122.681 156.469 123.132 156.562 C 123.561 156.649 124.257 156.62 124.468 157.078 C 124.972 156.878 125.827 156.632 126.354 156.867 C 126.77 157.065 127.496 157.827 127.677 158.237 C 127.819 158.511 127.614 158.962 128.075 158.705 C 128.415 158.511 128.245 158.289 128.205 157.979 C 128.152 157.569 127.624 156.456 128.192 156.299 C 128.538 156.983 129.03 156.222 128.233 155.823 C 127.794 155.601 127.25 155.678 126.792 155.753 C 126.471 155.291 125.798 155.085 125.254 155.074 C 125.129 155.072 125.001 155.104 124.873 155.135 C 124.711 155.176 124.548 155.215 124.392 155.186 C 124.182 155.144 123.964 154.899 123.765 154.798 C 123.314 154.582 122.501 154.359 123.344 153.868 C 123.572 153.738 123.848 153.763 124.076 153.633 C 124.327 153.493 124.405 153.293 124.714 153.323 C 125.142 153.364 125.423 153.763 125.927 153.763 C 126.447 153.763 126.782 153.763 127.296 153.927 C 128.216 154.189 129.047 154.137 129.136 155.239 C 129.153 155.536 129.007 155.495 129.2 155.777 C 129.33 155.965 129.628 156.093 129.833 156.169 C 130.259 156.327 130.705 156.362 131.144 156.515 C 131.584 156.673 132.99 157.545 132.591 158.131 C 132.679 158.213 132.825 158.289 132.943 158.295 C 133.071 158.149 133.276 158.02 133.457 157.991 C 133.744 158.681 133.99 157.85 134.12 157.627 C 134.43 157.698 135.22 157.464 134.969 156.972 C 134.816 156.673 134.131 156.802 133.908 156.562 C 134.055 156.597 134.389 156.532 134.378 156.286 C 134.365 156.058 134.055 156.116 133.908 156.011 C 133.574 155.805 133.03 155.203 132.943 154.823 C 132.849 154.359 133.176 154.207 133.586 154.019 C 134.055 153.785 134.336 153.077 134.945 152.948 L 134.969 152.872 C 135.273 152.415 135.297 150.869 135.267 150.331 C 135.245 149.967 135.039 149.405 134.892 149.054 C 134.723 148.668 134.676 148.252 134.494 147.888 C 134.283 147.495 133.938 147.373 134.418 146.91 C 134.804 146.536 135.285 146.465 135.748 146.594 C 136.252 146.746 136.614 146.746 137.118 146.781 C 137.855 146.864 137.44 147.167 137.171 147.618 C 137.393 147.709 137.618 147.64 137.849 147.571 C 138.118 147.492 138.395 147.412 138.687 147.578 C 138.699 147.022 139.514 146.793 139.49 146.259 C 139.484 146.037 139.268 145.797 139.022 145.792 C 138.67 145.761 138.67 146.102 138.389 146.207 C 137.833 146.388 137.997 145.692 138.12 145.305 C 138.248 144.902 138.464 144.538 138.529 144.099 C 138.594 143.683 138.582 143.337 139.162 143.584 C 139.601 143.771 139.917 144.123 139.877 144.538 C 139.824 145.03 139.407 145.265 140.017 145.223 C 140.766 145.159 141.387 144.345 142.155 144.557 C 142.425 144.627 142.641 144.825 142.904 144.912 C 143.262 145.013 143.613 144.955 143.871 145.265 C 144.38 145.844 143.267 146.313 142.823 146.676 C 142.072 147.297 141.078 147.501 140.287 148.047 C 139.449 148.615 138.606 149.159 137.751 149.709 C 137.324 149.973 137.147 150.389 136.796 150.752 C 136.462 151.109 136.005 151.343 135.788 151.806 C 135.643 152.157 135.771 152.66 135.748 153.077 C 135.724 153.552 135.461 153.815 135.273 154.219 C 135.771 154.301 136.035 154.723 136.432 154.916 C 136.703 155.056 137.352 154.946 137.324 155.39 C 136.989 155.443 136.703 155.73 137.065 155.911 C 137.324 156.04 137.639 155.835 137.855 155.753 C 138.359 155.536 138.828 155.291 139.332 155.132 C 139.601 155.044 140.047 155.004 140.228 154.81 C 140.293 154.757 140.176 154.523 140.263 154.424 C 140.351 154.337 140.498 154.319 140.603 154.278 C 141.13 153.997 141.921 154.202 142.348 153.763 L 142.254 153.586 C 142.319 153.568 142.658 153.481 142.7 153.435 C 142.776 153.323 142.647 153.117 142.711 153.077 C 142.916 152.895 143.068 152.842 143.302 153.059 C 143.497 153.223 143.577 153.54 143.759 153.698 C 144.064 153.973 144.199 154.019 144.298 154.448 C 144.38 154.81 144.362 155.004 144.556 155.344 C 144.69 155.567 144.948 155.665 144.807 156.011 C 144.714 156.269 144.392 156.351 144.298 156.608 C 144.199 156.843 144.21 157.182 144.351 157.399 C 144.105 157.627 143.677 157.529 143.396 157.698 C 143.25 157.786 143.215 158.007 143.046 158.137 C 142.863 158.278 142.647 158.278 142.452 158.366 C 141.826 158.641 141.598 159.262 141.025 159.607 C 140.351 159.994 139.426 160.245 138.699 160.463 C 138.153 160.618 137.578 160.615 136.999 160.612 C 136.401 160.609 135.798 160.606 135.22 160.778 C 134.22 161.036 133.897 161.879 133.265 162.512 C 134.16 162.781 133.639 163.519 133.159 163.894 C 132.684 164.316 132.31 164.316 131.735 164.363 C 130.728 164.363 129.681 164.205 128.621 164.099 C 128.388 164.083 128.079 164.14 127.764 164.196 C 127.288 164.282 126.796 164.366 126.511 164.205 C 125.979 163.988 126.138 163.577 125.873 163.156 C 125.616 162.834 125.13 162.617 124.714 162.406 C 124.029 162.043 123.443 161.294 122.717 161.504 C 122.072 161.68 121.605 162.313 120.867 162.465 C 119.988 162.711 119.074 162.747 118.202 163.003 C 117.429 163.22 117.001 163.595 116.327 163.958 C 115.801 164.233 115.343 164.444 114.892 164.843 C 114.606 165.1 113.91 166.154 113.429 165.885 C 112.937 165.603 113.481 165.042 112.691 165.428 C 112.563 165.475 112.035 165.709 111.953 165.808 C 111.831 165.938 111.958 166.084 111.889 166.259 C 111.584 166.893 111.027 167.407 110.471 167.8 C 110.185 167.993 110.067 168.088 109.873 168.369 C 109.768 168.509 109.681 168.796 109.551 168.895 C 109.236 169.141 108.667 168.873 108.539 169.422 C 108.825 169.574 109.236 169.404 109.341 169.879 C 109.422 170.172 108.984 170.606 108.867 170.969 C 108.515 171.994 108.152 172.608 107.349 173.346 C 106.91 173.75 106.975 173.967 106.818 174.447 C 106.688 174.822 106.354 175.126 106.172 175.501 C 105.95 175.964 105.863 176.509 105.645 176.977 C 105.399 177.539 104.942 178.032 104.889 178.653 C 104.844 179.296 105.229 179.729 105.522 180.245 C 105.874 180.89 105.891 181.709 106.032 182.418 C 106.096 182.74 106.184 182.927 106.02 183.256 C 105.863 183.548 105.528 183.466 105.704 183.946 C 105.826 184.322 106.26 184.533 106.512 184.789 C 106.805 185.071 106.963 185.34 107.156 185.691 C 107.339 186.031 107.713 186.465 107.637 186.845 C 107.561 187.214 107.244 187.063 107.502 187.449 C 107.607 187.594 107.87 187.683 108.035 187.742 C 108.591 187.958 109.177 187.952 109.727 188.204 C 110.172 188.409 110.284 188.819 110.728 189.017 C 111.115 189.182 111.766 189.112 111.906 189.651 C 111.942 189.803 111.8 190.013 111.8 190.212 C 111.8 190.283 111.906 190.676 111.942 190.751 C 112.14 191.255 112.397 191.209 112.948 191.319 C 113.224 191.372 113.534 191.397 113.792 191.536 C 114.05 191.665 114.015 191.77 114.155 191.917 C 114.456 192.214 114.763 192.193 115.128 192.174 C 115.316 192.163 115.521 192.152 115.748 192.186 C 116.345 192.262 116.164 192.59 116.586 192.778 C 117.664 193.223 118.94 191.94 119.9 191.747 C 120.188 191.683 120.691 191.747 121.078 191.653 C 121.646 191.513 122.331 191.385 122.916 191.385 C 123.432 191.385 123.713 191.683 124.192 191.449 C 124.714 191.202 125.316 190.676 125.774 190.312 C 126.19 189.991 126.43 189.458 126.987 189.34 C 127.206 189.295 127.405 189.323 127.61 189.349 C 127.749 189.368 127.89 189.386 128.04 189.381 C 128.362 189.37 128.538 189.212 128.837 189.17 C 129.263 189.113 129.755 189.205 130.252 189.296 C 130.661 189.372 131.073 189.448 131.455 189.44 C 132.181 189.416 132.644 188.925 133.306 188.807 C 133.306 189.2 133.663 189.329 133.99 189.44 C 134.535 189.615 134.723 189.468 134.624 190.066 C 134.547 190.553 134.611 190.751 134.646 191.232 C 134.676 191.607 134.494 191.829 134.582 192.239 C 134.699 192.795 134.974 192.667 135.384 192.848 C 135.706 193 135.981 193.288 136.269 193.482 C 136.825 193.856 137.51 193.937 138.079 194.295 C 138.681 194.659 139.308 195.021 140.017 195.19 C 140.532 195.32 141.534 195.367 141.856 195.859 C 141.674 195.963 141.463 196.046 141.365 196.234 C 141.856 196.637 142.447 196.819 141.932 197.609 C 142.319 197.826 142.746 197.867 142.811 198.4 C 142.395 198.746 142.178 198.863 142.02 199.343 C 141.932 199.571 141.878 199.612 141.878 199.818 C 141.891 199.993 142.072 200.11 142.026 200.35 C 142.529 200.584 142.863 201.234 142.4 201.668 C 142.576 201.879 142.711 201.955 142.928 202.083 C 142.974 202.117 143.041 202.105 143.107 202.095 C 143.169 202.084 143.232 202.074 143.279 202.102 C 143.379 202.172 143.32 202.335 143.396 202.43 C 143.507 202.534 143.613 202.769 143.783 202.833 C 143.997 202.911 144.212 202.843 144.431 202.774 C 144.626 202.713 144.822 202.652 145.024 202.694 C 145.915 202.874 145.902 204.051 146.927 204.069 C 147.279 204.069 147.145 203.946 147.467 204.163 C 147.649 204.286 147.636 204.467 147.882 204.585 C 148.257 204.749 148.919 204.69 149.324 204.783 C 149.71 204.866 150.067 204.971 150.471 204.995 C 150.576 205.005 150.694 205 150.817 204.996 C 151.119 204.985 151.445 204.974 151.637 205.181 C 151.467 205.218 151.303 205.393 151.361 205.579 C 151.443 205.85 151.584 205.697 151.789 205.685 C 152.18 205.657 152.515 205.311 152.901 205.229 C 153.347 205.784 153.657 205.165 153.961 204.79 C 154.395 204.245 154.717 204.139 155.326 203.823 C 155.542 203.718 155.736 203.572 155.946 203.449 C 156.034 203.425 156.064 203.297 156.151 203.237 C 156.203 203.218 156.265 203.234 156.322 203.25 C 156.38 203.265 156.434 203.282 156.474 203.261 C 156.667 203.121 156.697 202.862 156.925 202.746 C 157.086 202.66 157.205 202.67 157.329 202.681 C 157.409 202.689 157.49 202.694 157.587 202.676 C 157.393 201.972 158.054 202.073 158.483 202.043 C 158.869 201.258 159.361 200.766 159.917 200.105 C 159.969 200.181 160.164 200.285 160.217 200.391 C 161.066 199.602 161.053 198.347 161.352 197.405 C 161.452 197.118 161.575 197.054 161.597 196.773 C 161.61 196.537 161.452 196.561 161.622 196.244 C 161.832 195.835 162.295 195.531 162.477 195.085 C 162.178 194.804 161.909 194.43 162.014 194.025 C 162.143 193.482 162.635 193.434 162.067 192.965 C 162.811 192.175 163.303 191.174 163.975 190.336 C 164.649 189.498 165.791 187.869 165.141 186.74 C 164.937 186.394 164.55 186.09 164.339 185.691 C 164.122 185.282 164.081 184.965 163.982 184.52 C 163.859 183.994 163.566 183.618 163.139 183.256 C 162.869 183.033 162.295 182.846 162.178 182.535 C 162.114 182.389 162.114 181.551 162.131 181.358 C 162.166 180.995 162.412 180.673 162.542 180.327 C 162.647 180.052 162.892 179.742 162.968 179.46 C 163.021 179.249 162.944 179.109 162.981 178.886 C 163.045 178.372 163.32 178.254 163.612 177.879 C 164.134 177.194 164.122 176.169 163.964 175.408 C 163.747 174.347 165.17 172.984 165.505 171.906 C 165.762 171.127 166.4 170.3 166.242 169.434 C 166.154 169.024 165.932 168.649 165.879 168.216 C 165.803 167.584 165.973 166.805 166.037 166.167 C 166.072 165.744 166.219 165.357 166.306 164.954 C 166.466 164.14 165.826 163.401 164.977 163.695 C 164.122 163.988 163.126 164.462 162.552 165.212 C 161.879 166.084 161.61 167.297 160.497 167.813 C 159.964 168.058 159.823 167.841 159.747 167.414 C 159.656 166.869 159.828 166.683 159.271 166.484 C 159.406 166.517 159.538 166.545 159.654 166.571 C 160.743 166.833 160.948 165.721 161.235 164.954 C 161.633 163.882 162.401 163.133 163.021 162.196 C 163.899 160.883 163.654 157.745 165.815 157.499 C 166.072 156.772 166.488 155.965 166.512 155.174 C 166.523 154.77 166.435 154.576 166.266 154.219 C 166.061 153.785 166.102 153.334 165.973 152.907 C 165.826 152.445 165.44 152.093 165.388 151.601 C 165.352 151.279 165.709 150.892 165.61 150.594 C 165.528 150.296 165.001 150.09 164.714 149.996 C 164.081 149.792 163.126 149.973 162.594 149.721 C 162.271 149.545 162.371 149.182 161.868 149.289 C 161.469 149.364 161.322 149.698 161.194 150.014 C 160.966 150.553 161.276 150.67 161.288 151.174 C 161.3 151.718 160.884 151.876 160.497 152.122 C 159.964 152.468 159.823 152.673 159.22 152.497 C 158.776 152.38 158.366 152.298 157.909 152.222 C 157.405 152.157 156.978 151.9 156.474 151.794 C 156.291 151.754 156.073 151.802 155.857 151.85 C 155.579 151.911 155.305 151.973 155.115 151.847 C 154.523 151.455 155.361 151.15 155.414 150.81 C 155.443 150.617 155.127 150.349 155.261 150.154 C 155.384 149.996 155.759 150.025 155.894 150.119 C 156.045 150.248 155.971 150.577 156.123 150.74 C 156.304 150.916 156.645 150.892 156.871 150.905 C 157.341 150.939 157.809 150.916 158.283 150.957 C 158.839 151.021 159.033 151.032 159.49 150.705 C 160.005 150.349 160.444 149.944 161.018 149.651 C 161.832 149.246 162.605 148.714 163.448 148.432 C 163.654 148.357 163.964 148.35 164.134 148.21 C 164.316 148.069 164.328 147.812 164.55 147.73 C 164.689 147.68 164.837 147.694 164.986 147.707 C 165.217 147.728 165.453 147.749 165.674 147.531 C 165.288 146.746 165.17 146.571 165.826 145.926 C 166.283 145.493 166.5 144.603 167.021 144.538 C 167.389 144.486 167.613 144.796 167.94 144.859 C 168.391 144.925 168.339 144.579 168.725 144.427 C 169.358 144.176 170.189 144.451 170.693 144.732 C 171.027 144.925 171.571 145.223 171.624 144.521 C 171.648 144.216 171.197 143.56 171.999 143.905 C 172.397 144.064 172.45 144.521 172.65 144.837 C 172.919 145.276 173.294 145.433 173.692 145.739 C 174.131 146.079 174.196 146.377 174.418 146.852 C 174.664 147.343 174.875 147.367 175.326 147.602 C 175.701 147.788 176.011 147.976 175.817 148.387 C 175.683 148.668 175.326 148.925 175.178 149.264 C 175.806 149.119 176.451 149.001 177.112 149.007 C 177.779 149.007 177.927 149.967 178.535 149.698 C 178.752 149.996 178.663 150.529 179.221 150.365 C 179.336 149.973 179.074 149.522 179.027 149.107 C 178.963 148.726 179.039 148.339 179.021 147.952 C 178.998 147.495 178.974 147.086 179.021 146.635 C 179.051 146.29 179.232 145.78 179.179 145.47 C 179.114 145.083 178.523 144.603 178.236 144.345 C 177.797 143.982 177.662 143.788 177.434 143.256 C 177.147 142.57 176.503 141.861 176.462 141.083 C 176.42 140.315 176.568 139.625 176.362 138.828 C 176.215 138.213 175.518 137.457 175.625 136.866 C 175.688 136.509 176 136.234 176.064 135.87 C 176.139 135.396 175.935 135.29 175.754 134.869 C 175.625 134.541 175.584 134.161 175.518 133.814 C 175.455 133.411 175.478 133.283 175.688 132.808 C 175.478 132.79 175.296 132.749 175.168 132.597 C 175.672 131.548 177.586 133.388 178.271 133.592 C 178.833 132.762 179.179 132.866 179.449 133.814 C 179.671 134.629 180.238 135.396 180.878 135.959 C 181.522 136.509 181.551 137.37 182.12 138.09 C 182.301 138.313 182.71 138.782 182.74 138.172 C 182.763 137.863 182.248 137.475 182.102 137.229 C 181.691 136.555 181.381 135.771 181.041 135.057 C 180.872 134.705 180.76 134.307 180.562 133.967 C 180.474 133.803 180.281 133.686 180.238 133.487 C 180.175 133.265 180.316 133.166 180.321 132.948 C 180.344 132.258 179.812 131.291 179.454 130.652 C 179.008 129.833 178.47 129.107 177.896 128.38 C 177.445 127.806 177.112 127.256 176.824 126.582 C 176.59 126.038 176.205 125.727 175.754 125.3 C 175.313 124.872 175.261 124.387 174.857 123.941 C 174.277 123.309 174.442 122.711 173.89 122.044 C 173.381 121.423 172.749 120.849 172.274 120.181 C 171.22 118.687 169.99 117.627 168.573 116.45 C 167.794 115.812 167.096 115.092 166.242 114.559 C 165.492 114.096 164.989 113.376 164.24 112.866 C 163.501 112.362 162.88 111.701 162.178 111.133 C 162.037 111.022 161.856 110.811 161.698 110.759 C 161.601 110.726 161.506 110.751 161.413 110.774 C 161.317 110.799 161.224 110.823 161.136 110.787 C 160.831 110.658 160.643 110.154 160.433 109.909 C 159.168 108.521 157.328 107.783 155.683 107.062 C 154.453 106.535 153.265 105.961 151.999 105.482 C 151.133 105.154 150.342 104.72 149.516 104.368 C 148.638 103.994 147.677 103.759 146.787 103.351 C 145.644 102.84 144.31 102.594 143.133 102.249 C 142.641 102.103 142.412 102.143 141.974 102.143 C 141.463 102.143 140.896 101.909 140.392 101.844 C 139.472 101.71 138.517 101.652 137.639 101.417 C 136.55 101.124 135.415 101.043 134.272 100.89 C 133.394 100.772 132.667 100.75 131.8 100.879 C 131.168 100.96 130.641 100.75 130.043 100.732 C 129.667 100.711 129.287 100.701 128.904 100.701 C 127.202 100.701 125.447 100.891 123.818 101.078 Z  M 148.585 163.091 C 148.087 162.963 147.998 162.687 147.613 162.254 C 147.132 161.715 145.569 160.738 146.781 159.969 C 146.904 159.882 147.238 159.864 147.402 159.818 C 147.583 159.753 147.654 159.619 147.882 159.619 C 148.567 159.619 148.322 160.099 148.503 160.515 C 148.89 161.387 150.313 161.745 151.103 161.99 C 151.958 162.254 152.48 162.923 153.37 163.103 C 154.207 163.261 155.063 163.401 155.789 163.852 C 156.567 164.316 156.913 164.89 157.545 165.475 C 157.821 165.733 158.143 166.132 158.494 166.259 C 158.627 166.31 158.782 166.359 158.945 166.402 C 158.611 166.347 158.237 166.357 157.909 166.365 C 157.393 166.4 157.299 166.611 156.86 166.787 C 156.36 166.098 155.708 166.15 155.043 166.201 C 154.487 166.244 153.921 166.287 153.422 165.897 C 152.942 165.522 152.954 164.877 152.416 164.479 C 151.958 164.14 151.507 163.83 151.934 163.22 C 151.467 162.769 150.429 162.664 149.827 162.876 C 149.476 163.006 149.287 163.144 148.966 163.144 C 148.858 163.144 148.734 163.128 148.585 163.091 Z  M 120.65 101.61 C 120.579 101.632 120.507 101.659 120.435 101.688 C 120.532 101.658 120.626 101.624 120.721 101.592 C 120.697 101.598 120.673 101.604 120.65 101.61 Z  M 120.123 101.781 C 119.707 101.897 119.174 101.897 118.863 102.131 C 119.367 102.265 119.917 101.902 120.435 101.688 C 120.334 101.722 120.231 101.753 120.123 101.781 Z  M 126.032 102.975 L 126.138 102.94 C 125.979 103.408 127.671 103.725 127.883 103.408 C 127.598 103.212 126.796 102.853 126.336 102.853 C 126.193 102.853 126.083 102.889 126.032 102.975 Z  M 97.376 111.35 C 97.002 111.625 96.551 111.806 96.17 112.064 C 95.719 112.351 95.367 112.75 94.946 113.071 C 94.541 113.376 94.101 113.645 93.739 114.021 C 93.376 114.383 93.119 114.834 92.732 115.198 C 91.291 116.527 89.523 117.733 88.571 119.525 C 88.12 120.369 87.596 120.978 86.946 121.663 C 85.168 123.52 84.108 125.792 82.749 127.899 C 81.475 129.857 80.077 131.683 79.378 133.909 C 79.069 134.916 78.501 135.794 78.16 136.767 C 77.815 137.775 77.464 138.746 77.231 139.764 C 76.737 141.927 75.859 143.993 75.742 146.207 C 75.678 147.367 75.463 148.538 75.218 149.651 C 75.046 150.412 74.811 150.939 74.884 151.666 C 74.929 152.134 74.916 152.65 74.896 153.117 C 74.876 153.47 74.65 155.783 75.004 155.812 C 75.099 155.823 75.142 155.753 75.207 155.695 C 75.025 154.337 75.73 153.334 76.211 152.122 C 76.32 151.853 76.843 149.803 77.324 151.01 C 77.851 150.852 77.743 150.377 78.48 150.219 C 78.964 150.113 79.956 150.219 79.122 150.8 C 79.859 151.384 80.169 151.174 80.225 150.377 C 80.278 149.75 80.278 149.007 80.387 148.263 C 80.387 148.005 80.697 147.748 80.697 147.531 C 80.697 147.156 80.331 146.852 80.278 146.465 C 80.225 145.739 80.545 145.363 81.229 145.997 C 81.391 146.155 81.391 146.53 81.593 146.688 C 81.915 146.997 82.491 146.957 82.6 147.373 C 82.706 147.858 81.754 148.743 81.754 149.429 C 81.81 150.014 82.279 151.068 82.547 151.702 C 82.814 152.327 83.499 152.861 84.129 152.122 C 84.814 151.384 83.286 149.592 83.286 148.637 C 83.286 147.893 83.499 147.531 83.81 146.852 C 84.184 146.102 84.129 145.634 84.184 144.837 C 84.237 143.788 84.184 142.728 84.184 141.674 C 84.237 140.984 84.398 140.304 84.504 139.613 C 84.559 139.349 84.814 138.828 84.655 138.5 C 84.441 138.069 84.317 138.254 84.155 138.439 C 84.04 138.57 83.908 138.702 83.712 138.612 C 83.178 138.288 84.559 135.186 84.655 134.6 C 84.762 134.178 84.923 133.171 84.559 132.855 C 84.023 132.328 83.391 133.018 83.233 133.336 C 82.922 133.862 82.814 134.178 82.386 134.653 C 81.81 135.28 81.754 135.981 81.338 136.608 C 80.908 137.241 80.169 137.457 79.795 138.138 C 79.54 138.612 79.593 139.08 79.122 139.402 C 78.642 138.717 80.225 137.024 80.589 136.392 C 81.177 135.443 81.649 134.072 81.862 133.018 C 82.129 131.695 82.023 130.535 82.814 129.323 C 83.072 128.96 84.237 127.473 84.814 127.847 C 85.446 128.275 84.129 129.323 84.439 130.061 C 84.504 130.172 84.6 130.383 84.655 130.477 C 85.136 130.219 84.923 129.75 85.136 129.375 C 85.297 129.001 85.713 128.896 85.927 128.638 C 86.197 128.211 85.822 128.064 86.237 127.794 C 86.452 127.689 86.559 128.064 86.72 128.064 C 86.975 127.952 87.083 127.736 87.35 127.631 C 88.453 126.997 88.624 127.373 88.035 128.316 C 87.673 128.96 87.607 129.697 87.297 130.324 C 86.989 131.038 86.663 130.951 86.275 130.865 C 86.002 130.804 85.699 130.743 85.35 130.957 C 85.028 131.162 85.242 132.492 85.083 133.065 C 84.923 133.757 84.655 134.501 84.976 135.121 C 85.552 136.192 86.131 135.28 86.398 134.501 C 86.506 133.967 86.506 133.499 86.869 133.065 C 87.135 133.44 87.03 133.967 87.564 134.072 C 88.088 134.178 88.41 133.54 88.453 133.123 C 88.453 132.919 88.195 132.762 88.195 132.597 C 88.195 132.275 88.41 132.221 88.506 131.912 C 88.667 131.59 88.773 131.332 88.925 131.063 C 89.095 130.583 89.458 130.009 89.566 129.54 C 89.619 129.054 89.406 128.791 89.458 128.316 C 89.523 127.924 89.853 127.689 90.015 127.333 C 90.164 126.997 90.22 126.576 90.36 126.213 C 90.483 125.873 90.799 125.651 90.923 125.311 C 91.075 124.914 90.987 123.648 90.313 124.023 C 90.187 123.813 90.272 123.179 90.401 122.999 C 89.941 122.898 89.652 123.355 89.394 123.672 C 89.115 124.012 88.699 124.293 88.463 124.633 C 88.035 125.276 88.39 126.611 87.309 126.248 C 87.297 125.868 87.673 125.61 87.874 125.311 C 88.12 124.961 88.24 124.602 88.41 124.211 C 88.667 123.555 89.201 123.179 89.566 122.623 C 89.148 121.856 87.982 123.848 87.62 123.982 C 87.233 123.485 88.079 122.993 88.41 122.746 C 88.914 122.36 88.925 122.114 88.837 121.511 C 88.785 121.165 88.624 120.638 88.773 120.298 C 88.837 120.152 89.042 119.842 89.245 119.929 C 89.534 120.035 89.245 120.439 89.236 120.614 C 89.192 121.235 89.458 121.212 89.78 120.772 C 90.208 120.175 90.571 119.49 91.203 119.033 C 91.555 118.775 92.187 118.612 92.433 118.196 C 92.573 117.967 92.573 117.358 92.702 117.019 C 93.014 116.163 93.598 115.819 94.208 115.227 C 94.67 114.77 95.566 113.968 95.76 113.4 C 95.162 113.623 94.401 114.454 94.038 114.963 C 93.686 115.467 93.142 116.421 92.422 116.375 C 92.603 115.882 93.183 115.625 93.523 115.227 C 93.944 114.757 94.101 114.354 94.635 113.962 C 95.074 113.633 95.525 113.317 95.888 112.907 C 96.626 112.1 97.546 111.573 98.372 110.811 C 98.799 110.425 99.379 110.149 99.859 109.862 C 100.866 109.252 101.85 108.65 102.857 108.093 L 102.799 107.964 C 100.814 108.738 99.097 110.02 97.376 111.35 Z  M 128.837 109.007 L 129.036 108.949 C 128.462 109.529 130.201 109.418 130.418 109.113 C 130.201 109.054 129.938 108.908 129.681 108.908 C 129.774 108.79 129.833 108.521 129.991 108.421 C 129.867 108.339 129.765 108.304 129.678 108.304 C 129.322 108.304 129.214 108.875 128.837 109.007 Z  M 128.568 109.687 C 127.883 109.687 127.777 109.745 127.349 110.319 L 127.477 110.277 C 127.423 110.304 127.383 110.343 127.349 110.425 C 127.777 111.069 129.616 111.174 129.774 110.12 C 129.812 109.733 129.507 109.644 129.144 109.644 C 128.954 109.644 128.747 109.668 128.568 109.687 Z  M 96.005 114.331 C 95.901 114.474 95.935 114.569 95.97 114.646 C 96.493 114.292 97.219 113.672 96.422 113.552 C 96.401 113.549 96.38 113.548 96.358 113.548 C 95.894 113.548 95.301 114.18 96.005 114.331 Z  M 95.631 114.858 L 96.005 114.757 C 96.005 114.722 95.988 114.687 95.97 114.646 C 95.832 114.74 95.709 114.815 95.631 114.858 Z  M 93.259 117.189 C 93.364 117.335 93.417 117.189 93.523 117.189 L 93.451 117.189 C 93.823 117.153 94.335 116.681 94.53 116.333 C 93.792 115.93 95.003 115.443 95.215 115.075 C 95.182 115.062 95.147 115.056 95.109 115.056 C 94.484 115.056 93.259 116.685 93.259 117.189 Z  M 129.61 116.582 C 128.979 116.378 128.64 117.217 128.245 117.552 C 128.087 117.769 127.671 117.926 127.508 118.084 C 127.04 118.718 127.413 118.507 127.777 118.922 C 128.152 119.502 128.192 120.298 128.621 120.978 C 129.089 121.88 129.147 122.195 130.201 122.301 C 130.57 122.36 132 122.36 131.479 121.563 C 131.342 121.371 131.093 121.393 130.858 121.417 C 130.707 121.432 130.563 121.446 130.459 121.405 C 129.991 121.188 130.201 121.247 129.991 120.72 C 129.885 120.556 129.616 120.398 129.616 120.181 C 129.576 120.035 129.833 119.672 129.833 119.672 C 129.681 119.245 129.252 119.245 129.147 118.718 C 128.984 117.979 130.365 117.084 130.043 116.709 C 129.949 116.586 129.871 116.537 129.782 116.537 C 129.731 116.537 129.675 116.553 129.61 116.582 Z  M 94.049 118.084 C 94.208 118.29 94.372 118.236 94.635 118.236 L 94.319 118.236 C 94.84 118.131 95.109 117.499 95.525 117.189 C 95.456 117.154 95.386 117.138 95.317 117.138 C 94.854 117.138 94.375 117.81 94.049 118.084 Z  M 92.263 119.297 C 92.286 119.384 92.344 119.422 92.426 119.44 C 93.254 119.219 93.157 118.652 93.576 118.084 C 93.456 118.056 93.352 118.043 93.262 118.043 C 92.486 118.043 92.773 119.019 92.263 119.297 Z  M 93.833 120.398 C 94.583 120.251 96.005 120.035 94.682 120.72 C 94.319 120.884 93.833 120.978 93.471 121.148 C 93.212 121.247 92.369 121.726 91.994 121.621 C 92.1 121.083 92.573 121.043 92.896 120.667 C 93.212 120.251 93.147 120.035 93.364 119.56 C 92.065 119.503 90.039 123.508 91.358 123.926 C 91.976 123.554 91.549 122.378 92.573 122.623 C 92.521 122.776 92.521 123.097 92.462 123.244 C 93.002 123.309 93.471 122.84 94.101 122.84 C 94.788 122.881 94.788 122.993 95.525 122.665 C 96.223 122.407 97.002 122.248 97.633 121.832 C 97.218 121.458 97.324 120.72 97.107 120.251 C 97.002 119.818 96.896 118.817 96.638 118.612 C 96.496 118.487 96.317 118.433 96.118 118.433 C 95.147 118.432 93.711 119.741 93.833 120.398 Z  M 92.369 119.455 L 92.679 119.455 C 92.581 119.455 92.495 119.455 92.426 119.44 C 92.407 119.446 92.389 119.451 92.369 119.455 Z  M 90.36 120.614 C 90.091 120.824 89.566 120.978 89.511 121.353 C 89.458 121.832 89.728 121.779 90.038 121.511 L 90.091 121.563 C 90.624 121.458 91.736 120.088 91.889 119.607 C 91.86 119.605 91.833 119.604 91.806 119.604 C 91.122 119.604 90.761 120.164 90.36 120.614 Z  M 90.038 122.09 L 90.144 121.88 C 90.038 122.09 89.885 122.195 90.196 122.301 C 90.518 121.985 91.046 121.726 91.098 121.294 C 90.571 121.294 90.518 121.88 90.038 122.09 Z  M 116.907 123.244 C 116.586 123.309 115.9 123.52 115.684 123.736 C 115.391 123.979 115.742 124.506 115.169 124.519 C 114.446 124.306 114.249 124.063 113.522 124.843 C 112.205 126.155 113.522 125.469 114.366 126.049 C 114.114 126.424 114.155 126.787 114.635 126.893 C 115.173 126.997 115.426 126.477 115.684 126.102 C 116.005 125.687 116.11 125.628 116.327 125.042 C 116.533 124.316 116.11 124.627 116.849 124.316 C 117.213 124.211 118.02 124.316 117.803 123.619 C 117.691 123.285 117.472 123.235 117.225 123.235 C 117.122 123.235 117.014 123.244 116.907 123.244 Z  M 100.076 123.619 C 99.484 123.672 98.964 123.619 98.436 123.619 C 98.242 123.638 98.132 123.636 98.046 123.635 C 97.896 123.632 97.815 123.628 97.481 123.736 C 97.107 123.836 97.002 124.211 96.533 124.046 L 96.691 123.736 C 95.42 123.46 94.372 123.672 93.212 124.251 C 92.521 124.627 92.047 125.095 92.304 125.838 C 92.573 126.623 93.471 126.366 93.576 127.163 C 93.686 127.794 93.095 128.17 93.002 128.691 C 92.831 129.107 92.896 129.587 92.732 130.009 C 92.627 130.435 92.409 130.911 92.369 131.332 C 92.369 131.648 92.949 131.648 92.409 132.023 C 92.158 132.275 91.736 132.023 91.473 131.953 C 91.619 132.387 91.889 132.919 91.619 133.44 C 91.414 133.909 90.934 134.019 90.571 134.501 C 90.196 134.916 90.091 135.495 89.78 135.981 C 89.511 136.392 89.042 136.661 88.986 137.188 C 88.881 137.763 89.354 138.138 89.406 138.664 C 89.458 139.145 89.192 139.613 89.192 140.035 C 89.192 140.621 89.192 141.721 89.728 142.097 L 89.671 141.938 C 90.518 142.787 91.513 141.458 91.836 140.772 C 92.1 140.192 92.831 139.039 92.896 138.5 C 93.686 138.354 94.049 138.453 94.788 137.979 C 95.473 137.499 95.952 137.084 96.796 136.978 C 97.856 136.866 99.122 137.024 100.011 136.345 C 100.379 136.076 100.379 135.981 100.598 135.548 C 100.802 135.186 101.123 134.758 101.281 134.436 C 101.494 133.909 101.605 133.388 101.81 132.855 C 102.072 132.168 102.547 131.807 102.864 131.162 C 103.08 130.693 102.974 130.009 103.227 129.54 C 103.456 129.165 104.661 128.473 103.456 128.427 C 103.713 127.847 106.301 126.477 105.711 125.897 C 105.469 125.651 105.253 125.677 105.057 125.702 C 104.787 125.736 104.553 125.77 104.34 125.095 C 104.235 124.843 104.34 124.211 104.182 123.994 C 103.871 123.619 103.713 124.046 103.338 124.046 C 102.706 123.994 102.501 123.567 102.02 123.355 C 101.862 123.288 101.719 123.261 101.583 123.261 C 101.087 123.261 100.697 123.619 100.076 123.619 Z  M 91.203 123.994 L 91.414 123.941 C 91.395 123.937 91.377 123.931 91.358 123.926 C 91.313 123.953 91.261 123.976 91.203 123.994 Z  M 101.81 138.242 C 101.334 138.354 101.552 138.717 101.229 138.875 C 100.756 139.144 98.856 138.718 99.278 139.762 C 99.314 139.775 99.867 140.095 99.964 140.192 C 100.169 140.463 100.017 140.772 100.339 141.041 C 100.866 141.615 101.281 141.242 101.915 141.2 L 101.645 141.306 C 102.289 141.147 102.289 140.666 102.6 140.304 C 102.758 140.035 103.391 139.83 103.548 139.508 C 103.923 138.875 103.186 138.717 102.653 138.5 C 102.515 138.457 102.11 138.234 101.877 138.234 C 101.852 138.234 101.83 138.236 101.81 138.242 Z  M 99.279 139.764 C 99.279 139.764 99.278 139.763 99.278 139.762 C 99.277 139.761 99.277 139.761 99.276 139.761 C 99.275 139.761 99.276 139.762 99.279 139.764 Z  M 183.244 140.561 C 182.606 140.836 183.191 142.623 183.718 142.097 C 183.877 141.99 183.565 140.515 183.191 140.515 L 183.244 140.561 Z  M 108.674 145.47 C 108.409 146.418 108.931 146.418 109.511 146.997 C 110.091 147.643 109.991 149.429 109.886 150.219 C 109.833 150.705 108.772 153.077 109.511 153.44 C 109.939 153.599 110.207 152.286 110.354 151.964 C 110.893 150.957 111.467 151.384 112.205 150.852 C 112.679 150.594 112.474 150.166 112.732 149.908 C 112.948 149.639 114.114 149.277 113.687 148.69 C 113.467 148.438 113.21 148.613 112.969 148.786 C 112.804 148.906 112.646 149.026 112.515 149.007 C 111.578 148.901 112.421 148.328 112.205 147.952 C 111.893 147.373 111.415 147.858 110.998 147.373 C 110.781 147.156 110.945 146.477 110.893 146.155 C 110.731 145.641 110.627 144.097 110.116 144.254 C 110.028 144.234 109.943 144.225 109.862 144.225 C 109.195 144.225 108.807 144.867 108.674 145.47 Z  M 179.542 148.637 C 179.648 148.637 179.917 148.854 180.023 148.901 C 179.542 149.335 180.186 149.429 180.023 149.956 C 180.925 150.331 181.083 149.224 180.977 148.637 C 180.872 148.222 180.386 147.156 179.917 146.997 L 179.917 146.957 C 179.284 147.214 180.023 148.164 179.542 148.637 Z  M 106.665 149.592 C 106.559 150.219 105.084 151.536 106.342 152.07 C 106.77 152.286 107.186 151.912 107.296 151.642 C 107.296 151.642 107.186 151.174 107.244 151.068 C 107.349 150.752 107.725 150.529 107.83 150.272 C 108.245 149.429 108.568 148.222 107.508 147.788 L 107.561 147.858 C 107.389 147.733 107.25 147.68 107.137 147.68 C 106.523 147.679 106.709 149.281 106.665 149.592 Z  M 120.544 156.714 L 120.65 156.661 C 120.234 157.241 121.13 157.51 121.23 156.867 L 120.92 156.556 C 120.879 156.546 120.847 156.541 120.819 156.541 C 120.698 156.541 120.674 156.627 120.544 156.714 Z  M 135.643 157.556 L 135.589 157.616 C 135.425 158.612 136.591 158.032 137.118 157.827 C 136.934 157.609 136.406 157.439 136.025 157.439 C 135.852 157.439 135.708 157.475 135.643 157.556 Z  M 120.808 159.033 L 120.65 158.875 C 120.711 159.218 120.831 159.194 120.992 159.171 C 121.105 159.155 121.239 159.139 121.387 159.244 C 121.657 159.407 121.867 160.041 122.072 160.099 C 123.132 160.356 122.395 158.986 122.342 158.77 C 122.342 158.342 123.027 158.458 122.447 157.979 C 122.342 157.827 121.967 157.762 121.762 157.762 C 121.335 157.827 120.444 158.511 120.808 159.033 Z  M 126.19 158.875 C 126.032 158.927 124.972 159.454 124.972 159.454 C 124.825 159.829 125.088 160.099 125.452 160.099 L 125.241 160.099 C 125.294 160.309 125.452 160.568 125.722 160.621 C 125.873 160.673 126.032 160.309 126.19 160.309 C 126.354 160.309 126.676 160.463 126.611 160.463 C 126.987 160.463 128.298 160.403 127.349 159.619 C 128.226 159.099 127.516 158.758 126.819 158.758 C 126.589 158.758 126.36 158.795 126.19 158.875 Z  M 75.154 163.308 C 75.109 163.414 75.154 163.414 75.154 163.519 L 75.259 163.478 C 75.109 164.474 75.795 165.575 75.848 166.635 C 75.9 167.584 75.945 169.961 76.791 170.594 C 77.271 170.219 76.585 169.276 76.585 168.796 C 76.533 168.017 76.585 167.372 76.427 166.635 C 76.273 165.924 76.068 163.296 75.251 163.296 C 75.22 163.296 75.187 163.3 75.154 163.308 Z  M 77.218 171.01 C 77.259 171.013 77.3 171.019 77.34 171.028 C 77.352 170.982 77.365 170.942 77.38 170.91 L 77.218 171.01 Z  M 77.646 172.808 C 78.549 173.217 78.251 171.248 77.34 171.028 C 77.213 171.503 77.208 172.615 77.646 172.808 Z  M 79.122 177.985 L 79.005 177.826 C 79.005 177.926 79.005 178.032 79.057 178.085 C 79.432 179.677 80.545 181.206 81.338 182.564 C 82.129 183.946 82.706 185.317 83.552 186.594 C 84.504 188.07 85.713 189.329 86.72 190.751 C 87.191 191.437 87.511 192.122 88.088 192.766 C 88.624 193.399 89.245 193.867 89.78 194.511 C 90.934 195.917 92.158 196.983 93.576 198.143 C 94.84 199.197 95.742 200.468 97.271 201.206 C 98.062 201.528 98.964 201.786 99.591 202.417 C 100.129 202.951 100.492 203.73 101.229 204.163 C 101.698 204.48 102.072 204.427 102.6 204.527 C 103.496 204.69 104.023 205.369 104.773 205.579 C 104.608 205.218 104.129 205.111 103.766 204.842 C 103.391 204.527 103.174 204.051 102.974 203.688 C 102.706 203.313 101.751 202.359 101.915 201.786 C 102.236 201.786 102.178 201.632 102.384 201.528 C 102.02 201.247 102.125 200.989 102.547 200.942 C 102.236 200.053 100.96 199.513 100.222 198.981 C 99.806 198.722 99.326 198.347 98.964 198.036 C 98.747 197.879 98.641 197.609 98.436 197.463 C 98.317 197.374 98.215 197.382 98.115 197.391 C 98.031 197.399 97.948 197.406 97.856 197.358 C 97.428 197.088 97.107 196.667 96.691 196.398 C 96.223 196.092 95.952 196.186 95.525 195.987 C 95.215 195.876 94.477 195.449 94.26 195.342 C 93.997 195.138 93.792 194.909 93.634 194.547 C 92.831 194.98 92.304 193.652 91.889 193.235 C 91.414 192.812 90.466 192.602 89.832 192.028 C 89.458 191.595 89.566 191.595 89.298 191.073 C 88.986 190.587 88.72 190.587 88.304 190.225 C 87.822 189.691 87.511 189.064 87.135 188.538 C 86.197 187.22 84.559 186.523 83.659 185.006 C 82.761 183.624 82.279 182.2 81.338 180.831 C 80.856 180.198 80.331 179.507 79.903 178.823 C 79.646 178.3 79.218 176.977 78.856 176.766 C 78.642 177.194 78.908 177.61 79.122 177.985 Z  M 170.161 181.944 C 170.049 182.2 169.621 182.846 169.568 182.997 C 169.475 183.42 169.621 183.841 169.475 184.322 C 169.259 184.953 168.995 185.047 168.626 185.527 C 167.94 186.482 168.415 187.003 168.362 187.958 C 168.31 188.538 168.257 188.749 167.94 189.064 C 167.624 189.381 167.149 189.112 167.086 189.803 C 167.197 189.803 167.408 189.862 167.513 189.803 C 167.677 190.658 166.939 191.759 168.672 191.279 C 169.206 191.126 171.419 190.066 170.108 189.691 C 170.359 189.44 170.846 189.182 171.004 188.796 C 171.472 187.905 170.899 188.644 170.787 187.958 C 170.629 187.32 171.794 186.108 171.946 185.317 C 172.157 184.368 172.48 181.358 171.103 181.153 L 171.155 181.206 C 171.028 181.101 170.917 181.057 170.818 181.057 C 170.468 181.057 170.284 181.614 170.161 181.944 Z " fill="url(#_rgradient_15)"/></g><g><path d=" M 175.466 189.637 C 174.815 190.531 174.255 191.495 173.552 192.348 C 166.524 193.31 153.726 193.989 130.205 193.989 C 106.679 193.989 93.882 193.31 86.852 192.347 C 86.151 191.494 85.591 190.531 84.94 189.637 C 78.331 190.763 78.315 192.196 78.315 193.405 L 78.315 245.829 C 78.315 248.233 78.315 251.521 130.205 251.521 C 182.092 251.521 182.092 248.233 182.092 245.829 L 182.092 193.405 C 182.092 192.195 182.077 190.763 175.466 189.637 Z " fill="rgb(0,0,0)"/></g><g><linearGradient id="_lgradient_3" x1="0" y1="0.5" x2="1" y2="0.5" gradientTransform="matrix(98.383,0,0,28.513,81.013,193.405)" gradientUnits="userSpaceOnUse"><stop offset="0%" stop-opacity="1" style="stop-color:rgb(46,147,208)"/><stop offset="5.2%" stop-opacity="1" style="stop-color:rgb(46,147,208)"/><stop offset="28.799999999999997%" stop-opacity="1" style="stop-color:rgb(37,169,225)"/><stop offset="80.30000000000001%" stop-opacity="1" style="stop-color:rgb(46,147,208)"/><stop offset="100%" stop-opacity="1" style="stop-color:rgb(46,147,208)"/></linearGradient><path d=" M 130.205 196.401 C 103.032 196.401 81.013 195.058 81.013 193.405 L 81.013 218.923 C 81.013 220.576 103.032 221.918 130.205 221.918 C 157.371 221.918 179.396 220.576 179.396 218.923 L 179.396 193.405 C 179.396 195.058 157.371 196.401 130.205 196.401 Z " fill="url(#_lgradient_3)"/></g><g><linearGradient id="_lgradient_4" x1="0" y1="0.5" x2="1" y2="0.5" gradientTransform="matrix(98.383,0,0,28.512,81.013,220.386)" gradientUnits="userSpaceOnUse"><stop offset="0%" stop-opacity="1" style="stop-color:rgb(46,147,208)"/><stop offset="5.2%" stop-opacity="1" style="stop-color:rgb(46,147,208)"/><stop offset="28.799999999999997%" stop-opacity="1" style="stop-color:rgb(37,169,225)"/><stop offset="80.30000000000001%" stop-opacity="1" style="stop-color:rgb(46,147,208)"/><stop offset="100%" stop-opacity="1" style="stop-color:rgb(46,147,208)"/></linearGradient><path d=" M 130.205 223.382 C 103.032 223.382 81.013 222.04 81.013 220.386 L 81.013 245.902 C 81.013 247.556 103.032 248.899 130.205 248.899 C 157.371 248.899 179.396 247.556 179.396 245.902 L 179.396 220.386 C 179.396 222.04 157.371 223.382 130.205 223.382 Z " fill="url(#_lgradient_4)"/></g></g></g></svg>