<?xml version="1.0" encoding="UTF-8" standalone="no"?><!-- Generator: Gravit.io --><svg xmlns="http://www.w3.org/2000/svg" xmlns:xlink="http://www.w3.org/1999/xlink" style="isolation:isolate" viewBox="0 0 185.516 256" width="185.516pt" height="256pt"><defs><clipPath id="_clipPath_a7tFSwUoCqImUYrbjqxdzozB8iEhbSgG"><rect width="185.516" height="256"/></clipPath></defs><g clip-path="url(#_clipPath_a7tFSwUoCqImUYrbjqxdzozB8iEhbSgG)"><g><g><linearGradient id="_lgradient_5" x1="0" y1="0.5" x2="6.123233995736766e-17" y2="-0.5" gradientTransform="matrix(102.957,0,0,107.499,10.669,148.501)" gradientUnits="userSpaceOnUse"><stop offset="0%" stop-opacity="1" style="stop-color:rgb(108,110,112)"/><stop offset="53.6%" stop-opacity="1" style="stop-color:rgb(63,62,64)"/><stop offset="100%" stop-opacity="1" style="stop-color:rgb(63,62,64)"/></linearGradient><path d=" M 10.669 148.501 L 10.669 236 C 10.669 247 19.669 256 30.669 256 L 93.626 256 C 104.626 256 113.626 247 113.626 236 L 113.626 148.501 L 10.669 148.501 Z " fill="url(#_lgradient_5)"/></g><g><linearGradient id="_lgradient_6" x1="0" y1="0.5" x2="1" y2="0.5" gradientTransform="matrix(142.323,0,0,34.823,43.193,193.172)" gradientUnits="userSpaceOnUse"><stop offset="0%" stop-opacity="1" style="stop-color:rgb(177,179,181)"/><stop offset="17.599999999999998%" stop-opacity="1" style="stop-color:rgb(177,179,181)"/><stop offset="56.2%" stop-opacity="1" style="stop-color:rgb(202,204,206)"/><stop offset="100%" stop-opacity="1" style="stop-color:rgb(202,204,206)"/></linearGradient><path d=" M 58.526 193.172 C 50.093 193.172 43.193 200.071 43.193 208.505 L 43.193 212.662 C 43.193 221.094 50.093 227.995 58.526 227.995 L 170.183 227.995 C 178.616 227.995 185.516 221.094 185.516 212.662 L 185.516 208.505 C 185.516 200.071 178.616 193.172 170.183 193.172 L 58.526 193.172 Z " fill="url(#_lgradient_6)"/></g><g><linearGradient id="_lgradient_7" x1="0" y1="0.5" x2="6.123233995736766e-17" y2="-0.5" gradientTransform="matrix(124.294,0,0,172.772,0,0)" gradientUnits="userSpaceOnUse"><stop offset="0%" stop-opacity="1" style="stop-color:rgb(177,179,181)"/><stop offset="17.599999999999998%" stop-opacity="1" style="stop-color:rgb(177,179,181)"/><stop offset="56.2%" stop-opacity="1" style="stop-color:rgb(202,204,206)"/><stop offset="100%" stop-opacity="1" style="stop-color:rgb(202,204,206)"/></linearGradient><path d=" M 13.001 0 C 5.85 0 0 5.85 0 13 L 0 159.771 C 0 166.922 5.85 172.772 13.001 172.772 L 111.294 172.772 C 118.445 172.772 124.294 166.922 124.294 159.771 L 124.294 13 C 124.294 5.85 118.445 0 111.294 0 L 13.001 0 Z " fill="url(#_lgradient_7)"/></g><g><path d=" M 28.134 133.531 C 35.066 133.531 40.685 139.151 40.685 146.083 C 40.685 153.015 35.066 158.635 28.134 158.635 C 21.201 158.635 15.582 153.015 15.582 146.083 C 15.582 139.151 21.201 133.531 28.134 133.531 Z " fill="rgb(38,170,225)"/></g><g><path d=" M 62.147 133.531 C 69.079 133.531 74.699 139.151 74.699 146.083 C 74.699 153.015 69.079 158.635 62.147 158.635 C 55.215 158.635 49.596 153.015 49.596 146.083 C 49.596 139.151 55.215 133.531 62.147 133.531 Z " fill="rgb(38,170,225)"/></g><g><path d=" M 96.161 133.531 C 103.094 133.531 108.713 139.151 108.713 146.083 C 108.713 153.015 103.094 158.635 96.161 158.635 C 89.228 158.635 83.609 153.015 83.609 146.083 C 83.609 139.151 89.228 133.531 96.161 133.531 Z " fill="rgb(38,170,225)"/></g><g><path d=" M 28.134 93.733 C 35.066 93.733 40.685 99.353 40.685 106.285 C 40.685 113.217 35.066 118.837 28.134 118.837 C 21.201 118.837 15.582 113.217 15.582 106.285 C 15.582 99.353 21.201 93.733 28.134 93.733 Z " fill="rgb(38,170,225)"/></g><g><path d=" M 62.147 93.733 C 69.079 93.733 74.699 99.353 74.699 106.285 C 74.699 113.217 69.079 118.837 62.147 118.837 C 55.215 118.837 49.596 113.217 49.596 106.285 C 49.596 99.353 55.215 93.733 62.147 93.733 Z " fill="rgb(38,170,225)"/></g><g><path d=" M 96.161 93.733 C 103.094 93.733 108.713 99.353 108.713 106.285 C 108.713 113.217 103.094 118.837 96.161 118.837 C 89.228 118.837 83.609 113.217 83.609 106.285 C 83.609 99.353 89.228 93.733 96.161 93.733 Z " fill="rgb(38,170,225)"/></g><g><path d=" M 28.134 53.935 C 35.066 53.935 40.685 59.555 40.685 66.487 C 40.685 73.419 35.066 79.039 28.134 79.039 C 21.201 79.039 15.582 73.419 15.582 66.487 C 15.582 59.555 21.201 53.935 28.134 53.935 Z " fill="rgb(38,170,225)"/></g><g><path d=" M 62.147 53.935 C 69.079 53.935 74.699 59.555 74.699 66.487 C 74.699 73.419 69.079 79.039 62.147 79.039 C 55.215 79.039 49.596 73.419 49.596 66.487 C 49.596 59.555 55.215 53.935 62.147 53.935 Z " fill="rgb(38,170,225)"/></g><g><path d=" M 96.161 53.935 C 103.094 53.935 108.713 59.555 108.713 66.487 C 108.713 73.419 103.094 79.039 96.161 79.039 C 89.228 79.039 83.609 73.419 83.609 66.487 C 83.609 59.555 89.228 53.935 96.161 53.935 Z " fill="rgb(38,170,225)"/></g><g><path d=" M 28.134 14.136 C 35.066 14.136 40.685 19.756 40.685 26.688 C 40.685 33.62 35.066 39.24 28.134 39.24 C 21.201 39.24 15.582 33.62 15.582 26.688 C 15.582 19.756 21.201 14.136 28.134 14.136 Z " fill="rgb(38,170,225)"/></g><g><path d=" M 62.147 14.136 C 69.079 14.136 74.699 19.756 74.699 26.688 C 74.699 33.62 69.079 39.24 62.147 39.24 C 55.215 39.24 49.596 33.62 49.596 26.688 C 49.596 19.756 55.215 14.136 62.147 14.136 Z " fill="rgb(38,170,225)"/></g><g><path d=" M 96.161 14.136 C 103.094 14.136 108.713 19.756 108.713 26.688 C 108.713 33.62 103.094 39.24 96.161 39.24 C 89.228 39.24 83.609 33.62 83.609 26.688 C 83.609 19.756 89.228 14.136 96.161 14.136 Z " fill="rgb(38,170,225)"/></g><g><path d=" M 62.147 197.906 C 69.079 197.906 74.699 203.526 74.699 210.458 C 74.699 217.39 69.079 223.01 62.147 223.01 C 55.215 223.01 49.596 217.39 49.596 210.458 C 49.596 203.526 55.215 197.906 62.147 197.906 Z " fill="rgb(35,31,32)"/></g><g><linearGradient id="_lgradient_8" x1="0" y1="0.5" x2="1" y2="0.5" gradientTransform="matrix(17.529,0,0,17.529,53.383,201.693)" gradientUnits="userSpaceOnUse"><stop offset="0%" stop-opacity="1" style="stop-color:rgb(177,179,181)"/><stop offset="17.599999999999998%" stop-opacity="1" style="stop-color:rgb(177,179,181)"/><stop offset="56.2%" stop-opacity="1" style="stop-color:rgb(202,204,206)"/><stop offset="100%" stop-opacity="1" style="stop-color:rgb(202,204,206)"/></linearGradient><path d=" M 53.383 210.458 C 53.383 215.298 57.307 219.222 62.148 219.222 C 66.988 219.222 70.912 215.298 70.912 210.458 C 70.912 205.617 66.988 201.693 62.148 201.693 C 57.307 201.693 53.383 205.617 53.383 210.458 Z " fill="url(#_lgradient_8)"/></g><g><path d=" M 62.148 216.345 C 61.217 216.345 60.457 215.584 60.457 214.654 L 60.457 206.263 C 60.457 205.332 61.217 204.572 62.148 204.572 C 63.078 204.572 63.839 205.332 63.839 206.263 L 63.839 214.654 C 63.839 215.584 63.078 216.345 62.148 216.345 Z " fill="rgb(35,31,32)"/></g></g></g></svg>