<?xml version="1.0" encoding="UTF-8" standalone="no"?><!-- Generator: Gravit.io --><svg xmlns="http://www.w3.org/2000/svg" xmlns:xlink="http://www.w3.org/1999/xlink" style="isolation:isolate" viewBox="0 0 182.382 256" width="182.382pt" height="256pt"><defs><clipPath id="_clipPath_pDQgu3ctqdYwZ42RGFEMmHReRk2LsYZy"><rect width="182.382" height="256"/></clipPath></defs><g clip-path="url(#_clipPath_pDQgu3ctqdYwZ42RGFEMmHReRk2LsYZy)"><g><g><linearGradient id="_lgradient_9" x1="0" y1="0.5" x2="6.123233995736766e-17" y2="1.5" gradientTransform="matrix(175.572,0,0,146.076,0,109.924)" gradientUnits="userSpaceOnUse"><stop offset="0%" stop-opacity="1" style="stop-color:rgb(26,142,205)"/><stop offset="16.299999999999997%" stop-opacity="1" style="stop-color:rgb(26,142,205)"/><stop offset="65.2%" stop-opacity="1" style="stop-color:rgb(110,190,233)"/><stop offset="100%" stop-opacity="1" style="stop-color:rgb(110,190,233)"/></linearGradient><path d=" M 121.431 109.924 C 120.647 109.924 120.22 109.952 120.22 109.952 C 120.22 109.952 108.652 119.212 86.682 119.212 C 64.713 119.212 55.347 109.952 55.347 109.952 C 55.347 109.952 54.928 109.924 54.149 109.924 C 50.086 109.912 36.32 110.648 21.75 119.999 C 21.188 120.364 20.626 120.743 20.065 121.123 C 2.634 133.094 0.15 144.503 0.008 163.915 C 0 164.54 0 165.182 0 165.826 L 0 256 L 175.572 256 L 175.572 165.826 L 175.572 163.915 C 175.429 144.503 172.937 133.094 155.504 121.123 C 154.942 120.743 154.38 120.364 153.818 119.999 C 139.371 110.719 125.69 109.924 121.524 109.924 C 121.492 109.924 121.461 109.924 121.431 109.924 Z " fill="url(#_lgradient_9)"/></g><g><linearGradient id="_lgradient_10" x1="0" y1="0.5" x2="1" y2="0.5" gradientTransform="matrix(92.955,0,0,48.578,87.578,179.122)" gradientUnits="userSpaceOnUse"><stop offset="0%" stop-opacity="1" style="stop-color:rgb(46,44,45)"/><stop offset="100%" stop-opacity="1" style="stop-color:rgb(87,88,90)"/></linearGradient><path d=" M 95.47 199.639 C 104.592 210.569 125.879 224.269 175.493 227.463 C 176.919 227.555 178.318 227.632 179.701 227.7 L 180.533 224.97 C 170.949 223.785 164.045 220.381 159.989 214.807 C 153.52 205.911 156.556 194.334 156.588 194.218 L 155.397 193.894 L 154.207 193.569 C 154.065 194.086 150.818 206.37 157.979 216.238 C 159.643 218.531 161.729 220.485 164.214 222.108 C 154.701 219.475 147.326 215.398 142.43 209.983 C 135.326 202.128 135.775 194.059 135.78 193.979 L 134.549 193.894 L 133.318 193.805 C 133.292 194.173 132.755 202.917 140.538 211.572 C 143.772 215.169 147.907 218.183 152.913 220.612 C 139.16 216.943 130.033 211.858 124.16 207.368 C 113.434 199.171 110.969 191.164 110.946 191.085 L 108.576 191.775 C 108.677 192.128 111.202 200.496 122.461 209.177 C 127.851 213.332 135.896 217.979 147.579 221.634 C 118.517 216.225 104.347 206.37 97.444 198.152 C 89.211 188.348 90.076 179.492 90.086 179.404 L 88.859 179.265 L 87.632 179.122 C 87.586 179.522 86.6 189.01 95.47 199.639 Z " fill="url(#_lgradient_10)"/></g><g><linearGradient id="_lgradient_11" x1="0" y1="0.5" x2="6.123233995736766e-17" y2="1.5" gradientTransform="matrix(87.252,0,0,102.084,43.586,0)" gradientUnits="userSpaceOnUse"><stop offset="0%" stop-opacity="1" style="stop-color:rgb(46,44,45)"/><stop offset="100%" stop-opacity="1" style="stop-color:rgb(87,88,90)"/></linearGradient><path d=" M 86.575 0 C 40.642 0 50.841 44.719 50.841 44.719 L 50.874 44.719 C 51.078 46.373 51.293 47.258 51.293 47.258 C 51.293 47.258 43.586 46.858 43.586 53.16 C 43.586 59.474 45.691 71.73 48.144 72.433 C 50.6 73.138 54.806 72.433 54.806 72.433 C 54.806 72.433 53.749 79.792 65.309 90.655 C 74.732 99.508 83.671 101.609 86.682 102.084 L 87.746 102.084 C 90.744 101.609 99.697 99.508 109.12 90.655 C 120.679 79.792 119.632 72.433 119.632 72.433 C 119.632 72.433 123.836 73.138 126.281 72.433 C 128.738 71.73 130.838 59.474 130.838 53.16 C 130.838 46.858 123.132 47.258 123.132 47.258 L 123.711 44.719 C 123.711 44.719 133.911 0 87.978 0 L 86.575 0 Z " fill="url(#_lgradient_11)"/></g><g><linearGradient id="_lgradient_12" x1="0" y1="0.5" x2="1" y2="0.5" gradientTransform="matrix(15.159,0,0,15.159,81.279,171.685)" gradientUnits="userSpaceOnUse"><stop offset="0%" stop-opacity="1" style="stop-color:rgb(46,44,45)"/><stop offset="100%" stop-opacity="1" style="stop-color:rgb(87,88,90)"/></linearGradient><path d=" M 81.279 179.265 C 81.279 183.45 84.673 186.844 88.859 186.844 C 93.045 186.844 96.438 183.45 96.438 179.265 C 96.438 175.078 93.045 171.685 88.859 171.685 C 84.673 171.685 81.279 175.078 81.279 179.265 Z " fill="url(#_lgradient_12)"/></g><g><radialGradient id="_rgradient_16" fx="0.5" fy="0.5" cx="0.5" cy="0.5" r="0.5" gradientTransform="matrix(12.415,0,0,12.414,82.652,173.057)" gradientUnits="userSpaceOnUse"><stop offset="0%" stop-opacity="1" style="stop-color:rgb(219,220,222)"/><stop offset="14.799999999999999%" stop-opacity="1" style="stop-color:rgb(219,220,222)"/><stop offset="100%" stop-opacity="1" style="stop-color:rgb(177,179,181)"/></radialGradient><path d=" M 82.652 179.265 C 82.652 182.688 85.436 185.471 88.859 185.471 C 92.282 185.471 95.067 182.688 95.067 179.265 C 95.067 175.841 92.282 173.057 88.859 173.057 C 85.436 173.057 82.652 175.841 82.652 179.265 Z " fill="url(#_rgradient_16)"/></g><g><linearGradient id="_lgradient_13" x1="0" y1="0.5" x2="0.7071067811865476" y2="1.2071067811865475" gradientTransform="matrix(15.159,0,0,15.159,126.97,186.314)" gradientUnits="userSpaceOnUse"><stop offset="14.7%" stop-opacity="1" style="stop-color:rgb(46,44,45)"/><stop offset="85.39999999999999%" stop-opacity="1" style="stop-color:rgb(87,88,90)"/></linearGradient><path d=" M 129.19 188.534 C 126.23 191.494 126.23 196.293 129.19 199.253 C 132.15 202.213 136.949 202.213 139.909 199.253 C 142.869 196.293 142.869 191.494 139.909 188.534 C 138.429 187.054 136.489 186.314 134.549 186.314 C 132.609 186.314 130.67 187.054 129.19 188.534 Z " fill="url(#_lgradient_13)"/></g><g><radialGradient id="_rgradient_17" fx="0.5" fy="0.5" cx="0.5" cy="0.5" r="0.354" gradientTransform="matrix(12.413,0,0,12.416,128.341,187.686)" gradientUnits="userSpaceOnUse"><stop offset="0%" stop-opacity="1" style="stop-color:rgb(219,220,222)"/><stop offset="14.799999999999999%" stop-opacity="1" style="stop-color:rgb(219,220,222)"/><stop offset="100%" stop-opacity="1" style="stop-color:rgb(177,179,181)"/></radialGradient><path d=" M 130.16 189.503 C 128.987 190.677 128.341 192.235 128.341 193.894 C 128.341 195.551 128.987 197.11 130.16 198.283 C 131.333 199.456 132.891 200.102 134.549 200.102 C 136.208 200.102 137.766 199.456 138.939 198.283 C 141.359 195.862 141.359 191.924 138.939 189.503 C 137.766 188.332 136.208 187.686 134.549 187.686 C 132.891 187.686 131.333 188.332 130.16 189.503 Z " fill="url(#_rgradient_17)"/></g><g><linearGradient id="_lgradient_14" x1="0" y1="0.5" x2="0.7071301045733903" y2="1.2070834570303748" gradientTransform="matrix(15.159,0,0,15.158,102.182,183.853)" gradientUnits="userSpaceOnUse"><stop offset="14.6%" stop-opacity="1" style="stop-color:rgb(46,44,45)"/><stop offset="85.39999999999999%" stop-opacity="1" style="stop-color:rgb(87,88,90)"/></linearGradient><path d=" M 104.402 186.073 C 101.442 189.032 101.442 193.831 104.402 196.791 C 107.362 199.751 112.161 199.751 115.121 196.791 C 118.081 193.831 118.081 189.032 115.121 186.073 C 113.641 184.593 111.701 183.853 109.761 183.853 C 107.822 183.853 105.882 184.593 104.402 186.073 Z " fill="url(#_lgradient_14)"/></g><g><radialGradient id="_rgradient_18" fx="0.5" fy="0.5" cx="0.5" cy="0.5" r="0.354" gradientTransform="matrix(12.409,0,0,12.415,103.557,185.224)" gradientUnits="userSpaceOnUse"><stop offset="0%" stop-opacity="1" style="stop-color:rgb(219,220,222)"/><stop offset="14.799999999999999%" stop-opacity="1" style="stop-color:rgb(219,220,222)"/><stop offset="100%" stop-opacity="1" style="stop-color:rgb(177,179,181)"/></radialGradient><path d=" M 105.372 187.041 C 102.952 189.462 102.952 193.4 105.372 195.822 C 106.545 196.993 108.103 197.639 109.761 197.639 C 111.419 197.639 112.978 196.993 114.151 195.822 C 116.571 193.4 116.571 189.462 114.151 187.041 C 112.978 185.869 111.419 185.224 109.761 185.224 C 108.103 185.224 106.545 185.869 105.372 187.041 Z " fill="url(#_rgradient_18)"/></g><g><linearGradient id="_lgradient_15" x1="0" y1="0.5" x2="0.7070892882857903" y2="1.2071242736545638" gradientTransform="matrix(15.158,0,0,15.159,147.818,186.314)" gradientUnits="userSpaceOnUse"><stop offset="14.599999999999994%" stop-opacity="1" style="stop-color:rgb(46,44,45)"/><stop offset="85.39999999999999%" stop-opacity="1" style="stop-color:rgb(87,88,90)"/></linearGradient><path d=" M 150.037 188.534 C 147.078 191.494 147.078 196.293 150.037 199.253 C 152.997 202.213 157.796 202.213 160.756 199.253 C 163.716 196.293 163.716 191.494 160.756 188.534 C 159.276 187.054 157.337 186.314 155.397 186.314 C 153.457 186.314 151.517 187.054 150.037 188.534 Z " fill="url(#_lgradient_15)"/></g><g><radialGradient id="_rgradient_19" fx="0.5" fy="0.5" cx="0.5" cy="0.5" r="0.354" gradientTransform="matrix(12.413,0,0,12.416,149.192,187.686)" gradientUnits="userSpaceOnUse"><stop offset="0%" stop-opacity="1" style="stop-color:rgb(219,220,222)"/><stop offset="14.799999999999999%" stop-opacity="1" style="stop-color:rgb(219,220,222)"/><stop offset="100%" stop-opacity="1" style="stop-color:rgb(177,179,181)"/></radialGradient><path d=" M 151.007 189.503 C 148.587 191.924 148.587 195.862 151.007 198.283 C 152.18 199.456 153.739 200.102 155.397 200.102 C 157.056 200.102 158.613 199.456 159.787 198.283 C 160.96 197.11 161.605 195.551 161.605 193.894 C 161.605 192.235 160.96 190.677 159.787 189.503 C 158.613 188.332 157.056 187.686 155.397 187.686 C 153.739 187.686 152.18 188.332 151.007 189.503 Z " fill="url(#_rgradient_19)"/></g><g><linearGradient id="_lgradient_16" x1="0" y1="0.5" x2="0.9666248856554716" y2="0.7561958829324675" gradientTransform="matrix(5.484,0,0,9.86,176.898,221.014)" gradientUnits="userSpaceOnUse"><stop offset="15.399999999999995%" stop-opacity="1" style="stop-color:rgb(46,44,45)"/><stop offset="84.59999999999998%" stop-opacity="1" style="stop-color:rgb(87,88,90)"/></linearGradient><path d=" M 178.52 222.479 L 176.963 228.412 C 176.688 229.457 177.318 230.535 178.363 230.81 C 179.407 231.084 180.486 230.454 180.761 229.41 L 182.318 223.476 C 182.592 222.431 181.961 221.352 180.917 221.078 C 180.752 221.035 180.585 221.014 180.421 221.014 C 179.551 221.014 178.751 221.599 178.52 222.479 Z " fill="url(#_lgradient_16)"/></g></g></g></svg>