<?xml version="1.0" encoding="UTF-8" standalone="no"?><!-- Generator: Gravit.io --><svg xmlns="http://www.w3.org/2000/svg" xmlns:xlink="http://www.w3.org/1999/xlink" style="isolation:isolate" viewBox="0 0 256 251.521" width="256pt" height="251.521pt"><defs><clipPath id="_clipPath_6ZrEsIOPNYyx42cfzKPO36kTPaci3te2"><rect width="256" height="251.521"/></clipPath></defs><g clip-path="url(#_clipPath_6ZrEsIOPNYyx42cfzKPO36kTPaci3te2)"><g><g><linearGradient id="_lgradient_0" x1="0" y1="0.5" x2="6.123233995736766e-17" y2="1.5" gradientTransform="matrix(256,0,0,85.622,0,165.899)" gradientUnits="userSpaceOnUse"><stop offset="0%" stop-opacity="1" style="stop-color:rgb(26,142,205)"/><stop offset="16.299999999999997%" stop-opacity="1" style="stop-color:rgb(26,142,205)"/><stop offset="65.2%" stop-opacity="1" style="stop-color:rgb(110,190,233)"/><stop offset="100%" stop-opacity="1" style="stop-color:rgb(110,190,233)"/></linearGradient><path d=" M 177.058 165.899 C 175.916 165.899 175.293 165.94 175.293 165.94 C 175.293 165.94 158.426 179.442 126.392 179.442 C 94.357 179.442 80.702 165.94 80.702 165.94 C 80.702 165.94 80.09 165.899 78.954 165.899 C 73.031 165.882 52.958 166.954 31.713 180.591 C 30.894 181.121 30.074 181.676 29.256 182.229 C 3.842 199.683 0.22 216.32 0.012 244.624 C 0 245.536 0 246.47 0 247.411 L 0 251.521 L 256 251.521 L 256 244.624 C 255.793 216.32 252.159 199.683 226.738 182.229 C 225.92 181.676 225.101 181.121 224.281 180.591 C 203.215 167.057 183.268 165.899 177.194 165.899 C 177.148 165.899 177.103 165.899 177.058 165.899 Z " fill="url(#_lgradient_0)"/></g><g><linearGradient id="_lgradient_1" x1="0" y1="0.5" x2="6.123233995736766e-17" y2="1.5" gradientTransform="matrix(127.222,0,0,148.848,63.553,5.62)" gradientUnits="userSpaceOnUse"><stop offset="0%" stop-opacity="1" style="stop-color:rgb(46,44,45)"/><stop offset="100%" stop-opacity="1" style="stop-color:rgb(87,88,90)"/></linearGradient><path d=" M 126.235 5.62 C 59.26 5.62 74.132 70.824 74.132 70.824 L 74.18 70.824 C 74.477 73.236 74.79 74.527 74.79 74.527 C 74.79 74.527 63.553 73.945 63.553 83.133 C 63.553 92.339 66.622 110.208 70.198 111.235 C 73.78 112.261 79.912 111.235 79.912 111.235 C 79.912 111.235 78.372 121.964 95.225 137.803 C 108.966 150.712 122.001 153.775 126.392 154.468 L 127.943 154.468 C 132.314 153.775 145.368 150.712 159.107 137.803 C 175.962 121.964 174.434 111.235 174.434 111.235 C 174.434 111.235 180.565 112.261 184.13 111.235 C 187.712 110.208 190.775 92.339 190.775 83.133 C 190.775 73.945 179.538 74.527 179.538 74.527 L 180.382 70.824 C 180.382 70.824 195.255 5.62 128.281 5.62 L 126.235 5.62 Z " fill="url(#_lgradient_1)"/></g><g><radialGradient id="_rgradient_0" fx="0.5" fy="0.5" cx="0.5" cy="0.5" r="0.5" gradientTransform="matrix(14.941,0,0,14.941,119.704,22.327)" gradientUnits="userSpaceOnUse"><stop offset="0%" stop-opacity="1" style="stop-color:rgb(219,220,222)"/><stop offset="14.799999999999999%" stop-opacity="1" style="stop-color:rgb(219,220,222)"/><stop offset="100%" stop-opacity="1" style="stop-color:rgb(177,179,181)"/></radialGradient><path d=" M 119.704 29.797 C 119.704 33.923 123.049 37.268 127.174 37.268 C 131.301 37.268 134.645 33.923 134.645 29.797 C 134.645 25.672 131.301 22.327 127.174 22.327 C 123.049 22.327 119.704 25.672 119.704 29.797 Z " fill="url(#_rgradient_0)"/></g><g><radialGradient id="_rgradient_1" fx="0.5" fy="0.5" cx="0.5" cy="0.5" r="0.5" gradientTransform="matrix(14.941,0,0,14.94,119.704,0)" gradientUnits="userSpaceOnUse"><stop offset="0%" stop-opacity="1" style="stop-color:rgb(219,220,222)"/><stop offset="14.799999999999999%" stop-opacity="1" style="stop-color:rgb(219,220,222)"/><stop offset="100%" stop-opacity="1" style="stop-color:rgb(177,179,181)"/></radialGradient><path d=" M 119.704 7.47 C 119.704 11.595 123.049 14.94 127.174 14.94 C 131.301 14.94 134.645 11.595 134.645 7.47 C 134.645 3.344 131.301 0 127.174 0 C 123.049 0 119.704 3.344 119.704 7.47 Z " fill="url(#_rgradient_1)"/></g><g><radialGradient id="_rgradient_2" fx="0.5" fy="0.5" cx="0.5" cy="0.5" r="0.5" gradientTransform="matrix(14.94,0,0,14.94,145.269,24.916)" gradientUnits="userSpaceOnUse"><stop offset="0%" stop-opacity="1" style="stop-color:rgb(219,220,222)"/><stop offset="14.799999999999999%" stop-opacity="1" style="stop-color:rgb(219,220,222)"/><stop offset="100%" stop-opacity="1" style="stop-color:rgb(177,179,181)"/></radialGradient><path d=" M 145.269 32.386 C 145.269 36.512 148.613 39.856 152.738 39.856 C 156.865 39.856 160.209 36.512 160.209 32.386 C 160.209 28.261 156.865 24.916 152.738 24.916 C 148.613 24.916 145.269 28.261 145.269 32.386 Z " fill="url(#_rgradient_2)"/></g><g><radialGradient id="_rgradient_3" fx="0.5" fy="0.5" cx="0.5" cy="0.5" r="0.5" gradientTransform="matrix(14.94,0,0,14.941,143.651,2.588)" gradientUnits="userSpaceOnUse"><stop offset="0%" stop-opacity="1" style="stop-color:rgb(219,220,222)"/><stop offset="14.799999999999999%" stop-opacity="1" style="stop-color:rgb(219,220,222)"/><stop offset="100%" stop-opacity="1" style="stop-color:rgb(177,179,181)"/></radialGradient><path d=" M 143.651 10.058 C 143.651 14.184 146.995 17.529 151.121 17.529 C 155.246 17.529 158.591 14.184 158.591 10.058 C 158.591 5.933 155.246 2.588 151.121 2.588 C 146.995 2.588 143.651 5.933 143.651 10.058 Z " fill="url(#_rgradient_3)"/></g><g><radialGradient id="_rgradient_4" fx="0.5" fy="0.5" cx="0.5" cy="0.5" r="0.354" gradientTransform="matrix(14.941,0,0,14.941,154.282,46.32)" gradientUnits="userSpaceOnUse"><stop offset="0%" stop-opacity="1" style="stop-color:rgb(219,220,222)"/><stop offset="14.799999999999999%" stop-opacity="1" style="stop-color:rgb(219,220,222)"/><stop offset="100%" stop-opacity="1" style="stop-color:rgb(177,179,181)"/></radialGradient><path d=" M 156.469 48.508 C 153.553 51.425 153.553 56.155 156.469 59.073 C 159.387 61.99 164.117 61.99 167.035 59.073 C 169.952 56.155 169.952 51.425 167.035 48.508 C 165.576 47.05 163.664 46.32 161.752 46.32 C 159.84 46.32 157.928 47.05 156.469 48.508 Z " fill="url(#_rgradient_4)"/></g><g><radialGradient id="_rgradient_5" fx="0.5" fy="0.5" cx="0.5" cy="0.5" r="0.354" gradientTransform="matrix(14.94,0,0,14.941,129.85,43.893)" gradientUnits="userSpaceOnUse"><stop offset="0%" stop-opacity="1" style="stop-color:rgb(219,220,222)"/><stop offset="14.799999999999999%" stop-opacity="1" style="stop-color:rgb(219,220,222)"/><stop offset="100%" stop-opacity="1" style="stop-color:rgb(177,179,181)"/></radialGradient><path d=" M 132.039 46.081 C 129.121 48.999 129.121 53.729 132.039 56.646 C 134.956 59.563 139.685 59.563 142.603 56.646 C 145.52 53.729 145.52 48.999 142.603 46.081 C 141.144 44.622 139.232 43.893 137.321 43.893 C 135.409 43.893 133.497 44.622 132.039 46.081 Z " fill="url(#_rgradient_5)"/></g><g><radialGradient id="_rgradient_6" fx="0.5" fy="0.5" cx="0.5" cy="0.5" r="0.354" gradientTransform="matrix(14.941,0,0,14.941,174.829,46.32)" gradientUnits="userSpaceOnUse"><stop offset="0%" stop-opacity="1" style="stop-color:rgb(219,220,222)"/><stop offset="14.799999999999999%" stop-opacity="1" style="stop-color:rgb(219,220,222)"/><stop offset="100%" stop-opacity="1" style="stop-color:rgb(177,179,181)"/></radialGradient><path d=" M 177.018 48.508 C 174.1 51.425 174.1 56.155 177.018 59.073 C 179.935 61.99 184.665 61.99 187.583 59.073 C 190.5 56.155 190.5 51.425 187.583 48.508 C 186.124 47.05 184.212 46.32 182.3 46.32 C 180.388 46.32 178.477 47.05 177.018 48.508 Z " fill="url(#_rgradient_6)"/></g><g><radialGradient id="_rgradient_7" fx="0.5" fy="0.5" cx="0.5" cy="0.5" r="0.354" gradientTransform="matrix(14.941,0,0,14.942,166.996,19.853)" gradientUnits="userSpaceOnUse"><stop offset="0%" stop-opacity="1" style="stop-color:rgb(219,220,222)"/><stop offset="14.799999999999999%" stop-opacity="1" style="stop-color:rgb(219,220,222)"/><stop offset="100%" stop-opacity="1" style="stop-color:rgb(177,179,181)"/></radialGradient><path d=" M 169.184 22.042 C 166.267 24.959 166.267 29.688 169.184 32.606 C 172.102 35.524 176.831 35.524 179.749 32.606 C 182.666 29.688 182.666 24.959 179.749 22.042 C 178.29 20.583 176.378 19.853 174.466 19.853 C 172.555 19.853 170.643 20.583 169.184 22.042 Z " fill="url(#_rgradient_7)"/></g><g><radialGradient id="_rgradient_8" fx="0.5" fy="0.5" cx="0.5" cy="0.5" r="-0.5" gradientTransform="matrix(14.941,0,0,14.94,94.255,24.916)" gradientUnits="userSpaceOnUse"><stop offset="0%" stop-opacity="1" style="stop-color:rgb(219,220,222)"/><stop offset="14.799999999999999%" stop-opacity="1" style="stop-color:rgb(219,220,222)"/><stop offset="100%" stop-opacity="1" style="stop-color:rgb(177,179,181)"/></radialGradient><path d=" M 94.255 32.386 C 94.255 36.512 97.601 39.856 101.725 39.856 C 105.852 39.856 109.196 36.512 109.196 32.386 C 109.196 28.261 105.852 24.916 101.725 24.916 C 97.601 24.916 94.255 28.261 94.255 32.386 Z " fill="url(#_rgradient_8)"/></g><g><radialGradient id="_rgradient_9" fx="0.5" fy="0.5" cx="0.5" cy="0.5" r="-0.5" gradientTransform="matrix(14.941,0,0,14.941,95.873,2.588)" gradientUnits="userSpaceOnUse"><stop offset="0%" stop-opacity="1" style="stop-color:rgb(219,220,222)"/><stop offset="14.799999999999999%" stop-opacity="1" style="stop-color:rgb(219,220,222)"/><stop offset="100%" stop-opacity="1" style="stop-color:rgb(177,179,181)"/></radialGradient><path d=" M 95.873 10.058 C 95.873 14.184 99.218 17.529 103.343 17.529 C 107.47 17.529 110.814 14.184 110.814 10.058 C 110.814 5.933 107.47 2.588 103.343 2.588 C 99.218 2.588 95.873 5.933 95.873 10.058 Z " fill="url(#_rgradient_9)"/></g><g><radialGradient id="_rgradient_10" fx="0.5" fy="0.5" cx="0.5" cy="0.5" r="-0.354" gradientTransform="matrix(14.941,0,0,14.941,85.242,46.32)" gradientUnits="userSpaceOnUse"><stop offset="0%" stop-opacity="1" style="stop-color:rgb(219,220,222)"/><stop offset="14.799999999999999%" stop-opacity="1" style="stop-color:rgb(219,220,222)"/><stop offset="100%" stop-opacity="1" style="stop-color:rgb(177,179,181)"/></radialGradient><path d=" M 87.43 48.508 C 84.513 51.425 84.513 56.155 87.43 59.073 C 90.347 61.99 95.077 61.99 97.995 59.073 C 100.912 56.155 100.912 51.425 97.995 48.508 C 96.536 47.05 94.624 46.32 92.712 46.32 C 90.8 46.32 88.889 47.05 87.43 48.508 Z " fill="url(#_rgradient_10)"/></g><g><radialGradient id="_rgradient_11" fx="0.5" fy="0.5" cx="0.5" cy="0.5" r="-0.354" gradientTransform="matrix(14.941,0,0,14.941,109.673,43.893)" gradientUnits="userSpaceOnUse"><stop offset="0%" stop-opacity="1" style="stop-color:rgb(219,220,222)"/><stop offset="14.799999999999999%" stop-opacity="1" style="stop-color:rgb(219,220,222)"/><stop offset="100%" stop-opacity="1" style="stop-color:rgb(177,179,181)"/></radialGradient><path d=" M 111.861 46.081 C 108.944 48.999 108.944 53.729 111.861 56.646 C 114.778 59.563 119.508 59.563 122.426 56.646 C 125.343 53.729 125.343 48.999 122.426 46.081 C 120.967 44.622 119.055 43.893 117.143 43.893 C 115.231 43.893 113.319 44.622 111.861 46.081 Z " fill="url(#_rgradient_11)"/></g><g><radialGradient id="_rgradient_12" fx="0.5" fy="0.5" cx="0.5" cy="0.5" r="-0.354" gradientTransform="matrix(14.94,0,0,14.941,64.694,46.32)" gradientUnits="userSpaceOnUse"><stop offset="0%" stop-opacity="1" style="stop-color:rgb(219,220,222)"/><stop offset="14.799999999999999%" stop-opacity="1" style="stop-color:rgb(219,220,222)"/><stop offset="100%" stop-opacity="1" style="stop-color:rgb(177,179,181)"/></radialGradient><path d=" M 66.882 48.508 C 63.965 51.425 63.965 56.155 66.882 59.073 C 69.799 61.99 74.529 61.99 77.446 59.073 C 80.364 56.155 80.364 51.425 77.446 48.508 C 75.987 47.05 74.076 46.32 72.164 46.32 C 70.252 46.32 68.34 47.05 66.882 48.508 Z " fill="url(#_rgradient_12)"/></g><g><radialGradient id="_rgradient_13" fx="0.5" fy="0.5" cx="0.5" cy="0.5" r="-0.354" gradientTransform="matrix(14.941,0,0,14.942,72.528,19.853)" gradientUnits="userSpaceOnUse"><stop offset="0%" stop-opacity="1" style="stop-color:rgb(219,220,222)"/><stop offset="14.799999999999999%" stop-opacity="1" style="stop-color:rgb(219,220,222)"/><stop offset="100%" stop-opacity="1" style="stop-color:rgb(177,179,181)"/></radialGradient><path d=" M 74.716 22.042 C 71.798 24.959 71.798 29.688 74.716 32.606 C 77.633 35.524 82.363 35.524 85.28 32.606 C 88.198 29.688 88.198 24.959 85.28 22.042 C 83.822 20.583 81.91 19.853 79.998 19.853 C 78.086 19.853 76.175 20.583 74.716 22.042 Z " fill="url(#_rgradient_13)"/></g></g></g></svg>