<?xml version="1.0" encoding="UTF-8" standalone="no"?><!-- Generator: Gravit.io --><svg xmlns="http://www.w3.org/2000/svg" xmlns:xlink="http://www.w3.org/1999/xlink" style="isolation:isolate" viewBox="0 0 192.614 256" width="192.614pt" height="256pt"><defs><clipPath id="_clipPath_RvyGvVMepOxS1SNpmSUBf5e820k6fXXR"><rect width="192.614" height="256"/></clipPath></defs><g clip-path="url(#_clipPath_RvyGvVMepOxS1SNpmSUBf5e820k6fXXR)"><g><g><path d=" M 165.506 187.909 C 165.506 225.515 135.02 256 97.414 256 C 59.808 256 29.323 225.515 29.323 187.909 C 29.323 150.303 59.808 119.818 97.414 119.818 C 135.02 119.818 165.506 150.303 165.506 187.909 Z " fill="rgb(35,31,32)"/></g><g><linearGradient id="_lgradient_17" x1="0" y1="0.5" x2="1" y2="0.5" gradientTransform="matrix(167.737,0,0,49.822,10.501,139.747)" gradientUnits="userSpaceOnUse"><stop offset="0%" stop-opacity="1" style="stop-color:rgb(76,76,78)"/><stop offset="24.9%" stop-opacity="1" style="stop-color:rgb(98,99,102)"/><stop offset="100%" stop-opacity="1" style="stop-color:rgb(49,47,49)"/></linearGradient><path d=" M 12.871 139.747 C 11.562 139.747 10.501 140.808 10.501 142.117 L 10.501 187.199 C 10.501 188.508 11.562 189.569 12.871 189.569 L 175.868 189.569 C 177.177 189.569 178.238 188.508 178.238 187.199 L 178.238 142.117 C 178.238 140.808 177.177 139.747 175.868 139.747 L 12.871 139.747 Z " fill="url(#_lgradient_17)"/></g><g><linearGradient id="_lgradient_18" x1="0" y1="0.5" x2="1" y2="0.5" gradientTransform="matrix(58.681,0,0,47.297,68.074,0)" gradientUnits="userSpaceOnUse"><stop offset="0%" stop-opacity="1" style="stop-color:rgb(158,160,163)"/><stop offset="36.199999999999996%" stop-opacity="1" style="stop-color:rgb(219,220,222)"/><stop offset="83.3%" stop-opacity="1" style="stop-color:rgb(157,159,161)"/><stop offset="100%" stop-opacity="1" style="stop-color:rgb(160,162,165)"/></linearGradient><path d=" M 97.414 0 C 81.21 0 68.074 10.588 68.074 23.649 C 68.074 36.71 81.21 47.297 97.414 47.297 C 113.618 47.297 126.755 36.71 126.755 23.649 C 126.755 10.588 113.618 0 97.414 0 Z " fill="url(#_lgradient_18)"/></g><g><linearGradient id="_lgradient_19" x1="0" y1="0.5" x2="1" y2="0.5" gradientTransform="matrix(192.614,0,0,147.255,0,27.368)" gradientUnits="userSpaceOnUse"><stop offset="0%" stop-opacity="1" style="stop-color:rgb(158,160,163)"/><stop offset="36.199999999999996%" stop-opacity="1" style="stop-color:rgb(219,220,222)"/><stop offset="83.3%" stop-opacity="1" style="stop-color:rgb(157,159,161)"/><stop offset="100%" stop-opacity="1" style="stop-color:rgb(160,162,165)"/></linearGradient><path d=" M 0 159.676 L 0.536 159.676 L 0.536 168.256 C 0.536 171.773 3.386 174.623 6.903 174.623 L 185.711 174.623 C 189.227 174.623 192.078 171.773 192.078 168.256 L 192.078 159.676 L 192.614 159.676 C 192.235 86.517 149.271 27.368 96.307 27.368 C 43.344 27.368 0.379 86.517 0 159.676 Z " fill="url(#_lgradient_19)"/></g><g><path d=" M 178.238 179.998 L 10.648 179.998 L 10.648 183.054 L 178.238 183.054 L 178.238 179.998 Z " fill="rgb(35,31,32)"/></g><g><linearGradient id="_lgradient_20" x1="0" y1="0.5" x2="1" y2="0.5" gradientTransform="matrix(75.614,0,0,19.216,59.77,19.937)" gradientUnits="userSpaceOnUse"><stop offset="0%" stop-opacity="1" style="stop-color:rgb(76,76,78)"/><stop offset="24.9%" stop-opacity="1" style="stop-color:rgb(98,99,102)"/><stop offset="100%" stop-opacity="1" style="stop-color:rgb(49,47,49)"/></linearGradient><path d=" M 60.684 19.937 C 60.18 19.937 59.77 20.346 59.77 20.851 L 59.77 38.239 C 59.77 38.744 60.18 39.153 60.684 39.153 L 134.47 39.153 C 134.975 39.153 135.384 38.744 135.384 38.239 L 135.384 20.851 C 135.384 20.346 134.975 19.937 134.47 19.937 L 60.684 19.937 Z " fill="url(#_lgradient_20)"/></g></g></g></svg>