<?xml version="1.0" encoding="UTF-8" standalone="no"?><!-- Generator: Gravit.io --><svg xmlns="http://www.w3.org/2000/svg" xmlns:xlink="http://www.w3.org/1999/xlink" style="isolation:isolate" viewBox="0 0 256 171.115" width="256pt" height="171.115pt"><defs><clipPath id="_clipPath_9YCY4DEr4icvuDj5ioM5RQpDj9RxFY51"><rect width="256" height="171.115"/></clipPath></defs><g clip-path="url(#_clipPath_9YCY4DEr4icvuDj5ioM5RQpDj9RxFY51)"><g><g><path d=" M 256 92.298 C 256 85.758 250.649 80.407 244.109 80.407 L 164.74 80.407 L 164.74 80.396 C 161.884 80.336 159.584 78.012 159.584 75.141 C 159.584 72.233 161.941 69.875 164.85 69.875 L 227.803 69.875 C 234.342 69.875 239.692 64.525 239.692 57.985 C 239.692 51.445 234.342 46.094 227.803 46.094 L 130.012 46.094 L 129.936 45.949 C 129.652 46.034 129.357 46.094 129.045 46.094 C 127.327 46.094 125.935 44.701 125.935 42.984 C 125.935 41.999 126.401 41.132 127.115 40.562 C 127.115 40.562 127.084 40.515 127.07 40.494 L 144.996 28.31 C 152.048 23.517 153.896 13.825 149.103 6.773 C 144.31 -0.279 134.618 -2.127 127.566 2.666 L 71.307 40.905 C 51.174 51.763 37.212 75.391 37.212 102.807 C 37.212 140.508 63.602 171.071 96.156 171.071 L 110.402 171.071 C 110.691 171.093 110.979 171.115 111.274 171.115 L 210.815 171.115 C 217.355 171.115 222.706 165.765 222.706 159.225 C 222.706 152.685 217.355 147.334 210.815 147.334 L 156.478 147.334 C 153.851 147.334 151.721 145.205 151.721 142.578 C 151.721 139.951 153.851 137.821 156.478 137.821 L 236.296 137.821 C 242.835 137.821 248.187 132.471 248.187 125.931 C 248.187 119.392 242.835 114.04 236.296 114.04 L 164.075 114.04 C 161.355 114.04 159.149 111.835 159.149 109.114 C 159.149 106.394 161.355 104.189 164.075 104.189 L 244.109 104.189 C 250.649 104.189 256 98.837 256 92.298 Z " fill="rgb(243,183,129)"/></g><g><linearGradient id="_lgradient_18" x1="0" y1="0.5" x2="1" y2="0.5" gradientTransform="matrix(114.364,0,0,86.485,0,56.392)" gradientUnits="userSpaceOnUse"><stop offset="0%" stop-opacity="1" style="stop-color:rgb(46,44,45)"/><stop offset="100%" stop-opacity="1" style="stop-color:rgb(87,88,90)"/></linearGradient><path d=" M 92.41 56.992 C 92.432 57.342 94.3 92.249 73.279 113.878 C 71.207 116.011 68.967 117.935 66.579 119.671 C 68.066 117.623 69.38 115.454 70.458 113.123 C 78.624 95.475 71.726 76.385 71.429 75.582 L 62.148 79.004 C 62.181 79.094 65.45 88.219 64.286 98.633 C 62.804 111.895 54.899 121.226 40.79 126.369 C 27.963 131.042 13.481 132.733 0 132.943 L 0 142.877 C 5.452 142.784 11.07 142.458 16.724 141.817 C 78.755 141.662 112.937 112.931 114.364 111.704 L 107.927 104.194 C 107.758 104.339 98.795 111.803 82.057 118.951 C 104.297 94.218 102.38 57.96 102.285 56.392 L 92.41 56.992 Z " fill="url(#_lgradient_18)"/></g><g><linearGradient id="_lgradient_19" x1="0" y1="0.5" x2="1" y2="0.5" gradientTransform="matrix(29.139,0,0,29.138,96.573,93.385)" gradientUnits="userSpaceOnUse"><stop offset="0%" stop-opacity="1" style="stop-color:rgb(46,44,45)"/><stop offset="100%" stop-opacity="1" style="stop-color:rgb(87,88,90)"/></linearGradient><path d=" M 96.573 107.954 C 96.573 116 103.096 122.523 111.143 122.523 C 119.189 122.523 125.712 116 125.712 107.954 C 125.712 99.907 119.189 93.385 111.143 93.385 C 103.096 93.385 96.573 99.907 96.573 107.954 Z " fill="url(#_lgradient_19)"/></g><g><radialGradient id="_rgradient_0" fx="0.5" fy="0.5" cx="0.5" cy="0.5" r="0.5" gradientTransform="matrix(22.271,0,0,22.269,100.007,96.819)" gradientUnits="userSpaceOnUse"><stop offset="0%" stop-opacity="1" style="stop-color:rgb(219,220,222)"/><stop offset="14.799999999999999%" stop-opacity="1" style="stop-color:rgb(219,220,222)"/><stop offset="100%" stop-opacity="1" style="stop-color:rgb(177,179,181)"/></radialGradient><path d=" M 100.007 107.954 C 100.007 114.094 105.002 119.088 111.142 119.088 C 117.282 119.088 122.278 114.094 122.278 107.954 C 122.278 101.813 117.282 96.819 111.142 96.819 C 105.002 96.819 100.007 101.813 100.007 107.954 Z " fill="url(#_rgradient_0)"/></g><g><linearGradient id="_lgradient_20" x1="0" y1="0.5" x2="1" y2="0.5" gradientTransform="matrix(29.138,0,0,29.138,52.222,62.73)" gradientUnits="userSpaceOnUse"><stop offset="0%" stop-opacity="1" style="stop-color:rgb(46,44,45)"/><stop offset="100%" stop-opacity="1" style="stop-color:rgb(87,88,90)"/></linearGradient><path d=" M 52.222 77.299 C 52.222 85.346 58.744 91.868 66.791 91.868 C 74.838 91.868 81.36 85.346 81.36 77.299 C 81.36 69.253 74.838 62.73 66.791 62.73 C 58.744 62.73 52.222 69.253 52.222 77.299 Z " fill="url(#_lgradient_20)"/></g><g><radialGradient id="_rgradient_1" fx="0.5" fy="0.5" cx="0.5" cy="0.5" r="0.5" gradientTransform="matrix(22.27,0,0,22.271,55.656,66.164)" gradientUnits="userSpaceOnUse"><stop offset="0%" stop-opacity="1" style="stop-color:rgb(219,220,222)"/><stop offset="14.799999999999999%" stop-opacity="1" style="stop-color:rgb(219,220,222)"/><stop offset="100%" stop-opacity="1" style="stop-color:rgb(177,179,181)"/></radialGradient><path d=" M 55.656 77.299 C 55.656 83.439 60.65 88.435 66.79 88.435 C 72.931 88.435 77.926 83.439 77.926 77.299 C 77.926 71.158 72.931 66.164 66.79 66.164 C 60.65 66.164 55.656 71.158 55.656 77.299 Z " fill="url(#_rgradient_1)"/></g><g><linearGradient id="_lgradient_21" x1="0" y1="0.5" x2="1" y2="0.5" gradientTransform="matrix(29.14,0,0,29.139,82.777,42.122)" gradientUnits="userSpaceOnUse"><stop offset="0%" stop-opacity="1" style="stop-color:rgb(46,44,45)"/><stop offset="100%" stop-opacity="1" style="stop-color:rgb(87,88,90)"/></linearGradient><path d=" M 82.777 56.692 C 82.777 64.739 89.301 71.261 97.348 71.261 C 105.394 71.261 111.917 64.739 111.917 56.692 C 111.917 48.645 105.394 42.122 97.348 42.122 C 89.301 42.122 82.777 48.645 82.777 56.692 Z " fill="url(#_lgradient_21)"/></g><g><radialGradient id="_rgradient_2" fx="0.5" fy="0.5" cx="0.5" cy="0.5" r="0.5" gradientTransform="matrix(22.269,0,0,22.269,86.213,45.557)" gradientUnits="userSpaceOnUse"><stop offset="0%" stop-opacity="1" style="stop-color:rgb(219,220,222)"/><stop offset="14.799999999999999%" stop-opacity="1" style="stop-color:rgb(219,220,222)"/><stop offset="100%" stop-opacity="1" style="stop-color:rgb(177,179,181)"/></radialGradient><path d=" M 86.213 56.692 C 86.213 62.831 91.208 67.826 97.348 67.826 C 103.487 67.826 108.482 62.831 108.482 56.692 C 108.482 50.552 103.487 45.557 97.348 45.557 C 91.208 45.557 86.213 50.552 86.213 56.692 Z " fill="url(#_rgradient_2)"/></g></g></g></svg>