<?xml version="1.0" encoding="UTF-8" standalone="no"?><!-- Generator: Gravit.io --><svg xmlns="http://www.w3.org/2000/svg" xmlns:xlink="http://www.w3.org/1999/xlink" style="isolation:isolate" viewBox="0 0 256 184.352" width="256pt" height="184.352pt"><defs><clipPath id="_clipPath_Kofr76B4xv8muJspUaPyX10fDaBQ4aG3"><rect width="256" height="184.352"/></clipPath></defs><g clip-path="url(#_clipPath_Kofr76B4xv8muJspUaPyX10fDaBQ4aG3)"><g><g><linearGradient id="_lgradient_22" x1="0" y1="0.5" x2="1" y2="0.5" gradientTransform="matrix(19.615,0,0,23.443,84.918,120.79)" gradientUnits="userSpaceOnUse"><stop offset="0%" stop-opacity="1" style="stop-color:rgb(219,220,222)"/><stop offset="72.1%" stop-opacity="1" style="stop-color:rgb(219,220,222)"/><stop offset="100%" stop-opacity="1" style="stop-color:rgb(187,189,191)"/></linearGradient><path d=" M 104.533 144.233 L 84.918 144.233 L 84.918 120.79 L 104.533 120.79 L 104.533 144.233 Z " fill="url(#_lgradient_22)"/></g><g><linearGradient id="_lgradient_23" x1="0" y1="0.5" x2="1" y2="0.5" gradientTransform="matrix(163.964,0,0,45.352,12.744,139)" gradientUnits="userSpaceOnUse"><stop offset="0%" stop-opacity="1" style="stop-color:rgb(108,110,112)"/><stop offset="53.6%" stop-opacity="1" style="stop-color:rgb(63,62,64)"/><stop offset="100%" stop-opacity="1" style="stop-color:rgb(63,62,64)"/></linearGradient><path d=" M 176.708 184.352 L 12.744 184.352 L 12.744 139 L 176.708 139 L 176.708 184.352 Z " fill="url(#_lgradient_23)"/></g><g><path d=" M 64.186 175.281 C 63.223 175.281 62.441 174.501 62.441 173.537 L 62.441 149.814 C 62.441 148.85 63.223 148.07 64.186 148.07 L 125.266 148.07 C 126.228 148.07 127.009 148.85 127.009 149.814 L 127.009 173.537 C 127.009 174.501 126.228 175.281 125.266 175.281 L 64.186 175.281 Z " fill="rgb(35,31,32)"/></g><g><path d=" M 163.581 161.676 C 163.581 167.568 158.805 172.343 152.913 172.343 C 147.021 172.343 142.245 167.568 142.245 161.676 C 142.245 155.784 147.021 151.008 152.913 151.008 C 158.805 151.008 163.581 155.784 163.581 161.676 Z " fill="rgb(147,149,152)"/></g><g><path d=" M 189.452 126.248 L 0 126.248 L 0 0 L 189.452 0 L 189.452 126.248 Z " fill="rgb(1,3,5)"/></g><g><linearGradient id="_lgradient_24" x1="0" y1="0.5" x2="0.9396252545819634" y2="0.8422051737653601" gradientTransform="matrix(178.468,0,0,116.355,5.492,4.996)" gradientUnits="userSpaceOnUse"><stop offset="0%" stop-opacity="1" style="stop-color:rgb(30,144,206)"/><stop offset="22.154%" stop-opacity="1" style="stop-color:rgb(110,190,233)"/><stop offset="66.5984%" stop-opacity="1" style="stop-color:rgb(26,142,205)"/><stop offset="100%" stop-opacity="1" style="stop-color:rgb(26,142,205)"/></linearGradient><path d=" M 5.492 121.351 L 183.96 121.351 L 183.96 4.996 L 5.492 4.996 L 5.492 121.351 Z " fill="url(#_lgradient_24)"/></g><g><path d=" M 242.158 168.826 L 243.251 168.09 C 243.267 168.09 245.04 169.037 248.201 167.044 C 250.046 165.881 250.599 162.519 250.838 160.195 L 254.587 160.574 C 254.455 161.87 254.446 167.298 250.164 169.889 C 246.205 172.286 242.216 168.832 242.158 168.826 Z " fill="rgb(35,31,32)"/></g><g><linearGradient id="_lgradient_25" x1="0" y1="0.5" x2="0.9397644204373359" y2="0.8418228109416899" gradientTransform="matrix(61.08,0,0,23.723,64.186,149.814)" gradientUnits="userSpaceOnUse"><stop offset="0%" stop-opacity="1" style="stop-color:rgb(26,142,205)"/><stop offset="24.296%" stop-opacity="1" style="stop-color:rgb(110,190,233)"/><stop offset="65.3216%" stop-opacity="1" style="stop-color:rgb(26,142,205)"/><stop offset="100%" stop-opacity="1" style="stop-color:rgb(26,142,205)"/></linearGradient><path d=" M 64.186 173.537 L 125.266 173.537 L 125.266 149.814 L 64.186 149.814 L 64.186 173.537 Z " fill="url(#_lgradient_25)"/></g><g><path d=" M 161.827 161.676 C 161.827 166.599 157.836 170.59 152.913 170.59 C 147.99 170.59 143.999 166.599 143.999 161.676 C 143.999 156.752 147.99 152.762 152.913 152.762 C 157.836 152.762 161.827 156.752 161.827 161.676 Z " fill="rgb(35,31,32)"/></g><g><path d=" M 43.629 150.383 C 46.112 150.383 48.153 152.405 48.153 154.904 C 48.153 157.406 46.112 159.43 43.629 159.43 C 41.135 159.43 39.116 157.406 39.116 154.904 C 39.116 152.405 41.135 150.383 43.629 150.383 Z " fill="rgb(35,31,32)"/></g><g><path d=" M 43.629 157.686 C 42.102 157.686 40.86 156.438 40.86 154.904 C 40.86 153.374 42.102 152.128 43.629 152.128 C 45.162 152.128 46.409 153.374 46.409 154.904 C 46.409 156.438 45.162 157.686 43.629 157.686 Z " fill="rgb(38,170,225)"/></g><g><path d=" M 31.623 150.383 C 34.126 150.383 36.161 152.405 36.161 154.904 C 36.161 157.406 34.126 159.43 31.623 159.43 C 29.136 159.43 27.103 157.406 27.103 154.904 C 27.103 152.405 29.136 150.383 31.623 150.383 Z " fill="rgb(35,31,32)"/></g><g><path d=" M 31.623 157.686 C 30.093 157.686 28.847 156.438 28.847 154.904 C 28.847 153.374 30.093 152.128 31.623 152.128 C 33.164 152.128 34.416 153.374 34.416 154.904 C 34.416 156.438 33.164 157.686 31.623 157.686 Z " fill="rgb(38,170,225)"/></g><g><path d=" M 43.629 163.921 C 46.112 163.921 48.153 165.943 48.153 168.442 C 48.153 170.943 46.112 172.968 43.629 172.968 C 41.135 172.968 39.116 170.943 39.116 168.442 C 39.116 165.943 41.135 163.921 43.629 163.921 Z " fill="rgb(35,31,32)"/></g><g><path d=" M 43.629 171.224 C 42.102 171.224 40.86 169.976 40.86 168.442 C 40.86 166.912 42.102 165.666 43.629 165.666 C 45.162 165.666 46.409 166.912 46.409 168.442 C 46.409 169.976 45.162 171.224 43.629 171.224 Z " fill="rgb(38,170,225)"/></g><g><path d=" M 31.623 163.921 C 34.126 163.921 36.161 165.943 36.161 168.442 C 36.161 170.943 34.126 172.968 31.623 172.968 C 29.136 172.968 27.103 170.943 27.103 168.442 C 27.103 165.943 29.136 163.921 31.623 163.921 Z " fill="rgb(35,31,32)"/></g><g><path d=" M 31.623 171.224 C 30.093 171.224 28.847 169.976 28.847 168.442 C 28.847 166.912 30.093 165.666 31.623 165.666 C 33.164 165.666 34.416 166.912 34.416 168.442 C 34.416 169.976 33.164 171.224 31.623 171.224 Z " fill="rgb(38,170,225)"/></g><g><path d=" M 173.66 172.918 C 160.731 172.136 151.615 163.047 151.486 162.917 L 154.174 160.275 C 154.833 160.946 170.582 176.54 189.582 165.034 C 207.017 154.48 205.28 124.845 203.599 96.186 C 201.902 67.241 200.299 39.902 220.443 37.001 C 227.055 36.049 232.862 37.904 237.73 42.511 C 262.614 66.07 254.973 155.84 254.635 159.649 L 250.883 159.316 C 250.964 158.401 258.709 67.559 235.139 45.247 C 231.095 41.417 226.466 39.94 220.98 40.73 C 204.263 43.138 205.767 68.799 207.361 95.965 C 209.106 125.739 210.912 156.526 191.533 168.258 C 185.161 172.115 179.075 173.245 173.66 172.918 Z " fill="rgb(35,31,32)"/></g></g></g></svg>