<?xml version="1.0" encoding="UTF-8" standalone="no"?><!-- Generator: Gravit.io --><svg xmlns="http://www.w3.org/2000/svg" xmlns:xlink="http://www.w3.org/1999/xlink" style="isolation:isolate" viewBox="0 0 256 249.965" width="256pt" height="249.965pt"><defs><clipPath id="_clipPath_8h0QO3mIUc7SFPLRyJUxoAeXDUGlNMch"><rect width="256" height="249.965"/></clipPath></defs><g clip-path="url(#_clipPath_8h0QO3mIUc7SFPLRyJUxoAeXDUGlNMch)"><g><g><radialGradient id="_rgradient_3" fx="0.5" fy="0.5" cx="0.5" cy="0.5" r="0.561" gradientTransform="matrix(202.709,0,0,249.965,0,0)" gradientUnits="userSpaceOnUse"><stop offset="0%" stop-opacity="1" style="stop-color:rgb(98,99,102)"/><stop offset="24.9%" stop-opacity="1" style="stop-color:rgb(98,99,102)"/><stop offset="100%" stop-opacity="1" style="stop-color:rgb(49,47,49)"/></radialGradient><path d=" M 85.153 16.011 C 85.153 16.041 85.162 16.07 85.162 16.101 L 84.95 16.94 C 84.811 17.489 70.909 72.396 54.35 114.766 C 51.07 123.159 47.032 132.731 42.35 143.211 C 23.925 184.446 0.925 227.651 0.695 228.081 C 0.23 228.952 0.006 229.888 0 230.811 L 0 230.895 C 0.015 232.988 1.147 235.007 3.123 236.061 C 5.687 237.429 8.806 236.697 10.535 234.477 C 11.167 234.306 11.786 234.043 12.367 233.673 C 28.426 223.485 45.237 211.552 61.952 199.367 C 68.27 208.467 75.014 217.361 81.668 226.127 C 86.44 232.415 90.949 238.362 95.254 244.315 C 95.387 247.454 97.954 249.965 101.126 249.965 C 101.207 249.965 101.281 249.94 101.354 249.92 C 101.435 249.922 101.501 249.965 101.582 249.965 C 104.755 249.965 107.321 247.455 107.455 244.315 C 111.759 238.363 116.27 232.415 121.041 226.128 C 127.695 217.361 134.438 208.467 140.755 199.367 C 157.471 211.552 174.282 223.485 190.342 233.673 C 190.923 234.043 191.542 234.306 192.174 234.477 C 193.903 236.697 197.021 237.429 199.586 236.061 C 202.46 234.529 203.546 230.957 202.014 228.083 C 201.784 227.651 178.784 184.446 160.359 143.211 C 155.676 132.731 151.639 123.159 148.359 114.767 C 131.8 72.396 117.897 17.49 117.759 16.94 L 116.94 13.686 C 115.805 5.954 109.209 0 101.163 0 C 92.321 0 85.153 7.168 85.153 16.011 Z  M 107.479 74.255 L 107.479 30.718 C 108.005 30.492 108.481 30.185 108.976 29.905 C 111.445 39.086 115.485 53.626 120.542 70.025 C 120.184 70.47 119.861 70.949 119.62 71.496 C 118.186 74.754 116.744 77.891 115.296 80.965 C 112.75 78.639 110.15 76.381 107.479 74.255 Z  M 83.089 71.495 C 82.848 70.949 82.524 70.47 82.167 70.025 C 87.189 53.735 91.21 39.277 93.684 30.087 C 94.192 30.357 94.69 30.64 95.229 30.856 L 95.229 74.254 C 92.56 76.381 89.959 78.639 87.413 80.964 C 85.964 77.891 84.523 74.754 83.089 71.495 Z  M 112.451 114.955 C 114.71 111.184 116.926 107.272 119.111 103.21 C 122.5 106.513 125.805 109.671 129.135 112.566 C 127.429 116.459 125.564 120.252 123.57 123.981 C 119.909 120.99 116.195 117.967 112.451 114.955 Z  M 73.573 112.565 C 76.904 109.67 80.209 106.513 83.598 103.21 C 85.782 107.272 87.999 111.184 90.257 114.954 C 86.514 117.966 82.801 120.99 79.14 123.981 C 77.144 120.252 75.281 116.458 73.573 112.565 Z  M 134.132 132.598 C 135.834 129.512 137.463 126.371 139.005 123.172 C 141.491 129.365 144.334 136.1 147.497 143.297 C 143 139.752 138.537 136.179 134.132 132.598 Z  M 63.704 123.172 C 65.245 126.371 66.874 129.512 68.577 132.598 C 64.172 136.179 59.708 139.752 55.21 143.297 C 58.375 136.1 61.218 129.365 63.704 123.172 Z  M 85.919 135.75 C 88.987 133.243 92.096 130.703 95.229 128.164 L 95.229 150.234 C 92.013 145.388 88.885 140.589 85.919 135.75 Z  M 107.479 128.165 C 110.613 130.705 113.722 133.243 116.789 135.75 C 113.824 140.589 110.695 145.388 107.479 150.236 L 107.479 128.165 Z  M 130.089 174.919 C 124.776 171.008 119.676 167.254 114.677 163.603 C 114.714 163.548 114.75 163.493 114.787 163.439 C 118.972 157.173 123.211 150.82 127.262 144.284 C 134.098 149.829 141.075 155.367 148.163 160.752 C 145.046 167.337 141.376 173.835 137.343 180.255 C 134.918 178.472 132.498 176.692 130.089 174.919 Z  M 54.544 160.752 C 61.634 155.367 68.61 149.829 75.446 144.284 C 79.498 150.82 83.737 157.173 87.922 163.439 C 87.959 163.493 87.995 163.548 88.031 163.603 C 83.033 167.254 77.933 171.007 72.62 174.917 C 70.21 176.692 67.791 178.472 65.366 180.255 C 61.331 173.835 57.663 167.337 54.544 160.752 Z  M 148.182 188.194 C 152.196 181.858 155.916 175.41 159.163 168.821 C 166.494 184.349 173.816 199.062 179.649 210.542 C 169.289 203.46 158.723 195.882 148.182 188.194 Z  M 43.546 168.821 C 46.793 175.41 50.512 181.858 54.527 188.194 C 43.986 195.882 33.419 203.46 23.06 210.542 C 28.893 199.062 36.215 184.349 43.546 168.821 Z  M 92.343 218.025 C 85.722 209.302 79.006 200.448 72.77 191.446 C 75.376 189.531 77.976 187.617 80.564 185.711 C 85.616 181.993 90.473 178.421 95.229 174.943 L 95.229 221.831 C 94.264 220.557 93.299 219.284 92.343 218.025 Z  M 107.479 174.944 C 112.235 178.421 117.092 181.993 122.144 185.711 C 124.733 187.617 127.332 189.531 129.938 191.446 C 123.703 200.448 116.986 209.302 110.365 218.025 C 109.409 219.284 108.445 220.558 107.479 221.831 L 107.479 174.944 Z " fill="url(#_rgradient_3)"/></g><g><path d=" M 245.982 108.544 C 243.899 108.544 242.211 106.856 242.211 104.773 L 242.211 84.941 C 242.211 83.324 240.895 82.008 239.278 82.008 L 197.938 82.008 C 196.321 82.008 195.005 83.324 195.005 84.941 L 195.005 104.773 C 195.005 106.856 193.317 108.544 191.234 108.544 C 189.152 108.544 187.463 106.856 187.463 104.773 L 187.463 84.941 C 187.463 79.165 192.162 74.466 197.938 74.466 L 239.278 74.466 C 245.055 74.466 249.754 79.165 249.754 84.941 L 249.754 104.773 C 249.754 106.856 248.065 108.544 245.982 108.544 Z " fill="rgb(38,170,225)"/></g><g><path d=" M 209.941 107.985 C 207.858 107.985 206.169 106.296 206.169 104.213 L 206.169 89.688 C 206.169 87.606 207.858 85.918 209.941 85.918 C 212.024 85.918 213.712 87.606 213.712 89.688 L 213.712 104.213 C 213.712 106.296 212.024 107.985 209.941 107.985 Z " fill="rgb(38,170,225)"/></g><g><path d=" M 227.276 107.985 C 225.193 107.985 223.505 106.296 223.505 104.213 L 223.505 89.688 C 223.505 87.606 225.193 85.918 227.276 85.918 C 229.359 85.918 231.047 87.606 231.047 89.688 L 231.047 104.213 C 231.047 106.296 229.359 107.985 227.276 107.985 Z " fill="rgb(38,170,225)"/></g><g><linearGradient id="_lgradient_26" x1="0" y1="0.5" x2="6.123233995736766e-17" y2="-0.5" gradientTransform="matrix(75.894,0,0,63.064,180.106,112.311)" gradientUnits="userSpaceOnUse"><stop offset="0%" stop-opacity="1" style="stop-color:rgb(98,99,102)"/><stop offset="24.9%" stop-opacity="1" style="stop-color:rgb(98,99,102)"/><stop offset="100%" stop-opacity="1" style="stop-color:rgb(65,64,66)"/></linearGradient><path d=" M 249.296 117.191 L 186.81 117.191 C 183.756 117.191 181.167 115.118 180.367 112.311 C 180.202 112.894 180.106 113.504 180.106 114.137 L 180.106 168.671 C 180.106 172.359 183.123 175.375 186.81 175.375 L 249.296 175.375 C 252.984 175.375 256 172.359 256 168.671 L 256 114.137 C 256 113.504 255.905 112.894 255.74 112.311 C 254.939 115.118 252.351 117.191 249.296 117.191 Z " fill="url(#_lgradient_26)"/></g><g><linearGradient id="_lgradient_27" x1="0" y1="0.5" x2="6.123233995736766e-17" y2="-0.5" gradientTransform="matrix(45.898,0,0,24.936,195.646,178.629)" gradientUnits="userSpaceOnUse"><stop offset="0%" stop-opacity="1" style="stop-color:rgb(98,99,102)"/><stop offset="24.9%" stop-opacity="1" style="stop-color:rgb(98,99,102)"/><stop offset="100%" stop-opacity="1" style="stop-color:rgb(70,70,72)"/></linearGradient><path d=" M 195.646 178.629 L 195.646 196.861 C 195.646 200.548 198.664 203.565 202.351 203.565 L 234.84 203.565 C 238.527 203.565 241.544 200.548 241.544 196.861 L 241.544 178.629 L 195.646 178.629 Z " fill="url(#_lgradient_27)"/></g></g></g></svg>