<?xml version="1.0" encoding="UTF-8" standalone="no"?><!-- Generator: Gravit.io --><svg xmlns="http://www.w3.org/2000/svg" xmlns:xlink="http://www.w3.org/1999/xlink" style="isolation:isolate" viewBox="0 0 204.88 256" width="204.88pt" height="256pt"><defs><clipPath id="_clipPath_xjcl7gSpt4lRSMyephi3KQIesXd1inP6"><rect width="204.88" height="256"/></clipPath></defs><g clip-path="url(#_clipPath_xjcl7gSpt4lRSMyephi3KQIesXd1inP6)"><g><g><linearGradient id="_lgradient_32" x1="0" y1="0.5" x2="1" y2="0.5" gradientTransform="matrix(204.879,0,0,256,0.001,0)" gradientUnits="userSpaceOnUse"><stop offset="0%" stop-opacity="1" style="stop-color:rgb(108,110,112)"/><stop offset="53.6%" stop-opacity="1" style="stop-color:rgb(63,62,64)"/><stop offset="100%" stop-opacity="1" style="stop-color:rgb(63,62,64)"/></linearGradient><path d=" M 4.071 0 C 1.849 0 0.001 0.848 0.001 1.895 L 0.001 35.163 L 0.001 41.545 L 0.001 68.93 L 0.001 75.312 L 0.001 102.709 L 0.001 109.091 L 0.001 136.476 L 0.001 142.858 L 0.001 254.093 C 0.001 255.152 1.849 256 4.071 256 L 200.81 256 C 203.059 256 204.88 255.152 204.88 254.093 L 204.88 1.895 C 204.88 0.848 203.059 0 200.81 0 L 4.071 0 Z " fill="url(#_lgradient_32)"/></g><g><path d=" M 11.381 44.269 L 41.352 44.269 L 41.352 50.651 L 11.381 50.651 L 11.381 44.269 Z " fill="rgb(38,170,225)"/></g><g><path d=" M 204.879 247.275 L 109.509 247.275 L 109.509 240.893 L 204.879 240.893 L 204.879 247.275 Z " fill="rgb(0,0,0)"/></g><g><path d=" M 204.879 247.275 L 0 247.275 L 0 240.893 L 204.879 240.893 L 204.879 247.275 Z " fill="rgb(0,0,0)"/></g><g><path d=" M 19.638 15.201 C 19.638 17.482 17.787 19.327 15.509 19.327 C 13.231 19.327 11.384 17.482 11.384 15.201 C 11.384 12.92 13.231 11.075 15.509 11.075 C 17.787 11.075 19.638 12.92 19.638 15.201 Z " fill="rgb(0,0,0)"/></g><g><path d=" M 30.583 15.201 C 30.583 17.482 28.735 19.327 26.457 19.327 C 24.179 19.327 22.331 17.482 22.331 15.201 C 22.331 12.92 24.179 11.075 26.457 11.075 C 28.735 11.075 30.583 12.92 30.583 15.201 Z " fill="rgb(0,0,0)"/></g><g><path d=" M 41.53 15.201 C 41.53 17.482 39.682 19.327 37.404 19.327 C 35.126 19.327 33.275 17.482 33.275 15.201 C 33.275 12.92 35.126 11.075 37.404 11.075 C 39.682 11.075 41.53 12.92 41.53 15.201 Z " fill="rgb(0,0,0)"/></g><g><path d=" M 19.638 25.809 C 19.638 28.09 17.787 29.935 15.509 29.935 C 13.231 29.935 11.384 28.09 11.384 25.809 C 11.384 23.528 13.231 21.683 15.509 21.683 C 17.787 21.683 19.638 23.528 19.638 25.809 Z " fill="rgb(0,0,0)"/></g><g><path d=" M 30.583 25.809 C 30.583 28.09 28.735 29.935 26.457 29.935 C 24.179 29.935 22.331 28.09 22.331 25.809 C 22.331 23.528 24.179 21.683 26.457 21.683 C 28.735 21.683 30.583 23.528 30.583 25.809 Z " fill="rgb(0,0,0)"/></g><g><path d=" M 41.53 25.809 C 41.53 28.09 39.682 29.935 37.404 29.935 C 35.126 29.935 33.275 28.09 33.275 25.809 C 33.275 23.528 35.126 21.683 37.404 21.683 C 39.682 21.683 41.53 23.528 41.53 25.809 Z " fill="rgb(0,0,0)"/></g><g><path d=" M 19.638 36.416 C 19.638 38.697 17.787 40.542 15.509 40.542 C 13.231 40.542 11.384 38.697 11.384 36.416 C 11.384 34.135 13.231 32.29 15.509 32.29 C 17.787 32.29 19.638 34.135 19.638 36.416 Z " fill="rgb(0,0,0)"/></g><g><path d=" M 30.583 36.416 C 30.583 38.697 28.735 40.542 26.457 40.542 C 24.179 40.542 22.331 38.697 22.331 36.416 C 22.331 34.135 24.179 32.29 26.457 32.29 C 28.735 32.29 30.583 34.135 30.583 36.416 Z " fill="rgb(0,0,0)"/></g><g><path d=" M 41.53 36.416 C 41.53 38.697 39.682 40.542 37.404 40.542 C 35.126 40.542 33.275 38.697 33.275 36.416 C 33.275 34.135 35.126 32.29 37.404 32.29 C 39.682 32.29 41.53 34.135 41.53 36.416 Z " fill="rgb(0,0,0)"/></g><g><linearGradient id="_lgradient_33" x1="0" y1="0.5" x2="6.123233995736766e-17" y2="1.5" gradientTransform="matrix(36.211,0,0,143.307,15.195,91.267)" gradientUnits="userSpaceOnUse"><stop offset="0%" stop-opacity="1" style="stop-color:rgb(108,110,112)"/><stop offset="53.6%" stop-opacity="1" style="stop-color:rgb(63,62,64)"/><stop offset="100%" stop-opacity="1" style="stop-color:rgb(63,62,64)"/></linearGradient><path d=" M 15.195 234.574 L 51.406 234.574 L 51.406 91.267 L 15.195 91.267 L 15.195 234.574 Z " fill="url(#_lgradient_33)"/></g><g><linearGradient id="_lgradient_34" x1="0" y1="0.5" x2="6.123233995736766e-17" y2="1.5" gradientTransform="matrix(36.21,0,0,143.307,62.402,91.267)" gradientUnits="userSpaceOnUse"><stop offset="0%" stop-opacity="1" style="stop-color:rgb(108,110,112)"/><stop offset="53.6%" stop-opacity="1" style="stop-color:rgb(63,62,64)"/><stop offset="100%" stop-opacity="1" style="stop-color:rgb(63,62,64)"/></linearGradient><path d=" M 62.402 234.574 L 98.612 234.574 L 98.612 91.267 L 62.402 91.267 L 62.402 234.574 Z " fill="url(#_lgradient_34)"/></g><g><linearGradient id="_lgradient_35" x1="0" y1="0.5" x2="6.123233995736766e-17" y2="1.5" gradientTransform="matrix(36.212,0,0,143.307,109.609,91.267)" gradientUnits="userSpaceOnUse"><stop offset="0%" stop-opacity="1" style="stop-color:rgb(108,110,112)"/><stop offset="53.6%" stop-opacity="1" style="stop-color:rgb(63,62,64)"/><stop offset="100%" stop-opacity="1" style="stop-color:rgb(63,62,64)"/></linearGradient><path d=" M 109.609 234.574 L 145.821 234.574 L 145.821 91.267 L 109.609 91.267 L 109.609 234.574 Z " fill="url(#_lgradient_35)"/></g><g><linearGradient id="_lgradient_36" x1="0" y1="0.5" x2="6.123233995736766e-17" y2="1.5" gradientTransform="matrix(36.21,0,0,143.307,156.816,91.267)" gradientUnits="userSpaceOnUse"><stop offset="0%" stop-opacity="1" style="stop-color:rgb(108,110,112)"/><stop offset="53.6%" stop-opacity="1" style="stop-color:rgb(63,62,64)"/><stop offset="100%" stop-opacity="1" style="stop-color:rgb(63,62,64)"/></linearGradient><path d=" M 156.816 234.574 L 193.026 234.574 L 193.026 91.267 L 156.816 91.267 L 156.816 234.574 Z " fill="url(#_lgradient_36)"/></g><g><linearGradient id="_lgradient_37" x1="0" y1="0.5" x2="0.7071784897228031" y2="-0.20703506537750682" gradientTransform="matrix(36.21,0,0,143.307,13.524,89.596)" gradientUnits="userSpaceOnUse"><stop offset="0%" stop-opacity="1" style="stop-color:rgb(206,208,210)"/><stop offset="19.76840000000002%" stop-opacity="1" style="stop-color:rgb(177,179,181)"/><stop offset="100%" stop-opacity="1" style="stop-color:rgb(201,202,204)"/><stop offset="100%" stop-opacity="1" style="stop-color:rgb(206,207,209)"/></linearGradient><path d=" M 13.524 232.903 L 49.734 232.903 L 49.734 89.596 L 13.524 89.596 L 13.524 232.903 Z " fill="url(#_lgradient_37)"/></g><g><linearGradient id="_lgradient_38" x1="0" y1="0.5" x2="0.7071784897228031" y2="-0.20703506537750682" gradientTransform="matrix(36.21,0,0,143.307,60.732,89.596)" gradientUnits="userSpaceOnUse"><stop offset="0%" stop-opacity="1" style="stop-color:rgb(206,208,210)"/><stop offset="19.76840000000002%" stop-opacity="1" style="stop-color:rgb(177,179,181)"/><stop offset="100%" stop-opacity="1" style="stop-color:rgb(201,202,204)"/><stop offset="100%" stop-opacity="1" style="stop-color:rgb(206,207,209)"/></linearGradient><path d=" M 60.732 232.903 L 96.942 232.903 L 96.942 89.596 L 60.732 89.596 L 60.732 232.903 Z " fill="url(#_lgradient_38)"/></g><g><linearGradient id="_lgradient_39" x1="0" y1="0.5" x2="0.7071980148748814" y2="-0.20701553572536646" gradientTransform="matrix(36.212,0,0,143.307,107.939,89.596)" gradientUnits="userSpaceOnUse"><stop offset="0%" stop-opacity="1" style="stop-color:rgb(206,208,210)"/><stop offset="19.768399999999996%" stop-opacity="1" style="stop-color:rgb(177,179,181)"/><stop offset="100%" stop-opacity="1" style="stop-color:rgb(201,202,204)"/><stop offset="100%" stop-opacity="1" style="stop-color:rgb(206,207,209)"/></linearGradient><path d=" M 107.939 232.903 L 144.151 232.903 L 144.151 89.596 L 107.939 89.596 L 107.939 232.903 Z " fill="url(#_lgradient_39)"/></g><g><linearGradient id="_lgradient_40" x1="0" y1="0.5" x2="0.7071882525010907" y2="-0.20702530048397394" gradientTransform="matrix(36.211,0,0,143.307,155.145,89.596)" gradientUnits="userSpaceOnUse"><stop offset="0%" stop-opacity="1" style="stop-color:rgb(206,208,210)"/><stop offset="19.768400000000007%" stop-opacity="1" style="stop-color:rgb(177,179,181)"/><stop offset="100%" stop-opacity="1" style="stop-color:rgb(201,202,204)"/><stop offset="100%" stop-opacity="1" style="stop-color:rgb(206,207,209)"/></linearGradient><path d=" M 155.145 232.903 L 191.356 232.903 L 191.356 89.596 L 155.145 89.596 L 155.145 232.903 Z " fill="url(#_lgradient_40)"/></g></g></g></svg>