<?xml version="1.0" encoding="UTF-8" standalone="no"?><!-- Generator: Gravit.io --><svg xmlns="http://www.w3.org/2000/svg" xmlns:xlink="http://www.w3.org/1999/xlink" style="isolation:isolate" viewBox="0 0 143.243 256" width="143.243pt" height="256pt"><defs><clipPath id="_clipPath_X264EO9WflBxqJqEGhDjZSegyuwbLo21"><rect width="143.243" height="256"/></clipPath></defs><g clip-path="url(#_clipPath_X264EO9WflBxqJqEGhDjZSegyuwbLo21)"><g><g><path d=" M 143.243 247.981 C 143.243 252.406 139.649 256 135.218 256 L 8.018 256 C 3.593 256 0 252.406 0 247.981 L 0 8.025 C 0 3.593 3.593 0 8.018 0 L 135.218 0 C 139.649 0 143.243 3.593 143.243 8.025 L 143.243 247.981 Z " fill="rgb(0,0,0)"/></g><g><linearGradient id="_lgradient_41" x1="0" y1="0.5" x2="0.9398391748673796" y2="0.8416172205621418" gradientTransform="matrix(127.068,0,0,194.95,8.087,22.499)" gradientUnits="userSpaceOnUse"><stop offset="0%" stop-opacity="1" style="stop-color:rgb(37,149,209)"/><stop offset="14.912%" stop-opacity="1" style="stop-color:rgb(110,190,233)"/><stop offset="70.91520000000003%" stop-opacity="1" style="stop-color:rgb(26,142,205)"/><stop offset="100%" stop-opacity="1" style="stop-color:rgb(26,142,205)"/></linearGradient><path d=" M 8.087 217.449 L 135.155 217.449 L 135.155 22.499 L 8.087 22.499 L 8.087 217.449 Z " fill="url(#_lgradient_41)"/></g><g><path d=" M 71.618 225.487 C 65.756 225.487 61 230.243 61 236.112 C 61 241.981 65.756 246.737 71.618 246.737 C 77.493 246.737 82.243 241.981 82.243 236.112 C 82.243 230.243 77.493 225.487 71.618 225.487 Z " fill="rgb(38,170,225)"/></g></g></g></svg>