<?xml version="1.0" encoding="UTF-8" standalone="no"?><!-- Generator: Gravit.io --><svg xmlns="http://www.w3.org/2000/svg" xmlns:xlink="http://www.w3.org/1999/xlink" style="isolation:isolate" viewBox="0 0 204.114 256" width="204.114pt" height="256pt"><defs><clipPath id="_clipPath_aLE3uALtZRPCWesHd9nuVY2SU5whL1Ot"><rect width="204.114" height="256"/></clipPath></defs><g clip-path="url(#_clipPath_aLE3uALtZRPCWesHd9nuVY2SU5whL1Ot)"><g><g><path d=" M 61.643 142.464 L 0 142.464 L 0 35.053 L 61.643 35.053 L 61.643 142.464 Z " fill="rgb(0,0,0)"/></g><g><linearGradient id="_lgradient_42" x1="0" y1="0.5" x2="1" y2="0.5" gradientTransform="matrix(95.101,0,0,255.285,0,0)" gradientUnits="userSpaceOnUse"><stop offset="0%" stop-opacity="1" style="stop-color:rgb(108,110,112)"/><stop offset="53.6%" stop-opacity="1" style="stop-color:rgb(63,62,64)"/><stop offset="100%" stop-opacity="1" style="stop-color:rgb(63,62,64)"/></linearGradient><path d=" M 1.895 0 C 0.847 0 0 0.841 0 1.882 L 0 35.054 L 61.642 35.054 L 61.642 41.423 L 0 41.423 L 0 68.736 L 61.642 68.736 L 61.642 75.106 L 0 75.106 L 0 102.419 L 61.642 102.419 L 61.642 108.782 L 0 108.782 L 0 136.1 L 61.642 136.1 L 61.642 142.464 L 0 142.464 L 0 253.391 C 0 254.444 0.847 255.285 1.895 255.285 L 93.205 255.285 C 94.253 255.285 95.101 254.444 95.101 253.391 L 95.101 1.882 C 95.101 0.841 94.253 0 93.205 0 L 1.895 0 Z " fill="url(#_lgradient_42)"/></g><g><path d=" M 95.101 41.423 L 63.7 41.423 L 63.7 35.053 L 95.101 35.053 L 95.101 41.423 Z " fill="rgb(38,170,225)"/></g><g><path d=" M 95.101 75.106 L 63.7 75.106 L 63.7 68.736 L 95.101 68.736 L 95.101 75.106 Z " fill="rgb(38,170,225)"/></g><g><path d=" M 95.101 108.782 L 63.7 108.782 L 63.7 102.419 L 95.101 102.419 L 95.101 108.782 Z " fill="rgb(38,170,225)"/></g><g><path d=" M 95.101 142.464 L 63.7 142.464 L 63.7 136.1 L 95.101 136.1 L 95.101 142.464 Z " fill="rgb(38,170,225)"/></g><g><path d=" M 95.101 246.584 L 0 246.584 L 0 240.226 L 95.101 240.226 L 95.101 246.584 Z " fill="rgb(0,0,0)"/></g><g><linearGradient id="_lgradient_43" x1="0" y1="0.5" x2="6.123233995736766e-17" y2="-0.5" gradientTransform="matrix(145.406,0,0,145.402,58.708,110.598)" gradientUnits="userSpaceOnUse"><stop offset="0%" stop-opacity="1" style="stop-color:rgb(108,110,112)"/><stop offset="53.6%" stop-opacity="1" style="stop-color:rgb(63,62,64)"/><stop offset="100%" stop-opacity="1" style="stop-color:rgb(63,62,64)"/></linearGradient><path d=" M 58.708 183.3 C 58.708 223.452 91.259 256 131.409 256 C 171.563 256 204.114 223.452 204.114 183.3 C 204.114 143.147 171.563 110.598 131.409 110.598 C 91.259 110.598 58.708 143.147 58.708 183.3 Z " fill="url(#_lgradient_43)"/></g><g><linearGradient id="_lgradient_44" x1="0" y1="0.5" x2="6.123233995736766e-17" y2="1.5" gradientTransform="matrix(142.103,0,0,142.102,60.358,112.247)" gradientUnits="userSpaceOnUse"><stop offset="0%" stop-opacity="1" style="stop-color:rgb(108,110,112)"/><stop offset="53.6%" stop-opacity="1" style="stop-color:rgb(63,62,64)"/><stop offset="100%" stop-opacity="1" style="stop-color:rgb(63,62,64)"/></linearGradient><path d=" M 60.358 183.3 C 60.358 222.54 92.168 254.349 131.409 254.349 C 170.651 254.349 202.461 222.54 202.461 183.3 C 202.461 144.06 170.651 112.247 131.409 112.247 C 92.168 112.247 60.358 144.06 60.358 183.3 Z " fill="url(#_lgradient_44)"/></g><g><linearGradient id="_lgradient_45" x1="0" y1="0.5" x2="6.123233995736766e-17" y2="-0.5" gradientTransform="matrix(129.469,0,0,129.466,66.677,118.565)" gradientUnits="userSpaceOnUse"><stop offset="0%" stop-opacity="1" style="stop-color:rgb(255,255,255)"/><stop offset="30.5%" stop-opacity="1" style="stop-color:rgb(253,254,254)"/><stop offset="100%" stop-opacity="1" style="stop-color:rgb(215,233,248)"/></linearGradient><path d=" M 66.677 183.3 C 66.677 219.051 95.657 248.031 131.409 248.031 C 167.158 248.031 196.146 219.051 196.146 183.3 C 196.146 147.546 167.158 118.565 131.409 118.565 C 95.657 118.565 66.677 147.546 66.677 183.3 Z " fill="url(#_lgradient_45)"/></g><g><linearGradient id="_lgradient_46" x1="0" y1="0.5" x2="6.123233995736766e-17" y2="1.5" gradientTransform="matrix(125.342,0,0,125.344,68.737,120.627)" gradientUnits="userSpaceOnUse"><stop offset="0%" stop-opacity="1" style="stop-color:rgb(255,255,255)"/><stop offset="30.5%" stop-opacity="1" style="stop-color:rgb(253,254,254)"/><stop offset="100%" stop-opacity="1" style="stop-color:rgb(215,233,248)"/></linearGradient><path d=" M 68.737 183.3 C 68.737 217.911 96.798 245.971 131.409 245.971 C 166.025 245.971 194.079 217.911 194.079 183.3 C 194.079 148.685 166.025 120.627 131.409 120.627 C 96.798 120.627 68.737 148.685 68.737 183.3 Z " fill="url(#_lgradient_46)"/></g><g><path d=" M 125.928 129.476 L 125.892 129.476 L 123.95 130.522 L 123.662 129.373 L 126.099 128.068 L 127.368 128.068 L 127.368 139.228 L 125.928 139.228 L 125.928 129.476 Z " fill="rgb(35,31,32)"/></g><g><path d=" M 131.434 139.229 L 131.434 138.301 L 132.639 137.167 C 135.472 134.455 136.776 132.996 136.794 131.314 C 136.794 130.181 136.242 129.115 134.577 129.115 C 133.565 129.115 132.724 129.648 132.207 130.077 L 131.726 129.013 C 132.5 128.359 133.601 127.88 134.887 127.88 C 137.289 127.88 138.287 129.527 138.287 131.125 C 138.287 133.185 136.794 134.851 134.456 137.116 L 133.565 137.958 L 133.565 137.992 L 138.561 137.992 L 138.561 139.229 L 131.434 139.229 Z " fill="rgb(35,31,32)"/></g><g><path d=" M 155.833 134.696 L 155.798 134.696 L 153.859 135.742 L 153.566 134.592 L 156.004 133.288 L 157.28 133.288 L 157.28 144.448 L 155.833 144.448 L 155.833 134.696 Z " fill="rgb(35,31,32)"/></g><g><path d=" M 172.91 164.818 L 172.91 163.891 L 174.107 162.758 C 176.944 160.044 178.249 158.585 178.263 156.903 C 178.263 155.77 177.714 154.706 176.053 154.706 C 175.041 154.706 174.193 155.239 173.68 155.666 L 173.202 154.602 C 173.972 153.95 175.07 153.469 176.36 153.469 C 178.762 153.469 179.76 155.117 179.76 156.714 C 179.76 158.774 178.263 160.44 175.932 162.706 L 175.041 163.547 L 175.041 163.581 L 180.037 163.581 L 180.037 164.818 L 172.91 164.818 Z " fill="rgb(35,31,32)"/></g><g><path d=" M 179.097 188.253 C 179.525 188.528 180.501 188.959 181.57 188.959 C 183.509 188.959 184.108 187.722 184.093 186.795 C 184.072 185.231 182.668 184.561 181.207 184.561 L 180.366 184.561 L 180.366 183.428 L 181.207 183.428 C 182.304 183.428 183.694 182.861 183.694 181.539 C 183.694 180.648 183.131 179.857 181.741 179.857 C 180.843 179.857 179.988 180.253 179.51 180.595 L 179.111 179.497 C 179.696 179.066 180.829 178.638 182.033 178.638 C 184.229 178.638 185.241 179.943 185.241 181.3 C 185.241 182.466 184.535 183.428 183.167 183.945 L 183.167 183.977 C 184.535 184.237 185.654 185.267 185.654 186.828 C 185.654 188.613 184.243 190.178 181.585 190.178 C 180.33 190.178 179.232 189.782 178.684 189.404 L 179.097 188.253 Z " fill="rgb(35,31,32)"/></g><g><path d=" M 176.752 211.453 L 176.752 207.711 C 176.752 207.126 176.774 206.545 176.809 205.961 L 176.752 205.943 C 176.41 206.613 176.139 207.094 175.826 207.607 L 173.096 211.421 L 173.096 211.453 L 176.752 211.453 Z  M 176.752 215.662 L 176.752 212.622 L 171.57 212.622 L 171.57 211.627 L 176.546 204.5 L 178.178 204.5 L 178.178 211.453 L 179.739 211.453 L 179.739 212.622 L 178.178 212.622 L 178.178 215.662 L 176.752 215.662 Z " fill="rgb(35,31,32)"/></g><g><path d=" M 159.218 224.628 L 154.956 224.628 L 154.528 227.493 C 154.785 227.461 155.027 227.426 155.44 227.426 C 156.296 227.426 157.158 227.615 157.842 228.028 C 158.698 228.527 159.439 229.503 159.439 230.893 C 159.439 233.074 157.707 234.706 155.283 234.706 C 154.066 234.706 153.038 234.364 152.504 234.019 L 152.881 232.867 C 153.345 233.145 154.257 233.487 155.283 233.487 C 156.695 233.487 157.913 232.561 157.913 231.068 C 157.913 229.625 156.93 228.594 154.699 228.594 C 154.066 228.594 153.566 228.662 153.153 228.716 L 153.88 223.356 L 159.218 223.356 L 159.218 224.628 Z " fill="rgb(35,31,32)"/></g><g><path d=" M 133.721 238.605 C 133.721 237.008 132.809 236.046 131.419 236.046 C 130.51 236.046 129.651 236.613 129.238 237.422 C 129.152 237.593 129.085 237.814 129.085 238.074 C 129.12 239.927 129.961 241.299 131.54 241.299 C 132.844 241.299 133.721 240.202 133.721 238.605 Z  M 134.149 232.165 C 133.821 232.165 133.464 232.165 133.016 232.251 C 130.646 232.629 129.395 234.364 129.135 236.217 L 129.17 236.217 C 129.701 235.479 130.646 234.895 131.882 234.895 C 133.857 234.895 135.246 236.338 135.246 238.52 C 135.246 240.561 133.857 242.45 131.522 242.45 C 129.152 242.45 127.592 240.597 127.592 237.696 C 127.592 235.515 128.361 233.762 129.48 232.664 C 130.407 231.755 131.643 231.189 133.051 231.014 C 133.496 230.947 133.857 230.915 134.149 230.929 L 134.149 232.165 Z " fill="rgb(35,31,32)"/></g><g><path d=" M 109.435 222.886 L 109.435 223.884 L 104.577 234.048 L 103.013 234.048 L 107.856 224.176 L 107.856 224.14 L 102.397 224.14 L 102.397 222.886 L 109.435 222.886 Z " fill="rgb(35,31,32)"/></g><g><path d=" M 84.374 207.804 C 84.36 208.919 85.219 209.522 86.505 209.864 C 87.468 209.536 88.187 208.852 88.187 207.836 C 88.187 206.945 87.67 206.018 86.298 206.018 C 85.062 206.018 84.374 206.842 84.374 207.804 Z  M 88.529 213.385 C 88.529 212.045 87.585 211.375 86.074 210.961 C 84.77 211.321 84.067 212.198 84.067 213.264 C 84.014 214.379 84.873 215.373 86.298 215.373 C 87.656 215.373 88.529 214.532 88.529 213.385 Z  M 82.521 213.452 C 82.521 212.063 83.362 211.065 84.72 210.466 L 84.72 210.395 C 83.483 209.828 82.934 208.87 82.934 207.907 C 82.934 206.154 84.445 204.935 86.402 204.935 C 88.565 204.935 89.648 206.293 89.648 207.683 C 89.648 208.627 89.182 209.639 87.809 210.295 L 87.809 210.345 C 89.199 210.876 90.058 211.892 90.058 213.228 C 90.058 215.184 88.394 216.474 86.249 216.474 C 83.928 216.474 82.521 215.085 82.521 213.452 Z " fill="rgb(35,31,32)"/></g><g><path d=" M 76.762 183.564 C 76.762 184.936 77.603 185.934 78.925 185.934 C 79.92 185.934 80.711 185.417 81.106 184.747 C 81.174 184.612 81.26 184.458 81.26 184.198 C 81.26 182.295 80.54 180.834 78.957 180.834 C 77.671 180.834 76.762 181.967 76.762 183.564 Z  M 76.21 189.968 C 76.538 190.002 76.915 189.968 77.429 189.918 C 78.291 189.796 79.129 189.437 79.767 188.834 C 80.504 188.165 81.035 187.188 81.242 185.866 L 81.192 185.866 C 80.554 186.636 79.681 187.067 78.548 187.067 C 76.556 187.067 75.265 185.556 75.265 183.649 C 75.265 181.536 76.794 179.683 79.079 179.683 C 81.363 179.683 82.77 181.536 82.77 184.387 C 82.77 186.843 81.947 188.56 80.846 189.626 C 79.987 190.466 78.804 190.98 77.603 191.118 C 77.051 191.204 76.556 191.222 76.21 191.204 L 76.21 189.968 Z " fill="rgb(35,31,32)"/></g><g><path d=" M 80.779 154.259 L 80.744 154.259 L 78.805 155.307 L 78.512 154.156 L 80.95 152.851 L 82.219 152.851 L 82.219 164.011 L 80.779 164.011 L 80.779 154.259 Z " fill="rgb(35,31,32)"/></g><g><path d=" M 87.66 158.482 C 87.66 161.385 88.554 163.033 89.927 163.033 C 91.473 163.033 92.211 161.23 92.211 158.381 C 92.211 155.633 91.505 153.847 89.944 153.847 C 88.622 153.847 87.66 155.444 87.66 158.482 Z  M 93.722 158.311 C 93.722 162.106 92.314 164.2 89.841 164.2 C 87.66 164.2 86.185 162.158 86.149 158.466 C 86.149 154.723 87.763 152.663 90.03 152.663 C 92.382 152.663 93.722 154.758 93.722 158.311 Z " fill="rgb(35,31,32)"/></g><g><path d=" M 101.067 135.487 L 101.031 135.487 L 99.089 136.535 L 98.8 135.385 L 101.238 134.079 L 102.507 134.079 L 102.507 145.239 L 101.067 145.239 L 101.067 135.487 Z " fill="rgb(35,31,32)"/></g><g><path d=" M 109.873 135.487 L 109.837 135.487 L 107.895 136.535 L 107.607 135.385 L 110.044 134.079 L 111.313 134.079 L 111.313 145.239 L 109.873 145.239 L 109.873 135.487 Z " fill="rgb(35,31,32)"/></g><g><path d=" M 177.336 185.271 L 131.405 186.411 L 131.405 180.645 L 177.336 181.789 L 177.336 185.271 Z " fill="rgb(35,31,32)"/></g><g><path d=" M 115.828 185.271 L 131.405 186.411 L 131.405 180.645 L 115.828 181.789 L 115.828 185.271 Z " fill="rgb(35,31,32)"/></g><g><path d=" M 103.373 158.2 L 132.553 180.979 L 128.865 185.413 L 101.15 160.875 L 103.373 158.2 Z " fill="rgb(35,31,32)"/></g><g><path d=" M 141.469 189.885 L 132.552 180.979 L 128.864 185.412 L 139.245 192.562 L 141.469 189.885 Z " fill="rgb(35,31,32)"/></g></g></g></svg>