<?xml version="1.0" encoding="UTF-8" standalone="no"?><!-- Generator: Gravit.io --><svg xmlns="http://www.w3.org/2000/svg" xmlns:xlink="http://www.w3.org/1999/xlink" style="isolation:isolate" viewBox="0 0 256 212.016" width="256pt" height="212.016pt"><defs><clipPath id="_clipPath_0FVnGKxkc4G8nlV3VEq0pHqhdxS7HqIe"><rect width="256" height="212.016"/></clipPath></defs><g clip-path="url(#_clipPath_0FVnGKxkc4G8nlV3VEq0pHqhdxS7HqIe)"><g><g><path d=" M 230.245 0 L 25.758 0 C 11.531 0 0 11.534 0 25.76 L 0 92.086 L 0 106.008 L 0 186.262 C 0 200.488 11.531 212.016 25.758 212.016 L 230.245 212.016 C 244.477 212.016 256 200.488 256 186.262 L 256 106.008 L 256 92.086 L 256 25.76 C 256 11.534 244.477 0 230.245 0 Z " fill="rgb(0,0,0)"/></g><g><path d=" M 75.693 197.268 C 68.57 197.268 62.794 191.494 62.794 184.366 C 62.794 177.244 68.57 171.465 75.693 171.465 C 82.815 171.465 88.594 177.244 88.594 184.366 C 88.594 191.494 82.815 197.268 75.693 197.268 Z " fill="rgb(38,170,225)"/></g><g><path d=" M 128.001 197.268 C 120.876 197.268 115.1 191.494 115.1 184.366 C 115.1 177.244 120.876 171.465 128.001 171.465 C 135.124 171.465 140.903 177.244 140.903 184.366 C 140.903 191.494 135.124 197.268 128.001 197.268 Z " fill="rgb(38,170,225)"/></g><g><path d=" M 180.316 197.268 C 173.193 197.268 167.408 191.494 167.408 184.366 C 167.408 177.244 173.193 171.465 180.316 171.465 C 187.438 171.465 193.211 177.244 193.211 184.366 C 193.211 191.494 187.438 197.268 180.316 197.268 Z " fill="rgb(38,170,225)"/></g><g><linearGradient id="_lgradient_47" x1="0" y1="0.5" x2="0.9394723375569027" y2="0.8426247611679124" gradientTransform="matrix(221.57,0,0,140.751,17.22,17.222)" gradientUnits="userSpaceOnUse"><stop offset="0%" stop-opacity="1" style="stop-color:rgb(29,143,206)"/><stop offset="22.816999999999997%" stop-opacity="1" style="stop-color:rgb(110,190,233)"/><stop offset="66.20319999999998%" stop-opacity="1" style="stop-color:rgb(26,142,205)"/><stop offset="100%" stop-opacity="1" style="stop-color:rgb(26,142,205)"/></linearGradient><path d=" M 25.758 17.222 C 21.047 17.222 17.22 21.05 17.22 25.76 L 17.22 92.085 L 17.22 106.007 L 17.22 149.434 C 17.22 154.145 21.047 157.973 25.758 157.973 L 230.245 157.973 C 234.961 157.973 238.79 154.145 238.79 149.434 L 238.79 106.007 L 238.79 92.085 L 238.79 25.76 C 238.79 21.05 234.961 17.222 230.245 17.222 L 25.758 17.222 Z " fill="url(#_lgradient_47)"/></g></g></g></svg>