<?xml version="1.0" encoding="UTF-8" standalone="no"?><!-- Generator: Gravit.io --><svg xmlns="http://www.w3.org/2000/svg" xmlns:xlink="http://www.w3.org/1999/xlink" style="isolation:isolate" viewBox="0 0 256 98.844" width="256pt" height="98.844pt"><defs><clipPath id="_clipPath_gxaas639YwD202yOIZXBAsPNjegYFd36"><rect width="256" height="98.844"/></clipPath></defs><g clip-path="url(#_clipPath_gxaas639YwD202yOIZXBAsPNjegYFd36)"><g><g><linearGradient id="_lgradient_48" x1="0" y1="0.5" x2="6.123233995736766e-17" y2="-0.5" gradientTransform="matrix(184.459,0,0,67.597,0,31.247)" gradientUnits="userSpaceOnUse"><stop offset="0%" stop-opacity="1" style="stop-color:rgb(7,59,107)"/><stop offset="12.4%" stop-opacity="1" style="stop-color:rgb(7,59,107)"/><stop offset="100%" stop-opacity="1" style="stop-color:rgb(24,92,156)"/></linearGradient><path d=" M 0 31.247 L 0 96.287 L 6.853 96.287 L 8.169 98.844 L 18.818 98.844 L 19.814 96.287 L 164.695 96.287 L 165.522 98.439 L 176.206 98.439 L 177.319 96.287 L 184.459 96.287 L 184.459 31.247 L 0 31.247 Z " fill="url(#_lgradient_48)"/></g><g><linearGradient id="_lgradient_49" x1="0" y1="0.5" x2="1" y2="0.5" gradientTransform="matrix(12.624,0,0,2.152,164.693,96.287)" gradientUnits="userSpaceOnUse"><stop offset="0%" stop-opacity="1" style="stop-color:rgb(34,31,32)"/><stop offset="50.2%" stop-opacity="1" style="stop-color:rgb(69,68,70)"/><stop offset="100%" stop-opacity="1" style="stop-color:rgb(34,31,32)"/></linearGradient><path d=" M 176.203 98.439 L 165.52 98.439 L 164.693 96.287 L 177.317 96.287 L 176.203 98.439 Z " fill="url(#_lgradient_49)"/></g><g><linearGradient id="_lgradient_50" x1="0" y1="0.5" x2="1" y2="0.5" gradientTransform="matrix(12.962,0,0,2.557,6.848,96.287)" gradientUnits="userSpaceOnUse"><stop offset="0%" stop-opacity="1" style="stop-color:rgb(34,31,32)"/><stop offset="50.2%" stop-opacity="1" style="stop-color:rgb(69,68,70)"/><stop offset="100%" stop-opacity="1" style="stop-color:rgb(34,31,32)"/></linearGradient><path d=" M 18.814 98.844 L 8.165 98.844 L 6.848 96.287 L 19.81 96.287 L 18.814 98.844 Z " fill="url(#_lgradient_50)"/></g><g><path d=" M 37.312 86.119 C 38.485 86.119 39.439 52.879 39.439 48.656 C 39.439 44.441 38.485 41.019 37.312 41.019 C 36.122 41.019 35.169 55.655 35.169 59.871 C 35.169 64.094 36.122 86.119 37.312 86.119 Z " fill="rgb(35,31,32)"/></g><g><path d=" M 26.477 56.305 C 27.649 56.305 28.607 52.879 28.607 48.655 C 28.607 44.44 27.649 41.018 26.477 41.018 C 25.295 41.018 24.338 44.44 24.338 48.655 C 24.338 52.879 25.295 56.305 26.477 56.305 Z " fill="rgb(35,31,32)"/></g><g><path d=" M 10.776 56.305 C 11.949 56.305 12.907 52.879 12.907 48.655 C 12.907 44.44 11.949 41.018 10.776 41.018 C 9.59 41.018 8.633 44.44 8.633 48.655 C 8.633 52.879 9.59 56.305 10.776 56.305 Z " fill="rgb(35,31,32)"/></g><g><path d=" M 172.874 86.119 C 174.045 86.119 175.001 64.094 175.001 59.871 C 175.001 55.655 174.045 41.019 172.874 41.019 C 171.684 41.019 170.728 44.441 170.728 48.656 C 170.728 52.879 171.684 86.119 172.874 86.119 Z " fill="rgb(35,31,32)"/></g><g><linearGradient id="_lgradient_51" x1="0" y1="0.5" x2="1" y2="0.5" gradientTransform="matrix(135.913,0,0,44.915,36.961,41.102)" gradientUnits="userSpaceOnUse"><stop offset="0%" stop-opacity="1" style="stop-color:rgb(219,220,222)"/><stop offset="50.2%" stop-opacity="1" style="stop-color:rgb(230,231,232)"/><stop offset="100%" stop-opacity="1" style="stop-color:rgb(187,189,191)"/></linearGradient><path d=" M 36.961 86.017 L 172.874 86.017 L 172.874 41.102 L 36.961 41.102 L 36.961 86.017 Z " fill="url(#_lgradient_51)"/></g><g><linearGradient id="_lgradient_52" x1="0" y1="0.5" x2="1" y2="0.5" gradientTransform="matrix(15.7,0,0,15.101,10.777,41.103)" gradientUnits="userSpaceOnUse"><stop offset="0%" stop-opacity="1" style="stop-color:rgb(219,220,222)"/><stop offset="50.2%" stop-opacity="1" style="stop-color:rgb(230,231,232)"/><stop offset="100%" stop-opacity="1" style="stop-color:rgb(187,189,191)"/></linearGradient><path d=" M 10.777 56.204 L 26.477 56.204 L 26.477 41.103 L 10.777 41.103 L 10.777 56.204 Z " fill="url(#_lgradient_52)"/></g><g><path d=" M 17.958 48.807 C 17.958 49.162 18.257 49.474 18.637 49.474 C 18.996 49.474 19.296 49.162 19.296 48.807 C 19.296 48.419 18.996 48.119 18.637 48.119 C 18.257 48.119 17.958 48.419 17.958 48.807 Z  M 15.026 48.647 C 15.026 46.659 16.654 45.056 18.637 45.056 C 20.616 45.056 22.232 46.659 22.232 48.647 C 22.232 50.638 20.616 52.25 18.637 52.25 C 16.654 52.25 15.026 50.638 15.026 48.647 Z " fill="rgb(35,31,32)"/></g><g><path d=" M 145.063 77.735 L 148.557 77.735 L 148.557 79.786 L 150.088 79.786 L 150.088 81.938 L 156.227 81.938 L 156.227 79.786 L 157.862 79.786 L 157.862 77.735 L 160.834 77.735 L 160.834 67.917 L 145.063 67.917 L 145.063 77.735 Z " fill="rgb(35,31,32)"/></g><g><path d=" M 113.044 77.735 L 116.531 77.735 L 116.531 79.786 L 118.067 79.786 L 118.067 81.938 L 124.206 81.938 L 124.206 79.786 L 125.837 79.786 L 125.837 77.735 L 128.809 77.735 L 128.809 67.917 L 113.044 67.917 L 113.044 77.735 Z " fill="rgb(35,31,32)"/></g><g><path d=" M 81.028 77.735 L 84.513 77.735 L 84.513 79.786 L 86.049 79.786 L 86.049 81.938 L 92.184 81.938 L 92.184 79.786 L 93.821 79.786 L 93.821 77.735 L 96.789 77.735 L 96.789 67.917 L 81.028 67.917 L 81.028 77.735 Z " fill="rgb(35,31,32)"/></g><g><path d=" M 49.003 77.735 L 52.488 77.735 L 52.488 79.786 L 54.024 79.786 L 54.024 81.938 L 60.167 81.938 L 60.167 79.786 L 61.796 79.786 L 61.796 77.735 L 64.767 77.735 L 64.767 67.917 L 49.003 67.917 L 49.003 77.735 Z " fill="rgb(35,31,32)"/></g><g><path d=" M 145.063 55.018 L 148.557 55.018 L 148.557 57.069 L 150.088 57.069 L 150.088 59.221 L 156.227 59.221 L 156.227 57.069 L 157.862 57.069 L 157.862 55.018 L 160.834 55.018 L 160.834 45.2 L 145.063 45.2 L 145.063 55.018 Z " fill="rgb(35,31,32)"/></g><g><path d=" M 113.044 55.018 L 116.531 55.018 L 116.531 57.069 L 118.067 57.069 L 118.067 59.221 L 124.206 59.221 L 124.206 57.069 L 125.837 57.069 L 125.837 55.018 L 128.809 55.018 L 128.809 45.2 L 113.044 45.2 L 113.044 55.018 Z " fill="rgb(35,31,32)"/></g><g><path d=" M 81.028 55.018 L 84.513 55.018 L 84.513 57.069 L 86.049 57.069 L 86.049 59.221 L 92.184 59.221 L 92.184 57.069 L 93.821 57.069 L 93.821 55.018 L 96.789 55.018 L 96.789 45.2 L 81.028 45.2 L 81.028 55.018 Z " fill="rgb(35,31,32)"/></g><g><path d=" M 49.003 55.018 L 52.488 55.018 L 52.488 57.069 L 54.024 57.069 L 54.024 59.221 L 60.167 59.221 L 60.167 57.069 L 61.796 57.069 L 61.796 55.018 L 64.767 55.018 L 64.767 45.2 L 49.003 45.2 L 49.003 55.018 Z " fill="rgb(35,31,32)"/></g><g><linearGradient id="_lgradient_53" x1="0" y1="0.5" x2="1" y2="0.5" gradientTransform="matrix(98.406,0,0,98.406,157.594,0)" gradientUnits="userSpaceOnUse"><stop offset="0%" stop-opacity="1" style="stop-color:rgb(7,59,107)"/><stop offset="12.4%" stop-opacity="1" style="stop-color:rgb(7,59,107)"/><stop offset="100%" stop-opacity="1" style="stop-color:rgb(24,92,156)"/></linearGradient><path d=" M 157.594 49.203 C 157.594 76.376 179.623 98.406 206.798 98.406 C 233.971 98.406 256 76.376 256 49.203 C 256 22.029 233.971 0 206.798 0 C 179.623 0 157.594 22.029 157.594 49.203 Z " fill="url(#_lgradient_53)"/></g><g><linearGradient id="_lgradient_54" x1="0" y1="0.5" x2="1" y2="0.5" gradientTransform="matrix(69.657,0,0,23.595,171.969,23.376)" gradientUnits="userSpaceOnUse"><stop offset="0%" stop-opacity="1" style="stop-color:rgb(177,179,181)"/><stop offset="78.10000000000001%" stop-opacity="1" style="stop-color:rgb(219,220,222)"/><stop offset="100%" stop-opacity="1" style="stop-color:rgb(219,220,222)"/></linearGradient><path d=" M 222.432 29.345 L 171.969 29.345 L 171.969 41.003 L 222.432 41.003 L 222.432 46.971 L 241.626 35.173 L 222.432 23.376 L 222.432 29.345 Z " fill="url(#_lgradient_54)"/></g><g><linearGradient id="_lgradient_55" x1="0" y1="0.5" x2="1" y2="0.5" gradientTransform="matrix(69.657,0,0,23.595,171.969,51.434)" gradientUnits="userSpaceOnUse"><stop offset="0%" stop-opacity="1" style="stop-color:rgb(177,179,181)"/><stop offset="78.10000000000001%" stop-opacity="1" style="stop-color:rgb(219,220,222)"/><stop offset="100%" stop-opacity="1" style="stop-color:rgb(219,220,222)"/></linearGradient><path d=" M 222.432 57.402 L 171.969 57.402 L 171.969 69.06 L 222.432 69.06 L 222.432 75.029 L 241.626 63.231 L 222.432 51.434 L 222.432 57.402 Z " fill="url(#_lgradient_55)"/></g></g></g></svg>