<?xml version="1.0" encoding="UTF-8" standalone="no"?><!-- Generator: Gravit.io --><svg xmlns="http://www.w3.org/2000/svg" xmlns:xlink="http://www.w3.org/1999/xlink" style="isolation:isolate" viewBox="0 0 256 72.431" width="256pt" height="72.431pt"><defs><clipPath id="_clipPath_KIG5GudHgrwCexd43JMxQzn6DULfAUVU"><rect width="256" height="72.431"/></clipPath></defs><g clip-path="url(#_clipPath_KIG5GudHgrwCexd43JMxQzn6DULfAUVU)"><g><g><linearGradient id="_lgradient_56" x1="0" y1="0.5" x2="6.123233995736766e-17" y2="1.5" gradientTransform="matrix(256,0,0,72.431,0,0)" gradientUnits="userSpaceOnUse"><stop offset="0%" stop-opacity="1" style="stop-color:rgb(108,110,112)"/><stop offset="53.6%" stop-opacity="1" style="stop-color:rgb(63,62,64)"/><stop offset="100%" stop-opacity="1" style="stop-color:rgb(63,62,64)"/></linearGradient><path d=" M 220.837 0 L 214.456 0 L 187.071 0 L 180.689 0 L 153.292 0 L 146.911 0 L 119.523 0 L 113.141 0 L 1.907 0 C 0.848 0 0 0.655 0 1.44 L 0 70.992 C 0 71.79 0.848 72.431 1.907 72.431 L 254.106 72.431 C 255.153 72.431 256 71.79 256 70.992 L 256 1.44 C 256 0.655 255.153 0 254.106 0 L 220.837 0 Z " fill="url(#_lgradient_56)"/></g><g><path d=" M 30.298 25.609 C 30.298 27.89 28.447 29.735 26.166 29.735 C 23.891 29.735 22.041 27.89 22.041 25.609 C 22.041 23.328 23.891 21.483 26.166 21.483 C 28.447 21.483 30.298 23.328 30.298 25.609 Z " fill="rgb(0,0,0)"/></g><g><path d=" M 41.242 25.609 C 41.242 27.89 39.391 29.735 37.116 29.735 C 34.842 29.735 32.99 27.89 32.99 25.609 C 32.99 23.328 34.842 21.483 37.116 21.483 C 39.391 21.483 41.242 23.328 41.242 25.609 Z " fill="rgb(0,0,0)"/></g><g><path d=" M 52.192 25.609 C 52.192 27.89 50.341 29.735 48.066 29.735 C 45.785 29.735 43.935 27.89 43.935 25.609 C 43.935 23.328 45.785 21.483 48.066 21.483 C 50.341 21.483 52.192 23.328 52.192 25.609 Z " fill="rgb(0,0,0)"/></g><g><path d=" M 30.298 36.216 C 30.298 38.497 28.447 40.342 26.166 40.342 C 23.891 40.342 22.041 38.497 22.041 36.216 C 22.041 33.935 23.891 32.09 26.166 32.09 C 28.447 32.09 30.298 33.935 30.298 36.216 Z " fill="rgb(0,0,0)"/></g><g><path d=" M 41.242 36.216 C 41.242 38.497 39.391 40.342 37.116 40.342 C 34.842 40.342 32.99 38.497 32.99 36.216 C 32.99 33.935 34.842 32.09 37.116 32.09 C 39.391 32.09 41.242 33.935 41.242 36.216 Z " fill="rgb(0,0,0)"/></g><g><path d=" M 52.192 36.216 C 52.192 38.497 50.341 40.342 48.066 40.342 C 45.785 40.342 43.935 38.497 43.935 36.216 C 43.935 33.935 45.785 32.09 48.066 32.09 C 50.341 32.09 52.192 33.935 52.192 36.216 Z " fill="rgb(0,0,0)"/></g><g><path d=" M 30.298 46.823 C 30.298 49.104 28.447 50.949 26.166 50.949 C 23.891 50.949 22.041 49.104 22.041 46.823 C 22.041 44.542 23.891 42.697 26.166 42.697 C 28.447 42.697 30.298 44.542 30.298 46.823 Z " fill="rgb(0,0,0)"/></g><g><path d=" M 41.242 46.823 C 41.242 49.104 39.391 50.949 37.116 50.949 C 34.842 50.949 32.99 49.104 32.99 46.823 C 32.99 44.542 34.842 42.697 37.116 42.697 C 39.391 42.697 41.242 44.542 41.242 46.823 Z " fill="rgb(0,0,0)"/></g><g><path d=" M 52.192 46.823 C 52.192 49.104 50.341 50.949 48.066 50.949 C 45.785 50.949 43.935 49.104 43.935 46.823 C 43.935 44.542 45.785 42.697 48.066 42.697 C 50.341 42.697 52.192 44.542 52.192 46.823 Z " fill="rgb(0,0,0)"/></g><g><path d=" M 63.463 25.609 C 63.463 27.89 61.612 29.735 59.331 29.735 C 57.056 29.735 55.206 27.89 55.206 25.609 C 55.206 23.328 57.056 21.483 59.331 21.483 C 61.612 21.483 63.463 23.328 63.463 25.609 Z " fill="rgb(0,0,0)"/></g><g><path d=" M 74.407 25.609 C 74.407 27.89 72.556 29.735 70.281 29.735 C 68.006 29.735 66.155 27.89 66.155 25.609 C 66.155 23.328 68.006 21.483 70.281 21.483 C 72.556 21.483 74.407 23.328 74.407 25.609 Z " fill="rgb(0,0,0)"/></g><g><path d=" M 85.357 25.609 C 85.357 27.89 83.506 29.735 81.231 29.735 C 78.95 29.735 77.099 27.89 77.099 25.609 C 77.099 23.328 78.95 21.483 81.231 21.483 C 83.506 21.483 85.357 23.328 85.357 25.609 Z " fill="rgb(0,0,0)"/></g><g><path d=" M 63.463 36.216 C 63.463 38.497 61.612 40.342 59.331 40.342 C 57.056 40.342 55.206 38.497 55.206 36.216 C 55.206 33.935 57.056 32.09 59.331 32.09 C 61.612 32.09 63.463 33.935 63.463 36.216 Z " fill="rgb(0,0,0)"/></g><g><path d=" M 74.407 36.216 C 74.407 38.497 72.556 40.342 70.281 40.342 C 68.006 40.342 66.155 38.497 66.155 36.216 C 66.155 33.935 68.006 32.09 70.281 32.09 C 72.556 32.09 74.407 33.935 74.407 36.216 Z " fill="rgb(0,0,0)"/></g><g><path d=" M 85.357 36.216 C 85.357 38.497 83.506 40.342 81.231 40.342 C 78.95 40.342 77.099 38.497 77.099 36.216 C 77.099 33.935 78.95 32.09 81.231 32.09 C 83.506 32.09 85.357 33.935 85.357 36.216 Z " fill="rgb(0,0,0)"/></g><g><path d=" M 63.463 46.823 C 63.463 49.104 61.612 50.949 59.331 50.949 C 57.056 50.949 55.206 49.104 55.206 46.823 C 55.206 44.542 57.056 42.697 59.331 42.697 C 61.612 42.697 63.463 44.542 63.463 46.823 Z " fill="rgb(0,0,0)"/></g><g><path d=" M 74.407 46.823 C 74.407 49.104 72.556 50.949 70.281 50.949 C 68.006 50.949 66.155 49.104 66.155 46.823 C 66.155 44.542 68.006 42.697 70.281 42.697 C 72.556 42.697 74.407 44.542 74.407 46.823 Z " fill="rgb(0,0,0)"/></g><g><path d=" M 85.357 46.823 C 85.357 49.104 83.506 50.949 81.231 50.949 C 78.95 50.949 77.099 49.104 77.099 46.823 C 77.099 44.542 78.95 42.697 81.231 42.697 C 83.506 42.697 85.357 44.542 85.357 46.823 Z " fill="rgb(0,0,0)"/></g><g><path d=" M 178.901 25.609 C 178.901 27.89 177.05 29.735 174.769 29.735 C 172.494 29.735 170.643 27.89 170.643 25.609 C 170.643 23.328 172.494 21.483 174.769 21.483 C 177.05 21.483 178.901 23.328 178.901 25.609 Z " fill="rgb(0,0,0)"/></g><g><path d=" M 189.844 25.609 C 189.844 27.89 187.987 29.735 185.719 29.735 C 183.444 29.735 181.593 27.89 181.593 25.609 C 181.593 23.328 183.444 21.483 185.719 21.483 C 187.987 21.483 189.844 23.328 189.844 25.609 Z " fill="rgb(0,0,0)"/></g><g><path d=" M 200.801 25.609 C 200.801 27.89 198.944 29.735 196.675 29.735 C 194.394 29.735 192.537 27.89 192.537 25.609 C 192.537 23.328 194.394 21.483 196.675 21.483 C 198.944 21.483 200.801 23.328 200.801 25.609 Z " fill="rgb(0,0,0)"/></g><g><path d=" M 178.901 36.216 C 178.901 38.497 177.05 40.342 174.769 40.342 C 172.494 40.342 170.643 38.497 170.643 36.216 C 170.643 33.935 172.494 32.09 174.769 32.09 C 177.05 32.09 178.901 33.935 178.901 36.216 Z " fill="rgb(0,0,0)"/></g><g><path d=" M 189.844 36.216 C 189.844 38.497 187.987 40.342 185.719 40.342 C 183.444 40.342 181.593 38.497 181.593 36.216 C 181.593 33.935 183.444 32.09 185.719 32.09 C 187.987 32.09 189.844 33.935 189.844 36.216 Z " fill="rgb(0,0,0)"/></g><g><path d=" M 200.801 36.216 C 200.801 38.497 198.944 40.342 196.675 40.342 C 194.394 40.342 192.537 38.497 192.537 36.216 C 192.537 33.935 194.394 32.09 196.675 32.09 C 198.944 32.09 200.801 33.935 200.801 36.216 Z " fill="rgb(0,0,0)"/></g><g><path d=" M 178.901 46.823 C 178.901 49.104 177.05 50.949 174.769 50.949 C 172.494 50.949 170.643 49.104 170.643 46.823 C 170.643 44.542 172.494 42.697 174.769 42.697 C 177.05 42.697 178.901 44.542 178.901 46.823 Z " fill="rgb(0,0,0)"/></g><g><path d=" M 189.844 46.823 C 189.844 49.104 187.987 50.949 185.719 50.949 C 183.444 50.949 181.593 49.104 181.593 46.823 C 181.593 44.542 183.444 42.697 185.719 42.697 C 187.987 42.697 189.844 44.542 189.844 46.823 Z " fill="rgb(0,0,0)"/></g><g><path d=" M 200.801 46.823 C 200.801 49.104 198.944 50.949 196.675 50.949 C 194.394 50.949 192.537 49.104 192.537 46.823 C 192.537 44.542 194.394 42.697 196.675 42.697 C 198.944 42.697 200.801 44.542 200.801 46.823 Z " fill="rgb(0,0,0)"/></g><g><path d=" M 212.069 25.609 C 212.069 27.89 210.211 29.735 207.93 29.735 C 205.662 29.735 203.805 27.89 203.805 25.609 C 203.805 23.328 205.662 21.483 207.93 21.483 C 210.211 21.483 212.069 23.328 212.069 25.609 Z " fill="rgb(0,0,0)"/></g><g><path d=" M 223.013 25.609 C 223.013 27.89 221.156 29.735 218.887 29.735 C 216.606 29.735 214.761 27.89 214.761 25.609 C 214.761 23.328 216.606 21.483 218.887 21.483 C 221.156 21.483 223.013 23.328 223.013 25.609 Z " fill="rgb(0,0,0)"/></g><g><path d=" M 233.956 25.609 C 233.956 27.89 232.112 29.735 229.831 29.735 C 227.549 29.735 225.705 27.89 225.705 25.609 C 225.705 23.328 227.549 21.483 229.831 21.483 C 232.112 21.483 233.956 23.328 233.956 25.609 Z " fill="rgb(0,0,0)"/></g><g><path d=" M 212.069 36.216 C 212.069 38.497 210.211 40.342 207.93 40.342 C 205.662 40.342 203.805 38.497 203.805 36.216 C 203.805 33.935 205.662 32.09 207.93 32.09 C 210.211 32.09 212.069 33.935 212.069 36.216 Z " fill="rgb(0,0,0)"/></g><g><path d=" M 223.013 36.216 C 223.013 38.497 221.156 40.342 218.887 40.342 C 216.606 40.342 214.761 38.497 214.761 36.216 C 214.761 33.935 216.606 32.09 218.887 32.09 C 221.156 32.09 223.013 33.935 223.013 36.216 Z " fill="rgb(0,0,0)"/></g><g><path d=" M 233.956 36.216 C 233.956 38.497 232.112 40.342 229.831 40.342 C 227.549 40.342 225.705 38.497 225.705 36.216 C 225.705 33.935 227.549 32.09 229.831 32.09 C 232.112 32.09 233.956 33.935 233.956 36.216 Z " fill="rgb(0,0,0)"/></g><g><path d=" M 212.069 46.823 C 212.069 49.104 210.211 50.949 207.93 50.949 C 205.662 50.949 203.805 49.104 203.805 46.823 C 203.805 44.542 205.662 42.697 207.93 42.697 C 210.211 42.697 212.069 44.542 212.069 46.823 Z " fill="rgb(0,0,0)"/></g><g><path d=" M 223.013 46.823 C 223.013 49.104 221.156 50.949 218.887 50.949 C 216.606 50.949 214.761 49.104 214.761 46.823 C 214.761 44.542 216.606 42.697 218.887 42.697 C 221.156 42.697 223.013 44.542 223.013 46.823 Z " fill="rgb(0,0,0)"/></g><g><path d=" M 233.956 46.823 C 233.956 49.104 232.112 50.949 229.831 50.949 C 227.549 50.949 225.705 49.104 225.705 46.823 C 225.705 44.542 227.549 42.697 229.831 42.697 C 232.112 42.697 233.956 44.542 233.956 46.823 Z " fill="rgb(0,0,0)"/></g><g><path d=" M 144.716 36.216 C 144.716 45.452 137.225 52.931 127.998 52.931 C 118.762 52.931 111.283 45.452 111.283 36.216 C 111.283 26.986 118.762 19.501 127.998 19.501 C 137.225 19.501 144.716 26.986 144.716 36.216 Z " fill="rgb(38,170,225)"/></g></g></g></svg>