<?xml version="1.0" encoding="UTF-8" standalone="no"?><!-- Generator: Gravit.io --><svg xmlns="http://www.w3.org/2000/svg" xmlns:xlink="http://www.w3.org/1999/xlink" style="isolation:isolate" viewBox="0 0 248.81 256" width="248.81pt" height="256pt"><defs><clipPath id="_clipPath_aeFoy03NVXV7zDsod2OyeteCSioJO2w9"><rect width="248.81" height="256"/></clipPath></defs><g clip-path="url(#_clipPath_aeFoy03NVXV7zDsod2OyeteCSioJO2w9)"><g><g><linearGradient id="_lgradient_81" x1="0" y1="0.5" x2="6.123233995736766e-17" y2="1.5" gradientTransform="matrix(188.316,0,0,189.597,29.078,31.933)" gradientUnits="userSpaceOnUse"><stop offset="0%" stop-opacity="1" style="stop-color:rgb(108,110,112)"/><stop offset="100%" stop-opacity="1" style="stop-color:rgb(63,62,64)"/></linearGradient><path d=" M 39.611 31.933 C 33.796 31.933 29.078 36.642 29.078 42.468 L 29.078 210.996 C 29.078 216.829 33.796 221.53 39.611 221.53 L 206.86 221.53 C 212.685 221.53 217.394 216.829 217.394 210.996 L 217.394 42.468 C 217.394 36.642 212.685 31.933 206.86 31.933 L 39.611 31.933 Z " fill="url(#_lgradient_81)"/></g><g><linearGradient id="_lgradient_82" x1="0" y1="0.5" x2="6.123233995736766e-17" y2="-0.5" gradientTransform="matrix(146.193,0,0,25.308,50.141,0)" gradientUnits="userSpaceOnUse"><stop offset="0%" stop-opacity="1" style="stop-color:rgb(108,110,112)"/><stop offset="100%" stop-opacity="1" style="stop-color:rgb(192,194,196)"/></linearGradient><path d=" M 188.821 0 C 185.88 0 183.482 3.602 183.482 8.054 L 183.482 25.308 L 196.334 25.308 L 196.334 8.054 C 196.334 3.602 193.942 0 190.994 0 L 188.821 0 Z  M 166.59 0 C 163.649 0 161.258 3.602 161.258 8.054 L 161.258 25.308 L 174.111 25.308 L 174.111 8.054 C 174.111 3.602 171.728 0 168.771 0 L 166.59 0 Z  M 144.367 0 C 141.417 0 139.034 3.602 139.034 8.054 L 139.034 25.308 L 151.887 25.308 L 151.887 8.054 C 151.887 3.602 149.496 0 146.556 0 L 144.367 0 Z  M 122.143 0 C 119.203 0 116.811 3.602 116.811 8.054 L 116.811 25.308 L 129.664 25.308 L 129.664 8.054 C 129.664 3.602 127.265 0 124.324 0 L 122.143 0 Z  M 99.919 0 C 96.971 0 94.58 3.602 94.58 8.054 L 94.58 25.308 L 107.441 25.308 L 107.441 8.054 C 107.441 3.602 105.049 0 102.101 0 L 99.919 0 Z  M 77.697 0 C 74.747 0 72.365 3.602 72.365 8.054 L 72.365 25.308 L 85.217 25.308 L 85.217 8.054 C 85.217 3.602 82.826 0 79.877 0 L 77.697 0 Z  M 55.481 0 C 52.525 0 50.141 3.602 50.141 8.054 L 50.141 25.308 L 62.993 25.308 L 62.993 8.054 C 62.993 3.602 60.603 0 57.654 0 L 55.481 0 Z " fill="url(#_lgradient_82)"/></g><g><linearGradient id="_lgradient_83" x1="0" y1="0.5" x2="6.123233995736766e-17" y2="1.5" gradientTransform="matrix(171.772,0,0,173.053,37.35,40.205)" gradientUnits="userSpaceOnUse"><stop offset="0%" stop-opacity="1" style="stop-color:rgb(63,62,64)"/><stop offset="100%" stop-opacity="1" style="stop-color:rgb(34,31,32)"/></linearGradient><path d=" M 39.611 40.205 C 38.367 40.205 37.35 41.223 37.35 42.468 L 37.35 210.996 C 37.35 212.24 38.367 213.258 39.611 213.258 L 206.86 213.258 C 208.128 213.258 209.122 212.264 209.122 210.996 L 209.122 42.468 C 209.122 41.223 208.104 40.205 206.86 40.205 L 39.611 40.205 Z " fill="url(#_lgradient_83)"/></g><g><path d=" M 53.894 56.749 L 192.577 56.749 L 192.577 196.713 L 53.894 196.713 L 53.894 56.749 Z " fill="rgb(0,0,0)"/></g><g><linearGradient id="_lgradient_84" x1="0" y1="0.5" x2="1" y2="0.5" gradientTransform="matrix(25.309,0,0,146.193,223.501,52.993)" gradientUnits="userSpaceOnUse"><stop offset="0%" stop-opacity="1" style="stop-color:rgb(108,110,112)"/><stop offset="100%" stop-opacity="1" style="stop-color:rgb(192,194,196)"/></linearGradient><path d=" M 223.501 52.993 L 223.501 65.845 L 240.756 65.845 C 245.207 65.845 248.81 63.455 248.81 60.506 L 248.81 58.333 C 248.81 55.376 245.207 52.993 240.756 52.993 L 223.501 52.993 Z  M 223.501 75.216 L 223.501 88.069 L 240.756 88.069 C 245.207 88.069 248.81 85.678 248.81 82.729 L 248.81 80.549 C 248.81 77.599 245.207 75.216 240.756 75.216 L 223.501 75.216 Z  M 223.501 97.432 L 223.501 110.293 L 240.756 110.293 C 245.207 110.293 248.81 107.901 248.81 104.953 L 248.81 102.771 C 248.81 99.822 245.207 97.432 240.756 97.432 L 223.501 97.432 Z  M 223.501 119.663 L 223.501 132.516 L 240.756 132.516 C 245.207 132.516 248.81 130.117 248.81 127.176 L 248.81 124.995 C 248.81 122.054 245.207 119.663 240.756 119.663 L 223.501 119.663 Z  M 223.501 141.886 L 223.501 154.739 L 240.756 154.739 C 245.207 154.739 248.81 152.348 248.81 149.408 L 248.81 147.218 C 248.81 144.27 245.207 141.886 240.756 141.886 L 223.501 141.886 Z  M 223.501 164.11 L 223.501 176.962 L 240.756 176.962 C 245.207 176.962 248.81 174.58 248.81 171.622 L 248.81 169.442 C 248.81 166.501 245.207 164.11 240.756 164.11 L 223.501 164.11 Z  M 223.501 186.334 L 223.501 199.186 L 240.756 199.186 C 245.207 199.186 248.81 196.794 248.81 193.846 L 248.81 191.673 C 248.81 188.732 245.207 186.334 240.756 186.334 L 223.501 186.334 Z " fill="url(#_lgradient_84)"/></g><g><linearGradient id="_lgradient_85" x1="0" y1="0.5" x2="6.123233995736766e-17" y2="1.5" gradientTransform="matrix(146.193,0,0,25.309,50.141,230.691)" gradientUnits="userSpaceOnUse"><stop offset="0%" stop-opacity="1" style="stop-color:rgb(108,110,112)"/><stop offset="100%" stop-opacity="1" style="stop-color:rgb(192,194,196)"/></linearGradient><path d=" M 183.482 230.691 L 183.482 247.946 C 183.482 252.397 185.872 256 188.821 256 L 190.994 256 C 193.951 256 196.334 252.397 196.334 247.946 L 196.334 230.691 L 183.482 230.691 Z  M 161.258 230.691 L 161.258 247.946 C 161.258 252.397 163.649 256 166.598 256 L 168.778 256 C 171.728 256 174.111 252.397 174.111 247.946 L 174.111 230.691 L 161.258 230.691 Z  M 139.034 230.691 L 139.034 247.946 C 139.034 252.397 141.426 256 144.374 256 L 146.556 256 C 149.505 256 151.895 252.397 151.895 247.946 L 151.895 230.691 L 139.034 230.691 Z  M 116.811 230.691 L 116.811 247.946 C 116.811 252.397 119.21 256 122.151 256 L 124.332 256 C 127.273 256 129.664 252.397 129.664 247.946 L 129.664 230.691 L 116.811 230.691 Z  M 94.588 230.691 L 94.588 247.946 C 94.588 252.397 96.979 256 99.919 256 L 102.109 256 C 105.057 256 107.441 252.397 107.441 247.946 L 107.441 230.691 L 94.588 230.691 Z  M 72.365 230.691 L 72.365 247.946 C 72.365 252.397 74.747 256 77.705 256 L 79.885 256 C 82.826 256 85.217 252.397 85.217 247.946 L 85.217 230.691 L 72.365 230.691 Z  M 50.141 230.691 L 50.141 247.946 C 50.141 252.397 52.533 256 55.481 256 L 57.654 256 C 60.595 256 62.993 252.397 62.993 247.946 L 62.993 230.691 L 50.141 230.691 Z " fill="url(#_lgradient_85)"/></g><g><linearGradient id="_lgradient_86" x1="0" y1="0.5" x2="1" y2="0.5" gradientTransform="matrix(25.309,0,0,146.193,0,52.993)" gradientUnits="userSpaceOnUse"><stop offset="0%" stop-opacity="1" style="stop-color:rgb(192,194,196)"/><stop offset="100%" stop-opacity="1" style="stop-color:rgb(108,110,112)"/></linearGradient><path d=" M 8.053 52.993 C 3.602 52.993 0 55.385 0 58.333 L 0 60.506 C 0 63.447 3.602 65.845 8.053 65.845 L 25.309 65.845 L 25.309 52.993 L 8.053 52.993 Z  M 8.053 75.216 C 3.602 75.216 0 77.599 0 80.556 L 0 82.737 C 0 85.678 3.602 88.069 8.053 88.069 L 25.309 88.069 L 25.309 75.216 L 8.053 75.216 Z  M 8.053 97.44 C 3.602 97.44 0 99.831 0 102.771 L 0 104.96 C 0 107.91 3.602 110.293 8.053 110.293 L 25.309 110.293 L 25.309 97.44 L 8.053 97.44 Z  M 8.053 119.663 C 3.602 119.663 0 122.062 0 125.003 L 0 127.185 C 0 130.124 3.602 132.516 8.053 132.516 L 25.309 132.516 L 25.309 119.663 L 8.053 119.663 Z  M 8.053 141.886 C 3.602 141.886 0 144.278 0 147.226 L 0 149.408 C 0 152.356 3.602 154.747 8.053 154.747 L 25.309 154.747 L 25.309 141.886 L 8.053 141.886 Z  M 8.053 164.11 C 3.602 164.11 0 166.501 0 169.45 L 0 171.63 C 0 174.58 3.602 176.962 8.053 176.962 L 25.309 176.962 L 25.309 164.11 L 8.053 164.11 Z  M 8.053 186.334 C 3.602 186.334 0 188.724 0 191.673 L 0 193.846 C 0 196.803 3.602 199.186 8.053 199.186 L 25.309 199.186 L 25.309 186.334 L 8.053 186.334 Z " fill="url(#_lgradient_86)"/></g></g></g></svg>