<?xml version="1.0" encoding="UTF-8" standalone="no"?><!-- Generator: Gravit.io --><svg xmlns="http://www.w3.org/2000/svg" xmlns:xlink="http://www.w3.org/1999/xlink" style="isolation:isolate" viewBox="0 0 200.181 256" width="200.181pt" height="256pt"><defs><clipPath id="_clipPath_fs9sYF63GNrmkhmeU0p7aZCeh836Aj1V"><rect width="200.181" height="256"/></clipPath></defs><g clip-path="url(#_clipPath_fs9sYF63GNrmkhmeU0p7aZCeh836Aj1V)"><g><g><path d=" M 61.729 142.663 L 0 142.663 L 0 35.103 L 61.729 35.103 L 61.729 142.663 Z " fill="rgb(0,0,0)"/></g><g><linearGradient id="_lgradient_90" x1="0" y1="0.5" x2="1" y2="0.5" gradientTransform="matrix(95.233,0,0,255.64,0.001,0)" gradientUnits="userSpaceOnUse"><stop offset="0%" stop-opacity="1" style="stop-color:rgb(108,110,112)"/><stop offset="53.6%" stop-opacity="1" style="stop-color:rgb(63,62,64)"/><stop offset="100%" stop-opacity="1" style="stop-color:rgb(63,62,64)"/></linearGradient><path d=" M 1.898 0 C 0.85 0 0.001 0.843 0.001 1.885 L 0.001 35.102 L 61.729 35.102 L 61.729 41.48 L 0.001 41.48 L 0.001 68.831 L 61.729 68.831 L 61.729 75.211 L 0.001 75.211 L 0.001 102.561 L 61.729 102.561 L 61.729 108.933 L 0.001 108.933 L 0.001 136.29 L 61.729 136.29 L 61.729 142.663 L 0.001 142.663 L 0.001 253.743 C 0.001 254.798 0.85 255.64 1.898 255.64 L 93.336 255.64 C 94.385 255.64 95.234 254.798 95.234 253.743 L 95.234 1.885 C 95.234 0.843 94.385 0 93.336 0 L 1.898 0 Z " fill="url(#_lgradient_90)"/></g><g><path d=" M 95.234 41.481 L 63.789 41.481 L 63.789 35.103 L 95.234 35.103 L 95.234 41.481 Z " fill="rgb(38,170,225)"/></g><g><path d=" M 95.234 75.21 L 63.789 75.21 L 63.789 68.831 L 95.234 68.831 L 95.234 75.21 Z " fill="rgb(38,170,225)"/></g><g><path d=" M 95.234 108.933 L 63.789 108.933 L 63.789 102.561 L 95.234 102.561 L 95.234 108.933 Z " fill="rgb(38,170,225)"/></g><g><path d=" M 95.234 142.663 L 63.789 142.663 L 63.789 136.29 L 95.234 136.29 L 95.234 142.663 Z " fill="rgb(38,170,225)"/></g><g><path d=" M 95.234 246.927 L 0.001 246.927 L 0.001 240.561 L 95.234 240.561 L 95.234 246.927 Z " fill="rgb(0,0,0)"/></g><g><path d=" M 130.801 221.001 C 128.729 221.001 126.657 220.971 124.586 221.009 C 122.408 221.05 120.691 222.522 120.793 224.404 C 120.91 226.549 122.406 227.821 124.33 227.914 C 128.529 228.118 132.75 228.073 136.955 227.917 C 139.228 227.834 140.449 226.23 140.244 224.099 C 140.029 221.868 138.649 220.98 136.519 221 C 134.613 221.018 132.707 221.004 130.801 221.001 Z  M 130.513 214.923 L 130.513 214.914 C 131.511 214.91 132.508 214.912 133.505 214.909 C 134.586 214.906 135.672 214.967 136.745 214.877 C 138.982 214.69 140.384 213.219 140.254 211.189 C 140.112 208.957 138.788 207.978 136.626 207.978 C 132.72 207.979 128.813 207.952 124.907 207.978 C 122.423 207.994 120.805 209.334 120.761 211.317 C 120.72 213.224 122.427 214.81 124.779 214.907 C 126.687 214.985 128.602 214.923 130.513 214.923 Z  M 130.711 234.015 L 130.711 234.01 C 128.631 234.007 126.552 233.996 124.472 234.01 C 122.403 234.024 121.239 235.274 120.824 237.107 C 120.438 238.812 122.008 240.812 123.992 240.886 C 128.395 241.05 132.815 241.087 137.213 240.868 C 139.067 240.775 140.443 239.483 140.258 237.325 C 140.075 235.198 138.935 233.994 136.693 234.012 C 134.699 234.028 132.705 234.015 130.711 234.015 Z  M 123.529 190.499 C 122.609 190.499 121.768 190.632 120.983 190.478 C 114.484 189.209 107.853 188.361 101.535 186.473 C 91.436 183.455 81.889 179.212 75.498 169.251 C 75.135 170.717 74.646 171.771 74.657 172.819 C 74.69 176.027 76.516 178.46 78.614 180.628 C 83.396 185.567 89.349 188.693 95.7 191.044 C 100.09 192.668 104.609 193.947 109.138 195.402 C 108.386 196.793 107.503 198.119 106.93 199.568 C 106.322 201.106 105.437 201.209 104.007 200.84 C 95.028 198.521 86.515 195.243 79.104 188.875 C 79.054 193.17 80.996 196.139 83.789 198.594 C 88.34 202.593 94.042 204.25 99.644 206.077 C 100.85 206.47 102.06 206.856 103.328 207.264 C 103.002 208.102 102.81 208.647 102.582 209.176 C 101.22 212.337 101.211 212.357 97.89 211.401 C 91.99 209.704 86.371 207.376 80.89 203.312 C 82.762 213.293 90.554 215.284 98.109 217.86 C 93.938 222.488 89.265 221.473 84.095 219.523 C 86.375 223.216 89.432 224.716 93.071 224.79 C 97.641 224.882 101.898 223.891 104.298 219.378 C 107.454 213.444 110.635 207.519 113.616 201.496 C 115.398 197.895 117.455 195.33 121.978 197 C 122.572 197.219 123.293 197.096 124.004 197.134 C 124.289 197.756 124.533 198.368 124.841 198.946 C 126.092 201.292 128.142 202.51 130.718 202.471 C 133.198 202.433 135.329 201.255 136.263 198.896 C 136.881 197.334 137.724 196.911 139.223 196.998 C 139.954 197.04 140.715 196.862 141.438 196.683 C 143.49 196.174 144.879 196.802 145.89 198.737 C 149.268 205.207 152.935 211.533 156.126 218.092 C 158.492 222.955 162.429 224.796 167.366 224.857 C 171.191 224.903 174.523 223.486 177.07 219.537 C 171.731 221.494 167.082 222.465 163.085 217.814 C 170.787 215.332 178.441 213.18 180.158 204.276 C 175.056 206.5 170.049 209.143 164.744 210.867 C 159.087 212.705 160.54 213.397 158.005 207.643 C 157.952 207.524 157.998 207.361 157.998 207.271 C 161.621 206.021 165.257 204.879 168.807 203.512 C 172.623 202.043 176.303 200.26 178.976 196.991 C 180.805 194.755 182.231 192.333 182.091 188.846 C 175.822 194.261 168.854 197.428 161.39 199.629 C 155.315 201.42 155.319 201.44 152.32 195.976 C 152.208 195.773 152.202 195.511 152.121 195.174 C 152.949 194.954 153.744 194.737 154.542 194.534 C 163.033 192.368 171.215 189.457 178.373 184.241 C 181.897 181.674 185.119 178.764 186.374 174.349 C 186.844 172.696 187.076 170.983 185.321 169.743 C 177.138 181.417 149.781 193.063 137.402 190.207 C 137.533 187.997 137.664 185.789 137.798 183.527 C 138.884 183.365 139.781 183.193 140.687 183.103 C 152.545 181.932 163.881 178.989 174.122 172.716 C 178.688 169.919 182.957 166.604 184.325 161.002 C 184.623 159.784 184.056 158.356 183.833 156.597 C 171.808 171.693 155.318 174.69 138.41 177.1 L 138.41 169.81 C 141.198 169.381 143.749 169.055 146.273 168.588 C 155.41 166.897 164.138 164.105 171.72 158.524 C 174.683 156.343 177.357 153.816 178.394 150.065 C 178.853 148.403 178.835 146.865 177.218 145.709 C 170.306 155.356 148.14 165.108 138.67 162.673 C 138.87 160.403 139.072 158.112 139.28 155.754 C 139.861 155.689 140.264 155.654 140.664 155.598 C 149.206 154.421 157.422 152.244 164.713 147.427 C 167.579 145.533 170.177 143.314 171.334 139.883 C 171.923 138.135 171.951 136.511 170.352 135.258 C 162.343 145.01 151.247 147.375 139.842 149.255 L 139.842 141.991 C 143.074 141.317 146.108 140.842 149.051 140.034 C 153.318 138.863 157.403 137.187 160.673 134.066 C 161.969 132.83 163.391 131.449 162.043 129.493 C 140.974 138.155 120.02 138.08 98.71 129.702 C 98.914 131.092 99.103 132.576 99.939 133.421 C 101.375 134.872 103.052 136.345 104.915 137.065 C 110.124 139.079 115.48 140.712 121.376 142.697 C 121.464 144.207 121.6 146.562 121.762 149.351 C 109.913 147.343 98.736 145.001 90.46 134.762 C 90.11 136.319 89.396 137.596 89.698 138.553 C 90.301 140.47 91.041 142.707 92.477 143.921 C 95.483 146.462 98.725 149.066 102.326 150.485 C 108.59 152.953 115.199 154.543 122.094 156.632 L 122.094 163.334 C 107.564 161.172 93.526 158.369 83.52 145.53 C 83.206 146.624 82.527 147.689 82.732 148.541 C 83.186 150.424 83.752 152.439 84.862 153.974 C 88.444 158.927 93.741 161.636 99.181 163.998 C 106.611 167.224 114.472 168.82 122.662 169.725 C 122.837 172.161 123.006 174.502 123.181 176.94 C 113.48 176.167 104.422 174.288 95.814 170.568 C 89.751 167.948 83.97 164.866 79.806 159.483 C 79.181 158.676 78.604 157.831 78.004 157.004 C 77.687 157.052 77.37 157.1 77.052 157.148 C 77.036 158.677 76.47 160.509 77.112 161.674 C 78.644 164.45 80.341 167.379 82.691 169.416 C 90.552 176.229 100.198 179.367 110.167 181.52 C 114.523 182.461 118.976 182.955 123.529 183.675 L 123.529 190.499 Z  M 172.641 116.625 C 175.012 117.294 177.436 117.816 179.745 118.655 C 191.783 123.029 200.108 134.777 200.134 147.567 C 200.187 173.293 200.206 199.019 200.133 224.745 C 200.083 242.064 185.981 255.965 168.571 255.985 C 143.595 256.013 118.619 255.993 93.642 255.992 C 74.908 255.992 61.034 242.491 60.926 223.783 C 60.782 198.724 60.836 173.663 60.91 148.603 C 60.963 130.663 74.28 118.807 87.64 117.041 C 87.845 117.013 88.021 116.769 88.21 116.625 L 172.641 116.625 Z " fill="rgb(35,31,32)"/></g><g><path d=" M 123.529 190.499 L 123.529 183.674 C 118.977 182.955 114.523 182.461 110.167 181.52 C 100.198 179.367 90.552 176.229 82.691 169.416 C 80.341 167.379 78.644 164.45 77.113 161.673 C 76.47 160.508 77.036 158.677 77.052 157.148 C 77.37 157.1 77.687 157.052 78.005 157.003 C 78.604 157.831 79.181 158.675 79.806 159.483 C 83.971 164.866 89.752 167.948 95.814 170.568 C 104.422 174.288 113.481 176.167 123.181 176.939 C 123.006 174.502 122.838 172.161 122.663 169.725 C 114.473 168.82 106.611 167.224 99.181 163.998 C 93.741 161.636 88.444 158.927 84.862 153.974 C 83.752 152.439 83.186 150.423 82.733 148.541 C 82.527 147.689 83.207 146.624 83.52 145.53 C 93.526 158.369 107.564 161.172 122.094 163.334 L 122.094 156.632 C 115.199 154.543 108.59 152.952 102.327 150.484 C 98.725 149.065 95.483 146.462 92.478 143.921 C 91.041 142.707 90.302 140.469 89.698 138.553 C 89.396 137.596 90.11 136.319 90.46 134.762 C 98.736 145.001 109.913 147.342 121.762 149.351 C 121.6 146.561 121.464 144.207 121.376 142.697 C 115.481 140.712 110.124 139.078 104.915 137.065 C 103.052 136.345 101.375 134.872 99.939 133.421 C 99.104 132.576 98.914 131.092 98.711 129.702 C 120.02 138.079 140.975 138.155 162.043 129.493 C 163.392 131.449 161.969 132.829 160.674 134.066 C 157.403 137.186 153.319 138.862 149.051 140.034 C 146.108 140.841 143.075 141.317 139.842 141.99 L 139.842 149.255 C 151.247 147.375 162.343 145.01 170.352 135.258 C 171.951 136.511 171.923 138.135 171.334 139.883 C 170.177 143.314 167.579 145.533 164.713 147.427 C 157.422 152.244 149.206 154.421 140.664 155.598 C 140.264 155.653 139.861 155.689 139.28 155.754 C 139.072 158.111 138.87 160.403 138.67 162.673 C 148.141 165.108 170.306 155.355 177.218 145.709 C 178.835 146.864 178.854 148.403 178.394 150.065 C 177.357 153.816 174.683 156.342 171.72 158.524 C 164.138 164.105 155.41 166.896 146.273 168.588 C 143.749 169.055 141.198 169.381 138.411 169.81 L 138.411 177.1 C 155.319 174.69 171.808 171.692 183.833 156.597 C 184.056 158.355 184.623 159.784 184.326 161.001 C 182.957 166.604 178.688 169.919 174.122 172.716 C 163.881 178.989 152.545 181.932 140.687 183.103 C 139.782 183.192 138.885 183.365 137.798 183.527 C 137.664 185.788 137.534 187.997 137.403 190.207 C 149.781 193.063 177.138 181.417 185.322 169.743 C 187.077 170.983 186.844 172.696 186.374 174.349 C 185.119 178.764 181.898 181.673 178.374 184.241 C 171.215 189.457 163.033 192.368 154.542 194.533 C 153.744 194.737 152.949 194.954 152.122 195.173 C 152.202 195.511 152.209 195.772 152.32 195.976 C 155.319 201.44 155.316 201.42 161.39 199.629 C 168.854 197.428 175.822 194.261 182.091 188.845 C 182.231 192.333 180.805 194.755 178.976 196.991 C 176.303 200.26 172.623 202.043 168.807 203.512 C 165.258 204.879 161.621 206.021 157.998 207.271 C 157.998 207.361 157.953 207.523 158.005 207.642 C 160.54 213.397 159.087 212.705 164.744 210.867 C 170.049 209.143 175.056 206.499 180.158 204.276 C 178.441 213.18 170.787 215.332 163.085 217.814 C 167.083 222.465 171.731 221.493 177.07 219.537 C 174.523 223.485 171.192 224.903 167.367 224.856 C 162.43 224.796 158.492 222.955 156.126 218.092 C 152.935 211.533 149.268 205.207 145.89 198.737 C 144.88 196.802 143.491 196.174 141.438 196.683 C 140.716 196.862 139.954 197.039 139.223 196.997 C 137.724 196.911 136.881 197.334 136.263 198.896 C 135.33 201.255 133.198 202.433 130.719 202.471 C 128.142 202.51 126.093 201.292 124.842 198.946 C 124.533 198.368 124.289 197.756 124.005 197.134 C 123.293 197.096 122.573 197.219 121.978 197 C 117.455 195.33 115.398 197.894 113.616 201.496 C 110.635 207.519 107.455 213.444 104.298 219.378 C 101.898 223.891 97.642 224.882 93.072 224.789 C 89.433 224.716 86.376 223.216 84.095 219.523 C 89.265 221.473 93.938 222.488 98.109 217.86 C 90.555 215.284 82.762 213.293 80.89 203.312 C 86.371 207.376 91.99 209.703 97.89 211.401 C 101.212 212.357 101.22 212.337 102.582 209.176 C 102.81 208.647 103.002 208.102 103.328 207.264 C 102.06 206.856 100.851 206.47 99.644 206.076 C 94.043 204.25 88.34 202.593 83.79 198.594 C 80.996 196.139 79.055 193.17 79.105 188.875 C 86.515 195.242 95.028 198.521 104.007 200.84 C 105.437 201.209 106.323 201.106 106.931 199.568 C 107.503 198.119 108.386 196.793 109.138 195.402 C 104.609 193.947 100.091 192.668 95.7 191.043 C 89.349 188.693 83.396 185.567 78.615 180.627 C 76.516 178.46 74.69 176.027 74.657 172.818 C 74.646 171.77 75.135 170.717 75.499 169.251 C 81.889 179.212 91.436 183.455 101.536 186.473 C 107.854 188.361 114.484 189.209 120.983 190.478 C 121.768 190.631 122.61 190.499 123.529 190.499 Z " fill="rgb(255,255,255)"/></g><g><path d=" M 130.711 234.015 C 132.705 234.015 134.699 234.027 136.693 234.012 C 138.935 233.994 140.075 235.198 140.258 237.324 C 140.443 239.482 139.068 240.775 137.213 240.867 C 132.815 241.087 128.395 241.049 123.992 240.885 C 122.008 240.812 120.438 238.811 120.824 237.107 C 121.239 235.273 122.403 234.024 124.472 234.01 C 126.552 233.995 128.631 234.007 130.711 234.007 L 130.711 234.015 Z " fill="rgb(255,255,255)"/></g><g><path d=" M 130.514 214.923 C 128.602 214.923 126.688 214.986 124.78 214.907 C 122.428 214.81 120.72 213.224 120.762 211.317 C 120.805 209.335 122.424 207.995 124.908 207.978 C 128.814 207.952 132.72 207.979 136.627 207.979 C 138.789 207.978 140.113 208.958 140.255 211.189 C 140.384 213.219 138.983 214.69 136.746 214.877 C 135.673 214.968 134.587 214.906 133.506 214.91 C 132.509 214.913 131.511 214.91 130.514 214.91 L 130.514 214.923 Z " fill="rgb(255,255,255)"/></g><g><path d=" M 130.801 221.002 C 132.707 221.003 134.613 221.018 136.519 221 C 138.649 220.98 140.029 221.867 140.244 224.1 C 140.449 226.23 139.228 227.833 136.955 227.917 C 132.75 228.072 128.529 228.118 124.33 227.913 C 122.406 227.82 120.91 226.548 120.793 224.404 C 120.691 222.521 122.408 221.049 124.586 221.009 C 126.657 220.97 128.729 221.001 130.801 221.002 Z " fill="rgb(255,255,255)"/></g></g></g></svg>