<?xml version="1.0" encoding="UTF-8" standalone="no"?><!-- Generator: Gravit.io --><svg xmlns="http://www.w3.org/2000/svg" xmlns:xlink="http://www.w3.org/1999/xlink" style="isolation:isolate" viewBox="0 0 256 197.022" width="256pt" height="197.022pt"><defs><clipPath id="_clipPath_L3S2Sh8cOMH8NWpLBkM1Uliu5bb2KxUT"><rect width="256" height="197.022"/></clipPath></defs><g clip-path="url(#_clipPath_L3S2Sh8cOMH8NWpLBkM1Uliu5bb2KxUT)"><g><g><path d=" M 0 0 L 0 170.595 L 99.962 170.595 L 99.962 185.059 L 70.375 185.059 L 70.375 197.022 L 185.624 197.022 L 185.624 185.059 L 156.026 185.059 L 156.026 170.595 L 256 170.595 L 256 0 L 0 0 Z " fill="rgb(1,3,5)"/></g><g><linearGradient id="_lgradient_91" x1="0" y1="0.5" x2="0.9396264615452505" y2="0.8422018596734269" gradientTransform="matrix(241.158,0,0,157.225,7.421,6.751)" gradientUnits="userSpaceOnUse"><stop offset="0%" stop-opacity="1" style="stop-color:rgb(30,144,206)"/><stop offset="22.15399999999999%" stop-opacity="1" style="stop-color:rgb(110,190,233)"/><stop offset="66.5984%" stop-opacity="1" style="stop-color:rgb(26,142,205)"/><stop offset="100%" stop-opacity="1" style="stop-color:rgb(26,142,205)"/></linearGradient><path d=" M 248.579 6.751 L 7.421 6.751 L 7.421 163.976 L 248.579 163.976 L 248.579 6.751 Z " fill="url(#_lgradient_91)"/></g><g><path d=" M 248.579 83.965 L 129.399 83.965 L 129.399 6.751 L 126.6 6.751 L 126.6 83.965 L 7.421 83.965 L 7.421 86.763 L 126.6 86.763 L 126.6 163.976 L 129.399 163.976 L 129.399 86.763 L 248.579 86.763 L 248.579 83.965 Z " fill="rgb(255,255,255)"/></g><g><path d=" M 234.883 24.206 C 230.798 18.819 225.726 14.716 218.57 14.719 C 212.943 14.722 208.422 17.001 204.976 20.99 C 203.478 20.99 202.193 20.996 201.932 21.169 C 201.442 21.497 201.987 23.404 200.95 24.004 C 199.915 24.603 198.38 24.876 198.276 25.421 C 198.171 25.966 198.334 27.22 197.899 27.656 C 197.819 27.736 197.788 27.891 197.792 28.093 C 194.904 30.002 194.36 32.355 195.653 36.144 C 196.263 37.933 197.109 39.668 197.47 41.501 C 197.661 42.476 197.356 43.965 196.688 44.551 C 196.2 44.977 194.695 44.448 193.75 44.077 C 193.054 43.803 192.509 43.115 191.928 42.578 C 190.824 41.557 190.587 40.788 192.141 39.746 C 192.876 39.253 193.409 37.718 193.224 36.823 C 193.07 36.081 191.778 35.154 190.906 35.057 C 187.989 34.731 185.393 35.8 183.272 37.794 C 182.002 38.987 181.851 40.984 182.933 42.35 C 184.027 43.73 185.37 44.911 186.503 46.263 C 186.921 46.762 187.056 47.498 187.32 48.127 C 186.631 48.253 185.816 48.68 185.279 48.451 C 183.562 47.719 181.754 46.98 180.334 45.814 C 177.165 43.215 175.269 39.719 174.529 35.696 C 173.907 32.323 171.955 30.22 168.685 29.756 C 165.691 29.331 162.614 29.312 159.581 29.392 C 156.861 29.463 154.699 29.176 153.638 26.114 C 153.578 25.941 153.487 25.78 153.373 25.626 C 152.19 24.038 149.698 24.382 148.782 26.138 C 148.695 26.305 148.623 26.476 148.571 26.653 C 148.139 28.118 148.173 29.795 148.342 31.345 C 148.564 33.375 149.777 34.88 151.792 35.432 C 154.179 36.086 156.66 36.418 159.016 37.157 C 158.916 37.204 158.817 37.248 158.717 37.3 C 156.037 38.703 153.529 40.483 151.112 42.318 C 148.945 43.964 147.023 44.993 144.372 43.126 C 144.224 43.021 144.056 42.943 143.873 42.885 C 141.986 42.285 140.163 44.019 140.445 45.98 C 140.471 46.166 140.513 46.347 140.573 46.52 C 141.077 47.962 142.084 49.305 143.126 50.464 C 144.491 51.983 146.355 52.498 148.313 51.769 C 150.653 50.9 152.879 49.706 155.245 48.932 C 156.018 48.68 156.87 48.529 157.717 48.493 C 155.086 53.868 156.814 59.015 160.404 63.686 C 166.988 72.258 176.014 76.356 186.754 76.53 C 192.307 76.62 196.992 74.329 200.625 70.168 C 202.947 67.508 205.074 64.664 207.121 61.783 C 209.413 58.557 212.191 56.985 216.314 57.615 C 220.824 58.303 224.854 56.866 228.328 53.853 C 241.235 42.664 239.651 30.495 234.883 24.206 Z " fill="rgb(255,255,255)"/></g><g><path d=" M 234.883 104.78 C 230.798 99.393 225.726 95.29 218.57 95.294 C 212.943 95.297 208.422 97.575 204.976 101.564 C 203.478 101.564 202.193 101.57 201.932 101.744 C 201.442 102.071 201.987 103.979 200.95 104.578 C 199.915 105.177 198.38 105.451 198.276 105.997 C 198.171 106.541 198.334 107.795 197.899 108.231 C 197.819 108.311 197.788 108.467 197.792 108.669 C 194.904 110.577 194.36 112.929 195.653 116.719 C 196.263 118.507 197.109 120.243 197.47 122.077 C 197.661 123.051 197.356 124.539 196.688 125.125 C 196.2 125.551 194.695 125.023 193.75 124.651 C 193.054 124.379 192.509 123.689 191.928 123.153 C 190.824 122.133 190.587 121.363 192.141 120.321 C 192.876 119.829 193.409 118.293 193.224 117.397 C 193.07 116.655 191.778 115.729 190.906 115.633 C 187.989 115.305 185.393 116.375 183.272 118.369 C 182.002 119.561 181.851 121.559 182.933 122.925 C 184.027 124.305 185.37 125.485 186.503 126.839 C 186.921 127.337 187.056 128.073 187.32 128.701 C 186.631 128.829 185.816 129.255 185.279 129.025 C 183.562 128.293 181.754 127.555 180.334 126.389 C 177.165 123.789 175.269 120.295 174.529 116.271 C 173.907 112.899 171.955 110.795 168.685 110.331 C 165.691 109.905 162.614 109.887 159.581 109.967 C 156.861 110.039 154.699 109.751 153.638 106.689 C 153.578 106.517 153.487 106.355 153.373 106.201 C 152.19 104.612 149.698 104.957 148.782 106.713 C 148.695 106.881 148.623 107.051 148.571 107.227 C 148.139 108.693 148.173 110.371 148.342 111.919 C 148.564 113.949 149.777 115.455 151.792 116.007 C 154.179 116.661 156.66 116.993 159.016 117.731 C 158.916 117.779 158.817 117.823 158.717 117.875 C 156.037 119.277 153.529 121.057 151.112 122.893 C 148.945 124.539 147.023 125.567 144.372 123.701 C 144.224 123.595 144.056 123.517 143.873 123.459 C 141.986 122.859 140.163 124.593 140.445 126.555 C 140.471 126.741 140.513 126.921 140.573 127.095 C 141.077 128.537 142.084 129.879 143.126 131.039 C 144.491 132.557 146.355 133.073 148.313 132.345 C 150.653 131.475 152.879 130.281 155.245 129.507 C 156.018 129.255 156.87 129.105 157.717 129.069 C 155.086 134.443 156.814 139.591 160.404 144.261 C 166.988 152.833 176.014 156.931 186.754 157.105 C 192.307 157.195 196.992 154.903 200.625 150.743 C 202.947 148.083 205.074 145.239 207.121 142.359 C 209.413 139.133 212.191 137.559 216.314 138.189 C 220.824 138.879 224.854 137.441 228.328 134.427 C 241.235 123.239 239.651 111.069 234.883 104.78 Z " fill="rgb(255,255,255)"/></g><g><path d=" M 110.07 24.206 C 105.985 18.819 100.913 14.716 93.757 14.719 C 88.13 14.722 83.609 17.001 80.163 20.99 C 78.665 20.99 77.38 20.996 77.119 21.169 C 76.629 21.497 77.174 23.404 76.138 24.004 C 75.102 24.603 73.567 24.876 73.463 25.421 C 73.358 25.966 73.522 27.22 73.086 27.656 C 73.005 27.736 72.976 27.891 72.98 28.093 C 70.091 30.002 69.547 32.355 70.84 36.144 C 71.45 37.933 72.296 39.668 72.657 41.501 C 72.848 42.476 72.543 43.965 71.875 44.551 C 71.387 44.977 69.883 44.448 68.938 44.077 C 68.241 43.803 67.696 43.115 67.115 42.578 C 66.012 41.557 65.774 40.788 67.328 39.746 C 68.064 39.253 68.596 37.718 68.411 36.823 C 68.258 36.081 66.965 35.154 66.094 35.057 C 63.176 34.731 60.58 35.8 58.459 37.794 C 57.19 38.987 57.038 40.984 58.12 42.35 C 59.214 43.73 60.557 44.911 61.691 46.263 C 62.109 46.762 62.242 47.498 62.507 48.127 C 61.818 48.253 61.003 48.68 60.466 48.451 C 58.749 47.719 56.941 46.98 55.521 45.814 C 52.353 43.215 50.456 39.719 49.716 35.696 C 49.094 32.323 47.142 30.22 43.872 29.756 C 40.878 29.331 37.801 29.312 34.768 29.392 C 32.048 29.463 29.887 29.176 28.825 26.114 C 28.765 25.941 28.674 25.78 28.56 25.626 C 27.377 24.038 24.886 24.382 23.969 26.138 C 23.882 26.305 23.81 26.476 23.758 26.653 C 23.326 28.118 23.36 29.795 23.529 31.345 C 23.751 33.375 24.964 34.88 26.979 35.432 C 29.366 36.086 31.848 36.418 34.203 37.157 C 34.104 37.204 34.004 37.248 33.904 37.3 C 31.225 38.703 28.716 40.483 26.299 42.318 C 24.132 43.964 22.21 44.993 19.56 43.126 C 19.411 43.021 19.243 42.943 19.061 42.885 C 17.173 42.285 15.351 44.019 15.632 45.98 C 15.658 46.166 15.699 46.347 15.76 46.52 C 16.265 47.962 17.272 49.305 18.313 50.464 C 19.678 51.983 21.542 52.498 23.5 51.769 C 25.84 50.9 28.066 49.706 30.433 48.932 C 31.205 48.68 32.057 48.529 32.904 48.493 C 30.274 53.868 32.001 59.015 35.59 63.686 C 42.175 72.258 51.201 76.356 61.941 76.53 C 67.494 76.62 72.179 74.329 75.813 70.168 C 78.134 67.508 80.262 64.664 82.308 61.783 C 84.6 58.557 87.378 56.985 91.501 57.615 C 96.011 58.303 100.041 56.866 103.515 53.853 C 116.422 42.664 114.838 30.495 110.07 24.206 Z " fill="rgb(255,255,255)"/></g><g><path d=" M 110.07 104.78 C 105.985 99.393 100.913 95.29 93.757 95.294 C 88.13 95.297 83.609 97.575 80.163 101.564 C 78.665 101.564 77.38 101.57 77.119 101.744 C 76.629 102.071 77.174 103.979 76.138 104.578 C 75.102 105.177 73.567 105.451 73.463 105.997 C 73.358 106.541 73.522 107.795 73.086 108.231 C 73.005 108.311 72.976 108.467 72.98 108.669 C 70.091 110.577 69.547 112.929 70.84 116.719 C 71.45 118.507 72.296 120.243 72.657 122.077 C 72.848 123.051 72.543 124.539 71.875 125.125 C 71.387 125.551 69.883 125.023 68.938 124.651 C 68.241 124.379 67.696 123.689 67.115 123.153 C 66.012 122.133 65.774 121.363 67.328 120.321 C 68.064 119.829 68.596 118.293 68.411 117.397 C 68.258 116.655 66.965 115.729 66.094 115.633 C 63.176 115.305 60.58 116.375 58.459 118.369 C 57.19 119.561 57.038 121.559 58.12 122.925 C 59.214 124.305 60.557 125.485 61.691 126.839 C 62.109 127.337 62.242 128.073 62.507 128.701 C 61.818 128.829 61.003 129.255 60.466 129.025 C 58.749 128.293 56.941 127.555 55.521 126.389 C 52.353 123.789 50.456 120.295 49.716 116.271 C 49.094 112.899 47.142 110.795 43.872 110.331 C 40.878 109.905 37.801 109.887 34.768 109.967 C 32.048 110.039 29.887 109.751 28.825 106.689 C 28.765 106.517 28.674 106.355 28.56 106.201 C 27.377 104.612 24.886 104.957 23.969 106.713 C 23.882 106.881 23.81 107.051 23.758 107.227 C 23.326 108.693 23.36 110.371 23.529 111.919 C 23.751 113.949 24.964 115.455 26.979 116.007 C 29.366 116.661 31.848 116.993 34.203 117.731 C 34.104 117.779 34.004 117.823 33.904 117.875 C 31.225 119.277 28.716 121.057 26.299 122.893 C 24.132 124.539 22.21 125.567 19.56 123.701 C 19.411 123.595 19.243 123.517 19.061 123.459 C 17.173 122.859 15.351 124.593 15.632 126.555 C 15.658 126.741 15.699 126.921 15.76 127.095 C 16.265 128.537 17.272 129.879 18.313 131.039 C 19.678 132.557 21.542 133.073 23.5 132.345 C 25.84 131.475 28.066 130.281 30.433 129.507 C 31.205 129.255 32.057 129.105 32.904 129.069 C 30.274 134.443 32.001 139.591 35.59 144.261 C 42.175 152.833 51.201 156.931 61.941 157.105 C 67.494 157.195 72.179 154.903 75.813 150.743 C 78.134 148.083 80.262 145.239 82.308 142.359 C 84.6 139.133 87.378 137.559 91.501 138.189 C 96.011 138.879 100.041 137.441 103.515 134.427 C 116.422 123.239 114.838 111.069 110.07 104.78 Z " fill="rgb(255,255,255)"/></g></g></g></svg>