<?xml version="1.0" encoding="UTF-8" standalone="no"?><!-- Generator: Gravit.io --><svg xmlns="http://www.w3.org/2000/svg" xmlns:xlink="http://www.w3.org/1999/xlink" style="isolation:isolate" viewBox="0 0 256 197.028" width="256pt" height="197.028pt"><defs><clipPath id="_clipPath_MGexTdcWlEaCQ7gIbq4Kzw3RnoRnJ1ay"><rect width="256" height="197.028"/></clipPath></defs><g clip-path="url(#_clipPath_MGexTdcWlEaCQ7gIbq4Kzw3RnoRnJ1ay)"><g><g><path d=" M 0 0 L 0 170.6 L 99.961 170.6 L 99.961 185.075 L 70.376 185.075 L 70.376 197.028 L 185.646 197.028 L 185.646 185.075 L 156.028 185.075 L 156.028 170.6 L 256 170.6 L 256 0 L 0 0 Z " fill="rgb(1,3,5)"/></g><g><linearGradient id="_lgradient_101" x1="0" y1="0.5" x2="0.9396349171031402" y2="0.8421786412980432" gradientTransform="matrix(241.175,0,0,157.224,7.423,6.754)" gradientUnits="userSpaceOnUse"><stop offset="0%" stop-opacity="1" style="stop-color:rgb(160,162,165)"/><stop offset="34.93039999999999%" stop-opacity="1" style="stop-color:rgb(157,159,161)"/><stop offset="86.36359999999999%" stop-opacity="1" style="stop-color:rgb(219,220,222)"/><stop offset="100%" stop-opacity="1" style="stop-color:rgb(163,165,168)"/></linearGradient><path d=" M 248.598 6.754 L 7.423 6.754 L 7.423 163.978 L 248.598 163.978 L 248.598 6.754 Z " fill="url(#_lgradient_101)"/></g><g><linearGradient id="_lgradient_102" x1="0" y1="0.5" x2="0.9396779657461934" y2="0.8420604050326428" gradientTransform="matrix(213.828,0,0,77.426,21.086,48.167)" gradientUnits="userSpaceOnUse"><stop offset="5.60963441407539%" stop-opacity="1" style="stop-color:rgb(26,142,205)"/><stop offset="28.78663441407539%" stop-opacity="1" style="stop-color:rgb(110,190,233)"/><stop offset="67.28883441407541%" stop-opacity="1" style="stop-color:rgb(26,142,205)"/><stop offset="100%" stop-opacity="1" style="stop-color:rgb(26,142,205)"/></linearGradient><path d=" M 116.046 125.31 L 234.914 125.31 L 234.914 48.167 L 116.046 48.167 L 116.046 125.31 Z  M 44.571 63.537 L 74.724 63.537 L 59.651 48.449 L 44.571 63.537 Z  M 83.143 102.102 L 98.216 87.028 L 83.143 71.954 L 83.143 102.102 Z  M 44.571 87.028 C 44.571 95.354 51.325 102.102 59.651 102.102 C 67.977 102.102 74.724 95.354 74.724 87.028 C 74.724 78.702 67.977 71.954 59.651 71.954 C 51.325 71.954 44.571 78.702 44.571 87.028 Z  M 21.086 87.028 L 36.153 102.102 L 36.153 71.954 L 21.086 87.028 Z  M 44.571 110.519 L 59.651 125.593 L 74.724 110.519 L 44.571 110.519 Z " fill="url(#_lgradient_102)"/></g></g></g></svg>