<?xml version="1.0" encoding="UTF-8" standalone="no"?><!-- Generator: Gravit.io --><svg xmlns="http://www.w3.org/2000/svg" xmlns:xlink="http://www.w3.org/1999/xlink" style="isolation:isolate" viewBox="0 0 256 217.952" width="256pt" height="217.952pt"><defs><clipPath id="_clipPath_sJ7L7gBpaexuGg1r0rDoB65acspzeAXz"><rect width="256" height="217.952"/></clipPath></defs><g clip-path="url(#_clipPath_sJ7L7gBpaexuGg1r0rDoB65acspzeAXz)"><g><g><path d=" M 23.084 87.449 L 58.502 28.733 L 243.57 139.9 L 208.244 198.674 L 23.084 87.449 Z " fill="rgb(0,0,0)"/></g><g><linearGradient id="_lgradient_103" x1="0" y1="0.5" x2="0.4536752034167172" y2="-0.3911671054324213" gradientTransform="matrix(42.436,0,0,52.8,212.524,148.829)" gradientUnits="userSpaceOnUse"><stop offset="6.9000000000000075%" stop-opacity="1" style="stop-color:rgb(49,47,49)"/><stop offset="24.31240000000001%" stop-opacity="1" style="stop-color:rgb(98,99,102)"/><stop offset="28.363800000000012%" stop-opacity="1" style="stop-color:rgb(76,76,78)"/><stop offset="93.10000000000002%" stop-opacity="1" style="stop-color:rgb(76,76,78)"/></linearGradient><path d=" M 212.524 191.556 L 238.199 148.829 L 254.96 158.894 L 229.291 201.629 L 212.524 191.556 Z " fill="url(#_lgradient_103)"/></g><g><linearGradient id="_lgradient_104" x1="0" y1="0.5" x2="0.5155062698520095" y2="-0.3568858067112952" gradientTransform="matrix(242.842,0,0,165.277,13.158,0)" gradientUnits="userSpaceOnUse"><stop offset="26.581192949827553%" stop-opacity="1" style="stop-color:rgb(219,220,222)"/><stop offset="30.657892949827552%" stop-opacity="1" style="stop-color:rgb(219,220,222)"/><stop offset="58.31849294982756%" stop-opacity="1" style="stop-color:rgb(157,159,161)"/><stop offset="60.75689294982756%" stop-opacity="1" style="stop-color:rgb(219,220,222)"/><stop offset="64.68119294982756%" stop-opacity="1" style="stop-color:rgb(160,162,165)"/></linearGradient><path d=" M 13.158 62.421 L 184.373 165.277 L 256 122.484 L 50.667 0 L 13.158 62.421 Z " fill="url(#_lgradient_104)"/></g><g><linearGradient id="_lgradient_105" x1="0" y1="0.5" x2="0.517363823476515" y2="-0.35576554859246434" gradientTransform="matrix(196.185,0,0,119.703,16.389,80.921)" gradientUnits="userSpaceOnUse"><stop offset="40.22966387753283%" stop-opacity="1" style="stop-color:rgb(137,139,142)"/><stop offset="61.67426387753283%" stop-opacity="1" style="stop-color:rgb(198,200,202)"/><stop offset="74.92966387753283%" stop-opacity="1" style="stop-color:rgb(160,162,165)"/></linearGradient><path d=" M 187.604 200.624 L 212.574 158.989 L 185.516 176.433 L 26.52 80.921 L 16.389 97.769 L 66.333 127.768 L 57.574 122.506 L 66.333 127.768 L 69.495 129.667 L 95.36 145.205 L 187.604 200.624 Z " fill="url(#_lgradient_105)"/></g><g><linearGradient id="_lgradient_106" x1="0" y1="0.5" x2="0.5149118194937895" y2="-0.3572431499554809" gradientTransform="matrix(26.403,0,0,99.573,0,118.379)" gradientUnits="userSpaceOnUse"><stop offset="0%" stop-opacity="1" style="stop-color:rgb(98,99,102)"/><stop offset="100%" stop-opacity="1" style="stop-color:rgb(71,70,73)"/></linearGradient><path d=" M 0 118.379 L 0 153.828 L 0 184.003 L 0 217.952 L 11.083 217.952 C 19.548 217.952 26.403 211.097 26.403 202.64 L 26.403 192.372 L 26.403 184.003 L 26.403 153.828 L 26.403 140.773 L 26.403 133.692 C 26.403 125.234 19.548 118.379 11.083 118.379 L 0 118.379 Z " fill="url(#_lgradient_106)"/></g><g><linearGradient id="_lgradient_107" x1="0" y1="0.5" x2="6.123233995736766e-17" y2="1.5" gradientTransform="matrix(68.956,0,0,54.335,26.403,129.668)" gradientUnits="userSpaceOnUse"><stop offset="0%" stop-opacity="1" style="stop-color:rgb(219,220,222)"/><stop offset="10.7%" stop-opacity="1" style="stop-color:rgb(219,220,222)"/><stop offset="14.6%" stop-opacity="1" style="stop-color:rgb(214,215,216)"/><stop offset="83.3%" stop-opacity="1" style="stop-color:rgb(98,99,102)"/><stop offset="100%" stop-opacity="1" style="stop-color:rgb(137,139,142)"/></linearGradient><path d=" M 54.976 153.828 L 26.403 153.828 L 26.403 184.003 L 72.042 184.003 L 72.042 183.995 L 72.049 184.003 L 95.359 145.205 L 69.495 129.668 L 54.976 153.828 Z " fill="url(#_lgradient_107)"/></g><g><radialGradient id="_rgradient_7" fx="0.554" fy="0.568" cx="0.231" cy="0.186" r="-0.5" gradientTransform="matrix(42.589,0,0,42.589,42.582,143.982)" gradientUnits="userSpaceOnUse"><stop offset="0%" stop-opacity="1" style="stop-color:rgb(219,220,222)"/><stop offset="10.7%" stop-opacity="1" style="stop-color:rgb(219,220,222)"/><stop offset="83.3%" stop-opacity="1" style="stop-color:rgb(157,159,161)"/><stop offset="100%" stop-opacity="1" style="stop-color:rgb(160,162,165)"/></radialGradient><path d=" M 42.582 165.277 C 42.582 177.038 52.115 186.571 63.877 186.571 C 75.637 186.571 85.171 177.038 85.171 165.277 C 85.171 153.516 75.637 143.982 63.877 143.982 C 52.115 143.982 42.582 153.516 42.582 165.277 Z " fill="url(#_rgradient_7)"/></g></g></g></svg>