<?xml version="1.0" encoding="UTF-8" standalone="no"?><!-- Generator: Gravit.io --><svg xmlns="http://www.w3.org/2000/svg" xmlns:xlink="http://www.w3.org/1999/xlink" style="isolation:isolate" viewBox="0 0 256 240.129" width="256pt" height="240.129pt"><defs><clipPath id="_clipPath_hlWFXmED2GzLGGv6fqGpWHInZMfvPrbh"><rect width="256" height="240.129"/></clipPath></defs><g clip-path="url(#_clipPath_hlWFXmED2GzLGGv6fqGpWHInZMfvPrbh)"><g><g><path d=" M 107.209 212.001 L 17.206 212.001 L 17.206 25.348 L 107.209 25.348 L 107.209 212.001 Z " fill="rgb(0,0,0)"/></g><g><linearGradient id="_lgradient_108" x1="0" y1="0.5" x2="1" y2="0.5" gradientTransform="matrix(70.175,0,0,201.674,27.777,2.39)" gradientUnits="userSpaceOnUse"><stop offset="0%" stop-opacity="1" style="stop-color:rgb(108,110,112)"/><stop offset="53.6%" stop-opacity="1" style="stop-color:rgb(63,62,64)"/><stop offset="100%" stop-opacity="1" style="stop-color:rgb(63,62,64)"/></linearGradient><path d=" M 56.807 2.39 C 40.777 2.39 27.777 15.393 27.777 31.423 L 27.777 175.037 C 27.777 191.067 40.777 204.064 56.807 204.064 L 68.917 204.064 C 84.951 204.064 97.952 191.067 97.952 175.037 L 97.952 31.423 C 97.952 15.393 84.951 2.39 68.917 2.39 L 56.807 2.39 Z " fill="url(#_lgradient_108)"/></g><g><linearGradient id="_lgradient_109" x1="0" y1="0.5" x2="0.7070162299422258" y2="1.2071973208364706" gradientTransform="matrix(256,0,0,240.129,0,0)" gradientUnits="userSpaceOnUse"><stop offset="5.247069454823344%" stop-opacity="1" style="stop-color:rgb(108,110,112)"/><stop offset="100%" stop-opacity="1" style="stop-color:rgb(61,59,61)"/></linearGradient><path d=" M 139.804 0 C 128.369 0 119.059 9.31 119.059 20.748 L 119.059 25.348 L 105.548 25.348 L 105.548 31.423 L 105.548 44.264 L 105.548 175.037 C 105.548 195.228 89.116 211.66 68.917 211.66 L 56.807 211.66 C 36.611 211.66 20.181 195.228 20.181 175.037 L 20.181 42.625 L 20.181 31.423 L 20.181 25.348 L 13.419 25.348 C 6.005 25.348 0 31.231 0 38.501 L 0 226.984 C 0 234.247 6.005 240.129 13.419 240.129 L 242.588 240.129 C 250.006 240.129 256 234.247 256 226.984 L 256 38.501 C 256 31.231 250.006 25.348 242.588 25.348 L 241.535 25.348 L 241.535 20.748 C 241.535 9.31 232.217 0 220.779 0 L 139.804 0 Z " fill="url(#_lgradient_109)"/></g><g><linearGradient id="_lgradient_110" x1="0" y1="0.5" x2="0.9396233422802" y2="0.8422104245083517" gradientTransform="matrix(107.284,0,0,100.833,126.655,7.597)" gradientUnits="userSpaceOnUse"><stop offset="0%" stop-opacity="1" style="stop-color:rgb(31,145,207)"/><stop offset="21.439999999999984%" stop-opacity="1" style="stop-color:rgb(110,190,233)"/><stop offset="67.02399999999999%" stop-opacity="1" style="stop-color:rgb(26,142,205)"/><stop offset="100%" stop-opacity="1" style="stop-color:rgb(26,142,205)"/></linearGradient><path d=" M 139.804 7.597 C 132.535 7.597 126.655 13.487 126.655 20.748 L 126.655 95.285 C 126.655 102.547 132.535 108.43 139.804 108.43 L 220.779 108.43 C 228.049 108.43 233.939 102.547 233.939 95.285 L 233.939 20.748 C 233.939 13.487 228.049 7.597 220.779 7.597 L 139.804 7.597 Z " fill="url(#_lgradient_110)"/></g><g><path d=" M 154.551 134.445 C 154.551 139.49 150.471 143.584 145.427 143.584 C 140.383 143.584 136.288 139.49 136.288 134.445 C 136.288 129.401 140.383 125.314 145.427 125.314 C 150.471 125.314 154.551 129.401 154.551 134.445 Z " fill="rgb(38,170,225)"/></g><g><path d=" M 189.431 134.445 C 189.431 139.49 185.335 143.584 180.291 143.584 C 175.247 143.584 171.167 139.49 171.167 134.445 C 171.167 129.401 175.247 125.314 180.291 125.314 C 185.335 125.314 189.431 129.401 189.431 134.445 Z " fill="rgb(38,170,225)"/></g><g><path d=" M 224.295 134.445 C 224.295 139.49 220.215 143.584 215.171 143.584 C 210.127 143.584 206.032 139.49 206.032 134.445 C 206.032 129.401 210.127 125.314 215.171 125.314 C 220.215 125.314 224.295 129.401 224.295 134.445 Z " fill="rgb(38,170,225)"/></g><g><path d=" M 154.551 164.688 C 154.551 169.732 150.471 173.82 145.427 173.82 C 140.383 173.82 136.288 169.732 136.288 164.688 C 136.288 159.644 140.383 155.556 145.427 155.556 C 150.471 155.556 154.551 159.644 154.551 164.688 Z " fill="rgb(38,170,225)"/></g><g><path d=" M 189.431 164.688 C 189.431 169.732 185.335 173.82 180.291 173.82 C 175.247 173.82 171.167 169.732 171.167 164.688 C 171.167 159.644 175.247 155.556 180.291 155.556 C 185.335 155.556 189.431 159.644 189.431 164.688 Z " fill="rgb(38,170,225)"/></g><g><path d=" M 224.295 164.688 C 224.295 169.732 220.215 173.82 215.171 173.82 C 210.127 173.82 206.032 169.732 206.032 164.688 C 206.032 159.644 210.127 155.556 215.171 155.556 C 220.215 155.556 224.295 159.644 224.295 164.688 Z " fill="rgb(38,170,225)"/></g><g><path d=" M 154.551 194.931 C 154.551 199.977 150.471 204.063 145.427 204.063 C 140.383 204.063 136.288 199.977 136.288 194.931 C 136.288 189.887 140.383 185.792 145.427 185.792 C 150.471 185.792 154.551 189.887 154.551 194.931 Z " fill="rgb(38,170,225)"/></g><g><path d=" M 189.431 194.931 C 189.431 199.977 185.335 204.063 180.291 204.063 C 175.247 204.063 171.167 199.977 171.167 194.931 C 171.167 189.887 175.247 185.792 180.291 185.792 C 185.335 185.792 189.431 189.887 189.431 194.931 Z " fill="rgb(38,170,225)"/></g><g><path d=" M 224.295 194.931 C 224.295 199.977 220.215 204.063 215.171 204.063 C 210.127 204.063 206.032 199.977 206.032 194.931 C 206.032 189.887 210.127 185.792 215.171 185.792 C 220.215 185.792 224.295 189.887 224.295 194.931 Z " fill="rgb(38,170,225)"/></g></g></g></svg>