<?xml version="1.0" encoding="UTF-8" standalone="no"?><!-- Generator: Gravit.io --><svg xmlns="http://www.w3.org/2000/svg" xmlns:xlink="http://www.w3.org/1999/xlink" style="isolation:isolate" viewBox="0 0 256 72.431" width="256pt" height="72.431pt"><defs><clipPath id="_clipPath_jbWKQrpZdJnOncvrYhaqIVxAb5IuxfTH"><rect width="256" height="72.431"/></clipPath></defs><g clip-path="url(#_clipPath_jbWKQrpZdJnOncvrYhaqIVxAb5IuxfTH)"><g><g><linearGradient id="_lgradient_111" x1="0" y1="0.5" x2="6.123233995736766e-17" y2="1.5" gradientTransform="matrix(256,0,0,72.431,0,0)" gradientUnits="userSpaceOnUse"><stop offset="0%" stop-opacity="1" style="stop-color:rgb(108,110,112)"/><stop offset="53.6%" stop-opacity="1" style="stop-color:rgb(63,62,64)"/><stop offset="100%" stop-opacity="1" style="stop-color:rgb(63,62,64)"/></linearGradient><path d=" M 220.837 0 L 214.456 0 L 187.071 0 L 180.689 0 L 153.292 0 L 146.911 0 L 119.523 0 L 113.141 0 L 1.907 0 C 0.848 0 0 0.654 0 1.439 L 0 70.992 C 0 71.789 0.848 72.431 1.907 72.431 L 254.106 72.431 C 255.153 72.431 256 71.789 256 70.992 L 256 1.439 C 256 0.654 255.153 0 254.106 0 L 220.837 0 Z " fill="url(#_lgradient_111)"/></g><g><path d=" M 198.371 41.974 C 198.371 44.947 195.952 47.359 192.973 47.359 C 190.006 47.359 187.588 44.947 187.588 41.974 C 187.588 38.995 190.006 36.583 192.973 36.583 C 195.952 36.583 198.371 38.995 198.371 41.974 Z " fill="rgb(0,0,0)"/></g><g><path d=" M 212.655 41.974 C 212.655 44.947 210.236 47.359 207.27 47.359 C 204.304 47.359 201.886 44.947 201.886 41.974 C 201.886 38.995 204.304 36.583 207.27 36.583 C 210.236 36.583 212.655 38.995 212.655 41.974 Z " fill="rgb(0,0,0)"/></g><g><path d=" M 226.964 41.974 C 226.964 44.947 224.54 47.359 221.58 47.359 C 218.601 47.359 216.17 44.947 216.17 41.974 C 216.17 38.995 218.601 36.583 221.58 36.583 C 224.54 36.583 226.964 38.995 226.964 41.974 Z " fill="rgb(0,0,0)"/></g><g><path d=" M 241.678 41.974 C 241.678 44.947 239.247 47.359 236.274 47.359 C 233.315 47.359 230.884 44.947 230.884 41.974 C 230.884 38.995 233.315 36.583 236.274 36.583 C 239.247 36.583 241.678 38.995 241.678 41.974 Z " fill="rgb(0,0,0)"/></g><g><path d=" M 24.839 41.974 C 24.839 44.947 22.415 47.359 19.454 47.359 C 16.475 47.359 14.07 44.947 14.07 41.974 C 14.07 38.995 16.475 36.583 19.454 36.583 C 22.415 36.583 24.839 38.995 24.839 41.974 Z " fill="rgb(0,0,0)"/></g><g><path d=" M 198.371 56.189 C 198.371 59.168 195.952 61.574 192.973 61.574 C 190.006 61.574 187.588 59.168 187.588 56.189 C 187.588 53.21 190.006 50.792 192.973 50.792 C 195.952 50.792 198.371 53.21 198.371 56.189 Z " fill="rgb(0,0,0)"/></g><g><path d=" M 212.655 56.189 C 212.655 59.168 210.236 61.574 207.27 61.574 C 204.304 61.574 201.886 59.168 201.886 56.189 C 201.886 53.21 204.304 50.792 207.27 50.792 C 210.236 50.792 212.655 53.21 212.655 56.189 Z " fill="rgb(0,0,0)"/></g><g><path d=" M 226.964 56.189 C 226.964 59.168 224.54 61.574 221.58 61.574 C 218.601 61.574 216.17 59.168 216.17 56.189 C 216.17 53.21 218.601 50.792 221.58 50.792 C 224.54 50.792 226.964 53.21 226.964 56.189 Z " fill="rgb(0,0,0)"/></g><g><path d=" M 241.678 56.189 C 241.678 59.168 239.247 61.574 236.274 61.574 C 233.315 61.574 230.884 59.168 230.884 56.189 C 230.884 53.21 233.315 50.792 236.274 50.792 C 239.247 50.792 241.678 53.21 241.678 56.189 Z " fill="rgb(0,0,0)"/></g><g><path d=" M 24.839 56.189 C 24.839 59.168 22.415 61.574 19.454 61.574 C 16.475 61.574 14.07 59.168 14.07 56.189 C 14.07 53.21 16.475 50.792 19.454 50.792 C 22.415 50.792 24.839 53.21 24.839 56.189 Z " fill="rgb(0,0,0)"/></g><g><path d=" M 111.997 14.271 C 111.997 17.251 109.582 19.655 106.606 19.655 C 103.633 19.655 101.218 17.251 101.218 14.271 C 101.218 11.293 103.633 8.886 106.606 8.886 C 109.582 8.886 111.997 11.293 111.997 14.271 Z " fill="rgb(0,0,0)"/></g><g><path d=" M 126.285 14.271 C 126.285 17.251 123.864 19.655 120.9 19.655 C 117.934 19.655 115.512 17.251 115.512 14.271 C 115.512 11.293 117.934 8.886 120.9 8.886 C 123.864 8.886 126.285 11.293 126.285 14.271 Z " fill="rgb(0,0,0)"/></g><g><path d=" M 140.591 14.271 C 140.591 17.251 138.173 19.655 135.206 19.655 C 132.227 19.655 129.799 17.251 129.799 14.271 C 129.799 11.293 132.227 8.886 135.206 8.886 C 138.173 8.886 140.591 11.293 140.591 14.271 Z " fill="rgb(0,0,0)"/></g><g><path d=" M 111.997 28.119 C 111.997 31.098 109.582 33.504 106.606 33.504 C 103.633 33.504 101.218 31.098 101.218 28.119 C 101.218 25.14 103.633 22.735 106.606 22.735 C 109.582 22.735 111.997 25.14 111.997 28.119 Z " fill="rgb(0,0,0)"/></g><g><path d=" M 126.285 28.119 C 126.285 31.098 123.864 33.504 120.9 33.504 C 117.934 33.504 115.512 31.098 115.512 28.119 C 115.512 25.14 117.934 22.735 120.9 22.735 C 123.864 22.735 126.285 25.14 126.285 28.119 Z " fill="rgb(0,0,0)"/></g><g><path d=" M 140.591 28.119 C 140.591 31.098 138.173 33.504 135.206 33.504 C 132.227 33.504 129.799 31.098 129.799 28.119 C 129.799 25.14 132.227 22.735 135.206 22.735 C 138.173 22.735 140.591 25.14 140.591 28.119 Z " fill="rgb(0,0,0)"/></g><g><path d=" M 155.305 14.271 C 155.305 17.251 152.881 19.655 149.908 19.655 C 146.942 19.655 144.517 17.251 144.517 14.271 C 144.517 11.293 146.942 8.886 149.908 8.886 C 152.881 8.886 155.305 11.293 155.305 14.271 Z " fill="rgb(0,0,0)"/></g><g><path d=" M 169.596 14.271 C 169.596 17.251 167.165 19.655 164.211 19.655 C 161.232 19.655 158.827 17.251 158.827 14.271 C 158.827 11.293 161.232 8.886 164.211 8.886 C 167.165 8.886 169.596 11.293 169.596 14.271 Z " fill="rgb(0,0,0)"/></g><g><path d=" M 155.305 28.119 C 155.305 31.098 152.881 33.504 149.908 33.504 C 146.942 33.504 144.517 31.098 144.517 28.119 C 144.517 25.14 146.942 22.735 149.908 22.735 C 152.881 22.735 155.305 25.14 155.305 28.119 Z " fill="rgb(0,0,0)"/></g><g><path d=" M 169.596 28.119 C 169.596 31.098 167.165 33.504 164.211 33.504 C 161.232 33.504 158.827 31.098 158.827 28.119 C 158.827 25.14 161.232 22.735 164.211 22.735 C 167.165 22.735 169.596 25.14 169.596 28.119 Z " fill="rgb(0,0,0)"/></g><g><path d=" M 183.881 28.119 C 183.881 31.098 181.475 33.504 178.496 33.504 C 175.517 33.504 173.105 31.098 173.105 28.119 C 173.105 25.14 175.517 22.735 178.496 22.735 C 181.475 22.735 183.881 25.14 183.881 28.119 Z " fill="rgb(0,0,0)"/></g><g><path d=" M 169.596 41.974 C 169.596 44.947 167.165 47.359 164.211 47.359 C 161.232 47.359 158.827 44.947 158.827 41.974 C 158.827 38.995 161.232 36.583 164.211 36.583 C 167.165 36.583 169.596 38.995 169.596 41.974 Z " fill="rgb(0,0,0)"/></g><g><path d=" M 183.881 41.974 C 183.881 44.947 181.475 47.359 178.496 47.359 C 175.517 47.359 173.105 44.947 173.105 41.974 C 173.105 38.995 175.517 36.583 178.496 36.583 C 181.475 36.583 183.881 38.995 183.881 41.974 Z " fill="rgb(0,0,0)"/></g><g><path d=" M 183.881 56.189 C 183.881 59.168 181.475 61.574 178.496 61.574 C 175.517 61.574 173.105 59.168 173.105 56.189 C 173.105 53.21 175.517 50.792 178.496 50.792 C 181.475 50.792 183.881 53.21 183.881 56.189 Z " fill="rgb(0,0,0)"/></g><g><path d=" M 39.915 41.974 C 39.915 44.947 37.494 47.359 34.53 47.359 C 31.564 47.359 29.142 44.947 29.142 41.974 C 29.142 38.995 31.564 36.583 34.53 36.583 C 37.494 36.583 39.915 38.995 39.915 41.974 Z " fill="rgb(0,0,0)"/></g><g><path d=" M 54.221 41.974 C 54.221 44.947 51.8 47.359 48.836 47.359 C 45.857 47.359 43.43 44.947 43.43 41.974 C 43.43 38.995 45.857 36.583 48.836 36.583 C 51.8 36.583 54.221 38.995 54.221 41.974 Z " fill="rgb(0,0,0)"/></g><g><path d=" M 97.51 14.271 C 97.51 17.251 95.101 19.655 92.122 19.655 C 89.146 19.655 86.737 17.251 86.737 14.271 C 86.737 11.293 89.146 8.886 92.122 8.886 C 95.101 8.886 97.51 11.293 97.51 14.271 Z " fill="rgb(0,0,0)"/></g><g><path d=" M 83.229 28.119 C 83.229 31.098 80.795 33.504 77.841 33.504 C 74.865 33.504 72.456 31.098 72.456 28.119 C 72.456 25.14 74.865 22.735 77.841 22.735 C 80.795 22.735 83.229 25.14 83.229 28.119 Z " fill="rgb(0,0,0)"/></g><g><path d=" M 97.51 28.119 C 97.51 31.098 95.101 33.504 92.122 33.504 C 89.146 33.504 86.737 31.098 86.737 28.119 C 86.737 25.14 89.146 22.735 92.122 22.735 C 95.101 22.735 97.51 25.14 97.51 28.119 Z " fill="rgb(0,0,0)"/></g><g><path d=" M 68.935 41.974 C 68.935 44.947 66.514 47.359 63.535 47.359 C 60.575 47.359 58.144 44.947 58.144 41.974 C 58.144 38.995 60.575 36.583 63.535 36.583 C 66.514 36.583 68.935 38.995 68.935 41.974 Z " fill="rgb(0,0,0)"/></g><g><path d=" M 83.229 41.974 C 83.229 44.947 80.795 47.359 77.841 47.359 C 74.865 47.359 72.456 44.947 72.456 41.974 C 72.456 38.995 74.865 36.583 77.841 36.583 C 80.795 36.583 83.229 38.995 83.229 41.974 Z " fill="rgb(0,0,0)"/></g><g><path d=" M 97.51 41.974 C 97.51 44.947 95.101 47.359 92.122 47.359 C 89.146 47.359 86.737 44.947 86.737 41.974 C 86.737 38.995 89.146 36.583 92.122 36.583 C 95.101 36.583 97.51 38.995 97.51 41.974 Z " fill="rgb(0,0,0)"/></g><g><path d=" M 39.915 56.189 C 39.915 59.168 37.494 61.574 34.53 61.574 C 31.564 61.574 29.142 59.168 29.142 56.189 C 29.142 53.21 31.564 50.792 34.53 50.792 C 37.494 50.792 39.915 53.21 39.915 56.189 Z " fill="rgb(0,0,0)"/></g><g><path d=" M 54.221 56.189 C 54.221 59.168 51.8 61.574 48.836 61.574 C 45.857 61.574 43.43 59.168 43.43 56.189 C 43.43 53.21 45.857 50.792 48.836 50.792 C 51.8 50.792 54.221 53.21 54.221 56.189 Z " fill="rgb(0,0,0)"/></g><g><path d=" M 68.935 56.189 C 68.935 59.168 66.514 61.574 63.535 61.574 C 60.575 61.574 58.144 59.168 58.144 56.189 C 58.144 53.21 60.575 50.792 63.535 50.792 C 66.514 50.792 68.935 53.21 68.935 56.189 Z " fill="rgb(0,0,0)"/></g><g><path d=" M 83.229 56.189 C 83.229 59.168 80.795 61.574 77.841 61.574 C 74.865 61.574 72.456 59.168 72.456 56.189 C 72.456 53.21 74.865 50.792 77.841 50.792 C 80.795 50.792 83.229 53.21 83.229 56.189 Z " fill="rgb(0,0,0)"/></g><g><path d=" M 241.41 21.65 L 201.885 21.65 L 201.885 8.886 L 241.41 8.886 L 241.41 21.65 Z " fill="rgb(38,170,225)"/></g><g><path d=" M 241.41 28.319 L 201.885 28.319 L 201.885 21.937 L 241.41 21.937 L 241.41 28.319 Z " fill="rgb(0,0,0)"/></g><g><path d=" M 54.292 28.319 L 14.767 28.319 L 14.767 21.937 L 54.292 21.937 L 54.292 28.319 Z " fill="rgb(0,0,0)"/></g><g><path d=" M 54.292 17.462 L 14.767 17.462 L 14.767 11.08 L 54.292 11.08 L 54.292 17.462 Z " fill="rgb(0,0,0)"/></g></g></g></svg>