<?xml version="1.0" encoding="UTF-8" standalone="no"?><!-- Generator: Gravit.io --><svg xmlns="http://www.w3.org/2000/svg" xmlns:xlink="http://www.w3.org/1999/xlink" style="isolation:isolate" viewBox="0 0 256 82.786" width="256pt" height="82.786pt"><defs><clipPath id="_clipPath_qmaYfZ52VnQAYRj8Aj77EzVn9okd414f"><rect width="256" height="82.786"/></clipPath></defs><g clip-path="url(#_clipPath_qmaYfZ52VnQAYRj8Aj77EzVn9okd414f)"><g><g><radialGradient id="_rgradient_8" fx="0.472" fy="0.5" cx="-0.018" cy="0.203" r="0.579" gradientTransform="matrix(46.185,0,0,46.186,186.632,0)" gradientUnits="userSpaceOnUse"><stop offset="0%" stop-opacity="1" style="stop-color:rgb(45,101,162)"/><stop offset="100%" stop-opacity="1" style="stop-color:rgb(42,46,119)"/></radialGradient><path d=" M 186.632 23.094 C 186.632 35.847 196.97 46.186 209.724 46.186 C 222.478 46.186 232.817 35.847 232.817 23.094 C 232.817 10.34 222.478 0 209.724 0 C 196.97 0 186.632 10.34 186.632 23.094 Z " fill="url(#_rgradient_8)"/></g><g><radialGradient id="_rgradient_9" fx="0.396" fy="0.33" cx="0.396" cy="0.33" r="0.5" gradientTransform="matrix(46.186,0,0,46.186,209.814,18.389)" gradientUnits="userSpaceOnUse"><stop offset="0%" stop-opacity="1" style="stop-color:rgb(160,76,50)"/><stop offset="37.8%" stop-opacity="1" style="stop-color:rgb(160,76,50)"/><stop offset="100%" stop-opacity="1" style="stop-color:rgb(147,48,30)"/></radialGradient><path d=" M 209.814 41.482 C 209.814 54.236 220.154 64.575 232.907 64.575 C 245.661 64.575 256 54.236 256 41.482 C 256 28.728 245.661 18.389 232.907 18.389 C 220.154 18.389 209.814 28.728 209.814 41.482 Z " fill="url(#_rgradient_9)"/></g><g><linearGradient id="_lgradient_112" x1="0" y1="0.5" x2="1" y2="0.5" gradientTransform="matrix(51.815,0,0,5.361,29.188,51.973)" gradientUnits="userSpaceOnUse"><stop offset="0%" stop-opacity="1" style="stop-color:rgb(110,190,233)"/><stop offset="100%" stop-opacity="1" style="stop-color:rgb(26,142,205)"/></linearGradient><path d=" M 29.188 54.566 L 81.003 57.334 C 79.707 55.696 78.611 53.899 77.741 51.973 L 29.188 54.566 Z " fill="url(#_lgradient_112)"/></g><g><linearGradient id="_lgradient_113" x1="0" y1="0.5" x2="1" y2="0.5" gradientTransform="matrix(51.815,0,0,5.361,29.188,25.631)" gradientUnits="userSpaceOnUse"><stop offset="0%" stop-opacity="1" style="stop-color:rgb(110,190,233)"/><stop offset="100%" stop-opacity="1" style="stop-color:rgb(26,142,205)"/></linearGradient><path d=" M 29.188 28.398 L 77.742 30.992 C 78.611 29.066 79.707 27.269 81.003 25.631 L 29.188 28.398 Z " fill="url(#_lgradient_113)"/></g><g><linearGradient id="_lgradient_114" x1="0" y1="0.5" x2="1" y2="0.5" gradientTransform="matrix(75.606,0,0,5.284,0,38.841)" gradientUnits="userSpaceOnUse"><stop offset="0%" stop-opacity="1" style="stop-color:rgb(110,190,233)"/><stop offset="100%" stop-opacity="1" style="stop-color:rgb(26,142,205)"/></linearGradient><path d=" M 0 41.482 L 75.606 44.125 C 75.517 43.255 75.469 42.374 75.469 41.482 C 75.469 40.59 75.517 39.709 75.606 38.841 L 0 41.482 Z " fill="url(#_lgradient_114)"/></g><g><radialGradient id="_rgradient_10" fx="0.396" fy="0.33" cx="0.396" cy="0.33" r="0.5" gradientTransform="matrix(46.185,0,0,46.186,162.757,18.389)" gradientUnits="userSpaceOnUse"><stop offset="0%" stop-opacity="1" style="stop-color:rgb(160,76,50)"/><stop offset="37.8%" stop-opacity="1" style="stop-color:rgb(160,76,50)"/><stop offset="100%" stop-opacity="1" style="stop-color:rgb(147,48,30)"/></radialGradient><path d=" M 162.757 41.482 C 162.757 54.236 173.096 64.575 185.85 64.575 C 198.604 64.575 208.942 54.236 208.942 41.482 C 208.942 28.728 198.604 18.389 185.85 18.389 C 173.096 18.389 162.757 28.728 162.757 41.482 Z " fill="url(#_rgradient_10)"/></g><g><radialGradient id="_rgradient_11" fx="0.472" fy="0.5" cx="-0.018" cy="0.203" r="0.579" gradientTransform="matrix(46.186,0,0,46.185,78.139,18.736)" gradientUnits="userSpaceOnUse"><stop offset="0%" stop-opacity="1" style="stop-color:rgb(45,101,162)"/><stop offset="100%" stop-opacity="1" style="stop-color:rgb(42,46,119)"/></radialGradient><path d=" M 78.139 41.829 C 78.139 54.583 88.478 64.921 101.232 64.921 C 113.986 64.921 124.325 54.583 124.325 41.829 C 124.325 29.075 113.986 18.736 101.232 18.736 C 88.478 18.736 78.139 29.075 78.139 41.829 Z " fill="url(#_rgradient_11)"/></g><g><radialGradient id="_rgradient_12" fx="0.472" fy="0.5" cx="-0.018" cy="0.203" r="0.579" gradientTransform="matrix(46.185,0,0,46.186,186.632,36.6)" gradientUnits="userSpaceOnUse"><stop offset="0%" stop-opacity="1" style="stop-color:rgb(45,101,162)"/><stop offset="100%" stop-opacity="1" style="stop-color:rgb(42,46,119)"/></radialGradient><path d=" M 186.632 59.693 C 186.632 72.447 196.97 82.786 209.724 82.786 C 222.478 82.786 232.817 72.447 232.817 59.693 C 232.817 46.939 222.478 36.6 209.724 36.6 C 196.97 36.6 186.632 46.939 186.632 59.693 Z " fill="url(#_rgradient_12)"/></g></g></g></svg>