<?xml version="1.0" encoding="UTF-8" standalone="no"?><!-- Generator: Gravit.io --><svg xmlns="http://www.w3.org/2000/svg" xmlns:xlink="http://www.w3.org/1999/xlink" style="isolation:isolate" viewBox="0 0 202.167 256" width="202.167pt" height="256pt"><defs><clipPath id="_clipPath_fFWioXpdYJ676UUMM2ZVETOhDpxrEy6k"><rect width="202.167" height="256"/></clipPath></defs><g clip-path="url(#_clipPath_fFWioXpdYJ676UUMM2ZVETOhDpxrEy6k)"><g><g><linearGradient id="_lgradient_115" x1="0" y1="0.5" x2="0.7073261680181349" y2="1.2068873262669102" gradientTransform="matrix(202.161,0,0,150.241,0,105.759)" gradientUnits="userSpaceOnUse"><stop offset="0%" stop-opacity="1" style="stop-color:rgb(106,108,110)"/><stop offset="100%" stop-opacity="1" style="stop-color:rgb(67,66,68)"/></linearGradient><path d=" M 18.418 105.759 C 8.255 105.759 0 114.001 0 124.18 L 0 237.585 C 0 247.751 8.255 256 18.418 256 L 183.736 256 C 193.913 256 202.161 247.751 202.161 237.585 L 202.161 124.18 C 202.161 114.001 193.913 105.759 183.736 105.759 L 18.418 105.759 Z " fill="url(#_lgradient_115)"/></g><g><linearGradient id="_lgradient_116" x1="0" y1="0.5" x2="0.707287691059596" y2="-0.20692582501673074" gradientTransform="matrix(189.999,0,0,138.08,6.081,111.84)" gradientUnits="userSpaceOnUse"><stop offset="0%" stop-opacity="1" style="stop-color:rgb(105,107,109)"/><stop offset="100%" stop-opacity="1" style="stop-color:rgb(68,68,70)"/></linearGradient><path d=" M 18.418 111.84 C 11.616 111.84 6.081 117.374 6.081 124.18 L 6.081 237.585 C 6.081 244.385 11.616 249.92 18.418 249.92 L 183.736 249.92 C 190.541 249.92 196.08 244.385 196.08 237.585 L 196.08 124.18 C 196.08 117.374 190.541 111.84 183.736 111.84 L 18.418 111.84 Z " fill="url(#_lgradient_116)"/></g><g><linearGradient id="_lgradient_117" x1="0" y1="0.5" x2="0.7070632266402872" y2="1.2071503330502122" gradientTransform="matrix(144.11,0,0,98.532,29.026,0)" gradientUnits="userSpaceOnUse"><stop offset="9.476296543870196%" stop-opacity="1" style="stop-color:rgb(108,110,112)"/><stop offset="100%" stop-opacity="1" style="stop-color:rgb(64,63,65)"/></linearGradient><path d=" M 100.344 0 C 100.322 0.001 100.298 0.004 100.269 0.007 L 100.257 0.007 C 63.123 0.594 30.856 28.813 29.184 65.1 C 28.952 70.165 29.026 78.343 29.133 84.24 L 29.026 84.24 L 29.026 98.532 L 61.796 98.532 L 61.796 91.098 C 61.796 91.098 61.54 73.367 62.333 64.798 C 64.047 46.521 81.629 33.147 100.706 32.786 C 119.776 32.809 137.614 45.867 139.639 64.121 C 140.601 72.666 139.901 98.532 139.901 98.532 L 140.375 98.532 L 173.136 98.532 L 173.136 84.24 C 173.136 76.715 173.07 68.105 172.797 63.812 C 170.469 27.559 137.691 -0.076 100.551 0.007 L 100.551 0.001 C 100.5 0.007 100.465 0.007 100.409 0.007 C 100.395 0.003 100.383 0.001 100.369 0 L 100.344 0 Z " fill="url(#_lgradient_117)"/></g><g><linearGradient id="_lgradient_118" x1="0" y1="0.5" x2="0.7072775150219132" y2="-0.20693600611683904" gradientTransform="matrix(131.949,0,0,86.364,35.107,6.088)" gradientUnits="userSpaceOnUse"><stop offset="0%" stop-opacity="1" style="stop-color:rgb(102,104,106)"/><stop offset="91.09212910790573%" stop-opacity="1" style="stop-color:rgb(63,62,64)"/></linearGradient><path d=" M 100.304 6.088 C 65.914 6.658 36.736 33.249 35.259 65.379 C 35.017 70.622 35.128 79.376 35.215 84.126 L 35.216 90.32 L 35.107 90.32 L 35.107 92.452 L 55.715 92.452 L 55.715 91.187 C 55.707 90.45 55.465 73.027 56.279 64.228 C 58.209 43.622 77.675 27.138 100.714 26.704 C 123.648 26.735 143.398 42.875 145.683 63.438 C 146.385 69.685 146.26 84.103 146.112 92.452 L 167.056 92.452 L 167.056 84.24 C 167.056 74.483 166.942 67.553 166.729 64.204 C 164.674 32.174 135.085 6.111 100.765 6.088 L 100.304 6.088 Z " fill="url(#_lgradient_118)"/></g><g><linearGradient id="_lgradient_119" x1="0" y1="0.5" x2="0.7075763632303521" y2="-0.20663688709103545" gradientTransform="matrix(82.665,0,0,23.711,0,169.024)" gradientUnits="userSpaceOnUse"><stop offset="0%" stop-opacity="1" style="stop-color:rgb(207,208,210)"/><stop offset="17.107457720844643%" stop-opacity="1" style="stop-color:rgb(177,179,181)"/><stop offset="89.00025772084466%" stop-opacity="1" style="stop-color:rgb(219,220,222)"/><stop offset="100%" stop-opacity="1" style="stop-color:rgb(204,205,207)"/></linearGradient><path d=" M 0 169.024 L 0 192.735 L 70.807 192.735 C 77.353 192.735 82.665 187.433 82.665 180.882 C 82.665 174.332 77.353 169.024 70.807 169.024 L 0 169.024 Z " fill="url(#_lgradient_119)"/></g><g><linearGradient id="_lgradient_120" x1="0" y1="0.5" x2="0.7077796805703789" y2="-0.20643324084565307" gradientTransform="matrix(133.566,0,0,35.267,34.297,129.476)" gradientUnits="userSpaceOnUse"><stop offset="0%" stop-opacity="1" style="stop-color:rgb(204,206,208)"/><stop offset="6.377216915732776%" stop-opacity="1" style="stop-color:rgb(177,179,181)"/><stop offset="75.35451691573275%" stop-opacity="1" style="stop-color:rgb(219,220,222)"/><stop offset="100%" stop-opacity="1" style="stop-color:rgb(203,205,207)"/></linearGradient><path d=" M 102.003 129.476 L 100.162 129.476 L 91.807 129.476 C 86.433 129.476 80.296 129.518 77.232 129.714 C 56.944 131.014 40.443 145.692 34.297 164.743 L 59.94 164.743 C 63.922 158.603 70.091 154.19 77.449 153.371 C 82.371 152.819 95.343 153.033 100.162 153.14 L 100.162 153.188 C 100.162 153.188 100.498 153.175 101.083 153.163 C 101.664 153.175 102.003 153.188 102.003 153.188 L 102.003 153.14 C 106.813 153.033 119.787 152.819 124.711 153.371 C 132.068 154.19 138.237 158.603 142.222 164.743 L 167.863 164.743 C 161.717 145.692 145.215 131.014 124.93 129.714 C 121.866 129.518 115.726 129.476 110.352 129.476 L 102.003 129.476 Z " fill="url(#_lgradient_120)"/></g><g><linearGradient id="_lgradient_121" x1="0" y1="0.5" x2="0.707783592753523" y2="-0.20642932118430302" gradientTransform="matrix(133.564,0,0,35.266,34.299,197.017)" gradientUnits="userSpaceOnUse"><stop offset="0%" stop-opacity="1" style="stop-color:rgb(212,214,216)"/><stop offset="44.55417125795604%" stop-opacity="1" style="stop-color:rgb(177,179,181)"/><stop offset="100%" stop-opacity="1" style="stop-color:rgb(206,207,209)"/><stop offset="100%" stop-opacity="1" style="stop-color:rgb(203,205,207)"/></linearGradient><path d=" M 142.215 197.017 C 138.142 203.317 131.771 207.818 124.224 208.519 C 118.114 209.088 105.459 208.905 105.459 208.905 L 102.003 208.905 L 100.162 208.905 L 96.701 208.905 C 96.701 208.905 84.049 209.088 77.936 208.519 C 70.388 207.818 64.023 203.317 59.94 197.017 L 34.299 197.017 C 40.555 216.404 57.52 231.22 78.146 232.176 C 81.763 232.342 87.597 232.283 91.807 232.212 L 91.807 232.283 L 100.162 232.283 L 102.003 232.283 L 110.352 232.283 L 110.352 232.212 C 114.568 232.283 120.399 232.342 124.009 232.176 C 144.645 231.22 161.61 216.404 167.863 197.017 L 142.215 197.017 Z " fill="url(#_lgradient_121)"/></g><g><linearGradient id="_lgradient_122" x1="0" y1="0.5" x2="0.7075977327387919" y2="-0.20661548852464406" gradientTransform="matrix(82.67,0,0,23.711,119.497,169.024)" gradientUnits="userSpaceOnUse"><stop offset="0%" stop-opacity="1" style="stop-color:rgb(209,211,213)"/><stop offset="31.750584509439673%" stop-opacity="1" style="stop-color:rgb(177,179,181)"/><stop offset="100%" stop-opacity="1" style="stop-color:rgb(205,206,208)"/><stop offset="100%" stop-opacity="1" style="stop-color:rgb(204,205,207)"/></linearGradient><path d=" M 131.349 169.024 C 124.805 169.024 119.497 174.332 119.497 180.882 C 119.497 187.433 124.805 192.735 131.349 192.735 L 202.167 192.735 L 202.167 169.024 L 131.349 169.024 Z " fill="url(#_lgradient_122)"/></g></g></g></svg>