<?xml version="1.0" encoding="UTF-8" standalone="no"?><!-- Generator: Gravit.io --><svg xmlns="http://www.w3.org/2000/svg" xmlns:xlink="http://www.w3.org/1999/xlink" style="isolation:isolate" viewBox="0 0 213.983 256" width="213.983pt" height="256pt"><defs><clipPath id="_clipPath_mH3V51loGfhwOzSAVRlZkgKlzxbChDmG"><rect width="213.983" height="256"/></clipPath></defs><g clip-path="url(#_clipPath_mH3V51loGfhwOzSAVRlZkgKlzxbChDmG)"><g><g><path d=" M 61.708 142.616 L 0 142.616 L 0 35.091 L 61.708 35.091 L 61.708 142.616 Z " fill="rgb(0,0,0)"/></g><g><linearGradient id="_lgradient_127" x1="0" y1="0.5" x2="1" y2="0.5" gradientTransform="matrix(95.202,0,0,255.556,0,0)" gradientUnits="userSpaceOnUse"><stop offset="0%" stop-opacity="1" style="stop-color:rgb(108,110,112)"/><stop offset="53.6%" stop-opacity="1" style="stop-color:rgb(63,62,64)"/><stop offset="100%" stop-opacity="1" style="stop-color:rgb(63,62,64)"/></linearGradient><path d=" M 1.897 0 C 0.848 0 0 0.842 0 1.884 L 0 35.09 L 61.708 35.09 L 61.708 41.467 L 0 41.467 L 0 68.809 L 61.708 68.809 L 61.708 75.186 L 0 75.186 L 0 102.527 L 61.708 102.527 L 61.708 108.898 L 0 108.898 L 0 136.245 L 61.708 136.245 L 61.708 142.616 L 0 142.616 L 0 253.66 C 0 254.715 0.848 255.556 1.897 255.556 L 93.305 255.556 C 94.353 255.556 95.202 254.715 95.202 253.66 L 95.202 1.884 C 95.202 0.842 94.353 0 93.305 0 L 1.897 0 Z " fill="url(#_lgradient_127)"/></g><g><path d=" M 95.202 41.467 L 63.768 41.467 L 63.768 35.09 L 95.202 35.09 L 95.202 41.467 Z " fill="rgb(38,170,225)"/></g><g><path d=" M 95.202 75.186 L 63.768 75.186 L 63.768 68.809 L 95.202 68.809 L 95.202 75.186 Z " fill="rgb(38,170,225)"/></g><g><path d=" M 95.202 108.898 L 63.768 108.898 L 63.768 102.528 L 95.202 102.528 L 95.202 108.898 Z " fill="rgb(38,170,225)"/></g><g><path d=" M 95.202 142.616 L 63.768 142.616 L 63.768 136.245 L 95.202 136.245 L 95.202 142.616 Z " fill="rgb(38,170,225)"/></g><g><path d=" M 95.202 246.847 L 0 246.847 L 0 240.483 L 95.202 240.483 L 95.202 246.847 Z " fill="rgb(0,0,0)"/></g><g><linearGradient id="_lgradient_128" x1="0" y1="0.5" x2="1" y2="0.5" gradientTransform="matrix(170.573,0,0,122.613,43.41,133.387)" gradientUnits="userSpaceOnUse"><stop offset="0%" stop-opacity="1" style="stop-color:rgb(108,110,112)"/><stop offset="53.6%" stop-opacity="1" style="stop-color:rgb(63,62,64)"/><stop offset="100%" stop-opacity="1" style="stop-color:rgb(63,62,64)"/></linearGradient><path d=" M 62.579 133.387 C 52.036 133.387 43.41 142.01 43.41 152.554 L 43.41 236.833 C 43.41 247.375 52.036 256 62.579 256 L 194.815 256 C 205.357 256 213.983 247.375 213.983 236.833 L 213.983 152.554 C 213.983 142.01 205.357 133.387 194.815 133.387 L 62.579 133.387 Z " fill="url(#_lgradient_128)"/></g><g><linearGradient id="_lgradient_129" x1="0" y1="0.5" x2="6.123233995736766e-17" y2="1.5" gradientTransform="matrix(152.163,0,0,104.206,52.615,142.591)" gradientUnits="userSpaceOnUse"><stop offset="0%" stop-opacity="1" style="stop-color:rgb(255,255,255)"/><stop offset="30.5%" stop-opacity="1" style="stop-color:rgb(253,254,254)"/><stop offset="100%" stop-opacity="1" style="stop-color:rgb(215,233,248)"/></linearGradient><path d=" M 62.58 142.591 C 61.478 142.591 60.436 142.813 59.444 143.145 L 121.69 205.39 C 125.577 209.277 131.895 209.277 135.781 205.39 L 198.008 143.163 C 197 142.819 195.938 142.591 194.814 142.591 L 62.58 142.591 Z  M 52.615 152.556 L 52.615 236.833 C 52.615 238.319 52.965 239.717 53.551 240.985 L 98.909 195.627 L 53.058 149.777 C 52.798 150.665 52.615 151.586 52.615 152.556 Z  M 158.56 195.627 L 203.869 240.937 C 204.441 239.682 204.778 238.3 204.778 236.833 L 204.778 152.556 C 204.778 151.605 204.602 150.705 204.353 149.834 L 158.56 195.627 Z  M 60.923 246.629 C 61.465 246.72 62.012 246.797 62.58 246.797 L 194.814 246.797 C 195.403 246.797 195.975 246.721 196.537 246.622 L 152.051 202.136 L 142.288 211.899 C 134.833 219.354 122.635 219.354 115.181 211.899 L 105.417 202.135 L 60.923 246.629 Z " fill="url(#_lgradient_129)"/></g></g></g></svg>