<?xml version="1.0" encoding="UTF-8" standalone="no"?><!-- Generator: Gravit.io --><svg xmlns="http://www.w3.org/2000/svg" xmlns:xlink="http://www.w3.org/1999/xlink" style="isolation:isolate" viewBox="0 0 99.81 256" width="99.81pt" height="256pt"><defs><clipPath id="_clipPath_t9nKlZxZS69DvNLNqJcKsJ4E1g6rHeL7"><rect width="99.81" height="256"/></clipPath></defs><g clip-path="url(#_clipPath_t9nKlZxZS69DvNLNqJcKsJ4E1g6rHeL7)"><g><g><radialGradient id="_rgradient_14" fx="0.5" fy="0.5" cx="0.5" cy="0.5" r="0.522" gradientTransform="matrix(56.702,0,0,61.638,43.108,43.493)" gradientUnits="userSpaceOnUse"><stop offset="0%" stop-opacity="1" style="stop-color:rgb(219,220,222)"/><stop offset="14.799999999999999%" stop-opacity="1" style="stop-color:rgb(219,220,222)"/><stop offset="100%" stop-opacity="1" style="stop-color:rgb(177,179,181)"/></radialGradient><path d=" M 44.405 49.093 C 43.287 49.612 42.798 50.939 43.312 52.061 C 43.833 53.179 45.147 53.681 46.281 53.153 C 46.543 53.03 73 41.055 87.333 54.087 C 93.223 59.444 96.082 67.346 95.174 75.762 C 94.065 86.058 87.73 95.479 78.231 100.962 C 77.161 101.578 76.794 102.944 77.414 104.013 C 77.824 104.73 78.575 105.131 79.348 105.131 C 79.728 105.131 80.112 105.035 80.465 104.83 C 91.197 98.64 98.361 87.952 99.618 76.243 C 100.679 66.39 97.301 57.108 90.336 50.777 C 84.267 45.26 76.626 43.493 69.322 43.493 C 56.736 43.494 45.159 48.744 44.405 49.093 Z " fill="url(#_rgradient_14)"/></g><g><linearGradient id="_lgradient_136" x1="0" y1="0.5" x2="1" y2="0.5" gradientTransform="matrix(40.304,0,0,40.304,25.19,0)" gradientUnits="userSpaceOnUse"><stop offset="0%" stop-opacity="1" style="stop-color:rgb(46,44,45)"/><stop offset="100%" stop-opacity="1" style="stop-color:rgb(87,88,90)"/></linearGradient><path d=" M 45.342 0 C 34.212 0 25.19 9.023 25.19 20.152 C 25.19 31.282 34.212 40.304 45.342 40.304 C 56.471 40.304 65.494 31.282 65.494 20.152 C 65.494 9.023 56.471 0 45.342 0 Z  M 30.216 20.152 C 30.216 11.798 36.988 5.025 45.342 5.025 C 53.696 5.025 60.469 11.798 60.469 20.152 C 60.469 28.506 53.696 35.279 45.342 35.279 C 36.988 35.279 30.216 28.506 30.216 20.152 Z " fill="url(#_lgradient_136)"/></g><g><linearGradient id="_lgradient_137" x1="0" y1="0.5" x2="1" y2="0.5" gradientTransform="matrix(10.278,0,0,10.278,42.887,12.186)" gradientUnits="userSpaceOnUse"><stop offset="0%" stop-opacity="1" style="stop-color:rgb(46,44,45)"/><stop offset="100%" stop-opacity="1" style="stop-color:rgb(87,88,90)"/></linearGradient><path d=" M 50.427 12.307 L 43.007 19.725 C 42.847 19.886 42.847 20.15 43.007 20.311 L 45.039 22.343 C 45.201 22.504 45.464 22.504 45.625 22.343 L 53.044 14.924 C 53.205 14.763 53.205 14.499 53.044 14.338 L 51.012 12.307 C 50.931 12.226 50.825 12.186 50.719 12.186 C 50.613 12.186 50.507 12.226 50.427 12.307 Z " fill="url(#_lgradient_137)"/></g><g><radialGradient id="_rgradient_15" fx="0.5" fy="0.5" cx="0.5" cy="0.5" r="0.472" gradientTransform="matrix(40.304,0,0,35.636,25.19,35.637)" gradientUnits="userSpaceOnUse"><stop offset="0%" stop-opacity="1" style="stop-color:rgb(219,220,222)"/><stop offset="14.799999999999999%" stop-opacity="1" style="stop-color:rgb(219,220,222)"/><stop offset="100%" stop-opacity="1" style="stop-color:rgb(177,179,181)"/></radialGradient><path d=" M 45.342 40.304 C 40.475 40.304 36.072 38.509 32.59 35.637 C 28.108 39.333 25.19 44.858 25.19 51.121 C 25.19 62.251 34.212 71.273 45.342 71.273 C 56.471 71.273 65.494 62.251 65.494 51.121 C 65.494 44.858 62.577 39.333 58.095 35.637 C 54.612 38.509 50.209 40.304 45.342 40.304 Z " fill="url(#_rgradient_15)"/></g><g><linearGradient id="_lgradient_138" x1="0" y1="0.5" x2="1" y2="0.5" gradientTransform="matrix(90.685,0,0,194.242,0,61.758)" gradientUnits="userSpaceOnUse"><stop offset="0%" stop-opacity="1" style="stop-color:rgb(147,48,30)"/><stop offset="37.8%" stop-opacity="1" style="stop-color:rgb(160,76,50)"/><stop offset="100%" stop-opacity="1" style="stop-color:rgb(147,48,30)"/></linearGradient><path d=" M 0.029 106.54 L 0 106.54 L 0 247.059 C 0 251.977 4.024 256 8.941 256 L 81.595 256 C 86.512 256 90.536 251.977 90.536 247.059 C 90.536 247.059 90.685 108.093 90.685 107.1 C 90.685 82.058 70.383 61.758 45.342 61.758 C 20.489 61.758 0.332 81.758 0.029 106.54 Z " fill="url(#_lgradient_138)"/></g></g></g></svg>