<?xml version="1.0" encoding="UTF-8" standalone="no"?><!-- Generator: Gravit.io --><svg xmlns="http://www.w3.org/2000/svg" xmlns:xlink="http://www.w3.org/1999/xlink" style="isolation:isolate" viewBox="0 0 93.048 256" width="93.048pt" height="256pt"><defs><clipPath id="_clipPath_uxfTlrOuh0UpQnSNzCklJAwnoGLguJns"><rect width="93.048" height="256"/></clipPath></defs><g clip-path="url(#_clipPath_uxfTlrOuh0UpQnSNzCklJAwnoGLguJns)"><g><g><linearGradient id="_lgradient_141" x1="0" y1="0.5" x2="6.123233995736766e-17" y2="1.5" gradientTransform="matrix(93.048,0,0,256,0,0)" gradientUnits="userSpaceOnUse"><stop offset="0%" stop-opacity="1" style="stop-color:rgb(108,110,112)"/><stop offset="100%" stop-opacity="1" style="stop-color:rgb(63,62,64)"/></linearGradient><path d=" M 24.324 0 C 10.891 0 0 10.89 0 24.323 L 0 231.677 C 0 245.108 10.891 256 24.324 256 L 68.724 256 C 82.157 256 93.048 245.108 93.048 231.677 L 93.048 24.323 C 93.048 10.89 82.157 0 68.724 0 L 24.324 0 Z " fill="url(#_lgradient_141)"/></g><g><path d=" M 68.724 243.838 C 75.435 243.838 80.886 238.38 80.886 231.676 L 80.886 24.323 C 80.886 17.618 75.435 12.161 68.724 12.161 L 24.324 12.161 C 17.617 12.161 12.162 17.618 12.162 24.323 L 12.162 231.676 C 12.162 238.38 17.617 243.838 24.324 243.838 L 68.724 243.838 Z " fill="rgb(35,31,32)"/></g><g><linearGradient id="_lgradient_142" x1="0" y1="0.5" x2="6.123233995736766e-17" y2="-0.5" gradientTransform="matrix(56.561,0,0,219.515,18.243,18.243)" gradientUnits="userSpaceOnUse"><stop offset="0%" stop-opacity="1" style="stop-color:rgb(108,110,112)"/><stop offset="100%" stop-opacity="1" style="stop-color:rgb(63,62,64)"/></linearGradient><path d=" M 24.324 18.243 C 20.971 18.243 18.243 20.968 18.243 24.323 L 18.243 231.677 C 18.243 235.032 20.971 237.758 24.324 237.758 L 68.724 237.758 C 72.073 237.758 74.804 235.032 74.804 231.677 L 74.804 24.323 C 74.804 20.968 72.073 18.243 68.724 18.243 L 24.324 18.243 Z " fill="url(#_lgradient_142)"/></g><g><linearGradient id="_lgradient_143" x1="0" y1="0.5" x2="1" y2="0.5" gradientTransform="matrix(25.652,0,0,25.654,33.701,33.177)" gradientUnits="userSpaceOnUse"><stop offset="0%" stop-opacity="1" style="stop-color:rgb(219,220,222)"/><stop offset="72.1%" stop-opacity="1" style="stop-color:rgb(219,220,222)"/><stop offset="100%" stop-opacity="1" style="stop-color:rgb(187,189,191)"/></linearGradient><path d=" M 33.701 46.004 C 33.701 53.088 39.443 58.831 46.524 58.831 C 53.605 58.831 59.353 53.088 59.353 46.004 C 59.353 38.919 53.605 33.177 46.524 33.177 C 39.443 33.177 33.701 38.919 33.701 46.004 Z " fill="url(#_lgradient_143)"/></g><g><path d=" M 52.406 96.194 C 52.406 99.436 49.769 102.073 46.524 102.073 C 43.276 102.073 40.645 99.436 40.645 96.194 C 40.645 92.94 43.276 90.315 46.524 90.315 C 49.769 90.315 52.406 92.94 52.406 96.194 Z " fill="rgb(38,170,225)"/></g><g><path d=" M 52.406 117.394 C 52.406 120.648 49.769 123.273 46.524 123.273 C 43.276 123.273 40.645 120.648 40.645 117.394 C 40.645 114.152 43.276 111.515 46.524 111.515 C 49.769 111.515 52.406 114.152 52.406 117.394 Z " fill="rgb(38,170,225)"/></g><g><path d=" M 52.406 138.605 C 52.406 141.847 49.769 144.485 46.524 144.485 C 43.276 144.485 40.645 141.847 40.645 138.605 C 40.645 135.352 43.276 132.727 46.524 132.727 C 49.769 132.727 52.406 135.352 52.406 138.605 Z " fill="rgb(38,170,225)"/></g><g><path d=" M 52.406 159.805 C 52.406 163.059 49.769 165.684 46.524 165.684 C 43.276 165.684 40.645 163.059 40.645 159.805 C 40.645 156.563 43.276 153.926 46.524 153.926 C 49.769 153.926 52.406 156.563 52.406 159.805 Z " fill="rgb(38,170,225)"/></g></g></g></svg>