<?xml version="1.0" encoding="UTF-8" standalone="no"?><!-- Generator: Gravit.io --><svg xmlns="http://www.w3.org/2000/svg" xmlns:xlink="http://www.w3.org/1999/xlink" style="isolation:isolate" viewBox="0 0 204.879 256" width="204.879pt" height="256pt"><defs><clipPath id="_clipPath_ZT8eepdH2nV4nLIbEjW1IgYfj7hHDgpS"><rect width="204.879" height="256"/></clipPath></defs><g clip-path="url(#_clipPath_ZT8eepdH2nV4nLIbEjW1IgYfj7hHDgpS)"><g><g><linearGradient id="_lgradient_144" x1="0" y1="0.5" x2="1" y2="0.5" gradientTransform="matrix(204.879,0,0,240.893,0,0)" gradientUnits="userSpaceOnUse"><stop offset="0%" stop-opacity="1" style="stop-color:rgb(108,110,112)"/><stop offset="53.6%" stop-opacity="1" style="stop-color:rgb(63,62,64)"/><stop offset="100%" stop-opacity="1" style="stop-color:rgb(63,62,64)"/></linearGradient><path d=" M 4.07 0 C 1.851 0 0 0.847 0 1.894 L 0 35.163 L 0 41.544 L 0 68.93 L 0 75.312 L 0 102.709 L 0 109.091 L 0 136.475 L 0 142.857 L 0 240.893 L 204.879 240.893 L 204.879 1.894 C 204.879 0.847 203.06 0 200.816 0 L 4.07 0 Z " fill="url(#_lgradient_144)"/></g><g><linearGradient id="_lgradient_145" x1="0" y1="0.5" x2="1" y2="0.5" gradientTransform="matrix(204.879,0,0,8.725,0,247.275)" gradientUnits="userSpaceOnUse"><stop offset="0%" stop-opacity="1" style="stop-color:rgb(108,110,112)"/><stop offset="53.6%" stop-opacity="1" style="stop-color:rgb(63,62,64)"/><stop offset="100%" stop-opacity="1" style="stop-color:rgb(63,62,64)"/></linearGradient><path d=" M 0 247.275 L 0 254.093 C 0 255.152 1.851 256 4.07 256 L 200.816 256 C 203.06 256 204.879 255.152 204.879 254.093 L 204.879 247.275 L 0 247.275 Z " fill="url(#_lgradient_145)"/></g><g><path d=" M 52.826 235.296 L 16.616 235.296 L 16.616 14.639 L 52.826 14.639 L 52.826 235.296 Z " fill="rgb(41,38,39)"/></g><g><path d=" M 100.036 235.296 L 63.826 235.296 L 63.826 14.639 L 100.036 14.639 L 100.036 235.296 Z " fill="rgb(41,38,39)"/></g><g><path d=" M 147.243 235.296 L 111.03 235.296 L 111.03 14.639 L 147.243 14.639 L 147.243 235.296 Z " fill="rgb(41,38,39)"/></g><g><path d=" M 194.447 235.296 L 158.237 235.296 L 158.237 14.639 L 194.447 14.639 L 194.447 235.296 Z " fill="rgb(41,38,39)"/></g><g><linearGradient id="_lgradient_146" x1="0" y1="0.5" x2="0.7070469938480196" y2="-0.2071665634703599" gradientTransform="matrix(36.21,0,0,220.657,13.525,12.246)" gradientUnits="userSpaceOnUse"><stop offset="0%" stop-opacity="1" style="stop-color:rgb(204,205,207)"/><stop offset="6.7388%" stop-opacity="1" style="stop-color:rgb(177,179,181)"/><stop offset="100%" stop-opacity="1" style="stop-color:rgb(193,195,197)"/><stop offset="100%" stop-opacity="1" style="stop-color:rgb(210,211,213)"/></linearGradient><path d=" M 13.525 232.903 L 49.735 232.903 L 49.735 12.246 L 13.525 12.246 L 13.525 232.903 Z " fill="url(#_lgradient_146)"/></g><g><linearGradient id="_lgradient_147" x1="0" y1="0.5" x2="0.7070469938480196" y2="-0.2071665634703599" gradientTransform="matrix(36.21,0,0,220.657,60.734,12.246)" gradientUnits="userSpaceOnUse"><stop offset="0%" stop-opacity="1" style="stop-color:rgb(204,205,207)"/><stop offset="6.7388%" stop-opacity="1" style="stop-color:rgb(177,179,181)"/><stop offset="100%" stop-opacity="1" style="stop-color:rgb(193,195,197)"/><stop offset="100%" stop-opacity="1" style="stop-color:rgb(210,211,213)"/></linearGradient><path d=" M 60.734 232.903 L 96.944 232.903 L 96.944 12.246 L 60.734 12.246 L 60.734 232.903 Z " fill="url(#_lgradient_147)"/></g><g><linearGradient id="_lgradient_148" x1="0" y1="0.5" x2="0.707076286417242" y2="-0.2071372746407889" gradientTransform="matrix(36.213,0,0,220.657,107.938,12.246)" gradientUnits="userSpaceOnUse"><stop offset="0%" stop-opacity="1" style="stop-color:rgb(204,205,207)"/><stop offset="6.7388%" stop-opacity="1" style="stop-color:rgb(177,179,181)"/><stop offset="100%" stop-opacity="1" style="stop-color:rgb(193,195,197)"/><stop offset="100%" stop-opacity="1" style="stop-color:rgb(210,211,213)"/></linearGradient><path d=" M 107.938 232.903 L 144.151 232.903 L 144.151 12.246 L 107.938 12.246 L 107.938 232.903 Z " fill="url(#_lgradient_148)"/></g><g><linearGradient id="_lgradient_149" x1="0" y1="0.5" x2="0.7070469938480196" y2="-0.2071665634703599" gradientTransform="matrix(36.21,0,0,220.657,155.146,12.246)" gradientUnits="userSpaceOnUse"><stop offset="0%" stop-opacity="1" style="stop-color:rgb(204,205,207)"/><stop offset="6.7388%" stop-opacity="1" style="stop-color:rgb(177,179,181)"/><stop offset="100%" stop-opacity="1" style="stop-color:rgb(193,195,197)"/><stop offset="100%" stop-opacity="1" style="stop-color:rgb(210,211,213)"/></linearGradient><path d=" M 155.146 232.903 L 191.356 232.903 L 191.356 12.246 L 155.146 12.246 L 155.146 232.903 Z " fill="url(#_lgradient_149)"/></g><g><path d=" M 37.101 29.123 C 39.382 29.123 41.227 30.968 41.227 33.249 C 41.227 35.53 39.382 37.375 37.101 37.375 C 34.826 37.375 32.975 35.53 32.975 33.249 C 32.975 30.968 34.826 29.123 37.101 29.123 Z " fill="rgb(35,31,32)"/></g><g><path d=" M 37.101 39.731 C 39.382 39.731 41.227 41.576 41.227 43.857 C 41.227 46.138 39.382 47.983 37.101 47.983 C 34.826 47.983 32.975 46.138 32.975 43.857 C 32.975 41.576 34.826 39.731 37.101 39.731 Z " fill="rgb(35,31,32)"/></g><g><path d=" M 37.101 50.339 C 39.382 50.339 41.227 52.183 41.227 54.464 C 41.227 56.746 39.382 58.59 37.101 58.59 C 34.826 58.59 32.975 56.746 32.975 54.464 C 32.975 52.183 34.826 50.339 37.101 50.339 Z " fill="rgb(35,31,32)"/></g><g><path d=" M 26.157 29.123 C 28.432 29.123 30.283 30.968 30.283 33.249 C 30.283 35.53 28.432 37.375 26.157 37.375 C 23.876 37.375 22.032 35.53 22.032 33.249 C 22.032 30.968 23.876 29.123 26.157 29.123 Z " fill="rgb(35,31,32)"/></g><g><path d=" M 26.157 39.731 C 28.432 39.731 30.283 41.576 30.283 43.857 C 30.283 46.138 28.432 47.983 26.157 47.983 C 23.876 47.983 22.032 46.138 22.032 43.857 C 22.032 41.576 23.876 39.731 26.157 39.731 Z " fill="rgb(35,31,32)"/></g><g><path d=" M 26.157 50.339 C 28.432 50.339 30.283 52.183 30.283 54.464 C 30.283 56.746 28.432 58.59 26.157 58.59 C 23.876 58.59 22.032 56.746 22.032 54.464 C 22.032 52.183 23.876 50.339 26.157 50.339 Z " fill="rgb(35,31,32)"/></g><g><path d=" M 37.101 72.918 C 39.382 72.918 41.227 74.763 41.227 77.044 C 41.227 79.325 39.382 81.17 37.101 81.17 C 34.826 81.17 32.975 79.325 32.975 77.044 C 32.975 74.763 34.826 72.918 37.101 72.918 Z " fill="rgb(35,31,32)"/></g><g><path d=" M 37.101 83.525 C 39.382 83.525 41.227 85.37 41.227 87.651 C 41.227 89.932 39.382 91.777 37.101 91.777 C 34.826 91.777 32.975 89.932 32.975 87.651 C 32.975 85.37 34.826 83.525 37.101 83.525 Z " fill="rgb(35,31,32)"/></g><g><path d=" M 37.101 94.134 C 39.382 94.134 41.227 95.978 41.227 98.259 C 41.227 100.541 39.382 102.385 37.101 102.385 C 34.826 102.385 32.975 100.541 32.975 98.259 C 32.975 95.978 34.826 94.134 37.101 94.134 Z " fill="rgb(35,31,32)"/></g><g><path d=" M 26.157 72.918 C 28.432 72.918 30.283 74.763 30.283 77.044 C 30.283 79.325 28.432 81.17 26.157 81.17 C 23.876 81.17 22.032 79.325 22.032 77.044 C 22.032 74.763 23.876 72.918 26.157 72.918 Z " fill="rgb(35,31,32)"/></g><g><path d=" M 26.157 83.525 C 28.432 83.525 30.283 85.37 30.283 87.651 C 30.283 89.932 28.432 91.777 26.157 91.777 C 23.876 91.777 22.032 89.932 22.032 87.651 C 22.032 85.37 23.876 83.525 26.157 83.525 Z " fill="rgb(35,31,32)"/></g><g><path d=" M 26.157 94.134 C 28.432 94.134 30.283 95.978 30.283 98.259 C 30.283 100.541 28.432 102.385 26.157 102.385 C 23.876 102.385 22.032 100.541 22.032 98.259 C 22.032 95.978 23.876 94.134 26.157 94.134 Z " fill="rgb(35,31,32)"/></g><g><path d=" M 22.032 62.317 L 41.228 62.317 L 41.228 68.699 L 22.032 68.699 L 22.032 62.317 Z " fill="rgb(38,170,225)"/></g><g><path d=" M 22.032 19.345 L 41.228 19.345 L 41.228 25.727 L 22.032 25.727 L 22.032 19.345 Z " fill="rgb(38,170,225)"/></g><g><path d=" M 84.311 29.123 C 86.593 29.123 88.437 30.968 88.437 33.249 C 88.437 35.53 86.593 37.375 84.311 37.375 C 82.036 37.375 80.186 35.53 80.186 33.249 C 80.186 30.968 82.036 29.123 84.311 29.123 Z " fill="rgb(35,31,32)"/></g><g><path d=" M 84.311 39.731 C 86.593 39.731 88.437 41.576 88.437 43.857 C 88.437 46.138 86.593 47.983 84.311 47.983 C 82.036 47.983 80.186 46.138 80.186 43.857 C 80.186 41.576 82.036 39.731 84.311 39.731 Z " fill="rgb(35,31,32)"/></g><g><path d=" M 84.311 50.339 C 86.593 50.339 88.437 52.183 88.437 54.464 C 88.437 56.746 86.593 58.59 84.311 58.59 C 82.036 58.59 80.186 56.746 80.186 54.464 C 80.186 52.183 82.036 50.339 84.311 50.339 Z " fill="rgb(35,31,32)"/></g><g><path d=" M 73.368 29.123 C 75.642 29.123 77.494 30.968 77.494 33.249 C 77.494 35.53 75.642 37.375 73.368 37.375 C 71.086 37.375 69.241 35.53 69.241 33.249 C 69.241 30.968 71.086 29.123 73.368 29.123 Z " fill="rgb(35,31,32)"/></g><g><path d=" M 73.368 39.731 C 75.642 39.731 77.494 41.576 77.494 43.857 C 77.494 46.138 75.642 47.983 73.368 47.983 C 71.086 47.983 69.241 46.138 69.241 43.857 C 69.241 41.576 71.086 39.731 73.368 39.731 Z " fill="rgb(35,31,32)"/></g><g><path d=" M 73.368 50.339 C 75.642 50.339 77.494 52.183 77.494 54.464 C 77.494 56.746 75.642 58.59 73.368 58.59 C 71.086 58.59 69.241 56.746 69.241 54.464 C 69.241 52.183 71.086 50.339 73.368 50.339 Z " fill="rgb(35,31,32)"/></g><g><path d=" M 84.311 72.918 C 86.593 72.918 88.437 74.763 88.437 77.044 C 88.437 79.325 86.593 81.17 84.311 81.17 C 82.036 81.17 80.186 79.325 80.186 77.044 C 80.186 74.763 82.036 72.918 84.311 72.918 Z " fill="rgb(35,31,32)"/></g><g><path d=" M 84.311 83.525 C 86.593 83.525 88.437 85.37 88.437 87.651 C 88.437 89.932 86.593 91.777 84.311 91.777 C 82.036 91.777 80.186 89.932 80.186 87.651 C 80.186 85.37 82.036 83.525 84.311 83.525 Z " fill="rgb(35,31,32)"/></g><g><path d=" M 84.311 94.134 C 86.593 94.134 88.437 95.978 88.437 98.259 C 88.437 100.541 86.593 102.385 84.311 102.385 C 82.036 102.385 80.186 100.541 80.186 98.259 C 80.186 95.978 82.036 94.134 84.311 94.134 Z " fill="rgb(35,31,32)"/></g><g><path d=" M 73.368 72.918 C 75.642 72.918 77.494 74.763 77.494 77.044 C 77.494 79.325 75.642 81.17 73.368 81.17 C 71.086 81.17 69.241 79.325 69.241 77.044 C 69.241 74.763 71.086 72.918 73.368 72.918 Z " fill="rgb(35,31,32)"/></g><g><path d=" M 73.368 83.525 C 75.642 83.525 77.494 85.37 77.494 87.651 C 77.494 89.932 75.642 91.777 73.368 91.777 C 71.086 91.777 69.241 89.932 69.241 87.651 C 69.241 85.37 71.086 83.525 73.368 83.525 Z " fill="rgb(35,31,32)"/></g><g><path d=" M 73.368 94.134 C 75.642 94.134 77.494 95.978 77.494 98.259 C 77.494 100.541 75.642 102.385 73.368 102.385 C 71.086 102.385 69.241 100.541 69.241 98.259 C 69.241 95.978 71.086 94.134 73.368 94.134 Z " fill="rgb(35,31,32)"/></g><g><path d=" M 69.242 62.317 L 88.438 62.317 L 88.438 68.699 L 69.242 68.699 L 69.242 62.317 Z " fill="rgb(38,170,225)"/></g><g><path d=" M 69.242 19.345 L 88.438 19.345 L 88.438 25.727 L 69.242 25.727 L 69.242 19.345 Z " fill="rgb(38,170,225)"/></g><g><path d=" M 131.518 29.123 C 133.799 29.123 135.644 30.968 135.644 33.249 C 135.644 35.53 133.799 37.375 131.518 37.375 C 129.243 37.375 127.392 35.53 127.392 33.249 C 127.392 30.968 129.243 29.123 131.518 29.123 Z " fill="rgb(35,31,32)"/></g><g><path d=" M 131.518 39.731 C 133.799 39.731 135.644 41.576 135.644 43.857 C 135.644 46.138 133.799 47.983 131.518 47.983 C 129.243 47.983 127.392 46.138 127.392 43.857 C 127.392 41.576 129.243 39.731 131.518 39.731 Z " fill="rgb(35,31,32)"/></g><g><path d=" M 131.518 50.339 C 133.799 50.339 135.644 52.183 135.644 54.464 C 135.644 56.746 133.799 58.59 131.518 58.59 C 129.243 58.59 127.392 56.746 127.392 54.464 C 127.392 52.183 129.243 50.339 131.518 50.339 Z " fill="rgb(35,31,32)"/></g><g><path d=" M 120.575 29.123 C 122.849 29.123 124.701 30.968 124.701 33.249 C 124.701 35.53 122.849 37.375 120.575 37.375 C 118.294 37.375 116.449 35.53 116.449 33.249 C 116.449 30.968 118.294 29.123 120.575 29.123 Z " fill="rgb(35,31,32)"/></g><g><path d=" M 120.575 39.731 C 122.849 39.731 124.701 41.576 124.701 43.857 C 124.701 46.138 122.849 47.983 120.575 47.983 C 118.294 47.983 116.449 46.138 116.449 43.857 C 116.449 41.576 118.294 39.731 120.575 39.731 Z " fill="rgb(35,31,32)"/></g><g><path d=" M 120.575 50.339 C 122.849 50.339 124.701 52.183 124.701 54.464 C 124.701 56.746 122.849 58.59 120.575 58.59 C 118.294 58.59 116.449 56.746 116.449 54.464 C 116.449 52.183 118.294 50.339 120.575 50.339 Z " fill="rgb(35,31,32)"/></g><g><path d=" M 131.518 72.918 C 133.799 72.918 135.644 74.763 135.644 77.044 C 135.644 79.325 133.799 81.17 131.518 81.17 C 129.243 81.17 127.392 79.325 127.392 77.044 C 127.392 74.763 129.243 72.918 131.518 72.918 Z " fill="rgb(35,31,32)"/></g><g><path d=" M 131.518 83.525 C 133.799 83.525 135.644 85.37 135.644 87.651 C 135.644 89.932 133.799 91.777 131.518 91.777 C 129.243 91.777 127.392 89.932 127.392 87.651 C 127.392 85.37 129.243 83.525 131.518 83.525 Z " fill="rgb(35,31,32)"/></g><g><path d=" M 131.518 94.134 C 133.799 94.134 135.644 95.978 135.644 98.259 C 135.644 100.541 133.799 102.385 131.518 102.385 C 129.243 102.385 127.392 100.541 127.392 98.259 C 127.392 95.978 129.243 94.134 131.518 94.134 Z " fill="rgb(35,31,32)"/></g><g><path d=" M 120.575 72.918 C 122.849 72.918 124.701 74.763 124.701 77.044 C 124.701 79.325 122.849 81.17 120.575 81.17 C 118.294 81.17 116.449 79.325 116.449 77.044 C 116.449 74.763 118.294 72.918 120.575 72.918 Z " fill="rgb(35,31,32)"/></g><g><path d=" M 120.575 83.525 C 122.849 83.525 124.701 85.37 124.701 87.651 C 124.701 89.932 122.849 91.777 120.575 91.777 C 118.294 91.777 116.449 89.932 116.449 87.651 C 116.449 85.37 118.294 83.525 120.575 83.525 Z " fill="rgb(35,31,32)"/></g><g><path d=" M 120.575 94.134 C 122.849 94.134 124.701 95.978 124.701 98.259 C 124.701 100.541 122.849 102.385 120.575 102.385 C 118.294 102.385 116.449 100.541 116.449 98.259 C 116.449 95.978 118.294 94.134 120.575 94.134 Z " fill="rgb(35,31,32)"/></g><g><path d=" M 116.449 62.317 L 135.645 62.317 L 135.645 68.699 L 116.449 68.699 L 116.449 62.317 Z " fill="rgb(38,170,225)"/></g><g><path d=" M 116.449 19.345 L 135.645 19.345 L 135.645 25.727 L 116.449 25.727 L 116.449 19.345 Z " fill="rgb(38,170,225)"/></g><g><path d=" M 178.729 29.123 C 181.01 29.123 182.855 30.968 182.855 33.249 C 182.855 35.53 181.01 37.375 178.729 37.375 C 176.448 37.375 174.603 35.53 174.603 33.249 C 174.603 30.968 176.448 29.123 178.729 29.123 Z " fill="rgb(35,31,32)"/></g><g><path d=" M 178.729 39.731 C 181.01 39.731 182.855 41.576 182.855 43.857 C 182.855 46.138 181.01 47.983 178.729 47.983 C 176.448 47.983 174.603 46.138 174.603 43.857 C 174.603 41.576 176.448 39.731 178.729 39.731 Z " fill="rgb(35,31,32)"/></g><g><path d=" M 178.729 50.339 C 181.01 50.339 182.855 52.183 182.855 54.464 C 182.855 56.746 181.01 58.59 178.729 58.59 C 176.448 58.59 174.603 56.746 174.603 54.464 C 174.603 52.183 176.448 50.339 178.729 50.339 Z " fill="rgb(35,31,32)"/></g><g><path d=" M 167.784 29.123 C 170.053 29.123 171.91 30.968 171.91 33.249 C 171.91 35.53 170.053 37.375 167.784 37.375 C 165.503 37.375 163.659 35.53 163.659 33.249 C 163.659 30.968 165.503 29.123 167.784 29.123 Z " fill="rgb(35,31,32)"/></g><g><path d=" M 167.784 39.731 C 170.053 39.731 171.91 41.576 171.91 43.857 C 171.91 46.138 170.053 47.983 167.784 47.983 C 165.503 47.983 163.659 46.138 163.659 43.857 C 163.659 41.576 165.503 39.731 167.784 39.731 Z " fill="rgb(35,31,32)"/></g><g><path d=" M 167.784 50.339 C 170.053 50.339 171.91 52.183 171.91 54.464 C 171.91 56.746 170.053 58.59 167.784 58.59 C 165.503 58.59 163.659 56.746 163.659 54.464 C 163.659 52.183 165.503 50.339 167.784 50.339 Z " fill="rgb(35,31,32)"/></g><g><path d=" M 178.729 72.918 C 181.01 72.918 182.855 74.763 182.855 77.044 C 182.855 79.325 181.01 81.17 178.729 81.17 C 176.448 81.17 174.603 79.325 174.603 77.044 C 174.603 74.763 176.448 72.918 178.729 72.918 Z " fill="rgb(35,31,32)"/></g><g><path d=" M 178.729 83.525 C 181.01 83.525 182.855 85.37 182.855 87.651 C 182.855 89.932 181.01 91.777 178.729 91.777 C 176.448 91.777 174.603 89.932 174.603 87.651 C 174.603 85.37 176.448 83.525 178.729 83.525 Z " fill="rgb(35,31,32)"/></g><g><path d=" M 178.729 94.134 C 181.01 94.134 182.855 95.978 182.855 98.259 C 182.855 100.541 181.01 102.385 178.729 102.385 C 176.448 102.385 174.603 100.541 174.603 98.259 C 174.603 95.978 176.448 94.134 178.729 94.134 Z " fill="rgb(35,31,32)"/></g><g><path d=" M 167.784 72.918 C 170.053 72.918 171.91 74.763 171.91 77.044 C 171.91 79.325 170.053 81.17 167.784 81.17 C 165.503 81.17 163.659 79.325 163.659 77.044 C 163.659 74.763 165.503 72.918 167.784 72.918 Z " fill="rgb(35,31,32)"/></g><g><path d=" M 167.784 83.525 C 170.053 83.525 171.91 85.37 171.91 87.651 C 171.91 89.932 170.053 91.777 167.784 91.777 C 165.503 91.777 163.659 89.932 163.659 87.651 C 163.659 85.37 165.503 83.525 167.784 83.525 Z " fill="rgb(35,31,32)"/></g><g><path d=" M 167.784 94.134 C 170.053 94.134 171.91 95.978 171.91 98.259 C 171.91 100.541 170.053 102.385 167.784 102.385 C 165.503 102.385 163.659 100.541 163.659 98.259 C 163.659 95.978 165.503 94.134 167.784 94.134 Z " fill="rgb(35,31,32)"/></g><g><path d=" M 163.659 62.317 L 182.855 62.317 L 182.855 68.699 L 163.659 68.699 L 163.659 62.317 Z " fill="rgb(38,170,225)"/></g><g><path d=" M 163.659 19.345 L 182.855 19.345 L 182.855 25.727 L 163.659 25.727 L 163.659 19.345 Z " fill="rgb(38,170,225)"/></g><g><path d=" M 204.879 240.893 L 0 240.893 L 0 247.275 L 204.879 247.275 L 204.879 240.893 Z " fill="rgb(0,0,0)"/></g></g></g></svg>