<?xml version="1.0" encoding="UTF-8" standalone="no"?><!-- Generator: Gravit.io --><svg xmlns="http://www.w3.org/2000/svg" xmlns:xlink="http://www.w3.org/1999/xlink" style="isolation:isolate" viewBox="0 0 255.916 116.501" width="255.916pt" height="116.501pt"><defs><clipPath id="_clipPath_iSADijq289A477Z2uoZcDJAXAdDqf4iC"><rect width="255.916" height="116.501"/></clipPath></defs><g clip-path="url(#_clipPath_iSADijq289A477Z2uoZcDJAXAdDqf4iC)"><g><g><linearGradient id="_lgradient_150" x1="0" y1="0.5" x2="1" y2="0.5" gradientTransform="matrix(179.836,0,0,116.501,0,0)" gradientUnits="userSpaceOnUse"><stop offset="0%" stop-opacity="1" style="stop-color:rgb(108,110,112)"/><stop offset="53.6%" stop-opacity="1" style="stop-color:rgb(63,62,64)"/><stop offset="100%" stop-opacity="1" style="stop-color:rgb(63,62,64)"/></linearGradient><path d=" M 0 0 L 0 112.661 L 10.726 112.661 L 12.401 115.896 L 28.457 115.896 L 29.698 112.661 L 150.063 112.661 L 151.56 116.501 L 167.564 116.501 L 169.539 112.661 L 179.836 112.661 L 179.836 0 L 0 0 Z " fill="url(#_lgradient_150)"/></g><g><path d=" M 170.651 103.103 C 169.639 103.103 168.823 97.254 168.823 90.035 C 168.823 82.83 169.639 76.98 170.651 76.98 C 171.672 76.98 172.498 82.83 172.498 90.035 C 172.498 97.254 171.672 103.103 170.651 103.103 Z " fill="rgb(35,31,32)"/></g><g><path d=" M 8.337 103.103 C 7.33 103.103 6.504 97.254 6.504 90.035 C 6.504 82.83 7.33 76.98 8.337 76.98 C 9.358 76.98 10.179 82.83 10.179 90.035 C 10.179 97.254 9.358 103.103 8.337 103.103 Z " fill="rgb(35,31,32)"/></g><g><linearGradient id="_lgradient_151" x1="0" y1="0.5" x2="1" y2="0.5" gradientTransform="matrix(162.615,0,0,25.823,8.337,77.118)" gradientUnits="userSpaceOnUse"><stop offset="0%" stop-opacity="1" style="stop-color:rgb(187,189,191)"/><stop offset="50.2%" stop-opacity="1" style="stop-color:rgb(230,231,232)"/><stop offset="100%" stop-opacity="1" style="stop-color:rgb(219,220,222)"/></linearGradient><path d=" M 8.337 102.941 L 170.952 102.941 L 170.952 77.118 L 8.337 77.118 L 8.337 102.941 Z " fill="url(#_lgradient_151)"/></g><g><path d=" M 86.247 93.565 L 81.781 93.565 L 81.781 96.19 L 79.815 96.19 L 79.815 98.943 L 71.961 98.943 L 71.961 96.19 L 69.876 96.19 L 69.876 93.565 L 66.073 93.565 L 66.073 81.001 L 86.247 81.001 L 86.247 93.565 Z " fill="rgb(35,31,32)"/></g><g><path d=" M 112.681 93.565 L 108.22 93.565 L 108.22 96.19 L 106.259 96.19 L 106.259 98.943 L 98.4 98.943 L 98.4 96.19 L 96.315 96.19 L 96.315 93.565 L 92.507 93.565 L 92.507 81.001 L 112.681 81.001 L 112.681 93.565 Z " fill="rgb(35,31,32)"/></g><g><path d=" M 139.106 93.565 L 134.639 93.565 L 134.639 96.19 L 132.673 96.19 L 132.673 98.943 L 124.814 98.943 L 124.814 96.19 L 122.73 96.19 L 122.73 93.565 L 118.922 93.565 L 118.922 81.001 L 139.106 81.001 L 139.106 93.565 Z " fill="rgb(35,31,32)"/></g><g><path d=" M 33.378 93.565 L 28.912 93.565 L 28.912 96.19 L 26.946 96.19 L 26.946 98.943 L 19.092 98.943 L 19.092 96.19 L 17.007 96.19 L 17.007 93.565 L 13.204 93.565 L 13.204 81.001 L 33.378 81.001 L 33.378 93.565 Z " fill="rgb(35,31,32)"/></g><g><path d=" M 59.813 93.565 L 55.351 93.565 L 55.351 96.19 L 53.391 96.19 L 53.391 98.943 L 45.532 98.943 L 45.532 96.19 L 43.447 96.19 L 43.447 93.565 L 39.639 93.565 L 39.639 81.001 L 59.813 81.001 L 59.813 93.565 Z " fill="rgb(35,31,32)"/></g><g><path d=" M 165.798 94.114 L 161.337 94.114 L 161.337 96.739 L 159.37 96.739 L 159.37 99.492 L 151.512 99.492 L 151.512 96.739 L 149.417 96.739 L 149.417 94.114 L 145.619 94.114 L 145.619 81.546 L 165.798 81.546 L 165.798 94.114 Z " fill="rgb(35,31,32)"/></g><g><path d=" M 170.651 68.769 C 169.639 68.769 168.823 62.921 168.823 55.701 C 168.823 48.497 169.639 42.647 170.651 42.647 C 171.672 42.647 172.498 48.497 172.498 55.701 C 172.498 62.921 171.672 68.769 170.651 68.769 Z " fill="rgb(35,31,32)"/></g><g><path d=" M 8.337 68.769 C 7.33 68.769 6.504 62.921 6.504 55.701 C 6.504 48.497 7.33 42.647 8.337 42.647 C 9.358 42.647 10.179 48.497 10.179 55.701 C 10.179 62.921 9.358 68.769 8.337 68.769 Z " fill="rgb(35,31,32)"/></g><g><linearGradient id="_lgradient_152" x1="0" y1="0.5" x2="1" y2="0.5" gradientTransform="matrix(162.615,0,0,25.824,8.337,42.783)" gradientUnits="userSpaceOnUse"><stop offset="0%" stop-opacity="1" style="stop-color:rgb(187,189,191)"/><stop offset="50.2%" stop-opacity="1" style="stop-color:rgb(230,231,232)"/><stop offset="100%" stop-opacity="1" style="stop-color:rgb(219,220,222)"/></linearGradient><path d=" M 8.337 68.607 L 170.952 68.607 L 170.952 42.783 L 8.337 42.783 L 8.337 68.607 Z " fill="url(#_lgradient_152)"/></g><g><path d=" M 86.247 59.231 L 81.781 59.231 L 81.781 61.856 L 79.815 61.856 L 79.815 64.609 L 71.961 64.609 L 71.961 61.856 L 69.876 61.856 L 69.876 59.231 L 66.073 59.231 L 66.073 46.667 L 86.247 46.667 L 86.247 59.231 Z " fill="rgb(35,31,32)"/></g><g><path d=" M 112.681 59.231 L 108.22 59.231 L 108.22 61.856 L 106.259 61.856 L 106.259 64.609 L 98.4 64.609 L 98.4 61.856 L 96.315 61.856 L 96.315 59.231 L 92.507 59.231 L 92.507 46.667 L 112.681 46.667 L 112.681 59.231 Z " fill="rgb(35,31,32)"/></g><g><path d=" M 139.106 59.231 L 134.639 59.231 L 134.639 61.856 L 132.673 61.856 L 132.673 64.609 L 124.814 64.609 L 124.814 61.856 L 122.73 61.856 L 122.73 59.231 L 118.922 59.231 L 118.922 46.667 L 139.106 46.667 L 139.106 59.231 Z " fill="rgb(35,31,32)"/></g><g><path d=" M 33.378 59.231 L 28.912 59.231 L 28.912 61.856 L 26.946 61.856 L 26.946 64.609 L 19.092 64.609 L 19.092 61.856 L 17.007 61.856 L 17.007 59.231 L 13.204 59.231 L 13.204 46.667 L 33.378 46.667 L 33.378 59.231 Z " fill="rgb(35,31,32)"/></g><g><path d=" M 59.813 59.231 L 55.351 59.231 L 55.351 61.856 L 53.391 61.856 L 53.391 64.609 L 45.532 64.609 L 45.532 61.856 L 43.447 61.856 L 43.447 59.231 L 39.639 59.231 L 39.639 46.667 L 59.813 46.667 L 59.813 59.231 Z " fill="rgb(35,31,32)"/></g><g><path d=" M 165.798 59.78 L 161.337 59.78 L 161.337 62.405 L 159.37 62.405 L 159.37 65.158 L 151.512 65.158 L 151.512 62.405 L 149.417 62.405 L 149.417 59.78 L 145.619 59.78 L 145.619 47.212 L 165.798 47.212 L 165.798 59.78 Z " fill="rgb(35,31,32)"/></g><g><path d=" M 170.651 34.436 C 169.639 34.436 168.823 28.587 168.823 21.368 C 168.823 14.163 169.639 8.313 170.651 8.313 C 171.672 8.313 172.498 14.163 172.498 21.368 C 172.498 28.587 171.672 34.436 170.651 34.436 Z " fill="rgb(35,31,32)"/></g><g><path d=" M 8.337 34.436 C 7.33 34.436 6.504 28.587 6.504 21.368 C 6.504 14.163 7.33 8.313 8.337 8.313 C 9.358 8.313 10.179 14.163 10.179 21.368 C 10.179 28.587 9.358 34.436 8.337 34.436 Z " fill="rgb(35,31,32)"/></g><g><linearGradient id="_lgradient_153" x1="0" y1="0.5" x2="1" y2="0.5" gradientTransform="matrix(162.615,0,0,25.824,8.337,8.45)" gradientUnits="userSpaceOnUse"><stop offset="0%" stop-opacity="1" style="stop-color:rgb(187,189,191)"/><stop offset="50.2%" stop-opacity="1" style="stop-color:rgb(230,231,232)"/><stop offset="100%" stop-opacity="1" style="stop-color:rgb(219,220,222)"/></linearGradient><path d=" M 8.337 34.274 L 170.952 34.274 L 170.952 8.45 L 8.337 8.45 L 8.337 34.274 Z " fill="url(#_lgradient_153)"/></g><g><path d=" M 86.247 24.898 L 81.781 24.898 L 81.781 27.523 L 79.815 27.523 L 79.815 30.276 L 71.961 30.276 L 71.961 27.523 L 69.876 27.523 L 69.876 24.898 L 66.073 24.898 L 66.073 12.334 L 86.247 12.334 L 86.247 24.898 Z " fill="rgb(35,31,32)"/></g><g><path d=" M 112.681 24.898 L 108.22 24.898 L 108.22 27.523 L 106.259 27.523 L 106.259 30.276 L 98.4 30.276 L 98.4 27.523 L 96.315 27.523 L 96.315 24.898 L 92.507 24.898 L 92.507 12.334 L 112.681 12.334 L 112.681 24.898 Z " fill="rgb(35,31,32)"/></g><g><path d=" M 139.106 24.898 L 134.639 24.898 L 134.639 27.523 L 132.673 27.523 L 132.673 30.276 L 124.814 30.276 L 124.814 27.523 L 122.73 27.523 L 122.73 24.898 L 118.922 24.898 L 118.922 12.334 L 139.106 12.334 L 139.106 24.898 Z " fill="rgb(35,31,32)"/></g><g><path d=" M 33.378 24.898 L 28.912 24.898 L 28.912 27.523 L 26.946 27.523 L 26.946 30.276 L 19.092 30.276 L 19.092 27.523 L 17.007 27.523 L 17.007 24.898 L 13.204 24.898 L 13.204 12.334 L 33.378 12.334 L 33.378 24.898 Z " fill="rgb(35,31,32)"/></g><g><path d=" M 59.813 24.898 L 55.351 24.898 L 55.351 27.523 L 53.391 27.523 L 53.391 30.276 L 45.532 30.276 L 45.532 27.523 L 43.447 27.523 L 43.447 24.898 L 39.639 24.898 L 39.639 12.334 L 59.813 12.334 L 59.813 24.898 Z " fill="rgb(35,31,32)"/></g><g><path d=" M 165.798 25.447 L 161.337 25.447 L 161.337 28.072 L 159.37 28.072 L 159.37 30.825 L 151.512 30.825 L 151.512 28.072 L 149.417 28.072 L 149.417 25.447 L 145.619 25.447 L 145.619 12.879 L 165.798 12.879 L 165.798 25.447 Z " fill="rgb(35,31,32)"/></g><g><linearGradient id="_lgradient_154" x1="0" y1="0.5" x2="1" y2="0.5" gradientTransform="matrix(19.086,0,0,3.255,10.678,112.665)" gradientUnits="userSpaceOnUse"><stop offset="0%" stop-opacity="1" style="stop-color:rgb(34,31,32)"/><stop offset="50.2%" stop-opacity="1" style="stop-color:rgb(69,68,70)"/><stop offset="100%" stop-opacity="1" style="stop-color:rgb(34,31,32)"/></linearGradient><path d=" M 10.678 112.665 L 12.367 115.92 L 28.514 115.92 L 29.764 112.665 L 10.678 112.665 Z " fill="url(#_lgradient_154)"/></g><g><linearGradient id="_lgradient_155" x1="0" y1="0.5" x2="1" y2="0.5" gradientTransform="matrix(19.087,0,0,3.255,149.966,112.665)" gradientUnits="userSpaceOnUse"><stop offset="0%" stop-opacity="1" style="stop-color:rgb(34,31,32)"/><stop offset="50.2%" stop-opacity="1" style="stop-color:rgb(69,68,70)"/><stop offset="100%" stop-opacity="1" style="stop-color:rgb(34,31,32)"/></linearGradient><path d=" M 149.966 112.665 L 151.657 115.92 L 167.803 115.92 L 169.053 112.665 L 149.966 112.665 Z " fill="url(#_lgradient_155)"/></g><g><linearGradient id="_lgradient_156" x1="0" y1="0.5" x2="6.123233995736766e-17" y2="-0.5" gradientTransform="matrix(97.712,0,0,97.713,158.204,7.722)" gradientUnits="userSpaceOnUse"><stop offset="0%" stop-opacity="1" style="stop-color:rgb(7,59,107)"/><stop offset="12.4%" stop-opacity="1" style="stop-color:rgb(7,59,107)"/><stop offset="100%" stop-opacity="1" style="stop-color:rgb(24,92,156)"/></linearGradient><path d=" M 158.204 56.579 C 158.204 83.561 180.077 105.435 207.061 105.435 C 234.043 105.435 255.916 83.561 255.916 56.579 C 255.916 29.596 234.043 7.722 207.061 7.722 C 180.077 7.722 158.204 29.596 158.204 56.579 Z " fill="url(#_lgradient_156)"/></g><g><linearGradient id="_lgradient_157" x1="0" y1="0.5" x2="6.123233995736766e-17" y2="-0.5" gradientTransform="matrix(26.517,0,0,33.264,193.802,11.862)" gradientUnits="userSpaceOnUse"><stop offset="0%" stop-opacity="1" style="stop-color:rgb(177,179,181)"/><stop offset="78.10000000000001%" stop-opacity="1" style="stop-color:rgb(219,220,222)"/><stop offset="100%" stop-opacity="1" style="stop-color:rgb(219,220,222)"/></linearGradient><path d=" M 193.802 33.432 L 201.263 33.432 L 201.263 45.126 L 212.857 45.126 L 212.857 33.432 L 220.319 33.432 L 207.061 11.862 L 193.802 33.432 Z " fill="url(#_lgradient_157)"/></g><g><linearGradient id="_lgradient_158" x1="0" y1="0.5" x2="6.123233995736766e-17" y2="-0.5" gradientTransform="matrix(26.517,0,0,33.263,193.802,68.032)" gradientUnits="userSpaceOnUse"><stop offset="0%" stop-opacity="1" style="stop-color:rgb(177,179,181)"/><stop offset="78.10000000000001%" stop-opacity="1" style="stop-color:rgb(219,220,222)"/><stop offset="100%" stop-opacity="1" style="stop-color:rgb(219,220,222)"/></linearGradient><path d=" M 201.263 68.032 L 201.263 79.725 L 193.802 79.725 L 207.061 101.295 L 220.319 79.725 L 212.857 79.725 L 212.857 68.032 L 201.263 68.032 Z " fill="url(#_lgradient_158)"/></g><g><linearGradient id="_lgradient_159" x1="0" y1="0.5" x2="6.123233995736766e-17" y2="-0.5" gradientTransform="matrix(33.262,0,0,26.517,162.345,43.32)" gradientUnits="userSpaceOnUse"><stop offset="0%" stop-opacity="1" style="stop-color:rgb(177,179,181)"/><stop offset="78.10000000000001%" stop-opacity="1" style="stop-color:rgb(219,220,222)"/><stop offset="100%" stop-opacity="1" style="stop-color:rgb(219,220,222)"/></linearGradient><path d=" M 162.345 56.579 L 183.914 69.837 L 183.914 62.377 L 195.607 62.377 L 195.607 50.781 L 183.914 50.781 L 183.914 43.32 L 162.345 56.579 Z " fill="url(#_lgradient_159)"/></g><g><linearGradient id="_lgradient_160" x1="0" y1="0.5" x2="6.123233995736766e-17" y2="-0.5" gradientTransform="matrix(33.263,0,0,26.517,218.513,43.32)" gradientUnits="userSpaceOnUse"><stop offset="0%" stop-opacity="1" style="stop-color:rgb(177,179,181)"/><stop offset="78.10000000000001%" stop-opacity="1" style="stop-color:rgb(219,220,222)"/><stop offset="100%" stop-opacity="1" style="stop-color:rgb(219,220,222)"/></linearGradient><path d=" M 230.206 50.781 L 218.513 50.781 L 218.513 62.377 L 230.206 62.377 L 230.206 69.837 L 251.776 56.579 L 230.206 43.32 L 230.206 50.781 Z " fill="url(#_lgradient_160)"/></g></g></g></svg>