<?xml version="1.0" encoding="UTF-8" standalone="no"?><!-- Generator: Gravit.io --><svg xmlns="http://www.w3.org/2000/svg" xmlns:xlink="http://www.w3.org/1999/xlink" style="isolation:isolate" viewBox="0 0 256 230.373" width="256pt" height="230.373pt"><defs><clipPath id="_clipPath_dAVXkCaFiwMR6oOm8mFjT0mpFPz1jdm0"><rect width="256" height="230.373"/></clipPath></defs><g clip-path="url(#_clipPath_dAVXkCaFiwMR6oOm8mFjT0mpFPz1jdm0)"><g><g><linearGradient id="_lgradient_164" x1="0" y1="0.5" x2="6.123233995736766e-17" y2="-0.5" gradientTransform="matrix(256,0,0,124.257,0,65.699)" gradientUnits="userSpaceOnUse"><stop offset="0%" stop-opacity="1" style="stop-color:rgb(46,44,45)"/><stop offset="69.5%" stop-opacity="1" style="stop-color:rgb(46,44,45)"/><stop offset="100%" stop-opacity="1" style="stop-color:rgb(87,88,90)"/></linearGradient><path d=" M 46.353 65.699 L 46.353 65.776 L 24.612 65.776 C 11.02 65.776 0 76.414 0 89.551 L 0 136.974 L 0 163.738 L 0 189.956 L 45.621 189.956 L 45.621 154.768 L 210.257 154.768 L 210.257 189.956 L 256 189.956 L 256 89.551 C 256 76.414 244.98 65.776 231.421 65.776 L 209.658 65.776 L 209.658 65.699 L 46.353 65.699 Z " fill="url(#_lgradient_164)"/></g><g><path d=" M 241.005 120.123 C 241.005 123.061 238.627 125.445 235.689 125.445 C 232.751 125.445 230.373 123.061 230.373 120.123 C 230.373 117.191 232.751 114.812 235.689 114.812 C 238.627 114.812 241.005 117.191 241.005 120.123 Z " fill="rgb(38,170,225)"/></g><g><path d=" M 45.682 154.768 L 45.682 189.957 L 45.815 189.957 L 45.815 214.935 C 45.815 217.995 48.293 220.467 51.325 220.467 L 204.813 220.467 C 207.84 220.467 210.323 217.995 210.323 214.935 L 210.323 189.957 L 210.323 154.768 L 45.682 154.768 Z " fill="rgb(125,130,134)"/></g><g><path d=" M 194.026 230.373 L 61.974 230.373 L 61.974 163.948 L 194.026 163.948 L 194.026 230.373 Z " fill="rgb(255,255,255)"/></g><g><path d=" M 210.323 143.576 L 45.682 143.576 L 45.682 163.948 L 210.323 163.948 L 210.323 143.576 Z " fill="rgb(0,0,0)"/></g><g><path d=" M 210.323 65.699 L 210.323 30.51 L 210.19 30.51 L 210.19 5.532 C 210.19 2.478 207.707 0 204.68 0 L 51.192 0 C 48.16 0 45.682 2.478 45.682 5.532 L 45.682 30.51 L 45.682 65.699 L 210.323 65.699 Z " fill="rgb(125,130,134)"/></g></g></g></svg>