<?xml version="1.0" encoding="UTF-8" standalone="no"?><!-- Generator: Gravit.io --><svg xmlns="http://www.w3.org/2000/svg" xmlns:xlink="http://www.w3.org/1999/xlink" style="isolation:isolate" viewBox="0 0 256 246.668" width="256pt" height="246.668pt"><defs><clipPath id="_clipPath_9XmIal4YSZZbsm0PKlryKnOEnWr51ID9"><rect width="256" height="246.668"/></clipPath></defs><g clip-path="url(#_clipPath_9XmIal4YSZZbsm0PKlryKnOEnWr51ID9)"><g><g><linearGradient id="_lgradient_165" x1="0" y1="0.5" x2="1" y2="0.5" gradientTransform="matrix(37.402,0,0,25.953,128.153,5.5)" gradientUnits="userSpaceOnUse"><stop offset="0%" stop-opacity="1" style="stop-color:rgb(108,110,112)"/><stop offset="100%" stop-opacity="1" style="stop-color:rgb(63,62,64)"/></linearGradient><path d=" M 165.555 26.277 L 128.153 31.453 L 130.15 5.5 L 163.624 12.326 L 165.555 26.277 Z " fill="url(#_lgradient_165)"/></g><g><linearGradient id="_lgradient_166" x1="0" y1="0.5" x2="1" y2="0.5" gradientTransform="matrix(109.058,0,0,22.939,128.136,16.388)" gradientUnits="userSpaceOnUse"><stop offset="0%" stop-opacity="1" style="stop-color:rgb(108,110,112)"/><stop offset="100%" stop-opacity="1" style="stop-color:rgb(63,62,64)"/></linearGradient><path d=" M 236.087 16.388 L 128.136 31.326 L 129.243 39.327 L 237.194 24.389 L 236.087 16.388 Z " fill="url(#_lgradient_166)"/></g><g><linearGradient id="_lgradient_167" x1="0" y1="0.5" x2="6.123233995736766e-17" y2="-0.5" gradientTransform="matrix(119.02,0,0,52.074,11.517,0)" gradientUnits="userSpaceOnUse"><stop offset="1.3644832711817474e-14%" stop-opacity="1" style="stop-color:rgb(219,220,222)"/><stop offset="10.700000000000014%" stop-opacity="1" style="stop-color:rgb(219,220,222)"/><stop offset="83.30000000000001%" stop-opacity="1" style="stop-color:rgb(157,159,161)"/><stop offset="100%" stop-opacity="1" style="stop-color:rgb(160,162,165)"/></linearGradient><path d=" M 29.654 2.687 C 19.601 4.003 11.517 13.862 11.517 24.058 L 11.517 47.795 C 52.796 53.5 89.258 53.501 130.537 47.795 C 130.537 30.917 130.537 22.475 130.537 5.597 C 110.914 1.868 90.955 0 70.998 0 C 57.18 -0.001 43.366 0.895 29.654 2.687 Z " fill="url(#_lgradient_167)"/></g><g><linearGradient id="_lgradient_168" x1="0" y1="0.5" x2="6.123233995736766e-17" y2="-0.5" gradientTransform="matrix(247.114,0,0,146.09,4.443,56.923)" gradientUnits="userSpaceOnUse"><stop offset="0%" stop-opacity="1" style="stop-color:rgb(219,220,222)"/><stop offset="10.7%" stop-opacity="1" style="stop-color:rgb(219,220,222)"/><stop offset="83.3%" stop-opacity="1" style="stop-color:rgb(157,159,161)"/><stop offset="100%" stop-opacity="1" style="stop-color:rgb(160,162,165)"/></linearGradient><path d=" M 235.036 56.923 L 20.965 56.923 L 4.443 56.923 L 4.443 84.342 L 20.965 117.257 L 20.965 203.013 L 21.126 203.013 L 234.875 203.013 L 235.036 203.013 L 235.036 117.257 L 251.557 84.342 L 251.557 56.923 L 235.036 56.923 Z " fill="url(#_lgradient_168)"/></g><g><linearGradient id="_lgradient_169" x1="0" y1="0.5" x2="6.123233995736766e-17" y2="-0.5" gradientTransform="matrix(139.371,0,0,39.33,58.395,127.498)" gradientUnits="userSpaceOnUse"><stop offset="0%" stop-opacity="1" style="stop-color:rgb(108,110,112)"/><stop offset="100%" stop-opacity="1" style="stop-color:rgb(63,62,64)"/></linearGradient><path d=" M 58.395 127.498 L 58.395 139.489 C 58.395 154.588 70.831 166.828 86.171 166.828 L 169.989 166.828 C 185.33 166.828 197.766 154.588 197.766 139.489 L 197.766 127.498 L 58.395 127.498 Z " fill="url(#_lgradient_169)"/></g><g><path d=" M 196.709 87.211 L 59.451 87.211 L 59.451 127.499 L 196.709 127.499 L 196.709 87.211 Z " fill="rgb(35,31,32)"/></g><g><linearGradient id="_lgradient_170" x1="0" y1="0.5" x2="6.123233995736766e-17" y2="-0.5" gradientTransform="matrix(215.202,0,0,43.655,21.126,203.013)" gradientUnits="userSpaceOnUse"><stop offset="0%" stop-opacity="1" style="stop-color:rgb(108,110,112)"/><stop offset="100%" stop-opacity="1" style="stop-color:rgb(63,62,64)"/></linearGradient><path d=" M 21.126 203.013 L 21.126 224.106 L 21.126 246.668 L 50.967 246.668 L 75.74 228.088 L 181.714 228.088 L 206.487 246.668 L 236.328 246.668 L 236.328 224.106 L 236.328 203.013 L 21.126 203.013 Z " fill="url(#_lgradient_170)"/></g><g><linearGradient id="_lgradient_171" x1="0" y1="0.5" x2="6.123233995736766e-17" y2="-0.5" gradientTransform="matrix(224.608,0,0,33.897,15.705,57.115)" gradientUnits="userSpaceOnUse"><stop offset="0%" stop-opacity="1" style="stop-color:rgb(108,110,112)"/><stop offset="100%" stop-opacity="1" style="stop-color:rgb(63,62,64)"/></linearGradient><path d=" M 15.705 57.115 L 15.705 75.154 L 25.972 91.012 L 34.907 91.012 L 221.112 91.012 L 230.047 91.012 L 240.313 75.154 L 240.313 57.115 L 15.705 57.115 Z " fill="url(#_lgradient_171)"/></g><g><linearGradient id="_lgradient_172" x1="0" y1="0.5" x2="6.123233995736766e-17" y2="-0.5" gradientTransform="matrix(256,0,0,9.382,0,47.541)" gradientUnits="userSpaceOnUse"><stop offset="0%" stop-opacity="1" style="stop-color:rgb(108,110,112)"/><stop offset="100%" stop-opacity="1" style="stop-color:rgb(63,62,64)"/></linearGradient><path d=" M 0 56.923 L 256 56.923 L 256 47.541 L 0 47.541 L 0 56.923 Z " fill="url(#_lgradient_172)"/></g><g><linearGradient id="_lgradient_173" x1="0" y1="0.5" x2="0.9397683777299994" y2="0.8418119310654985" gradientTransform="matrix(35.771,0,0,23.215,110.124,62.456)" gradientUnits="userSpaceOnUse"><stop offset="0%" stop-opacity="1" style="stop-color:rgb(30,144,206)"/><stop offset="22.154%" stop-opacity="1" style="stop-color:rgb(110,190,233)"/><stop offset="66.5984%" stop-opacity="1" style="stop-color:rgb(26,142,205)"/><stop offset="100%" stop-opacity="1" style="stop-color:rgb(26,142,205)"/></linearGradient><path d=" M 110.124 85.671 L 145.895 85.671 L 145.895 62.456 L 110.124 62.456 L 110.124 85.671 Z " fill="url(#_lgradient_173)"/></g><g><path d=" M 94.832 75.06 C 97.338 75.06 99.368 77.09 99.368 79.596 C 99.368 82.102 97.338 84.132 94.832 84.132 C 92.327 84.132 90.294 82.102 90.294 79.596 C 90.294 77.09 92.327 75.06 94.832 75.06 Z " fill="rgb(38,170,225)"/></g><g><path d=" M 83.447 75.06 C 85.953 75.06 87.983 77.09 87.983 79.596 C 87.983 82.102 85.953 84.132 83.447 84.132 C 80.942 84.132 78.909 82.102 78.909 79.596 C 78.909 77.09 80.942 75.06 83.447 75.06 Z " fill="rgb(38,170,225)"/></g><g><path d=" M 72.062 75.06 C 74.568 75.06 76.598 77.09 76.598 79.596 C 76.598 82.102 74.568 84.132 72.062 84.132 C 69.557 84.132 67.524 82.102 67.524 79.596 C 67.524 77.09 69.557 75.06 72.062 75.06 Z " fill="rgb(38,170,225)"/></g><g><path d=" M 94.832 63.996 C 97.338 63.996 99.368 66.027 99.368 68.532 C 99.368 71.038 97.338 73.068 94.832 73.068 C 92.327 73.068 90.294 71.038 90.294 68.532 C 90.294 66.027 92.327 63.996 94.832 63.996 Z " fill="rgb(38,170,225)"/></g><g><path d=" M 83.447 63.996 C 85.953 63.996 87.983 66.027 87.983 68.532 C 87.983 71.038 85.953 73.068 83.447 73.068 C 80.942 73.068 78.909 71.038 78.909 68.532 C 78.909 66.027 80.942 63.996 83.447 63.996 Z " fill="rgb(38,170,225)"/></g><g><path d=" M 72.062 63.996 C 74.568 63.996 76.598 66.027 76.598 68.532 C 76.598 71.038 74.568 73.068 72.062 73.068 C 69.557 73.068 67.524 71.038 67.524 68.532 C 67.524 66.027 69.557 63.996 72.062 63.996 Z " fill="rgb(38,170,225)"/></g><g><path d=" M 183.959 75.06 C 186.465 75.06 188.495 77.09 188.495 79.596 C 188.495 82.102 186.465 84.132 183.959 84.132 C 181.453 84.132 179.421 82.102 179.421 79.596 C 179.421 77.09 181.453 75.06 183.959 75.06 Z " fill="rgb(38,170,225)"/></g><g><path d=" M 172.574 75.06 C 175.08 75.06 177.11 77.09 177.11 79.596 C 177.11 82.102 175.08 84.132 172.574 84.132 C 170.068 84.132 168.036 82.102 168.036 79.596 C 168.036 77.09 170.068 75.06 172.574 75.06 Z " fill="rgb(38,170,225)"/></g><g><path d=" M 161.189 75.06 C 163.695 75.06 165.725 77.09 165.725 79.596 C 165.725 82.102 163.695 84.132 161.189 84.132 C 158.683 84.132 156.651 82.102 156.651 79.596 C 156.651 77.09 158.683 75.06 161.189 75.06 Z " fill="rgb(38,170,225)"/></g><g><path d=" M 183.959 63.996 C 186.465 63.996 188.495 66.027 188.495 68.532 C 188.495 71.038 186.465 73.068 183.959 73.068 C 181.453 73.068 179.421 71.038 179.421 68.532 C 179.421 66.027 181.453 63.996 183.959 63.996 Z " fill="rgb(38,170,225)"/></g><g><path d=" M 172.574 63.996 C 175.08 63.996 177.11 66.027 177.11 68.532 C 177.11 71.038 175.08 73.068 172.574 73.068 C 170.068 73.068 168.036 71.038 168.036 68.532 C 168.036 66.027 170.068 63.996 172.574 63.996 Z " fill="rgb(38,170,225)"/></g><g><path d=" M 161.189 63.996 C 163.695 63.996 165.725 66.027 165.725 68.532 C 165.725 71.038 163.695 73.068 161.189 73.068 C 158.683 73.068 156.651 71.038 156.651 68.532 C 156.651 66.027 158.683 63.996 161.189 63.996 Z " fill="rgb(38,170,225)"/></g></g></g></svg>