<?xml version="1.0" encoding="UTF-8" standalone="no"?><!-- Generator: Gravit.io --><svg xmlns="http://www.w3.org/2000/svg" xmlns:xlink="http://www.w3.org/1999/xlink" style="isolation:isolate" viewBox="0 0 255.419 254.761" width="255.419pt" height="254.761pt"><defs><clipPath id="_clipPath_4R7HeOPOPVrfuHH4aZnAkRp35cAtD6qO"><rect width="255.419" height="254.761"/></clipPath></defs><g clip-path="url(#_clipPath_4R7HeOPOPVrfuHH4aZnAkRp35cAtD6qO)"><g><g><radialGradient id="_rgradient_18" fx="0.5" fy="0.5" cx="0.5" cy="0.5" r="0.5" gradientTransform="matrix(40.089,0,0,40.085,43.691,64.195)" gradientUnits="userSpaceOnUse"><stop offset="0%" stop-opacity="1" style="stop-color:rgb(177,179,181)"/><stop offset="90.60000000000001%" stop-opacity="1" style="stop-color:rgb(219,220,222)"/><stop offset="100%" stop-opacity="1" style="stop-color:rgb(187,189,191)"/></radialGradient><path d=" M 76.818 104.28 L 43.691 71.152 L 50.652 64.195 L 83.78 97.323 L 76.818 104.28 Z " fill="url(#_rgradient_18)"/></g><g><radialGradient id="_rgradient_19" fx="0.5" fy="0.5" cx="0.5" cy="0.5" r="-0.5" gradientTransform="matrix(40.089,0,0,40.085,171.64,64.195)" gradientUnits="userSpaceOnUse"><stop offset="0%" stop-opacity="1" style="stop-color:rgb(177,179,181)"/><stop offset="90.60000000000001%" stop-opacity="1" style="stop-color:rgb(219,220,222)"/><stop offset="100%" stop-opacity="1" style="stop-color:rgb(187,189,191)"/></radialGradient><path d=" M 178.601 104.28 L 211.729 71.152 L 204.767 64.195 L 171.64 97.323 L 178.601 104.28 Z " fill="url(#_rgradient_19)"/></g><g><radialGradient id="_rgradient_20" fx="0.5" fy="0.5" cx="0.5" cy="0.5" r="-0.5" gradientTransform="matrix(40.089,0,0,40.085,171.64,151.472)" gradientUnits="userSpaceOnUse"><stop offset="0%" stop-opacity="1" style="stop-color:rgb(177,179,181)"/><stop offset="90.60000000000001%" stop-opacity="1" style="stop-color:rgb(219,220,222)"/><stop offset="100%" stop-opacity="1" style="stop-color:rgb(187,189,191)"/></radialGradient><path d=" M 178.601 151.472 L 211.729 184.6 L 204.767 191.557 L 171.64 158.429 L 178.601 151.472 Z " fill="url(#_rgradient_20)"/></g><g><radialGradient id="_rgradient_21" fx="0.5" fy="0.5" cx="0.5" cy="0.5" r="0.5" gradientTransform="matrix(40.089,0,0,40.085,43.691,151.472)" gradientUnits="userSpaceOnUse"><stop offset="0%" stop-opacity="1" style="stop-color:rgb(177,179,181)"/><stop offset="90.60000000000001%" stop-opacity="1" style="stop-color:rgb(219,220,222)"/><stop offset="100%" stop-opacity="1" style="stop-color:rgb(187,189,191)"/></radialGradient><path d=" M 76.818 151.472 L 43.691 184.6 L 50.652 191.557 L 83.78 158.429 L 76.818 151.472 Z " fill="url(#_rgradient_21)"/></g><g><radialGradient id="_rgradient_22" fx="0.5" fy="0.5" cx="0.5" cy="0.5" r="0.5" gradientTransform="matrix(119.633,0,0,119.633,67.893,67.564)" gradientUnits="userSpaceOnUse"><stop offset="0%" stop-opacity="1" style="stop-color:rgb(108,110,112)"/><stop offset="100%" stop-opacity="1" style="stop-color:rgb(63,62,64)"/></radialGradient><path d=" M 67.893 127.38 C 67.893 160.417 94.673 187.197 127.714 187.197 C 160.746 187.197 187.526 160.417 187.526 127.38 C 187.526 94.341 160.746 67.564 127.714 67.564 C 94.673 67.564 67.893 94.341 67.893 127.38 Z " fill="url(#_rgradient_22)"/></g><g><radialGradient id="_rgradient_23" fx="0.5" fy="0.5" cx="0.5" cy="0.5" r="0.5" gradientTransform="matrix(98.874,0,0,98.878,78.273,77.941)" gradientUnits="userSpaceOnUse"><stop offset="0%" stop-opacity="1" style="stop-color:rgb(177,179,181)"/><stop offset="90.60000000000001%" stop-opacity="1" style="stop-color:rgb(219,220,222)"/><stop offset="100%" stop-opacity="1" style="stop-color:rgb(187,189,191)"/></radialGradient><path d=" M 78.273 127.38 C 78.273 154.685 100.405 176.819 127.714 176.819 C 155.014 176.819 177.147 154.685 177.147 127.38 C 177.147 100.076 155.014 77.941 127.714 77.941 C 100.405 77.941 78.273 100.076 78.273 127.38 Z " fill="url(#_rgradient_23)"/></g><g><linearGradient id="_lgradient_174" x1="0" y1="0.5" x2="1" y2="0.5" gradientTransform="matrix(59.875,0,0,81.333,0,173.428)" gradientUnits="userSpaceOnUse"><stop offset="0%" stop-opacity="1" style="stop-color:rgb(147,149,151)"/><stop offset="7.7%" stop-opacity="1" style="stop-color:rgb(108,110,112)"/><stop offset="100%" stop-opacity="1" style="stop-color:rgb(63,62,64)"/></linearGradient><path d=" M 2.867 173.428 C 1.287 173.428 0 174.71 0 176.294 L 0 251.894 C 0 253.478 1.287 254.761 2.867 254.761 L 57.009 254.761 C 58.593 254.761 59.875 253.478 59.875 251.894 L 59.875 176.294 C 59.875 174.71 58.593 173.428 57.009 173.428 L 2.867 173.428 Z " fill="url(#_lgradient_174)"/></g><g><path d=" M 59.875 190.21 L 33.013 190.21 L 33.013 184.763 L 59.875 184.763 L 59.875 190.21 Z " fill="rgb(38,170,225)"/></g><g><linearGradient id="_lgradient_175" x1="0" y1="0.5" x2="1" y2="0.5" gradientTransform="matrix(59.867,0,0,81.333,195.544,173.428)" gradientUnits="userSpaceOnUse"><stop offset="0%" stop-opacity="1" style="stop-color:rgb(147,149,151)"/><stop offset="7.7%" stop-opacity="1" style="stop-color:rgb(108,110,112)"/><stop offset="100%" stop-opacity="1" style="stop-color:rgb(63,62,64)"/></linearGradient><path d=" M 198.411 173.428 C 196.831 173.428 195.544 174.71 195.544 176.294 L 195.544 251.894 C 195.544 253.478 196.831 254.761 198.411 254.761 L 252.553 254.761 C 254.064 254.761 255.3 253.594 255.411 252.112 L 255.411 176.077 C 255.3 174.594 254.064 173.428 252.553 173.428 L 198.411 173.428 Z " fill="url(#_lgradient_175)"/></g><g><path d=" M 255.419 190.21 L 228.557 190.21 L 228.557 184.763 L 255.419 184.763 L 255.419 190.21 Z " fill="rgb(38,170,225)"/></g><g><linearGradient id="_lgradient_176" x1="0" y1="0.5" x2="1" y2="0.5" gradientTransform="matrix(59.875,0,0,81.333,0,0)" gradientUnits="userSpaceOnUse"><stop offset="0%" stop-opacity="1" style="stop-color:rgb(147,149,151)"/><stop offset="7.7%" stop-opacity="1" style="stop-color:rgb(108,110,112)"/><stop offset="100%" stop-opacity="1" style="stop-color:rgb(63,62,64)"/></linearGradient><path d=" M 2.867 0 C 1.287 0 0 1.282 0 2.866 L 0 78.467 C 0 80.051 1.287 81.333 2.867 81.333 L 57.009 81.333 C 58.593 81.333 59.875 80.051 59.875 78.467 L 59.875 2.866 C 59.875 1.282 58.593 0 57.009 0 L 2.867 0 Z " fill="url(#_lgradient_176)"/></g><g><path d=" M 59.875 16.782 L 33.013 16.782 L 33.013 11.335 L 59.875 11.335 L 59.875 16.782 Z " fill="rgb(38,170,225)"/></g><g><linearGradient id="_lgradient_177" x1="0" y1="0.5" x2="1" y2="0.5" gradientTransform="matrix(59.867,0,0,81.333,195.544,0)" gradientUnits="userSpaceOnUse"><stop offset="0%" stop-opacity="1" style="stop-color:rgb(147,149,151)"/><stop offset="7.7%" stop-opacity="1" style="stop-color:rgb(108,110,112)"/><stop offset="100%" stop-opacity="1" style="stop-color:rgb(63,62,64)"/></linearGradient><path d=" M 198.411 0 C 196.831 0 195.544 1.282 195.544 2.866 L 195.544 78.467 C 195.544 80.051 196.831 81.333 198.411 81.333 L 252.553 81.333 C 254.064 81.333 255.3 80.167 255.411 78.684 L 255.411 2.649 C 255.3 1.167 254.064 0 252.553 0 L 198.411 0 Z " fill="url(#_lgradient_177)"/></g><g><path d=" M 255.419 16.782 L 228.557 16.782 L 228.557 11.335 L 255.419 11.335 L 255.419 16.782 Z " fill="rgb(38,170,225)"/></g></g></g></svg>