<?xml version="1.0" encoding="UTF-8" standalone="no"?><!-- Generator: Gravit.io --><svg xmlns="http://www.w3.org/2000/svg" xmlns:xlink="http://www.w3.org/1999/xlink" style="isolation:isolate" viewBox="0 0 256 160.73" width="256pt" height="160.73pt"><defs><clipPath id="_clipPath_8OLqTBXYcVEKhe8tL0YX4v9Df8NrHAkH"><rect width="256" height="160.73"/></clipPath></defs><g clip-path="url(#_clipPath_8OLqTBXYcVEKhe8tL0YX4v9Df8NrHAkH)"><g><g><path d=" M 78.4 30.439 C 78.4 30.439 95.313 25.116 101.116 26.572 C 106.913 28.023 154.269 48.802 177.459 70.542 C 200.649 92.281 206.447 97.604 202.094 105.817 C 197.748 114.026 188.083 111.124 188.083 111.124 C 188.083 111.124 188.083 119.829 182.291 125.141 C 176.488 130.453 170.211 125.141 170.211 125.141 C 170.211 125.141 169.24 136.251 163.443 140.603 C 157.645 144.95 151.368 140.603 151.368 140.603 C 151.368 140.603 152.328 146.4 146.536 150.267 C 140.733 154.128 132.039 150.267 132.039 150.267 C 132.039 150.267 57.626 114.516 55.21 106.778 C 52.794 99.044 49.892 92.281 49.892 92.281 L 78.4 30.439 Z " fill="rgb(242,183,129)"/></g><g><path d=" M 190.888 93.985 C 182.475 93.985 169.289 85.379 155.337 76.269 C 149.567 72.499 144.125 68.945 139.406 66.275 C 130.691 61.347 126.344 59.685 122.186 59.685 C 118.276 59.685 113.838 61.271 107.016 64.199 C 102.874 65.979 98.937 66.881 95.329 66.881 C 84.915 66.881 78.498 59.297 76.761 51.78 C 74.679 42.789 81.76 41.069 86.926 39.807 C 89.051 39.289 91.7 38.647 94.806 37.607 C 98.732 36.301 102.022 34.683 105.84 32.813 C 112.527 29.527 120.854 25.45 135.761 21.794 C 139.579 20.855 143.58 20.375 147.647 20.375 C 159.387 20.375 169.618 24.269 176.381 26.847 C 178.355 27.597 180.738 28.508 181.909 28.773 C 182.713 28.325 183.176 27.979 183.413 27.774 L 186.283 19.151 L 191.546 27.457 C 199.528 40.061 212.773 60.763 214.315 62.689 C 218.274 66.745 213.755 78.335 213.701 78.449 C 211.749 83.081 209.052 84.267 207.003 84.385 C 206.706 84.699 206.323 85.141 206.021 85.491 C 203.886 87.951 200.304 92.071 193.514 93.689 C 192.7 93.889 191.816 93.985 190.888 93.985 Z " fill="rgb(250,211,175)"/></g><g><path d=" M 118.708 160.73 C 113.197 160.73 109.108 157.386 106.649 154.138 C 104.514 154.56 101.623 154.98 98.608 154.98 C 94.806 154.98 91.528 154.312 88.884 152.99 C 83.81 150.462 81.712 145.478 81.065 140.936 C 79.738 141.114 78.282 141.24 76.847 141.24 C 73.369 141.24 70.656 140.56 68.563 139.168 C 64.675 136.568 62.783 131.84 61.903 128.592 C 55.685 126.78 47.649 121.512 47.649 110.16 C 47.649 95.818 66.973 83.448 76.459 83.448 C 79.91 83.448 81.874 84.904 82.92 86.122 C 84.592 88.079 85.552 90.398 86.048 92.728 C 89.1 90.534 92.595 88.787 96.003 88.787 C 97.924 88.787 99.681 89.299 101.24 90.306 C 106.487 93.716 107.437 99.422 106.563 105.24 C 107.739 104.88 108.946 104.674 110.182 104.674 C 112.938 104.674 115.548 105.694 117.737 107.634 C 122.785 112.1 122.678 118.41 121.043 123.966 C 122.311 123.712 123.6 123.556 124.889 123.556 C 127.628 123.556 130.066 124.234 132.147 125.566 C 134.585 127.142 138.242 131.262 135.308 141.272 C 133.442 147.625 126.933 160.73 118.708 160.73 Z " fill="rgb(250,211,175)"/></g><g><linearGradient id="_lgradient_178" x1="0" y1="0.5" x2="6.123233995736766e-17" y2="1.5" gradientTransform="matrix(81.91,0,0,102.767,0,0)" gradientUnits="userSpaceOnUse"><stop offset="0%" stop-opacity="1" style="stop-color:rgb(108,110,112)"/><stop offset="53.6%" stop-opacity="1" style="stop-color:rgb(63,62,64)"/><stop offset="100%" stop-opacity="1" style="stop-color:rgb(63,62,64)"/></linearGradient><path d=" M 35.904 2.988 L 0.514 78.432 C -0.672 80.956 0.266 83.885 2.596 84.974 L 39.646 102.355 C 41.976 103.445 44.824 102.296 46.004 99.778 L 81.399 24.329 C 82.579 21.815 81.647 18.887 79.317 17.792 L 42.267 0.416 C 41.668 0.133 41.035 -0.001 40.404 0 C 38.581 0 36.781 1.117 35.904 2.988 Z " fill="url(#_lgradient_178)"/></g><g><linearGradient id="_lgradient_179" x1="0" y1="0.5" x2="6.123233995736766e-17" y2="1.5" gradientTransform="matrix(81.908,0,0,102.767,174.092,0)" gradientUnits="userSpaceOnUse"><stop offset="0%" stop-opacity="1" style="stop-color:rgb(108,110,112)"/><stop offset="53.6%" stop-opacity="1" style="stop-color:rgb(63,62,64)"/><stop offset="100%" stop-opacity="1" style="stop-color:rgb(63,62,64)"/></linearGradient><path d=" M 213.734 0.416 L 176.689 17.792 C 174.353 18.887 173.425 21.815 174.601 24.329 L 210.001 99.778 C 211.177 102.296 214.024 103.445 216.355 102.355 L 253.405 84.974 C 255.039 84.21 255.988 82.541 256 80.741 L 256 80.667 C 255.994 79.924 255.828 79.161 255.486 78.432 L 220.097 2.988 C 219.224 1.117 217.424 0 215.6 0 C 214.968 -0.001 214.334 0.133 213.734 0.416 Z " fill="url(#_lgradient_179)"/></g></g></g></svg>