<?xml version="1.0" encoding="UTF-8" standalone="no"?><!-- Generator: Gravit.io --><svg xmlns="http://www.w3.org/2000/svg" xmlns:xlink="http://www.w3.org/1999/xlink" style="isolation:isolate" viewBox="0 0 256 215.962" width="256pt" height="215.962pt"><defs><clipPath id="_clipPath_UDwjUrpeQtk8qenZg1sm0ehAzL265g4B"><rect width="256" height="215.962"/></clipPath></defs><g clip-path="url(#_clipPath_UDwjUrpeQtk8qenZg1sm0ehAzL265g4B)"><g><g><path d=" M 167.915 210.695 L 118.518 210.695 L 118.518 189.731 L 167.915 189.731 L 167.915 210.695 Z " fill="rgb(1,3,5)"/></g><g><path d=" M 0 120.516 L 52.146 120.516 L 52.146 29.653 L 0 29.653 L 0 120.516 Z " fill="rgb(0,0,0)"/></g><g><linearGradient id="_lgradient_180" x1="0" y1="0.5" x2="1" y2="0.5" gradientTransform="matrix(80.45,0,0,215.957,0,0)" gradientUnits="userSpaceOnUse"><stop offset="0%" stop-opacity="1" style="stop-color:rgb(108,110,112)"/><stop offset="53.6%" stop-opacity="1" style="stop-color:rgb(63,62,64)"/><stop offset="100%" stop-opacity="1" style="stop-color:rgb(63,62,64)"/></linearGradient><path d=" M 1.603 0 C 0.717 0 0 0.712 0 1.592 L 0 29.653 L 52.146 29.653 L 52.146 35.042 L 0 35.042 L 0 58.146 L 52.146 58.146 L 52.146 63.535 L 0 63.535 L 0 86.639 L 52.146 86.639 L 52.146 92.023 L 0 92.023 L 0 115.133 L 52.146 115.133 L 52.146 120.516 L 0 120.516 L 0 214.354 C 0 215.245 0.717 215.957 1.603 215.957 L 78.847 215.957 C 79.733 215.957 80.45 215.245 80.45 214.354 L 80.45 1.592 C 80.45 0.712 79.733 0 78.847 0 L 1.603 0 Z " fill="url(#_lgradient_180)"/></g><g><path d=" M 80.45 35.042 L 53.887 35.042 L 53.887 29.653 L 80.45 29.653 L 80.45 35.042 Z " fill="rgb(38,170,225)"/></g><g><path d=" M 80.45 63.535 L 53.887 63.535 L 53.887 58.147 L 80.45 58.147 L 80.45 63.535 Z " fill="rgb(38,170,225)"/></g><g><path d=" M 80.45 92.023 L 53.887 92.023 L 53.887 86.639 L 80.45 86.639 L 80.45 92.023 Z " fill="rgb(38,170,225)"/></g><g><path d=" M 80.45 120.516 L 53.887 120.516 L 53.887 115.133 L 80.45 115.133 L 80.45 120.516 Z " fill="rgb(38,170,225)"/></g><g><path d=" M 80.45 208.596 L 0 208.596 L 0 203.218 L 80.45 203.218 L 80.45 208.596 Z " fill="rgb(0,0,0)"/></g><g><path d=" M 256 192.678 L 30.444 192.678 L 30.444 42.371 L 256 42.371 L 256 192.678 Z " fill="rgb(1,3,5)"/></g><g><linearGradient id="_lgradient_181" x1="0" y1="0.5" x2="0.939626568839866" y2="0.8422015650610335" gradientTransform="matrix(212.48,0,0,138.528,36.982,48.318)" gradientUnits="userSpaceOnUse"><stop offset="0%" stop-opacity="1" style="stop-color:rgb(30,144,206)"/><stop offset="22.154%" stop-opacity="1" style="stop-color:rgb(110,190,233)"/><stop offset="66.5984%" stop-opacity="1" style="stop-color:rgb(26,142,205)"/><stop offset="100%" stop-opacity="1" style="stop-color:rgb(26,142,205)"/></linearGradient><path d=" M 36.982 186.846 L 249.462 186.846 L 249.462 48.318 L 36.982 48.318 L 36.982 186.846 Z " fill="url(#_lgradient_181)"/></g><g><path d=" M 193.994 215.962 L 92.451 215.962 L 92.451 205.422 L 193.994 205.422 L 193.994 215.962 Z " fill="rgb(1,3,5)"/></g></g></g></svg>