<?xml version="1.0" encoding="UTF-8" standalone="no"?><!-- Generator: Gravit.io --><svg xmlns="http://www.w3.org/2000/svg" xmlns:xlink="http://www.w3.org/1999/xlink" style="isolation:isolate" viewBox="0 0 256 200.552" width="256pt" height="200.552pt"><defs><clipPath id="_clipPath_nCaPuqU32dt6TUIwJM9qfCxfo8RG6Uks"><rect width="256" height="200.552"/></clipPath></defs><g clip-path="url(#_clipPath_nCaPuqU32dt6TUIwJM9qfCxfo8RG6Uks)"><g><g><linearGradient id="_lgradient_182" x1="0" y1="0.5" x2="1" y2="0.5" gradientTransform="matrix(42.32,0,0,7.215,30.278,193.337)" gradientUnits="userSpaceOnUse"><stop offset="0%" stop-opacity="1" style="stop-color:rgb(34,31,32)"/><stop offset="50.2%" stop-opacity="1" style="stop-color:rgb(69,68,70)"/><stop offset="100%" stop-opacity="1" style="stop-color:rgb(34,31,32)"/></linearGradient><path d=" M 34.023 200.552 L 69.826 200.552 L 72.598 193.337 L 30.278 193.337 L 34.023 200.552 Z " fill="url(#_lgradient_182)"/></g><g><linearGradient id="_lgradient_183" x1="0" y1="0.5" x2="1" y2="0.5" gradientTransform="matrix(42.32,0,0,7.215,167.629,193.337)" gradientUnits="userSpaceOnUse"><stop offset="0%" stop-opacity="1" style="stop-color:rgb(34,31,32)"/><stop offset="50.2%" stop-opacity="1" style="stop-color:rgb(69,68,70)"/><stop offset="100%" stop-opacity="1" style="stop-color:rgb(34,31,32)"/></linearGradient><path d=" M 171.374 200.552 L 207.177 200.552 L 209.949 193.337 L 167.629 193.337 L 171.374 200.552 Z " fill="url(#_lgradient_183)"/></g><g><linearGradient id="_lgradient_184" x1="0" y1="0.5" x2="6.123233995736766e-17" y2="1.5" gradientTransform="matrix(256,0,0,193.09,0,0)" gradientUnits="userSpaceOnUse"><stop offset="0%" stop-opacity="1" style="stop-color:rgb(177,179,181)"/><stop offset="17.599999999999998%" stop-opacity="1" style="stop-color:rgb(177,179,181)"/><stop offset="56.2%" stop-opacity="1" style="stop-color:rgb(202,204,206)"/><stop offset="100%" stop-opacity="1" style="stop-color:rgb(202,204,206)"/></linearGradient><path d=" M 23.011 0 C 14.477 0 6.265 6.928 5.024 15.426 C -1.674 70.196 -1.675 122.895 5.024 177.664 C 6.264 186.162 14.477 193.09 23.011 193.09 C 87.375 193.09 151.738 193.09 216.102 193.09 C 224.635 193.09 232.849 186.162 234.09 177.664 C 234.235 176.477 234.359 175.295 234.499 174.109 C 246.442 173.681 256 163.89 256 151.842 C 256 141.077 248.376 132.096 238.234 129.998 C 240.197 91.867 238.828 54.163 234.089 15.426 C 232.849 6.928 224.635 0 216.102 0 L 23.011 0 Z " fill="url(#_lgradient_184)"/></g><g><path d=" M 211.084 173.568 L 29.143 173.568 C 25.546 173.568 22.603 170.626 22.603 167.028 L 22.603 26.271 C 22.603 22.673 25.546 19.73 29.143 19.73 L 211.084 19.73 C 214.681 19.73 217.625 22.673 217.625 26.271 L 217.625 167.028 C 217.625 170.626 214.681 173.568 211.084 173.568 Z " fill="rgb(35,31,32)"/></g><g><path d=" M 247.512 152.042 C 247.512 158.49 242.285 163.718 235.836 163.718 C 229.388 163.718 224.161 158.49 224.161 152.042 C 224.161 145.594 229.388 140.366 235.836 140.366 C 242.285 140.366 247.512 145.594 247.512 152.042 Z " fill="rgb(38,170,225)"/></g><g><path d=" M 217.624 133.036 L 217.624 130.323 C 215.445 130.339 213.165 130.343 210.932 130.332 L 210.932 130.33 L 206.593 130.33 C 205.939 130.33 204.457 129.362 203.475 128.722 C 202.296 127.952 201.277 127.287 200.351 127.102 C 199.254 126.881 198.025 127.48 196.321 128.304 C 194.526 129.173 192.244 130.224 190.382 130.175 C 188.808 130.112 185.421 122.282 183.975 118.939 C 182.239 114.925 181.208 112.613 180.208 111.755 C 179.772 111.382 179.209 111.229 178.626 111.321 C 176.502 111.664 173.958 115.541 169.051 123.691 C 167.497 126.272 165.893 128.934 165.085 129.9 C 163.312 130.228 154.362 130.371 146.121 130.332 L 146.121 130.33 L 141.784 130.33 C 141.128 130.33 139.646 129.361 138.662 128.72 C 137.485 127.951 136.468 127.287 135.542 127.102 C 134.453 126.882 133.216 127.477 131.511 128.305 C 129.715 129.173 127.457 130.251 125.574 130.175 C 123.998 130.112 120.612 122.281 119.166 118.937 C 117.43 114.925 116.399 112.613 115.4 111.755 C 114.963 111.382 114.4 111.229 113.818 111.321 C 111.691 111.665 109.146 115.544 104.236 123.699 C 102.684 126.276 101.082 128.935 100.276 129.9 C 98.501 130.228 89.553 130.371 81.313 130.332 L 81.313 130.33 L 76.974 130.33 C 76.319 130.33 74.837 129.362 73.856 128.722 C 72.677 127.952 71.657 127.287 70.732 127.102 C 69.638 126.881 68.403 127.48 66.702 128.304 C 64.906 129.173 62.64 130.224 60.763 130.175 C 59.189 130.112 55.802 122.282 54.355 118.939 C 52.62 114.925 51.588 112.613 50.589 111.755 C 50.152 111.382 49.591 111.229 49.007 111.321 C 46.882 111.664 44.339 115.541 39.431 123.691 C 37.877 126.272 36.273 128.934 35.465 129.9 C 34.129 130.147 28.715 130.289 22.602 130.328 L 22.602 133.037 C 36.183 132.984 36.79 132.411 37.187 132.013 C 38.101 131.101 39.513 128.785 41.741 125.082 C 43.798 121.667 47.495 115.53 49.141 114.196 C 49.825 115.261 50.992 117.958 51.88 120.009 C 55.205 127.699 57.613 132.75 60.655 132.87 C 63.219 132.957 65.81 131.731 67.877 130.733 C 68.729 130.321 69.896 129.756 70.203 129.747 C 70.618 129.83 71.595 130.468 72.381 130.981 C 73.923 131.988 75.517 133.027 76.974 133.027 L 80.68 133.027 C 82.356 133.038 83.894 133.043 85.312 133.043 C 100.966 133.043 101.581 132.43 101.998 132.013 C 102.91 131.101 104.32 128.788 106.546 125.09 C 108.605 121.672 112.304 115.529 113.951 114.196 C 114.636 115.26 115.803 117.957 116.688 120.008 C 120.016 127.698 122.422 132.75 125.466 132.87 C 128.031 132.957 130.621 131.731 132.686 130.734 C 133.537 130.321 134.704 129.756 135.014 129.747 C 135.427 129.83 136.404 130.467 137.188 130.979 C 138.732 131.987 140.326 133.027 141.784 133.027 L 145.489 133.027 C 147.165 133.038 148.703 133.043 150.121 133.043 C 165.775 133.043 166.39 132.43 166.807 132.013 C 167.72 131.101 169.133 128.785 171.361 125.082 C 173.418 121.667 177.114 115.53 178.76 114.196 C 179.444 115.261 180.611 117.958 181.499 120.009 C 184.825 127.699 187.233 132.75 190.275 132.87 C 192.844 132.957 195.43 131.731 197.496 130.733 C 198.348 130.321 199.515 129.756 199.822 129.747 C 200.237 129.83 201.215 130.468 202.001 130.981 C 203.543 131.988 205.137 133.027 206.593 133.027 L 210.3 133.027 C 211.975 133.038 213.513 133.043 214.932 133.043 C 215.885 133.043 216.779 133.04 217.624 133.036 Z " fill="rgb(38,170,225)"/></g><g><path d=" M 217.181 76.562 L 217.181 73.38 L 211.042 73.38 C 210.697 73.261 209.565 72.794 208.129 71.357 C 207.604 70.832 207.14 70.268 206.693 69.727 C 205.382 68.14 203.898 66.343 201.426 66.226 C 198.551 66.098 195.106 68.265 189.88 73.491 C 189.407 73.964 188.966 74.223 188.774 74.153 C 186.123 73.07 184.19 58.06 184.05 44.72 L 180.87 44.629 C 180.865 44.733 180.166 55.084 179.815 64.244 C 179.546 71.277 178.568 71.995 176.952 73.181 C 176.572 73.461 176.169 73.758 175.865 74.109 C 175.383 74.027 174.253 72.718 173.711 72.088 C 172.584 70.782 171.598 69.656 170.256 69.823 C 169.845 69.875 169.083 70.103 168.606 71.059 C 168.185 71.899 165.821 72.919 163.808 73.38 L 148.544 73.38 C 148.198 73.261 147.066 72.794 145.63 71.357 C 145.106 70.832 144.641 70.268 144.194 69.727 C 142.883 68.14 141.399 66.343 138.927 66.226 C 136.049 66.098 132.608 68.265 127.381 73.491 C 126.908 73.964 126.461 74.223 126.276 74.153 C 123.625 73.07 121.691 58.06 121.552 44.72 L 118.372 44.629 C 118.366 44.733 117.668 55.084 117.317 64.244 C 117.047 71.277 116.07 71.995 114.454 73.181 C 114.073 73.461 113.67 73.758 113.367 74.109 C 112.884 74.027 111.755 72.718 111.212 72.088 C 110.085 70.782 109.096 69.656 107.757 69.823 C 107.346 69.875 106.584 70.103 106.107 71.059 C 105.686 71.899 103.322 72.919 101.309 73.38 L 86.105 73.38 C 85.759 73.261 84.627 72.794 83.192 71.357 C 82.667 70.832 82.202 70.268 81.755 69.727 C 80.445 68.14 78.96 66.343 76.489 66.226 C 73.618 66.098 70.169 68.265 64.942 73.491 C 64.467 73.964 64.024 74.223 63.837 74.153 C 61.186 73.07 59.253 58.06 59.113 44.72 L 55.933 44.629 C 55.927 44.733 55.229 55.084 54.878 64.244 C 54.608 71.279 53.631 71.996 52.015 73.182 C 51.634 73.461 51.231 73.758 50.928 74.109 C 50.445 74.027 49.316 72.718 48.773 72.088 C 47.646 70.782 46.651 69.656 45.318 69.823 C 44.907 69.875 44.145 70.103 43.668 71.059 C 43.247 71.899 40.883 72.919 38.871 73.38 L 23.047 73.38 L 23.047 76.562 L 39.046 76.562 L 39.379 76.527 C 40.203 76.351 43.916 75.465 45.781 73.504 C 45.982 73.725 46.192 73.969 46.363 74.167 C 47.742 75.765 50.309 78.741 52.881 76.535 C 53.236 76.231 53.577 75.983 53.896 75.747 C 55.949 74.242 57.326 72.931 57.866 67.35 C 58.862 72.241 60.366 76.173 62.636 77.099 C 62.995 77.246 63.428 77.355 63.919 77.355 C 64.838 77.355 65.961 76.973 67.192 75.741 C 71.483 71.45 74.653 69.322 76.337 69.405 C 77.354 69.453 78.091 70.286 79.303 71.754 C 79.812 72.37 80.343 73.009 80.941 73.608 C 83.232 75.899 85.112 76.427 85.486 76.514 L 85.486 76.562 L 101.485 76.562 L 101.818 76.527 C 102.642 76.351 106.355 75.465 108.22 73.504 C 108.421 73.725 108.631 73.969 108.802 74.167 C 110.181 75.765 112.748 78.737 115.32 76.535 C 115.675 76.23 116.016 75.982 116.337 75.746 C 118.388 74.241 119.764 72.93 120.305 67.35 C 121.3 72.241 122.805 76.173 125.075 77.099 C 125.434 77.246 125.867 77.355 126.358 77.355 C 127.277 77.355 128.4 76.973 129.631 75.741 C 133.922 71.45 137.052 69.322 138.776 69.405 C 139.793 69.453 140.529 70.286 141.742 71.754 C 142.251 72.37 142.782 73.009 143.38 73.608 C 145.783 76.011 147.752 76.48 147.984 76.529 L 147.984 76.562 L 163.984 76.562 L 164.317 76.527 C 165.141 76.351 168.853 75.465 170.718 73.504 C 170.92 73.725 171.129 73.969 171.301 74.167 C 172.679 75.765 175.247 78.737 177.818 76.535 C 178.173 76.23 178.514 75.982 178.836 75.746 C 180.887 74.241 182.263 72.93 182.804 67.35 C 183.799 72.241 185.303 76.173 187.573 77.099 C 187.932 77.246 188.365 77.355 188.856 77.355 C 189.776 77.355 190.899 76.973 192.13 75.741 C 196.421 71.45 199.555 69.322 201.275 69.405 C 202.292 69.453 203.028 70.286 204.241 71.754 C 204.75 72.37 205.28 73.009 205.879 73.608 C 208.192 75.922 210.088 76.438 210.435 76.517 L 210.435 76.562 L 217.181 76.562 Z " fill="rgb(38,170,225)"/></g></g></g></svg>