<?xml version="1.0" encoding="UTF-8" standalone="no"?><!-- Generator: Gravit.io --><svg xmlns="http://www.w3.org/2000/svg" xmlns:xlink="http://www.w3.org/1999/xlink" style="isolation:isolate" viewBox="0 0 256 122.92" width="256pt" height="122.92pt"><defs><clipPath id="_clipPath_HafiaSdc4OAqlXEA62w05tuumllWT8En"><rect width="256" height="122.92"/></clipPath></defs><g clip-path="url(#_clipPath_HafiaSdc4OAqlXEA62w05tuumllWT8En)"><g><g><linearGradient id="_lgradient_185" x1="0" y1="0.5" x2="6.123233995736766e-17" y2="1.5" gradientTransform="matrix(255.995,0,0,122.92,0,0)" gradientUnits="userSpaceOnUse"><stop offset="0%" stop-opacity="1" style="stop-color:rgb(219,220,222)"/><stop offset="37.8%" stop-opacity="1" style="stop-color:rgb(177,179,181)"/><stop offset="72.1%" stop-opacity="1" style="stop-color:rgb(219,220,222)"/><stop offset="100%" stop-opacity="1" style="stop-color:rgb(187,189,191)"/></linearGradient><path d=" M 220.828 0 L 214.451 0 L 187.067 0 L 180.689 0 L 153.284 0 L 146.907 0 L 119.518 0 L 113.141 0 L 1.904 0 C 0.848 0 0 1.103 0 2.44 L 0 120.485 C 0 121.827 0.848 122.92 1.904 122.92 L 254.102 122.92 C 255.153 122.92 255.995 121.827 255.995 120.485 L 255.995 2.44 C 255.995 1.103 255.153 0 254.102 0 L 220.828 0 Z " fill="url(#_lgradient_185)"/></g><g><linearGradient id="_lgradient_186" x1="0" y1="0.5" x2="6.123233995736766e-17" y2="1.5" gradientTransform="matrix(256,0,0,72.429,0,25.147)" gradientUnits="userSpaceOnUse"><stop offset="0%" stop-opacity="1" style="stop-color:rgb(108,110,112)"/><stop offset="53.6%" stop-opacity="1" style="stop-color:rgb(63,62,64)"/><stop offset="100%" stop-opacity="1" style="stop-color:rgb(63,62,64)"/></linearGradient><path d=" M 220.834 25.147 L 214.456 25.147 L 187.072 25.147 L 180.689 25.147 L 153.29 25.147 L 146.907 25.147 L 119.524 25.147 L 113.141 25.147 L 1.909 25.147 C 0.848 25.147 0 25.797 0 26.583 L 0 96.139 C 0 96.931 0.848 97.576 1.909 97.576 L 254.107 97.576 C 255.153 97.576 256 96.931 256 96.139 L 256 26.583 C 256 25.797 255.153 25.147 254.107 25.147 L 220.834 25.147 Z " fill="url(#_lgradient_186)"/></g><g><path d=" M 61.504 12.454 C 61.504 15.434 59.085 17.843 56.109 17.843 C 53.139 17.843 50.72 15.434 50.72 12.454 C 50.72 9.478 53.139 7.07 56.109 7.07 C 59.085 7.07 61.504 9.478 61.504 12.454 Z " fill="rgb(0,0,0)"/></g><g><path d=" M 75.79 12.454 C 75.79 15.434 73.366 17.843 70.405 17.843 C 67.441 17.843 65.016 15.434 65.016 12.454 C 65.016 9.478 67.441 7.07 70.405 7.07 C 73.366 7.07 75.79 9.478 75.79 12.454 Z " fill="rgb(0,0,0)"/></g><g><path d=" M 90.095 12.454 C 90.095 15.434 87.676 17.843 84.711 17.843 C 81.73 17.843 79.306 15.434 79.306 12.454 C 79.306 9.478 81.73 7.07 84.711 7.07 C 87.676 7.07 90.095 9.478 90.095 12.454 Z " fill="rgb(0,0,0)"/></g><g><path d=" M 104.812 12.454 C 104.812 15.434 102.388 17.843 99.412 17.843 C 96.447 17.843 94.023 15.434 94.023 12.454 C 94.023 9.478 96.447 7.07 99.412 7.07 C 102.388 7.07 104.812 9.478 104.812 12.454 Z " fill="rgb(0,0,0)"/></g><g><path d=" M 119.096 12.454 C 119.096 15.434 116.668 17.843 113.712 17.843 C 110.736 17.843 108.329 15.434 108.329 12.454 C 108.329 9.478 110.736 7.07 113.712 7.07 C 116.668 7.07 119.096 9.478 119.096 12.454 Z " fill="rgb(0,0,0)"/></g><g><path d=" M 133.382 12.454 C 133.382 15.434 130.978 17.843 127.998 17.843 C 125.017 17.843 122.608 15.434 122.608 12.454 C 122.608 9.478 125.017 7.07 127.998 7.07 C 130.978 7.07 133.382 9.478 133.382 12.454 Z " fill="rgb(0,0,0)"/></g><g><path d=" M 32.732 12.454 C 32.732 15.434 30.302 17.843 27.347 17.843 C 24.372 17.843 21.964 15.434 21.964 12.454 C 21.964 9.478 24.372 7.07 27.347 7.07 C 30.302 7.07 32.732 9.478 32.732 12.454 Z " fill="rgb(0,0,0)"/></g><g><path d=" M 47.017 12.454 C 47.017 15.434 44.608 17.843 41.628 17.843 C 38.652 17.843 36.243 15.434 36.243 12.454 C 36.243 9.478 38.652 7.07 41.628 7.07 C 44.608 7.07 47.017 9.478 47.017 12.454 Z " fill="rgb(0,0,0)"/></g><g><path d=" M 162.149 12.454 C 162.149 15.434 159.735 17.843 156.754 17.843 C 153.784 17.843 151.37 15.434 151.37 12.454 C 151.37 9.478 153.784 7.07 156.754 7.07 C 159.735 7.07 162.149 9.478 162.149 12.454 Z " fill="rgb(0,0,0)"/></g><g><path d=" M 176.434 12.454 C 176.434 15.434 174.01 17.843 171.05 17.843 C 168.085 17.843 165.666 15.434 165.666 12.454 C 165.666 9.478 168.085 7.07 171.05 7.07 C 174.01 7.07 176.434 9.478 176.434 12.454 Z " fill="rgb(0,0,0)"/></g><g><path d=" M 190.74 12.454 C 190.74 15.434 188.326 17.843 185.356 17.843 C 182.375 17.843 179.951 15.434 179.951 12.454 C 179.951 9.478 182.375 7.07 185.356 7.07 C 188.326 7.07 190.74 9.478 190.74 12.454 Z " fill="rgb(0,0,0)"/></g><g><path d=" M 205.462 12.454 C 205.462 15.434 203.038 17.843 200.063 17.843 C 197.097 17.843 194.673 15.434 194.673 12.454 C 194.673 9.478 197.097 7.07 200.063 7.07 C 203.038 7.07 205.462 9.478 205.462 12.454 Z " fill="rgb(0,0,0)"/></g><g><path d=" M 219.747 12.454 C 219.747 15.434 217.312 17.843 214.358 17.843 C 211.382 17.843 208.979 15.434 208.979 12.454 C 208.979 9.478 211.382 7.07 214.358 7.07 C 217.312 7.07 219.747 9.478 219.747 12.454 Z " fill="rgb(0,0,0)"/></g><g><path d=" M 234.032 12.454 C 234.032 15.434 231.628 17.843 228.643 17.843 C 225.667 17.843 223.253 15.434 223.253 12.454 C 223.253 9.478 225.667 7.07 228.643 7.07 C 231.628 7.07 234.032 9.478 234.032 12.454 Z " fill="rgb(0,0,0)"/></g><g><path d=" M 147.661 12.454 C 147.661 15.434 145.253 17.843 142.277 17.843 C 139.296 17.843 136.893 15.434 136.893 12.454 C 136.893 9.478 139.296 7.07 142.277 7.07 C 145.253 7.07 147.661 9.478 147.661 12.454 Z " fill="rgb(0,0,0)"/></g><g><path d=" M 61.504 110.274 C 61.504 113.254 59.085 115.663 56.109 115.663 C 53.139 115.663 50.72 113.254 50.72 110.274 C 50.72 107.298 53.139 104.89 56.109 104.89 C 59.085 104.89 61.504 107.298 61.504 110.274 Z " fill="rgb(0,0,0)"/></g><g><path d=" M 75.79 110.274 C 75.79 113.254 73.366 115.663 70.405 115.663 C 67.441 115.663 65.016 113.254 65.016 110.274 C 65.016 107.298 67.441 104.89 70.405 104.89 C 73.366 104.89 75.79 107.298 75.79 110.274 Z " fill="rgb(0,0,0)"/></g><g><path d=" M 90.095 110.274 C 90.095 113.254 87.676 115.663 84.711 115.663 C 81.73 115.663 79.306 113.254 79.306 110.274 C 79.306 107.298 81.73 104.89 84.711 104.89 C 87.676 104.89 90.095 107.298 90.095 110.274 Z " fill="rgb(0,0,0)"/></g><g><path d=" M 104.812 110.274 C 104.812 113.254 102.388 115.663 99.412 115.663 C 96.447 115.663 94.023 113.254 94.023 110.274 C 94.023 107.298 96.447 104.89 99.412 104.89 C 102.388 104.89 104.812 107.298 104.812 110.274 Z " fill="rgb(0,0,0)"/></g><g><path d=" M 119.096 110.274 C 119.096 113.254 116.668 115.663 113.712 115.663 C 110.736 115.663 108.329 113.254 108.329 110.274 C 108.329 107.298 110.736 104.89 113.712 104.89 C 116.668 104.89 119.096 107.298 119.096 110.274 Z " fill="rgb(0,0,0)"/></g><g><path d=" M 133.382 110.274 C 133.382 113.254 130.978 115.663 127.998 115.663 C 125.017 115.663 122.608 113.254 122.608 110.274 C 122.608 107.298 125.017 104.89 127.998 104.89 C 130.978 104.89 133.382 107.298 133.382 110.274 Z " fill="rgb(0,0,0)"/></g><g><path d=" M 32.732 110.274 C 32.732 113.254 30.302 115.663 27.347 115.663 C 24.372 115.663 21.964 113.254 21.964 110.274 C 21.964 107.298 24.372 104.89 27.347 104.89 C 30.302 104.89 32.732 107.298 32.732 110.274 Z " fill="rgb(0,0,0)"/></g><g><path d=" M 47.017 110.274 C 47.017 113.254 44.608 115.663 41.628 115.663 C 38.652 115.663 36.243 113.254 36.243 110.274 C 36.243 107.298 38.652 104.89 41.628 104.89 C 44.608 104.89 47.017 107.298 47.017 110.274 Z " fill="rgb(0,0,0)"/></g><g><path d=" M 162.149 110.274 C 162.149 113.254 159.735 115.663 156.754 115.663 C 153.784 115.663 151.37 113.254 151.37 110.274 C 151.37 107.298 153.784 104.89 156.754 104.89 C 159.735 104.89 162.149 107.298 162.149 110.274 Z " fill="rgb(0,0,0)"/></g><g><path d=" M 176.434 110.274 C 176.434 113.254 174.01 115.663 171.05 115.663 C 168.085 115.663 165.666 113.254 165.666 110.274 C 165.666 107.298 168.085 104.89 171.05 104.89 C 174.01 104.89 176.434 107.298 176.434 110.274 Z " fill="rgb(0,0,0)"/></g><g><path d=" M 190.74 110.274 C 190.74 113.254 188.326 115.663 185.356 115.663 C 182.375 115.663 179.951 113.254 179.951 110.274 C 179.951 107.298 182.375 104.89 185.356 104.89 C 188.326 104.89 190.74 107.298 190.74 110.274 Z " fill="rgb(0,0,0)"/></g><g><path d=" M 205.462 110.274 C 205.462 113.254 203.038 115.663 200.063 115.663 C 197.097 115.663 194.673 113.254 194.673 110.274 C 194.673 107.298 197.097 104.89 200.063 104.89 C 203.038 104.89 205.462 107.298 205.462 110.274 Z " fill="rgb(0,0,0)"/></g><g><path d=" M 219.747 110.274 C 219.747 113.254 217.312 115.663 214.358 115.663 C 211.382 115.663 208.979 113.254 208.979 110.274 C 208.979 107.298 211.382 104.89 214.358 104.89 C 217.312 104.89 219.747 107.298 219.747 110.274 Z " fill="rgb(0,0,0)"/></g><g><path d=" M 234.032 110.274 C 234.032 113.254 231.628 115.663 228.643 115.663 C 225.667 115.663 223.253 113.254 223.253 110.274 C 223.253 107.298 225.667 104.89 228.643 104.89 C 231.628 104.89 234.032 107.298 234.032 110.274 Z " fill="rgb(0,0,0)"/></g><g><path d=" M 147.661 110.274 C 147.661 113.254 145.253 115.663 142.277 115.663 C 139.296 115.663 136.893 113.254 136.893 110.274 C 136.893 107.298 139.296 104.89 142.277 104.89 C 145.253 104.89 147.661 107.298 147.661 110.274 Z " fill="rgb(0,0,0)"/></g><g><linearGradient id="_lgradient_187" x1="0" y1="0.5" x2="0.9397632358070777" y2="0.8418260677967832" gradientTransform="matrix(82.942,0,0,53.831,21.87,34.032)" gradientUnits="userSpaceOnUse"><stop offset="0%" stop-opacity="1" style="stop-color:rgb(30,144,206)"/><stop offset="22.153999999999996%" stop-opacity="1" style="stop-color:rgb(110,190,233)"/><stop offset="66.5984%" stop-opacity="1" style="stop-color:rgb(26,142,205)"/><stop offset="100%" stop-opacity="1" style="stop-color:rgb(26,142,205)"/></linearGradient><path d=" M 21.87 87.863 L 104.812 87.863 L 104.812 34.032 L 21.87 34.032 L 21.87 87.863 Z " fill="url(#_lgradient_187)"/></g></g></g></svg>