<?xml version="1.0" encoding="UTF-8" standalone="no"?><!-- Generator: Gravit.io --><svg xmlns="http://www.w3.org/2000/svg" xmlns:xlink="http://www.w3.org/1999/xlink" style="isolation:isolate" viewBox="0 0 256 152.608" width="256pt" height="152.608pt"><defs><clipPath id="_clipPath_b1vpwNzmeUKltmWd3MunWk16Gy7LAEPB"><rect width="256" height="152.608"/></clipPath></defs><g clip-path="url(#_clipPath_b1vpwNzmeUKltmWd3MunWk16Gy7LAEPB)"><g><g><linearGradient id="_lgradient_188" x1="0" y1="0.5" x2="6.123233995736766e-17" y2="-0.5" gradientTransform="matrix(256,0,0,152.608,0,0)" gradientUnits="userSpaceOnUse"><stop offset="0%" stop-opacity="1" style="stop-color:rgb(76,76,78)"/><stop offset="24.9%" stop-opacity="1" style="stop-color:rgb(98,99,102)"/><stop offset="100%" stop-opacity="1" style="stop-color:rgb(49,47,49)"/></linearGradient><path d=" M 0 0 L 0 143.744 L 24.749 143.744 L 28.611 151.205 L 65.649 151.205 L 68.514 143.744 L 187.312 143.744 L 190.763 152.608 L 227.681 152.608 L 232.246 143.744 L 256 143.744 L 256 0 L 0 0 Z " fill="url(#_lgradient_188)"/></g><g><linearGradient id="_lgradient_189" x1="0" y1="0.5" x2="1" y2="0.5" gradientTransform="matrix(43.766,0,0,7.461,24.757,143.744)" gradientUnits="userSpaceOnUse"><stop offset="0%" stop-opacity="1" style="stop-color:rgb(34,31,32)"/><stop offset="50.2%" stop-opacity="1" style="stop-color:rgb(69,68,70)"/><stop offset="100%" stop-opacity="1" style="stop-color:rgb(34,31,32)"/></linearGradient><path d=" M 28.618 151.205 L 65.655 151.205 L 68.523 143.744 L 24.757 143.744 L 28.618 151.205 Z " fill="url(#_lgradient_189)"/></g><g><linearGradient id="_lgradient_190" x1="0" y1="0.5" x2="1" y2="0.5" gradientTransform="matrix(44.935,0,0,8.864,187.325,143.744)" gradientUnits="userSpaceOnUse"><stop offset="0%" stop-opacity="1" style="stop-color:rgb(34,31,32)"/><stop offset="50.2%" stop-opacity="1" style="stop-color:rgb(69,68,70)"/><stop offset="100%" stop-opacity="1" style="stop-color:rgb(34,31,32)"/></linearGradient><path d=" M 190.777 152.608 L 227.697 152.608 L 232.26 143.744 L 187.325 143.744 L 190.777 152.608 Z " fill="url(#_lgradient_190)"/></g><g><path d=" M 220.856 112.222 C 216.79 112.222 213.484 74.995 213.484 60.354 C 213.484 45.74 216.79 33.877 220.856 33.877 C 224.983 33.877 228.288 60.764 228.288 75.376 C 228.288 90.018 224.983 112.222 220.856 112.222 Z " fill="rgb(35,31,32)"/></g><g><path d=" M 40.159 112.222 C 36.101 112.222 32.787 90.018 32.787 75.376 C 32.787 60.764 36.101 33.877 40.159 33.877 C 44.285 33.877 47.598 45.74 47.598 60.354 C 47.598 74.995 44.285 112.222 40.159 112.222 Z " fill="rgb(35,31,32)"/></g><g><linearGradient id="_lgradient_191" x1="0" y1="0.5" x2="1" y2="0.5" gradientTransform="matrix(181.911,0,0,77.702,40.159,34.17)" gradientUnits="userSpaceOnUse"><stop offset="0%" stop-opacity="1" style="stop-color:rgb(187,189,191)"/><stop offset="50.2%" stop-opacity="1" style="stop-color:rgb(230,231,232)"/><stop offset="100%" stop-opacity="1" style="stop-color:rgb(219,220,222)"/></linearGradient><path d=" M 40.159 111.872 L 222.07 111.872 L 222.07 34.17 L 40.159 34.17 L 40.159 111.872 Z " fill="url(#_lgradient_191)"/></g><g><path d=" M 124.402 84.454 L 110.718 84.454 L 110.718 92.499 L 104.692 92.499 L 104.692 100.94 L 80.608 100.94 L 80.608 92.499 L 74.214 92.499 L 74.214 84.454 L 62.551 84.454 L 62.551 45.94 L 124.402 45.94 L 124.402 84.454 Z " fill="rgb(35,31,32)"/></g><g><path d=" M 174.437 70.527 C 172.753 70.527 171.388 71.892 171.388 73.576 C 171.388 75.259 172.753 76.624 174.437 76.624 C 176.121 76.624 177.486 75.259 177.486 73.576 C 177.486 71.892 176.121 70.527 174.437 70.527 Z  M 203.228 73.576 C 203.228 89.477 190.338 102.367 174.437 102.367 C 158.536 102.367 145.645 89.477 145.645 73.576 C 145.645 57.674 158.536 44.784 174.437 44.784 C 190.338 44.784 203.228 57.674 203.228 73.576 Z " fill="rgb(35,31,32)"/></g></g></g></svg>