<?xml version="1.0" encoding="UTF-8" standalone="no"?><!-- Generator: Gravit.io --><svg xmlns="http://www.w3.org/2000/svg" xmlns:xlink="http://www.w3.org/1999/xlink" style="isolation:isolate" viewBox="0 0 170.932 256" width="170.932pt" height="256pt"><defs><clipPath id="_clipPath_D24kf9i6vaqKfRV3zttVpuRKV8pGupSB"><rect width="170.932" height="256"/></clipPath></defs><g clip-path="url(#_clipPath_D24kf9i6vaqKfRV3zttVpuRKV8pGupSB)"><g><g><linearGradient id="_lgradient_196" x1="0" y1="0.5" x2="6.123233995736766e-17" y2="-0.5" gradientTransform="matrix(80.061,0,0,176.539,81.737,79.461)" gradientUnits="userSpaceOnUse"><stop offset="0%" stop-opacity="1" style="stop-color:rgb(76,76,78)"/><stop offset="24.9%" stop-opacity="1" style="stop-color:rgb(98,99,102)"/><stop offset="100%" stop-opacity="1" style="stop-color:rgb(49,47,49)"/></linearGradient><path d=" M 82.238 79.461 L 82.238 154.358 C 81.931 155.344 81.929 156.393 82.238 157.362 L 82.238 247.037 C 81.554 248.433 81.585 250.032 82.238 251.385 L 82.238 251.616 C 82.238 254.037 84.201 256 86.622 256 C 88.981 256 90.889 254.133 90.988 251.8 C 94.189 247.374 97.541 242.954 101.088 238.28 C 106.033 231.763 111.046 225.152 115.744 218.385 C 128.17 227.444 140.666 236.314 152.604 243.889 C 153.037 244.163 153.496 244.359 153.966 244.486 C 155.252 246.137 157.57 246.681 159.475 245.663 C 161.613 244.524 162.42 241.868 161.282 239.732 C 161.11 239.411 144.013 207.295 130.316 176.642 C 126.835 168.849 123.834 161.735 121.396 155.495 C 109.085 123.998 98.752 83.182 98.647 82.773 L 97.813 79.461 L 82.238 79.461 Z  M 91.006 125.379 L 91.006 88.236 C 92.552 94.121 96.075 107.181 100.716 122.236 C 100.452 122.567 100.21 122.923 100.031 123.329 C 98.966 125.751 97.894 128.084 96.818 130.368 C 94.925 128.639 92.992 126.961 91.006 125.379 Z  M 94.702 155.635 C 96.381 152.833 98.029 149.925 99.652 146.905 C 102.172 149.36 104.629 151.707 107.105 153.86 C 105.836 156.753 104.45 159.574 102.967 162.345 C 100.247 160.123 97.485 157.875 94.702 155.635 Z  M 110.82 168.752 C 112.085 166.457 113.296 164.123 114.442 161.744 C 116.29 166.347 118.403 171.355 120.755 176.704 C 117.412 174.07 114.094 171.414 110.82 168.752 Z  M 91.006 165.456 C 93.335 167.343 95.648 169.23 97.927 171.094 C 95.722 174.691 93.398 178.259 91.006 181.863 L 91.006 165.456 Z  M 107.814 200.212 C 103.864 197.304 100.073 194.515 96.357 191.8 C 96.385 191.759 96.412 191.718 96.439 191.677 C 99.55 187.02 102.701 182.297 105.712 177.438 C 110.794 181.56 115.981 185.678 121.25 189.681 C 118.932 194.576 116.205 199.406 113.206 204.178 C 111.404 202.853 109.605 201.53 107.814 200.212 Z  M 121.264 210.08 C 124.248 205.37 127.013 200.577 129.427 195.678 C 134.877 207.222 140.32 218.16 144.656 226.693 C 136.955 221.427 129.1 215.795 121.264 210.08 Z  M 91.006 200.231 C 94.542 202.815 98.152 205.47 101.908 208.235 C 103.832 209.652 105.765 211.074 107.702 212.498 C 103.067 219.19 98.074 225.771 93.152 232.256 C 92.441 233.192 91.723 234.139 91.006 235.086 L 91.006 200.231 Z " fill="url(#_lgradient_196)"/></g><g><radialGradient id="_rgradient_24" fx="0.5" fy="0.5" cx="0.5" cy="0.5" r="0.443" gradientTransform="matrix(170.932,0,0,129.047,0,0)" gradientUnits="userSpaceOnUse"><stop offset="0%" stop-opacity="1" style="stop-color:rgb(26,142,205)"/><stop offset="24.5%" stop-opacity="1" style="stop-color:rgb(26,142,205)"/><stop offset="65.2%" stop-opacity="1" style="stop-color:rgb(110,190,233)"/><stop offset="100%" stop-opacity="1" style="stop-color:rgb(26,142,205)"/></radialGradient><path d=" M 138.244 0 C 137.007 0.017 135.784 0.556 134.931 1.582 C 133.383 3.445 133.639 6.209 135.5 7.756 C 152.446 21.834 162.164 42.525 162.164 64.524 C 162.164 86.522 152.446 107.213 135.5 121.292 C 133.639 122.839 133.383 125.603 134.931 127.465 C 135.797 128.508 137.047 129.047 138.306 129.047 C 139.292 129.047 140.285 128.716 141.104 128.035 C 160.06 112.285 170.932 89.136 170.932 64.524 C 170.932 39.911 160.06 16.762 141.104 1.012 C 140.301 0.345 139.331 0.013 138.363 0 L 138.244 0 Z  M 32.575 0 C 31.605 0.012 30.632 0.344 29.828 1.012 C 10.872 16.761 0 39.911 0 64.524 C 0 89.137 10.872 112.286 29.829 128.035 C 30.647 128.716 31.64 129.047 32.627 129.047 C 33.885 129.047 35.134 128.508 36.002 127.465 C 37.549 125.603 37.293 122.839 35.431 121.292 C 18.486 107.213 8.768 86.522 8.768 64.524 C 8.768 42.525 18.486 21.834 35.431 7.756 C 37.293 6.209 37.549 3.445 36.002 1.582 C 35.147 0.553 33.921 0.015 32.68 0 L 32.575 0 Z  M 119.4 17.137 C 117.92 19.053 118.273 21.806 120.19 23.286 C 133.082 33.244 140.476 48.275 140.476 64.524 C 140.476 80.774 133.082 95.804 120.19 105.761 C 118.273 107.242 117.92 109.995 119.4 111.91 C 120.264 113.029 121.561 113.615 122.872 113.615 C 123.808 113.615 124.752 113.317 125.55 112.7 C 140.608 101.07 149.244 83.51 149.244 64.524 C 149.244 45.538 140.608 27.978 125.55 16.347 C 124.752 15.731 123.809 15.433 122.873 15.433 C 121.561 15.433 120.264 16.019 119.4 17.137 Z  M 45.383 16.347 C 30.324 27.978 21.687 45.537 21.687 64.524 C 21.687 83.51 30.324 101.07 45.383 112.7 C 46.181 113.317 47.123 113.615 48.059 113.615 C 49.37 113.615 50.668 113.029 51.532 111.91 C 53.012 109.995 52.658 107.241 50.742 105.761 C 37.849 95.805 30.455 80.774 30.455 64.524 C 30.455 48.275 37.849 33.244 50.742 23.286 C 52.658 21.807 53.012 19.053 51.532 17.137 C 50.668 16.019 49.371 15.433 48.06 15.433 C 47.124 15.433 46.181 15.731 45.383 16.347 Z  M 105.119 31.418 C 103.761 33.453 104.309 36.206 106.346 37.566 C 115.385 43.6 120.782 53.678 120.782 64.524 C 120.782 75.37 115.385 85.447 106.346 91.482 C 104.309 92.841 103.761 95.594 105.119 97.63 C 105.975 98.91 107.379 99.603 108.811 99.603 C 109.656 99.603 110.512 99.36 111.268 98.855 C 122.777 91.173 129.648 78.338 129.648 64.524 C 129.648 50.709 122.777 37.874 111.268 30.192 C 110.512 29.687 109.657 29.445 108.812 29.445 C 107.38 29.445 105.975 30.137 105.119 31.418 Z  M 59.663 30.192 C 48.155 37.874 41.284 50.709 41.284 64.524 C 41.284 78.339 48.155 91.173 59.663 98.855 C 60.42 99.36 61.274 99.603 62.121 99.603 C 63.551 99.603 64.957 98.91 65.812 97.63 C 67.17 95.594 66.623 92.841 64.585 91.482 C 55.546 85.447 50.151 75.37 50.151 64.524 C 50.151 53.677 55.546 43.6 64.585 37.566 C 66.623 36.206 67.17 33.453 65.812 31.418 C 64.956 30.138 63.551 29.446 62.12 29.446 C 61.274 29.446 60.419 29.687 59.663 30.192 Z " fill="url(#_rgradient_24)"/></g><g><linearGradient id="_lgradient_197" x1="0" y1="0.5" x2="6.123233995736766e-17" y2="-0.5" gradientTransform="matrix(75.42,0,0,176.539,11.109,79.461)" gradientUnits="userSpaceOnUse"><stop offset="0%" stop-opacity="1" style="stop-color:rgb(76,76,78)"/><stop offset="24.9%" stop-opacity="1" style="stop-color:rgb(98,99,102)"/><stop offset="100%" stop-opacity="1" style="stop-color:rgb(49,47,49)"/></linearGradient><path d=" M 75.093 79.461 L 74.259 82.773 C 74.155 83.182 63.821 123.999 51.512 155.495 C 49.073 161.735 46.071 168.849 42.591 176.642 C 28.894 207.295 11.796 239.412 11.625 239.732 C 10.486 241.868 11.294 244.524 13.431 245.663 C 15.336 246.681 17.654 246.137 18.941 244.486 C 19.41 244.359 19.869 244.163 20.302 243.889 C 32.24 236.314 44.736 227.444 57.163 218.385 C 61.86 225.152 66.873 231.763 71.818 238.279 C 75.366 242.954 78.719 247.374 81.919 251.8 C 82.017 254.133 83.925 256 86.284 256 C 86.371 256 86.443 255.956 86.529 255.951 L 86.529 79.461 L 75.093 79.461 Z  M 72.875 123.329 C 72.696 122.922 72.455 122.567 72.19 122.236 C 76.832 107.181 80.354 94.121 81.9 88.236 L 81.9 125.379 C 79.916 126.961 77.981 128.639 76.089 130.368 C 75.013 128.084 73.941 125.751 72.875 123.329 Z  M 65.802 153.86 C 68.278 151.707 70.735 149.36 73.254 146.905 C 74.877 149.925 76.525 152.833 78.204 155.635 C 75.422 157.875 72.661 160.122 69.939 162.345 C 68.456 159.574 67.071 156.753 65.802 153.86 Z  M 58.464 161.744 C 59.611 164.123 60.822 166.457 62.087 168.752 C 58.813 171.414 55.495 174.07 52.151 176.705 C 54.503 171.355 56.617 166.348 58.464 161.744 Z  M 74.979 171.094 C 77.26 169.23 79.571 167.343 81.9 165.456 L 81.9 181.862 C 79.51 178.26 77.184 174.691 74.979 171.094 Z  M 51.656 189.681 C 56.926 185.678 62.113 181.56 67.194 177.438 C 70.205 182.297 73.356 187.02 76.468 191.677 C 76.496 191.718 76.523 191.76 76.549 191.8 C 72.833 194.515 69.042 197.304 65.092 200.211 C 63.301 201.53 61.502 202.853 59.701 204.178 C 56.702 199.406 53.974 194.576 51.656 189.681 Z  M 43.48 195.678 C 45.894 200.577 48.659 205.37 51.643 210.08 C 43.807 215.794 35.951 221.428 28.251 226.693 C 32.587 218.16 38.03 207.222 43.48 195.678 Z  M 79.754 232.256 C 74.833 225.772 69.839 219.19 65.205 212.498 C 67.142 211.074 69.074 209.652 70.998 208.235 C 74.754 205.47 78.364 202.815 81.9 200.231 L 81.9 235.086 C 81.183 234.138 80.465 233.192 79.754 232.256 Z " fill="url(#_lgradient_197)"/></g><g><radialGradient id="_rgradient_25" fx="0.5" fy="0.5" cx="0.5" cy="0.5" r="0.5" gradientTransform="matrix(36.01,0,0,36.009,67.461,47.835)" gradientUnits="userSpaceOnUse"><stop offset="0%" stop-opacity="1" style="stop-color:rgb(98,99,102)"/><stop offset="24.9%" stop-opacity="1" style="stop-color:rgb(98,99,102)"/><stop offset="100%" stop-opacity="1" style="stop-color:rgb(49,47,49)"/></radialGradient><path d=" M 67.461 65.84 C 67.461 75.783 75.523 83.844 85.466 83.844 C 95.41 83.844 103.471 75.783 103.471 65.84 C 103.471 55.896 95.41 47.835 85.466 47.835 C 75.523 47.835 67.461 55.896 67.461 65.84 Z " fill="url(#_rgradient_25)"/></g></g></g></svg>