<?xml version="1.0" encoding="UTF-8" standalone="no"?><!-- Generator: Gravit.io --><svg xmlns="http://www.w3.org/2000/svg" xmlns:xlink="http://www.w3.org/1999/xlink" style="isolation:isolate" viewBox="0 0 255.999 221.652" width="255.999pt" height="221.652pt"><defs><clipPath id="_clipPath_j28Ps4u6xzXCJfAh6iqXo7qhv6YH6nlb"><rect width="255.999" height="221.652"/></clipPath></defs><g clip-path="url(#_clipPath_j28Ps4u6xzXCJfAh6iqXo7qhv6YH6nlb)"><g><g><path d=" M 7.729 7.729 L 88.727 7.729 L 88.727 87.475 L 112.231 87.475 L 112.231 86.252 L 115.121 86.252 C 115.121 85.029 115.187 83.814 115.323 82.622 L 112.305 82.274 C 112.273 82.551 112.257 82.83 112.231 83.107 L 112.231 79.746 L 96.455 79.746 L 96.455 7.729 L 168.235 7.729 L 168.235 79.746 L 152.331 79.746 L 162.283 57.134 L 159.413 55.873 L 160.011 54.47 C 158.797 53.942 157.537 53.504 156.253 53.126 L 155.407 56.055 C 155.871 56.187 156.327 56.34 156.783 56.495 L 144.155 85.188 L 148.849 87.25 L 148.849 87.475 L 168.235 87.475 L 176.201 87.475 L 191.741 87.475 L 191.741 86.252 L 194.629 86.252 C 194.629 85.029 194.697 83.814 194.833 82.622 L 191.813 82.274 C 191.783 82.551 191.767 82.83 191.741 83.107 L 191.741 79.746 L 176.201 79.746 L 176.201 7.729 L 247.981 7.729 L 247.981 79.746 L 231.841 79.746 L 241.793 57.134 L 238.921 55.873 L 239.521 54.47 C 238.305 53.942 237.045 53.504 235.763 53.126 L 234.917 56.055 C 235.379 56.187 235.837 56.34 236.291 56.495 L 223.663 85.188 L 228.359 87.25 L 228.359 87.475 L 248.271 87.475 L 248.271 133.504 L 232.205 133.504 L 232.205 134.727 L 229.317 134.727 C 229.317 135.95 229.249 137.165 229.113 138.357 L 232.131 138.704 C 232.163 138.428 232.179 138.149 232.205 137.872 L 232.205 141.233 L 247.981 141.233 L 247.981 213.25 L 176.201 213.25 L 176.201 141.233 L 192.105 141.233 L 182.153 163.845 L 185.025 165.106 L 184.425 166.509 C 185.641 167.037 186.901 167.475 188.183 167.852 L 189.029 164.924 C 188.565 164.792 188.109 164.639 187.655 164.484 L 200.283 135.791 L 195.587 133.729 L 195.587 133.504 L 176.201 133.504 L 168.235 133.504 L 152.697 133.504 L 152.697 134.727 L 149.807 134.727 C 149.807 135.95 149.739 137.165 149.603 138.357 L 152.623 138.704 C 152.655 138.428 152.671 138.149 152.697 137.872 L 152.697 141.233 L 168.235 141.233 L 168.235 213.25 L 96.455 213.25 L 96.455 141.233 L 112.595 141.233 L 102.645 163.845 L 105.515 165.106 L 104.917 166.509 C 106.131 167.037 107.391 167.475 108.675 167.852 L 109.519 164.924 C 109.057 164.792 108.601 164.639 108.145 164.484 L 120.773 135.791 L 116.079 133.729 L 116.079 133.504 L 88.727 133.504 L 88.727 213.923 L 7.729 213.923 L 7.729 7.729 Z  M 255.709 0 L 176.201 0 L 168.235 0 L 88.727 0 L 0 0 L 0 221.652 L 255.999 221.652 L 255.999 0 L 255.709 0 Z " fill="rgb(42,56,144)"/></g><g><path d=" M 141.77 55.157 L 141.317 52.153 C 138.857 52.523 136.434 53.172 134.094 54.078 L 135.196 56.916 C 137.325 56.093 139.536 55.497 141.77 55.157 Z " fill="rgb(42,56,144)"/></g><g><path d=" M 132.094 58.319 L 130.69 55.617 C 128.471 56.772 126.381 58.168 124.471 59.761 L 126.418 62.1 C 128.162 60.644 130.071 59.376 132.094 58.319 Z " fill="rgb(42,56,144)"/></g><g><path d=" M 151.981 55.262 L 152.509 52.258 C 150.094 51.835 147.528 51.669 145.045 51.783 L 145.181 54.832 C 147.536 54.719 149.785 54.87 151.981 55.262 Z " fill="rgb(42,56,144)"/></g><g><path d=" M 118.124 72.81 L 115.362 71.512 C 114.305 73.768 113.49 76.146 112.931 78.576 L 115.905 79.255 C 116.411 77.037 117.158 74.863 118.124 72.81 Z " fill="rgb(42,56,144)"/></g><g><path d=" M 123.92 64.417 L 121.731 62.304 C 119.988 64.115 118.448 66.1 117.15 68.213 L 119.746 69.813 C 120.931 67.881 122.335 66.07 123.92 64.417 Z " fill="rgb(42,56,144)"/></g><g><path d=" M 197.633 72.81 L 194.871 71.512 C 193.814 73.768 192.999 76.146 192.44 78.576 L 195.414 79.255 C 195.92 77.037 196.667 74.863 197.633 72.81 Z " fill="rgb(42,56,144)"/></g><g><path d=" M 211.603 58.319 L 210.199 55.617 C 207.98 56.772 205.89 58.168 203.98 59.761 L 205.927 62.1 C 207.671 60.644 209.58 59.376 211.603 58.319 Z " fill="rgb(42,56,144)"/></g><g><path d=" M 221.279 55.157 L 220.826 52.153 C 218.366 52.523 215.943 53.172 213.603 54.078 L 214.705 56.916 C 216.834 56.093 219.045 55.497 221.279 55.157 Z " fill="rgb(42,56,144)"/></g><g><path d=" M 203.429 64.417 L 201.24 62.304 C 199.497 64.115 197.957 66.1 196.659 68.213 L 199.255 69.813 C 200.44 67.881 201.844 66.07 203.429 64.417 Z " fill="rgb(42,56,144)"/></g><g><path d=" M 231.49 55.262 L 232.018 52.258 C 229.603 51.835 227.037 51.669 224.554 51.783 L 224.69 54.832 C 227.045 54.719 229.294 54.87 231.49 55.262 Z " fill="rgb(42,56,144)"/></g><g><path d=" M 222.705 158.675 C 224.448 156.864 225.988 154.879 227.286 152.765 L 224.69 151.165 C 223.505 153.098 222.101 154.909 220.516 156.562 L 222.705 158.675 Z " fill="rgb(42,56,144)"/></g><g><path d=" M 231.506 142.403 L 228.532 141.724 C 228.026 143.943 227.278 146.116 226.312 148.169 L 229.075 149.467 C 230.132 147.211 230.948 144.833 231.506 142.403 Z " fill="rgb(42,56,144)"/></g><g><path d=" M 192.455 165.716 L 191.927 168.72 C 194.342 169.143 196.908 169.309 199.391 169.195 L 199.255 166.146 C 196.9 166.259 194.651 166.108 192.455 165.716 Z " fill="rgb(42,56,144)"/></g><g><path d=" M 202.667 165.822 L 203.12 168.826 C 205.58 168.456 208.003 167.807 210.343 166.901 L 209.241 164.063 C 207.112 164.886 204.901 165.482 202.667 165.822 Z " fill="rgb(42,56,144)"/></g><g><path d=" M 219.966 161.218 L 218.019 158.878 C 216.275 160.335 214.366 161.603 212.343 162.66 L 213.747 165.361 C 215.966 164.207 218.057 162.81 219.966 161.218 Z " fill="rgb(42,56,144)"/></g><g><path d=" M 112.946 165.716 L 112.418 168.72 C 114.833 169.143 117.399 169.309 119.882 169.195 L 119.746 166.146 C 117.391 166.259 115.142 166.108 112.946 165.716 Z " fill="rgb(42,56,144)"/></g><g><path d=" M 140.457 161.218 L 138.51 158.878 C 136.766 160.335 134.857 161.603 132.834 162.66 L 134.238 165.361 C 136.457 164.207 138.548 162.81 140.457 161.218 Z " fill="rgb(42,56,144)"/></g><g><path d=" M 151.997 142.403 L 149.023 141.724 C 148.517 143.943 147.769 146.116 146.803 148.169 L 149.566 149.467 C 150.623 147.211 151.439 144.833 151.997 142.403 Z " fill="rgb(42,56,144)"/></g><g><path d=" M 123.158 165.822 L 123.611 168.826 C 126.071 168.456 128.494 167.807 130.834 166.901 L 129.732 164.063 C 127.603 164.886 125.392 165.482 123.158 165.822 Z " fill="rgb(42,56,144)"/></g><g><path d=" M 143.196 158.675 C 144.939 156.864 146.479 154.879 147.777 152.765 L 145.181 151.165 C 143.996 153.098 142.592 154.909 141.007 156.562 L 143.196 158.675 Z " fill="rgb(42,56,144)"/></g><g><linearGradient id="_lgradient_198" x1="0" y1="0.5" x2="1" y2="0.5" gradientTransform="matrix(37.597,0,0,37.596,113.665,158.443)" gradientUnits="userSpaceOnUse"><stop offset="0%" stop-opacity="1" style="stop-color:rgb(147,47,30)"/><stop offset="77.3%" stop-opacity="1" style="stop-color:rgb(147,47,30)"/><stop offset="99.6%" stop-opacity="1" style="stop-color:rgb(153,60,38)"/><stop offset="100%" stop-opacity="1" style="stop-color:rgb(153,60,38)"/></linearGradient><path d=" M 113.665 177.242 C 113.665 187.623 122.082 196.039 132.464 196.039 C 142.846 196.039 151.262 187.623 151.262 177.242 C 151.262 166.859 142.846 158.443 132.464 158.443 C 122.082 158.443 113.665 166.859 113.665 177.242 Z " fill="url(#_lgradient_198)"/></g></g></g></svg>