<?xml version="1.0" encoding="UTF-8" standalone="no"?><!-- Generator: Gravit.io --><svg xmlns="http://www.w3.org/2000/svg" xmlns:xlink="http://www.w3.org/1999/xlink" style="isolation:isolate" viewBox="0 0 256 83.785" width="256pt" height="83.785pt"><defs><clipPath id="_clipPath_w4sanPuqfSrsohbrUqLEg2xWWkiH6847"><rect width="256" height="83.785"/></clipPath></defs><g clip-path="url(#_clipPath_w4sanPuqfSrsohbrUqLEg2xWWkiH6847)"><g><g><linearGradient id="_lgradient_199" x1="0" y1="0.5" x2="6.123233995736766e-17" y2="1.5" gradientTransform="matrix(256,0,0,83.785,0,0)" gradientUnits="userSpaceOnUse"><stop offset="0%" stop-opacity="1" style="stop-color:rgb(219,220,222)"/><stop offset="37.8%" stop-opacity="1" style="stop-color:rgb(177,179,181)"/><stop offset="72.1%" stop-opacity="1" style="stop-color:rgb(219,220,222)"/><stop offset="100%" stop-opacity="1" style="stop-color:rgb(187,189,191)"/></linearGradient><path d=" M 220.833 0 L 214.455 0 L 187.07 0 L 180.693 0 L 153.288 0 L 146.91 0 L 119.52 0 L 113.143 0 L 1.904 0 C 0.848 0 0 0.751 0 1.663 L 0 82.124 C 0 83.039 0.848 83.785 1.904 83.785 L 254.106 83.785 C 255.157 83.785 256 83.039 256 82.124 L 256 1.663 C 256 0.751 255.157 0 254.106 0 L 220.833 0 Z " fill="url(#_lgradient_199)"/></g><g><linearGradient id="_lgradient_200" x1="0" y1="0.5" x2="6.123233995736766e-17" y2="1.5" gradientTransform="matrix(213.373,0,0,49.369,21.316,17.14)" gradientUnits="userSpaceOnUse"><stop offset="0%" stop-opacity="1" style="stop-color:rgb(108,110,112)"/><stop offset="53.6%" stop-opacity="1" style="stop-color:rgb(63,62,64)"/><stop offset="100%" stop-opacity="1" style="stop-color:rgb(63,62,64)"/></linearGradient><path d=" M 205.378 17.14 L 200.063 17.14 L 177.239 17.14 L 171.918 17.14 L 149.081 17.14 L 143.761 17.14 L 120.937 17.14 L 115.617 17.14 L 22.907 17.14 C 22.022 17.14 21.316 17.583 21.316 18.119 L 21.316 65.53 C 21.316 66.069 22.022 66.509 22.907 66.509 L 233.111 66.509 C 233.983 66.509 234.689 66.069 234.689 65.53 L 234.689 18.119 C 234.689 17.583 233.983 17.14 233.111 17.14 L 205.378 17.14 Z " fill="url(#_lgradient_200)"/></g><g><linearGradient id="_lgradient_201" x1="0" y1="0.5" x2="6.123233995736766e-17" y2="1.5" gradientTransform="matrix(10.218,0,0,10.208,54.779,24.446)" gradientUnits="userSpaceOnUse"><stop offset="0%" stop-opacity="1" style="stop-color:rgb(219,220,222)"/><stop offset="37.8%" stop-opacity="1" style="stop-color:rgb(177,179,181)"/><stop offset="72.1%" stop-opacity="1" style="stop-color:rgb(219,220,222)"/><stop offset="100%" stop-opacity="1" style="stop-color:rgb(187,189,191)"/></linearGradient><path d=" M 54.779 29.547 C 54.779 32.371 57.071 34.654 59.885 34.654 C 62.705 34.654 64.997 32.371 64.997 29.547 C 64.997 26.728 62.705 24.446 59.885 24.446 C 57.071 24.446 54.779 26.728 54.779 29.547 Z " fill="url(#_lgradient_201)"/></g><g><linearGradient id="_lgradient_202" x1="0" y1="0.5" x2="6.123233995736766e-17" y2="1.5" gradientTransform="matrix(10.208,0,0,10.208,68.324,24.446)" gradientUnits="userSpaceOnUse"><stop offset="0%" stop-opacity="1" style="stop-color:rgb(219,220,222)"/><stop offset="37.8%" stop-opacity="1" style="stop-color:rgb(177,179,181)"/><stop offset="72.1%" stop-opacity="1" style="stop-color:rgb(219,220,222)"/><stop offset="100%" stop-opacity="1" style="stop-color:rgb(187,189,191)"/></linearGradient><path d=" M 68.324 29.547 C 68.324 32.371 70.621 34.654 73.43 34.654 C 76.235 34.654 78.532 32.371 78.532 29.547 C 78.532 26.728 76.235 24.446 73.43 24.446 C 70.621 24.446 68.324 26.728 68.324 29.547 Z " fill="url(#_lgradient_202)"/></g><g><linearGradient id="_lgradient_203" x1="0" y1="0.5" x2="6.123233995736766e-17" y2="1.5" gradientTransform="matrix(10.223,0,0,10.208,81.864,24.446)" gradientUnits="userSpaceOnUse"><stop offset="0%" stop-opacity="1" style="stop-color:rgb(219,220,222)"/><stop offset="37.8%" stop-opacity="1" style="stop-color:rgb(177,179,181)"/><stop offset="72.1%" stop-opacity="1" style="stop-color:rgb(219,220,222)"/><stop offset="100%" stop-opacity="1" style="stop-color:rgb(187,189,191)"/></linearGradient><path d=" M 81.864 29.547 C 81.864 32.371 84.161 34.654 86.986 34.654 C 89.795 34.654 92.087 32.371 92.087 29.547 C 92.087 26.728 89.795 24.446 86.986 24.446 C 84.161 24.446 81.864 26.728 81.864 29.547 Z " fill="url(#_lgradient_203)"/></g><g><linearGradient id="_lgradient_204" x1="0" y1="0.5" x2="6.123233995736766e-17" y2="1.5" gradientTransform="matrix(10.222,0,0,10.208,95.809,24.446)" gradientUnits="userSpaceOnUse"><stop offset="0%" stop-opacity="1" style="stop-color:rgb(219,220,222)"/><stop offset="37.8%" stop-opacity="1" style="stop-color:rgb(177,179,181)"/><stop offset="72.1%" stop-opacity="1" style="stop-color:rgb(219,220,222)"/><stop offset="100%" stop-opacity="1" style="stop-color:rgb(187,189,191)"/></linearGradient><path d=" M 95.809 29.547 C 95.809 32.371 98.105 34.654 100.914 34.654 C 103.734 34.654 106.031 32.371 106.031 29.547 C 106.031 26.728 103.734 24.446 100.914 24.446 C 98.105 24.446 95.809 26.728 95.809 29.547 Z " fill="url(#_lgradient_204)"/></g><g><linearGradient id="_lgradient_205" x1="0" y1="0.5" x2="6.123233995736766e-17" y2="1.5" gradientTransform="matrix(10.202,0,0,10.208,109.364,24.446)" gradientUnits="userSpaceOnUse"><stop offset="0%" stop-opacity="1" style="stop-color:rgb(219,220,222)"/><stop offset="37.8%" stop-opacity="1" style="stop-color:rgb(177,179,181)"/><stop offset="72.1%" stop-opacity="1" style="stop-color:rgb(219,220,222)"/><stop offset="100%" stop-opacity="1" style="stop-color:rgb(187,189,191)"/></linearGradient><path d=" M 109.364 29.547 C 109.364 32.371 111.645 34.654 114.465 34.654 C 117.265 34.654 119.566 32.371 119.566 29.547 C 119.566 26.728 117.265 24.446 114.465 24.446 C 111.645 24.446 109.364 26.728 109.364 29.547 Z " fill="url(#_lgradient_205)"/></g><g><linearGradient id="_lgradient_206" x1="0" y1="0.5" x2="6.123233995736766e-17" y2="1.5" gradientTransform="matrix(10.209,0,0,10.208,122.893,24.446)" gradientUnits="userSpaceOnUse"><stop offset="0%" stop-opacity="1" style="stop-color:rgb(219,220,222)"/><stop offset="37.8%" stop-opacity="1" style="stop-color:rgb(177,179,181)"/><stop offset="72.1%" stop-opacity="1" style="stop-color:rgb(219,220,222)"/><stop offset="100%" stop-opacity="1" style="stop-color:rgb(187,189,191)"/></linearGradient><path d=" M 122.893 29.547 C 122.893 32.371 125.176 34.654 128 34.654 C 130.824 34.654 133.102 32.371 133.102 29.547 C 133.102 26.728 130.824 24.446 128 24.446 C 125.176 24.446 122.893 26.728 122.893 29.547 Z " fill="url(#_lgradient_206)"/></g><g><linearGradient id="_lgradient_207" x1="0" y1="0.5" x2="6.123233995736766e-17" y2="1.5" gradientTransform="matrix(10.203,0,0,10.208,27.531,24.446)" gradientUnits="userSpaceOnUse"><stop offset="0%" stop-opacity="1" style="stop-color:rgb(219,220,222)"/><stop offset="37.8%" stop-opacity="1" style="stop-color:rgb(177,179,181)"/><stop offset="72.1%" stop-opacity="1" style="stop-color:rgb(219,220,222)"/><stop offset="100%" stop-opacity="1" style="stop-color:rgb(187,189,191)"/></linearGradient><path d=" M 27.531 29.547 C 27.531 32.371 29.813 34.654 32.632 34.654 C 35.432 34.654 37.734 32.371 37.734 29.547 C 37.734 26.728 35.432 24.446 32.632 24.446 C 29.813 24.446 27.531 26.728 27.531 29.547 Z " fill="url(#_lgradient_207)"/></g><g><linearGradient id="_lgradient_208" x1="0" y1="0.5" x2="6.123233995736766e-17" y2="1.5" gradientTransform="matrix(10.207,0,0,10.208,41.062,24.446)" gradientUnits="userSpaceOnUse"><stop offset="0%" stop-opacity="1" style="stop-color:rgb(219,220,222)"/><stop offset="37.8%" stop-opacity="1" style="stop-color:rgb(177,179,181)"/><stop offset="72.1%" stop-opacity="1" style="stop-color:rgb(219,220,222)"/><stop offset="100%" stop-opacity="1" style="stop-color:rgb(187,189,191)"/></linearGradient><path d=" M 41.062 29.547 C 41.062 32.371 43.344 34.654 46.163 34.654 C 48.987 34.654 51.269 32.371 51.269 29.547 C 51.269 26.728 48.987 24.446 46.163 24.446 C 43.344 24.446 41.062 26.728 41.062 29.547 Z " fill="url(#_lgradient_208)"/></g><g><linearGradient id="_lgradient_209" x1="0" y1="0.5" x2="6.123233995736766e-17" y2="1.5" gradientTransform="matrix(10.213,0,0,10.208,150.146,24.446)" gradientUnits="userSpaceOnUse"><stop offset="0%" stop-opacity="1" style="stop-color:rgb(219,220,222)"/><stop offset="37.8%" stop-opacity="1" style="stop-color:rgb(177,179,181)"/><stop offset="72.1%" stop-opacity="1" style="stop-color:rgb(219,220,222)"/><stop offset="100%" stop-opacity="1" style="stop-color:rgb(187,189,191)"/></linearGradient><path d=" M 150.146 29.547 C 150.146 32.371 152.434 34.654 155.248 34.654 C 158.072 34.654 160.359 32.371 160.359 29.547 C 160.359 26.728 158.072 24.446 155.248 24.446 C 152.434 24.446 150.146 26.728 150.146 29.547 Z " fill="url(#_lgradient_209)"/></g><g><linearGradient id="_lgradient_210" x1="0" y1="0.5" x2="6.123233995736766e-17" y2="1.5" gradientTransform="matrix(10.203,0,0,10.208,163.691,24.446)" gradientUnits="userSpaceOnUse"><stop offset="0%" stop-opacity="1" style="stop-color:rgb(219,220,222)"/><stop offset="37.8%" stop-opacity="1" style="stop-color:rgb(177,179,181)"/><stop offset="72.1%" stop-opacity="1" style="stop-color:rgb(219,220,222)"/><stop offset="100%" stop-opacity="1" style="stop-color:rgb(187,189,191)"/></linearGradient><path d=" M 163.691 29.547 C 163.691 32.371 165.983 34.654 168.793 34.654 C 171.598 34.654 173.894 32.371 173.894 29.547 C 173.894 26.728 171.598 24.446 168.793 24.446 C 165.983 24.446 163.691 26.728 163.691 29.547 Z " fill="url(#_lgradient_210)"/></g><g><linearGradient id="_lgradient_211" x1="0" y1="0.5" x2="6.123233995736766e-17" y2="1.5" gradientTransform="matrix(10.223,0,0,10.208,177.226,24.446)" gradientUnits="userSpaceOnUse"><stop offset="0%" stop-opacity="1" style="stop-color:rgb(219,220,222)"/><stop offset="37.8%" stop-opacity="1" style="stop-color:rgb(177,179,181)"/><stop offset="72.1%" stop-opacity="1" style="stop-color:rgb(219,220,222)"/><stop offset="100%" stop-opacity="1" style="stop-color:rgb(187,189,191)"/></linearGradient><path d=" M 177.226 29.547 C 177.226 32.371 179.524 34.654 182.347 34.654 C 185.162 34.654 187.449 32.371 187.449 29.547 C 187.449 26.728 185.162 24.446 182.347 24.446 C 179.524 24.446 177.226 26.728 177.226 29.547 Z " fill="url(#_lgradient_211)"/></g><g><linearGradient id="_lgradient_212" x1="0" y1="0.5" x2="6.123233995736766e-17" y2="1.5" gradientTransform="matrix(10.223,0,0,10.208,191.175,24.446)" gradientUnits="userSpaceOnUse"><stop offset="0%" stop-opacity="1" style="stop-color:rgb(219,220,222)"/><stop offset="37.8%" stop-opacity="1" style="stop-color:rgb(177,179,181)"/><stop offset="72.1%" stop-opacity="1" style="stop-color:rgb(219,220,222)"/><stop offset="100%" stop-opacity="1" style="stop-color:rgb(187,189,191)"/></linearGradient><path d=" M 191.175 29.547 C 191.175 32.371 193.472 34.654 196.282 34.654 C 199.102 34.654 201.398 32.371 201.398 29.547 C 201.398 26.728 199.102 24.446 196.282 24.446 C 193.472 24.446 191.175 26.728 191.175 29.547 Z " fill="url(#_lgradient_212)"/></g><g><linearGradient id="_lgradient_213" x1="0" y1="0.5" x2="6.123233995736766e-17" y2="1.5" gradientTransform="matrix(10.204,0,0,10.208,204.73,24.446)" gradientUnits="userSpaceOnUse"><stop offset="0%" stop-opacity="1" style="stop-color:rgb(219,220,222)"/><stop offset="37.8%" stop-opacity="1" style="stop-color:rgb(177,179,181)"/><stop offset="72.1%" stop-opacity="1" style="stop-color:rgb(219,220,222)"/><stop offset="100%" stop-opacity="1" style="stop-color:rgb(187,189,191)"/></linearGradient><path d=" M 204.73 29.547 C 204.73 32.371 207.008 34.654 209.828 34.654 C 212.627 34.654 214.934 32.371 214.934 29.547 C 214.934 26.728 212.627 24.446 209.828 24.446 C 207.008 24.446 204.73 26.728 204.73 29.547 Z " fill="url(#_lgradient_213)"/></g><g><linearGradient id="_lgradient_214" x1="0" y1="0.5" x2="6.123233995736766e-17" y2="1.5" gradientTransform="matrix(10.213,0,0,10.208,218.256,24.446)" gradientUnits="userSpaceOnUse"><stop offset="0%" stop-opacity="1" style="stop-color:rgb(219,220,222)"/><stop offset="37.8%" stop-opacity="1" style="stop-color:rgb(177,179,181)"/><stop offset="72.1%" stop-opacity="1" style="stop-color:rgb(219,220,222)"/><stop offset="100%" stop-opacity="1" style="stop-color:rgb(187,189,191)"/></linearGradient><path d=" M 218.256 29.547 C 218.256 32.371 220.543 34.654 223.362 34.654 C 226.192 34.654 228.469 32.371 228.469 29.547 C 228.469 26.728 226.192 24.446 223.362 24.446 C 220.543 24.446 218.256 26.728 218.256 29.547 Z " fill="url(#_lgradient_214)"/></g><g><linearGradient id="_lgradient_215" x1="0" y1="0.5" x2="6.123233995736766e-17" y2="1.5" gradientTransform="matrix(10.203,0,0,10.208,136.429,24.446)" gradientUnits="userSpaceOnUse"><stop offset="0%" stop-opacity="1" style="stop-color:rgb(219,220,222)"/><stop offset="37.8%" stop-opacity="1" style="stop-color:rgb(177,179,181)"/><stop offset="72.1%" stop-opacity="1" style="stop-color:rgb(219,220,222)"/><stop offset="100%" stop-opacity="1" style="stop-color:rgb(187,189,191)"/></linearGradient><path d=" M 136.429 29.547 C 136.429 32.371 138.705 34.654 141.53 34.654 C 144.35 34.654 146.632 32.371 146.632 29.547 C 146.632 26.728 144.35 24.446 141.53 24.446 C 138.705 24.446 136.429 26.728 136.429 29.547 Z " fill="url(#_lgradient_215)"/></g><g><linearGradient id="_lgradient_216" x1="0" y1="0.5" x2="6.123233995736766e-17" y2="1.5" gradientTransform="matrix(10.218,0,0,10.209,54.779,49.167)" gradientUnits="userSpaceOnUse"><stop offset="0%" stop-opacity="1" style="stop-color:rgb(219,220,222)"/><stop offset="37.8%" stop-opacity="1" style="stop-color:rgb(177,179,181)"/><stop offset="72.1%" stop-opacity="1" style="stop-color:rgb(219,220,222)"/><stop offset="100%" stop-opacity="1" style="stop-color:rgb(187,189,191)"/></linearGradient><path d=" M 54.779 54.269 C 54.779 57.093 57.071 59.376 59.885 59.376 C 62.705 59.376 64.997 57.093 64.997 54.269 C 64.997 51.449 62.705 49.167 59.885 49.167 C 57.071 49.167 54.779 51.449 54.779 54.269 Z " fill="url(#_lgradient_216)"/></g><g><linearGradient id="_lgradient_217" x1="0" y1="0.5" x2="6.123233995736766e-17" y2="1.5" gradientTransform="matrix(10.208,0,0,10.209,68.324,49.167)" gradientUnits="userSpaceOnUse"><stop offset="0%" stop-opacity="1" style="stop-color:rgb(219,220,222)"/><stop offset="37.8%" stop-opacity="1" style="stop-color:rgb(177,179,181)"/><stop offset="72.1%" stop-opacity="1" style="stop-color:rgb(219,220,222)"/><stop offset="100%" stop-opacity="1" style="stop-color:rgb(187,189,191)"/></linearGradient><path d=" M 68.324 54.269 C 68.324 57.093 70.621 59.376 73.43 59.376 C 76.235 59.376 78.532 57.093 78.532 54.269 C 78.532 51.449 76.235 49.167 73.43 49.167 C 70.621 49.167 68.324 51.449 68.324 54.269 Z " fill="url(#_lgradient_217)"/></g><g><linearGradient id="_lgradient_218" x1="0" y1="0.5" x2="6.123233995736766e-17" y2="1.5" gradientTransform="matrix(10.223,0,0,10.209,81.864,49.167)" gradientUnits="userSpaceOnUse"><stop offset="0%" stop-opacity="1" style="stop-color:rgb(219,220,222)"/><stop offset="37.8%" stop-opacity="1" style="stop-color:rgb(177,179,181)"/><stop offset="72.1%" stop-opacity="1" style="stop-color:rgb(219,220,222)"/><stop offset="100%" stop-opacity="1" style="stop-color:rgb(187,189,191)"/></linearGradient><path d=" M 81.864 54.269 C 81.864 57.093 84.161 59.376 86.986 59.376 C 89.795 59.376 92.087 57.093 92.087 54.269 C 92.087 51.449 89.795 49.167 86.986 49.167 C 84.161 49.167 81.864 51.449 81.864 54.269 Z " fill="url(#_lgradient_218)"/></g><g><linearGradient id="_lgradient_219" x1="0" y1="0.5" x2="6.123233995736766e-17" y2="1.5" gradientTransform="matrix(10.222,0,0,10.209,95.809,49.167)" gradientUnits="userSpaceOnUse"><stop offset="0%" stop-opacity="1" style="stop-color:rgb(219,220,222)"/><stop offset="37.8%" stop-opacity="1" style="stop-color:rgb(177,179,181)"/><stop offset="72.1%" stop-opacity="1" style="stop-color:rgb(219,220,222)"/><stop offset="100%" stop-opacity="1" style="stop-color:rgb(187,189,191)"/></linearGradient><path d=" M 95.809 54.269 C 95.809 57.093 98.105 59.376 100.914 59.376 C 103.734 59.376 106.031 57.093 106.031 54.269 C 106.031 51.449 103.734 49.167 100.914 49.167 C 98.105 49.167 95.809 51.449 95.809 54.269 Z " fill="url(#_lgradient_219)"/></g><g><linearGradient id="_lgradient_220" x1="0" y1="0.5" x2="6.123233995736766e-17" y2="1.5" gradientTransform="matrix(10.202,0,0,10.209,109.364,49.167)" gradientUnits="userSpaceOnUse"><stop offset="0%" stop-opacity="1" style="stop-color:rgb(219,220,222)"/><stop offset="37.8%" stop-opacity="1" style="stop-color:rgb(177,179,181)"/><stop offset="72.1%" stop-opacity="1" style="stop-color:rgb(219,220,222)"/><stop offset="100%" stop-opacity="1" style="stop-color:rgb(187,189,191)"/></linearGradient><path d=" M 109.364 54.269 C 109.364 57.093 111.645 59.376 114.465 59.376 C 117.265 59.376 119.566 57.093 119.566 54.269 C 119.566 51.449 117.265 49.167 114.465 49.167 C 111.645 49.167 109.364 51.449 109.364 54.269 Z " fill="url(#_lgradient_220)"/></g><g><linearGradient id="_lgradient_221" x1="0" y1="0.5" x2="6.123233995736766e-17" y2="1.5" gradientTransform="matrix(10.209,0,0,10.209,122.893,49.167)" gradientUnits="userSpaceOnUse"><stop offset="0%" stop-opacity="1" style="stop-color:rgb(219,220,222)"/><stop offset="37.8%" stop-opacity="1" style="stop-color:rgb(177,179,181)"/><stop offset="72.1%" stop-opacity="1" style="stop-color:rgb(219,220,222)"/><stop offset="100%" stop-opacity="1" style="stop-color:rgb(187,189,191)"/></linearGradient><path d=" M 122.893 54.269 C 122.893 57.093 125.176 59.376 128 59.376 C 130.824 59.376 133.102 57.093 133.102 54.269 C 133.102 51.449 130.824 49.167 128 49.167 C 125.176 49.167 122.893 51.449 122.893 54.269 Z " fill="url(#_lgradient_221)"/></g><g><linearGradient id="_lgradient_222" x1="0" y1="0.5" x2="6.123233995736766e-17" y2="1.5" gradientTransform="matrix(10.203,0,0,10.209,27.531,49.167)" gradientUnits="userSpaceOnUse"><stop offset="0%" stop-opacity="1" style="stop-color:rgb(219,220,222)"/><stop offset="37.8%" stop-opacity="1" style="stop-color:rgb(177,179,181)"/><stop offset="72.1%" stop-opacity="1" style="stop-color:rgb(219,220,222)"/><stop offset="100%" stop-opacity="1" style="stop-color:rgb(187,189,191)"/></linearGradient><path d=" M 27.531 54.269 C 27.531 57.093 29.813 59.376 32.632 59.376 C 35.432 59.376 37.734 57.093 37.734 54.269 C 37.734 51.449 35.432 49.167 32.632 49.167 C 29.813 49.167 27.531 51.449 27.531 54.269 Z " fill="url(#_lgradient_222)"/></g><g><linearGradient id="_lgradient_223" x1="0" y1="0.5" x2="6.123233995736766e-17" y2="1.5" gradientTransform="matrix(10.207,0,0,10.209,41.062,49.167)" gradientUnits="userSpaceOnUse"><stop offset="0%" stop-opacity="1" style="stop-color:rgb(219,220,222)"/><stop offset="37.8%" stop-opacity="1" style="stop-color:rgb(177,179,181)"/><stop offset="72.1%" stop-opacity="1" style="stop-color:rgb(219,220,222)"/><stop offset="100%" stop-opacity="1" style="stop-color:rgb(187,189,191)"/></linearGradient><path d=" M 41.062 54.269 C 41.062 57.093 43.344 59.376 46.163 59.376 C 48.987 59.376 51.269 57.093 51.269 54.269 C 51.269 51.449 48.987 49.167 46.163 49.167 C 43.344 49.167 41.062 51.449 41.062 54.269 Z " fill="url(#_lgradient_223)"/></g><g><linearGradient id="_lgradient_224" x1="0" y1="0.5" x2="6.123233995736766e-17" y2="1.5" gradientTransform="matrix(10.213,0,0,10.209,150.146,49.167)" gradientUnits="userSpaceOnUse"><stop offset="0%" stop-opacity="1" style="stop-color:rgb(219,220,222)"/><stop offset="37.8%" stop-opacity="1" style="stop-color:rgb(177,179,181)"/><stop offset="72.1%" stop-opacity="1" style="stop-color:rgb(219,220,222)"/><stop offset="100%" stop-opacity="1" style="stop-color:rgb(187,189,191)"/></linearGradient><path d=" M 150.146 54.269 C 150.146 57.093 152.434 59.376 155.248 59.376 C 158.072 59.376 160.359 57.093 160.359 54.269 C 160.359 51.449 158.072 49.167 155.248 49.167 C 152.434 49.167 150.146 51.449 150.146 54.269 Z " fill="url(#_lgradient_224)"/></g><g><linearGradient id="_lgradient_225" x1="0" y1="0.5" x2="6.123233995736766e-17" y2="1.5" gradientTransform="matrix(10.203,0,0,10.209,163.691,49.167)" gradientUnits="userSpaceOnUse"><stop offset="0%" stop-opacity="1" style="stop-color:rgb(219,220,222)"/><stop offset="37.8%" stop-opacity="1" style="stop-color:rgb(177,179,181)"/><stop offset="72.1%" stop-opacity="1" style="stop-color:rgb(219,220,222)"/><stop offset="100%" stop-opacity="1" style="stop-color:rgb(187,189,191)"/></linearGradient><path d=" M 163.691 54.269 C 163.691 57.093 165.983 59.376 168.793 59.376 C 171.598 59.376 173.894 57.093 173.894 54.269 C 173.894 51.449 171.598 49.167 168.793 49.167 C 165.983 49.167 163.691 51.449 163.691 54.269 Z " fill="url(#_lgradient_225)"/></g><g><linearGradient id="_lgradient_226" x1="0" y1="0.5" x2="6.123233995736766e-17" y2="1.5" gradientTransform="matrix(10.223,0,0,10.209,177.226,49.167)" gradientUnits="userSpaceOnUse"><stop offset="0%" stop-opacity="1" style="stop-color:rgb(219,220,222)"/><stop offset="37.8%" stop-opacity="1" style="stop-color:rgb(177,179,181)"/><stop offset="72.1%" stop-opacity="1" style="stop-color:rgb(219,220,222)"/><stop offset="100%" stop-opacity="1" style="stop-color:rgb(187,189,191)"/></linearGradient><path d=" M 177.226 54.269 C 177.226 57.093 179.524 59.376 182.347 59.376 C 185.162 59.376 187.449 57.093 187.449 54.269 C 187.449 51.449 185.162 49.167 182.347 49.167 C 179.524 49.167 177.226 51.449 177.226 54.269 Z " fill="url(#_lgradient_226)"/></g><g><linearGradient id="_lgradient_227" x1="0" y1="0.5" x2="6.123233995736766e-17" y2="1.5" gradientTransform="matrix(10.223,0,0,10.209,191.175,49.167)" gradientUnits="userSpaceOnUse"><stop offset="0%" stop-opacity="1" style="stop-color:rgb(219,220,222)"/><stop offset="37.8%" stop-opacity="1" style="stop-color:rgb(177,179,181)"/><stop offset="72.1%" stop-opacity="1" style="stop-color:rgb(219,220,222)"/><stop offset="100%" stop-opacity="1" style="stop-color:rgb(187,189,191)"/></linearGradient><path d=" M 191.175 54.269 C 191.175 57.093 193.472 59.376 196.282 59.376 C 199.102 59.376 201.398 57.093 201.398 54.269 C 201.398 51.449 199.102 49.167 196.282 49.167 C 193.472 49.167 191.175 51.449 191.175 54.269 Z " fill="url(#_lgradient_227)"/></g><g><linearGradient id="_lgradient_228" x1="0" y1="0.5" x2="6.123233995736766e-17" y2="1.5" gradientTransform="matrix(10.204,0,0,10.209,204.73,49.167)" gradientUnits="userSpaceOnUse"><stop offset="0%" stop-opacity="1" style="stop-color:rgb(219,220,222)"/><stop offset="37.8%" stop-opacity="1" style="stop-color:rgb(177,179,181)"/><stop offset="72.1%" stop-opacity="1" style="stop-color:rgb(219,220,222)"/><stop offset="100%" stop-opacity="1" style="stop-color:rgb(187,189,191)"/></linearGradient><path d=" M 204.73 54.269 C 204.73 57.093 207.008 59.376 209.828 59.376 C 212.627 59.376 214.934 57.093 214.934 54.269 C 214.934 51.449 212.627 49.167 209.828 49.167 C 207.008 49.167 204.73 51.449 204.73 54.269 Z " fill="url(#_lgradient_228)"/></g><g><linearGradient id="_lgradient_229" x1="0" y1="0.5" x2="6.123233995736766e-17" y2="1.5" gradientTransform="matrix(10.213,0,0,10.209,218.256,49.167)" gradientUnits="userSpaceOnUse"><stop offset="0%" stop-opacity="1" style="stop-color:rgb(219,220,222)"/><stop offset="37.8%" stop-opacity="1" style="stop-color:rgb(177,179,181)"/><stop offset="72.1%" stop-opacity="1" style="stop-color:rgb(219,220,222)"/><stop offset="100%" stop-opacity="1" style="stop-color:rgb(187,189,191)"/></linearGradient><path d=" M 218.256 54.269 C 218.256 57.093 220.543 59.376 223.362 59.376 C 226.192 59.376 228.469 57.093 228.469 54.269 C 228.469 51.449 226.192 49.167 223.362 49.167 C 220.543 49.167 218.256 51.449 218.256 54.269 Z " fill="url(#_lgradient_229)"/></g><g><linearGradient id="_lgradient_230" x1="0" y1="0.5" x2="6.123233995736766e-17" y2="1.5" gradientTransform="matrix(10.203,0,0,10.209,136.429,49.167)" gradientUnits="userSpaceOnUse"><stop offset="0%" stop-opacity="1" style="stop-color:rgb(219,220,222)"/><stop offset="37.8%" stop-opacity="1" style="stop-color:rgb(177,179,181)"/><stop offset="72.1%" stop-opacity="1" style="stop-color:rgb(219,220,222)"/><stop offset="100%" stop-opacity="1" style="stop-color:rgb(187,189,191)"/></linearGradient><path d=" M 136.429 54.269 C 136.429 57.093 138.705 59.376 141.53 59.376 C 144.35 59.376 146.632 57.093 146.632 54.269 C 146.632 51.449 144.35 49.167 141.53 49.167 C 138.705 49.167 136.429 51.449 136.429 54.269 Z " fill="url(#_lgradient_230)"/></g><g><linearGradient id="_lgradient_231" x1="0" y1="0.5" x2="1" y2="0.5" gradientTransform="matrix(5.762,0,0,13.077,29.752,12.101)" gradientUnits="userSpaceOnUse"><stop offset="0%" stop-opacity="1" style="stop-color:rgb(7,59,107)"/><stop offset="12.4%" stop-opacity="1" style="stop-color:rgb(7,59,107)"/><stop offset="100%" stop-opacity="1" style="stop-color:rgb(24,92,156)"/></linearGradient><path d=" M 29.752 25.178 L 35.514 25.178 L 35.514 12.101 L 29.752 12.101 L 29.752 25.178 Z " fill="url(#_lgradient_231)"/></g><g><linearGradient id="_lgradient_232" x1="0" y1="0.5" x2="1" y2="0.5" gradientTransform="matrix(5.762,0,0,13.077,43.376,12.101)" gradientUnits="userSpaceOnUse"><stop offset="0%" stop-opacity="1" style="stop-color:rgb(7,59,107)"/><stop offset="12.4%" stop-opacity="1" style="stop-color:rgb(7,59,107)"/><stop offset="100%" stop-opacity="1" style="stop-color:rgb(24,92,156)"/></linearGradient><path d=" M 43.376 25.178 L 49.138 25.178 L 49.138 12.101 L 43.376 12.101 L 43.376 25.178 Z " fill="url(#_lgradient_232)"/></g><g><linearGradient id="_lgradient_233" x1="0" y1="0.5" x2="1" y2="0.5" gradientTransform="matrix(5.762,0,0,13.077,84.246,12.101)" gradientUnits="userSpaceOnUse"><stop offset="0%" stop-opacity="1" style="stop-color:rgb(7,59,107)"/><stop offset="12.4%" stop-opacity="1" style="stop-color:rgb(7,59,107)"/><stop offset="100%" stop-opacity="1" style="stop-color:rgb(24,92,156)"/></linearGradient><path d=" M 84.246 25.178 L 90.008 25.178 L 90.008 12.101 L 84.246 12.101 L 84.246 25.178 Z " fill="url(#_lgradient_233)"/></g><g><linearGradient id="_lgradient_234" x1="0" y1="0.5" x2="1" y2="0.5" gradientTransform="matrix(5.762,0,0,13.077,97.87,12.101)" gradientUnits="userSpaceOnUse"><stop offset="0%" stop-opacity="1" style="stop-color:rgb(7,59,107)"/><stop offset="12.4%" stop-opacity="1" style="stop-color:rgb(7,59,107)"/><stop offset="100%" stop-opacity="1" style="stop-color:rgb(24,92,156)"/></linearGradient><path d=" M 97.87 25.178 L 103.632 25.178 L 103.632 12.101 L 97.87 12.101 L 97.87 25.178 Z " fill="url(#_lgradient_234)"/></g><g><linearGradient id="_lgradient_235" x1="0" y1="0.5" x2="1" y2="0.5" gradientTransform="matrix(5.763,0,0,13.077,111.493,12.101)" gradientUnits="userSpaceOnUse"><stop offset="0%" stop-opacity="1" style="stop-color:rgb(7,59,107)"/><stop offset="12.4%" stop-opacity="1" style="stop-color:rgb(7,59,107)"/><stop offset="100%" stop-opacity="1" style="stop-color:rgb(24,92,156)"/></linearGradient><path d=" M 111.493 25.178 L 117.256 25.178 L 117.256 12.101 L 111.493 12.101 L 111.493 25.178 Z " fill="url(#_lgradient_235)"/></g><g><linearGradient id="_lgradient_236" x1="0" y1="0.5" x2="1" y2="0.5" gradientTransform="matrix(5.763,0,0,13.077,125.116,12.101)" gradientUnits="userSpaceOnUse"><stop offset="0%" stop-opacity="1" style="stop-color:rgb(7,59,107)"/><stop offset="12.4%" stop-opacity="1" style="stop-color:rgb(7,59,107)"/><stop offset="100%" stop-opacity="1" style="stop-color:rgb(24,92,156)"/></linearGradient><path d=" M 125.116 25.178 L 130.879 25.178 L 130.879 12.101 L 125.116 12.101 L 125.116 25.178 Z " fill="url(#_lgradient_236)"/></g><g><linearGradient id="_lgradient_237" x1="0" y1="0.5" x2="1" y2="0.5" gradientTransform="matrix(5.762,0,0,13.077,138.74,12.101)" gradientUnits="userSpaceOnUse"><stop offset="0%" stop-opacity="1" style="stop-color:rgb(7,59,107)"/><stop offset="12.4%" stop-opacity="1" style="stop-color:rgb(7,59,107)"/><stop offset="100%" stop-opacity="1" style="stop-color:rgb(24,92,156)"/></linearGradient><path d=" M 138.74 25.178 L 144.502 25.178 L 144.502 12.101 L 138.74 12.101 L 138.74 25.178 Z " fill="url(#_lgradient_237)"/></g><g><linearGradient id="_lgradient_238" x1="0" y1="0.5" x2="1" y2="0.5" gradientTransform="matrix(5.762,0,0,13.077,152.364,12.101)" gradientUnits="userSpaceOnUse"><stop offset="0%" stop-opacity="1" style="stop-color:rgb(7,59,107)"/><stop offset="12.4%" stop-opacity="1" style="stop-color:rgb(7,59,107)"/><stop offset="100%" stop-opacity="1" style="stop-color:rgb(24,92,156)"/></linearGradient><path d=" M 152.364 25.178 L 158.126 25.178 L 158.126 12.101 L 152.364 12.101 L 152.364 25.178 Z " fill="url(#_lgradient_238)"/></g><g><linearGradient id="_lgradient_239" x1="0" y1="0.5" x2="1" y2="0.5" gradientTransform="matrix(5.763,0,0,13.077,165.987,12.101)" gradientUnits="userSpaceOnUse"><stop offset="0%" stop-opacity="1" style="stop-color:rgb(7,59,107)"/><stop offset="12.4%" stop-opacity="1" style="stop-color:rgb(7,59,107)"/><stop offset="100%" stop-opacity="1" style="stop-color:rgb(24,92,156)"/></linearGradient><path d=" M 165.987 25.178 L 171.75 25.178 L 171.75 12.101 L 165.987 12.101 L 165.987 25.178 Z " fill="url(#_lgradient_239)"/></g><g><linearGradient id="_lgradient_240" x1="0" y1="0.5" x2="1" y2="0.5" gradientTransform="matrix(5.763,0,0,13.077,179.61,12.101)" gradientUnits="userSpaceOnUse"><stop offset="0%" stop-opacity="1" style="stop-color:rgb(7,59,107)"/><stop offset="12.4%" stop-opacity="1" style="stop-color:rgb(7,59,107)"/><stop offset="100%" stop-opacity="1" style="stop-color:rgb(24,92,156)"/></linearGradient><path d=" M 179.61 25.178 L 185.373 25.178 L 185.373 12.101 L 179.61 12.101 L 179.61 25.178 Z " fill="url(#_lgradient_240)"/></g><g><linearGradient id="_lgradient_241" x1="0" y1="0.5" x2="1" y2="0.5" gradientTransform="matrix(5.762,0,0,13.077,193.234,12.101)" gradientUnits="userSpaceOnUse"><stop offset="0%" stop-opacity="1" style="stop-color:rgb(7,59,107)"/><stop offset="12.4%" stop-opacity="1" style="stop-color:rgb(7,59,107)"/><stop offset="100%" stop-opacity="1" style="stop-color:rgb(24,92,156)"/></linearGradient><path d=" M 193.234 25.178 L 198.996 25.178 L 198.996 12.101 L 193.234 12.101 L 193.234 25.178 Z " fill="url(#_lgradient_241)"/></g><g><linearGradient id="_lgradient_242" x1="0" y1="0.5" x2="1" y2="0.5" gradientTransform="matrix(5.762,0,0,13.077,206.858,12.101)" gradientUnits="userSpaceOnUse"><stop offset="0%" stop-opacity="1" style="stop-color:rgb(7,59,107)"/><stop offset="12.4%" stop-opacity="1" style="stop-color:rgb(7,59,107)"/><stop offset="100%" stop-opacity="1" style="stop-color:rgb(24,92,156)"/></linearGradient><path d=" M 206.858 25.178 L 212.62 25.178 L 212.62 12.101 L 206.858 12.101 L 206.858 25.178 Z " fill="url(#_lgradient_242)"/></g><g><linearGradient id="_lgradient_243" x1="0" y1="0.5" x2="1" y2="0.5" gradientTransform="matrix(5.763,0,0,13.077,220.481,12.101)" gradientUnits="userSpaceOnUse"><stop offset="0%" stop-opacity="1" style="stop-color:rgb(7,59,107)"/><stop offset="12.4%" stop-opacity="1" style="stop-color:rgb(7,59,107)"/><stop offset="100%" stop-opacity="1" style="stop-color:rgb(24,92,156)"/></linearGradient><path d=" M 220.481 25.178 L 226.244 25.178 L 226.244 12.101 L 220.481 12.101 L 220.481 25.178 Z " fill="url(#_lgradient_243)"/></g><g><linearGradient id="_lgradient_244" x1="0" y1="0.5" x2="1" y2="0.5" gradientTransform="matrix(5.762,0,0,13.076,29.752,58.762)" gradientUnits="userSpaceOnUse"><stop offset="0%" stop-opacity="1" style="stop-color:rgb(7,59,107)"/><stop offset="12.4%" stop-opacity="1" style="stop-color:rgb(7,59,107)"/><stop offset="100%" stop-opacity="1" style="stop-color:rgb(24,92,156)"/></linearGradient><path d=" M 29.752 71.838 L 35.514 71.838 L 35.514 58.762 L 29.752 58.762 L 29.752 71.838 Z " fill="url(#_lgradient_244)"/></g><g><linearGradient id="_lgradient_245" x1="0" y1="0.5" x2="1" y2="0.5" gradientTransform="matrix(5.762,0,0,13.076,43.376,58.762)" gradientUnits="userSpaceOnUse"><stop offset="0%" stop-opacity="1" style="stop-color:rgb(7,59,107)"/><stop offset="12.4%" stop-opacity="1" style="stop-color:rgb(7,59,107)"/><stop offset="100%" stop-opacity="1" style="stop-color:rgb(24,92,156)"/></linearGradient><path d=" M 43.376 71.838 L 49.138 71.838 L 49.138 58.762 L 43.376 58.762 L 43.376 71.838 Z " fill="url(#_lgradient_245)"/></g><g><linearGradient id="_lgradient_246" x1="0" y1="0.5" x2="1" y2="0.5" gradientTransform="matrix(5.762,0,0,13.076,84.246,58.762)" gradientUnits="userSpaceOnUse"><stop offset="0%" stop-opacity="1" style="stop-color:rgb(7,59,107)"/><stop offset="12.4%" stop-opacity="1" style="stop-color:rgb(7,59,107)"/><stop offset="100%" stop-opacity="1" style="stop-color:rgb(24,92,156)"/></linearGradient><path d=" M 84.246 71.838 L 90.008 71.838 L 90.008 58.762 L 84.246 58.762 L 84.246 71.838 Z " fill="url(#_lgradient_246)"/></g><g><linearGradient id="_lgradient_247" x1="0" y1="0.5" x2="1" y2="0.5" gradientTransform="matrix(5.762,0,0,13.076,97.87,58.762)" gradientUnits="userSpaceOnUse"><stop offset="0%" stop-opacity="1" style="stop-color:rgb(7,59,107)"/><stop offset="12.4%" stop-opacity="1" style="stop-color:rgb(7,59,107)"/><stop offset="100%" stop-opacity="1" style="stop-color:rgb(24,92,156)"/></linearGradient><path d=" M 97.87 71.838 L 103.632 71.838 L 103.632 58.762 L 97.87 58.762 L 97.87 71.838 Z " fill="url(#_lgradient_247)"/></g><g><linearGradient id="_lgradient_248" x1="0" y1="0.5" x2="1" y2="0.5" gradientTransform="matrix(5.763,0,0,13.076,111.493,58.762)" gradientUnits="userSpaceOnUse"><stop offset="0%" stop-opacity="1" style="stop-color:rgb(7,59,107)"/><stop offset="12.4%" stop-opacity="1" style="stop-color:rgb(7,59,107)"/><stop offset="100%" stop-opacity="1" style="stop-color:rgb(24,92,156)"/></linearGradient><path d=" M 111.493 71.838 L 117.256 71.838 L 117.256 58.762 L 111.493 58.762 L 111.493 71.838 Z " fill="url(#_lgradient_248)"/></g><g><linearGradient id="_lgradient_249" x1="0" y1="0.5" x2="1" y2="0.5" gradientTransform="matrix(5.763,0,0,13.076,179.61,58.762)" gradientUnits="userSpaceOnUse"><stop offset="0%" stop-opacity="1" style="stop-color:rgb(7,59,107)"/><stop offset="12.4%" stop-opacity="1" style="stop-color:rgb(7,59,107)"/><stop offset="100%" stop-opacity="1" style="stop-color:rgb(24,92,156)"/></linearGradient><path d=" M 179.61 71.838 L 185.373 71.838 L 185.373 58.762 L 179.61 58.762 L 179.61 71.838 Z " fill="url(#_lgradient_249)"/></g><g><linearGradient id="_lgradient_250" x1="0" y1="0.5" x2="1" y2="0.5" gradientTransform="matrix(5.762,0,0,13.076,193.234,58.762)" gradientUnits="userSpaceOnUse"><stop offset="0%" stop-opacity="1" style="stop-color:rgb(7,59,107)"/><stop offset="12.4%" stop-opacity="1" style="stop-color:rgb(7,59,107)"/><stop offset="100%" stop-opacity="1" style="stop-color:rgb(24,92,156)"/></linearGradient><path d=" M 193.234 71.838 L 198.996 71.838 L 198.996 58.762 L 193.234 58.762 L 193.234 71.838 Z " fill="url(#_lgradient_250)"/></g><g><linearGradient id="_lgradient_251" x1="0" y1="0.5" x2="1" y2="0.5" gradientTransform="matrix(5.762,0,0,13.076,206.858,58.762)" gradientUnits="userSpaceOnUse"><stop offset="0%" stop-opacity="1" style="stop-color:rgb(7,59,107)"/><stop offset="12.4%" stop-opacity="1" style="stop-color:rgb(7,59,107)"/><stop offset="100%" stop-opacity="1" style="stop-color:rgb(24,92,156)"/></linearGradient><path d=" M 206.858 71.838 L 212.62 71.838 L 212.62 58.762 L 206.858 58.762 L 206.858 71.838 Z " fill="url(#_lgradient_251)"/></g><g><linearGradient id="_lgradient_252" x1="0" y1="0.5" x2="1" y2="0.5" gradientTransform="matrix(5.763,0,0,13.076,220.481,58.762)" gradientUnits="userSpaceOnUse"><stop offset="0%" stop-opacity="1" style="stop-color:rgb(7,59,107)"/><stop offset="12.4%" stop-opacity="1" style="stop-color:rgb(7,59,107)"/><stop offset="100%" stop-opacity="1" style="stop-color:rgb(24,92,156)"/></linearGradient><path d=" M 220.481 71.838 L 226.244 71.838 L 226.244 58.762 L 220.481 58.762 L 220.481 71.838 Z " fill="url(#_lgradient_252)"/></g></g></g></svg>