<?xml version="1.0" encoding="UTF-8" standalone="no"?><!-- Generator: Gravit.io --><svg xmlns="http://www.w3.org/2000/svg" xmlns:xlink="http://www.w3.org/1999/xlink" style="isolation:isolate" viewBox="0 0 142.315 254.229" width="142.315pt" height="254.229pt"><defs><clipPath id="_clipPath_Ra2noPlE9uneGUslUImibubfCezvcGRp"><rect width="142.315" height="254.229"/></clipPath></defs><g clip-path="url(#_clipPath_Ra2noPlE9uneGUslUImibubfCezvcGRp)"><g><g><path d=" M 61.385 141.87 L 0 141.87 L 0 34.92 L 61.385 34.92 L 61.385 141.87 Z " fill="rgb(0,0,0)"/></g><g><linearGradient id="_lgradient_253" x1="0" y1="0.5" x2="1" y2="0.5" gradientTransform="matrix(94.707,0,0,254.229,0,0)" gradientUnits="userSpaceOnUse"><stop offset="0%" stop-opacity="1" style="stop-color:rgb(108,110,112)"/><stop offset="53.6%" stop-opacity="1" style="stop-color:rgb(63,62,64)"/><stop offset="100%" stop-opacity="1" style="stop-color:rgb(63,62,64)"/></linearGradient><path d=" M 1.881 0 C 0.854 0 0 0.842 0 1.882 L 0 34.92 L 61.385 34.92 L 61.385 41.258 L 0 41.258 L 0 68.453 L 61.385 68.453 L 61.385 74.791 L 0 74.791 L 0 101.998 L 61.385 101.998 L 61.385 108.336 L 0 108.336 L 0 135.532 L 61.385 135.532 L 61.385 141.87 L 0 141.87 L 0 252.334 C 0 253.388 0.854 254.229 1.881 254.229 L 92.826 254.229 C 93.866 254.229 94.707 253.388 94.707 252.334 L 94.707 1.882 C 94.707 0.842 93.866 0 92.826 0 L 1.881 0 Z " fill="url(#_lgradient_253)"/></g><g><path d=" M 94.707 41.258 L 63.439 41.258 L 63.439 34.92 L 94.707 34.92 L 94.707 41.258 Z " fill="rgb(38,170,225)"/></g><g><path d=" M 94.707 74.791 L 63.439 74.791 L 63.439 68.453 L 94.707 68.453 L 94.707 74.791 Z " fill="rgb(38,170,225)"/></g><g><path d=" M 94.707 108.336 L 63.439 108.336 L 63.439 101.998 L 94.707 101.998 L 94.707 108.336 Z " fill="rgb(38,170,225)"/></g><g><path d=" M 94.707 141.87 L 63.439 141.87 L 63.439 135.532 L 94.707 135.532 L 94.707 141.87 Z " fill="rgb(38,170,225)"/></g><g><path d=" M 94.707 245.564 L 0 245.564 L 0 239.226 L 94.707 239.226 L 94.707 245.564 Z " fill="rgb(0,0,0)"/></g><g><linearGradient id="_lgradient_254" x1="0" y1="0.5" x2="1" y2="0.5" gradientTransform="matrix(59.689,0,0,164.213,82.626,89.923)" gradientUnits="userSpaceOnUse"><stop offset="0%" stop-opacity="1" style="stop-color:rgb(147,149,151)"/><stop offset="7.7%" stop-opacity="1" style="stop-color:rgb(108,110,112)"/><stop offset="100%" stop-opacity="1" style="stop-color:rgb(63,62,64)"/></linearGradient><path d=" M 98.236 89.923 C 89.62 89.923 82.626 96.911 82.626 105.526 L 82.626 238.533 C 82.626 247.155 89.62 254.136 98.236 254.136 L 126.712 254.136 C 135.334 254.136 142.315 247.155 142.315 238.533 L 142.315 105.526 C 142.315 96.911 135.334 89.923 126.712 89.923 L 98.236 89.923 Z " fill="url(#_lgradient_254)"/></g><g><path d=" M 126.712 246.338 C 131.013 246.338 134.517 242.834 134.517 238.533 L 134.517 105.527 C 134.517 101.225 131.013 97.722 126.712 97.722 L 98.236 97.722 C 93.928 97.722 90.431 101.225 90.431 105.527 L 90.431 238.533 C 90.431 242.834 93.928 246.338 98.236 246.338 L 126.712 246.338 Z " fill="rgb(35,31,32)"/></g><g><linearGradient id="_lgradient_255" x1="0" y1="0.5" x2="1" y2="0.5" gradientTransform="matrix(36.281,0,0,140.811,94.336,101.627)" gradientUnits="userSpaceOnUse"><stop offset="0%" stop-opacity="1" style="stop-color:rgb(108,110,112)"/><stop offset="100%" stop-opacity="1" style="stop-color:rgb(63,62,64)"/></linearGradient><path d=" M 98.236 101.627 C 96.081 101.627 94.336 103.372 94.336 105.526 L 94.336 238.533 C 94.336 240.688 96.081 242.438 98.236 242.438 L 126.712 242.438 C 128.859 242.438 130.617 240.688 130.617 238.533 L 130.617 105.526 C 130.617 103.372 128.859 101.627 126.712 101.627 L 98.236 101.627 Z " fill="url(#_lgradient_255)"/></g><g><linearGradient id="_lgradient_256" x1="0" y1="0.5" x2="1" y2="0.5" gradientTransform="matrix(16.451,0,0,16.457,104.252,111.202)" gradientUnits="userSpaceOnUse"><stop offset="0%" stop-opacity="1" style="stop-color:rgb(219,220,222)"/><stop offset="72.1%" stop-opacity="1" style="stop-color:rgb(219,220,222)"/><stop offset="100%" stop-opacity="1" style="stop-color:rgb(187,189,191)"/></linearGradient><path d=" M 104.252 119.433 C 104.252 123.977 107.928 127.659 112.471 127.659 C 117.014 127.659 120.703 123.977 120.703 119.433 C 120.703 114.891 117.014 111.202 112.471 111.202 C 107.928 111.202 104.252 114.891 104.252 119.433 Z " fill="url(#_lgradient_256)"/></g><g><path d=" M 116.246 151.63 C 116.246 153.709 114.55 155.399 112.471 155.399 C 110.391 155.399 108.707 153.709 108.707 151.63 C 108.707 149.538 110.391 147.855 112.471 147.855 C 114.55 147.855 116.246 149.538 116.246 151.63 Z " fill="rgb(38,170,225)"/></g><g><path d=" M 116.246 165.228 C 116.246 167.314 114.55 168.997 112.471 168.997 C 110.391 168.997 108.707 167.314 108.707 165.228 C 108.707 163.149 110.391 161.459 112.471 161.459 C 114.55 161.459 116.246 163.149 116.246 165.228 Z " fill="rgb(38,170,225)"/></g><g><path d=" M 116.246 178.832 C 116.246 180.911 114.55 182.601 112.471 182.601 C 110.391 182.601 108.707 180.911 108.707 178.832 C 108.707 176.746 110.391 175.063 112.471 175.063 C 114.55 175.063 116.246 176.746 116.246 178.832 Z " fill="rgb(38,170,225)"/></g><g><path d=" M 116.246 192.429 C 116.246 194.522 114.55 196.204 112.471 196.204 C 110.391 196.204 108.707 194.522 108.707 192.429 C 108.707 190.35 110.391 188.66 112.471 188.66 C 114.55 188.66 116.246 190.35 116.246 192.429 Z " fill="rgb(38,170,225)"/></g></g></g></svg>