<?xml version="1.0" encoding="UTF-8" standalone="no"?><!-- Generator: Gravit.io --><svg xmlns="http://www.w3.org/2000/svg" xmlns:xlink="http://www.w3.org/1999/xlink" style="isolation:isolate" viewBox="0 0 256 105.197" width="256pt" height="105.197pt"><defs><clipPath id="_clipPath_L1qQorszJnMxwmqMaTu9OUrFpK5Ja3As"><rect width="256" height="105.197"/></clipPath></defs><g clip-path="url(#_clipPath_L1qQorszJnMxwmqMaTu9OUrFpK5Ja3As)"><g><g><linearGradient id="_lgradient_257" x1="0" y1="0.5" x2="1" y2="0.5" gradientTransform="matrix(256,0,0,56.254,0,0)" gradientUnits="userSpaceOnUse"><stop offset="0%" stop-opacity="1" style="stop-color:rgb(242,183,129)"/><stop offset="11.200000000000001%" stop-opacity="1" style="stop-color:rgb(242,183,129)"/><stop offset="51.5%" stop-opacity="1" style="stop-color:rgb(250,210,174)"/><stop offset="82.69999999999999%" stop-opacity="1" style="stop-color:rgb(242,183,129)"/><stop offset="100%" stop-opacity="1" style="stop-color:rgb(242,183,129)"/></linearGradient><path d=" M 0 16.573 C 0 32.445 0 40.381 0 56.254 C 87.214 34.159 168.787 34.157 256 56.254 L 256 16.573 C 212.394 5.524 170.197 0 128 0 C 85.803 0 43.606 5.524 0 16.573 Z " fill="url(#_lgradient_257)"/></g><g><linearGradient id="_lgradient_258" x1="0" y1="0.5" x2="1" y2="0.5" gradientTransform="matrix(256,0,0,88.5,0,16.697)" gradientUnits="userSpaceOnUse"><stop offset="0%" stop-opacity="1" style="stop-color:rgb(26,142,205)"/><stop offset="24.5%" stop-opacity="1" style="stop-color:rgb(26,142,205)"/><stop offset="65.2%" stop-opacity="1" style="stop-color:rgb(110,190,233)"/><stop offset="100%" stop-opacity="1" style="stop-color:rgb(26,142,205)"/></linearGradient><path d=" M 217.4 27.894 C 217.301 27.523 217.235 27.191 217.132 26.815 C 215.765 21.779 211.125 18.793 207.285 19.704 C 153.398 29.9 102.602 29.901 48.714 19.703 C 44.876 18.792 40.234 21.778 38.867 26.814 C 38.766 27.19 38.698 27.522 38.6 27.893 C 25.83 24.792 12.982 21.114 0 16.697 L 0 69.982 C 12.742 74.318 25.354 77.941 37.892 81.01 C 38.215 82.491 38.496 83.897 38.867 85.465 C 40.234 91.233 44.876 96.639 48.714 97.55 C 102.602 107.746 153.398 107.746 207.285 97.55 C 211.125 96.639 215.765 91.233 217.132 85.465 C 217.504 83.897 217.785 82.491 218.108 81.01 C 230.645 77.942 243.257 74.318 256 69.982 L 256 16.697 C 243.017 21.114 230.17 24.792 217.4 27.894 Z " fill="url(#_lgradient_258)"/></g><g><path d=" M 159.513 29.705 C 157.49 31.886 156.479 32.972 154.455 35.129 C 161.154 41.39 165.288 50.23 165.288 60.454 C 165.288 70.678 161.154 80.352 154.455 87.492 C 156.478 89.384 157.49 90.322 159.512 92.19 C 167.501 83.568 172.427 71.93 172.427 59.73 C 172.427 47.53 167.501 37.076 159.513 29.705 Z  M 150.881 38.918 C 148.857 41.058 147.845 42.12 145.819 44.234 C 150.312 48.528 153.089 54.544 153.089 61.396 C 153.089 68.25 150.312 74.642 145.818 79.332 C 147.844 81.266 148.856 82.226 150.881 84.136 C 156.668 78.022 160.243 69.718 160.243 60.888 C 160.243 52.06 156.669 44.378 150.881 38.918 Z  M 148.246 61.668 C 148.246 56.152 146.01 51.28 142.392 47.794 C 140.366 49.89 139.353 50.932 137.326 53.002 C 139.648 55.268 141.084 58.422 141.084 61.962 C 141.084 65.502 139.647 68.758 137.324 71.13 C 139.351 73.108 140.365 74.092 142.391 76.044 C 146.01 72.3 148.246 67.184 148.246 61.668 Z  M 128.247 69.098 C 124.416 69.1 121.312 65.942 121.312 62.118 C 121.312 58.294 124.416 55.25 128.247 55.248 C 132.078 55.246 135.182 58.286 135.182 62.11 C 135.182 65.934 132.078 69.096 128.247 69.098 Z " fill="rgb(255,255,255)"/></g><g><path d=" M 96.487 92.19 C 98.51 90.324 99.521 89.384 101.545 87.492 C 94.846 80.352 90.712 70.678 90.712 60.454 C 90.712 50.23 94.846 41.39 101.545 35.128 C 99.522 32.972 98.51 31.887 96.488 29.705 C 88.499 37.078 83.573 47.529 83.573 59.73 C 83.573 71.931 88.499 83.569 96.487 92.19 Z  M 105.119 84.138 C 107.143 82.228 108.155 81.267 110.18 79.332 C 105.688 74.642 102.911 68.25 102.911 61.397 C 102.911 54.544 105.688 48.528 110.182 44.234 C 108.156 42.121 107.143 41.058 105.119 38.919 C 99.332 44.378 95.757 52.06 95.757 60.889 C 95.757 69.718 99.33 78.023 105.119 84.138 Z  M 107.754 61.669 C 107.754 67.185 109.99 72.3 113.608 76.043 C 115.634 74.091 116.647 73.109 118.674 71.131 C 116.351 68.758 114.916 65.503 114.916 61.963 C 114.916 58.423 116.353 55.269 118.675 53.003 C 116.649 50.932 115.635 49.89 113.609 47.794 C 109.99 51.28 107.754 56.152 107.754 61.669 Z " fill="rgb(255,255,255)"/></g></g></g></svg>