<?xml version="1.0" encoding="UTF-8" standalone="no"?><!-- Generator: Gravit.io --><svg xmlns="http://www.w3.org/2000/svg" xmlns:xlink="http://www.w3.org/1999/xlink" style="isolation:isolate" viewBox="0 0 256 105.903" width="256pt" height="105.903pt"><defs><clipPath id="_clipPath_aDPfBbDaVxHdKB3bbljGYF6D5PaxTkHa"><rect width="256" height="105.903"/></clipPath></defs><g clip-path="url(#_clipPath_aDPfBbDaVxHdKB3bbljGYF6D5PaxTkHa)"><g><g><linearGradient id="_lgradient_259" x1="0" y1="0.5" x2="1" y2="0.5" gradientTransform="matrix(192.831,0,0,68.279,63.169,32.337)" gradientUnits="userSpaceOnUse"><stop offset="0%" stop-opacity="1" style="stop-color:rgb(87,88,90)"/><stop offset="50.2%" stop-opacity="1" style="stop-color:rgb(128,130,132)"/><stop offset="100%" stop-opacity="1" style="stop-color:rgb(87,88,90)"/></linearGradient><path d=" M 231.935 32.337 L 212.093 32.337 L 110.201 32.337 L 111.481 32.337 L 91.621 32.337 L 71.678 32.337 L 66.028 36.258 L 66.028 36.425 L 66.028 51.814 L 63.169 51.814 L 63.169 82.277 L 66.028 82.277 L 66.028 95.198 L 66.277 95.198 L 71.678 100.616 L 94.363 100.616 L 108.672 100.616 L 109.37 100.616 L 124.344 100.616 L 129.561 100.616 L 170.927 100.616 L 214.835 100.616 L 229.144 100.616 L 247.906 100.616 L 251.829 95.456 L 251.829 95.198 L 251.829 82.277 L 256 82.277 L 256 51.814 L 251.829 51.814 L 251.829 36.425 L 251.829 36.258 L 247.159 32.337 L 231.935 32.337 Z " fill="url(#_lgradient_259)"/></g><g><path d=" M 237.486 79.651 L 80.868 79.651 L 80.868 54.432 L 237.486 54.432 L 237.486 79.651 Z " fill="rgb(0,0,0)"/></g><g><path d=" M 96.64 61.312 C 93.466 61.312 90.873 63.879 90.873 67.045 C 90.873 70.212 93.466 72.779 96.64 72.779 L 221.715 72.779 C 224.89 72.779 227.465 70.212 227.465 67.045 C 227.465 63.879 224.89 61.312 221.715 61.312 L 96.64 61.312 Z " fill="rgb(38,170,225)"/></g><g><linearGradient id="_lgradient_260" x1="0" y1="0.5" x2="1" y2="0.5" gradientTransform="matrix(14.309,0,0,4.097,94.363,100.616)" gradientUnits="userSpaceOnUse"><stop offset="0%" stop-opacity="1" style="stop-color:rgb(37,34,35)"/><stop offset="100%" stop-opacity="1" style="stop-color:rgb(37,34,35)"/><stop offset="100%" stop-opacity="1" style="stop-color:rgb(68,66,68)"/></linearGradient><path d=" M 94.363 100.616 L 95.659 104.713 L 107.043 104.713 L 108.672 100.616 L 94.363 100.616 Z " fill="url(#_lgradient_260)"/></g><g><linearGradient id="_lgradient_261" x1="0" y1="0.5" x2="1" y2="0.5" gradientTransform="matrix(14.309,0,0,4.097,214.835,100.616)" gradientUnits="userSpaceOnUse"><stop offset="0%" stop-opacity="1" style="stop-color:rgb(56,54,56)"/><stop offset="100%" stop-opacity="1" style="stop-color:rgb(68,66,68)"/></linearGradient><path d=" M 214.835 100.616 L 216.131 104.713 L 227.532 104.713 L 229.144 100.616 L 214.835 100.616 Z " fill="url(#_lgradient_261)"/></g><g><linearGradient id="_lgradient_262" x1="0" y1="0.5" x2="6.123233995736766e-17" y2="-0.5" gradientTransform="matrix(105.903,0,0,105.903,0,0)" gradientUnits="userSpaceOnUse"><stop offset="0%" stop-opacity="1" style="stop-color:rgb(7,59,107)"/><stop offset="12.4%" stop-opacity="1" style="stop-color:rgb(7,59,107)"/><stop offset="100%" stop-opacity="1" style="stop-color:rgb(24,92,156)"/></linearGradient><path d=" M 0 52.951 C 0 82.196 23.707 105.903 52.952 105.903 C 82.196 105.903 105.903 82.196 105.903 52.951 C 105.903 23.707 82.196 0 52.952 0 C 23.707 0 0 23.707 0 52.951 Z " fill="url(#_lgradient_262)"/></g><g><linearGradient id="_lgradient_263" x1="0" y1="0.5" x2="6.123233995736766e-17" y2="-0.5" gradientTransform="matrix(46.13,0,0,29.012,53.763,38.445)" gradientUnits="userSpaceOnUse"><stop offset="0%" stop-opacity="1" style="stop-color:rgb(177,179,181)"/><stop offset="78.10000000000001%" stop-opacity="1" style="stop-color:rgb(219,220,222)"/><stop offset="100%" stop-opacity="1" style="stop-color:rgb(219,220,222)"/></linearGradient><path d=" M 53.763 52.951 L 77.363 67.457 L 77.363 59.577 L 99.893 59.577 L 99.893 46.325 L 77.363 46.325 L 77.363 38.445 L 53.763 52.951 Z " fill="url(#_lgradient_263)"/></g><g><linearGradient id="_lgradient_264" x1="0" y1="0.5" x2="6.123233995736766e-17" y2="-0.5" gradientTransform="matrix(46.131,0,0,29.012,6.01,38.445)" gradientUnits="userSpaceOnUse"><stop offset="0%" stop-opacity="1" style="stop-color:rgb(177,179,181)"/><stop offset="78.10000000000001%" stop-opacity="1" style="stop-color:rgb(219,220,222)"/><stop offset="100%" stop-opacity="1" style="stop-color:rgb(219,220,222)"/></linearGradient><path d=" M 28.541 46.325 L 6.01 46.325 L 6.01 59.577 L 28.541 59.577 L 28.541 67.457 L 52.141 52.951 L 28.541 38.445 L 28.541 46.325 Z " fill="url(#_lgradient_264)"/></g><g><linearGradient id="_lgradient_265" x1="0" y1="0.5" x2="6.123233995736766e-17" y2="-0.5" gradientTransform="matrix(29.013,0,0,38.849,38.445,3.32)" gradientUnits="userSpaceOnUse"><stop offset="0%" stop-opacity="1" style="stop-color:rgb(177,179,181)"/><stop offset="78.10000000000001%" stop-opacity="1" style="stop-color:rgb(219,220,222)"/><stop offset="100%" stop-opacity="1" style="stop-color:rgb(219,220,222)"/></linearGradient><path d=" M 38.445 26.92 L 46.326 26.92 L 46.326 42.169 L 59.578 42.169 L 59.578 26.92 L 67.458 26.92 L 52.952 3.32 L 38.445 26.92 Z " fill="url(#_lgradient_265)"/></g><g><linearGradient id="_lgradient_266" x1="0" y1="0.5" x2="6.123233995736766e-17" y2="-0.5" gradientTransform="matrix(29.013,0,0,38.85,38.445,63.733)" gradientUnits="userSpaceOnUse"><stop offset="0%" stop-opacity="1" style="stop-color:rgb(177,179,181)"/><stop offset="78.10000000000001%" stop-opacity="1" style="stop-color:rgb(219,220,222)"/><stop offset="100%" stop-opacity="1" style="stop-color:rgb(219,220,222)"/></linearGradient><path d=" M 46.326 63.733 L 46.326 78.983 L 38.445 78.983 L 52.952 102.583 L 67.458 78.983 L 59.578 78.983 L 59.578 63.733 L 46.326 63.733 Z " fill="url(#_lgradient_266)"/></g></g></g></svg>