<?xml version="1.0" encoding="UTF-8" standalone="no"?><!-- Generator: Gravit.io --><svg xmlns="http://www.w3.org/2000/svg" xmlns:xlink="http://www.w3.org/1999/xlink" style="isolation:isolate" viewBox="0 0 256 139.363" width="256pt" height="139.363pt"><defs><clipPath id="_clipPath_2h83wx5ljQj4OkSYnINVupK6lXhLZwgy"><rect width="256" height="139.363"/></clipPath></defs><g clip-path="url(#_clipPath_2h83wx5ljQj4OkSYnINVupK6lXhLZwgy)"><g><g><linearGradient id="_lgradient_267" x1="0" y1="0.5" x2="1" y2="0.5" gradientTransform="matrix(256,0,0,139.363,0,0)" gradientUnits="userSpaceOnUse"><stop offset="0%" stop-opacity="1" style="stop-color:rgb(219,220,222)"/><stop offset="37.8%" stop-opacity="1" style="stop-color:rgb(177,179,181)"/><stop offset="72.1%" stop-opacity="1" style="stop-color:rgb(219,220,222)"/><stop offset="100%" stop-opacity="1" style="stop-color:rgb(187,189,191)"/></linearGradient><path d=" M 249.5 0 L 240.993 0 L 204.441 0 L 195.934 0 L 159.407 0 L 150.899 0 L 2.542 0 C 1.132 0 0 1.469 0 3.263 L 0 136.113 C 0 137.906 1.132 139.363 2.542 139.363 L 253.472 139.363 C 254.874 139.363 256 137.906 256 136.113 L 256 3.263 C 256 1.469 254.874 0 253.472 0 L 249.5 0 Z " fill="url(#_lgradient_267)"/></g><g><path d=" M 232.988 9.432 C 236.953 9.432 240.173 12.645 240.173 16.611 C 240.173 20.589 236.953 23.802 232.988 23.802 C 229.016 23.802 225.784 20.589 225.784 16.611 C 225.784 12.645 229.016 9.432 232.988 9.432 Z " fill="rgb(0,0,0)"/></g><g><path d=" M 213.91 9.432 C 217.858 9.432 221.089 12.645 221.089 16.611 C 221.089 20.589 217.858 23.802 213.91 23.802 C 209.957 23.802 206.731 20.589 206.731 16.611 C 206.731 12.645 209.957 9.432 213.91 9.432 Z " fill="rgb(0,0,0)"/></g><g><path d=" M 194.844 9.432 C 198.823 9.432 202.042 12.645 202.042 16.611 C 202.042 20.589 198.823 23.802 194.844 23.802 C 190.884 23.802 187.665 20.589 187.665 16.611 C 187.665 12.645 190.884 9.432 194.844 9.432 Z " fill="rgb(0,0,0)"/></g><g><path d=" M 175.535 9.432 C 179.507 9.432 182.714 12.645 182.714 16.611 C 182.714 20.589 179.507 23.802 175.535 23.802 C 171.563 23.802 168.356 20.589 168.356 16.611 C 168.356 12.645 171.563 9.432 175.535 9.432 Z " fill="rgb(0,0,0)"/></g><g><path d=" M 156.494 9.432 C 160.466 9.432 163.673 12.645 163.673 16.611 C 163.673 20.589 160.466 23.802 156.494 23.802 C 152.515 23.802 149.308 20.589 149.308 16.611 C 149.308 12.645 152.515 9.432 156.494 9.432 Z " fill="rgb(0,0,0)"/></g><g><path d=" M 137.438 9.432 C 141.376 9.432 144.62 12.645 144.62 16.611 C 144.62 20.589 141.376 23.802 137.438 23.802 C 133.469 23.802 130.258 20.589 130.258 16.611 C 130.258 12.645 133.469 9.432 137.438 9.432 Z " fill="rgb(0,0,0)"/></g><g><path d=" M 118.366 9.432 C 122.336 9.432 125.568 12.645 125.568 16.611 C 125.568 20.589 122.336 23.802 118.366 23.802 C 114.41 23.802 111.18 20.589 111.18 16.611 C 111.18 12.645 114.41 9.432 118.366 9.432 Z " fill="rgb(0,0,0)"/></g><g><path d=" M 98.76 9.432 C 102.717 9.432 105.942 12.645 105.942 16.611 C 105.942 20.589 102.717 23.802 98.76 23.802 C 94.785 23.802 91.55 20.589 91.55 16.611 C 91.55 12.645 94.785 9.432 98.76 9.432 Z " fill="rgb(0,0,0)"/></g><g><path d=" M 79.679 9.432 C 83.63 9.432 86.861 12.645 86.861 16.611 C 86.861 20.589 83.63 23.802 79.679 23.802 C 75.726 23.802 72.493 20.589 72.493 16.611 C 72.493 12.645 75.726 9.432 79.679 9.432 Z " fill="rgb(0,0,0)"/></g><g><path d=" M 60.613 9.432 C 64.582 9.432 67.808 12.645 67.808 16.611 C 67.808 20.589 64.582 23.802 60.613 23.802 C 56.653 23.802 53.425 20.589 53.425 16.611 C 53.425 12.645 56.653 9.432 60.613 9.432 Z " fill="rgb(0,0,0)"/></g><g><path d=" M 41.298 9.432 C 45.272 9.432 48.486 12.645 48.486 16.611 C 48.486 20.589 45.272 23.802 41.298 23.802 C 37.328 23.802 34.118 20.589 34.118 16.611 C 34.118 12.645 37.328 9.432 41.298 9.432 Z " fill="rgb(0,0,0)"/></g><g><path d=" M 22.253 9.432 C 26.195 9.432 29.433 12.645 29.433 16.611 C 29.433 20.589 26.195 23.802 22.253 23.802 C 18.285 23.802 15.074 20.589 15.074 16.611 C 15.074 12.645 18.285 9.432 22.253 9.432 Z " fill="rgb(0,0,0)"/></g><g><linearGradient id="_lgradient_268" x1="0" y1="0.5" x2="1" y2="0.5" gradientTransform="matrix(228.752,0,0,96.605,13.624,33.54)" gradientUnits="userSpaceOnUse"><stop offset="0%" stop-opacity="1" style="stop-color:rgb(108,110,112)"/><stop offset="53.6%" stop-opacity="1" style="stop-color:rgb(63,62,64)"/><stop offset="100%" stop-opacity="1" style="stop-color:rgb(63,62,64)"/></linearGradient><path d=" M 235.381 33.54 L 201.755 33.54 L 193.927 33.54 L 160.313 33.54 L 152.479 33.54 L 15.965 33.54 C 14.667 33.54 13.624 34.409 13.624 35.456 L 13.624 128.224 C 13.624 129.276 14.667 130.145 15.965 130.145 L 240.056 130.145 C 241.342 130.145 242.376 129.276 242.376 128.224 L 242.376 35.456 C 242.376 34.409 241.342 33.54 240.056 33.54 L 235.381 33.54 Z " fill="url(#_lgradient_268)"/></g><g><linearGradient id="_lgradient_269" x1="0" y1="0.5" x2="0.939769607203621" y2="0.841808550765413" gradientTransform="matrix(110.624,0,0,71.793,29.167,45.395)" gradientUnits="userSpaceOnUse"><stop offset="0%" stop-opacity="1" style="stop-color:rgb(30,144,206)"/><stop offset="22.154000000000014%" stop-opacity="1" style="stop-color:rgb(110,190,233)"/><stop offset="66.59840000000003%" stop-opacity="1" style="stop-color:rgb(26,142,205)"/><stop offset="100%" stop-opacity="1" style="stop-color:rgb(26,142,205)"/></linearGradient><path d=" M 29.167 117.188 L 139.791 117.188 L 139.791 45.395 L 29.167 45.395 L 29.167 117.188 Z " fill="url(#_lgradient_269)"/></g><g><path d=" M 206.308 59.699 L 192.274 45.658 L 178.246 59.699 L 206.308 59.699 Z " fill="rgb(38,170,225)"/></g><g><path d=" M 178.246 103.423 L 192.274 117.451 L 206.308 103.423 L 178.246 103.423 Z " fill="rgb(38,170,225)"/></g><g><path d=" M 214.142 95.589 L 228.164 81.561 L 214.142 67.533 L 214.142 95.589 Z " fill="rgb(38,170,225)"/></g><g><path d=" M 170.412 67.533 L 156.384 81.562 L 170.412 95.59 L 170.412 67.533 Z " fill="rgb(38,170,225)"/></g><g><path d=" M 206.308 81.562 C 206.308 89.31 200.022 95.59 192.274 95.59 C 184.525 95.59 178.246 89.31 178.246 81.562 C 178.246 73.813 184.525 67.534 192.274 67.534 C 200.022 67.534 206.308 73.813 206.308 81.562 Z " fill="rgb(38,170,225)"/></g></g></g></svg>