<?xml version="1.0" encoding="UTF-8" standalone="no"?><!-- Generator: Gravit.io --><svg xmlns="http://www.w3.org/2000/svg" xmlns:xlink="http://www.w3.org/1999/xlink" style="isolation:isolate" viewBox="0 0 223.96 256" width="223.96pt" height="256pt"><defs><clipPath id="_clipPath_ECq8mW7V6vYzUEhe4DP5D4rIelhokFf0"><rect width="223.96" height="256"/></clipPath></defs><g clip-path="url(#_clipPath_ECq8mW7V6vYzUEhe4DP5D4rIelhokFf0)"><g><g><path d=" M 61.816 142.863 L 0.001 142.863 L 0.001 35.152 L 61.816 35.152 L 61.816 142.863 Z " fill="rgb(0,0,0)"/></g><g><linearGradient id="_lgradient_270" x1="0" y1="0.5" x2="1" y2="0.5" gradientTransform="matrix(95.368,0,0,256,0,0)" gradientUnits="userSpaceOnUse"><stop offset="0%" stop-opacity="1" style="stop-color:rgb(108,110,112)"/><stop offset="53.6%" stop-opacity="1" style="stop-color:rgb(63,62,64)"/><stop offset="100%" stop-opacity="1" style="stop-color:rgb(63,62,64)"/></linearGradient><path d=" M 1.9 0 C 0.85 0 0 0.844 0 1.888 L 0 35.152 L 61.816 35.152 L 61.816 41.539 L 0 41.539 L 0 68.928 L 61.816 68.928 L 61.816 75.316 L 0 75.316 L 0 102.706 L 61.816 102.706 L 61.816 109.087 L 0 109.087 L 0 136.483 L 61.816 136.483 L 61.816 142.863 L 0 142.863 L 0 254.101 C 0 255.157 0.85 256 1.9 256 L 93.467 256 C 94.518 256 95.368 255.157 95.368 254.101 L 95.368 1.888 C 95.368 0.844 94.518 0 93.467 0 L 1.9 0 Z " fill="url(#_lgradient_270)"/></g><g><path d=" M 95.368 41.539 L 63.879 41.539 L 63.879 35.152 L 95.368 35.152 L 95.368 41.539 Z " fill="rgb(38,170,225)"/></g><g><path d=" M 95.368 75.316 L 63.879 75.316 L 63.879 68.928 L 95.368 68.928 L 95.368 75.316 Z " fill="rgb(38,170,225)"/></g><g><path d=" M 95.368 109.086 L 63.879 109.086 L 63.879 102.705 L 95.368 102.705 L 95.368 109.086 Z " fill="rgb(38,170,225)"/></g><g><path d=" M 95.368 142.863 L 63.879 142.863 L 63.879 136.482 L 95.368 136.482 L 95.368 142.863 Z " fill="rgb(38,170,225)"/></g><g><path d=" M 95.368 247.275 L 0.001 247.275 L 0.001 240.9 L 95.368 240.9 L 95.368 247.275 Z " fill="rgb(0,0,0)"/></g><g><linearGradient id="_lgradient_271" x1="0" y1="0.5" x2="1" y2="0.5" gradientTransform="matrix(151.613,0,0,160.801,72.347,94.487)" gradientUnits="userSpaceOnUse"><stop offset="0%" stop-opacity="1" style="stop-color:rgb(158,160,163)"/><stop offset="36.199999999999996%" stop-opacity="1" style="stop-color:rgb(219,220,222)"/><stop offset="83.3%" stop-opacity="1" style="stop-color:rgb(157,159,161)"/><stop offset="100%" stop-opacity="1" style="stop-color:rgb(160,162,165)"/></linearGradient><path d=" M 72.347 114.74 L 72.347 167.121 C 72.347 167.121 73.283 233.208 148.153 255.288 C 223.024 233.208 223.96 167.121 223.96 167.121 L 223.96 114.74 C 223.96 114.74 195.883 94.487 148.153 94.487 C 100.424 94.487 72.347 114.74 72.347 114.74 Z " fill="url(#_lgradient_271)"/></g><g><linearGradient id="_lgradient_272" x1="0" y1="0.5" x2="1" y2="0.5" gradientTransform="matrix(110.769,0,0,34.448,92.769,116.146)" gradientUnits="userSpaceOnUse"><stop offset="0%" stop-opacity="1" style="stop-color:rgb(108,110,112)"/><stop offset="53.6%" stop-opacity="1" style="stop-color:rgb(63,62,64)"/><stop offset="100%" stop-opacity="1" style="stop-color:rgb(63,62,64)"/></linearGradient><path d=" M 92.769 130.943 L 92.769 150.594 L 203.538 150.594 L 203.538 130.943 C 203.538 130.943 183.025 116.146 148.153 116.146 C 113.282 116.146 92.769 130.943 92.769 130.943 Z " fill="url(#_lgradient_272)"/></g><g><linearGradient id="_lgradient_273" x1="0" y1="0.5" x2="1" y2="0.5" gradientTransform="matrix(102.891,0,0,44.828,96.708,188.8)" gradientUnits="userSpaceOnUse"><stop offset="0%" stop-opacity="1" style="stop-color:rgb(108,110,112)"/><stop offset="53.6%" stop-opacity="1" style="stop-color:rgb(63,62,64)"/><stop offset="100%" stop-opacity="1" style="stop-color:rgb(63,62,64)"/></linearGradient><path d=" M 96.708 188.8 C 102.279 204.204 115.721 224.063 148.153 233.628 C 180.586 224.063 194.028 204.204 199.599 188.8 L 96.708 188.8 Z " fill="url(#_lgradient_273)"/></g><g><radialGradient id="_rgradient_26" fx="0.262" fy="-0.182" cx="0.262" cy="-0.182" r="0.368" gradientTransform="matrix(83.577,0,0,23.853,106.365,157.626)" gradientUnits="userSpaceOnUse"><stop offset="0%" stop-opacity="1" style="stop-color:rgb(46,147,208)"/><stop offset="100%" stop-opacity="1" style="stop-color:rgb(42,46,119)"/></radialGradient><path d=" M 106.396 164.795 C 106.396 171.524 109.777 171.494 115.567 171.9 L 116.945 171.994 C 119.886 172.182 120.231 172.151 120.231 174.186 C 120.231 176.157 119.262 176.345 116.319 176.345 C 113.251 176.345 112.375 176.094 112.375 173.653 L 106.365 173.653 C 106.365 181.353 110.341 181.479 116.319 181.479 C 126.649 181.479 126.492 177.66 126.492 173.779 C 126.492 168.394 124.771 167.518 117.821 167.017 L 115.223 166.829 C 113.564 166.704 112.657 166.642 112.657 164.762 C 112.657 163.449 112.938 162.76 116.319 162.76 C 118.823 162.76 119.824 162.76 119.824 165.17 L 125.834 165.17 L 125.834 164.2 C 125.834 157.72 121.452 157.626 116.319 157.626 C 110.183 157.626 106.396 158.065 106.396 164.795 Z  M 179.77 157.814 L 175.513 172.557 L 175.293 172.557 L 170.817 157.814 L 160.894 157.814 L 160.894 181.291 L 167.155 181.291 L 166.529 163.292 L 166.716 163.292 L 172.726 181.291 L 178.142 181.291 L 184.09 163.292 L 184.307 163.292 L 183.682 181.291 L 189.942 181.291 L 189.942 157.814 L 179.77 157.814 Z  M 139.764 157.814 L 139.764 181.291 L 156.918 181.291 L 156.918 176.157 L 146.024 176.157 L 146.024 171.587 L 156.04 171.587 L 156.04 167.236 L 146.024 167.236 L 146.024 162.948 L 156.699 162.948 L 156.699 157.814 L 139.764 157.814 Z  M 129.56 181.291 L 135.819 181.291 L 135.819 157.814 L 129.56 157.814 L 129.56 181.291 Z " fill="url(#_rgradient_26)"/></g></g></g></svg>