<?xml version="1.0" encoding="UTF-8" standalone="no"?><!-- Generator: Gravit.io --><svg xmlns="http://www.w3.org/2000/svg" xmlns:xlink="http://www.w3.org/1999/xlink" style="isolation:isolate" viewBox="0 0 255.517 131.833" width="255.517pt" height="131.833pt"><defs><clipPath id="_clipPath_knvTjsKEYbajtV2l8yYAIbAaGAOqasat"><rect width="255.517" height="131.833"/></clipPath></defs><g clip-path="url(#_clipPath_knvTjsKEYbajtV2l8yYAIbAaGAOqasat)"><g><g><linearGradient id="_lgradient_274" x1="0" y1="0.5" x2="1" y2="0.5" gradientTransform="matrix(17.798,0,0,51.283,204.179,0)" gradientUnits="userSpaceOnUse"><stop offset="0%" stop-opacity="1" style="stop-color:rgb(34,31,32)"/><stop offset="50.2%" stop-opacity="1" style="stop-color:rgb(69,68,70)"/><stop offset="100%" stop-opacity="1" style="stop-color:rgb(34,31,32)"/></linearGradient><path d=" M 204.179 11.104 L 204.179 51.283 L 221.977 51.283 L 221.977 11.104 C 221.977 4.972 217.991 0 213.078 0 C 208.166 0 204.179 4.972 204.179 11.104 Z " fill="url(#_lgradient_274)"/></g><g><linearGradient id="_lgradient_275" x1="0" y1="0.5" x2="1" y2="0.5" gradientTransform="matrix(255.517,0,0,81.138,0,50.695)" gradientUnits="userSpaceOnUse"><stop offset="0%" stop-opacity="1" style="stop-color:rgb(108,110,112)"/><stop offset="53.814400000000006%" stop-opacity="1" style="stop-color:rgb(63,62,64)"/><stop offset="100%" stop-opacity="1" style="stop-color:rgb(63,62,64)"/></linearGradient><path d=" M 5.128 50.695 C 2.294 50.695 0 52.988 0 55.822 L 0 126.705 C 0 129.539 2.294 131.833 5.128 131.833 L 251.423 131.833 C 253.096 131.833 254.581 131.034 255.517 129.797 L 255.517 52.731 C 254.581 51.494 253.096 50.695 251.423 50.695 L 5.128 50.695 Z " fill="url(#_lgradient_275)"/></g><g><linearGradient id="_lgradient_276" x1="0" y1="0.5" x2="1" y2="0.5" gradientTransform="matrix(246.115,0,0,69.04,5.219,56.744)" gradientUnits="userSpaceOnUse"><stop offset="0%" stop-opacity="1" style="stop-color:rgb(219,220,222)"/><stop offset="37.8%" stop-opacity="1" style="stop-color:rgb(177,179,181)"/><stop offset="72.1%" stop-opacity="1" style="stop-color:rgb(219,220,222)"/><stop offset="100%" stop-opacity="1" style="stop-color:rgb(187,189,191)"/></linearGradient><path d=" M 5.219 125.784 L 251.334 125.784 L 251.334 56.744 L 5.219 56.744 L 5.219 125.784 Z " fill="url(#_lgradient_276)"/></g><g><path d=" M 221.977 95.986 C 221.567 98.23 219.092 100.062 216.463 100.062 L 185.67 100.062 C 183.036 100.062 180.571 98.23 180.161 95.986 C 179.545 92.612 179.224 90.929 178.608 87.564 C 178.192 85.31 180.321 83.477 183.351 83.477 L 218.782 83.477 C 221.812 83.477 223.93 85.31 223.52 87.564 C 222.904 90.929 222.593 92.612 221.977 95.986 Z " fill="rgb(0,0,0)"/></g><g><path d=" M 148.711 95.986 C 148.3 98.23 145.826 100.062 143.197 100.062 L 112.403 100.062 C 109.77 100.062 107.305 98.23 106.89 95.986 C 106.279 92.612 105.958 90.929 105.337 87.564 C 104.926 85.31 107.055 83.477 110.085 83.477 L 145.516 83.477 C 148.546 83.477 150.664 85.31 150.254 87.564 C 149.638 90.929 149.327 92.612 148.711 95.986 Z " fill="rgb(0,0,0)"/></g><g><path d=" M 75.44 95.986 C 75.03 98.23 72.555 100.062 69.931 100.062 L 39.133 100.062 C 36.499 100.062 34.034 98.23 33.624 95.986 C 33.008 92.612 32.687 90.929 32.071 87.564 C 31.661 85.31 33.784 83.477 36.819 83.477 L 72.245 83.477 C 75.28 83.477 77.393 85.31 76.983 87.564 C 76.372 90.929 76.061 92.612 75.44 95.986 Z " fill="rgb(0,0,0)"/></g></g></g></svg>