<?xml version="1.0" encoding="UTF-8" standalone="no"?><!-- Generator: Gravit.io --><svg xmlns="http://www.w3.org/2000/svg" xmlns:xlink="http://www.w3.org/1999/xlink" style="isolation:isolate" viewBox="0 0 256 106.076" width="256pt" height="106.076pt"><defs><clipPath id="_clipPath_8bP1hJ08VQA6bSRyaNRIxNwAzD8hmaX8"><rect width="256" height="106.076"/></clipPath></defs><g clip-path="url(#_clipPath_8bP1hJ08VQA6bSRyaNRIxNwAzD8hmaX8)"><g><g><linearGradient id="_lgradient_277" x1="0" y1="0.5" x2="1" y2="0.5" gradientTransform="matrix(179.016,0,0,106.076,0,0)" gradientUnits="userSpaceOnUse"><stop offset="0%" stop-opacity="1" style="stop-color:rgb(108,110,112)"/><stop offset="53.6%" stop-opacity="1" style="stop-color:rgb(63,62,64)"/><stop offset="100%" stop-opacity="1" style="stop-color:rgb(63,62,64)"/></linearGradient><path d=" M 3.578 0 C 1.602 0 0 1.601 0 3.579 L 0 102.498 C 0 104.475 1.602 106.076 3.578 106.076 L 175.439 106.076 C 177.416 106.076 179.016 104.475 179.016 102.498 L 179.016 3.579 C 179.016 1.601 177.416 0 175.439 0 L 3.578 0 Z " fill="url(#_lgradient_277)"/></g><g><path d=" M 82.464 26.673 C 82.464 30.915 79.027 34.35 74.789 34.35 C 70.548 34.35 67.111 30.915 67.111 26.673 C 67.111 22.431 70.548 18.996 74.789 18.996 C 79.027 18.996 82.464 22.431 82.464 26.673 Z " fill="rgb(38,170,225)"/></g><g><path d=" M 111.236 26.673 C 111.236 30.915 107.797 34.35 103.559 34.35 C 99.32 34.35 95.882 30.915 95.882 26.673 C 95.882 22.431 99.32 18.996 103.559 18.996 C 107.797 18.996 111.236 22.431 111.236 26.673 Z " fill="rgb(38,170,225)"/></g><g><linearGradient id="_lgradient_278" x1="0" y1="0.5" x2="1" y2="0.5" gradientTransform="matrix(173.522,0,0,48.174,2.413,54.034)" gradientUnits="userSpaceOnUse"><stop offset="0%" stop-opacity="1" style="stop-color:rgb(219,220,222)"/><stop offset="37.8%" stop-opacity="1" style="stop-color:rgb(177,179,181)"/><stop offset="72.1%" stop-opacity="1" style="stop-color:rgb(219,220,222)"/><stop offset="100%" stop-opacity="1" style="stop-color:rgb(187,189,191)"/></linearGradient><path d=" M 2.413 102.208 L 175.935 102.208 L 175.935 54.034 L 2.413 54.034 L 2.413 102.208 Z " fill="url(#_lgradient_278)"/></g><g><path d=" M 154.891 81.063 C 154.604 82.628 152.878 83.907 151.044 83.907 L 129.557 83.907 C 127.718 83.907 125.999 82.628 125.713 81.063 C 125.283 78.708 125.059 77.533 124.629 75.185 C 124.34 73.613 125.824 72.334 127.938 72.334 L 152.661 72.334 C 154.775 72.334 156.254 73.613 155.967 75.185 C 155.537 77.533 155.321 78.708 154.891 81.063 Z " fill="rgb(0,0,0)"/></g><g><path d=" M 103.768 81.063 C 103.481 82.628 101.755 83.907 99.921 83.907 L 78.433 83.907 C 76.595 83.907 74.876 82.628 74.588 81.063 C 74.158 78.708 73.935 77.533 73.504 75.185 C 73.216 73.613 74.701 72.334 76.815 72.334 L 101.538 72.334 C 103.652 72.334 105.131 73.613 104.844 75.185 C 104.414 77.533 104.198 78.708 103.768 81.063 Z " fill="rgb(0,0,0)"/></g><g><path d=" M 52.643 81.063 C 52.356 82.628 50.63 83.907 48.796 83.907 L 27.309 83.907 C 25.47 83.907 23.751 82.628 23.463 81.063 C 23.033 78.708 22.81 77.533 22.379 75.185 C 22.091 73.613 23.576 72.334 25.69 72.334 L 50.413 72.334 C 52.527 72.334 54.006 73.613 53.719 75.185 C 53.289 77.533 53.073 78.708 52.643 81.063 Z " fill="rgb(0,0,0)"/></g><g><linearGradient id="_lgradient_279" x1="0" y1="0.5" x2="6.123233995736766e-17" y2="-0.5" gradientTransform="matrix(97.599,0,0,97.599,158.401,8.004)" gradientUnits="userSpaceOnUse"><stop offset="0%" stop-opacity="1" style="stop-color:rgb(7,59,107)"/><stop offset="12.4%" stop-opacity="1" style="stop-color:rgb(7,59,107)"/><stop offset="100%" stop-opacity="1" style="stop-color:rgb(24,92,156)"/></linearGradient><path d=" M 158.401 56.803 C 158.401 83.754 180.249 105.603 207.201 105.603 C 234.152 105.603 256 83.754 256 56.803 C 256 29.852 234.152 8.004 207.201 8.004 C 180.249 8.004 158.401 29.852 158.401 56.803 Z " fill="url(#_lgradient_279)"/></g><g><linearGradient id="_lgradient_280" x1="0" y1="0.5" x2="6.123233995736766e-17" y2="-0.5" gradientTransform="matrix(26.486,0,0,33.224,193.957,12.14)" gradientUnits="userSpaceOnUse"><stop offset="0%" stop-opacity="1" style="stop-color:rgb(177,179,181)"/><stop offset="78.10000000000001%" stop-opacity="1" style="stop-color:rgb(219,220,222)"/><stop offset="100%" stop-opacity="1" style="stop-color:rgb(219,220,222)"/></linearGradient><path d=" M 193.957 33.684 L 201.413 33.684 L 201.413 45.364 L 212.988 45.364 L 212.988 33.684 L 220.443 33.684 L 207.201 12.14 L 193.957 33.684 Z " fill="url(#_lgradient_280)"/></g><g><linearGradient id="_lgradient_281" x1="0" y1="0.5" x2="6.123233995736766e-17" y2="-0.5" gradientTransform="matrix(26.486,0,0,33.224,193.957,68.243)" gradientUnits="userSpaceOnUse"><stop offset="0%" stop-opacity="1" style="stop-color:rgb(177,179,181)"/><stop offset="78.10000000000001%" stop-opacity="1" style="stop-color:rgb(219,220,222)"/><stop offset="100%" stop-opacity="1" style="stop-color:rgb(219,220,222)"/></linearGradient><path d=" M 201.413 68.243 L 201.413 79.923 L 193.957 79.923 L 207.201 101.467 L 220.443 79.923 L 212.988 79.923 L 212.988 68.243 L 201.413 68.243 Z " fill="url(#_lgradient_281)"/></g><g><linearGradient id="_lgradient_282" x1="0" y1="0.5" x2="6.123233995736766e-17" y2="-0.5" gradientTransform="matrix(33.225,0,0,26.486,162.536,43.56)" gradientUnits="userSpaceOnUse"><stop offset="0%" stop-opacity="1" style="stop-color:rgb(177,179,181)"/><stop offset="78.10000000000001%" stop-opacity="1" style="stop-color:rgb(219,220,222)"/><stop offset="100%" stop-opacity="1" style="stop-color:rgb(219,220,222)"/></linearGradient><path d=" M 162.536 56.803 L 184.081 70.046 L 184.081 62.591 L 195.761 62.591 L 195.761 51.016 L 184.081 51.016 L 184.081 43.56 L 162.536 56.803 Z " fill="url(#_lgradient_282)"/></g><g><linearGradient id="_lgradient_283" x1="0" y1="0.5" x2="6.123233995736766e-17" y2="-0.5" gradientTransform="matrix(33.223,0,0,26.486,218.641,43.56)" gradientUnits="userSpaceOnUse"><stop offset="0%" stop-opacity="1" style="stop-color:rgb(177,179,181)"/><stop offset="78.10000000000001%" stop-opacity="1" style="stop-color:rgb(219,220,222)"/><stop offset="100%" stop-opacity="1" style="stop-color:rgb(219,220,222)"/></linearGradient><path d=" M 230.32 51.016 L 218.641 51.016 L 218.641 62.591 L 230.32 62.591 L 230.32 70.046 L 251.864 56.803 L 230.32 43.56 L 230.32 51.016 Z " fill="url(#_lgradient_283)"/></g></g></g></svg>