<?xml version="1.0" encoding="UTF-8" standalone="no"?><!-- Generator: Gravit.io --><svg xmlns="http://www.w3.org/2000/svg" xmlns:xlink="http://www.w3.org/1999/xlink" style="isolation:isolate" viewBox="0 0 95.367 256" width="95.367pt" height="256pt"><defs><clipPath id="_clipPath_90ON15vUQWAC17fTvnDn3LbQT0HuQmOL"><rect width="95.367" height="256"/></clipPath></defs><g clip-path="url(#_clipPath_90ON15vUQWAC17fTvnDn3LbQT0HuQmOL)"><g><g><path d=" M 61.813 142.858 L 0.001 142.858 L 0.001 35.163 L 61.813 35.163 L 61.813 142.858 Z " fill="rgb(0,0,0)"/></g><g><linearGradient id="_lgradient_284" x1="0" y1="0.5" x2="1" y2="0.5" gradientTransform="matrix(95.367,0,0,256,0,0)" gradientUnits="userSpaceOnUse"><stop offset="0%" stop-opacity="1" style="stop-color:rgb(108,110,112)"/><stop offset="53.6%" stop-opacity="1" style="stop-color:rgb(63,62,64)"/><stop offset="100%" stop-opacity="1" style="stop-color:rgb(63,62,64)"/></linearGradient><path d=" M 1.895 0 C 0.86 0 0 0.847 0 1.895 L 0 35.163 L 61.812 35.163 L 61.812 41.545 L 0 41.545 L 0 68.93 L 61.812 68.93 L 61.812 75.312 L 0 75.312 L 0 102.709 L 61.812 102.709 L 61.812 109.091 L 0 109.091 L 0 136.476 L 61.812 136.476 L 61.812 142.858 L 0 142.858 L 0 254.093 C 0 255.152 0.86 256 1.895 256 L 93.473 256 C 94.52 256 95.367 255.152 95.367 254.093 L 95.367 1.895 C 95.367 0.847 94.52 0 93.473 0 L 1.895 0 Z " fill="url(#_lgradient_284)"/></g><g><path d=" M 95.367 41.545 L 63.881 41.545 L 63.881 35.163 L 95.367 35.163 L 95.367 41.545 Z " fill="rgb(38,170,225)"/></g><g><path d=" M 95.367 75.312 L 63.881 75.312 L 63.881 68.93 L 95.367 68.93 L 95.367 75.312 Z " fill="rgb(38,170,225)"/></g><g><path d=" M 95.367 109.091 L 63.881 109.091 L 63.881 102.709 L 95.367 102.709 L 95.367 109.091 Z " fill="rgb(38,170,225)"/></g><g><path d=" M 95.367 142.858 L 63.881 142.858 L 63.881 136.476 L 95.367 136.476 L 95.367 142.858 Z " fill="rgb(38,170,225)"/></g><g><path d=" M 95.367 247.275 L 0 247.275 L 0 240.893 L 95.367 240.893 L 95.367 247.275 Z " fill="rgb(0,0,0)"/></g></g></g></svg>