<?xml version="1.0" encoding="UTF-8" standalone="no"?><!-- Generator: Gravit.io --><svg xmlns="http://www.w3.org/2000/svg" xmlns:xlink="http://www.w3.org/1999/xlink" style="isolation:isolate" viewBox="0 0 256 116.946" width="256pt" height="116.946pt"><defs><clipPath id="_clipPath_sQzVJ4Wn8TE5kOznPHqesxHZ7q6GM51B"><rect width="256" height="116.946"/></clipPath></defs><g clip-path="url(#_clipPath_sQzVJ4Wn8TE5kOznPHqesxHZ7q6GM51B)"><g><g><linearGradient id="_lgradient_288" x1="0" y1="0.5" x2="6.123233995736766e-17" y2="1.5" gradientTransform="matrix(235.678,0,0,100.162,0,16.709)" gradientUnits="userSpaceOnUse"><stop offset="0%" stop-opacity="1" style="stop-color:rgb(219,220,222)"/><stop offset="37.8%" stop-opacity="1" style="stop-color:rgb(177,179,181)"/><stop offset="72.1%" stop-opacity="1" style="stop-color:rgb(219,220,222)"/><stop offset="100%" stop-opacity="1" style="stop-color:rgb(187,189,191)"/></linearGradient><path d=" M 203.304 16.709 L 197.432 16.709 L 172.222 16.709 L 166.346 16.709 L 141.122 16.709 L 135.245 16.709 L 110.035 16.709 L 104.159 16.709 L 1.758 16.709 C 0.78 16.709 0 17.608 0 18.694 L 0 114.885 C 0 115.98 0.78 116.871 1.758 116.871 L 233.935 116.871 C 234.898 116.871 235.678 115.98 235.678 114.885 L 235.678 18.694 C 235.678 17.608 234.898 16.709 233.935 16.709 L 203.304 16.709 Z " fill="url(#_lgradient_288)"/></g><g><linearGradient id="_lgradient_289" x1="0" y1="0.5" x2="6.123233995736766e-17" y2="1.5" gradientTransform="matrix(162.059,0,0,88.08,6.618,21.562)" gradientUnits="userSpaceOnUse"><stop offset="0%" stop-opacity="1" style="stop-color:rgb(108,110,112)"/><stop offset="53.6%" stop-opacity="1" style="stop-color:rgb(63,62,64)"/><stop offset="100%" stop-opacity="1" style="stop-color:rgb(63,62,64)"/></linearGradient><path d=" M 146.415 21.562 L 142.377 21.562 L 125.042 21.562 L 121.004 21.562 L 103.656 21.562 L 99.618 21.562 L 82.28 21.562 L 78.242 21.562 L 7.824 21.562 C 7.155 21.562 6.618 22.353 6.618 23.31 L 6.618 107.897 C 6.618 108.859 7.155 109.642 7.824 109.642 L 167.478 109.642 C 168.143 109.642 168.677 108.859 168.677 107.897 L 168.677 23.31 C 168.677 22.353 168.143 21.562 167.478 21.562 L 146.415 21.562 Z " fill="url(#_lgradient_289)"/></g><g><path d=" M 62.024 98.249 C 62.024 100.934 59.845 103.104 57.164 103.104 C 54.489 103.104 52.309 100.934 52.309 98.249 C 52.309 95.568 54.489 93.398 57.164 93.398 C 59.845 93.398 62.024 95.568 62.024 98.249 Z " fill="rgb(38,170,225)"/></g><g><path d=" M 74.893 98.249 C 74.893 100.934 72.709 103.104 70.042 103.104 C 67.371 103.104 65.187 100.934 65.187 98.249 C 65.187 95.568 67.371 93.398 70.042 93.398 C 72.709 93.398 74.893 95.568 74.893 98.249 Z " fill="rgb(38,170,225)"/></g><g><path d=" M 87.78 98.249 C 87.78 100.934 85.601 103.104 82.93 103.104 C 80.244 103.104 78.061 100.934 78.061 98.249 C 78.061 95.568 80.244 93.398 82.93 93.398 C 85.601 93.398 87.78 95.568 87.78 98.249 Z " fill="rgb(38,170,225)"/></g><g><path d=" M 101.038 98.249 C 101.038 100.934 98.854 103.104 96.173 103.104 C 93.502 103.104 91.319 100.934 91.319 98.249 C 91.319 95.568 93.502 93.398 96.173 93.398 C 98.854 93.398 101.038 95.568 101.038 98.249 Z " fill="rgb(38,170,225)"/></g><g><path d=" M 113.906 98.249 C 113.906 100.934 111.718 103.104 109.056 103.104 C 106.375 103.104 104.206 100.934 104.206 98.249 C 104.206 95.568 106.375 93.398 109.056 93.398 C 111.718 93.398 113.906 95.568 113.906 98.249 Z " fill="rgb(38,170,225)"/></g><g><path d=" M 126.775 98.249 C 126.775 100.934 124.61 103.104 121.924 103.104 C 119.239 103.104 117.07 100.934 117.07 98.249 C 117.07 95.568 119.239 93.398 121.924 93.398 C 124.61 93.398 126.775 95.568 126.775 98.249 Z " fill="rgb(38,170,225)"/></g><g><path d=" M 36.105 98.249 C 36.105 100.934 33.916 103.104 31.254 103.104 C 28.574 103.104 26.404 100.934 26.404 98.249 C 26.404 95.568 28.574 93.398 31.254 93.398 C 33.916 93.398 36.105 95.568 36.105 98.249 Z " fill="rgb(38,170,225)"/></g><g><path d=" M 48.973 98.249 C 48.973 100.934 46.803 103.104 44.118 103.104 C 41.437 103.104 39.267 100.934 39.267 98.249 C 39.267 95.568 41.437 93.398 44.118 93.398 C 46.803 93.398 48.973 95.568 48.973 98.249 Z " fill="rgb(38,170,225)"/></g><g><path d=" M 152.691 98.249 C 152.691 100.934 150.517 103.104 147.831 103.104 C 145.155 103.104 142.981 100.934 142.981 98.249 C 142.981 95.568 145.155 93.398 147.831 93.398 C 150.517 93.398 152.691 95.568 152.691 98.249 Z " fill="rgb(38,170,225)"/></g><g><path d=" M 139.639 98.249 C 139.639 100.934 137.47 103.104 134.789 103.104 C 132.103 103.104 129.939 100.934 129.939 98.249 C 129.939 95.568 132.103 93.398 134.789 93.398 C 137.47 93.398 139.639 95.568 139.639 98.249 Z " fill="rgb(38,170,225)"/></g><g><linearGradient id="_lgradient_290" x1="0" y1="0.5" x2="0.9397620157418637" y2="0.8418294220350103" gradientTransform="matrix(74.718,0,0,48.494,83.447,29.566)" gradientUnits="userSpaceOnUse"><stop offset="0%" stop-opacity="1" style="stop-color:rgb(30,144,206)"/><stop offset="22.153999999999996%" stop-opacity="1" style="stop-color:rgb(110,190,233)"/><stop offset="66.5984%" stop-opacity="1" style="stop-color:rgb(26,142,205)"/><stop offset="100%" stop-opacity="1" style="stop-color:rgb(26,142,205)"/></linearGradient><path d=" M 83.447 78.06 L 158.165 78.06 L 158.165 29.566 L 83.447 29.566 L 83.447 78.06 Z " fill="url(#_lgradient_290)"/></g><g><path d=" M 47.531 38.93 L 37.694 29.089 L 27.862 38.93 L 47.531 38.93 Z " fill="rgb(38,170,225)"/></g><g><path d=" M 27.862 69.578 L 37.695 79.411 L 47.531 69.578 L 27.862 69.578 Z " fill="rgb(38,170,225)"/></g><g><path d=" M 53.022 64.086 L 62.85 54.254 L 53.022 44.421 L 53.022 64.086 Z " fill="rgb(38,170,225)"/></g><g><path d=" M 22.371 44.421 L 12.538 54.254 L 22.371 64.086 L 22.371 44.421 Z " fill="rgb(38,170,225)"/></g><g><path d=" M 47.531 54.254 C 47.531 59.685 43.125 64.086 37.694 64.086 C 32.263 64.086 27.862 59.685 27.862 54.254 C 27.862 48.823 32.263 44.421 37.694 44.421 C 43.125 44.421 47.531 48.823 47.531 54.254 Z " fill="rgb(38,170,225)"/></g><g><linearGradient id="_lgradient_291" x1="0" y1="0.5" x2="1" y2="0.5" gradientTransform="matrix(18.438,0,0,53.379,177.602,6.843)" gradientUnits="userSpaceOnUse"><stop offset="0%" stop-opacity="1" style="stop-color:rgb(108,110,112)"/><stop offset="53.6%" stop-opacity="1" style="stop-color:rgb(63,62,64)"/><stop offset="100%" stop-opacity="1" style="stop-color:rgb(63,62,64)"/></linearGradient><path d=" M 186.281 6.843 C 181.507 6.843 177.602 10.749 177.602 15.522 L 183.458 51.542 C 183.458 56.316 187.363 60.222 192.136 60.222 L 192.822 60.222 C 197.596 60.222 195.646 56.316 195.646 51.542 L 195.646 15.522 C 195.646 10.749 191.74 6.843 186.966 6.843 L 186.281 6.843 Z " fill="url(#_lgradient_291)"/></g><g><linearGradient id="_lgradient_292" x1="0" y1="0.5" x2="1" y2="0.5" gradientTransform="matrix(69.113,0,0,91.325,186.887,0)" gradientUnits="userSpaceOnUse"><stop offset="0%" stop-opacity="1" style="stop-color:rgb(108,110,112)"/><stop offset="53.6%" stop-opacity="1" style="stop-color:rgb(63,62,64)"/><stop offset="100%" stop-opacity="1" style="stop-color:rgb(63,62,64)"/></linearGradient><path d=" M 195.565 0 C 190.793 0 186.887 3.905 186.887 8.679 L 186.887 45.422 L 194.752 82.646 C 194.752 87.42 198.657 91.325 203.431 91.325 L 241.53 91.325 C 246.304 91.325 250.209 87.42 250.209 82.646 L 256 45.422 L 256 8.679 C 256 3.905 252.094 0 247.321 0 L 195.565 0 Z " fill="url(#_lgradient_292)"/></g><g><path d=" M 203.591 55.482 L 197.361 55.482 C 197.002 55.482 196.709 55.189 196.709 54.83 L 196.709 10.023 C 196.709 9.664 197.002 9.371 197.361 9.371 L 203.591 9.371 C 203.95 9.371 204.243 9.664 204.243 10.023 L 204.243 54.83 C 204.243 55.189 203.95 55.482 203.591 55.482 Z " fill="rgb(35,31,32)"/></g><g><path d=" M 214.075 55.482 L 207.845 55.482 C 207.486 55.482 207.193 55.189 207.193 54.83 L 207.193 10.023 C 207.193 9.664 207.486 9.371 207.845 9.371 L 214.075 9.371 C 214.433 9.371 214.727 9.664 214.727 10.023 L 214.727 54.83 C 214.727 55.189 214.433 55.482 214.075 55.482 Z " fill="rgb(35,31,32)"/></g><g><path d=" M 224.559 55.482 L 218.329 55.482 C 217.97 55.482 217.677 55.189 217.677 54.83 L 217.677 10.023 C 217.677 9.664 217.97 9.371 218.329 9.371 L 224.559 9.371 C 224.917 9.371 225.211 9.664 225.211 10.023 L 225.211 54.83 C 225.211 55.189 224.917 55.482 224.559 55.482 Z " fill="rgb(35,31,32)"/></g><g><path d=" M 235.042 55.482 L 228.812 55.482 C 228.453 55.482 228.16 55.189 228.16 54.83 L 228.16 10.023 C 228.16 9.664 228.453 9.371 228.812 9.371 L 235.042 9.371 C 235.4 9.371 235.694 9.664 235.694 10.023 L 235.694 54.83 C 235.694 55.189 235.4 55.482 235.042 55.482 Z " fill="rgb(35,31,32)"/></g><g><path d=" M 245.526 55.482 L 239.296 55.482 C 238.937 55.482 238.644 55.189 238.644 54.83 L 238.644 10.023 C 238.644 9.664 238.937 9.371 239.296 9.371 L 245.526 9.371 C 245.884 9.371 246.178 9.664 246.178 10.023 L 246.178 54.83 C 246.178 55.189 245.884 55.482 245.526 55.482 Z " fill="rgb(35,31,32)"/></g><g><path d=" M 228.382 93.695 L 217.389 104.688 C 217.281 104.796 217.103 104.796 216.995 104.688 L 214.889 102.583 C 214.781 102.474 214.781 102.297 214.889 102.188 L 225.882 91.195 C 225.991 91.087 226.168 91.087 226.277 91.195 L 228.382 93.301 C 228.49 93.409 228.49 93.587 228.382 93.695 Z " fill="rgb(35,31,32)"/></g><g><path d=" M 228.382 99.783 L 217.389 110.776 C 217.281 110.884 217.103 110.884 216.995 110.776 L 214.889 108.671 C 214.781 108.562 214.781 108.385 214.889 108.276 L 225.882 97.283 C 225.991 97.175 226.168 97.175 226.277 97.283 L 228.382 99.389 C 228.49 99.497 228.49 99.675 228.382 99.783 Z " fill="rgb(35,31,32)"/></g><g><path d=" M 228.382 105.872 L 217.389 116.865 C 217.281 116.973 217.103 116.973 216.995 116.865 L 214.889 114.76 C 214.781 114.651 214.781 114.474 214.889 114.365 L 225.882 103.372 C 225.991 103.264 226.168 103.264 226.277 103.372 L 228.382 105.478 C 228.49 105.586 228.49 105.764 228.382 105.872 Z " fill="rgb(35,31,32)"/></g><g><path d=" M 219.469 91.61 L 215.942 95.137 C 215.254 95.825 215.254 96.95 215.942 97.637 C 216.629 98.324 217.754 98.324 218.441 97.637 L 224.468 91.61 L 219.469 91.61 Z " fill="rgb(35,31,32)"/></g></g></g></svg>