<?xml version="1.0" encoding="UTF-8" standalone="no"?><!-- Generator: Gravit.io --><svg xmlns="http://www.w3.org/2000/svg" xmlns:xlink="http://www.w3.org/1999/xlink" style="isolation:isolate" viewBox="0 0 256 97.712" width="256pt" height="97.712pt"><defs><clipPath id="_clipPath_Fm8n7WfgmDmsBDFPV3NI8dO0EpkByDV1"><rect width="256" height="97.712"/></clipPath></defs><g clip-path="url(#_clipPath_Fm8n7WfgmDmsBDFPV3NI8dO0EpkByDV1)"><g><g><linearGradient id="_lgradient_293" x1="0" y1="0.5" x2="6.123233995736766e-17" y2="-0.5" gradientTransform="matrix(179.368,0,0,64.247,0,32.906)" gradientUnits="userSpaceOnUse"><stop offset="0%" stop-opacity="1" style="stop-color:rgb(76,76,78)"/><stop offset="24.9%" stop-opacity="1" style="stop-color:rgb(98,99,102)"/><stop offset="100%" stop-opacity="1" style="stop-color:rgb(49,47,49)"/></linearGradient><path d=" M 0 32.906 L 0 93.421 L 10.419 93.421 L 12.045 96.562 L 27.637 96.562 L 28.844 93.421 L 150.45 93.421 L 151.904 97.153 L 167.447 97.153 L 169.368 93.421 L 179.368 93.421 L 179.368 32.906 L 0 32.906 Z " fill="url(#_lgradient_293)"/></g><g><linearGradient id="_lgradient_294" x1="0" y1="0.5" x2="1" y2="0.5" gradientTransform="matrix(18.425,0,0,3.14,10.422,93.422)" gradientUnits="userSpaceOnUse"><stop offset="0%" stop-opacity="1" style="stop-color:rgb(34,31,32)"/><stop offset="50.2%" stop-opacity="1" style="stop-color:rgb(69,68,70)"/><stop offset="100%" stop-opacity="1" style="stop-color:rgb(34,31,32)"/></linearGradient><path d=" M 12.048 96.562 L 27.64 96.562 L 28.847 93.422 L 10.422 93.422 L 12.048 96.562 Z " fill="url(#_lgradient_294)"/></g><g><linearGradient id="_lgradient_295" x1="0" y1="0.5" x2="1" y2="0.5" gradientTransform="matrix(18.917,0,0,3.731,150.457,93.422)" gradientUnits="userSpaceOnUse"><stop offset="0%" stop-opacity="1" style="stop-color:rgb(34,31,32)"/><stop offset="50.2%" stop-opacity="1" style="stop-color:rgb(69,68,70)"/><stop offset="100%" stop-opacity="1" style="stop-color:rgb(34,31,32)"/></linearGradient><path d=" M 151.91 97.153 L 167.453 97.153 L 169.374 93.422 L 150.457 93.422 L 151.91 97.153 Z " fill="url(#_lgradient_295)"/></g><g><path d=" M 164.573 80.151 C 162.862 80.151 161.469 64.479 161.469 58.315 C 161.469 52.163 162.862 47.169 164.573 47.169 C 166.311 47.169 167.702 58.487 167.702 64.639 C 167.702 70.803 166.311 80.151 164.573 80.151 Z " fill="rgb(35,31,32)"/></g><g><path d=" M 16.906 80.151 C 15.197 80.151 13.802 70.803 13.802 64.639 C 13.802 58.487 15.197 47.169 16.906 47.169 C 18.643 47.169 20.037 52.163 20.037 58.315 C 20.037 64.479 18.643 80.151 16.906 80.151 Z " fill="rgb(35,31,32)"/></g><g><linearGradient id="_lgradient_296" x1="0" y1="0.5" x2="1" y2="0.5" gradientTransform="matrix(148.178,0,0,32.711,16.906,47.292)" gradientUnits="userSpaceOnUse"><stop offset="0%" stop-opacity="1" style="stop-color:rgb(187,189,191)"/><stop offset="50.2%" stop-opacity="1" style="stop-color:rgb(230,231,232)"/><stop offset="100%" stop-opacity="1" style="stop-color:rgb(219,220,222)"/></linearGradient><path d=" M 16.906 80.003 L 165.084 80.003 L 165.084 47.292 L 16.906 47.292 L 16.906 80.003 Z " fill="url(#_lgradient_296)"/></g><g><path d=" M 51.371 69.276 L 45.61 69.276 L 45.61 72.663 L 43.073 72.663 L 43.073 76.216 L 32.934 76.216 L 32.934 72.663 L 30.243 72.663 L 30.243 69.276 L 25.332 69.276 L 25.332 53.062 L 51.371 53.062 L 51.371 69.276 Z " fill="rgb(35,31,32)"/></g><g><path d=" M 85.489 69.276 L 79.729 69.276 L 79.729 72.663 L 77.194 72.663 L 77.194 76.216 L 67.055 76.216 L 67.055 72.663 L 64.361 72.663 L 64.361 69.276 L 59.453 69.276 L 59.453 53.062 L 85.489 53.062 L 85.489 69.276 Z " fill="rgb(35,31,32)"/></g><g><path d=" M 119.589 69.276 L 113.828 69.276 L 113.828 72.663 L 111.291 72.663 L 111.291 76.216 L 101.146 76.216 L 101.146 72.663 L 98.451 72.663 L 98.451 69.276 L 93.544 69.276 L 93.544 53.062 L 119.589 53.062 L 119.589 69.276 Z " fill="rgb(35,31,32)"/></g><g><path d=" M 154.037 69.279 L 148.28 69.279 L 148.28 72.666 L 145.742 72.666 L 145.742 76.219 L 135.597 76.219 L 135.597 72.666 L 132.897 72.666 L 132.897 69.279 L 127.995 69.279 L 127.995 53.059 L 154.037 53.059 L 154.037 69.279 Z " fill="rgb(35,31,32)"/></g><g><linearGradient id="_lgradient_297" x1="0" y1="0.5" x2="6.123233995736766e-17" y2="-0.5" gradientTransform="matrix(97.713,0,0,97.712,158.287,0)" gradientUnits="userSpaceOnUse"><stop offset="0%" stop-opacity="1" style="stop-color:rgb(7,59,107)"/><stop offset="12.4%" stop-opacity="1" style="stop-color:rgb(7,59,107)"/><stop offset="100%" stop-opacity="1" style="stop-color:rgb(24,92,156)"/></linearGradient><path d=" M 158.287 48.856 C 158.287 75.838 180.161 97.712 207.144 97.712 C 234.126 97.712 256 75.838 256 48.856 C 256 21.873 234.126 0 207.144 0 C 180.161 0 158.287 21.873 158.287 48.856 Z " fill="url(#_lgradient_297)"/></g><g><linearGradient id="_lgradient_298" x1="0" y1="0.5" x2="6.123233995736766e-17" y2="-0.5" gradientTransform="matrix(26.517,0,0,33.262,193.885,4.141)" gradientUnits="userSpaceOnUse"><stop offset="0%" stop-opacity="1" style="stop-color:rgb(177,179,181)"/><stop offset="78.10000000000001%" stop-opacity="1" style="stop-color:rgb(219,220,222)"/><stop offset="100%" stop-opacity="1" style="stop-color:rgb(219,220,222)"/></linearGradient><path d=" M 193.885 25.71 L 201.346 25.71 L 201.346 37.403 L 212.942 37.403 L 212.942 25.71 L 220.402 25.71 L 207.144 4.141 L 193.885 25.71 Z " fill="url(#_lgradient_298)"/></g><g><linearGradient id="_lgradient_299" x1="0" y1="0.5" x2="6.123233995736766e-17" y2="-0.5" gradientTransform="matrix(26.517,0,0,33.263,193.885,60.309)" gradientUnits="userSpaceOnUse"><stop offset="0%" stop-opacity="1" style="stop-color:rgb(177,179,181)"/><stop offset="78.10000000000001%" stop-opacity="1" style="stop-color:rgb(219,220,222)"/><stop offset="100%" stop-opacity="1" style="stop-color:rgb(219,220,222)"/></linearGradient><path d=" M 201.346 60.309 L 201.346 72.002 L 193.885 72.002 L 207.144 93.572 L 220.402 72.002 L 212.942 72.002 L 212.942 60.309 L 201.346 60.309 Z " fill="url(#_lgradient_299)"/></g><g><linearGradient id="_lgradient_300" x1="0" y1="0.5" x2="6.123233995736766e-17" y2="-0.5" gradientTransform="matrix(33.263,0,0,26.517,162.428,35.597)" gradientUnits="userSpaceOnUse"><stop offset="0%" stop-opacity="1" style="stop-color:rgb(177,179,181)"/><stop offset="78.10000000000001%" stop-opacity="1" style="stop-color:rgb(219,220,222)"/><stop offset="100%" stop-opacity="1" style="stop-color:rgb(219,220,222)"/></linearGradient><path d=" M 162.428 48.856 L 183.998 62.114 L 183.998 54.654 L 195.691 54.654 L 195.691 43.058 L 183.998 43.058 L 183.998 35.597 L 162.428 48.856 Z " fill="url(#_lgradient_300)"/></g><g><linearGradient id="_lgradient_301" x1="0" y1="0.5" x2="6.123233995736766e-17" y2="-0.5" gradientTransform="matrix(33.264,0,0,26.517,218.596,35.597)" gradientUnits="userSpaceOnUse"><stop offset="0%" stop-opacity="1" style="stop-color:rgb(177,179,181)"/><stop offset="78.10000000000001%" stop-opacity="1" style="stop-color:rgb(219,220,222)"/><stop offset="100%" stop-opacity="1" style="stop-color:rgb(219,220,222)"/></linearGradient><path d=" M 230.29 43.058 L 218.596 43.058 L 218.596 54.654 L 230.29 54.654 L 230.29 62.114 L 251.86 48.856 L 230.29 35.597 L 230.29 43.058 Z " fill="url(#_lgradient_301)"/></g></g></g></svg>