<?xml version="1.0" encoding="UTF-8" standalone="no"?><!-- Generator: Gravit.io --><svg xmlns="http://www.w3.org/2000/svg" xmlns:xlink="http://www.w3.org/1999/xlink" style="isolation:isolate" viewBox="0 0 256 182.085" width="256pt" height="182.085pt"><defs><clipPath id="_clipPath_wBrZV8a4P0hculFgRc5sdyAhABULeOAk"><rect width="256" height="182.085"/></clipPath></defs><g clip-path="url(#_clipPath_wBrZV8a4P0hculFgRc5sdyAhABULeOAk)"><g><g><radialGradient id="_rgradient_28" fx="0.5" fy="0.5" cx="0.5" cy="0.5" r="0.561" gradientTransform="matrix(147.661,0,0,182.085,0,0)" gradientUnits="userSpaceOnUse"><stop offset="0%" stop-opacity="1" style="stop-color:rgb(98,99,102)"/><stop offset="24.9%" stop-opacity="1" style="stop-color:rgb(98,99,102)"/><stop offset="100%" stop-opacity="1" style="stop-color:rgb(49,47,49)"/></radialGradient><path d=" M 62.029 11.663 C 62.029 11.686 62.035 11.706 62.035 11.729 L 61.881 12.34 C 61.78 12.741 51.653 52.736 39.591 83.6 C 37.202 89.715 34.26 96.686 30.849 104.322 C 17.428 134.358 0.674 165.831 0.506 166.145 C 0.167 166.781 0.004 167.463 0 168.137 L 0 168.182 C 0.007 169.711 0.832 171.187 2.275 171.957 C 4.143 172.954 6.414 172.42 7.674 170.803 C 8.134 170.678 8.585 170.487 9.009 170.218 C 20.707 162.796 32.953 154.103 45.129 145.227 C 49.731 151.857 54.644 158.336 59.49 164.721 C 62.966 169.301 66.251 173.633 69.387 177.97 C 69.484 180.257 71.354 182.085 73.664 182.085 C 73.723 182.085 73.777 182.066 73.831 182.052 C 73.889 182.055 73.938 182.085 73.996 182.085 C 76.307 182.085 78.178 180.257 78.274 177.97 C 81.41 173.633 84.695 169.301 88.171 164.722 C 93.018 158.336 97.93 151.857 102.533 145.227 C 114.709 154.104 126.955 162.796 138.652 170.218 C 139.076 170.487 139.527 170.678 139.987 170.804 C 141.247 172.42 143.518 172.954 145.386 171.957 C 147.479 170.841 148.271 168.238 147.155 166.145 C 146.988 165.831 130.234 134.359 116.812 104.322 C 113.401 96.686 110.46 89.715 108.07 83.601 C 96.008 52.736 85.882 12.741 85.78 12.34 L 85.183 9.969 C 84.357 4.338 79.552 0 73.691 0 C 67.251 0 62.029 5.222 62.029 11.663 Z  M 78.292 54.09 L 78.292 22.377 C 78.675 22.212 79.022 21.988 79.383 21.785 C 81.182 28.472 84.124 39.064 87.808 51.009 C 87.548 51.334 87.312 51.683 87.136 52.081 C 86.092 54.455 85.041 56.74 83.986 58.979 C 82.132 57.284 80.238 55.639 78.292 54.09 Z  M 60.525 52.081 C 60.35 51.683 60.114 51.333 59.854 51.009 C 63.512 39.143 66.441 28.611 68.243 21.916 C 68.613 22.114 68.976 22.32 69.368 22.477 L 69.368 54.09 C 67.424 55.639 65.529 57.284 63.675 58.979 C 62.62 56.74 61.57 54.455 60.525 52.081 Z  M 81.914 83.738 C 83.559 80.992 85.174 78.143 86.764 75.183 C 89.233 77.589 91.642 79.889 94.067 81.998 C 92.824 84.833 91.466 87.597 90.014 90.313 C 87.347 88.135 84.641 85.932 81.914 83.738 Z  M 53.594 81.998 C 56.02 79.889 58.427 77.589 60.896 75.183 C 62.487 78.143 64.102 80.991 65.747 83.737 C 63.021 85.932 60.315 88.134 57.649 90.313 C 56.195 87.597 54.837 84.833 53.594 81.998 Z  M 97.708 96.591 C 98.947 94.342 100.134 92.055 101.257 89.724 C 103.068 94.235 105.138 99.142 107.443 104.383 C 104.167 101.803 100.916 99.2 97.708 96.591 Z  M 46.404 89.724 C 47.527 92.054 48.714 94.342 49.954 96.591 C 46.746 99.2 43.494 101.803 40.218 104.383 C 42.523 99.141 44.594 94.235 46.404 89.724 Z  M 78.292 93.361 C 80.574 95.21 82.84 97.06 85.074 98.886 C 82.913 102.41 80.635 105.907 78.292 109.437 L 78.292 93.361 Z  M 62.587 98.886 C 64.822 97.059 67.086 95.21 69.368 93.361 L 69.368 109.437 C 67.026 105.907 64.748 102.41 62.587 98.886 Z  M 94.762 127.419 C 90.892 124.569 87.177 121.836 83.535 119.175 C 83.562 119.136 83.588 119.095 83.615 119.056 C 86.664 114.492 89.752 109.864 92.703 105.102 C 97.682 109.142 102.765 113.176 107.928 117.099 C 105.657 121.895 102.984 126.629 100.046 131.305 C 98.28 130.007 96.517 128.71 94.762 127.419 Z  M 39.732 117.099 C 44.896 113.176 49.979 109.142 54.958 105.102 C 57.91 109.864 60.997 114.492 64.046 119.055 C 64.073 119.095 64.099 119.136 64.126 119.175 C 60.484 121.836 56.769 124.569 52.899 127.418 C 51.144 128.71 49.381 130.007 47.615 131.305 C 44.677 126.629 42.004 121.895 39.732 117.099 Z  M 107.941 137.088 C 110.866 132.473 113.576 127.777 115.941 122.976 C 121.281 134.287 126.615 145.005 130.864 153.367 C 123.318 148.208 115.62 142.689 107.941 137.088 Z  M 31.721 122.976 C 34.086 127.777 36.796 132.473 39.72 137.088 C 32.041 142.688 24.344 148.208 16.798 153.367 C 21.046 145.005 26.381 134.287 31.721 122.976 Z  M 78.292 127.436 C 81.757 129.969 85.295 132.572 88.975 135.28 C 90.86 136.669 92.754 138.063 94.652 139.457 C 90.111 146.015 85.217 152.465 80.394 158.819 C 79.698 159.737 78.995 160.664 78.292 161.591 L 78.292 127.436 Z  M 67.267 158.819 C 62.444 152.465 57.551 146.015 53.009 139.457 C 54.907 138.063 56.801 136.669 58.686 135.28 C 62.366 132.572 65.903 129.969 69.368 127.436 L 69.368 161.591 C 68.666 160.664 67.964 159.737 67.267 158.819 Z " fill="url(#_rgradient_28)"/></g><g><linearGradient id="_lgradient_306" x1="0" y1="0.5" x2="0.9979003609458797" y2="0.5647678131797185" gradientTransform="matrix(82.085,0,0,71.855,105.31,20.438)" gradientUnits="userSpaceOnUse"><stop offset="0%" stop-opacity="1" style="stop-color:rgb(26,142,205)"/><stop offset="23.174000000000003%" stop-opacity="1" style="stop-color:rgb(26,142,205)"/><stop offset="65.99040000000001%" stop-opacity="1" style="stop-color:rgb(110,190,233)"/><stop offset="100%" stop-opacity="1" style="stop-color:rgb(30,144,206)"/></linearGradient><path d=" M 142.195 47.291 L 137.176 71.647 L 187.395 92.293 L 151.196 67.063 L 155.6 44.14 L 105.31 20.438 L 142.195 47.291 Z " fill="url(#_lgradient_306)"/></g><g><path d=" M 256 178.863 C 256 180.607 254.584 182.023 252.838 182.023 L 202.715 182.023 C 200.971 182.023 199.555 180.607 199.555 178.863 L 199.555 84.308 C 199.555 82.562 200.971 81.146 202.715 81.146 L 252.838 81.146 C 254.584 81.146 256 82.562 256 84.308 L 256 178.863 Z " fill="rgb(0,0,0)"/></g><g><linearGradient id="_lgradient_307" x1="0" y1="0.5" x2="0.9398411146533178" y2="0.8416118838787803" gradientTransform="matrix(50.072,0,0,76.82,202.742,90.012)" gradientUnits="userSpaceOnUse"><stop offset="0%" stop-opacity="1" style="stop-color:rgb(37,149,209)"/><stop offset="14.912000000000013%" stop-opacity="1" style="stop-color:rgb(110,190,233)"/><stop offset="70.91520000000001%" stop-opacity="1" style="stop-color:rgb(26,142,205)"/><stop offset="100%" stop-opacity="1" style="stop-color:rgb(26,142,205)"/></linearGradient><path d=" M 202.742 166.832 L 252.814 166.832 L 252.814 90.012 L 202.742 90.012 L 202.742 166.832 Z " fill="url(#_lgradient_307)"/></g><g><path d=" M 227.776 169.999 C 225.466 169.999 223.592 171.873 223.592 174.186 C 223.592 176.498 225.466 178.373 227.776 178.373 C 230.091 178.373 231.963 176.498 231.963 174.186 C 231.963 171.873 230.091 169.999 227.776 169.999 Z " fill="rgb(38,170,225)"/></g></g></g></svg>