<?xml version="1.0" encoding="UTF-8" standalone="no"?><!-- Generator: Gravit.io --><svg xmlns="http://www.w3.org/2000/svg" xmlns:xlink="http://www.w3.org/1999/xlink" style="isolation:isolate" viewBox="0 0 165.812 256.463" width="165.812pt" height="256.463pt"><defs><clipPath id="_clipPath_Mrw0vzqx5wElSu80uDyFLyoJGXVqNA48"><rect width="165.812" height="256.463"/></clipPath></defs><g clip-path="url(#_clipPath_Mrw0vzqx5wElSu80uDyFLyoJGXVqNA48)"><g><g><path d=" M 61.812 142.395 L 0 142.395 L 0 34.7 L 61.812 34.7 L 61.812 142.395 Z " fill="rgb(0,0,0)"/></g><g><linearGradient id="_lgradient_308" x1="0" y1="0.5" x2="1" y2="0.5" gradientTransform="matrix(95.367,0,0,255.536,0,0)" gradientUnits="userSpaceOnUse"><stop offset="0%" stop-opacity="1" style="stop-color:rgb(108,110,112)"/><stop offset="53.6%" stop-opacity="1" style="stop-color:rgb(63,62,64)"/><stop offset="100%" stop-opacity="1" style="stop-color:rgb(63,62,64)"/></linearGradient><path d=" M 0.657 0 C 0.256 0.348 0 0.86 0 1.431 L 0 34.7 L 61.812 34.7 L 61.812 41.082 L 0 41.082 L 0 68.467 L 61.812 68.467 L 61.812 74.849 L 0 74.849 L 0 102.246 L 61.812 102.246 L 61.812 108.628 L 0 108.628 L 0 136.013 L 61.812 136.013 L 61.812 142.395 L 0 142.395 L 0 253.629 C 0 254.69 0.86 255.536 1.894 255.536 L 93.473 255.536 C 94.519 255.536 95.367 254.69 95.367 253.629 L 95.367 1.431 C 95.367 0.86 95.114 0.348 94.715 0 L 0.657 0 Z " fill="url(#_lgradient_308)"/></g><g><path d=" M 95.367 41.082 L 63.881 41.082 L 63.881 34.7 L 95.367 34.7 L 95.367 41.082 Z " fill="rgb(38,170,225)"/></g><g><path d=" M 95.367 74.849 L 63.881 74.849 L 63.881 68.467 L 95.367 68.467 L 95.367 74.849 Z " fill="rgb(38,170,225)"/></g><g><path d=" M 95.367 108.627 L 63.881 108.627 L 63.881 102.245 L 95.367 102.245 L 95.367 108.627 Z " fill="rgb(38,170,225)"/></g><g><path d=" M 95.367 142.395 L 63.881 142.395 L 63.881 136.013 L 95.367 136.013 L 95.367 142.395 Z " fill="rgb(38,170,225)"/></g><g><path d=" M 124.272 253.979 L 100.977 253.979 L 100.977 244.093 L 124.272 244.093 L 124.272 253.979 Z " fill="rgb(1,3,5)"/></g><g><path d=" M 165.812 245.483 L 59.441 245.483 L 59.441 174.599 L 165.812 174.599 L 165.812 245.483 Z " fill="rgb(1,3,5)"/></g><g><linearGradient id="_lgradient_309" x1="0" y1="0.5" x2="0.9396267887624234" y2="0.8422009611909589" gradientTransform="matrix(100.203,0,0,65.328,62.525,177.404)" gradientUnits="userSpaceOnUse"><stop offset="0%" stop-opacity="1" style="stop-color:rgb(30,144,206)"/><stop offset="22.153999999999996%" stop-opacity="1" style="stop-color:rgb(110,190,233)"/><stop offset="66.5984%" stop-opacity="1" style="stop-color:rgb(26,142,205)"/><stop offset="100%" stop-opacity="1" style="stop-color:rgb(26,142,205)"/></linearGradient><path d=" M 62.525 242.732 L 162.728 242.732 L 162.728 177.404 L 62.525 177.404 L 62.525 242.732 Z " fill="url(#_lgradient_309)"/></g><g><path d=" M 136.571 256.463 L 88.684 256.463 L 88.684 251.492 L 136.571 251.492 L 136.571 256.463 Z " fill="rgb(1,3,5)"/></g><g><path d=" M 81.012 253.667 L 54.794 253.667 L 54.794 242.54 L 81.012 242.54 L 81.012 253.667 Z " fill="rgb(1,3,5)"/></g><g><path d=" M 127.764 244.105 L 8.048 244.105 L 8.048 164.328 L 127.764 164.328 L 127.764 244.105 Z " fill="rgb(1,3,5)"/></g><g><linearGradient id="_lgradient_310" x1="0" y1="0.5" x2="0.939626862734877" y2="0.8422007580748655" gradientTransform="matrix(112.776,0,0,73.525,11.518,167.485)" gradientUnits="userSpaceOnUse"><stop offset="0%" stop-opacity="1" style="stop-color:rgb(30,144,206)"/><stop offset="22.153999999999993%" stop-opacity="1" style="stop-color:rgb(110,190,233)"/><stop offset="66.5984%" stop-opacity="1" style="stop-color:rgb(26,142,205)"/><stop offset="100%" stop-opacity="1" style="stop-color:rgb(26,142,205)"/></linearGradient><path d=" M 11.518 241.01 L 124.294 241.01 L 124.294 167.485 L 11.518 167.485 L 11.518 241.01 Z " fill="url(#_lgradient_310)"/></g><g><path d=" M 94.854 256.463 L 40.959 256.463 L 40.959 250.869 L 94.854 250.869 L 94.854 256.463 Z " fill="rgb(1,3,5)"/></g></g></g></svg>