<?xml version="1.0" encoding="UTF-8" standalone="no"?><!-- Generator: Gravit.io --><svg xmlns="http://www.w3.org/2000/svg" xmlns:xlink="http://www.w3.org/1999/xlink" style="isolation:isolate" viewBox="0 0 256 181.052" width="256pt" height="181.052pt"><defs><clipPath id="_clipPath_iSigoxYZp90OQympiKciljMiO70iVgai"><rect width="256" height="181.052"/></clipPath></defs><g clip-path="url(#_clipPath_iSigoxYZp90OQympiKciljMiO70iVgai)"><g><g><path d=" M 256 146.141 L 198.448 33.601 C 177.704 38.739 153.649 41.677 128 41.677 C 102.351 41.677 78.296 38.739 57.551 33.601 L 28.921 89.082 L 0 146.141 C 22.676 166.776 71.463 181.052 128 181.052 C 184.537 181.052 233.324 166.776 256 146.141 Z " fill="rgb(35,31,32)"/></g><g><path d=" M 185.413 8.592 L 180.983 0.034 C 164.617 2.882 146.738 4.456 128 4.456 C 109.187 4.456 91.239 2.87 74.819 0 L 70.41 8.558 C 88.003 11.937 107.491 13.817 128 13.817 C 148.44 13.817 167.867 11.95 185.413 8.592 Z " fill="rgb(35,31,32)"/></g><g><path d=" M 128 23.178 C 105.777 23.178 84.752 20.971 66.04 17.04 L 61.706 25.451 C 81.482 29.975 104.045 32.539 128 32.539 C 151.899 32.539 174.414 29.988 194.157 25.483 L 189.803 17.072 C 171.13 20.983 150.161 23.178 128 23.178 Z " fill="rgb(35,31,32)"/></g><g><path d=" M 210.026 78.031 C 202.481 68.081 193.111 60.502 179.892 60.508 C 169.499 60.513 161.148 64.723 154.784 72.09 C 152.015 72.091 149.642 72.101 149.161 72.422 C 148.255 73.027 149.261 76.55 147.348 77.658 C 145.435 78.765 142.599 79.269 142.406 80.276 C 142.213 81.282 142.515 83.598 141.711 84.404 C 141.562 84.552 141.507 84.838 141.514 85.211 C 136.18 88.737 135.174 93.084 137.562 100.084 C 138.689 103.386 140.252 106.592 140.918 109.979 C 141.272 111.778 140.709 114.529 139.473 115.611 C 138.574 116.398 135.795 115.422 134.048 114.735 C 132.761 114.229 131.755 112.959 130.682 111.966 C 128.644 110.081 128.205 108.661 131.076 106.736 C 132.433 105.826 133.418 102.991 133.076 101.337 C 132.793 99.966 130.405 98.255 128.796 98.075 C 123.407 97.473 118.611 99.446 114.693 103.13 C 112.348 105.334 112.069 109.023 114.067 111.546 C 116.087 114.095 118.568 116.276 120.662 118.774 C 121.434 119.695 121.682 121.056 122.169 122.217 C 120.898 122.45 119.391 123.238 118.4 122.815 C 115.228 121.463 111.889 120.098 109.266 117.945 C 103.413 113.143 99.91 106.686 98.542 99.256 C 97.395 93.025 93.79 89.14 87.749 88.283 C 82.218 87.498 76.535 87.463 70.933 87.61 C 65.907 87.742 61.916 87.212 59.954 81.555 C 59.844 81.237 59.676 80.939 59.465 80.656 C 57.28 77.72 52.678 78.357 50.985 81.6 C 50.824 81.908 50.692 82.224 50.596 82.551 C 49.797 85.257 49.86 88.355 50.173 91.218 C 50.582 94.968 52.822 97.748 56.545 98.768 C 60.954 99.975 65.538 100.589 69.889 101.953 C 69.705 102.041 69.521 102.122 69.336 102.218 C 64.387 104.809 59.752 108.097 55.289 111.487 C 51.285 114.528 47.735 116.427 42.84 112.979 C 42.565 112.785 42.255 112.64 41.919 112.534 C 38.431 111.426 35.066 114.629 35.584 118.251 C 35.633 118.594 35.71 118.928 35.822 119.25 C 36.754 121.913 38.614 124.392 40.538 126.534 C 43.059 129.34 46.501 130.29 50.119 128.945 C 54.441 127.339 58.553 125.135 62.924 123.705 C 64.35 123.238 65.925 122.961 67.49 122.893 C 62.63 132.821 65.821 142.329 72.451 150.958 C 84.615 166.79 101.286 174.36 121.125 174.68 C 131.381 174.846 140.037 170.616 146.748 162.929 C 151.036 158.017 154.965 152.763 158.746 147.442 C 162.979 141.482 168.111 138.579 175.726 139.742 C 184.057 141.014 191.501 138.358 197.918 132.795 C 221.759 112.126 218.834 89.647 210.026 78.031 Z " fill="rgb(255,255,255)"/></g></g></g></svg>