<?xml version="1.0" encoding="UTF-8" standalone="no"?><!-- Generator: Gravit.io --><svg xmlns="http://www.w3.org/2000/svg" xmlns:xlink="http://www.w3.org/1999/xlink" style="isolation:isolate" viewBox="0 0 208.896 256" width="208.896pt" height="256pt"><defs><clipPath id="_clipPath_OlX1Uv02p1wDoP0Ho8aOSQx52FGBXtVV"><rect width="208.896" height="256"/></clipPath></defs><g clip-path="url(#_clipPath_OlX1Uv02p1wDoP0Ho8aOSQx52FGBXtVV)"><g><g><linearGradient id="_lgradient_312" x1="0" y1="0.5" x2="6.123233995736766e-17" y2="1.5" gradientTransform="matrix(208.896,0,0,256,0,0)" gradientUnits="userSpaceOnUse"><stop offset="0%" stop-opacity="1" style="stop-color:rgb(108,110,112)"/><stop offset="100%" stop-opacity="1" style="stop-color:rgb(63,62,64)"/></linearGradient><path d=" M 0 256 L 208.896 256 L 208.896 0 L 0 0 L 0 256 Z " fill="url(#_lgradient_312)"/></g><g><path d=" M 22.528 256 L 186.368 256 L 186.368 0 L 22.528 0 L 22.528 256 Z " fill="rgb(35,31,32)"/></g><g><linearGradient id="_lgradient_313" x1="0" y1="0.5" x2="6.123233995736766e-17" y2="-0.5" gradientTransform="matrix(155.648,0,0,256,26.624,0)" gradientUnits="userSpaceOnUse"><stop offset="0%" stop-opacity="1" style="stop-color:rgb(108,110,112)"/><stop offset="100%" stop-opacity="1" style="stop-color:rgb(63,62,64)"/></linearGradient><path d=" M 26.624 256 L 182.272 256 L 182.272 0 L 26.624 0 L 26.624 256 Z " fill="url(#_lgradient_313)"/></g><g><path d=" M 171.691 81.893 L 37.206 81.893 L 37.206 17.694 L 171.691 17.694 L 171.691 81.893 Z " fill="rgb(35,31,32)"/></g><g><linearGradient id="_lgradient_314" x1="0" y1="0.5" x2="0.9398745917688986" y2="0.8415197677254511" gradientTransform="matrix(30.393,0,0,51.486,125.18,23.57)" gradientUnits="userSpaceOnUse"><stop offset="0%" stop-opacity="1" style="stop-color:rgb(35,147,208)"/><stop offset="18.698246756734182%" stop-opacity="1" style="stop-color:rgb(110,190,233)"/><stop offset="72.58504675673419%" stop-opacity="1" style="stop-color:rgb(26,142,205)"/><stop offset="100%" stop-opacity="1" style="stop-color:rgb(26,142,205)"/></linearGradient><path d=" M 135.311 23.57 L 135.311 28.221 L 128.336 28.221 C 126.593 28.221 125.18 29.633 125.18 31.376 L 125.18 71.9 C 125.18 73.643 126.593 75.056 128.336 75.056 L 152.418 75.056 C 154.161 75.056 155.573 73.643 155.573 71.9 L 155.573 31.376 C 155.573 29.633 154.161 28.221 152.418 28.221 L 145.443 28.221 L 145.443 23.57 L 135.311 23.57 Z  M 128.336 32.04 L 152.418 32.04 L 152.418 42.171 L 128.336 42.171 L 128.336 32.04 Z " fill="url(#_lgradient_314)"/></g><g><linearGradient id="_lgradient_315" x1="0" y1="0.5" x2="0.9398745917688986" y2="0.8415197677254511" gradientTransform="matrix(30.393,0,0,51.486,53.322,23.57)" gradientUnits="userSpaceOnUse"><stop offset="0%" stop-opacity="1" style="stop-color:rgb(35,147,208)"/><stop offset="18.698246756734182%" stop-opacity="1" style="stop-color:rgb(110,190,233)"/><stop offset="72.58504675673419%" stop-opacity="1" style="stop-color:rgb(26,142,205)"/><stop offset="100%" stop-opacity="1" style="stop-color:rgb(26,142,205)"/></linearGradient><path d=" M 63.454 23.57 L 63.454 28.221 L 56.478 28.221 C 54.735 28.221 53.322 29.633 53.322 31.376 L 53.322 71.9 C 53.322 73.643 54.735 75.056 56.478 75.056 L 80.56 75.056 C 82.303 75.056 83.715 73.643 83.715 71.9 L 83.715 31.376 C 83.715 29.633 82.303 28.221 80.56 28.221 L 73.585 28.221 L 73.585 23.57 L 63.454 23.57 Z  M 56.478 32.04 L 80.56 32.04 L 80.56 53.278 L 56.478 53.278 L 56.478 32.04 Z " fill="url(#_lgradient_315)"/></g></g></g></svg>