<?xml version="1.0" encoding="UTF-8" standalone="no"?><!-- Generator: Gravit.io --><svg xmlns="http://www.w3.org/2000/svg" xmlns:xlink="http://www.w3.org/1999/xlink" style="isolation:isolate" viewBox="0 0 256 256" width="256pt" height="256pt"><defs><clipPath id="_clipPath_ljp5DW6M5d0qXEeyRnRmnLFaZxaIQeuM"><rect width="256" height="256"/></clipPath></defs><g clip-path="url(#_clipPath_ljp5DW6M5d0qXEeyRnRmnLFaZxaIQeuM)"><g><linearGradient id="_lgradient_316" x1="0" y1="0.5" x2="6.123233995736766e-17" y2="-0.5" gradientTransform="matrix(256,0,0,256,0,0)" gradientUnits="userSpaceOnUse"><stop offset="0%" stop-opacity="1" style="stop-color:rgb(7,59,107)"/><stop offset="12.4%" stop-opacity="1" style="stop-color:rgb(7,59,107)"/><stop offset="100%" stop-opacity="1" style="stop-color:rgb(24,92,156)"/></linearGradient><path d=" M 128 0 C 57.301 0 0 57.297 0 128 C 0 198.666 57.301 256 128 256 C 198.696 256 256 198.666 256 128 C 256 57.297 198.696 0 128 0 Z  M 16.238 128 C 16.238 66.275 66.29 16.219 128 16.219 C 189.71 16.219 239.758 66.275 239.758 128 C 239.758 189.695 189.71 239.744 128 239.744 C 66.29 239.744 16.238 189.695 16.238 128 Z  M 82.958 53.412 C 74.443 61.602 68.952 72.288 66.634 85.201 L 101.185 89.477 C 102.78 81.677 105.533 75.904 109.49 71.903 C 114.71 66.63 121.3 63.982 129.082 63.982 C 136.41 63.982 142.143 65.877 146.158 69.668 C 150.253 73.524 152.423 78.935 152.423 85.381 C 152.423 92.276 148.271 98.954 139.734 105.876 C 127.486 116.077 119.558 123.117 116.262 126.944 C 113.238 130.401 110.938 134.496 109.415 138.715 C 108.032 142.505 107.262 147.858 107.1 153.819 L 140.834 153.819 C 141.441 147.858 142.7 144.972 144.567 141.542 C 147.244 136.609 152.858 130.648 162.233 123.21 C 176.369 112.113 182.114 105.125 184.472 101.152 C 187.714 95.706 189.363 90.018 189.363 84.296 C 189.363 69.429 183.128 58.295 169.758 49.26 C 159.861 42.525 146.419 39.153 129.819 39.153 C 108.572 39.153 92.815 43.935 82.958 53.412 Z  M 106.405 198 C 106.405 208.389 114.877 216.875 125.305 216.875 C 135.69 216.875 144.176 208.389 144.176 198 C 144.176 187.583 135.69 179.126 125.305 179.126 C 114.877 179.126 106.405 187.583 106.405 198 Z " fill="url(#_lgradient_316)"/></g></g></svg>