<?xml version="1.0" encoding="UTF-8" standalone="no"?><!-- Generator: Gravit.io --><svg xmlns="http://www.w3.org/2000/svg" xmlns:xlink="http://www.w3.org/1999/xlink" style="isolation:isolate" viewBox="0 0 213.568 256" width="213.568pt" height="256pt"><defs><clipPath id="_clipPath_a8Qf0BVZxnbkSlmwv9ZUkrCtIIemMmH9"><rect width="213.568" height="256"/></clipPath></defs><g clip-path="url(#_clipPath_a8Qf0BVZxnbkSlmwv9ZUkrCtIIemMmH9)"><g><g><linearGradient id="_lgradient_326" x1="0" y1="0.5" x2="6.123233995736766e-17" y2="-0.5" gradientTransform="matrix(106.135,0,0,121.88,53.019,0)" gradientUnits="userSpaceOnUse"><stop offset="0%" stop-opacity="1" style="stop-color:rgb(46,44,45)"/><stop offset="100%" stop-opacity="1" style="stop-color:rgb(87,88,90)"/></linearGradient><path d=" M 114.847 0 C 106.073 0.04 100.301 2.886 97.19 5.03 C 93.936 4.669 90.183 4.669 85.881 5.337 C 66.69 8.316 64.525 16.761 62.394 31.684 C 60.266 46.606 62.394 55.19 62.394 55.19 C 62.394 55.19 53.019 54.704 53.019 62.37 C 53.019 70.049 55.58 84.957 58.563 85.814 C 61.551 86.67 66.666 85.814 66.666 85.814 C 66.666 85.814 65.382 94.764 79.442 107.978 C 90.905 118.747 101.78 121.302 105.442 121.88 L 106.737 121.88 C 110.383 121.302 121.273 118.747 132.735 107.978 C 146.797 94.764 145.521 85.814 145.521 85.814 C 145.521 85.814 150.636 86.67 153.61 85.814 C 156.598 84.957 159.154 70.049 159.154 62.37 C 159.154 54.704 149.779 55.19 149.779 55.19 C 149.779 55.19 151.911 46.606 149.779 31.684 C 147.652 16.761 141.262 3.547 122.072 0.564 C 119.612 0.182 117.329 0.01 115.216 0 L 114.847 0 Z " fill="url(#_lgradient_326)"/></g><g><linearGradient id="_lgradient_327" x1="0" y1="0.5" x2="6.123233995736766e-17" y2="1.5" gradientTransform="matrix(35.07,0,0,96.611,89.249,139.198)" gradientUnits="userSpaceOnUse"><stop offset="0%" stop-opacity="1" style="stop-color:rgb(26,142,205)"/><stop offset="16.3%" stop-opacity="1" style="stop-color:rgb(26,142,205)"/><stop offset="65.2%" stop-opacity="1" style="stop-color:rgb(110,190,233)"/><stop offset="100%" stop-opacity="1" style="stop-color:rgb(26,142,205)"/></linearGradient><path d=" M 113.68 139.198 L 99.884 139.198 L 89.249 139.198 L 89.249 142.783 L 99.167 154.89 L 95.875 207.057 L 106.086 235.809 L 117.849 206.995 L 114.401 154.89 L 124.319 142.783 L 124.319 139.198 L 113.68 139.198 Z " fill="url(#_lgradient_327)"/></g><g><linearGradient id="_lgradient_328" x1="0" y1="0.5" x2="6.123233995736766e-17" y2="-0.5" gradientTransform="matrix(213.568,0,0,124.583,0,131.417)" gradientUnits="userSpaceOnUse"><stop offset="0%" stop-opacity="1" style="stop-color:rgb(46,44,45)"/><stop offset="69.5%" stop-opacity="1" style="stop-color:rgb(46,44,45)"/><stop offset="100%" stop-opacity="1" style="stop-color:rgb(87,88,90)"/></linearGradient><path d=" M 147.71 131.417 C 146.757 131.417 146.238 131.451 146.238 131.451 L 143.678 137.192 L 129.968 174.244 L 129.973 174.23 L 129.968 174.244 L 117.712 207.365 L 106.086 235.809 L 95.875 207.057 L 95.857 207.365 L 69.886 137.192 L 67.326 131.451 C 67.326 131.451 66.815 131.417 65.868 131.417 C 60.926 131.403 44.18 132.298 26.458 143.674 C 25.774 144.116 25.09 144.578 24.407 145.04 C 3.205 159.601 0.184 170.317 0.01 193.93 C 0 194.69 0 195.47 0 196.254 L 0 236.651 L 0 256 L 76.387 256 L 137.176 256 L 213.568 256 L 213.568 236.651 L 213.568 196.254 L 213.568 193.93 C 213.394 170.317 210.363 159.601 189.156 145.04 C 188.473 144.578 187.79 144.116 187.106 143.674 C 169.533 132.384 152.893 131.417 147.825 131.417 C 147.786 131.417 147.748 131.417 147.71 131.417 Z " fill="url(#_lgradient_328)"/></g></g></g></svg>