<?xml version="1.0" encoding="UTF-8" standalone="no"?><!-- Generator: Gravit.io --><svg xmlns="http://www.w3.org/2000/svg" xmlns:xlink="http://www.w3.org/1999/xlink" style="isolation:isolate" viewBox="0 0 256 223.26" width="256pt" height="223.26pt"><defs><clipPath id="_clipPath_pRfo8xTQNxzj6O18KqENAUcVl0cDc2Tr"><rect width="256" height="223.26"/></clipPath></defs><g clip-path="url(#_clipPath_pRfo8xTQNxzj6O18KqENAUcVl0cDc2Tr)"><g><g><path d=" M 153.989 25.989 C 153.989 40.343 142.353 51.979 128 51.979 C 113.646 51.979 102.01 40.343 102.01 25.989 C 102.01 11.635 113.646 0 128 0 C 142.353 0 153.989 11.635 153.989 25.989 Z " fill="rgb(35,31,32)"/></g><g><path d=" M 256 196.832 L 256 26.232 L 0 26.232 L 0 196.832 L 99.961 196.832 L 99.961 211.307 L 70.377 211.307 L 70.377 223.26 L 185.646 223.26 L 185.646 211.307 L 156.028 211.307 L 156.028 196.832 L 256 196.832 Z " fill="rgb(1,3,5)"/></g><g><linearGradient id="_lgradient_329" x1="0" y1="0.5" x2="0.9396349171031402" y2="0.8421786412980432" gradientTransform="matrix(241.175,0,0,157.224,7.423,32.985)" gradientUnits="userSpaceOnUse"><stop offset="0%" stop-opacity="1" style="stop-color:rgb(160,162,165)"/><stop offset="34.93039999999999%" stop-opacity="1" style="stop-color:rgb(157,159,161)"/><stop offset="86.36359999999999%" stop-opacity="1" style="stop-color:rgb(219,220,222)"/><stop offset="100%" stop-opacity="1" style="stop-color:rgb(163,165,168)"/></linearGradient><path d=" M 7.423 190.209 L 248.598 190.209 L 248.598 32.985 L 7.423 32.985 L 7.423 190.209 Z " fill="url(#_lgradient_329)"/></g><g><linearGradient id="_lgradient_330" x1="0" y1="0.5" x2="6.123233995736766e-17" y2="-0.5" gradientTransform="matrix(59.408,0,0,68.221,79.097,47.564)" gradientUnits="userSpaceOnUse"><stop offset="0%" stop-opacity="1" style="stop-color:rgb(46,44,45)"/><stop offset="100%" stop-opacity="1" style="stop-color:rgb(87,88,90)"/></linearGradient><path d=" M 103.821 50.379 C 102.001 50.177 99.899 50.177 97.492 50.552 C 86.75 52.219 85.538 56.946 84.345 65.298 C 83.155 73.651 84.345 78.456 84.345 78.456 C 84.345 78.456 79.097 78.183 79.097 82.475 C 79.097 86.773 80.531 95.118 82.201 95.597 C 83.874 96.076 86.737 95.597 86.737 95.597 C 86.737 95.597 86.018 100.607 93.888 108.003 C 100.303 114.031 106.391 115.461 108.44 115.785 L 109.165 115.785 C 111.207 115.461 117.302 114.031 123.718 108.003 C 131.588 100.607 130.874 95.597 130.874 95.597 C 130.874 95.597 133.737 96.076 135.402 95.597 C 137.074 95.118 138.505 86.773 138.505 82.475 C 138.505 78.183 133.258 78.456 133.258 78.456 C 133.258 78.456 134.451 73.651 133.258 65.298 C 132.068 56.946 128.49 49.55 117.749 47.88 C 116.332 47.659 115.019 47.564 113.808 47.564 C 108.839 47.564 105.575 49.171 103.821 50.379 Z " fill="url(#_lgradient_330)"/></g><g><linearGradient id="_lgradient_331" x1="0" y1="0.5" x2="6.123233995736766e-17" y2="1.5" gradientTransform="matrix(19.63,0,0,54.077,99.377,125.478)" gradientUnits="userSpaceOnUse"><stop offset="0%" stop-opacity="1" style="stop-color:rgb(26,142,205)"/><stop offset="16.3%" stop-opacity="1" style="stop-color:rgb(26,142,205)"/><stop offset="65.2%" stop-opacity="1" style="stop-color:rgb(110,190,233)"/><stop offset="100%" stop-opacity="1" style="stop-color:rgb(26,142,205)"/></linearGradient><path d=" M 113.052 125.478 L 105.33 125.478 L 99.377 125.478 L 99.377 127.485 L 104.928 134.262 L 103.086 163.462 L 108.801 179.555 L 115.385 163.427 L 113.456 134.262 L 119.007 127.485 L 119.007 125.478 L 113.052 125.478 Z " fill="url(#_lgradient_331)"/></g><g><linearGradient id="_lgradient_332" x1="0" y1="0.5" x2="6.123233995736766e-17" y2="-0.5" gradientTransform="matrix(119.541,0,0,69.734,49.421,121.123)" gradientUnits="userSpaceOnUse"><stop offset="0%" stop-opacity="1" style="stop-color:rgb(46,44,45)"/><stop offset="69.5%" stop-opacity="1" style="stop-color:rgb(46,44,45)"/><stop offset="100%" stop-opacity="1" style="stop-color:rgb(87,88,90)"/></linearGradient><path d=" M 132.1 121.123 C 131.566 121.123 131.276 121.142 131.276 121.142 L 129.843 124.355 L 122.169 145.095 L 122.171 145.087 L 122.169 145.095 L 115.309 163.634 L 108.801 179.555 L 103.086 163.462 L 103.075 163.634 L 88.538 124.355 L 87.106 121.142 C 87.106 121.142 86.82 121.123 86.289 121.123 C 83.524 121.115 74.15 121.616 64.23 127.983 C 63.848 128.231 63.465 128.49 63.083 128.748 C 51.215 136.899 49.523 142.897 49.427 156.114 C 49.421 156.539 49.421 156.976 49.421 157.415 L 49.421 180.027 L 49.421 190.857 L 92.177 190.857 L 126.203 190.857 L 168.962 190.857 L 168.962 180.027 L 168.962 157.415 L 168.962 156.114 C 168.866 142.897 167.169 136.899 155.299 128.748 C 154.916 128.49 154.534 128.231 154.151 127.983 C 144.316 121.665 135.002 121.123 132.165 121.123 C 132.143 121.123 132.121 121.123 132.1 121.123 Z " fill="url(#_lgradient_332)"/></g><g><radialGradient id="_rgradient_29" fx="0.5" fy="0.5" cx="0.5" cy="0.5" r="0.5" gradientTransform="matrix(15.704,0,0,15.705,120.148,5.769)" gradientUnits="userSpaceOnUse"><stop offset="0%" stop-opacity="1" style="stop-color:rgb(108,110,112)"/><stop offset="100%" stop-opacity="1" style="stop-color:rgb(63,62,64)"/></radialGradient><path d=" M 120.148 13.621 C 120.148 17.958 123.664 21.474 128 21.474 C 132.337 21.474 135.852 17.958 135.852 13.621 C 135.852 9.285 132.337 5.769 128 5.769 C 123.664 5.769 120.148 9.285 120.148 13.621 Z " fill="url(#_rgradient_29)"/></g><g><radialGradient id="_rgradient_30" fx="0.5" fy="0.5" cx="0.5" cy="0.5" r="0.5" gradientTransform="matrix(14.265,0,0,14.265,120.867,6.489)" gradientUnits="userSpaceOnUse"><stop offset="0%" stop-opacity="1" style="stop-color:rgb(177,179,181)"/><stop offset="90.60000000000001%" stop-opacity="1" style="stop-color:rgb(219,220,222)"/><stop offset="100%" stop-opacity="1" style="stop-color:rgb(187,189,191)"/></radialGradient><path d=" M 120.867 13.621 C 120.867 17.56 124.061 20.754 128 20.754 C 131.939 20.754 135.132 17.56 135.132 13.621 C 135.132 9.683 131.939 6.489 128 6.489 C 124.061 6.489 120.867 9.683 120.867 13.621 Z " fill="url(#_rgradient_30)"/></g></g></g></svg>