<?xml version="1.0" encoding="UTF-8" standalone="no"?><!-- Generator: Gravit.io --><svg xmlns="http://www.w3.org/2000/svg" xmlns:xlink="http://www.w3.org/1999/xlink" style="isolation:isolate" viewBox="0 0 256 197.022" width="256pt" height="197.022pt"><defs><clipPath id="_clipPath_02vlZfX27rjSWLvPqbAIz74RuWVMl45I"><rect width="256" height="197.022"/></clipPath></defs><g clip-path="url(#_clipPath_02vlZfX27rjSWLvPqbAIz74RuWVMl45I)"><g><g><path d=" M 156.026 191.043 L 99.962 191.043 L 99.962 167.249 L 156.026 167.249 L 156.026 191.043 Z " fill="rgb(1,3,5)"/></g><g><path d=" M 0 170.595 L 256 170.595 L 256 0 L 0 0 L 0 170.595 Z " fill="rgb(1,3,5)"/></g><g><linearGradient id="_lgradient_333" x1="0" y1="0.5" x2="0.939626217972921" y2="0.8422025284797072" gradientTransform="matrix(241.159,0,0,157.226,7.42,6.751)" gradientUnits="userSpaceOnUse"><stop offset="0%" stop-opacity="1" style="stop-color:rgb(30,144,206)"/><stop offset="22.154%" stop-opacity="1" style="stop-color:rgb(110,190,233)"/><stop offset="66.5984%" stop-opacity="1" style="stop-color:rgb(26,142,205)"/><stop offset="100%" stop-opacity="1" style="stop-color:rgb(26,142,205)"/></linearGradient><path d=" M 248.579 6.751 L 7.42 6.751 L 7.42 163.977 L 248.579 163.977 L 248.579 6.751 Z " fill="url(#_lgradient_333)"/></g><g><path d=" M 185.624 197.022 L 70.375 197.022 L 70.375 185.059 L 185.624 185.059 L 185.624 197.022 Z " fill="rgb(1,3,5)"/></g><g><linearGradient id="_lgradient_334" x1="0" y1="0.5" x2="6.123233995736766e-17" y2="-0.5" gradientTransform="matrix(194.818,0,0,105.539,30.591,30.348)" gradientUnits="userSpaceOnUse"><stop offset="0%" stop-opacity="1" style="stop-color:rgb(177,179,181)"/><stop offset="17.599999999999984%" stop-opacity="1" style="stop-color:rgb(177,179,181)"/><stop offset="56.199999999999996%" stop-opacity="1" style="stop-color:rgb(202,204,206)"/><stop offset="99.99999999999999%" stop-opacity="1" style="stop-color:rgb(202,204,206)"/></linearGradient><path d=" M 96.358 31.575 C 66.787 38.491 65.368 64.071 65.006 72.43 C 65.006 72.43 30.591 72.73 30.591 102.061 C 30.591 135.877 64.408 135.877 64.408 135.877 L 204.46 135.877 C 204.46 135.877 225.409 137.026 225.409 114.924 C 225.409 96.967 210.744 90.69 202.967 90.69 C 195.181 90.69 190.095 94.874 190.095 94.874 C 190.174 90.148 196.1 71.339 177.576 59.649 C 158.912 47.868 144.658 61.232 144.658 61.232 C 145.152 46.467 128.63 30.349 106.835 30.348 C 103.454 30.347 99.948 30.735 96.358 31.575 Z " fill="url(#_lgradient_334)"/></g></g></g></svg>