<?xml version="1.0" encoding="UTF-8" standalone="no"?><!-- Generator: Gravit.io --><svg xmlns="http://www.w3.org/2000/svg" xmlns:xlink="http://www.w3.org/1999/xlink" style="isolation:isolate" viewBox="0 0 256 105.903" width="256pt" height="105.903pt"><defs><clipPath id="_clipPath_lBipwKR65YLO8NWceBJFLvZaljpZ47Gq"><rect width="256" height="105.903"/></clipPath></defs><g clip-path="url(#_clipPath_lBipwKR65YLO8NWceBJFLvZaljpZ47Gq)"><g><g><linearGradient id="_lgradient_335" x1="0" y1="0.5" x2="1" y2="0.5" gradientTransform="matrix(177.749,0,0,72.544,78.251,32.81)" gradientUnits="userSpaceOnUse"><stop offset="0%" stop-opacity="1" style="stop-color:rgb(63,62,64)"/><stop offset="53.7072%" stop-opacity="1" style="stop-color:rgb(63,62,64)"/><stop offset="100%" stop-opacity="1" style="stop-color:rgb(108,110,112)"/></linearGradient><path d=" M 78.251 32.81 L 78.251 101.597 L 88.322 101.597 L 90.255 105.354 L 105.909 105.354 L 107.374 101.597 L 227.291 101.597 L 228.505 104.762 L 244.211 104.762 L 245.849 101.597 L 256 101.597 L 256 32.81 L 78.251 32.81 Z " fill="url(#_lgradient_335)"/></g><g><path d=" M 87.235 92.248 C 88.224 92.248 89.022 86.526 89.022 79.464 C 89.022 72.417 88.224 41.226 87.235 41.226 C 86.236 41.226 85.428 60.587 85.428 67.635 C 85.428 74.697 86.236 92.248 87.235 92.248 Z " fill="rgb(35,31,32)"/></g><g><path d=" M 201.22 92.248 C 202.205 92.248 203.012 74.697 203.012 67.635 C 203.012 60.587 202.205 41.226 201.22 41.226 C 200.221 41.226 199.418 72.417 199.418 79.464 C 199.418 86.526 200.221 92.248 201.22 92.248 Z " fill="rgb(35,31,32)"/></g><g><linearGradient id="_lgradient_336" x1="0" y1="0.5" x2="1" y2="0.5" gradientTransform="matrix(114.278,0,0,50.729,86.941,41.361)" gradientUnits="userSpaceOnUse"><stop offset="0%" stop-opacity="1" style="stop-color:rgb(219,220,222)"/><stop offset="50.2%" stop-opacity="1" style="stop-color:rgb(230,231,232)"/><stop offset="100%" stop-opacity="1" style="stop-color:rgb(187,189,191)"/></linearGradient><path d=" M 86.941 92.09 L 201.219 92.09 L 201.219 41.361 L 86.941 41.361 L 86.941 92.09 Z " fill="url(#_lgradient_336)"/></g><g><path d=" M 172.833 82.918 L 177.202 82.918 L 177.202 85.485 L 179.124 85.485 L 179.124 88.178 L 186.807 88.178 L 186.807 85.485 L 188.847 85.485 L 188.847 82.918 L 192.566 82.918 L 192.566 70.629 L 172.833 70.629 L 172.833 82.918 Z " fill="rgb(35,31,32)"/></g><g><path d=" M 146.976 82.918 L 151.339 82.918 L 151.339 85.485 L 153.258 85.485 L 153.258 88.178 L 160.945 88.178 L 160.945 85.485 L 162.986 85.485 L 162.986 82.918 L 166.709 82.918 L 166.709 70.629 L 146.976 70.629 L 146.976 82.918 Z " fill="rgb(35,31,32)"/></g><g><path d=" M 121.129 82.918 L 125.498 82.918 L 125.498 85.485 L 127.421 85.485 L 127.421 88.178 L 135.108 88.178 L 135.108 85.485 L 137.147 85.485 L 137.147 82.918 L 140.872 82.918 L 140.872 70.629 L 121.129 70.629 L 121.129 82.918 Z " fill="rgb(35,31,32)"/></g><g><path d=" M 95.02 83.455 L 99.383 83.455 L 99.383 86.022 L 101.307 86.022 L 101.307 88.715 L 108.994 88.715 L 108.994 86.022 L 111.043 86.022 L 111.043 83.455 L 114.758 83.455 L 114.758 71.161 L 95.02 71.161 L 95.02 83.455 Z " fill="rgb(35,31,32)"/></g><g><path d=" M 172.833 60.03 L 177.202 60.03 L 177.202 62.597 L 179.124 62.597 L 179.124 65.29 L 186.807 65.29 L 186.807 62.597 L 188.847 62.597 L 188.847 60.03 L 192.566 60.03 L 192.566 47.741 L 172.833 47.741 L 172.833 60.03 Z " fill="rgb(35,31,32)"/></g><g><path d=" M 146.976 60.03 L 151.339 60.03 L 151.339 62.597 L 153.258 62.597 L 153.258 65.29 L 160.945 65.29 L 160.945 62.597 L 162.986 62.597 L 162.986 60.03 L 166.709 60.03 L 166.709 47.741 L 146.976 47.741 L 146.976 60.03 Z " fill="rgb(35,31,32)"/></g><g><path d=" M 121.129 60.03 L 125.498 60.03 L 125.498 62.597 L 127.421 62.597 L 127.421 65.29 L 135.108 65.29 L 135.108 62.597 L 137.147 62.597 L 137.147 60.03 L 140.872 60.03 L 140.872 47.741 L 121.129 47.741 L 121.129 60.03 Z " fill="rgb(35,31,32)"/></g><g><path d=" M 95.02 60.566 L 99.383 60.566 L 99.383 63.134 L 101.307 63.134 L 101.307 65.826 L 108.994 65.826 L 108.994 63.134 L 111.043 63.134 L 111.043 60.566 L 114.758 60.566 L 114.758 48.273 L 95.02 48.273 L 95.02 60.566 Z " fill="rgb(35,31,32)"/></g><g><path d=" M 230.777 42.667 C 225.457 42.667 221.13 46.965 221.13 52.277 C 221.13 57.598 225.457 61.901 230.777 61.901 C 236.065 61.901 240.387 57.598 240.387 52.277 C 240.387 46.965 236.065 42.667 230.777 42.667 Z " fill="rgb(38,170,225)"/></g><g><path d=" M 230.745 70.415 C 225.438 70.415 221.13 74.714 221.13 80.025 C 221.13 85.346 225.438 89.649 230.745 89.649 C 236.061 89.649 240.387 85.346 240.387 80.025 C 240.387 74.714 236.061 70.415 230.745 70.415 Z " fill="rgb(38,170,225)"/></g><g><linearGradient id="_lgradient_337" x1="0" y1="0.5" x2="1" y2="0.5" gradientTransform="matrix(18.669,0,0,3.183,227.226,101.602)" gradientUnits="userSpaceOnUse"><stop offset="0%" stop-opacity="1" style="stop-color:rgb(34,31,32)"/><stop offset="50.2%" stop-opacity="1" style="stop-color:rgb(69,68,70)"/><stop offset="100%" stop-opacity="1" style="stop-color:rgb(34,31,32)"/></linearGradient><path d=" M 227.226 101.602 L 228.449 104.785 L 244.243 104.785 L 245.895 101.602 L 227.226 101.602 Z " fill="url(#_lgradient_337)"/></g><g><linearGradient id="_lgradient_338" x1="0" y1="0.5" x2="1" y2="0.5" gradientTransform="matrix(19.052,0,0,3.746,88.322,101.597)" gradientUnits="userSpaceOnUse"><stop offset="0%" stop-opacity="1" style="stop-color:rgb(34,31,32)"/><stop offset="50.2%" stop-opacity="1" style="stop-color:rgb(69,68,70)"/><stop offset="100%" stop-opacity="1" style="stop-color:rgb(34,31,32)"/></linearGradient><path d=" M 88.322 101.597 L 90.022 105.343 L 105.816 105.343 L 107.374 101.597 L 88.322 101.597 Z " fill="url(#_lgradient_338)"/></g><g><linearGradient id="_lgradient_339" x1="0" y1="0.5" x2="6.123233995736766e-17" y2="-0.5" gradientTransform="matrix(105.903,0,0,105.903,0,0)" gradientUnits="userSpaceOnUse"><stop offset="0%" stop-opacity="1" style="stop-color:rgb(7,59,107)"/><stop offset="12.4%" stop-opacity="1" style="stop-color:rgb(7,59,107)"/><stop offset="100%" stop-opacity="1" style="stop-color:rgb(24,92,156)"/></linearGradient><path d=" M 0 52.951 C 0 82.196 23.707 105.903 52.952 105.903 C 82.196 105.903 105.903 82.196 105.903 52.951 C 105.903 23.707 82.196 0 52.952 0 C 23.707 0 0 23.707 0 52.951 Z " fill="url(#_lgradient_339)"/></g><g><linearGradient id="_lgradient_340" x1="0" y1="0.5" x2="6.123233995736766e-17" y2="-0.5" gradientTransform="matrix(46.13,0,0,29.012,53.763,38.445)" gradientUnits="userSpaceOnUse"><stop offset="0%" stop-opacity="1" style="stop-color:rgb(177,179,181)"/><stop offset="78.10000000000001%" stop-opacity="1" style="stop-color:rgb(219,220,222)"/><stop offset="100%" stop-opacity="1" style="stop-color:rgb(219,220,222)"/></linearGradient><path d=" M 53.763 52.951 L 77.363 67.457 L 77.363 59.577 L 99.893 59.577 L 99.893 46.325 L 77.363 46.325 L 77.363 38.445 L 53.763 52.951 Z " fill="url(#_lgradient_340)"/></g><g><linearGradient id="_lgradient_341" x1="0" y1="0.5" x2="6.123233995736766e-17" y2="-0.5" gradientTransform="matrix(46.131,0,0,29.012,6.01,38.445)" gradientUnits="userSpaceOnUse"><stop offset="0%" stop-opacity="1" style="stop-color:rgb(177,179,181)"/><stop offset="78.10000000000001%" stop-opacity="1" style="stop-color:rgb(219,220,222)"/><stop offset="100%" stop-opacity="1" style="stop-color:rgb(219,220,222)"/></linearGradient><path d=" M 28.541 46.325 L 6.01 46.325 L 6.01 59.577 L 28.541 59.577 L 28.541 67.457 L 52.141 52.951 L 28.541 38.445 L 28.541 46.325 Z " fill="url(#_lgradient_341)"/></g><g><linearGradient id="_lgradient_342" x1="0" y1="0.5" x2="6.123233995736766e-17" y2="-0.5" gradientTransform="matrix(29.013,0,0,38.849,38.445,3.32)" gradientUnits="userSpaceOnUse"><stop offset="0%" stop-opacity="1" style="stop-color:rgb(177,179,181)"/><stop offset="78.10000000000001%" stop-opacity="1" style="stop-color:rgb(219,220,222)"/><stop offset="100%" stop-opacity="1" style="stop-color:rgb(219,220,222)"/></linearGradient><path d=" M 38.445 26.92 L 46.326 26.92 L 46.326 42.169 L 59.578 42.169 L 59.578 26.92 L 67.458 26.92 L 52.952 3.32 L 38.445 26.92 Z " fill="url(#_lgradient_342)"/></g><g><linearGradient id="_lgradient_343" x1="0" y1="0.5" x2="6.123233995736766e-17" y2="-0.5" gradientTransform="matrix(29.013,0,0,38.85,38.445,63.733)" gradientUnits="userSpaceOnUse"><stop offset="0%" stop-opacity="1" style="stop-color:rgb(177,179,181)"/><stop offset="78.10000000000001%" stop-opacity="1" style="stop-color:rgb(219,220,222)"/><stop offset="100%" stop-opacity="1" style="stop-color:rgb(219,220,222)"/></linearGradient><path d=" M 46.326 63.733 L 46.326 78.983 L 38.445 78.983 L 52.952 102.583 L 67.458 78.983 L 59.578 78.983 L 59.578 63.733 L 46.326 63.733 Z " fill="url(#_lgradient_343)"/></g></g></g></svg>