<?xml version="1.0" encoding="UTF-8" standalone="no"?><!-- Generator: Gravit.io --><svg xmlns="http://www.w3.org/2000/svg" xmlns:xlink="http://www.w3.org/1999/xlink" style="isolation:isolate" viewBox="0 0 255.917 97.712" width="255.917pt" height="97.712pt"><defs><clipPath id="_clipPath_1tBxcoXmSnND0r894XZauJ0KVQAna2vQ"><rect width="255.917" height="97.712"/></clipPath></defs><g clip-path="url(#_clipPath_1tBxcoXmSnND0r894XZauJ0KVQAna2vQ)"><g><g><linearGradient id="_lgradient_344" x1="0" y1="0.5" x2="1" y2="0.5" gradientTransform="matrix(179.838,0,0,48.126,0,49.321)" gradientUnits="userSpaceOnUse"><stop offset="0%" stop-opacity="1" style="stop-color:rgb(108,110,112)"/><stop offset="53.6%" stop-opacity="1" style="stop-color:rgb(63,62,64)"/><stop offset="100%" stop-opacity="1" style="stop-color:rgb(63,62,64)"/></linearGradient><path d=" M 0 49.321 L 0 93.606 L 10.727 93.606 L 12.402 96.842 L 28.458 96.842 L 29.699 93.606 L 150.064 93.606 L 151.561 97.447 L 167.565 97.447 L 169.541 93.606 L 179.838 93.606 L 179.838 49.321 L 0 49.321 Z " fill="url(#_lgradient_344)"/></g><g><path d=" M 170.652 84.049 C 169.641 84.049 168.825 78.199 168.825 70.98 C 168.825 63.775 169.641 57.925 170.652 57.925 C 171.673 57.925 172.499 63.775 172.499 70.98 C 172.499 78.199 171.673 84.049 170.652 84.049 Z " fill="rgb(35,31,32)"/></g><g><path d=" M 54.122 84.049 C 53.115 84.049 52.29 78.199 52.29 70.98 C 52.29 63.775 53.115 57.925 54.122 57.925 C 55.143 57.925 55.964 63.775 55.964 70.98 C 55.964 78.199 55.143 84.049 54.122 84.049 Z " fill="rgb(35,31,32)"/></g><g><linearGradient id="_lgradient_345" x1="0" y1="0.5" x2="1" y2="0.5" gradientTransform="matrix(116.831,0,0,25.824,54.122,58.063)" gradientUnits="userSpaceOnUse"><stop offset="0%" stop-opacity="1" style="stop-color:rgb(187,189,191)"/><stop offset="50.2%" stop-opacity="1" style="stop-color:rgb(230,231,232)"/><stop offset="100%" stop-opacity="1" style="stop-color:rgb(219,220,222)"/></linearGradient><path d=" M 54.122 83.887 L 170.953 83.887 L 170.953 58.063 L 54.122 58.063 L 54.122 83.887 Z " fill="url(#_lgradient_345)"/></g><g><path d=" M 83.143 74.511 L 78.677 74.511 L 78.677 77.135 L 76.711 77.135 L 76.711 79.889 L 68.857 79.889 L 68.857 77.135 L 66.772 77.135 L 66.772 74.511 L 62.969 74.511 L 62.969 61.948 L 83.143 61.948 L 83.143 74.511 Z " fill="rgb(35,31,32)"/></g><g><path d=" M 109.577 74.511 L 105.116 74.511 L 105.116 77.135 L 103.155 77.135 L 103.155 79.889 L 95.296 79.889 L 95.296 77.135 L 93.211 77.135 L 93.211 74.511 L 89.403 74.511 L 89.403 61.948 L 109.577 61.948 L 109.577 74.511 Z " fill="rgb(35,31,32)"/></g><g><path d=" M 136.002 74.511 L 131.536 74.511 L 131.536 77.135 L 129.57 77.135 L 129.57 79.889 L 121.711 79.889 L 121.711 77.135 L 119.626 77.135 L 119.626 74.511 L 115.818 74.511 L 115.818 61.948 L 136.002 61.948 L 136.002 74.511 Z " fill="rgb(35,31,32)"/></g><g><path d=" M 162.693 75.059 L 158.232 75.059 L 158.232 77.683 L 156.266 77.683 L 156.266 80.437 L 148.407 80.437 L 148.407 77.683 L 146.313 77.683 L 146.313 75.059 L 142.515 75.059 L 142.515 62.492 L 162.693 62.492 L 162.693 75.059 Z " fill="rgb(35,31,32)"/></g><g><path d=" M 23.904 61.947 C 29.343 61.947 33.766 66.342 33.766 71.771 C 33.766 77.211 29.343 81.61 23.904 81.61 C 18.498 81.61 14.079 77.211 14.079 71.771 C 14.079 66.342 18.498 61.947 23.904 61.947 Z " fill="rgb(38,170,225)"/></g><g><linearGradient id="_lgradient_346" x1="0" y1="0.5" x2="1" y2="0.5" gradientTransform="matrix(19.086,0,0,3.255,10.679,93.611)" gradientUnits="userSpaceOnUse"><stop offset="0%" stop-opacity="1" style="stop-color:rgb(34,31,32)"/><stop offset="50.2%" stop-opacity="1" style="stop-color:rgb(69,68,70)"/><stop offset="100%" stop-opacity="1" style="stop-color:rgb(34,31,32)"/></linearGradient><path d=" M 10.679 93.611 L 12.368 96.866 L 28.515 96.866 L 29.765 93.611 L 10.679 93.611 Z " fill="url(#_lgradient_346)"/></g><g><linearGradient id="_lgradient_347" x1="0" y1="0.5" x2="1" y2="0.5" gradientTransform="matrix(19.087,0,0,3.255,149.967,93.611)" gradientUnits="userSpaceOnUse"><stop offset="0%" stop-opacity="1" style="stop-color:rgb(34,31,32)"/><stop offset="50.2%" stop-opacity="1" style="stop-color:rgb(69,68,70)"/><stop offset="100%" stop-opacity="1" style="stop-color:rgb(34,31,32)"/></linearGradient><path d=" M 149.967 93.611 L 151.657 96.866 L 167.804 96.866 L 169.054 93.611 L 149.967 93.611 Z " fill="url(#_lgradient_347)"/></g><g><linearGradient id="_lgradient_348" x1="0" y1="0.5" x2="6.123233995736766e-17" y2="-0.5" gradientTransform="matrix(97.712,0,0,97.712,158.205,0)" gradientUnits="userSpaceOnUse"><stop offset="0%" stop-opacity="1" style="stop-color:rgb(7,59,107)"/><stop offset="12.4%" stop-opacity="1" style="stop-color:rgb(7,59,107)"/><stop offset="100%" stop-opacity="1" style="stop-color:rgb(24,92,156)"/></linearGradient><path d=" M 158.205 48.856 C 158.205 75.838 180.079 97.712 207.061 97.712 C 234.044 97.712 255.917 75.838 255.917 48.856 C 255.917 21.873 234.044 0 207.061 0 C 180.079 0 158.205 21.873 158.205 48.856 Z " fill="url(#_lgradient_348)"/></g><g><linearGradient id="_lgradient_349" x1="0" y1="0.5" x2="6.123233995736766e-17" y2="-0.5" gradientTransform="matrix(26.517,0,0,33.262,193.803,4.141)" gradientUnits="userSpaceOnUse"><stop offset="0%" stop-opacity="1" style="stop-color:rgb(177,179,181)"/><stop offset="78.10000000000001%" stop-opacity="1" style="stop-color:rgb(219,220,222)"/><stop offset="100%" stop-opacity="1" style="stop-color:rgb(219,220,222)"/></linearGradient><path d=" M 193.803 25.71 L 201.264 25.71 L 201.264 37.403 L 212.858 37.403 L 212.858 25.71 L 220.32 25.71 L 207.062 4.141 L 193.803 25.71 Z " fill="url(#_lgradient_349)"/></g><g><linearGradient id="_lgradient_350" x1="0" y1="0.5" x2="6.123233995736766e-17" y2="-0.5" gradientTransform="matrix(26.517,0,0,33.263,193.803,60.309)" gradientUnits="userSpaceOnUse"><stop offset="0%" stop-opacity="1" style="stop-color:rgb(177,179,181)"/><stop offset="78.10000000000001%" stop-opacity="1" style="stop-color:rgb(219,220,222)"/><stop offset="100%" stop-opacity="1" style="stop-color:rgb(219,220,222)"/></linearGradient><path d=" M 201.264 60.309 L 201.264 72.002 L 193.803 72.002 L 207.061 93.572 L 220.32 72.002 L 212.858 72.002 L 212.858 60.309 L 201.264 60.309 Z " fill="url(#_lgradient_350)"/></g><g><linearGradient id="_lgradient_351" x1="0" y1="0.5" x2="6.123233995736766e-17" y2="-0.5" gradientTransform="matrix(33.263,0,0,26.517,162.345,35.597)" gradientUnits="userSpaceOnUse"><stop offset="0%" stop-opacity="1" style="stop-color:rgb(177,179,181)"/><stop offset="78.10000000000001%" stop-opacity="1" style="stop-color:rgb(219,220,222)"/><stop offset="100%" stop-opacity="1" style="stop-color:rgb(219,220,222)"/></linearGradient><path d=" M 162.345 48.856 L 183.914 62.114 L 183.914 54.654 L 195.608 54.654 L 195.608 43.058 L 183.914 43.058 L 183.914 35.597 L 162.345 48.856 Z " fill="url(#_lgradient_351)"/></g><g><linearGradient id="_lgradient_352" x1="0" y1="0.5" x2="6.123233995736766e-17" y2="-0.5" gradientTransform="matrix(33.263,0,0,26.517,218.514,35.597)" gradientUnits="userSpaceOnUse"><stop offset="0%" stop-opacity="1" style="stop-color:rgb(177,179,181)"/><stop offset="78.10000000000001%" stop-opacity="1" style="stop-color:rgb(219,220,222)"/><stop offset="100%" stop-opacity="1" style="stop-color:rgb(219,220,222)"/></linearGradient><path d=" M 230.208 43.058 L 218.514 43.058 L 218.514 54.654 L 230.208 54.654 L 230.208 62.114 L 251.777 48.856 L 230.208 35.597 L 230.208 43.058 Z " fill="url(#_lgradient_352)"/></g></g></g></svg>