<?xml version="1.0" encoding="UTF-8" standalone="no"?><!-- Generator: Gravit.io --><svg xmlns="http://www.w3.org/2000/svg" xmlns:xlink="http://www.w3.org/1999/xlink" style="isolation:isolate" viewBox="0 0 256 238.91" width="256pt" height="238.91pt"><defs><clipPath id="_clipPath_pIsMzXpQFVJT4bkm9xJVmKHcCNCdLAQ7"><rect width="256" height="238.91"/></clipPath></defs><g clip-path="url(#_clipPath_pIsMzXpQFVJT4bkm9xJVmKHcCNCdLAQ7)"><g><g><radialGradient id="_rgradient_31" fx="0.367" fy="0.336" cx="0.367" cy="0.336" r="0.353" gradientTransform="matrix(238.046,0,0,238.91,0,0)" gradientUnits="userSpaceOnUse"><stop offset="0%" stop-opacity="1" style="stop-color:rgb(46,147,208)"/><stop offset="100%" stop-opacity="1" style="stop-color:rgb(42,46,119)"/></radialGradient><path d=" M 0 119.45 C 0 185.319 53.393 238.91 119.018 238.91 C 184.648 238.91 238.046 185.319 238.046 119.45 C 238.046 53.586 184.648 0 119.018 0 C 53.393 0 0 53.586 0 119.45 Z " fill="url(#_rgradient_31)"/></g><g><radialGradient id="_rgradient_32" fx="0.5" fy="0.5" cx="0.5" cy="0.5" r="0.491" gradientTransform="matrix(230.727,0,0,222.434,1.711,1.333)" gradientUnits="userSpaceOnUse"><stop offset="0%" stop-opacity="1" style="stop-color:rgb(204,219,240)"/><stop offset="100%" stop-opacity="1" style="stop-color:rgb(173,197,230)"/></radialGradient><path d=" M 105.503 2.13 C 105.06 2.177 104.647 2.155 104.242 2.132 C 103.805 2.108 103.378 2.084 102.93 2.147 C 102.009 2.287 101.029 2.626 100.13 2.847 C 99.695 2.959 99.295 3.099 98.892 3.24 C 100.056 2.93 101.511 2.94 102.703 2.934 C 103.295 2.933 103.843 3.005 104.381 3.077 C 105.109 3.175 105.818 3.273 106.593 3.185 C 106.9 3.152 107.265 3.291 107.636 3.429 C 108.239 3.653 108.863 3.878 109.3 3.373 C 109.697 3.652 109.69 3.663 110.082 3.536 C 110.362 4.148 110.921 4.393 111.312 3.757 C 111.695 4.337 112.142 4.328 112.635 4.318 C 112.855 4.314 113.086 4.31 113.324 4.358 C 114.13 4.527 114.876 5.052 115.669 5.25 C 117.536 5.741 122.108 5.717 123.258 7.607 C 121.485 8.516 122.657 9.531 123.497 10.535 C 123.928 11.06 124.173 11.304 124.057 12.103 C 123.923 12.961 123.264 12.833 124.278 13.328 C 124.85 13.615 126.448 13.37 125.982 14.478 C 125.708 15.143 124.792 15.02 124.278 14.898 C 123.17 14.63 121.385 13.124 120.271 14.139 C 120.476 14.506 120.813 15.225 120.704 15.679 C 120.568 16.21 119.822 16.361 119.799 16.91 C 119.729 18.304 121.56 17.872 122.237 18.275 C 123.462 18.98 122.792 19.961 122.412 20.847 C 122.08 21.588 121.793 23.437 123.241 22.737 C 123.905 23.396 124.01 24.294 124.523 25.046 C 125.13 25.909 126.646 26.283 127.154 27.106 C 127.533 27.719 127.09 28.885 127.849 29.339 C 128.249 29.583 128.792 29.432 129.334 29.281 C 129.754 29.164 130.173 29.047 130.525 29.113 C 129.551 30.157 129.686 31.206 128.408 31.883 C 128.011 32.099 126.763 32.489 127.09 33.2 C 127.264 33.592 128.28 33.452 128.618 33.668 C 128.513 33.889 128.484 34.297 128.321 34.542 C 128.729 34.793 130.193 35.038 129.901 35.802 C 129.679 36.385 128.478 35.96 128.075 35.878 C 127.393 35.744 126.921 35.604 126.431 35.207 C 125.877 34.765 125.929 34.081 124.961 34.251 C 124.738 35.507 124.499 35.445 123.794 35.383 C 123.592 35.365 123.353 35.347 123.065 35.359 C 123.048 36.467 125.579 37.108 126.401 37.686 C 127.685 38.602 132.199 41.367 128.635 42.306 C 127.65 42.568 126.472 42.778 125.807 43.7 C 125.153 44.598 126.063 45.432 125.761 46.208 C 125.579 46.669 124.943 46.768 124.699 47.164 C 124.489 47.48 124.553 48.028 124.36 48.419 C 123.935 49.311 122.99 49.638 122.458 50.408 C 121.724 51.481 121.718 52.799 120.697 53.651 C 120.009 54.223 119.093 55.202 118.236 55.47 C 117.104 55.826 116.498 55.423 117.349 56.695 C 117.95 57.576 118.947 57.861 119.542 58.702 C 118.715 59.081 118.936 59.46 118.551 60.02 C 118.212 60.533 117.308 61.011 117.116 61.606 C 117.023 61.881 117.501 62.038 117.437 62.364 C 117.373 62.662 117.04 63.012 116.877 63.286 C 116.498 63.893 116.107 64.324 115.658 64.844 C 115.903 65.123 116.008 65.526 116.107 65.835 C 115.16 66.394 114.22 66.158 113.286 65.923 C 112.591 65.748 111.9 65.573 111.213 65.724 C 112.333 64.557 110.362 65.03 110.39 64.266 C 110.414 63.683 111.213 63.49 111.65 63.391 C 112.403 63.228 112.45 63.374 113.126 62.977 C 113.768 62.598 115.15 61.898 115.564 61.28 C 115.856 60.848 115.705 60.381 115.914 59.962 C 116.107 59.594 116.58 59.588 116.661 59.063 C 115.809 58.806 114.794 58.375 113.884 58.258 C 112.904 58.124 112.485 58.59 111.628 58.783 C 110.7 59.004 109.895 58.964 108.962 59.29 C 107.374 59.857 105.765 59.775 104.237 60.242 C 103.496 60.463 102.803 61.093 102.009 61.192 C 100.971 61.326 100.487 61.14 99.472 61.717 C 97.996 62.563 95.908 63.87 94.999 65.299 C 94.409 66.226 94.409 67.13 93.983 68.092 C 93.657 68.85 92.974 69.364 92.514 70.076 C 92.006 70.839 91.895 71.598 91.65 72.456 C 91.312 73.587 90.612 73.721 89.959 74.573 C 91.265 76.701 88.593 78.452 87.509 79.822 C 86.82 80.68 86.704 81.788 85.806 82.482 C 85.106 83.024 83.787 82.844 83.42 83.636 C 85.415 85.287 83.589 89.02 86.611 90.111 C 87.381 90.385 87.701 89.837 88.402 89.766 C 89.049 89.709 89.609 89.989 90.192 90.106 C 91.592 90.379 92.875 90.158 94.217 90.805 C 95.587 91.458 97.249 93.442 98.689 93.01 C 100.224 92.561 100.913 90.106 101.484 88.653 C 101.776 87.901 102.091 86.711 101.904 85.882 C 101.834 85.614 101.355 85.101 101.368 84.856 C 101.368 84.121 101.752 84.581 101.95 84.109 C 102.452 82.931 101.729 83.047 100.691 82.534 C 99.815 82.103 99.326 81.526 98.825 80.72 C 97.617 78.749 98.247 76.97 99.349 75.01 C 99.624 74.526 100.061 73.61 100.469 73.225 C 100.831 72.887 101.355 72.887 101.7 72.595 C 102.108 72.233 102.488 70.484 103.351 71.219 C 104.313 72.042 102.161 75.243 101.695 76.025 C 100.953 77.296 101.729 78.253 102.686 79.093 C 103.065 79.432 103.701 80.102 104.179 80.282 C 104.559 80.425 104.907 80.372 105.272 80.318 C 105.522 80.282 105.78 80.245 106.062 80.271 C 106.967 80.359 107.374 81.059 106.745 81.817 C 108.507 82.418 108.122 84.05 107.258 85.159 C 106.36 86.314 106.203 87.539 106.483 88.903 C 106.699 89.989 107.014 90.106 106.174 90.887 C 105.556 91.458 105.071 91.745 104.576 92.45 C 103.712 93.71 102.342 94.741 100.814 95.028 C 99.617 95.25 98.416 95.309 97.226 95.704 C 96.549 95.921 95.185 96.941 94.52 96.614 C 93.248 95.996 94.928 95.378 95.027 94.714 C 95.103 94.124 94.292 93.558 93.796 93.103 C 93.459 92.788 92.146 91.405 91.755 91.331 C 90.168 91.051 91.177 92.683 91.312 93.231 C 91.557 94.193 91.44 94.969 91.778 95.914 C 92.706 98.458 90.473 97.886 89.317 99.181 C 88.979 99.566 88.973 100.231 88.506 100.698 C 88.15 101.06 87.736 101.38 87.368 101.735 C 86.324 102.739 86.418 103.463 85.969 104.745 C 85.613 105.749 85.047 106.98 84.488 107.878 C 83.776 109.033 82.679 110.31 81.501 111.016 C 80.556 111.581 79.39 111.588 78.596 112.346 C 78.269 112.655 78.17 113.051 77.792 113.354 C 77.453 113.623 76.963 113.594 76.671 114.031 C 75.89 115.139 77.384 114.789 78.118 115.28 C 79.459 116.178 81.652 118.184 81.221 119.841 C 80.655 122.021 78.748 122.827 76.917 123.725 C 75.657 124.343 74.653 124.396 73.312 124.53 C 72.227 124.641 71.702 124.816 71.749 125.982 C 71.796 127.056 72.274 127.72 71.778 128.788 C 71.352 129.698 70.273 130.433 70.442 131.576 C 70.583 132.638 71.586 133.092 72.198 133.781 C 72.986 134.667 72.606 135.332 72.752 136.376 C 72.989 137.964 74.313 137.804 75.639 137.644 C 76.237 137.572 76.837 137.501 77.336 137.59 C 78.269 137.765 78.608 138.424 79.465 138.506 C 80.288 138.575 81.617 138.447 82.178 137.852 C 82.907 137.07 83.006 135.781 83.904 134.924 C 84.546 134.306 85.473 134.225 86.086 133.617 C 86.587 133.104 87.113 131.704 87.252 131.016 C 87.439 130.094 86.855 129.231 87.17 128.333 C 87.427 127.587 88.303 127.132 88.734 126.548 C 89.037 126.14 89.212 125.632 89.527 125.225 C 89.783 124.88 90.32 124.623 90.53 124.332 C 91.51 123.025 90.378 121.147 92.065 120.144 C 93.843 119.082 96.036 119.782 97.564 118.05 C 98.288 117.239 98.363 116.749 99.25 117.485 C 99.338 117.56 99.525 118.061 99.886 118.301 C 100.247 118.534 100.755 118.604 101.169 118.744 C 102.131 119.07 103.093 119.438 104.051 119.636 C 104.949 119.829 106.43 119.742 106.874 120.715 C 107.947 120.296 109.755 119.759 110.875 120.283 C 111.75 120.704 113.295 122.314 113.686 123.16 C 113.966 123.766 113.54 124.722 114.526 124.169 C 115.238 123.766 114.888 123.282 114.8 122.629 C 114.678 121.753 113.569 119.42 114.76 119.07 C 115.494 120.518 116.545 118.902 114.864 118.068 C 113.926 117.607 112.765 117.746 111.791 117.916 C 111.108 116.936 109.69 116.504 108.542 116.487 C 108.273 116.48 108.003 116.546 107.733 116.612 C 107.393 116.696 107.056 116.78 106.727 116.714 C 106.278 116.62 105.812 116.096 105.386 115.898 C 104.436 115.448 102.721 114.971 104.494 113.938 C 104.972 113.664 105.567 113.687 106.034 113.436 C 106.593 113.133 106.745 112.701 107.411 112.765 C 108.32 112.853 108.904 113.693 109.953 113.693 C 111.067 113.693 111.773 113.693 112.87 114.031 C 114.818 114.603 116.58 114.498 116.766 116.819 C 116.813 117.455 116.498 117.379 116.9 117.962 C 117.175 118.365 117.798 118.639 118.236 118.802 C 119.134 119.123 120.102 119.199 121.012 119.526 C 121.945 119.852 124.908 121.731 124.069 122.943 C 124.267 123.136 124.57 123.288 124.839 123.311 C 125.095 122.99 125.538 122.722 125.924 122.646 C 126.518 124.127 127.055 122.343 127.323 121.87 C 127.988 122.021 129.645 121.532 129.119 120.499 C 128.781 119.864 127.353 120.138 126.857 119.63 C 127.189 119.707 127.883 119.561 127.859 119.059 C 127.836 118.569 127.183 118.68 126.857 118.464 C 126.157 118.021 125.002 116.761 124.839 115.944 C 124.635 114.971 125.316 114.655 126.18 114.241 C 127.195 113.757 127.772 112.258 129.061 111.989 L 129.108 111.821 C 129.767 110.852 129.82 107.575 129.749 106.425 C 129.709 105.661 129.26 104.477 128.945 103.742 C 128.595 102.913 128.507 102.028 128.104 101.258 C 127.668 100.406 126.927 100.172 127.958 99.193 C 128.77 98.411 129.791 98.236 130.765 98.522 C 131.837 98.825 132.596 98.843 133.669 98.936 C 135.22 99.088 134.346 99.741 133.786 100.703 C 134.251 100.883 134.725 100.736 135.212 100.59 C 135.784 100.418 136.375 100.245 136.993 100.604 C 137.017 99.438 138.744 98.942 138.697 97.822 C 138.679 97.326 138.218 96.842 137.687 96.812 C 136.953 96.76 136.953 97.478 136.352 97.688 C 135.174 98.079 135.53 96.621 135.793 95.81 C 136.061 94.923 136.516 94.165 136.656 93.231 C 136.796 92.339 136.772 91.622 137.997 92.147 C 138.919 92.531 139.595 93.29 139.507 94.153 C 139.397 95.203 138.516 95.711 139.811 95.612 C 141.38 95.489 142.71 93.745 144.343 94.2 C 144.897 94.351 145.346 94.783 145.93 94.952 C 146.67 95.156 147.411 95.051 147.971 95.693 C 149.044 96.929 146.699 97.915 145.732 98.709 C 144.145 100.009 142.057 100.44 140.365 101.596 C 138.598 102.797 136.813 103.94 135.011 105.107 C 134.101 105.691 133.722 106.554 132.993 107.324 C 132.281 108.071 131.301 108.577 130.858 109.551 C 130.542 110.286 130.8 111.371 130.765 112.235 C 130.718 113.237 130.152 113.815 129.761 114.673 C 130.8 114.819 131.365 115.722 132.211 116.154 C 132.782 116.446 134.159 116.207 134.095 117.134 C 133.389 117.263 132.789 117.858 133.553 118.249 C 134.101 118.529 134.771 118.097 135.227 117.909 C 136.283 117.473 137.28 116.936 138.359 116.597 C 138.919 116.422 139.87 116.317 140.266 115.933 C 140.406 115.798 140.155 115.303 140.33 115.104 C 140.505 114.929 140.832 114.889 141.042 114.777 C 142.162 114.182 143.83 114.626 144.74 113.687 L 144.547 113.343 C 144.681 113.296 145.393 113.121 145.487 112.993 C 145.65 112.771 145.37 112.346 145.509 112.235 C 145.941 111.861 146.256 111.751 146.769 112.206 C 147.161 112.555 147.352 113.214 147.743 113.577 C 148.374 114.159 148.659 114.253 148.869 115.139 C 149.044 115.909 149.009 116.324 149.423 117.041 C 149.698 117.531 150.251 117.741 149.953 118.47 C 149.755 118.989 149.068 119.187 148.869 119.724 C 148.671 120.22 148.694 120.949 148.986 121.398 C 148.45 121.882 147.563 121.667 146.956 122.034 C 146.653 122.232 146.571 122.687 146.21 122.966 C 145.831 123.27 145.382 123.259 144.978 123.434 C 143.632 124.04 143.165 125.352 141.94 126.07 C 140.517 126.898 138.551 127.423 137.011 127.878 C 135.847 128.222 134.622 128.214 133.388 128.206 C 132.13 128.198 130.864 128.19 129.645 128.555 C 127.516 129.114 126.845 130.9 125.503 132.241 C 127.405 132.801 126.291 134.364 125.282 135.152 C 124.278 136.044 123.497 136.044 122.266 136.154 C 120.137 136.154 117.909 135.822 115.669 135.595 C 115.167 135.55 114.494 135.673 113.807 135.796 C 112.817 135.972 111.794 136.15 111.201 135.822 C 110.082 135.373 110.42 134.469 109.86 133.583 C 109.3 132.906 108.296 132.468 107.404 132.019 C 105.946 131.232 104.715 129.662 103.158 130.118 C 101.811 130.456 100.807 131.797 99.244 132.124 C 97.39 132.631 95.453 132.742 93.61 133.267 C 91.976 133.739 91.066 134.515 89.637 135.286 C 88.524 135.88 87.556 136.312 86.611 137.158 C 85.992 137.712 84.523 139.929 83.507 139.374 C 82.446 138.786 83.606 137.584 81.927 138.389 C 81.652 138.517 80.55 139.001 80.381 139.2 C 80.124 139.486 80.404 139.8 80.23 140.173 C 79.6 141.503 78.422 142.594 77.255 143.422 C 76.637 143.848 76.391 144.04 75.965 144.624 C 75.756 144.921 75.575 145.529 75.3 145.738 C 74.624 146.251 73.417 145.68 73.137 146.858 C 73.761 147.184 74.606 146.834 74.851 147.808 C 75.015 148.468 74.105 149.378 73.849 150.124 C 73.103 152.312 72.32 153.595 70.635 155.152 C 69.695 156.015 69.824 156.47 69.485 157.497 C 69.223 158.301 68.518 158.955 68.144 159.737 C 67.666 160.722 67.485 161.859 67.03 162.863 C 66.493 164.035 65.525 165.091 65.426 166.403 C 65.333 167.751 66.137 168.69 66.756 169.786 C 67.503 171.145 67.543 172.884 67.841 174.377 C 67.981 175.071 68.155 175.468 67.818 176.138 C 67.485 176.774 66.785 176.587 67.141 177.62 C 67.409 178.402 68.325 178.862 68.867 179.404 C 69.48 179.999 69.812 180.572 70.215 181.306 C 70.611 182.029 71.393 182.939 71.23 183.768 C 71.072 184.52 70.407 184.199 70.943 185.028 C 71.165 185.353 71.737 185.529 72.086 185.657 C 73.248 186.129 74.514 186.1 75.657 186.637 C 76.619 187.081 76.835 187.927 77.792 188.352 C 78.596 188.708 79.997 188.557 80.276 189.688 C 80.357 190.02 80.043 190.469 80.043 190.896 C 80.043 191.035 80.288 191.875 80.357 192.026 C 80.789 193.083 81.315 193.018 82.469 193.24 C 83.064 193.345 83.717 193.391 84.266 193.671 C 84.814 193.963 84.744 194.196 85.042 194.494 C 85.692 195.133 86.347 195.088 87.129 195.043 C 87.519 195.02 87.939 194.998 88.407 195.059 C 89.679 195.223 89.288 195.928 90.192 196.307 C 92.466 197.252 95.161 194.546 97.203 194.127 C 97.827 193.998 98.895 194.127 99.688 193.934 C 100.889 193.643 102.353 193.374 103.607 193.374 C 104.681 193.374 105.263 193.987 106.29 193.508 C 107.411 192.984 108.676 191.863 109.65 191.094 C 110.531 190.429 111.032 189.279 112.205 189.04 C 112.677 188.948 113.101 189.006 113.53 189.063 C 113.826 189.104 114.124 189.143 114.444 189.133 C 115.133 189.098 115.483 188.766 116.124 188.679 C 117.038 188.551 118.082 188.746 119.132 188.939 C 119.999 189.099 120.87 189.26 121.677 189.239 C 123.211 189.197 124.203 188.16 125.597 187.909 C 125.59 188.743 126.355 189.016 127.043 189.244 C 128.199 189.624 128.583 189.309 128.379 190.58 C 128.221 191.607 128.362 192.026 128.431 193.042 C 128.501 193.847 128.117 194.325 128.298 195.164 C 128.548 196.343 129.131 196.081 129.994 196.471 C 130.683 196.786 131.254 197.404 131.884 197.818 C 133.045 198.594 134.503 198.775 135.711 199.516 C 136.976 200.297 138.312 201.074 139.811 201.446 C 140.891 201.715 143.019 201.802 143.707 202.852 C 143.311 203.05 142.861 203.231 142.652 203.634 C 143.702 204.497 144.944 204.87 143.87 206.562 C 144.681 207.011 145.573 207.087 145.72 208.219 C 144.839 208.947 144.39 209.21 144.04 210.225 C 143.87 210.697 143.748 210.79 143.748 211.234 C 143.76 211.601 144.145 211.869 144.069 212.348 C 145.137 212.855 145.842 214.238 144.856 215.142 C 145.229 215.602 145.509 215.755 145.965 216.034 C 146.063 216.102 146.201 216.079 146.34 216.058 C 146.479 216.036 146.617 216.014 146.717 216.081 C 146.91 216.209 146.816 216.583 146.962 216.74 C 147.19 216.98 147.429 217.481 147.773 217.603 C 148.234 217.781 148.698 217.634 149.169 217.487 C 149.58 217.359 149.997 217.232 150.421 217.318 C 152.299 217.703 152.264 220.182 154.452 220.234 C 154.653 220.236 154.778 220.216 154.868 220.196 C 155.101 220.145 155.092 220.093 155.578 220.42 C 155.956 220.689 155.938 221.074 156.463 221.313 C 157.251 221.669 158.656 221.558 159.509 221.739 C 160.337 221.902 161.077 222.147 161.947 222.199 C 162.148 222.214 162.376 222.204 162.614 222.195 C 163.267 222.168 163.99 222.141 164.414 222.607 C 164.058 222.66 163.714 223.022 163.824 223.436 C 164 223.99 164.297 223.687 164.735 223.658 C 165.568 223.594 166.262 222.858 167.079 222.702 C 168.035 223.868 168.689 222.543 169.319 221.762 C 170.252 220.607 170.946 220.363 172.224 219.726 C 172.69 219.499 173.087 219.178 173.542 218.939 C 173.717 218.852 173.804 218.583 173.974 218.484 C 174.095 218.425 174.228 218.459 174.352 218.493 C 174.471 218.526 174.581 218.559 174.662 218.507 C 175.07 218.216 175.14 217.68 175.594 217.434 C 175.932 217.255 176.18 217.276 176.435 217.295 C 176.611 217.31 176.792 217.323 177.007 217.271 C 176.598 215.801 178.01 215.999 178.908 215.929 C 179.736 214.285 180.762 213.235 181.947 211.834 C 182.069 211.998 182.466 212.219 182.582 212.442 C 184.368 210.761 184.356 208.114 184.991 206.118 C 185.184 205.512 185.458 205.384 185.499 204.777 C 185.522 204.299 185.19 204.322 185.546 203.657 C 186.013 202.782 186.98 202.152 187.371 201.196 C 186.736 200.612 186.164 199.831 186.385 198.968 C 186.672 197.813 187.704 197.731 186.513 196.728 C 188.066 195.037 189.115 192.907 190.544 191.141 C 191.974 189.367 194.4 185.925 193.011 183.54 C 192.58 182.816 191.752 182.158 191.302 181.306 C 190.853 180.449 190.754 179.76 190.55 178.845 C 190.3 177.712 189.675 176.92 188.765 176.156 C 188.205 175.696 186.992 175.287 186.724 174.622 C 186.595 174.312 186.595 172.539 186.636 172.137 C 186.712 171.367 187.225 170.691 187.506 169.967 C 187.727 169.372 188.247 168.725 188.415 168.118 C 188.532 167.658 188.356 167.372 188.428 166.887 C 188.579 165.803 189.162 165.558 189.763 164.764 C 190.883 163.318 190.853 161.154 190.521 159.539 C 190.072 157.281 193.07 154.4 193.782 152.13 C 194.313 150.474 195.689 148.742 195.333 146.887 C 195.17 146.006 194.68 145.219 194.575 144.309 C 194.417 142.962 194.784 141.316 194.901 139.958 C 194.983 139.065 195.298 138.26 195.473 137.385 C 195.817 135.682 194.458 134.119 192.674 134.732 C 190.853 135.35 188.753 136.371 187.529 137.94 C 186.1 139.788 185.522 142.355 183.172 143.451 C 182.034 143.982 181.737 143.51 181.591 142.612 C 181.392 141.445 181.76 141.048 180.494 140.623 C 180.467 140.614 180.441 140.605 180.414 140.596 C 180.759 140.68 181.097 140.757 181.387 140.827 C 183.703 141.375 184.117 139.041 184.735 137.385 C 185.581 135.133 187.203 133.548 188.532 131.564 C 190.387 128.788 189.85 122.116 194.447 121.602 C 194.989 120.062 195.87 118.365 195.917 116.702 C 195.94 115.839 195.742 115.414 195.392 114.673 C 194.948 113.757 195.052 112.801 194.767 111.885 C 194.464 110.916 193.654 110.159 193.536 109.108 C 193.467 108.431 194.219 107.615 194.015 106.985 C 193.817 106.355 192.72 105.923 192.101 105.725 C 190.76 105.288 188.743 105.678 187.622 105.118 C 186.928 104.769 187.132 104.011 186.082 104.215 C 185.242 104.384 184.927 105.101 184.653 105.76 C 184.17 106.915 184.834 107.143 184.857 108.21 C 184.881 109.371 183.994 109.703 183.172 110.228 C 182.034 110.951 181.742 111.383 180.471 111.033 C 179.527 110.776 178.674 110.59 177.695 110.444 C 176.633 110.286 175.712 109.762 174.656 109.528 C 174.262 109.436 173.795 109.542 173.335 109.647 C 172.751 109.781 172.175 109.916 171.775 109.646 C 170.52 108.805 172.3 108.175 172.422 107.458 C 172.486 107.044 171.804 106.472 172.102 106.064 C 172.352 105.725 173.146 105.795 173.419 106.005 C 173.751 106.262 173.583 106.956 173.915 107.3 C 174.282 107.662 175.023 107.627 175.49 107.65 C 176.499 107.708 177.496 107.674 178.476 107.766 C 179.654 107.883 180.075 107.912 181.043 107.23 C 182.139 106.466 183.055 105.603 184.292 105.002 C 186.013 104.15 187.645 103.007 189.436 102.401 C 189.862 102.26 190.509 102.22 190.889 101.933 C 191.273 101.642 191.297 101.094 191.752 100.919 C 192.05 100.808 192.367 100.839 192.687 100.87 C 193.173 100.916 193.67 100.961 194.131 100.511 C 193.315 98.831 193.081 98.469 194.458 97.122 C 195.426 96.183 195.893 94.31 197.001 94.153 C 197.771 94.06 198.249 94.724 198.938 94.841 C 199.9 94.993 199.789 94.27 200.605 93.932 C 201.93 93.395 203.697 93.978 204.771 94.579 C 205.482 94.976 206.625 95.623 206.736 94.136 C 206.777 93.489 205.843 92.1 207.535 92.824 C 208.363 93.173 208.48 94.106 208.912 94.795 C 209.489 95.728 210.265 96.06 211.117 96.703 C 212.05 97.42 212.172 98.073 212.656 99.046 C 213.176 100.108 213.637 100.149 214.575 100.639 C 215.374 101.065 216.033 101.444 215.619 102.319 C 215.328 102.908 214.569 103.463 214.255 104.18 C 215.608 103.865 216.949 103.614 218.372 103.625 C 219.766 103.643 220.093 105.655 221.377 105.101 C 221.825 105.714 221.656 106.845 222.828 106.518 C 223.086 105.678 222.52 104.733 222.409 103.848 C 222.292 103.025 222.432 102.202 222.403 101.397 C 222.362 100.43 222.304 99.56 222.403 98.603 C 222.467 97.892 222.852 96.802 222.736 96.142 C 222.59 95.319 221.365 94.317 220.735 93.769 C 219.808 92.975 219.527 92.584 219.049 91.447 C 218.425 89.989 217.077 88.495 216.985 86.85 C 216.897 85.211 217.211 83.771 216.786 82.068 C 216.465 80.773 214.989 79.163 215.217 77.926 C 215.351 77.18 216.005 76.573 216.139 75.803 C 216.308 74.812 215.877 74.584 215.497 73.681 C 215.217 72.991 215.112 72.181 214.989 71.464 C 214.843 70.594 214.907 70.321 215.351 69.346 C 214.907 69.294 214.517 69.189 214.231 68.874 C 215.304 66.645 219.352 70.549 220.811 70.98 C 222.012 69.212 222.736 69.445 223.295 71.452 C 223.773 73.196 224.975 74.812 226.34 75.996 C 227.694 77.18 227.769 78.982 228.97 80.504 C 229.343 80.977 230.207 81.969 230.283 80.691 C 230.33 80.027 229.239 79.221 228.912 78.685 C 228.055 77.267 227.408 75.605 226.678 74.1 C 226.305 73.348 226.101 72.508 225.67 71.779 C 225.477 71.434 225.08 71.178 224.969 70.764 C 224.847 70.297 225.15 70.076 225.161 69.632 C 225.209 68.145 224.065 66.109 223.324 64.745 C 222.385 63.024 221.23 61.501 220.018 59.962 C 219.061 58.719 218.366 57.576 217.754 56.147 C 217.264 54.992 216.448 54.327 215.497 53.423 C 214.552 52.513 214.447 51.492 213.578 50.547 C 212.347 49.206 212.692 47.934 211.537 46.529 C 210.451 45.211 209.11 44.003 208.119 42.609 C 205.885 39.419 203.278 37.178 200.279 34.693 C 198.617 33.329 197.153 31.813 195.333 30.681 C 193.758 29.708 192.685 28.196 191.099 27.106 C 189.547 26.027 188.217 24.627 186.736 23.419 C 186.444 23.192 186.059 22.743 185.72 22.638 C 185.511 22.571 185.302 22.618 185.103 22.664 C 184.904 22.711 184.714 22.758 184.542 22.69 C 183.866 22.439 183.493 21.36 183.037 20.847 C 180.372 17.896 176.47 16.326 172.97 14.804 C 170.381 13.685 167.854 12.483 165.178 11.456 C 163.358 10.756 161.678 9.846 159.916 9.094 C 158.062 8.307 156.02 7.811 154.142 6.954 C 151.716 5.857 148.882 5.355 146.402 4.608 C 145.358 4.294 144.879 4.381 143.947 4.387 C 142.861 4.393 141.672 3.897 140.593 3.745 C 138.65 3.465 136.638 3.337 134.783 2.847 C 132.457 2.235 130.053 2.054 127.626 1.739 C 125.783 1.483 124.232 1.459 122.412 1.704 C 121.076 1.879 119.95 1.459 118.691 1.401 C 117.887 1.354 117.072 1.333 116.253 1.333 C 112.654 1.333 108.947 1.735 105.503 2.13 Z  M 157.945 133.46 C 156.883 133.191 156.709 132.591 155.898 131.681 C 154.866 130.532 151.564 128.462 154.119 126.852 C 154.399 126.665 155.092 126.619 155.437 126.513 C 155.828 126.391 155.985 126.093 156.463 126.093 C 157.91 126.093 157.391 127.12 157.77 127.995 C 158.593 129.85 161.614 130.59 163.276 131.121 C 165.084 131.693 166.193 133.092 168.082 133.477 C 169.843 133.821 171.663 134.113 173.216 135.058 C 174.848 136.05 175.577 137.269 176.919 138.506 C 177.52 139.054 178.196 139.899 178.932 140.173 C 179.237 140.285 179.604 140.391 179.981 140.488 C 179.25 140.346 178.427 140.368 177.695 140.401 C 176.61 140.453 176.406 140.908 175.478 141.276 C 174.413 139.816 173.029 139.924 171.617 140.032 C 170.439 140.122 169.244 140.211 168.199 139.391 C 167.184 138.605 167.201 137.234 166.07 136.4 C 165.096 135.682 164.134 135.017 165.049 133.722 C 164.058 132.766 161.842 132.544 160.593 132.999 C 159.836 133.271 159.434 133.574 158.749 133.574 C 158.52 133.574 158.26 133.541 157.945 133.46 Z  M 98.795 3.267 C 98.636 3.315 98.475 3.375 98.313 3.44 C 98.509 3.375 98.701 3.308 98.892 3.24 C 98.859 3.249 98.827 3.258 98.795 3.267 Z  M 97.682 3.635 C 96.806 3.874 95.663 3.874 94.999 4.375 C 96.081 4.639 97.221 3.886 98.313 3.44 C 98.109 3.509 97.9 3.574 97.682 3.635 Z  M 110.198 6.172 L 110.42 6.067 C 110.082 7.07 113.663 7.735 114.107 7.07 C 113.515 6.646 111.834 5.908 110.859 5.908 C 110.546 5.908 110.306 5.984 110.198 6.172 Z  M 49.514 23.868 C 48.71 24.475 47.765 24.86 46.949 25.403 C 46.009 26.015 45.245 26.844 44.37 27.531 C 43.507 28.185 42.579 28.756 41.797 29.538 C 41.034 30.302 40.485 31.276 39.68 32.023 C 36.624 34.834 32.867 37.401 30.867 41.18 C 29.916 42.977 28.808 44.277 27.409 45.729 C 23.646 49.649 21.412 54.467 18.53 58.935 C 15.847 63.064 12.867 66.949 11.403 71.662 C 10.739 73.79 9.536 75.657 8.824 77.704 C 8.096 79.833 7.338 81.904 6.842 84.074 C 5.792 88.623 3.931 93.01 3.686 97.711 C 3.564 100.138 3.109 102.645 2.572 105.002 C 2.21 106.6 1.732 107.72 1.873 109.249 C 1.966 110.24 1.954 111.348 1.895 112.352 C 1.86 113.086 1.382 117.974 2.123 118.05 C 2.327 118.073 2.432 117.927 2.554 117.799 C 2.164 114.918 3.663 112.795 4.695 110.228 C 4.917 109.668 6.036 105.306 7.04 107.878 C 8.16 107.54 7.938 106.541 9.501 106.204 C 10.505 105.976 12.628 106.204 10.843 107.429 C 12.406 108.665 13.072 108.216 13.188 106.541 C 13.305 105.2 13.305 103.625 13.526 102.062 C 13.526 101.509 14.191 100.954 14.191 100.511 C 14.191 99.718 13.409 99.046 13.305 98.26 C 13.188 96.708 13.865 95.914 15.311 97.256 C 15.649 97.594 15.649 98.376 16.092 98.714 C 16.763 99.385 17.994 99.274 18.216 100.167 C 18.437 101.176 16.431 103.072 16.431 104.524 C 16.537 105.76 17.545 107.994 18.111 109.33 C 18.665 110.672 20.118 111.791 21.459 110.228 C 22.917 108.665 19.669 104.862 19.669 102.844 C 19.669 101.281 20.118 100.511 20.782 99.046 C 21.576 97.484 21.459 96.48 21.576 94.806 C 21.68 92.567 21.576 90.338 21.576 88.099 C 21.68 86.641 22.018 85.188 22.24 83.736 C 22.357 83.182 22.917 82.068 22.573 81.391 C 22.114 80.472 21.85 80.863 21.509 81.253 C 21.268 81.529 20.987 81.805 20.572 81.619 C 19.446 80.935 22.357 74.357 22.573 73.12 C 22.801 72.228 23.138 70.104 22.357 69.434 C 21.237 68.314 19.895 69.767 19.563 70.437 C 18.893 71.557 18.665 72.228 17.772 73.237 C 16.537 74.573 16.431 76.025 15.533 77.372 C 14.64 78.708 13.072 79.152 12.29 80.61 C 11.73 81.619 11.847 82.621 10.843 83.293 C 9.84 81.835 13.188 78.265 13.97 76.918 C 15.2 74.906 16.204 72 16.653 69.767 C 17.212 66.978 16.985 64.51 18.665 61.95 C 19.219 61.163 21.68 58.031 22.917 58.813 C 24.247 59.716 21.459 61.95 22.124 63.508 C 22.24 63.735 22.461 64.184 22.573 64.406 C 23.582 63.84 23.138 62.843 23.582 62.055 C 23.92 61.28 24.812 61.046 25.262 60.493 C 25.821 59.594 25.04 59.262 25.926 58.702 C 26.375 58.48 26.603 59.262 26.936 59.262 C 27.496 59.04 27.711 58.59 28.277 58.369 C 30.622 57.022 30.966 57.809 29.73 59.822 C 28.949 61.163 28.831 62.732 28.166 64.061 C 27.509 65.574 26.816 65.391 25.993 65.206 C 25.413 65.077 24.77 64.947 24.031 65.41 C 23.36 65.852 23.804 68.652 23.465 69.877 C 23.138 71.33 22.573 72.898 23.243 74.24 C 24.468 76.48 25.705 74.573 26.265 72.898 C 26.487 71.779 26.487 70.775 27.268 69.877 C 27.828 70.665 27.6 71.779 28.726 72 C 29.847 72.228 30.511 70.886 30.622 69.994 C 30.622 69.545 30.068 69.212 30.068 68.874 C 30.068 68.203 30.511 68.092 30.732 67.421 C 31.071 66.751 31.293 66.196 31.619 65.631 C 31.964 64.628 32.745 63.403 32.966 62.394 C 33.078 61.385 32.634 60.825 32.745 59.822 C 32.867 58.976 33.591 58.474 33.911 57.745 C 34.232 57.022 34.343 56.117 34.653 55.354 C 34.927 54.642 35.58 54.17 35.842 53.452 C 36.158 52.612 35.994 49.941 34.559 50.723 C 34.274 50.273 34.455 48.95 34.745 48.553 C 33.755 48.354 33.153 49.311 32.611 49.987 C 32.027 50.699 31.141 51.294 30.646 52.029 C 29.735 53.382 30.482 56.217 28.178 55.447 C 28.166 54.63 28.959 54.076 29.391 53.452 C 29.916 52.693 30.167 51.947 30.511 51.108 C 31.071 49.731 32.203 48.932 32.972 47.748 C 32.086 46.126 29.619 50.349 28.855 50.641 C 28.038 49.573 29.811 48.541 30.511 48.005 C 31.59 47.187 31.619 46.674 31.427 45.403 C 31.322 44.668 30.972 43.537 31.293 42.837 C 31.427 42.533 31.858 41.88 32.296 42.043 C 32.909 42.265 32.29 43.134 32.272 43.501 C 32.185 44.808 32.745 44.762 33.416 43.834 C 34.326 42.568 35.096 41.116 36.437 40.154 C 37.19 39.605 38.514 39.261 39.038 38.393 C 39.336 37.902 39.331 36.602 39.599 35.878 C 40.257 34.064 41.518 33.364 42.795 32.104 C 43.781 31.13 45.677 29.433 46.085 28.237 C 44.813 28.698 43.215 30.448 42.445 31.551 C 41.698 32.595 40.531 34.606 39.015 34.542 C 39.4 33.487 40.625 32.95 41.354 32.104 C 42.229 31.102 42.567 30.244 43.699 29.421 C 44.638 28.739 45.582 28.039 46.359 27.187 C 47.928 25.455 49.876 24.359 51.626 22.743 C 52.529 21.921 53.743 21.349 54.763 20.73 C 56.886 19.448 58.975 18.164 61.115 16.986 L 60.999 16.706 C 56.787 18.363 53.148 21.08 49.514 23.868 Z  M 116.118 18.922 L 116.568 18.806 C 115.337 20.031 119.018 19.808 119.472 19.144 C 119.018 19.027 118.47 18.7 117.909 18.7 C 118.13 18.467 118.236 17.908 118.579 17.686 C 118.315 17.511 118.098 17.439 117.913 17.439 C 117.154 17.439 116.924 18.646 116.118 18.922 Z  M 115.559 20.369 C 114.107 20.369 113.884 20.485 112.986 21.71 L 113.223 21.633 C 113.12 21.688 113.041 21.772 112.986 21.932 C 113.884 23.28 117.793 23.501 118.13 21.267 C 118.199 20.462 117.56 20.28 116.799 20.28 C 116.391 20.28 115.948 20.332 115.559 20.369 Z  M 46.604 30.202 C 46.376 30.505 46.455 30.704 46.531 30.872 C 47.634 30.113 49.184 28.794 47.496 28.535 C 47.457 28.53 47.418 28.528 47.379 28.528 C 46.386 28.528 45.094 29.883 46.604 30.202 Z  M 45.823 31.323 L 46.604 31.102 C 46.604 31.027 46.568 30.953 46.531 30.872 C 46.242 31.07 45.984 31.23 45.823 31.323 Z  M 40.788 36.245 C 41.016 36.572 41.126 36.245 41.349 36.245 L 41.236 36.245 C 42.012 36.153 43.068 35.166 43.472 34.449 C 41.909 33.562 44.474 32.56 44.93 31.777 C 44.861 31.752 44.787 31.74 44.708 31.74 C 43.382 31.74 40.788 35.188 40.788 36.245 Z  M 117.776 34.967 C 116.446 34.533 115.716 36.306 114.888 37.027 C 114.549 37.471 113.663 37.808 113.324 38.141 C 112.322 39.482 113.103 39.033 113.884 39.92 C 114.665 41.157 114.777 42.837 115.669 44.283 C 116.672 46.185 116.789 46.861 119.018 47.083 C 119.804 47.187 122.827 47.187 121.712 45.514 C 121.433 45.105 120.906 45.154 120.411 45.205 C 120.097 45.236 119.795 45.268 119.578 45.181 C 118.579 44.732 119.018 44.844 118.579 43.723 C 118.352 43.391 117.793 43.058 117.793 42.609 C 117.688 42.277 118.236 41.495 118.236 41.495 C 117.909 40.597 117.011 40.597 116.789 39.482 C 116.451 37.914 119.362 36.018 118.691 35.237 C 118.491 34.976 118.33 34.868 118.143 34.868 C 118.034 34.868 117.916 34.904 117.776 34.967 Z  M 42.468 38.141 C 42.795 38.584 43.14 38.474 43.699 38.474 L 43.028 38.474 C 44.148 38.252 44.702 36.904 45.595 36.245 C 45.446 36.17 45.295 36.136 45.144 36.136 C 44.156 36.136 43.146 37.56 42.468 38.141 Z  M 38.671 40.713 C 38.728 40.892 38.854 40.975 39.028 41.013 C 40.778 40.54 40.588 39.343 41.465 38.141 C 41.215 38.084 41 38.058 40.813 38.058 C 39.162 38.058 39.766 40.11 38.671 40.713 Z  M 42.014 43.058 C 43.589 42.72 46.604 42.277 43.81 43.723 C 43.028 44.062 42.014 44.283 41.243 44.621 C 40.684 44.844 38.899 45.852 38.111 45.637 C 38.338 44.511 39.342 44.399 40.012 43.618 C 40.684 42.72 40.567 42.277 41.016 41.273 C 38.262 41.159 33.982 49.624 36.756 50.513 C 38.075 49.731 37.153 47.225 39.342 47.748 C 39.226 48.086 39.226 48.751 39.12 49.089 C 40.234 49.206 41.243 48.202 42.579 48.202 C 44.032 48.308 44.032 48.529 45.595 47.864 C 47.053 47.304 48.721 46.966 50.063 46.074 C 49.176 45.292 49.397 43.723 48.955 42.72 C 48.721 41.828 48.499 39.705 47.939 39.261 C 47.638 38.996 47.26 38.881 46.842 38.881 C 44.783 38.881 41.742 41.667 42.014 43.058 Z  M 38.899 41.046 L 39.563 41.046 C 39.359 41.046 39.176 41.046 39.028 41.013 C 38.986 41.024 38.943 41.035 38.899 41.046 Z  M 34.641 43.501 C 34.087 43.95 32.966 44.283 32.856 45.071 C 32.745 46.074 33.305 45.963 33.976 45.403 L 34.087 45.514 C 35.212 45.292 37.557 42.388 37.884 41.384 C 37.817 41.379 37.752 41.377 37.689 41.377 C 36.254 41.377 35.501 42.541 34.641 43.501 Z  M 33.976 46.639 L 34.197 46.185 C 33.976 46.639 33.637 46.861 34.308 47.083 C 34.985 46.406 36.094 45.852 36.216 44.954 C 35.09 44.954 34.985 46.185 33.976 46.639 Z  M 90.857 49.089 C 90.192 49.206 88.734 49.655 88.29 50.104 C 87.66 50.625 88.41 51.744 87.205 51.779 C 85.659 51.33 85.256 50.797 83.705 52.449 C 80.918 55.237 83.705 53.791 85.502 55.016 C 84.943 55.797 85.047 56.579 86.063 56.8 C 87.182 57.028 87.73 55.914 88.29 55.126 C 88.967 54.233 89.188 54.123 89.632 52.892 C 90.076 51.329 89.188 51.994 90.746 51.329 C 91.527 51.108 93.213 51.329 92.758 49.87 C 92.532 49.175 92.081 49.068 91.565 49.068 C 91.337 49.068 91.096 49.089 90.857 49.089 Z  M 55.212 49.87 C 53.977 49.987 52.862 49.87 51.743 49.87 C 51.321 49.914 51.089 49.911 50.905 49.907 C 50.6 49.9 50.426 49.894 49.736 50.104 C 48.955 50.326 48.721 51.108 47.73 50.768 L 48.062 50.104 C 45.374 49.538 43.14 49.987 40.684 51.218 C 39.226 51.994 38.222 52.998 38.777 54.573 C 39.342 56.24 41.243 55.686 41.465 57.36 C 41.687 58.702 40.451 59.483 40.234 60.603 C 39.89 61.501 40.007 62.504 39.668 63.403 C 39.453 64.289 39.004 65.299 38.899 66.196 C 38.899 66.856 40.124 66.856 39.004 67.649 C 38.443 68.203 37.557 67.649 36.997 67.533 C 37.324 68.431 37.884 69.545 37.324 70.665 C 36.88 71.668 35.877 71.89 35.09 72.898 C 34.308 73.797 34.087 75.022 33.416 76.025 C 32.856 76.918 31.853 77.483 31.736 78.603 C 31.514 79.822 32.517 80.61 32.634 81.729 C 32.745 82.733 32.185 83.736 32.185 84.635 C 32.185 85.87 32.185 88.204 33.305 88.985 L 33.194 88.653 C 34.985 90.438 37.102 87.644 37.778 86.197 C 38.338 84.96 39.89 82.511 40.007 81.391 C 41.687 81.059 42.468 81.28 44.032 80.271 C 45.483 79.268 46.493 78.375 48.278 78.148 C 50.517 77.926 53.201 78.265 55.09 76.813 C 55.884 76.247 55.884 76.025 56.327 75.132 C 56.77 74.357 57.447 73.458 57.779 72.782 C 58.228 71.668 58.45 70.549 58.899 69.434 C 59.453 67.982 60.462 67.2 61.133 65.852 C 61.576 64.844 61.355 63.403 61.915 62.394 C 62.37 61.606 64.936 60.16 62.37 60.043 C 62.918 58.813 68.4 55.914 67.17 54.683 C 66.653 54.166 66.195 54.222 65.779 54.277 C 65.205 54.353 64.713 54.429 64.259 52.998 C 64.044 52.449 64.259 51.108 63.921 50.652 C 63.262 49.87 62.918 50.768 62.136 50.768 C 60.795 50.652 60.351 49.766 59.342 49.311 C 59.009 49.171 58.707 49.115 58.421 49.115 C 57.363 49.115 56.53 49.87 55.212 49.87 Z  M 36.437 50.652 L 36.88 50.547 C 36.837 50.537 36.796 50.526 36.756 50.513 C 36.662 50.569 36.556 50.616 36.437 50.652 Z  M 58.899 80.831 C 57.89 81.059 58.34 81.84 57.668 82.173 C 56.666 82.732 52.654 81.843 53.529 84.063 C 53.587 84.06 54.777 84.759 54.986 84.96 C 55.435 85.526 55.103 86.197 55.778 86.757 C 56.886 87.982 57.779 87.2 59.121 87.09 L 58.561 87.317 C 59.902 86.979 59.902 85.97 60.574 85.194 C 60.911 84.635 62.253 84.185 62.58 83.514 C 63.367 82.173 61.809 81.84 60.69 81.391 C 60.382 81.29 59.517 80.817 59.03 80.817 C 58.982 80.817 58.938 80.821 58.899 80.831 Z  M 53.533 84.074 C 53.531 84.07 53.53 84.067 53.529 84.063 C 53.525 84.063 53.526 84.067 53.533 84.074 Z  M 231.344 85.748 C 229.997 86.314 231.228 90.111 232.348 88.985 C 232.686 88.764 232.016 85.637 231.228 85.637 L 231.344 85.748 Z  M 73.428 96.142 C 72.875 98.154 73.988 98.154 75.214 99.385 C 76.439 100.733 76.217 104.524 75.995 106.204 C 75.884 107.213 73.651 112.235 75.214 113.028 C 76.112 113.354 76.671 110.561 76.999 109.89 C 78.118 107.766 79.355 108.665 80.918 107.54 C 81.921 106.985 81.478 106.087 82.032 105.533 C 82.481 104.979 84.943 104.198 84.044 102.96 C 83.583 102.431 83.046 102.797 82.544 103.164 C 82.193 103.418 81.86 103.674 81.583 103.625 C 79.576 103.404 81.361 102.179 80.918 101.397 C 80.247 100.167 79.238 101.176 78.346 100.167 C 77.897 99.718 78.234 98.265 78.118 97.594 C 77.796 96.496 77.565 93.219 76.485 93.559 C 76.298 93.517 76.119 93.497 75.949 93.497 C 74.535 93.497 73.722 94.863 73.428 96.142 Z  M 223.517 102.844 C 223.744 102.844 224.298 103.293 224.526 103.404 C 223.517 104.308 224.859 104.524 224.526 105.643 C 226.422 106.425 226.759 104.08 226.538 102.844 C 226.31 101.958 225.308 99.718 224.298 99.385 L 224.298 99.274 C 222.963 99.828 224.526 101.841 223.517 102.844 Z  M 69.182 104.862 C 68.961 106.204 65.822 108.998 68.505 110.112 C 69.404 110.561 70.296 109.779 70.524 109.219 C 70.524 109.219 70.296 108.216 70.407 107.994 C 70.635 107.324 71.416 106.868 71.637 106.314 C 72.531 104.524 73.207 101.958 70.967 101.06 L 71.072 101.176 C 70.714 100.919 70.423 100.808 70.187 100.808 C 68.882 100.808 69.271 104.199 69.182 104.862 Z  M 98.573 119.946 L 98.795 119.841 C 97.903 121.066 99.805 121.625 100.026 120.283 L 99.361 119.619 C 99.274 119.597 99.204 119.587 99.145 119.587 C 98.894 119.587 98.843 119.766 98.573 119.946 Z  M 130.542 121.736 L 130.426 121.847 C 130.088 123.97 132.549 122.745 133.669 122.296 C 133.286 121.838 132.17 121.485 131.363 121.485 C 130.989 121.485 130.681 121.561 130.542 121.736 Z  M 99.128 124.868 L 98.795 124.53 C 98.924 125.254 99.172 125.204 99.514 125.152 C 99.753 125.117 100.04 125.081 100.364 125.312 C 100.919 125.649 101.368 126.992 101.811 127.108 C 104.051 127.656 102.481 124.752 102.37 124.308 C 102.37 123.41 103.823 123.638 102.604 122.629 C 102.37 122.296 101.589 122.185 101.14 122.185 C 100.247 122.296 98.358 123.749 99.128 124.868 Z  M 110.531 124.53 C 110.198 124.641 107.959 125.761 107.959 125.761 C 107.62 126.548 108.186 127.108 108.962 127.108 L 108.518 127.108 C 108.635 127.551 108.962 128.112 109.522 128.216 C 109.86 128.333 110.198 127.551 110.531 127.551 C 110.869 127.551 111.54 127.884 111.424 127.884 C 112.205 127.884 115.005 127.773 112.986 126.093 C 114.843 125 113.336 124.287 111.858 124.287 C 111.372 124.287 110.89 124.364 110.531 124.53 Z  M 2.455 133.915 C 2.351 134.143 2.455 134.143 2.455 134.364 L 2.677 134.26 C 2.351 136.376 3.797 138.727 3.914 140.955 C 4.025 142.973 4.135 148.001 5.92 149.337 C 6.935 148.555 5.477 146.543 5.477 145.539 C 5.36 143.872 5.477 142.519 5.139 140.955 C 4.818 139.448 4.389 133.891 2.657 133.891 C 2.591 133.891 2.524 133.899 2.455 133.915 Z  M 6.818 150.236 C 6.904 150.24 6.986 150.252 7.067 150.27 C 7.093 150.17 7.121 150.083 7.151 150.013 L 6.818 150.236 Z  M 7.717 154.032 C 9.642 154.895 9 150.705 7.067 150.27 C 6.807 151.276 6.794 153.629 7.717 154.032 Z  M 10.843 164.986 L 10.61 164.654 C 10.61 164.875 10.61 165.103 10.726 165.208 C 11.508 168.568 13.865 171.81 15.533 174.703 C 17.212 177.62 18.437 180.524 20.227 183.202 C 22.24 186.334 24.812 189.016 26.936 192.032 C 27.945 193.485 28.609 194.937 29.847 196.285 C 30.966 197.62 32.296 198.623 33.416 199.97 C 35.877 202.981 38.443 205.22 41.465 207.682 C 44.148 209.915 46.044 212.605 49.281 214.156 C 50.967 214.833 52.862 215.393 54.203 216.734 C 55.324 217.853 56.106 219.522 57.668 220.42 C 58.671 221.091 59.453 220.981 60.574 221.202 C 62.474 221.54 63.589 222.987 65.158 223.436 C 64.819 222.66 63.816 222.433 63.029 221.866 C 62.253 221.202 61.799 220.205 61.355 219.418 C 60.795 218.635 58.789 216.623 59.116 215.393 C 59.792 215.393 59.681 215.061 60.124 214.833 C 59.342 214.272 59.57 213.712 60.462 213.602 C 59.792 211.706 57.109 210.587 55.545 209.467 C 54.647 208.906 53.644 208.124 52.862 207.454 C 52.419 207.122 52.186 206.562 51.743 206.23 C 51.501 206.045 51.292 206.062 51.079 206.079 C 50.902 206.092 50.721 206.107 50.517 206.002 C 49.625 205.441 48.955 204.55 48.062 203.995 C 47.053 203.33 46.493 203.546 45.595 203.097 C 44.93 202.87 43.367 201.977 42.923 201.761 C 42.358 201.312 41.909 200.857 41.576 200.076 C 39.89 200.98 38.777 198.18 37.884 197.282 C 36.88 196.389 34.869 195.947 33.533 194.715 C 32.745 193.823 32.966 193.823 32.413 192.703 C 31.736 191.699 31.182 191.699 30.29 190.918 C 29.286 189.799 28.609 188.458 27.828 187.337 C 25.821 184.549 22.357 183.091 20.455 179.854 C 18.553 176.943 17.545 173.933 15.533 171.017 C 14.53 169.687 13.409 168.229 12.517 166.777 C 11.963 165.657 11.065 162.863 10.283 162.42 C 9.84 163.312 10.4 164.204 10.843 164.986 Z  M 203.628 173.374 C 203.405 173.933 202.507 175.274 202.39 175.607 C 202.175 176.494 202.507 177.398 202.175 178.402 C 201.726 179.743 201.166 179.964 200.384 180.973 C 198.938 182.986 199.941 184.094 199.824 186.112 C 199.714 187.337 199.608 187.781 198.938 188.458 C 198.261 189.128 197.258 188.574 197.141 190.02 C 197.368 190.02 197.817 190.137 198.04 190.02 C 198.372 191.817 196.815 194.156 200.496 193.152 C 201.621 192.814 206.311 190.58 203.511 189.799 C 204.077 189.239 205.079 188.684 205.418 187.897 C 206.416 185.996 205.19 187.559 204.969 186.112 C 204.63 184.771 207.092 182.198 207.419 180.524 C 207.873 178.512 208.544 172.142 205.639 171.693 L 205.744 171.81 C 205.477 171.588 205.242 171.495 205.033 171.495 C 204.291 171.494 203.891 172.672 203.628 173.374 Z " fill="url(#_rgradient_32)"/></g><g><path d=" M 238.046 119.45 C 238.046 111.313 237.218 103.363 235.666 95.676 C 231.98 95.18 228.084 94.398 224.45 93.138 C 206.742 87.002 194.488 73.738 194.434 73.68 L 188.444 79.711 C 185.972 82.102 178.704 88.146 164.408 93.103 C 156.008 96.014 146.098 96.451 140.936 96.451 C 137.792 96.451 135.764 96.3 135.646 96.288 L 130.158 95.856 L 129.276 101.286 C 128.916 103.515 120.645 156.173 136.942 191.379 C 144.262 207.203 156.108 219.668 167.184 228.598 C 208.864 209.991 238.046 168.106 238.046 119.45 Z " fill="rgb(8,32,71)"/></g><g><linearGradient id="_lgradient_353" x1="0" y1="0.5" x2="1" y2="0.5" gradientTransform="matrix(123.136,0,0,157.029,132.864,81.881)" gradientUnits="userSpaceOnUse"><stop offset="0%" stop-opacity="1" style="stop-color:rgb(108,110,112)"/><stop offset="53.6%" stop-opacity="1" style="stop-color:rgb(63,62,64)"/><stop offset="100%" stop-opacity="1" style="stop-color:rgb(63,62,64)"/></linearGradient><path d=" M 194.429 81.934 L 194.417 81.922 L 194.417 81.951 C 194.126 82.698 186.176 91.879 166.368 98.744 C 152.299 103.625 135.174 102.243 135.174 102.243 C 135.174 102.243 126.646 154.918 142.36 188.871 C 157.828 222.305 194.405 238.945 194.481 238.91 L 194.494 238.899 C 196.505 237.842 231.03 222.352 246.51 188.912 C 253.967 172.8 255.962 153.717 256 138.11 L 256 137.194 C 255.959 120.371 253.684 107.808 253.684 107.808 L 253.684 102.284 C 253.684 102.284 236.57 103.667 222.496 98.784 C 202.693 91.919 194.452 81.881 194.452 81.881 L 194.429 81.934 Z " fill="url(#_lgradient_353)"/></g><g><linearGradient id="_lgradient_354" x1="0" y1="0.5" x2="1" y2="0.5" gradientTransform="matrix(50.538,0,0,129.341,143.879,97.128)" gradientUnits="userSpaceOnUse"><stop offset="0%" stop-opacity="1" style="stop-color:rgb(187,189,191)"/><stop offset="50.2%" stop-opacity="1" style="stop-color:rgb(230,231,232)"/><stop offset="100%" stop-opacity="1" style="stop-color:rgb(219,220,222)"/></linearGradient><path d=" M 169.984 109.167 C 161.439 112.13 152.194 113.138 144.944 113.39 C 143.421 129.243 141.981 161.79 152.374 184.234 C 162.897 206.971 185.003 221.213 194.417 226.469 L 194.417 97.338 L 194.027 97.128 C 188.328 101.222 180.366 105.568 169.984 109.167 Z " fill="url(#_lgradient_354)"/></g><g><linearGradient id="_lgradient_355" x1="0" y1="0.5" x2="1" y2="0.5" gradientTransform="matrix(50.54,0,0,129.166,194.417,97.338)" gradientUnits="userSpaceOnUse"><stop offset="0%" stop-opacity="1" style="stop-color:rgb(187,189,191)"/><stop offset="50.2%" stop-opacity="1" style="stop-color:rgb(230,231,232)"/><stop offset="100%" stop-opacity="1" style="stop-color:rgb(219,220,222)"/></linearGradient><path d=" M 194.417 226.469 C 194.435 226.481 194.458 226.498 194.47 226.504 C 206.007 220.205 226.154 206.608 236.495 184.281 C 248.154 159.095 244.853 124.577 243.365 113.413 C 236.203 113.128 227.215 112.094 218.886 109.207 C 210.661 106.361 204.134 102.995 199.136 99.822 L 194.417 97.338 L 194.417 226.469 Z " fill="url(#_lgradient_355)"/></g></g></g></svg>