<?xml version="1.0" encoding="UTF-8" standalone="no"?><!-- Generator: Gravit.io --><svg xmlns="http://www.w3.org/2000/svg" xmlns:xlink="http://www.w3.org/1999/xlink" style="isolation:isolate" viewBox="0 0 255.076 256" width="255.076pt" height="256pt"><defs><clipPath id="_clipPath_Ee7KVXLCkYt350eW70A8ISkZxfyDmhni"><rect width="255.076" height="256"/></clipPath></defs><g clip-path="url(#_clipPath_Ee7KVXLCkYt350eW70A8ISkZxfyDmhni)"><g><g><radialGradient id="_rgradient_33" fx="0.367" fy="0.336" cx="0.367" cy="0.336" r="0.353" gradientTransform="matrix(255.075,0,0,256,0.001,0)" gradientUnits="userSpaceOnUse"><stop offset="0%" stop-opacity="1" style="stop-color:rgb(46,147,208)"/><stop offset="100%" stop-opacity="1" style="stop-color:rgb(42,46,119)"/></radialGradient><path d=" M 127.533 0 C 57.214 0 0.001 57.419 0.001 127.994 C 0.001 198.575 57.214 256 127.533 256 C 197.857 256 255.076 198.575 255.076 127.994 C 255.076 57.419 197.857 0 127.533 0 Z " fill="url(#_rgradient_33)"/></g><g><radialGradient id="_rgradient_34" fx="0.5" fy="0.5" cx="0.5" cy="0.5" r="0.491" gradientTransform="matrix(247.231,0,0,238.345,1.835,1.428)" gradientUnits="userSpaceOnUse"><stop offset="0%" stop-opacity="1" style="stop-color:rgb(204,219,240)"/><stop offset="100%" stop-opacity="1" style="stop-color:rgb(173,197,230)"/></radialGradient><path d=" M 113.051 2.281 C 112.576 2.332 112.133 2.308 111.699 2.284 C 111.232 2.258 110.774 2.232 110.295 2.3 C 109.307 2.45 108.257 2.812 107.294 3.05 C 106.83 3.17 106.403 3.318 105.974 3.469 C 107.219 3.138 108.776 3.15 110.051 3.144 C 110.687 3.141 111.274 3.219 111.852 3.297 C 112.631 3.402 113.39 3.506 114.22 3.412 C 114.548 3.377 114.939 3.525 115.338 3.673 C 115.983 3.914 116.652 4.153 117.12 3.612 C 117.545 3.913 117.538 3.925 117.958 3.788 C 118.257 4.444 118.858 4.706 119.276 4.025 C 119.686 4.647 120.163 4.636 120.692 4.626 C 120.928 4.621 121.176 4.617 121.432 4.669 C 122.295 4.85 123.095 5.412 123.944 5.624 C 125.944 6.15 130.845 6.125 132.076 8.15 C 130.176 9.126 131.431 10.213 132.332 11.287 C 132.794 11.85 133.057 12.112 132.932 12.969 C 132.788 13.887 132.082 13.75 133.169 14.281 C 133.782 14.588 135.495 14.325 134.995 15.512 C 134.701 16.225 133.72 16.093 133.169 15.962 C 131.982 15.675 130.07 14.062 128.875 15.15 C 129.095 15.543 129.457 16.312 129.338 16.8 C 129.194 17.369 128.395 17.531 128.37 18.118 C 128.295 19.612 130.257 19.15 130.982 19.581 C 132.295 20.338 131.576 21.387 131.17 22.338 C 130.814 23.131 130.507 25.112 132.057 24.363 C 132.77 25.069 132.882 26.031 133.432 26.838 C 134.082 27.763 135.707 28.162 136.251 29.043 C 136.657 29.7 136.182 30.95 136.994 31.437 C 137.424 31.698 138.006 31.536 138.587 31.374 C 139.036 31.248 139.486 31.122 139.864 31.193 C 138.82 32.312 138.964 33.437 137.595 34.163 C 137.17 34.394 135.832 34.812 136.182 35.575 C 136.37 35.993 137.457 35.844 137.82 36.075 C 137.707 36.313 137.676 36.75 137.501 37.013 C 137.938 37.281 139.507 37.544 139.195 38.362 C 138.957 38.988 137.669 38.531 137.238 38.444 C 136.507 38.3 136.001 38.15 135.476 37.725 C 134.882 37.25 134.939 36.519 133.901 36.7 C 133.663 38.046 133.405 37.98 132.651 37.912 C 132.435 37.893 132.178 37.874 131.87 37.888 C 131.851 39.075 134.563 39.762 135.445 40.381 C 136.82 41.363 141.657 44.325 137.839 45.332 C 136.782 45.612 135.519 45.837 134.807 46.825 C 134.107 47.788 135.082 48.68 134.757 49.512 C 134.563 50.005 133.882 50.112 133.619 50.537 C 133.394 50.875 133.464 51.462 133.258 51.881 C 132.801 52.837 131.789 53.187 131.219 54.012 C 130.432 55.162 130.426 56.574 129.332 57.487 C 128.595 58.1 127.614 59.15 126.695 59.437 C 125.482 59.819 124.833 59.388 125.745 60.75 C 126.388 61.694 127.457 62 128.094 62.9 C 127.207 63.306 127.445 63.712 127.032 64.313 C 126.67 64.863 125.701 65.375 125.495 66.012 C 125.395 66.306 125.907 66.475 125.838 66.825 C 125.77 67.144 125.413 67.518 125.239 67.813 C 124.833 68.463 124.413 68.925 123.933 69.481 C 124.195 69.781 124.307 70.212 124.413 70.543 C 123.399 71.143 122.391 70.89 121.39 70.638 C 120.646 70.451 119.905 70.263 119.17 70.425 C 120.37 69.175 118.257 69.681 118.288 68.862 C 118.313 68.238 119.17 68.031 119.639 67.925 C 120.444 67.75 120.495 67.906 121.219 67.481 C 121.908 67.075 123.388 66.325 123.832 65.662 C 124.145 65.2 123.982 64.7 124.207 64.25 C 124.413 63.856 124.92 63.85 125.007 63.287 C 124.095 63.012 123.007 62.549 122.032 62.425 C 120.982 62.281 120.533 62.781 119.614 62.988 C 118.62 63.225 117.757 63.18 116.757 63.531 C 115.057 64.138 113.333 64.05 111.695 64.549 C 110.901 64.787 110.157 65.463 109.307 65.569 C 108.194 65.712 107.676 65.512 106.589 66.132 C 105.007 67.038 102.769 68.437 101.795 69.968 C 101.164 70.963 101.164 71.931 100.707 72.963 C 100.357 73.774 99.626 74.325 99.132 75.087 C 98.589 75.906 98.469 76.719 98.207 77.637 C 97.844 78.85 97.095 78.993 96.395 79.906 C 97.795 82.188 94.932 84.062 93.77 85.531 C 93.032 86.45 92.907 87.637 91.945 88.38 C 91.194 88.963 89.782 88.768 89.388 89.619 C 91.526 91.387 89.57 95.388 92.807 96.556 C 93.632 96.85 93.976 96.263 94.726 96.188 C 95.42 96.125 96.019 96.425 96.645 96.55 C 98.145 96.843 99.519 96.606 100.958 97.299 C 102.426 98 104.207 100.124 105.751 99.662 C 107.395 99.18 108.132 96.55 108.744 94.994 C 109.057 94.187 109.395 92.912 109.194 92.025 C 109.12 91.737 108.607 91.188 108.62 90.925 C 108.62 90.137 109.032 90.631 109.245 90.125 C 109.782 88.862 109.007 88.988 107.895 88.437 C 106.957 87.975 106.432 87.356 105.895 86.493 C 104.601 84.381 105.276 82.475 106.457 80.375 C 106.751 79.856 107.22 78.875 107.657 78.462 C 108.044 78.1 108.607 78.1 108.976 77.787 C 109.413 77.4 109.82 75.525 110.745 76.312 C 111.775 77.193 109.47 80.624 108.97 81.462 C 108.176 82.825 109.007 83.85 110.032 84.75 C 110.439 85.113 111.119 85.831 111.632 86.025 C 112.04 86.177 112.413 86.12 112.804 86.063 C 113.072 86.024 113.349 85.986 113.651 86.012 C 114.62 86.106 115.057 86.857 114.382 87.669 C 116.27 88.312 115.857 90.063 114.932 91.25 C 113.97 92.487 113.801 93.799 114.101 95.262 C 114.332 96.425 114.67 96.55 113.77 97.388 C 113.107 98 112.588 98.306 112.057 99.063 C 111.132 100.413 109.663 101.519 108.026 101.825 C 106.745 102.062 105.457 102.125 104.182 102.55 C 103.457 102.78 101.994 103.875 101.282 103.525 C 99.92 102.862 101.72 102.2 101.826 101.487 C 101.908 100.856 101.038 100.25 100.508 99.763 C 100.145 99.424 98.738 97.944 98.32 97.863 C 96.62 97.562 97.7 99.312 97.844 99.9 C 98.107 100.931 97.982 101.762 98.345 102.775 C 99.338 105.499 96.945 104.887 95.707 106.274 C 95.345 106.687 95.339 107.4 94.838 107.9 C 94.457 108.288 94.014 108.631 93.62 109.013 C 92.501 110.087 92.601 110.862 92.12 112.238 C 91.739 113.312 91.132 114.631 90.532 115.594 C 89.77 116.831 88.595 118.2 87.332 118.956 C 86.32 119.562 85.07 119.569 84.22 120.381 C 83.87 120.712 83.764 121.138 83.357 121.463 C 82.994 121.75 82.47 121.718 82.157 122.187 C 81.32 123.375 82.92 123 83.707 123.525 C 85.145 124.487 87.494 126.638 87.032 128.412 C 86.426 130.75 84.382 131.612 82.419 132.575 C 81.069 133.237 79.995 133.293 78.557 133.437 C 77.395 133.556 76.832 133.743 76.883 134.993 C 76.932 136.143 77.445 136.856 76.914 138 C 76.457 138.975 75.301 139.762 75.482 140.987 C 75.632 142.125 76.708 142.613 77.363 143.35 C 78.207 144.299 77.801 145.013 77.957 146.132 C 78.211 147.832 79.631 147.662 81.051 147.491 C 81.693 147.413 82.335 147.337 82.869 147.431 C 83.87 147.618 84.232 148.325 85.151 148.412 C 86.032 148.487 87.457 148.35 88.057 147.712 C 88.839 146.875 88.945 145.493 89.907 144.575 C 90.595 143.912 91.589 143.825 92.245 143.175 C 92.782 142.624 93.345 141.125 93.495 140.387 C 93.695 139.4 93.07 138.475 93.407 137.512 C 93.682 136.712 94.62 136.224 95.082 135.6 C 95.407 135.162 95.594 134.619 95.933 134.181 C 96.207 133.812 96.782 133.537 97.007 133.225 C 98.057 131.824 96.844 129.813 98.651 128.737 C 100.557 127.6 102.907 128.35 104.545 126.494 C 105.32 125.625 105.401 125.1 106.351 125.887 C 106.445 125.969 106.645 126.506 107.032 126.762 C 107.42 127.013 107.963 127.088 108.408 127.237 C 109.438 127.587 110.47 127.98 111.495 128.194 C 112.457 128.4 114.044 128.306 114.52 129.35 C 115.67 128.9 117.607 128.325 118.807 128.887 C 119.745 129.338 121.401 131.062 121.82 131.968 C 122.12 132.619 121.664 133.643 122.719 133.049 C 123.482 132.619 123.107 132.1 123.014 131.399 C 122.882 130.462 121.694 127.962 122.97 127.587 C 123.757 129.137 124.882 127.406 123.082 126.512 C 122.076 126.018 120.832 126.169 119.788 126.351 C 119.057 125.3 117.538 124.837 116.307 124.819 C 116.019 124.811 115.729 124.882 115.44 124.953 C 115.077 125.043 114.715 125.132 114.363 125.063 C 113.882 124.963 113.382 124.4 112.926 124.188 C 111.908 123.706 110.069 123.193 111.97 122.087 C 112.482 121.793 113.119 121.819 113.62 121.55 C 114.22 121.225 114.382 120.762 115.095 120.832 C 116.069 120.924 116.695 121.824 117.82 121.824 C 119.013 121.824 119.77 121.824 120.945 122.187 C 123.032 122.8 124.92 122.688 125.12 125.175 C 125.169 125.856 124.833 125.775 125.264 126.4 C 125.557 126.831 126.226 127.125 126.695 127.3 C 127.657 127.644 128.695 127.725 129.669 128.075 C 130.67 128.425 133.844 130.437 132.945 131.738 C 133.158 131.944 133.482 132.106 133.77 132.131 C 134.044 131.787 134.52 131.499 134.932 131.419 C 135.57 133.006 136.145 131.093 136.432 130.588 C 137.145 130.75 138.919 130.225 138.357 129.119 C 137.994 128.437 136.463 128.731 135.932 128.187 C 136.288 128.268 137.032 128.112 137.007 127.575 C 136.982 127.05 136.282 127.169 135.932 126.937 C 135.183 126.462 133.944 125.112 133.77 124.237 C 133.551 123.193 134.282 122.857 135.207 122.412 C 136.294 121.894 136.913 120.287 138.295 120 L 138.344 119.819 C 139.051 118.781 139.108 115.269 139.032 114.037 C 138.989 113.219 138.507 111.951 138.17 111.162 C 137.794 110.275 137.701 109.325 137.27 108.5 C 136.801 107.587 136.007 107.338 137.113 106.288 C 137.983 105.45 139.076 105.262 140.12 105.569 C 141.269 105.894 142.082 105.912 143.232 106.012 C 144.895 106.174 143.958 106.874 143.357 107.906 C 143.856 108.099 144.364 107.942 144.885 107.784 C 145.498 107.6 146.132 107.415 146.794 107.8 C 146.82 106.55 148.67 106.019 148.62 104.819 C 148.601 104.287 148.108 103.769 147.538 103.738 C 146.751 103.681 146.751 104.45 146.107 104.675 C 144.844 105.093 145.226 103.531 145.507 102.663 C 145.795 101.712 146.281 100.899 146.432 99.9 C 146.582 98.944 146.557 98.175 147.87 98.738 C 148.857 99.15 149.583 99.963 149.488 100.887 C 149.37 102.012 148.426 102.556 149.813 102.45 C 151.494 102.319 152.92 100.45 154.669 100.937 C 155.263 101.099 155.745 101.562 156.37 101.744 C 157.163 101.962 157.957 101.85 158.557 102.537 C 159.707 103.862 157.195 104.919 156.157 105.768 C 154.457 107.163 152.22 107.625 150.407 108.862 C 148.513 110.15 146.601 111.375 144.67 112.625 C 143.694 113.25 143.289 114.174 142.507 115 C 141.745 115.8 140.694 116.343 140.22 117.387 C 139.882 118.175 140.157 119.338 140.12 120.262 C 140.07 121.338 139.463 121.956 139.045 122.875 C 140.157 123.031 140.763 124 141.669 124.462 C 142.282 124.775 143.757 124.518 143.689 125.513 C 142.932 125.65 142.288 126.288 143.107 126.706 C 143.694 127.006 144.414 126.543 144.901 126.343 C 146.032 125.874 147.101 125.3 148.257 124.938 C 148.857 124.75 149.876 124.638 150.301 124.225 C 150.451 124.082 150.182 123.55 150.369 123.337 C 150.557 123.15 150.908 123.106 151.132 122.987 C 152.332 122.35 154.12 122.825 155.094 121.819 L 154.888 121.45 C 155.032 121.4 155.794 121.212 155.894 121.075 C 156.069 120.837 155.77 120.381 155.92 120.262 C 156.382 119.862 156.72 119.744 157.27 120.231 C 157.689 120.606 157.894 121.312 158.314 121.7 C 158.989 122.325 159.295 122.425 159.52 123.375 C 159.707 124.2 159.669 124.644 160.114 125.413 C 160.407 125.937 161.001 126.162 160.682 126.944 C 160.469 127.5 159.732 127.712 159.52 128.287 C 159.307 128.818 159.332 129.6 159.645 130.081 C 159.07 130.599 158.12 130.369 157.469 130.762 C 157.145 130.975 157.057 131.462 156.669 131.762 C 156.263 132.087 155.782 132.074 155.351 132.263 C 153.907 132.912 153.407 134.319 152.095 135.088 C 150.57 135.975 148.464 136.538 146.813 137.024 C 145.566 137.393 144.254 137.384 142.933 137.376 C 141.584 137.367 140.226 137.359 138.919 137.75 C 136.638 138.35 135.92 140.263 134.482 141.7 C 136.52 142.299 135.326 143.975 134.245 144.818 C 133.169 145.774 132.332 145.774 131.013 145.894 C 128.732 145.894 126.345 145.538 123.944 145.294 C 123.407 145.245 122.687 145.377 121.95 145.509 C 120.888 145.699 119.792 145.889 119.157 145.538 C 117.958 145.056 118.319 144.087 117.72 143.137 C 117.12 142.412 116.044 141.944 115.088 141.462 C 113.526 140.619 112.207 138.938 110.539 139.425 C 109.094 139.787 108.02 141.225 106.345 141.575 C 104.358 142.118 102.282 142.237 100.308 142.8 C 98.557 143.307 97.583 144.137 96.051 144.962 C 94.857 145.6 93.82 146.062 92.807 146.969 C 92.145 147.563 90.57 149.938 89.482 149.344 C 88.345 148.712 89.588 147.425 87.789 148.287 C 87.494 148.425 86.314 148.943 86.132 149.156 C 85.857 149.462 86.157 149.8 85.97 150.2 C 85.294 151.625 84.032 152.793 82.782 153.682 C 82.12 154.138 81.857 154.344 81.4 154.969 C 81.176 155.287 80.982 155.937 80.689 156.163 C 79.963 156.712 78.67 156.1 78.369 157.363 C 79.038 157.712 79.944 157.337 80.207 158.381 C 80.383 159.087 79.407 160.062 79.133 160.862 C 78.332 163.205 77.495 164.581 75.688 166.249 C 74.682 167.175 74.82 167.662 74.457 168.762 C 74.175 169.625 73.42 170.325 73.02 171.162 C 72.507 172.219 72.313 173.438 71.826 174.512 C 71.251 175.769 70.214 176.9 70.107 178.306 C 70.007 179.75 70.87 180.755 71.532 181.931 C 72.332 183.387 72.376 185.25 72.695 186.85 C 72.844 187.594 73.032 188.018 72.67 188.738 C 72.313 189.419 71.564 189.218 71.944 190.325 C 72.232 191.162 73.214 191.656 73.795 192.238 C 74.451 192.875 74.807 193.488 75.239 194.274 C 75.664 195.049 76.501 196.025 76.326 196.912 C 76.157 197.719 75.444 197.375 76.019 198.262 C 76.257 198.612 76.869 198.8 77.244 198.937 C 78.489 199.444 79.844 199.413 81.069 199.988 C 82.101 200.462 82.332 201.368 83.357 201.824 C 84.22 202.206 85.72 202.043 86.019 203.256 C 86.107 203.612 85.77 204.093 85.77 204.55 C 85.77 204.699 86.032 205.6 86.107 205.763 C 86.57 206.893 87.133 206.825 88.369 207.062 C 89.007 207.175 89.708 207.225 90.294 207.525 C 90.882 207.837 90.807 208.087 91.126 208.406 C 91.823 209.09 92.524 209.042 93.361 208.994 C 93.779 208.971 94.231 208.946 94.732 209.013 C 96.095 209.187 95.675 209.943 96.645 210.35 C 99.082 211.363 101.97 208.462 104.157 208.012 C 104.826 207.874 105.97 208.012 106.819 207.806 C 108.107 207.494 109.676 207.206 111.02 207.206 C 112.17 207.206 112.794 207.863 113.895 207.35 C 115.095 206.787 116.451 205.587 117.495 204.762 C 118.439 204.05 118.976 202.819 120.232 202.562 C 120.739 202.463 121.193 202.525 121.653 202.587 C 121.971 202.63 122.29 202.673 122.632 202.662 C 123.37 202.625 123.745 202.269 124.432 202.175 C 125.411 202.039 126.527 202.247 127.652 202.454 C 128.581 202.626 129.516 202.798 130.382 202.775 C 132.025 202.731 133.088 201.618 134.582 201.35 C 134.575 202.244 135.395 202.537 136.132 202.781 C 137.37 203.187 137.782 202.85 137.563 204.212 C 137.395 205.312 137.544 205.763 137.619 206.85 C 137.695 207.712 137.282 208.224 137.476 209.125 C 137.745 210.387 138.37 210.106 139.295 210.525 C 140.032 210.862 140.645 211.525 141.32 211.968 C 142.564 212.8 144.126 212.993 145.42 213.787 C 146.776 214.624 148.207 215.456 149.813 215.856 C 150.97 216.143 153.251 216.237 153.988 217.363 C 153.563 217.575 153.082 217.768 152.857 218.2 C 153.983 219.125 155.314 219.525 154.164 221.337 C 155.032 221.819 155.988 221.9 156.145 223.112 C 155.201 223.893 154.72 224.175 154.345 225.262 C 154.164 225.768 154.032 225.869 154.032 226.344 C 154.044 226.737 154.457 227.025 154.376 227.538 C 155.52 228.081 156.276 229.563 155.219 230.531 C 155.619 231.025 155.92 231.187 156.407 231.488 C 156.514 231.56 156.661 231.536 156.81 231.513 C 156.958 231.489 157.107 231.465 157.214 231.537 C 157.42 231.675 157.32 232.075 157.476 232.244 C 157.72 232.5 157.976 233.037 158.344 233.169 C 158.838 233.36 159.336 233.202 159.842 233.045 C 160.282 232.907 160.728 232.769 161.183 232.862 C 163.194 233.275 163.157 235.931 165.501 235.988 C 165.717 235.989 165.851 235.969 165.947 235.947 C 166.197 235.891 166.188 235.835 166.708 236.187 C 167.113 236.475 167.095 236.887 167.657 237.144 C 168.501 237.525 170.007 237.406 170.92 237.6 C 171.807 237.775 172.6 238.037 173.533 238.094 C 173.748 238.109 173.992 238.098 174.246 238.088 C 174.947 238.06 175.721 238.031 176.176 238.531 C 175.795 238.588 175.426 238.975 175.545 239.419 C 175.732 240.012 176.051 239.687 176.52 239.656 C 177.413 239.588 178.157 238.8 179.032 238.631 C 180.058 239.881 180.758 238.462 181.432 237.625 C 182.432 236.387 183.176 236.124 184.545 235.444 C 185.044 235.2 185.469 234.856 185.957 234.6 C 186.145 234.506 186.239 234.219 186.42 234.112 C 186.549 234.049 186.692 234.085 186.825 234.122 C 186.953 234.157 187.071 234.193 187.158 234.137 C 187.594 233.825 187.67 233.25 188.157 232.988 C 188.518 232.796 188.784 232.818 189.057 232.839 C 189.246 232.854 189.439 232.869 189.67 232.812 C 189.232 231.237 190.744 231.45 191.707 231.375 C 192.595 229.612 193.694 228.487 194.963 226.988 C 195.095 227.162 195.52 227.4 195.645 227.637 C 197.557 225.837 197.545 223 198.226 220.862 C 198.432 220.212 198.726 220.075 198.77 219.425 C 198.795 218.912 198.438 218.938 198.82 218.224 C 199.32 217.287 200.357 216.612 200.776 215.587 C 200.094 214.963 199.482 214.125 199.72 213.2 C 200.026 211.962 201.132 211.875 199.857 210.8 C 201.52 208.988 202.645 206.706 204.176 204.812 C 205.708 202.912 208.308 199.225 206.819 196.668 C 206.357 195.893 205.47 195.187 204.988 194.274 C 204.507 193.356 204.401 192.619 204.182 191.637 C 203.913 190.425 203.244 189.575 202.27 188.756 C 201.669 188.262 200.37 187.825 200.083 187.112 C 199.945 186.781 199.945 184.881 199.988 184.45 C 200.069 183.625 200.62 182.9 200.92 182.124 C 201.157 181.487 201.713 180.793 201.894 180.143 C 202.019 179.65 201.832 179.343 201.908 178.825 C 202.07 177.662 202.694 177.399 203.339 176.55 C 204.538 175 204.507 172.681 204.151 170.95 C 203.669 168.531 206.882 165.444 207.644 163.013 C 208.213 161.237 209.688 159.381 209.307 157.393 C 209.132 156.45 208.607 155.606 208.494 154.631 C 208.326 153.188 208.72 151.424 208.844 149.968 C 208.932 149.012 209.27 148.149 209.457 147.212 C 209.826 145.387 208.37 143.712 206.457 144.368 C 204.507 145.031 202.257 146.124 200.945 147.807 C 199.413 149.787 198.795 152.538 196.277 153.712 C 195.057 154.281 194.738 153.774 194.582 152.812 C 194.369 151.562 194.764 151.137 193.407 150.681 C 193.379 150.672 193.351 150.662 193.323 150.653 C 193.692 150.743 194.053 150.825 194.363 150.9 C 196.844 151.488 197.289 148.987 197.951 147.212 C 198.857 144.8 200.595 143.1 202.019 140.975 C 204.007 138 203.432 130.85 208.357 130.3 C 208.939 128.65 209.882 126.831 209.932 125.05 C 209.957 124.125 209.745 123.669 209.37 122.875 C 208.895 121.894 209.007 120.869 208.701 119.888 C 208.376 118.85 207.508 118.037 207.382 116.912 C 207.307 116.188 208.113 115.312 207.895 114.637 C 207.682 113.962 206.507 113.499 205.844 113.287 C 204.407 112.818 202.244 113.238 201.045 112.637 C 200.301 112.263 200.52 111.449 199.395 111.669 C 198.494 111.85 198.157 112.619 197.863 113.325 C 197.345 114.562 198.058 114.806 198.082 115.95 C 198.107 117.194 197.158 117.55 196.277 118.112 C 195.057 118.887 194.745 119.349 193.382 118.975 C 192.37 118.7 191.457 118.5 190.408 118.344 C 189.269 118.175 188.282 117.612 187.151 117.362 C 186.729 117.263 186.229 117.377 185.735 117.49 C 185.108 117.634 184.493 117.777 184.063 117.487 C 182.72 116.587 184.626 115.912 184.757 115.144 C 184.826 114.699 184.094 114.087 184.414 113.65 C 184.682 113.287 185.532 113.363 185.827 113.588 C 186.182 113.862 186.001 114.606 186.358 114.975 C 186.751 115.362 187.545 115.325 188.044 115.35 C 189.126 115.413 190.195 115.375 191.245 115.475 C 192.507 115.6 192.957 115.632 193.994 114.9 C 195.169 114.082 196.15 113.156 197.476 112.512 C 199.32 111.6 201.07 110.375 202.989 109.725 C 203.445 109.575 204.139 109.531 204.545 109.225 C 204.957 108.912 204.982 108.325 205.47 108.137 C 205.79 108.018 206.128 108.052 206.472 108.084 C 206.993 108.134 207.526 108.183 208.02 107.7 C 207.145 105.9 206.895 105.512 208.37 104.068 C 209.407 103.062 209.908 101.056 211.095 100.887 C 211.919 100.787 212.432 101.5 213.169 101.625 C 214.201 101.788 214.082 101.013 214.957 100.649 C 216.376 100.075 218.27 100.7 219.42 101.343 C 220.182 101.768 221.407 102.462 221.526 100.869 C 221.569 100.175 220.57 98.687 222.382 99.462 C 223.269 99.837 223.394 100.837 223.857 101.575 C 224.476 102.574 225.307 102.932 226.219 103.618 C 227.219 104.387 227.351 105.087 227.87 106.131 C 228.425 107.269 228.92 107.312 229.926 107.838 C 230.783 108.294 231.488 108.7 231.044 109.637 C 230.732 110.268 229.919 110.862 229.582 111.631 C 231.032 111.294 232.469 111.024 233.995 111.037 C 235.489 111.056 235.839 113.212 237.214 112.619 C 237.695 113.275 237.514 114.487 238.77 114.137 C 239.044 113.238 238.439 112.225 238.32 111.275 C 238.195 110.394 238.344 109.512 238.313 108.649 C 238.27 107.613 238.207 106.681 238.313 105.656 C 238.382 104.894 238.794 103.725 238.67 103.019 C 238.514 102.138 237.201 101.062 236.525 100.475 C 235.533 99.625 235.232 99.206 234.72 97.987 C 234.05 96.425 232.607 94.825 232.507 93.062 C 232.413 91.306 232.751 89.763 232.294 87.938 C 231.951 86.55 230.369 84.825 230.613 83.5 C 230.757 82.7 231.457 82.05 231.601 81.225 C 231.782 80.163 231.32 79.919 230.914 78.949 C 230.613 78.212 230.501 77.344 230.369 76.575 C 230.214 75.644 230.282 75.35 230.757 74.306 C 230.282 74.249 229.864 74.138 229.558 73.799 C 230.708 71.413 235.045 75.593 236.607 76.057 C 237.894 74.162 238.67 74.412 239.27 76.563 C 239.782 78.432 241.07 80.163 242.532 81.431 C 243.982 82.7 244.064 84.631 245.351 86.263 C 245.75 86.769 246.676 87.831 246.757 86.463 C 246.807 85.75 245.639 84.887 245.289 84.312 C 244.37 82.793 243.676 81.012 242.895 79.399 C 242.494 78.593 242.276 77.694 241.814 76.912 C 241.608 76.544 241.182 76.269 241.063 75.825 C 240.932 75.325 241.258 75.087 241.269 74.612 C 241.32 73.019 240.095 70.837 239.301 69.375 C 238.295 67.531 237.057 65.899 235.757 64.25 C 234.733 62.919 233.988 61.694 233.332 60.163 C 232.807 58.925 231.933 58.212 230.914 57.243 C 229.901 56.268 229.788 55.175 228.857 54.162 C 227.538 52.725 227.908 51.363 226.669 49.856 C 225.508 48.444 224.069 47.15 223.007 45.657 C 220.613 42.237 217.82 39.837 214.607 37.175 C 212.826 35.712 211.257 34.087 209.307 32.875 C 207.619 31.831 206.469 30.213 204.77 29.043 C 203.107 27.888 201.682 26.387 200.094 25.094 C 199.782 24.85 199.37 24.369 199.007 24.256 C 198.782 24.185 198.558 24.235 198.345 24.284 C 198.132 24.335 197.929 24.384 197.745 24.312 C 197.02 24.044 196.619 22.887 196.132 22.338 C 193.276 19.175 189.094 17.494 185.345 15.862 C 182.57 14.662 179.863 13.374 176.995 12.275 C 175.045 11.525 173.245 10.549 171.357 9.744 C 169.37 8.9 167.182 8.369 165.17 7.45 C 162.57 6.274 159.532 5.738 156.875 4.938 C 155.757 4.599 155.245 4.694 154.245 4.699 C 153.082 4.706 151.807 4.175 150.651 4.013 C 148.57 3.712 146.414 3.575 144.426 3.05 C 141.933 2.394 139.357 2.2 136.758 1.863 C 134.782 1.587 133.12 1.562 131.17 1.825 C 129.739 2.012 128.532 1.562 127.183 1.5 C 126.323 1.45 125.451 1.428 124.575 1.428 C 120.717 1.428 116.743 1.859 113.051 2.281 Z  M 169.244 143.006 C 168.107 142.719 167.919 142.075 167.051 141.1 C 165.945 139.868 162.408 137.65 165.145 135.925 C 165.445 135.725 166.189 135.674 166.557 135.562 C 166.975 135.431 167.144 135.112 167.657 135.112 C 169.207 135.112 168.651 136.213 169.057 137.15 C 169.938 139.138 173.176 139.931 174.957 140.499 C 176.894 141.112 178.082 142.613 180.107 143.025 C 181.994 143.393 183.945 143.706 185.607 144.719 C 187.357 145.781 188.139 147.087 189.576 148.412 C 190.219 149 190.945 149.906 191.732 150.2 C 192.06 150.32 192.455 150.433 192.861 150.538 C 192.076 150.386 191.193 150.409 190.408 150.443 C 189.245 150.5 189.026 150.987 188.033 151.381 C 186.89 149.817 185.406 149.933 183.894 150.048 C 182.632 150.145 181.352 150.241 180.232 149.363 C 179.145 148.518 179.163 147.05 177.951 146.156 C 176.908 145.387 175.876 144.674 176.857 143.287 C 175.795 142.262 173.42 142.025 172.082 142.512 C 171.272 142.803 170.84 143.128 170.106 143.128 C 169.861 143.128 169.582 143.092 169.244 143.006 Z  M 105.863 3.5 C 105.689 3.552 105.514 3.617 105.337 3.689 C 105.553 3.617 105.763 3.543 105.974 3.469 C 105.937 3.479 105.9 3.489 105.863 3.5 Z  M 104.67 3.894 C 103.732 4.149 102.507 4.149 101.795 4.688 C 102.951 4.97 104.169 4.167 105.337 3.689 C 105.121 3.761 104.9 3.83 104.67 3.894 Z  M 118.082 6.613 L 118.319 6.5 C 117.958 7.575 121.795 8.288 122.27 7.575 C 121.635 7.121 119.835 6.33 118.791 6.33 C 118.455 6.33 118.197 6.412 118.082 6.613 Z  M 53.057 25.575 C 52.195 26.225 51.182 26.638 50.307 27.218 C 49.301 27.874 48.482 28.763 47.544 29.5 C 46.62 30.2 45.626 30.812 44.788 31.65 C 43.969 32.469 43.382 33.512 42.52 34.312 C 39.245 37.325 35.22 40.075 33.076 44.125 C 32.057 46.05 30.869 47.444 29.37 49 C 25.339 53.2 22.945 58.362 19.857 63.15 C 16.982 67.575 13.788 71.738 12.22 76.788 C 11.507 79.069 10.219 81.069 9.457 83.262 C 8.676 85.544 7.863 87.762 7.332 90.087 C 6.207 94.963 4.214 99.662 3.951 104.699 C 3.82 107.3 3.332 109.988 2.758 112.512 C 2.37 114.225 1.857 115.424 2.007 117.063 C 2.107 118.125 2.094 119.312 2.032 120.387 C 1.994 121.175 1.482 126.412 2.276 126.494 C 2.495 126.519 2.607 126.362 2.738 126.225 C 2.319 123.137 3.926 120.862 5.032 118.112 C 5.27 117.512 6.469 112.837 7.545 115.594 C 8.744 115.231 8.507 114.163 10.182 113.8 C 11.257 113.556 13.532 113.8 11.62 115.112 C 13.294 116.437 14.008 115.956 14.132 114.163 C 14.257 112.725 14.257 111.037 14.495 109.363 C 14.495 108.769 15.207 108.175 15.207 107.7 C 15.207 106.85 14.369 106.131 14.257 105.287 C 14.132 103.625 14.857 102.775 16.407 104.212 C 16.77 104.575 16.77 105.413 17.244 105.775 C 17.963 106.494 19.283 106.375 19.519 107.331 C 19.757 108.412 17.608 110.444 17.608 112 C 17.72 113.325 18.801 115.719 19.407 117.15 C 20.001 118.587 21.558 119.788 22.995 118.112 C 24.557 116.437 21.076 112.362 21.076 110.2 C 21.076 108.525 21.558 107.7 22.27 106.131 C 23.119 104.456 22.995 103.381 23.119 101.587 C 23.233 99.188 23.119 96.8 23.119 94.4 C 23.233 92.837 23.594 91.281 23.832 89.725 C 23.957 89.131 24.557 87.938 24.188 87.212 C 23.697 86.228 23.414 86.646 23.048 87.065 C 22.79 87.36 22.489 87.656 22.045 87.456 C 20.839 86.725 23.957 79.675 24.188 78.35 C 24.432 77.393 24.794 75.119 23.957 74.4 C 22.757 73.2 21.32 74.756 20.964 75.474 C 20.245 76.675 20.001 77.393 19.045 78.475 C 17.72 79.906 17.608 81.462 16.645 82.907 C 15.689 84.338 14.008 84.812 13.17 86.375 C 12.57 87.456 12.695 88.532 11.62 89.25 C 10.545 87.687 14.132 83.862 14.97 82.419 C 16.288 80.262 17.364 77.15 17.844 74.756 C 18.445 71.768 18.201 69.125 20.001 66.381 C 20.595 65.538 23.233 62.181 24.557 63.019 C 25.982 63.987 22.995 66.381 23.707 68.05 C 23.832 68.294 24.07 68.775 24.188 69.012 C 25.269 68.406 24.794 67.338 25.269 66.493 C 25.632 65.662 26.589 65.412 27.069 64.818 C 27.67 63.856 26.833 63.5 27.782 62.9 C 28.264 62.662 28.508 63.5 28.864 63.5 C 29.463 63.262 29.695 62.781 30.301 62.543 C 32.814 61.1 33.182 61.944 31.857 64.1 C 31.019 65.538 30.894 67.219 30.182 68.643 C 29.478 70.265 28.734 70.067 27.853 69.87 C 27.232 69.731 26.543 69.592 25.751 70.087 C 25.032 70.562 25.508 73.562 25.144 74.875 C 24.794 76.431 24.188 78.112 24.908 79.551 C 26.22 81.95 27.544 79.906 28.145 78.112 C 28.382 76.912 28.382 75.837 29.219 74.875 C 29.82 75.718 29.576 76.912 30.783 77.15 C 31.982 77.393 32.694 75.956 32.814 75 C 32.814 74.519 32.22 74.162 32.22 73.799 C 32.22 73.081 32.694 72.963 32.932 72.243 C 33.295 71.525 33.532 70.931 33.882 70.326 C 34.251 69.25 35.088 67.937 35.326 66.856 C 35.445 65.775 34.969 65.175 35.088 64.1 C 35.22 63.194 35.995 62.656 36.338 61.874 C 36.682 61.1 36.801 60.131 37.132 59.312 C 37.426 58.55 38.126 58.043 38.408 57.275 C 38.745 56.375 38.57 53.513 37.032 54.351 C 36.726 53.869 36.92 52.45 37.232 52.025 C 36.17 51.813 35.526 52.837 34.945 53.562 C 34.32 54.325 33.37 54.963 32.838 55.75 C 31.864 57.2 32.664 60.237 30.195 59.412 C 30.182 58.537 31.032 57.943 31.495 57.275 C 32.057 56.462 32.326 55.662 32.694 54.762 C 33.295 53.287 34.507 52.432 35.332 51.162 C 34.383 49.425 31.738 53.95 30.919 54.262 C 30.045 53.118 31.945 52.012 32.694 51.437 C 33.851 50.562 33.882 50.012 33.676 48.65 C 33.563 47.862 33.188 46.649 33.532 45.9 C 33.676 45.575 34.139 44.875 34.607 45.05 C 35.264 45.287 34.6 46.219 34.582 46.612 C 34.489 48.012 35.088 47.962 35.807 46.969 C 36.782 45.612 37.607 44.056 39.045 43.025 C 39.851 42.437 41.27 42.068 41.832 41.138 C 42.151 40.613 42.145 39.219 42.432 38.444 C 43.138 36.5 44.489 35.75 45.857 34.4 C 46.913 33.356 48.945 31.537 49.382 30.256 C 48.02 30.75 46.308 32.624 45.482 33.806 C 44.682 34.925 43.432 37.081 41.807 37.013 C 42.22 35.881 43.532 35.307 44.313 34.4 C 45.251 33.325 45.614 32.406 46.826 31.525 C 47.832 30.794 48.845 30.043 49.676 29.131 C 51.357 27.275 53.445 26.1 55.32 24.369 C 56.289 23.488 57.588 22.875 58.682 22.212 C 60.957 20.837 63.194 19.462 65.488 18.199 L 65.363 17.9 C 60.851 19.675 56.951 22.588 53.057 25.575 Z  M 124.426 20.275 L 124.907 20.15 C 123.588 21.463 127.533 21.225 128.02 20.512 C 127.533 20.387 126.945 20.037 126.345 20.037 C 126.582 19.788 126.695 19.188 127.063 18.95 C 126.779 18.762 126.547 18.685 126.349 18.685 C 125.536 18.685 125.29 19.978 124.426 20.275 Z  M 123.827 21.825 C 122.27 21.825 122.032 21.951 121.07 23.262 L 121.324 23.179 C 121.213 23.238 121.129 23.328 121.07 23.499 C 122.032 24.943 126.22 25.181 126.582 22.788 C 126.656 21.924 125.97 21.729 125.154 21.729 C 124.717 21.729 124.242 21.785 123.827 21.825 Z  M 49.938 32.363 C 49.694 32.686 49.779 32.899 49.86 33.079 C 51.043 32.265 52.703 30.852 50.894 30.574 C 50.853 30.57 50.811 30.567 50.769 30.567 C 49.705 30.567 48.321 32.019 49.938 32.363 Z  M 49.101 33.562 L 49.938 33.325 C 49.938 33.245 49.899 33.166 49.86 33.079 C 49.551 33.291 49.275 33.463 49.101 33.562 Z  M 43.707 38.837 C 43.951 39.187 44.069 38.837 44.307 38.837 L 44.186 38.837 C 45.018 38.739 46.15 37.681 46.582 36.912 C 44.907 35.963 47.657 34.887 48.145 34.05 C 48.071 34.023 47.991 34.01 47.907 34.01 C 46.487 34.009 43.707 37.705 43.707 38.837 Z  M 126.202 37.468 C 124.776 37.002 123.995 38.902 123.107 39.675 C 122.745 40.149 121.795 40.512 121.432 40.868 C 120.357 42.306 121.195 41.824 122.032 42.775 C 122.87 44.1 122.989 45.9 123.944 47.449 C 125.02 49.488 125.145 50.212 127.533 50.45 C 128.376 50.562 131.613 50.562 130.42 48.769 C 130.121 48.329 129.557 48.383 129.026 48.437 C 128.688 48.471 128.365 48.505 128.132 48.412 C 127.063 47.931 127.533 48.05 127.063 46.85 C 126.82 46.493 126.22 46.138 126.22 45.657 C 126.107 45.3 126.695 44.462 126.695 44.462 C 126.345 43.499 125.382 43.499 125.145 42.306 C 124.782 40.625 127.901 38.593 127.183 37.756 C 126.969 37.476 126.797 37.361 126.595 37.361 C 126.478 37.361 126.352 37.4 126.202 37.468 Z  M 45.508 40.868 C 45.857 41.344 46.226 41.225 46.826 41.225 L 46.107 41.225 C 47.308 40.987 47.901 39.544 48.857 38.837 C 48.698 38.756 48.536 38.72 48.373 38.72 C 47.316 38.72 46.233 40.245 45.508 40.868 Z  M 41.439 43.625 C 41.499 43.817 41.634 43.905 41.82 43.946 C 43.696 43.438 43.492 42.157 44.432 40.868 C 44.165 40.807 43.934 40.779 43.734 40.779 C 41.964 40.779 42.612 42.979 41.439 43.625 Z  M 45.02 46.138 C 46.707 45.774 49.938 45.3 46.945 46.85 C 46.107 47.213 45.02 47.449 44.195 47.813 C 43.594 48.05 41.683 49.131 40.838 48.9 C 41.082 47.693 42.157 47.575 42.876 46.737 C 43.594 45.774 43.47 45.3 43.951 44.225 C 41 44.101 36.416 53.171 39.385 54.126 C 40.8 53.288 39.811 50.602 42.157 51.162 C 42.033 51.525 42.033 52.237 41.919 52.6 C 43.114 52.725 44.195 51.65 45.626 51.65 C 47.182 51.762 47.182 52 48.857 51.287 C 50.42 50.688 52.207 50.325 53.645 49.368 C 52.695 48.531 52.932 46.85 52.457 45.774 C 52.207 44.819 51.97 42.543 51.37 42.068 C 51.047 41.784 50.642 41.661 50.194 41.661 C 47.987 41.661 44.729 44.646 45.02 46.138 Z  M 41.683 43.981 L 42.395 43.981 C 42.175 43.981 41.979 43.981 41.82 43.946 C 41.775 43.958 41.73 43.97 41.683 43.981 Z  M 37.12 46.612 C 36.526 47.094 35.326 47.449 35.207 48.294 C 35.088 49.368 35.689 49.25 36.408 48.65 L 36.526 48.769 C 37.732 48.531 40.244 45.419 40.594 44.343 C 40.523 44.338 40.453 44.336 40.385 44.336 C 38.848 44.336 38.042 45.583 37.12 46.612 Z  M 36.408 49.975 L 36.644 49.488 C 36.408 49.975 36.044 50.212 36.763 50.45 C 37.489 49.725 38.676 49.131 38.807 48.168 C 37.601 48.168 37.489 49.488 36.408 49.975 Z  M 97.357 52.6 C 96.645 52.725 95.082 53.206 94.607 53.687 C 93.931 54.245 94.735 55.443 93.445 55.482 C 91.788 55 91.356 54.429 89.694 56.2 C 86.708 59.187 89.694 57.637 91.619 58.95 C 91.02 59.787 91.132 60.624 92.219 60.862 C 93.42 61.106 94.008 59.913 94.607 59.069 C 95.333 58.112 95.569 57.994 96.044 56.674 C 96.52 54.999 95.569 55.712 97.239 54.999 C 98.076 54.762 99.882 54.999 99.395 53.437 C 99.152 52.692 98.669 52.578 98.116 52.578 C 97.872 52.578 97.614 52.6 97.357 52.6 Z  M 59.163 53.437 C 57.839 53.562 56.645 53.437 55.445 53.437 C 54.993 53.485 54.744 53.48 54.547 53.476 C 54.221 53.469 54.034 53.461 53.294 53.687 C 52.457 53.925 52.207 54.762 51.144 54.4 L 51.501 53.687 C 48.62 53.081 46.226 53.562 43.594 54.882 C 42.033 55.712 40.957 56.787 41.551 58.475 C 42.157 60.263 44.195 59.669 44.432 61.462 C 44.67 62.9 43.345 63.738 43.114 64.937 C 42.745 65.899 42.87 66.975 42.507 67.937 C 42.276 68.887 41.795 69.968 41.683 70.931 C 41.683 71.637 42.995 71.637 41.795 72.487 C 41.195 73.081 40.244 72.487 39.644 72.362 C 39.994 73.325 40.594 74.519 39.994 75.718 C 39.52 76.794 38.444 77.031 37.601 78.112 C 36.763 79.074 36.526 80.387 35.807 81.462 C 35.207 82.419 34.133 83.025 34.007 84.224 C 33.77 85.531 34.844 86.375 34.969 87.575 C 35.088 88.65 34.489 89.725 34.489 90.687 C 34.489 92.012 34.489 94.512 35.689 95.35 L 35.57 94.994 C 37.489 96.906 39.757 93.913 40.482 92.362 C 41.082 91.037 42.745 88.412 42.87 87.212 C 44.67 86.857 45.508 87.093 47.182 86.012 C 48.739 84.938 49.82 83.981 51.732 83.737 C 54.132 83.5 57.007 83.862 59.032 82.306 C 59.882 81.7 59.882 81.462 60.358 80.506 C 60.832 79.675 61.557 78.713 61.913 77.987 C 62.394 76.794 62.632 75.593 63.113 74.4 C 63.707 72.844 64.788 72.006 65.507 70.562 C 65.983 69.481 65.745 67.937 66.344 66.856 C 66.832 66.012 69.583 64.462 66.832 64.337 C 67.42 63.019 73.294 59.913 71.976 58.593 C 71.421 58.04 70.931 58.099 70.485 58.158 C 69.871 58.239 69.342 58.321 68.857 56.787 C 68.626 56.2 68.857 54.762 68.495 54.275 C 67.788 53.437 67.42 54.4 66.582 54.4 C 65.145 54.275 64.669 53.325 63.588 52.837 C 63.232 52.687 62.908 52.628 62.602 52.628 C 61.468 52.627 60.576 53.437 59.163 53.437 Z  M 39.045 54.275 L 39.52 54.162 C 39.473 54.152 39.429 54.14 39.385 54.126 C 39.285 54.185 39.172 54.236 39.045 54.275 Z  M 63.113 86.613 C 62.033 86.857 62.514 87.694 61.795 88.05 C 60.721 88.649 56.421 87.697 57.359 90.076 C 57.423 90.073 58.697 90.821 58.92 91.037 C 59.401 91.644 59.044 92.362 59.77 92.962 C 60.957 94.275 61.913 93.438 63.351 93.319 L 62.751 93.563 C 64.188 93.2 64.188 92.118 64.907 91.287 C 65.27 90.687 66.707 90.206 67.057 89.487 C 67.901 88.05 66.232 87.694 65.032 87.212 C 64.702 87.104 63.776 86.597 63.255 86.597 C 63.204 86.597 63.156 86.602 63.113 86.613 Z  M 57.363 90.087 C 57.362 90.083 57.36 90.079 57.359 90.076 C 57.355 90.076 57.356 90.079 57.363 90.087 Z  M 247.894 91.881 C 246.451 92.487 247.77 96.556 248.97 95.35 C 249.332 95.112 248.613 91.763 247.77 91.763 L 247.894 91.881 Z  M 78.682 103.019 C 78.089 105.175 79.282 105.175 80.595 106.494 C 81.907 107.937 81.67 112 81.432 113.8 C 81.313 114.881 78.92 120.262 80.595 121.113 C 81.557 121.463 82.157 118.468 82.508 117.75 C 83.707 115.475 85.032 116.437 86.708 115.231 C 87.782 114.637 87.307 113.675 87.901 113.081 C 88.383 112.487 91.02 111.65 90.058 110.325 C 89.564 109.759 88.988 110.15 88.449 110.542 C 88.074 110.816 87.718 111.088 87.42 111.037 C 85.27 110.8 87.182 109.487 86.708 108.649 C 85.988 107.331 84.907 108.412 83.951 107.331 C 83.47 106.85 83.832 105.293 83.707 104.575 C 83.362 103.397 83.115 99.888 81.957 100.251 C 81.756 100.206 81.565 100.185 81.383 100.185 C 79.868 100.185 78.996 101.648 78.682 103.019 Z  M 239.507 110.2 C 239.751 110.2 240.345 110.681 240.588 110.8 C 239.507 111.769 240.945 112 240.588 113.2 C 242.62 114.037 242.982 111.525 242.744 110.2 C 242.501 109.25 241.426 106.85 240.345 106.494 L 240.345 106.375 C 238.913 106.968 240.588 109.125 239.507 110.2 Z  M 74.132 112.362 C 73.895 113.8 70.532 116.793 73.407 117.987 C 74.37 118.468 75.326 117.631 75.569 117.031 C 75.569 117.031 75.326 115.956 75.444 115.719 C 75.688 115 76.526 114.512 76.763 113.919 C 77.72 112 78.444 109.25 76.045 108.288 L 76.157 108.412 C 75.773 108.137 75.462 108.019 75.21 108.019 C 73.811 108.018 74.227 111.653 74.132 112.362 Z  M 105.626 128.525 L 105.863 128.412 C 104.908 129.725 106.945 130.325 107.182 128.887 L 106.469 128.175 C 106.376 128.151 106.301 128.14 106.238 128.14 C 105.969 128.14 105.914 128.333 105.626 128.525 Z  M 139.882 130.444 L 139.757 130.562 C 139.395 132.837 142.033 131.525 143.232 131.044 C 142.822 130.552 141.626 130.175 140.761 130.175 C 140.36 130.175 140.03 130.256 139.882 130.444 Z  M 106.22 133.8 L 105.863 133.437 C 106.003 134.213 106.268 134.158 106.634 134.104 C 106.89 134.066 107.197 134.028 107.545 134.275 C 108.139 134.638 108.62 136.075 109.094 136.2 C 111.495 136.787 109.814 133.675 109.695 133.2 C 109.695 132.237 111.251 132.481 109.945 131.399 C 109.695 131.044 108.857 130.925 108.376 130.925 C 107.42 131.044 105.395 132.6 106.22 133.8 Z  M 118.439 133.437 C 118.082 133.556 115.682 134.756 115.682 134.756 C 115.32 135.6 115.926 136.2 116.757 136.2 L 116.282 136.2 C 116.407 136.674 116.757 137.275 117.357 137.387 C 117.72 137.512 118.082 136.674 118.439 136.674 C 118.801 136.674 119.52 137.031 119.395 137.031 C 120.232 137.031 123.232 136.912 121.07 135.112 C 123.059 133.941 121.445 133.177 119.861 133.177 C 119.341 133.177 118.824 133.259 118.439 133.437 Z  M 2.632 143.494 C 2.52 143.738 2.632 143.738 2.632 143.975 L 2.869 143.863 C 2.52 146.132 4.07 148.65 4.195 151.037 C 4.313 153.2 4.432 158.588 6.345 160.019 C 7.432 159.181 5.87 157.024 5.87 155.95 C 5.745 154.162 5.87 152.712 5.507 151.037 C 5.164 149.424 4.705 143.468 2.848 143.468 C 2.778 143.468 2.706 143.476 2.632 143.494 Z  M 7.307 160.981 C 7.398 160.985 7.487 160.998 7.574 161.017 C 7.601 160.911 7.631 160.819 7.663 160.744 L 7.307 160.981 Z  M 8.27 165.05 C 10.333 165.974 9.645 161.484 7.574 161.017 C 7.294 162.094 7.28 164.617 8.27 165.05 Z  M 11.62 176.787 L 11.37 176.431 C 11.37 176.669 11.37 176.912 11.495 177.025 C 12.333 180.625 14.857 184.1 16.645 187.2 C 18.445 190.325 19.757 193.437 21.676 196.306 C 23.832 199.662 26.589 202.537 28.864 205.768 C 29.945 207.324 30.657 208.881 31.982 210.325 C 33.182 211.756 34.607 212.831 35.807 214.274 C 38.444 217.5 41.195 219.899 44.432 222.538 C 47.308 224.931 49.339 227.813 52.807 229.474 C 54.614 230.2 56.645 230.8 58.082 232.237 C 59.282 233.437 60.12 235.225 61.795 236.187 C 62.87 236.906 63.707 236.787 64.907 237.024 C 66.945 237.387 68.138 238.938 69.82 239.419 C 69.457 238.588 68.382 238.344 67.538 237.737 C 66.707 237.024 66.22 235.956 65.745 235.112 C 65.145 234.275 62.995 232.118 63.345 230.8 C 64.069 230.8 63.951 230.444 64.426 230.2 C 63.588 229.6 63.832 229 64.788 228.881 C 64.069 226.85 61.195 225.65 59.52 224.45 C 58.557 223.849 57.482 223.012 56.645 222.294 C 56.17 221.938 55.92 221.337 55.445 220.981 C 55.186 220.785 54.963 220.802 54.735 220.819 C 54.544 220.834 54.351 220.849 54.132 220.737 C 53.176 220.138 52.457 219.181 51.501 218.588 C 50.42 217.874 49.82 218.106 48.857 217.625 C 48.145 217.381 46.47 216.425 45.995 216.193 C 45.389 215.712 44.907 215.225 44.551 214.388 C 42.745 215.356 41.551 212.355 40.594 211.393 C 39.52 210.437 37.363 209.962 35.932 208.644 C 35.088 207.687 35.326 207.687 34.733 206.487 C 34.007 205.413 33.413 205.413 32.458 204.575 C 31.382 203.374 30.657 201.937 29.82 200.737 C 27.67 197.75 23.957 196.188 21.919 192.718 C 19.882 189.6 18.801 186.375 16.645 183.25 C 15.57 181.825 14.369 180.262 13.414 178.706 C 12.82 177.506 11.857 174.512 11.02 174.037 C 10.545 174.994 11.145 175.95 11.62 176.787 Z  M 218.195 185.775 C 217.958 186.375 216.994 187.812 216.869 188.168 C 216.638 189.118 216.994 190.087 216.638 191.162 C 216.157 192.6 215.557 192.837 214.719 193.919 C 213.169 196.075 214.245 197.262 214.12 199.424 C 214.001 200.737 213.889 201.212 213.169 201.937 C 212.444 202.656 211.369 202.062 211.244 203.612 C 211.488 203.612 211.97 203.738 212.207 203.612 C 212.564 205.537 210.894 208.044 214.839 206.968 C 216.044 206.606 221.07 204.212 218.069 203.374 C 218.676 202.775 219.75 202.181 220.114 201.338 C 221.182 199.3 219.87 200.975 219.632 199.424 C 219.27 197.987 221.908 195.231 222.257 193.437 C 222.745 191.281 223.464 184.456 220.351 183.975 L 220.464 184.1 C 220.177 183.861 219.925 183.762 219.701 183.762 C 218.905 183.762 218.478 185.023 218.195 185.775 Z " fill="url(#_rgradient_34)"/></g><g><path d=" M 42.357 32.337 C 43.694 30.875 42.038 34.925 41.532 35.474 C 32.194 45.7 31.557 65.237 31.944 78.056 C 32.963 112.068 42.945 148.787 60.644 177.943 C 85.32 218.574 140.269 261.487 190.494 239.681 C 190.619 239.625 189.869 243.162 188.769 243.637 C 131.794 268.387 70.713 212.762 49.494 164.425 C 35.444 132.4 25.119 93.675 31.507 58.525 C 33.088 49.799 36.169 39.106 42.357 32.337 Z " fill="rgb(255,255,255)"/></g><g><path d=" M 5.244 160.212 C -10.068 116.388 28.281 79.95 64.263 62.938 C 99.369 46.338 139.557 37.513 178.363 41.75 C 200.875 44.194 226.269 52.156 241.407 69.988 C 241.069 69.6 243.844 66.488 243.444 66.012 C 225.638 45.038 195.076 38.262 168.894 36.818 C 124.869 34.413 75.538 48.788 39.707 74.338 C 13.244 93.218 -8.393 130.988 3.207 164.2 C 2.882 163.268 5.594 161.224 5.244 160.212 Z " fill="rgb(255,255,255)"/></g><g><path d=" M 21.007 205.338 C 29.495 216.482 42.67 224.438 55.707 228.925 C 90.869 241.063 125.339 221.719 152.401 200.706 C 177.807 180.975 200.638 157.163 216.819 129.232 C 222.32 119.732 227.895 108.925 229.995 98.019 C 230.107 97.406 228.082 100.406 227.907 101.3 C 225.47 113.963 218.157 126.112 211.269 136.744 C 191.244 167.657 161.501 194.726 130.107 213.644 C 96.613 233.819 48.695 235 23.032 201.357 C 23.082 201.425 20.357 204.5 21.007 205.338 Z " fill="rgb(255,255,255)"/></g><g><path d=" M 220.545 106.762 C 220.545 106.762 230.657 114.649 230.551 114.262 C 230.445 113.874 232.657 90.518 232.657 90.518 L 220.545 106.762 Z " fill="rgb(255,255,255)"/></g></g></g></svg>