<?xml version="1.0" encoding="UTF-8" standalone="no"?><!-- Generator: Gravit.io --><svg xmlns="http://www.w3.org/2000/svg" xmlns:xlink="http://www.w3.org/1999/xlink" style="isolation:isolate" viewBox="0 0 192.499 256" width="192.499pt" height="256pt"><defs><clipPath id="_clipPath_V8Ho7ZJUvEkUD3coNWr67iWBaPLL3l2X"><rect width="192.499" height="256"/></clipPath></defs><g clip-path="url(#_clipPath_V8Ho7ZJUvEkUD3coNWr67iWBaPLL3l2X)"><g><g><path d=" M 61.589 142.339 L 0.001 142.339 L 0.001 35.023 L 61.589 35.023 L 61.589 142.339 Z " fill="rgb(0,0,0)"/></g><g><linearGradient id="_lgradient_356" x1="0" y1="0.5" x2="1" y2="0.5" gradientTransform="matrix(95.017,0,0,255.059,0,0)" gradientUnits="userSpaceOnUse"><stop offset="0%" stop-opacity="1" style="stop-color:rgb(108,110,112)"/><stop offset="53.6%" stop-opacity="1" style="stop-color:rgb(63,62,64)"/><stop offset="100%" stop-opacity="1" style="stop-color:rgb(63,62,64)"/></linearGradient><path d=" M 1.893 0 C 0.847 0 0 0.84 0 1.881 L 0 35.023 L 61.588 35.023 L 61.588 41.387 L 0 41.387 L 0 68.675 L 61.588 68.675 L 61.588 75.04 L 0 75.04 L 0 102.328 L 61.588 102.328 L 61.588 108.685 L 0 108.685 L 0 135.98 L 61.588 135.98 L 61.588 142.339 L 0 142.339 L 0 253.167 C 0 254.219 0.847 255.059 1.893 255.059 L 93.124 255.059 C 94.17 255.059 95.017 254.219 95.017 253.167 L 95.017 1.881 C 95.017 0.84 94.17 0 93.124 0 L 1.893 0 Z " fill="url(#_lgradient_356)"/></g><g><path d=" M 95.017 41.387 L 63.644 41.387 L 63.644 35.023 L 95.017 35.023 L 95.017 41.387 Z " fill="rgb(38,170,225)"/></g><g><path d=" M 95.017 75.04 L 63.644 75.04 L 63.644 68.675 L 95.017 68.675 L 95.017 75.04 Z " fill="rgb(38,170,225)"/></g><g><path d=" M 95.017 108.686 L 63.644 108.686 L 63.644 102.328 L 95.017 102.328 L 95.017 108.686 Z " fill="rgb(38,170,225)"/></g><g><path d=" M 95.017 142.339 L 63.644 142.339 L 63.644 135.981 L 95.017 135.981 L 95.017 142.339 Z " fill="rgb(38,170,225)"/></g><g><path d=" M 95.017 246.367 L 0 246.367 L 0 240.015 L 95.017 240.015 L 95.017 246.367 Z " fill="rgb(0,0,0)"/></g><g><radialGradient id="_rgradient_35" fx="0.367" fy="0.336" cx="0.367" cy="0.336" r="0.353" gradientTransform="matrix(119.533,0,0,119.964,72.966,136.036)" gradientUnits="userSpaceOnUse"><stop offset="0%" stop-opacity="1" style="stop-color:rgb(46,147,208)"/><stop offset="100%" stop-opacity="1" style="stop-color:rgb(42,46,119)"/></radialGradient><path d=" M 72.966 196.018 C 72.966 229.092 99.775 256 132.73 256 C 165.685 256 192.499 229.092 192.499 196.018 C 192.499 162.938 165.685 136.036 132.73 136.036 C 99.775 136.036 72.966 162.938 72.966 196.018 Z " fill="url(#_rgradient_35)"/></g><g><radialGradient id="_rgradient_36" fx="0.5" fy="0.5" cx="0.5" cy="0.5" r="0.491" gradientTransform="matrix(115.854,0,0,111.69,73.827,136.707)" gradientUnits="userSpaceOnUse"><stop offset="0%" stop-opacity="1" style="stop-color:rgb(204,219,240)"/><stop offset="100%" stop-opacity="1" style="stop-color:rgb(173,197,230)"/></radialGradient><path d=" M 125.942 137.107 C 125.723 137.128 125.521 137.119 125.324 137.109 C 125.101 137.098 124.883 137.087 124.653 137.12 C 124.186 137.182 123.701 137.357 123.246 137.468 C 123.034 137.523 122.839 137.59 122.644 137.657 C 123.225 137.519 123.949 137.519 124.541 137.519 C 125.233 137.519 125.818 137.717 126.484 137.643 C 126.642 137.624 126.827 137.693 127.017 137.762 C 127.322 137.873 127.635 137.984 127.853 137.73 C 128.047 137.88 128.047 137.88 128.24 137.811 C 128.39 138.116 128.657 138.24 128.862 137.924 C 129.056 138.219 129.283 138.212 129.537 138.204 C 129.643 138.201 129.752 138.198 129.866 138.216 C 130.276 138.309 130.65 138.571 131.048 138.677 C 131.983 138.925 134.28 138.901 134.86 139.859 C 133.963 140.309 134.555 140.825 134.971 141.33 C 135.189 141.591 135.314 141.715 135.259 142.114 C 135.189 142.544 134.86 142.476 135.37 142.724 C 135.657 142.874 136.466 142.749 136.223 143.31 C 136.093 143.634 135.626 143.577 135.37 143.522 C 134.816 143.385 133.913 142.638 133.359 143.135 C 133.459 143.316 133.633 143.684 133.577 143.908 C 133.508 144.181 133.128 144.251 133.122 144.518 C 133.085 145.228 134.007 145.016 134.35 145.215 C 134.966 145.57 134.623 146.062 134.431 146.498 C 134.269 146.879 134.118 147.799 134.847 147.457 C 135.178 147.788 135.233 148.229 135.495 148.616 C 135.793 149.051 136.554 149.232 136.815 149.643 C 137.002 149.961 136.784 150.546 137.158 150.77 C 137.361 150.888 137.63 150.813 137.897 150.74 C 138.112 150.68 138.325 150.62 138.502 150.659 C 138.011 151.182 138.079 151.717 137.444 152.041 C 137.251 152.153 136.616 152.352 136.784 152.713 C 136.878 152.912 137.375 152.825 137.544 152.944 C 137.5 153.055 137.475 153.261 137.401 153.373 C 137.6 153.51 138.341 153.622 138.198 154.008 C 138.079 154.307 137.475 154.096 137.276 154.059 C 136.934 153.99 136.69 153.921 136.454 153.716 C 136.168 153.486 136.204 153.149 135.712 153.236 C 135.597 153.861 135.478 153.833 135.133 153.805 C 135.03 153.797 134.908 153.789 134.76 153.797 C 134.747 154.357 136.018 154.669 136.43 154.967 C 137.077 155.421 139.344 156.811 137.556 157.278 C 137.07 157.415 136.479 157.515 136.137 157.982 C 135.807 158.43 136.273 158.847 136.111 159.245 C 136.018 159.476 135.7 159.52 135.576 159.725 C 135.476 159.887 135.507 160.154 135.408 160.348 C 135.203 160.796 134.723 160.964 134.449 161.351 C 134.088 161.886 134.088 162.546 133.577 162.976 C 133.222 163.262 132.767 163.748 132.338 163.885 C 131.765 164.072 131.46 163.861 131.889 164.501 C 132.188 164.943 132.699 165.093 132.991 165.517 C 132.575 165.703 132.686 165.89 132.494 166.177 C 132.325 166.438 131.87 166.675 131.777 166.974 C 131.733 167.111 131.97 167.186 131.939 167.347 C 131.902 167.509 131.733 167.678 131.652 167.808 C 131.46 168.119 131.267 168.337 131.037 168.599 C 131.161 168.73 131.223 168.942 131.267 169.098 C 130.788 169.38 130.316 169.261 129.848 169.142 C 129.499 169.054 129.152 168.965 128.807 169.041 C 129.38 168.45 128.39 168.693 128.396 168.306 C 128.408 168.02 128.807 167.914 129.024 167.871 C 129.411 167.777 129.436 167.858 129.779 167.665 C 130.096 167.472 130.787 167.123 130.993 166.799 C 131.142 166.594 131.061 166.357 131.173 166.139 C 131.267 165.959 131.503 165.959 131.547 165.698 C 131.117 165.572 130.606 165.342 130.152 165.286 C 129.66 165.23 129.442 165.455 129.013 165.547 C 128.558 165.666 128.147 165.641 127.68 165.809 C 126.882 166.096 126.079 166.052 125.3 166.289 C 124.939 166.389 124.585 166.712 124.186 166.762 C 123.663 166.837 123.426 166.731 122.916 167.024 C 122.174 167.447 121.129 168.107 120.674 168.83 C 120.375 169.29 120.375 169.751 120.164 170.225 C 119.988 170.611 119.646 170.873 119.422 171.227 C 119.16 171.601 119.117 171.987 118.987 172.417 C 118.818 172.989 118.464 173.058 118.133 173.475 C 118.793 174.546 117.455 175.425 116.906 176.116 C 116.564 176.552 116.495 177.112 116.053 177.448 C 115.698 177.723 115.038 177.635 114.857 178.033 C 115.86 178.862 114.938 180.737 116.451 181.285 C 116.838 181.421 116.999 181.147 117.349 181.11 C 117.678 181.079 117.965 181.228 118.251 181.285 C 118.955 181.421 119.603 181.309 120.275 181.633 C 120.967 181.957 121.801 182.953 122.53 182.742 C 123.29 182.518 123.644 181.285 123.925 180.556 C 124.074 180.176 124.235 179.577 124.13 179.154 C 124.1 179.018 123.856 178.768 123.868 178.643 C 123.868 178.282 124.062 178.507 124.154 178.27 C 124.416 177.678 124.049 177.735 123.526 177.473 C 123.084 177.267 122.848 176.975 122.586 176.564 C 121.982 175.581 122.299 174.683 122.859 173.699 C 122.997 173.456 123.208 173.002 123.414 172.809 C 123.595 172.64 123.856 172.64 124.03 172.492 C 124.235 172.305 124.429 171.432 124.858 171.793 C 125.35 172.217 124.267 173.824 124.03 174.222 C 123.65 174.858 124.049 175.331 124.528 175.754 C 124.721 175.929 125.039 176.252 125.282 176.346 C 125.472 176.421 125.647 176.395 125.831 176.369 C 125.954 176.352 126.082 176.334 126.223 176.346 C 126.677 176.377 126.882 176.744 126.565 177.119 C 127.456 177.423 127.263 178.245 126.826 178.794 C 126.372 179.385 126.291 180.001 126.428 180.681 C 126.546 181.228 126.702 181.285 126.285 181.67 C 125.961 181.957 125.724 182.106 125.476 182.455 C 125.039 183.09 124.361 183.613 123.588 183.75 C 122.984 183.862 122.38 183.887 121.789 184.093 C 121.445 184.212 120.76 184.709 120.425 184.547 C 119.783 184.242 120.624 183.937 120.687 183.595 C 120.717 183.302 120.306 183.015 120.069 182.785 C 119.902 182.629 119.241 181.932 119.036 181.895 C 118.239 181.751 118.75 182.567 118.818 182.853 C 118.943 183.333 118.887 183.732 119.049 184.199 C 119.516 185.481 118.394 185.183 117.816 185.837 C 117.647 186.029 117.647 186.366 117.404 186.596 C 117.223 186.777 117.018 186.938 116.838 187.119 C 116.315 187.623 116.359 187.985 116.134 188.632 C 115.954 189.131 115.667 189.76 115.393 190.202 C 115.032 190.787 114.484 191.422 113.893 191.784 C 113.413 192.058 112.834 192.07 112.435 192.444 C 112.267 192.606 112.217 192.811 112.024 192.954 C 111.856 193.092 111.619 193.079 111.47 193.303 C 111.071 193.858 111.819 193.677 112.198 193.925 C 112.865 194.381 113.974 195.382 113.755 196.211 C 113.469 197.314 112.504 197.712 111.594 198.161 C 110.96 198.472 110.455 198.496 109.776 198.566 C 109.24 198.62 108.966 198.715 108.985 199.294 C 109.023 199.842 109.259 200.172 109.01 200.701 C 108.792 201.162 108.251 201.523 108.338 202.108 C 108.406 202.644 108.91 202.868 109.215 203.204 C 109.614 203.666 109.421 203.989 109.502 204.519 C 109.618 205.315 110.284 205.234 110.95 205.153 C 111.249 205.117 111.548 205.081 111.799 205.123 C 112.267 205.21 112.435 205.54 112.865 205.583 C 113.276 205.621 113.948 205.552 114.235 205.26 C 114.596 204.874 114.646 204.213 115.1 203.79 C 115.418 203.479 115.885 203.435 116.19 203.13 C 116.44 202.868 116.701 202.171 116.782 201.822 C 116.875 201.361 116.576 200.938 116.738 200.477 C 116.863 200.104 117.305 199.879 117.522 199.58 C 117.672 199.375 117.759 199.126 117.921 198.92 C 118.045 198.746 118.32 198.609 118.42 198.466 C 118.918 197.811 118.351 196.871 119.192 196.361 C 120.094 195.831 121.184 196.18 121.957 195.309 C 122.324 194.904 122.355 194.648 122.803 195.029 C 122.848 195.059 122.934 195.309 123.121 195.439 C 123.302 195.564 123.563 195.582 123.769 195.669 C 124.248 195.825 124.734 196.006 125.214 196.105 C 125.668 196.199 126.41 196.168 126.633 196.654 C 127.169 196.442 128.078 196.18 128.639 196.429 C 129.081 196.641 129.853 197.451 130.046 197.886 C 130.195 198.179 129.977 198.658 130.47 198.385 C 130.831 198.179 130.65 197.943 130.606 197.613 C 130.551 197.177 129.99 195.993 130.594 195.825 C 130.961 196.553 131.485 195.744 130.638 195.321 C 130.171 195.084 129.591 195.165 129.105 195.246 C 128.763 194.754 128.047 194.536 127.468 194.524 C 127.336 194.521 127.2 194.555 127.065 194.589 C 126.892 194.631 126.719 194.674 126.552 194.642 C 126.329 194.598 126.098 194.337 125.886 194.231 C 125.406 194 124.541 193.764 125.438 193.241 C 125.681 193.104 125.973 193.129 126.216 192.991 C 126.484 192.842 126.565 192.63 126.895 192.662 C 127.349 192.705 127.648 193.129 128.185 193.129 C 128.738 193.129 129.094 193.129 129.641 193.303 C 130.619 193.583 131.503 193.527 131.596 194.698 C 131.615 195.015 131.46 194.972 131.665 195.271 C 131.803 195.471 132.12 195.607 132.338 195.688 C 132.792 195.857 133.266 195.893 133.732 196.055 C 134.199 196.224 135.694 197.152 135.27 197.774 C 135.365 197.862 135.52 197.943 135.645 197.949 C 135.781 197.793 135.999 197.656 136.192 197.625 C 136.498 198.359 136.759 197.476 136.896 197.239 C 137.227 197.314 138.067 197.064 137.799 196.542 C 137.637 196.224 136.908 196.361 136.672 196.105 C 136.828 196.143 137.183 196.074 137.17 195.812 C 137.158 195.57 136.828 195.632 136.672 195.52 C 136.317 195.301 135.738 194.66 135.645 194.256 C 135.545 193.764 135.894 193.602 136.33 193.402 C 136.828 193.153 137.126 192.401 137.774 192.263 L 137.799 192.182 C 138.123 191.696 138.148 190.053 138.117 189.48 C 138.092 189.093 137.874 188.495 137.718 188.122 C 137.537 187.711 137.488 187.269 137.294 186.883 C 137.07 186.465 136.703 186.335 137.213 185.842 C 137.625 185.444 138.135 185.369 138.627 185.507 C 139.163 185.669 139.549 185.669 140.084 185.706 C 140.869 185.793 140.427 186.117 140.14 186.596 C 140.377 186.692 140.615 186.619 140.862 186.545 C 141.147 186.461 141.442 186.375 141.753 186.552 C 141.766 185.961 142.631 185.718 142.606 185.151 C 142.6 184.914 142.37 184.66 142.109 184.653 C 141.735 184.622 141.735 184.984 141.436 185.095 C 140.844 185.288 141.019 184.547 141.149 184.137 C 141.287 183.707 141.516 183.32 141.585 182.853 C 141.654 182.411 141.641 182.043 142.258 182.306 C 142.725 182.505 143.062 182.879 143.018 183.32 C 142.962 183.844 142.519 184.093 143.167 184.049 C 143.964 183.981 144.624 183.115 145.439 183.339 C 145.726 183.414 145.957 183.626 146.237 183.719 C 146.617 183.824 146.991 183.763 147.265 184.093 C 147.806 184.709 146.623 185.207 146.15 185.594 C 145.353 186.254 144.295 186.471 143.453 187.051 C 142.563 187.655 141.666 188.234 140.758 188.82 C 140.302 189.099 140.116 189.541 139.742 189.928 C 139.387 190.307 138.901 190.557 138.67 191.049 C 138.515 191.422 138.652 191.958 138.627 192.401 C 138.602 192.905 138.322 193.184 138.123 193.615 C 138.652 193.702 138.932 194.15 139.355 194.355 C 139.643 194.505 140.334 194.387 140.302 194.859 C 139.948 194.916 139.643 195.221 140.029 195.414 C 140.302 195.551 140.639 195.333 140.869 195.246 C 141.405 195.015 141.903 194.754 142.438 194.586 C 142.725 194.492 143.198 194.449 143.392 194.243 C 143.459 194.187 143.335 193.939 143.429 193.833 C 143.522 193.739 143.678 193.72 143.79 193.677 C 144.35 193.378 145.191 193.596 145.645 193.129 L 145.546 192.941 C 145.615 192.923 145.976 192.83 146.019 192.779 C 146.1 192.662 145.963 192.444 146.032 192.401 C 146.249 192.207 146.411 192.151 146.661 192.381 C 146.866 192.556 146.953 192.892 147.146 193.06 C 147.47 193.353 147.614 193.402 147.719 193.858 C 147.806 194.243 147.788 194.449 147.993 194.81 C 148.137 195.047 148.41 195.153 148.261 195.52 C 148.161 195.794 147.819 195.882 147.719 196.155 C 147.614 196.405 147.626 196.766 147.776 196.996 C 147.514 197.239 147.059 197.133 146.761 197.314 C 146.605 197.406 146.567 197.643 146.387 197.781 C 146.194 197.93 145.963 197.93 145.757 198.024 C 145.092 198.316 144.849 198.976 144.238 199.343 C 143.522 199.755 142.539 200.023 141.766 200.253 C 141.184 200.419 140.573 200.415 139.958 200.412 C 139.321 200.409 138.68 200.405 138.067 200.589 C 137.002 200.863 136.66 201.76 135.987 202.432 C 136.94 202.718 136.385 203.504 135.874 203.902 C 135.37 204.351 134.971 204.351 134.361 204.4 C 133.29 204.4 132.176 204.232 131.048 204.12 C 130.802 204.103 130.473 204.164 130.138 204.224 C 129.633 204.314 129.108 204.405 128.807 204.232 C 128.24 204.002 128.408 203.565 128.128 203.117 C 127.853 202.775 127.338 202.544 126.895 202.32 C 126.167 201.934 125.543 201.137 124.771 201.361 C 124.086 201.548 123.588 202.221 122.803 202.382 C 121.87 202.644 120.898 202.681 119.97 202.955 C 119.149 203.186 118.693 203.585 117.978 203.97 C 117.417 204.264 116.931 204.488 116.451 204.911 C 116.146 205.184 115.406 206.306 114.895 206.019 C 114.372 205.721 114.951 205.123 114.11 205.533 C 113.974 205.583 113.413 205.832 113.326 205.938 C 113.195 206.075 113.332 206.231 113.257 206.418 C 112.933 207.09 112.342 207.639 111.75 208.055 C 111.445 208.261 111.32 208.361 111.114 208.66 C 111.003 208.809 110.909 209.115 110.772 209.221 C 110.437 209.482 109.833 209.195 109.695 209.781 C 110 209.943 110.437 209.762 110.548 210.266 C 110.635 210.577 110.168 211.039 110.044 211.425 C 109.671 212.515 109.284 213.168 108.43 213.953 C 107.964 214.382 108.032 214.613 107.864 215.124 C 107.728 215.522 107.372 215.846 107.179 216.244 C 106.942 216.737 106.849 217.316 106.619 217.814 C 106.357 218.411 105.872 218.934 105.815 219.595 C 105.766 220.28 106.177 220.741 106.487 221.289 C 106.862 221.974 106.881 222.846 107.03 223.599 C 107.098 223.942 107.192 224.141 107.017 224.49 C 106.849 224.801 106.494 224.713 106.681 225.225 C 106.811 225.623 107.272 225.847 107.54 226.121 C 107.852 226.42 108.02 226.706 108.225 227.08 C 108.419 227.441 108.818 227.902 108.736 228.307 C 108.656 228.699 108.319 228.537 108.592 228.949 C 108.705 229.104 108.985 229.198 109.159 229.259 C 109.752 229.49 110.374 229.484 110.96 229.751 C 111.432 229.97 111.551 230.406 112.024 230.617 C 112.435 230.792 113.127 230.717 113.276 231.29 C 113.313 231.452 113.164 231.676 113.164 231.887 C 113.164 231.963 113.276 232.38 113.313 232.46 C 113.525 232.996 113.799 232.947 114.384 233.064 C 114.676 233.121 115.007 233.145 115.28 233.295 C 115.555 233.432 115.518 233.544 115.667 233.7 C 115.987 234.016 116.314 233.994 116.701 233.973 C 116.901 233.962 117.119 233.95 117.36 233.986 C 117.996 234.067 117.803 234.416 118.251 234.615 C 119.398 235.089 120.754 233.724 121.776 233.519 C 122.082 233.451 122.616 233.519 123.028 233.42 C 123.631 233.27 124.361 233.134 124.983 233.134 C 125.531 233.134 125.83 233.451 126.34 233.201 C 126.895 232.94 127.537 232.38 128.023 231.993 C 128.464 231.65 128.72 231.084 129.31 230.959 C 129.544 230.912 129.756 230.94 129.973 230.969 C 130.121 230.989 130.272 231.009 130.432 231.003 C 130.775 230.991 130.961 230.823 131.279 230.779 C 131.732 230.718 132.256 230.816 132.784 230.913 C 133.219 230.993 133.657 231.074 134.062 231.066 C 134.836 231.04 135.327 230.517 136.031 230.393 C 136.031 230.81 136.411 230.948 136.759 231.066 C 137.338 231.253 137.537 231.097 137.432 231.732 C 137.351 232.249 137.419 232.46 137.456 232.972 C 137.488 233.37 137.294 233.606 137.388 234.042 C 137.513 234.634 137.806 234.497 138.241 234.69 C 138.583 234.852 138.876 235.157 139.182 235.363 C 139.773 235.762 140.502 235.848 141.106 236.228 C 141.747 236.615 142.414 237 143.167 237.181 C 143.715 237.318 144.78 237.367 145.123 237.891 C 144.93 238.003 144.705 238.09 144.6 238.29 C 145.123 238.719 145.752 238.912 145.203 239.752 C 145.615 239.984 146.069 240.027 146.138 240.594 C 145.696 240.961 145.465 241.085 145.297 241.596 C 145.203 241.839 145.147 241.883 145.147 242.1 C 145.159 242.288 145.353 242.412 145.303 242.667 C 145.838 242.916 146.194 243.607 145.702 244.069 C 145.889 244.293 146.032 244.374 146.262 244.511 C 146.312 244.546 146.382 244.534 146.451 244.522 C 146.518 244.511 146.586 244.499 146.635 244.529 C 146.741 244.604 146.68 244.778 146.761 244.878 C 146.878 244.989 146.991 245.239 147.171 245.307 C 147.399 245.391 147.628 245.318 147.861 245.244 C 148.067 245.18 148.277 245.115 148.491 245.159 C 149.438 245.351 149.425 246.603 150.515 246.622 C 150.889 246.622 150.746 246.491 151.089 246.721 C 151.281 246.852 151.269 247.045 151.531 247.169 C 151.928 247.344 152.633 247.282 153.062 247.381 C 153.473 247.469 153.853 247.581 154.283 247.606 C 154.393 247.617 154.519 247.612 154.65 247.607 C 154.971 247.595 155.318 247.583 155.522 247.805 C 155.341 247.842 155.167 248.029 155.23 248.228 C 155.317 248.515 155.466 248.353 155.684 248.34 C 156.101 248.309 156.456 247.941 156.867 247.855 C 157.341 248.446 157.67 247.786 157.994 247.388 C 158.455 246.808 158.798 246.696 159.445 246.36 C 159.676 246.248 159.882 246.093 160.105 245.961 C 160.198 245.937 160.23 245.799 160.324 245.737 C 160.378 245.717 160.444 245.733 160.505 245.75 C 160.567 245.767 160.624 245.784 160.666 245.762 C 160.872 245.613 160.902 245.339 161.145 245.214 C 161.316 245.124 161.444 245.134 161.576 245.145 C 161.661 245.152 161.747 245.16 161.849 245.14 C 161.644 244.393 162.347 244.498 162.802 244.467 C 163.213 243.632 163.736 243.109 164.328 242.406 C 164.383 242.486 164.59 242.598 164.645 242.711 C 165.548 241.87 165.535 240.537 165.853 239.535 C 165.959 239.229 166.09 239.161 166.114 238.862 C 166.128 238.613 165.959 238.638 166.139 238.301 C 166.363 237.866 166.856 237.542 167.048 237.068 C 166.732 236.77 166.445 236.372 166.557 235.942 C 166.694 235.363 167.218 235.313 166.614 234.814 C 167.404 233.974 167.927 232.909 168.643 232.019 C 169.36 231.128 170.574 229.397 169.882 228.195 C 169.665 227.827 169.253 227.503 169.029 227.08 C 168.799 226.645 168.755 226.308 168.65 225.835 C 168.519 225.274 168.208 224.875 167.753 224.49 C 167.466 224.253 166.856 224.054 166.732 223.724 C 166.663 223.568 166.663 222.678 166.681 222.472 C 166.719 222.085 166.981 221.743 167.118 221.376 C 167.229 221.084 167.491 220.753 167.571 220.454 C 167.628 220.23 167.547 220.081 167.585 219.844 C 167.652 219.295 167.946 219.171 168.257 218.773 C 168.811 218.044 168.799 216.954 168.631 216.145 C 168.4 215.018 169.913 213.567 170.269 212.421 C 170.543 211.592 171.221 210.715 171.053 209.793 C 170.96 209.357 170.723 208.958 170.667 208.498 C 170.586 207.825 170.766 206.997 170.836 206.318 C 170.872 205.87 171.028 205.459 171.122 205.029 C 171.29 204.164 170.611 203.379 169.708 203.69 C 168.799 204.002 167.74 204.506 167.129 205.303 C 166.414 206.231 166.128 207.521 164.944 208.068 C 164.377 208.33 164.228 208.099 164.147 207.645 C 164.049 207.065 164.232 206.868 163.639 206.656 C 163.783 206.69 163.923 206.721 164.047 206.748 C 165.205 207.028 165.423 205.845 165.729 205.029 C 166.152 203.889 166.968 203.093 167.628 202.096 C 168.562 200.701 168.3 197.363 170.599 197.102 C 170.872 196.33 171.315 195.471 171.34 194.63 C 171.352 194.2 171.259 193.994 171.078 193.615 C 170.86 193.153 170.904 192.674 170.766 192.219 C 170.611 191.727 170.2 191.354 170.144 190.831 C 170.107 190.488 170.486 190.077 170.381 189.76 C 170.293 189.442 169.733 189.224 169.428 189.125 C 168.755 188.907 167.74 189.099 167.173 188.832 C 166.831 188.645 166.937 188.259 166.401 188.37 C 165.977 188.451 165.822 188.807 165.685 189.143 C 165.443 189.716 165.772 189.841 165.785 190.376 C 165.797 190.955 165.355 191.124 164.944 191.385 C 164.377 191.753 164.228 191.97 163.586 191.784 C 163.113 191.659 162.677 191.572 162.192 191.491 C 161.656 191.422 161.201 191.149 160.666 191.036 C 160.471 190.993 160.239 191.044 160.01 191.095 C 159.714 191.16 159.424 191.225 159.221 191.092 C 158.592 190.675 159.483 190.351 159.539 189.99 C 159.57 189.784 159.234 189.498 159.377 189.293 C 159.507 189.125 159.906 189.156 160.05 189.255 C 160.211 189.393 160.131 189.741 160.292 189.916 C 160.486 190.102 160.846 190.077 161.089 190.09 C 161.588 190.127 162.086 190.102 162.59 190.145 C 163.182 190.214 163.387 190.226 163.873 189.878 C 164.421 189.498 164.887 189.069 165.498 188.757 C 166.363 188.327 167.186 187.76 168.083 187.461 C 168.3 187.381 168.631 187.375 168.811 187.225 C 169.005 187.075 169.017 186.802 169.253 186.714 C 169.402 186.661 169.559 186.676 169.717 186.69 C 169.963 186.712 170.214 186.734 170.449 186.503 C 170.038 185.669 169.913 185.481 170.611 184.796 C 171.097 184.336 171.327 183.389 171.881 183.32 C 172.274 183.265 172.51 183.595 172.859 183.662 C 173.338 183.732 173.283 183.365 173.693 183.203 C 174.366 182.934 175.25 183.227 175.786 183.527 C 176.141 183.732 176.72 184.049 176.776 183.302 C 176.801 182.978 176.321 182.28 177.174 182.648 C 177.598 182.816 177.654 183.302 177.865 183.638 C 178.152 184.105 178.55 184.273 178.974 184.597 C 179.441 184.958 179.51 185.276 179.747 185.78 C 180.007 186.303 180.232 186.328 180.712 186.578 C 181.11 186.777 181.44 186.976 181.234 187.412 C 181.092 187.711 180.712 187.985 180.557 188.346 C 181.223 188.19 181.907 188.066 182.611 188.072 C 183.321 188.072 183.477 189.093 184.124 188.807 C 184.354 189.125 184.261 189.692 184.853 189.517 C 184.977 189.099 184.697 188.62 184.648 188.178 C 184.579 187.774 184.66 187.362 184.641 186.951 C 184.616 186.465 184.591 186.029 184.641 185.55 C 184.672 185.183 184.866 184.641 184.81 184.311 C 184.741 183.9 184.111 183.389 183.806 183.115 C 183.339 182.729 183.196 182.523 182.954 181.957 C 182.648 181.228 181.963 180.475 181.919 179.647 C 181.876 178.83 182.032 178.096 181.814 177.249 C 181.658 176.595 180.917 175.792 181.029 175.163 C 181.097 174.783 181.428 174.491 181.496 174.104 C 181.577 173.6 181.359 173.487 181.167 173.039 C 181.029 172.691 180.986 172.286 180.917 171.918 C 180.849 171.489 180.873 171.351 181.097 170.847 C 180.873 170.828 180.681 170.785 180.543 170.623 C 181.079 169.508 183.115 171.464 183.844 171.682 C 184.442 170.798 184.81 170.91 185.096 171.918 C 185.333 172.784 185.937 173.6 186.615 174.198 C 187.3 174.783 187.332 175.698 187.936 176.464 C 188.128 176.701 188.564 177.2 188.595 176.552 C 188.62 176.221 188.072 175.81 187.917 175.549 C 187.481 174.833 187.151 173.998 186.79 173.239 C 186.609 172.865 186.49 172.441 186.279 172.08 C 186.186 171.906 185.98 171.782 185.937 171.57 C 185.868 171.333 186.018 171.227 186.024 170.997 C 186.048 170.262 185.481 169.235 185.102 168.555 C 184.628 167.684 184.056 166.912 183.445 166.139 C 182.966 165.529 182.611 164.943 182.306 164.228 C 182.057 163.648 181.646 163.318 181.167 162.863 C 180.699 162.409 180.643 161.892 180.214 161.419 C 179.597 160.747 179.771 160.111 179.186 159.401 C 178.644 158.741 177.972 158.13 177.467 157.421 C 176.346 155.834 175.039 154.706 173.531 153.454 C 172.703 152.775 171.962 152.009 171.053 151.443 C 170.256 150.951 169.721 150.184 168.924 149.643 C 168.138 149.108 167.479 148.403 166.732 147.799 C 166.582 147.681 166.389 147.457 166.22 147.402 C 166.119 147.368 166.018 147.393 165.918 147.419 C 165.817 147.445 165.717 147.47 165.623 147.432 C 165.299 147.295 165.1 146.76 164.876 146.498 C 163.531 145.023 161.575 144.238 159.825 143.472 C 158.517 142.911 157.254 142.301 155.908 141.79 C 154.987 141.442 154.146 140.981 153.268 140.607 C 152.333 140.209 151.312 139.959 150.366 139.524 C 149.152 138.982 147.732 138.72 146.48 138.353 C 145.957 138.197 145.714 138.24 145.247 138.24 C 144.705 138.24 144.101 137.991 143.566 137.924 C 142.588 137.78 141.573 137.717 140.639 137.468 C 139.48 137.158 138.273 137.07 137.058 136.908 C 136.124 136.783 135.351 136.759 134.431 136.896 C 133.757 136.983 133.197 136.759 132.562 136.74 C 132.162 136.717 131.756 136.707 131.347 136.707 C 129.539 136.707 127.674 136.909 125.942 137.107 Z  M 152.278 203.048 C 151.748 202.912 151.655 202.619 151.243 202.158 C 150.733 201.585 149.071 200.546 150.36 199.73 C 150.49 199.636 150.846 199.618 151.019 199.568 C 151.213 199.499 151.288 199.356 151.531 199.356 C 152.259 199.356 151.998 199.867 152.19 200.309 C 152.602 201.237 154.115 201.617 154.955 201.878 C 155.864 202.158 156.419 202.868 157.365 203.061 C 158.256 203.229 159.165 203.379 159.937 203.859 C 160.766 204.351 161.133 204.961 161.805 205.583 C 162.098 205.857 162.441 206.28 162.814 206.418 C 162.955 206.472 163.121 206.523 163.293 206.569 C 162.938 206.511 162.541 206.52 162.192 206.53 C 161.644 206.567 161.544 206.792 161.077 206.978 C 160.544 206.246 159.853 206.3 159.145 206.355 C 158.553 206.401 157.951 206.446 157.421 206.032 C 156.911 205.633 156.923 204.947 156.35 204.525 C 155.864 204.164 155.385 203.833 155.84 203.186 C 155.341 202.706 154.239 202.594 153.598 202.819 C 153.225 202.958 153.023 203.105 152.683 203.105 C 152.568 203.105 152.437 203.088 152.278 203.048 Z  M 122.573 137.674 C 122.499 137.698 122.423 137.726 122.347 137.757 C 122.448 137.724 122.546 137.69 122.644 137.657 C 122.62 137.662 122.597 137.668 122.573 137.674 Z  M 122.012 137.855 C 121.57 137.979 121.003 137.979 120.674 138.228 C 121.211 138.37 121.795 137.983 122.347 137.757 C 122.239 137.792 122.128 137.825 122.012 137.855 Z  M 128.296 139.125 L 128.408 139.087 C 128.24 139.586 130.04 139.923 130.264 139.586 C 129.961 139.378 129.108 138.995 128.62 138.995 C 128.467 138.995 128.35 139.033 128.296 139.125 Z  M 97.826 148.031 C 97.427 148.323 96.947 148.516 96.543 148.79 C 96.064 149.094 95.69 149.519 95.242 149.861 C 94.812 150.184 94.345 150.471 93.959 150.87 C 93.572 151.256 93.299 151.735 92.888 152.122 C 91.356 153.535 89.475 154.818 88.463 156.724 C 87.983 157.621 87.426 158.268 86.735 158.997 C 84.845 160.971 83.717 163.387 82.273 165.628 C 80.918 167.709 79.43 169.651 78.689 172.018 C 78.359 173.088 77.755 174.023 77.393 175.057 C 77.026 176.128 76.652 177.162 76.404 178.245 C 75.88 180.543 74.947 182.742 74.822 185.095 C 74.753 186.328 74.526 187.574 74.265 188.757 C 74.081 189.566 73.832 190.127 73.91 190.899 C 73.956 191.397 73.943 191.945 73.922 192.444 C 73.9 192.817 73.661 195.277 74.037 195.309 C 74.137 195.321 74.184 195.246 74.252 195.183 C 74.06 193.739 74.809 192.674 75.32 191.385 C 75.436 191.099 75.993 188.919 76.503 190.202 C 77.064 190.034 76.948 189.53 77.733 189.361 C 78.246 189.249 79.303 189.361 78.415 189.978 C 79.199 190.6 79.53 190.376 79.589 189.53 C 79.645 188.863 79.645 188.072 79.76 187.281 C 79.76 187.008 80.09 186.733 80.09 186.503 C 80.09 186.104 79.702 185.78 79.645 185.369 C 79.589 184.597 79.928 184.199 80.657 184.871 C 80.828 185.04 80.828 185.438 81.043 185.606 C 81.385 185.936 81.998 185.893 82.115 186.335 C 82.226 186.851 81.215 187.792 81.215 188.521 C 81.273 189.143 81.772 190.264 82.058 190.937 C 82.341 191.603 83.07 192.169 83.74 191.385 C 84.468 190.6 82.843 188.694 82.843 187.679 C 82.843 186.889 83.07 186.503 83.4 185.78 C 83.798 184.984 83.74 184.485 83.798 183.638 C 83.854 182.523 83.798 181.396 83.798 180.276 C 83.854 179.54 84.026 178.819 84.139 178.083 C 84.197 177.803 84.468 177.249 84.3 176.9 C 84.072 176.443 83.939 176.639 83.768 176.835 C 83.646 176.975 83.505 177.115 83.297 177.019 C 82.727 176.676 84.197 173.376 84.3 172.753 C 84.412 172.305 84.583 171.234 84.197 170.897 C 83.627 170.336 82.955 171.072 82.787 171.408 C 82.456 171.969 82.341 172.305 81.887 172.809 C 81.273 173.475 81.215 174.222 80.772 174.889 C 80.314 175.561 79.53 175.792 79.131 176.515 C 78.86 177.019 78.916 177.516 78.415 177.859 C 77.904 177.13 79.589 175.331 79.975 174.658 C 80.601 173.649 81.102 172.192 81.33 171.072 C 81.613 169.664 81.501 168.431 82.341 167.142 C 82.616 166.756 83.854 165.174 84.468 165.572 C 85.14 166.027 83.74 167.142 84.069 167.927 C 84.139 168.045 84.241 168.269 84.3 168.369 C 84.81 168.094 84.583 167.597 84.81 167.198 C 84.982 166.799 85.424 166.687 85.652 166.413 C 85.938 165.959 85.539 165.803 85.981 165.517 C 86.209 165.405 86.324 165.803 86.495 165.803 C 86.766 165.685 86.881 165.455 87.164 165.342 C 88.338 164.67 88.519 165.068 87.893 166.071 C 87.507 166.756 87.438 167.54 87.109 168.207 C 86.781 168.965 86.434 168.873 86.021 168.781 C 85.731 168.716 85.409 168.651 85.038 168.879 C 84.696 169.098 84.922 170.511 84.754 171.121 C 84.583 171.856 84.3 172.646 84.64 173.307 C 85.253 174.447 85.869 173.475 86.153 172.646 C 86.267 172.08 86.267 171.582 86.654 171.121 C 86.937 171.52 86.825 172.08 87.392 172.192 C 87.949 172.305 88.291 171.626 88.338 171.183 C 88.338 170.965 88.064 170.798 88.064 170.623 C 88.064 170.28 88.291 170.225 88.394 169.894 C 88.566 169.552 88.678 169.278 88.84 168.992 C 89.02 168.481 89.406 167.871 89.521 167.372 C 89.577 166.856 89.35 166.575 89.406 166.071 C 89.475 165.654 89.827 165.405 89.998 165.024 C 90.157 164.67 90.216 164.222 90.365 163.835 C 90.496 163.474 90.833 163.237 90.963 162.876 C 91.125 162.453 91.032 161.108 90.315 161.506 C 90.181 161.282 90.272 160.609 90.409 160.416 C 89.92 160.31 89.612 160.796 89.338 161.132 C 89.042 161.494 88.6 161.792 88.348 162.153 C 87.893 162.838 88.27 164.258 87.12 163.872 C 87.109 163.468 87.507 163.194 87.722 162.876 C 87.983 162.503 88.111 162.123 88.291 161.705 C 88.566 161.008 89.133 160.609 89.521 160.018 C 89.076 159.202 87.837 161.319 87.451 161.462 C 87.039 160.933 87.939 160.41 88.291 160.148 C 88.827 159.738 88.84 159.476 88.746 158.835 C 88.69 158.467 88.519 157.907 88.678 157.545 C 88.746 157.39 88.964 157.06 89.18 157.153 C 89.487 157.266 89.18 157.695 89.17 157.882 C 89.123 158.542 89.406 158.517 89.748 158.049 C 90.203 157.415 90.59 156.687 91.262 156.201 C 91.636 155.926 92.308 155.753 92.57 155.311 C 92.719 155.068 92.719 154.42 92.856 154.059 C 93.186 153.149 93.809 152.782 94.456 152.153 C 94.948 151.667 95.902 150.814 96.107 150.21 C 95.471 150.447 94.662 151.331 94.276 151.873 C 93.903 152.408 93.323 153.423 92.557 153.373 C 92.75 152.85 93.367 152.576 93.728 152.153 C 94.176 151.654 94.345 151.225 94.912 150.808 C 95.379 150.459 95.857 150.123 96.244 149.687 C 97.028 148.828 98.007 148.267 98.884 147.457 C 99.339 147.047 99.955 146.753 100.466 146.448 C 101.537 145.8 102.583 145.16 103.654 144.568 L 103.592 144.431 C 101.482 145.253 99.656 146.617 97.826 148.031 Z  M 131.279 145.539 L 131.49 145.477 C 130.88 146.093 132.73 145.975 132.96 145.651 C 132.73 145.589 132.45 145.433 132.176 145.433 C 132.275 145.309 132.338 145.023 132.505 144.917 C 132.374 144.829 132.265 144.792 132.173 144.792 C 131.794 144.792 131.68 145.399 131.279 145.539 Z  M 130.993 146.261 C 130.264 146.261 130.152 146.324 129.697 146.934 L 129.838 146.888 C 129.778 146.916 129.733 146.958 129.697 147.047 C 130.152 147.732 132.107 147.843 132.275 146.723 C 132.316 146.31 131.991 146.216 131.605 146.216 C 131.403 146.216 131.184 146.242 130.993 146.261 Z  M 96.369 151.199 C 96.257 151.353 96.293 151.453 96.33 151.536 C 96.887 151.159 97.659 150.5 96.811 150.371 C 96.788 150.368 96.766 150.367 96.743 150.367 C 96.25 150.367 95.619 151.04 96.369 151.199 Z  M 95.97 151.76 L 96.369 151.654 C 96.369 151.616 96.349 151.578 96.33 151.536 C 96.184 151.635 96.053 151.715 95.97 151.76 Z  M 93.447 154.239 C 93.56 154.395 93.616 154.239 93.728 154.239 L 93.652 154.239 C 94.048 154.201 94.592 153.699 94.799 153.33 C 94.014 152.9 95.303 152.383 95.528 151.991 C 95.493 151.978 95.456 151.971 95.416 151.971 C 94.751 151.971 93.447 153.704 93.447 154.239 Z  M 132.101 153.593 C 131.431 153.376 131.07 154.268 130.65 154.625 C 130.481 154.855 130.04 155.024 129.866 155.192 C 129.367 155.864 129.766 155.64 130.152 156.083 C 130.551 156.699 130.594 157.545 131.048 158.268 C 131.547 159.227 131.609 159.563 132.73 159.675 C 133.122 159.738 134.642 159.738 134.088 158.891 C 133.943 158.686 133.677 158.711 133.427 158.735 C 133.268 158.751 133.115 158.767 133.004 158.723 C 132.505 158.492 132.73 158.554 132.505 157.994 C 132.393 157.82 132.107 157.652 132.107 157.421 C 132.064 157.266 132.338 156.879 132.338 156.879 C 132.176 156.425 131.722 156.425 131.609 155.864 C 131.435 155.079 132.904 154.126 132.562 153.729 C 132.461 153.598 132.379 153.546 132.284 153.546 C 132.229 153.546 132.17 153.563 132.101 153.593 Z  M 94.289 155.192 C 94.456 155.41 94.632 155.354 94.912 155.354 L 94.575 155.354 C 95.129 155.241 95.416 154.568 95.857 154.239 C 95.784 154.202 95.71 154.185 95.635 154.185 C 95.144 154.185 94.635 154.9 94.289 155.192 Z  M 92.389 156.481 C 92.413 156.573 92.475 156.615 92.563 156.633 C 93.442 156.397 93.34 155.795 93.785 155.192 C 93.657 155.162 93.547 155.148 93.452 155.148 C 92.626 155.148 92.93 156.184 92.389 156.481 Z  M 94.058 157.652 C 94.855 157.496 96.369 157.266 94.961 157.994 C 94.575 158.168 94.058 158.268 93.672 158.448 C 93.398 158.554 92.501 159.065 92.103 158.953 C 92.215 158.38 92.719 158.337 93.062 157.938 C 93.398 157.496 93.329 157.266 93.56 156.761 C 92.178 156.699 90.022 160.96 91.427 161.403 C 92.084 161.008 91.629 159.757 92.719 160.018 C 92.663 160.18 92.663 160.522 92.601 160.678 C 93.175 160.747 93.672 160.248 94.345 160.248 C 95.074 160.292 95.074 160.41 95.857 160.062 C 96.599 159.787 97.427 159.619 98.099 159.177 C 97.657 158.778 97.77 157.994 97.539 157.496 C 97.427 157.035 97.315 155.97 97.041 155.753 C 96.889 155.62 96.699 155.562 96.489 155.562 C 95.455 155.562 93.929 156.953 94.058 157.652 Z  M 92.501 156.649 L 92.831 156.649 C 92.727 156.649 92.636 156.649 92.563 156.633 C 92.543 156.639 92.522 156.644 92.501 156.649 Z  M 90.365 157.882 C 90.079 158.106 89.521 158.268 89.462 158.667 C 89.406 159.177 89.693 159.121 90.023 158.835 L 90.079 158.891 C 90.646 158.778 91.829 157.321 91.99 156.811 C 91.96 156.809 91.931 156.808 91.902 156.808 C 91.176 156.808 90.791 157.403 90.365 157.882 Z  M 90.023 159.452 L 90.135 159.227 C 90.023 159.452 89.861 159.563 90.191 159.675 C 90.533 159.339 91.094 159.065 91.15 158.605 C 90.59 158.605 90.533 159.227 90.023 159.452 Z  M 118.594 160.678 C 118.251 160.747 117.522 160.971 117.293 161.201 C 116.982 161.459 117.355 162.02 116.746 162.033 C 115.977 161.807 115.768 161.548 114.994 162.378 C 113.593 163.772 114.994 163.044 115.891 163.661 C 115.623 164.06 115.667 164.446 116.178 164.558 C 116.75 164.67 117.018 164.115 117.293 163.717 C 117.635 163.275 117.747 163.213 117.978 162.59 C 118.195 161.818 117.747 162.147 118.531 161.818 C 118.918 161.705 119.777 161.818 119.546 161.077 C 119.428 160.722 119.195 160.669 118.934 160.669 C 118.823 160.669 118.708 160.678 118.594 160.678 Z  M 100.696 161.077 C 100.068 161.132 99.513 161.077 98.953 161.077 C 98.746 161.098 98.63 161.095 98.539 161.093 C 98.378 161.09 98.295 161.086 97.937 161.201 C 97.539 161.307 97.427 161.705 96.928 161.531 L 97.097 161.201 C 95.746 160.909 94.632 161.132 93.398 161.749 C 92.663 162.147 92.159 162.646 92.433 163.437 C 92.719 164.271 93.672 163.997 93.785 164.844 C 93.903 165.517 93.274 165.915 93.175 166.47 C 92.993 166.912 93.062 167.422 92.888 167.871 C 92.776 168.326 92.545 168.83 92.501 169.278 C 92.501 169.614 93.118 169.614 92.545 170.012 C 92.277 170.28 91.829 170.012 91.548 169.938 C 91.704 170.399 91.99 170.965 91.704 171.52 C 91.486 172.018 90.976 172.136 90.59 172.646 C 90.191 173.088 90.079 173.706 89.748 174.222 C 89.462 174.658 88.964 174.945 88.905 175.505 C 88.793 176.116 89.295 176.515 89.35 177.074 C 89.406 177.585 89.123 178.083 89.123 178.532 C 89.123 179.154 89.123 180.325 89.693 180.724 L 89.634 180.556 C 90.533 181.458 91.592 180.045 91.934 179.316 C 92.215 178.7 92.993 177.473 93.062 176.9 C 93.903 176.744 94.289 176.85 95.074 176.346 C 95.802 175.835 96.312 175.393 97.209 175.281 C 98.336 175.163 99.682 175.331 100.628 174.609 C 101.02 174.322 101.02 174.222 101.251 173.762 C 101.468 173.376 101.811 172.921 101.979 172.579 C 102.203 172.018 102.321 171.464 102.54 170.897 C 102.82 170.168 103.324 169.783 103.66 169.098 C 103.891 168.599 103.778 167.871 104.047 167.372 C 104.29 166.974 105.573 166.238 104.29 166.189 C 104.564 165.572 107.316 164.115 106.687 163.499 C 106.43 163.237 106.201 163.264 105.992 163.291 C 105.705 163.327 105.457 163.364 105.23 162.646 C 105.118 162.378 105.23 161.705 105.062 161.476 C 104.732 161.077 104.564 161.531 104.165 161.531 C 103.492 161.476 103.274 161.02 102.764 160.796 C 102.596 160.724 102.444 160.696 102.3 160.696 C 101.772 160.696 101.357 161.077 100.696 161.077 Z  M 91.262 161.476 L 91.486 161.419 C 91.466 161.414 91.446 161.409 91.427 161.403 C 91.378 161.432 91.324 161.457 91.262 161.476 Z  M 102.54 176.626 C 102.035 176.744 102.266 177.13 101.923 177.299 C 101.419 177.585 99.398 177.131 99.848 178.242 C 99.886 178.255 100.474 178.595 100.578 178.7 C 100.797 178.986 100.635 179.316 100.977 179.603 C 101.537 180.213 101.979 179.814 102.652 179.771 L 102.365 179.883 C 103.05 179.715 103.05 179.204 103.381 178.819 C 103.549 178.532 104.221 178.314 104.389 177.972 C 104.787 177.299 104.003 177.13 103.436 176.9 C 103.29 176.855 102.86 176.618 102.613 176.618 C 102.586 176.618 102.562 176.62 102.54 176.626 Z  M 99.849 178.245 C 99.849 178.244 99.848 178.243 99.848 178.242 C 99.847 178.242 99.846 178.242 99.846 178.242 C 99.845 178.242 99.846 178.243 99.849 178.245 Z  M 189.131 179.092 C 188.452 179.385 189.075 181.285 189.636 180.724 C 189.804 180.611 189.474 179.042 189.075 179.042 L 189.131 179.092 Z  M 109.838 184.311 C 109.558 185.319 110.113 185.319 110.729 185.936 C 111.346 186.621 111.239 188.521 111.128 189.361 C 111.071 189.878 109.944 192.401 110.729 192.786 C 111.184 192.954 111.47 191.559 111.626 191.217 C 112.198 190.145 112.809 190.6 113.593 190.034 C 114.098 189.76 113.88 189.305 114.154 189.031 C 114.384 188.745 115.623 188.359 115.169 187.736 C 114.936 187.467 114.662 187.652 114.406 187.838 C 114.23 187.965 114.063 188.093 113.924 188.072 C 112.927 187.96 113.823 187.35 113.593 186.951 C 113.263 186.335 112.753 186.851 112.31 186.335 C 112.08 186.104 112.255 185.382 112.198 185.04 C 112.027 184.494 111.915 182.853 111.373 183.018 C 111.279 182.997 111.188 182.987 111.103 182.987 C 110.392 182.987 109.98 183.671 109.838 184.311 Z  M 185.195 187.679 C 185.308 187.679 185.594 187.91 185.706 187.96 C 185.195 188.421 185.88 188.521 185.706 189.081 C 186.665 189.48 186.833 188.303 186.721 187.679 C 186.609 187.237 186.092 186.104 185.594 185.936 L 185.594 185.893 C 184.921 186.166 185.706 187.175 185.195 187.679 Z  M 107.702 188.694 C 107.59 189.361 106.021 190.762 107.36 191.329 C 107.814 191.559 108.257 191.16 108.375 190.874 C 108.375 190.874 108.257 190.376 108.319 190.264 C 108.43 189.928 108.829 189.692 108.942 189.417 C 109.384 188.521 109.726 187.237 108.599 186.777 L 108.656 186.851 C 108.472 186.718 108.325 186.661 108.205 186.661 C 107.552 186.661 107.75 188.363 107.702 188.694 Z  M 122.461 196.267 L 122.573 196.211 C 122.131 196.828 123.084 197.114 123.19 196.429 L 122.859 196.099 C 122.818 196.089 122.783 196.084 122.754 196.084 C 122.623 196.084 122.598 196.176 122.461 196.267 Z  M 138.515 197.163 L 138.459 197.226 C 138.285 198.285 139.524 197.668 140.084 197.451 C 139.888 197.219 139.327 197.038 138.922 197.038 C 138.737 197.038 138.585 197.076 138.515 197.163 Z  M 122.741 198.733 L 122.573 198.566 C 122.639 198.929 122.767 198.905 122.938 198.88 C 123.058 198.863 123.199 198.846 123.358 198.958 C 123.644 199.132 123.868 199.804 124.086 199.867 C 125.214 200.141 124.429 198.684 124.373 198.453 C 124.373 197.999 125.101 198.123 124.485 197.613 C 124.373 197.451 123.974 197.382 123.756 197.382 C 123.302 197.451 122.355 198.179 122.741 198.733 Z  M 128.464 198.566 C 128.296 198.62 127.169 199.181 127.169 199.181 C 127.014 199.58 127.294 199.867 127.68 199.867 L 127.456 199.867 C 127.511 200.091 127.68 200.365 127.966 200.421 C 128.128 200.477 128.296 200.091 128.464 200.091 C 128.639 200.091 128.981 200.253 128.913 200.253 C 129.31 200.253 130.706 200.19 129.697 199.356 C 130.628 198.803 129.874 198.441 129.133 198.441 C 128.888 198.441 128.645 198.48 128.464 198.566 Z  M 74.196 203.279 C 74.15 203.391 74.196 203.391 74.196 203.504 L 74.309 203.46 C 74.15 204.519 74.878 205.689 74.934 206.816 C 74.99 207.825 75.037 210.354 75.936 211.026 C 76.447 210.627 75.718 209.625 75.718 209.115 C 75.662 208.286 75.718 207.602 75.551 206.816 C 75.385 206.061 75.169 203.267 74.299 203.266 C 74.266 203.266 74.232 203.27 74.196 203.279 Z  M 76.391 211.468 C 76.436 211.471 76.479 211.478 76.52 211.488 C 76.533 211.439 76.547 211.397 76.562 211.363 L 76.391 211.468 Z  M 76.846 213.38 C 77.807 213.816 77.489 211.722 76.52 211.488 C 76.386 211.991 76.38 213.175 76.846 213.38 Z  M 78.415 218.885 L 78.29 218.717 C 78.29 218.823 78.29 218.934 78.347 218.991 C 78.746 220.685 79.928 222.31 80.772 223.755 C 81.613 225.225 82.226 226.682 83.126 228.039 C 84.139 229.608 85.424 230.948 86.495 232.46 C 86.996 233.189 87.335 233.918 87.949 234.602 C 88.519 235.276 89.18 235.773 89.748 236.458 C 90.976 237.953 92.277 239.087 93.785 240.319 C 95.129 241.441 96.089 242.792 97.714 243.576 C 98.554 243.919 99.513 244.193 100.179 244.865 C 100.753 245.432 101.139 246.261 101.923 246.721 C 102.421 247.058 102.82 247.002 103.381 247.107 C 104.334 247.282 104.893 248.004 105.691 248.228 C 105.516 247.842 105.006 247.73 104.62 247.444 C 104.221 247.107 103.991 246.603 103.778 246.217 C 103.492 245.818 102.477 244.803 102.652 244.193 C 102.994 244.193 102.932 244.031 103.15 243.919 C 102.764 243.62 102.876 243.346 103.324 243.296 C 102.994 242.35 101.636 241.776 100.852 241.21 C 100.41 240.936 99.899 240.537 99.513 240.207 C 99.283 240.039 99.171 239.752 98.953 239.597 C 98.826 239.502 98.718 239.511 98.611 239.52 C 98.522 239.528 98.434 239.535 98.336 239.485 C 97.882 239.199 97.539 238.75 97.097 238.464 C 96.599 238.139 96.312 238.239 95.857 238.028 C 95.528 237.91 94.743 237.455 94.513 237.343 C 94.233 237.124 94.014 236.881 93.846 236.496 C 92.993 236.957 92.433 235.543 91.99 235.101 C 91.486 234.652 90.477 234.429 89.805 233.819 C 89.406 233.357 89.521 233.357 89.235 232.803 C 88.905 232.286 88.622 232.286 88.18 231.9 C 87.666 231.333 87.335 230.667 86.937 230.106 C 85.938 228.706 84.197 227.964 83.241 226.351 C 82.286 224.882 81.772 223.369 80.772 221.912 C 80.259 221.238 79.702 220.504 79.246 219.775 C 78.973 219.221 78.518 217.814 78.132 217.59 C 77.904 218.044 78.188 218.486 78.415 218.885 Z  M 175.219 223.094 C 175.101 223.369 174.646 224.054 174.59 224.216 C 174.49 224.664 174.646 225.112 174.49 225.623 C 174.26 226.296 173.98 226.395 173.588 226.906 C 172.859 227.921 173.363 228.475 173.308 229.49 C 173.251 230.106 173.195 230.331 172.859 230.667 C 172.523 231.003 172.018 230.717 171.95 231.452 C 172.068 231.452 172.293 231.515 172.404 231.452 C 172.579 232.361 171.794 233.532 173.637 233.021 C 174.204 232.859 176.558 231.732 175.164 231.333 C 175.431 231.066 175.948 230.792 176.116 230.381 C 176.614 229.434 176.003 230.219 175.885 229.49 C 175.717 228.811 176.956 227.522 177.118 226.682 C 177.343 225.673 177.685 222.472 176.222 222.254 L 176.278 222.31 C 176.143 222.198 176.024 222.151 175.919 222.151 C 175.546 222.151 175.35 222.744 175.219 223.094 Z " fill="url(#_rgradient_36)"/></g></g></g></svg>