<?xml version="1.0" encoding="UTF-8" standalone="no"?><!-- Generator: Gravit.io --><svg xmlns="http://www.w3.org/2000/svg" xmlns:xlink="http://www.w3.org/1999/xlink" style="isolation:isolate" viewBox="0 0 256 215.965" width="256pt" height="215.965pt"><defs><clipPath id="_clipPath_beHBd7PJbcc3V5BdETS6LJ0UQxAIHLJV"><rect width="256" height="215.965"/></clipPath></defs><g clip-path="url(#_clipPath_beHBd7PJbcc3V5BdETS6LJ0UQxAIHLJV)"><g><g><path d=" M 167.92 210.698 L 118.52 210.698 L 118.52 189.734 L 167.92 189.734 L 167.92 210.698 Z " fill="rgb(1,3,5)"/></g><g><path d=" M 0 120.518 L 52.147 120.518 L 52.147 29.654 L 0 29.654 L 0 120.518 Z " fill="rgb(0,0,0)"/></g><g><linearGradient id="_lgradient_357" x1="0" y1="0.5" x2="1" y2="0.5" gradientTransform="matrix(80.451,0,0,215.96,0,0)" gradientUnits="userSpaceOnUse"><stop offset="0%" stop-opacity="1" style="stop-color:rgb(108,110,112)"/><stop offset="53.6%" stop-opacity="1" style="stop-color:rgb(63,62,64)"/><stop offset="100%" stop-opacity="1" style="stop-color:rgb(63,62,64)"/></linearGradient><path d=" M 1.603 0 C 0.716 0 0 0.712 0 1.593 L 0 29.654 L 52.147 29.654 L 52.147 35.043 L 0 35.043 L 0 58.148 L 52.147 58.148 L 52.147 63.537 L 0 63.537 L 0 86.642 L 52.147 86.642 L 52.147 92.025 L 0 92.025 L 0 115.135 L 52.147 115.135 L 52.147 120.518 L 0 120.518 L 0 214.357 C 0 215.248 0.716 215.96 1.603 215.96 L 78.848 215.96 C 79.734 215.96 80.451 215.248 80.451 214.357 L 80.451 1.593 C 80.451 0.712 79.734 0 78.848 0 L 1.603 0 Z " fill="url(#_lgradient_357)"/></g><g><path d=" M 80.451 35.043 L 53.888 35.043 L 53.888 29.654 L 80.451 29.654 L 80.451 35.043 Z " fill="rgb(38,170,225)"/></g><g><path d=" M 80.451 63.537 L 53.888 63.537 L 53.888 58.148 L 80.451 58.148 L 80.451 63.537 Z " fill="rgb(38,170,225)"/></g><g><path d=" M 80.451 92.025 L 53.888 92.025 L 53.888 86.642 L 80.451 86.642 L 80.451 92.025 Z " fill="rgb(38,170,225)"/></g><g><path d=" M 80.451 120.518 L 53.888 120.518 L 53.888 115.135 L 80.451 115.135 L 80.451 120.518 Z " fill="rgb(38,170,225)"/></g><g><path d=" M 80.451 208.599 L 0 208.599 L 0 203.221 L 80.451 203.221 L 80.451 208.599 Z " fill="rgb(0,0,0)"/></g><g><path d=" M 256 192.681 L 30.445 192.681 L 30.445 42.372 L 256 42.372 L 256 192.681 Z " fill="rgb(1,3,5)"/></g><g><linearGradient id="_lgradient_358" x1="0" y1="0.5" x2="0.9396244623806169" y2="0.842207348980025" gradientTransform="matrix(212.479,0,0,138.53,36.983,48.319)" gradientUnits="userSpaceOnUse"><stop offset="0%" stop-opacity="1" style="stop-color:rgb(30,144,206)"/><stop offset="22.154%" stop-opacity="1" style="stop-color:rgb(110,190,233)"/><stop offset="66.5984%" stop-opacity="1" style="stop-color:rgb(26,142,205)"/><stop offset="100%" stop-opacity="1" style="stop-color:rgb(26,142,205)"/></linearGradient><path d=" M 36.983 186.849 L 249.462 186.849 L 249.462 48.319 L 36.983 48.319 L 36.983 186.849 Z " fill="url(#_lgradient_358)"/></g><g><path d=" M 139.186 77.22 C 156.385 74.412 173.935 71.955 191.134 69.498 L 191.134 70.2 L 191.134 115.128 C 173.935 115.128 156.385 115.479 139.186 115.479 L 139.186 77.22 Z " fill="rgb(255,255,255)"/></g><g><path d=" M 95.311 83.187 C 108.298 81.081 121.285 79.326 134.623 77.922 L 134.623 115.479 C 121.285 115.479 108.298 115.83 95.311 115.83 L 95.311 83.187 Z " fill="rgb(255,255,255)"/></g><g><path d=" M 95.311 119.69 C 108.298 119.69 121.285 120.041 134.623 119.69 L 134.623 157.599 C 121.285 155.843 108.298 154.089 95.311 152.333 L 95.311 119.69 Z " fill="rgb(255,255,255)"/></g><g><path d=" M 139.186 120.041 L 191.134 120.041 L 191.134 163.566 L 191.134 165.672 C 173.935 162.864 156.385 160.758 139.186 158.3 L 139.186 120.041 Z " fill="rgb(255,255,255)"/></g><g><path d=" M 193.993 215.965 L 92.451 215.965 L 92.451 205.424 L 193.993 205.424 L 193.993 215.965 Z " fill="rgb(1,3,5)"/></g></g></g></svg>