<?xml version="1.0" encoding="UTF-8" standalone="no"?><!-- Generator: Gravit.io --><svg xmlns="http://www.w3.org/2000/svg" xmlns:xlink="http://www.w3.org/1999/xlink" style="isolation:isolate" viewBox="0 0 256 209.377" width="256pt" height="209.377pt"><defs><clipPath id="_clipPath_0Z8BVBXJgyFlMafJYiV1G6MwM2jAT5sj"><rect width="256" height="209.377"/></clipPath></defs><g clip-path="url(#_clipPath_0Z8BVBXJgyFlMafJYiV1G6MwM2jAT5sj)"><g><radialGradient id="_rgradient_0" fx="0.497" fy="0.867" cx="0.497" cy="0.867" r="0.797" gradientTransform="matrix(256,0,0,209.377,0,0)" gradientUnits="userSpaceOnUse"><stop offset="0%" stop-opacity="1" style="stop-color:rgb(46,147,208)"/><stop offset="100%" stop-opacity="1" style="stop-color:rgb(42,46,119)"/></radialGradient><path d=" M 0 53.006 L 20.732 73.738 C 48.185 46.291 86.112 29.318 128.001 29.318 C 169.889 29.318 207.814 46.291 235.268 73.738 L 256 53.012 C 223.238 20.255 177.986 0 128.001 0 C 78.015 0 32.759 20.255 0 53.006 Z  M 35.367 88.376 L 56.1 109.103 C 74.503 90.712 99.923 79.332 128.001 79.332 C 156.078 79.332 181.495 90.712 199.897 109.109 L 220.63 88.376 C 196.924 64.676 164.173 50.015 128.001 50.015 C 91.828 50.015 59.077 64.67 35.367 88.376 Z  M 70.129 123.132 L 90.86 143.864 C 100.364 134.361 113.495 128.488 127.997 128.488 C 142.502 128.488 155.633 134.365 165.136 143.869 L 185.869 123.137 C 171.061 108.325 150.6 99.169 127.997 99.169 C 105.398 99.169 84.938 108.325 70.129 123.132 Z  M 99.624 181.006 C 99.624 196.679 112.327 209.377 127.997 209.377 C 143.667 209.377 156.371 196.679 156.371 181.006 C 156.371 165.334 143.667 152.635 127.997 152.635 C 112.327 152.635 99.624 165.334 99.624 181.006 Z " fill="url(#_rgradient_0)"/></g></g></svg>