<?xml version="1.0" encoding="UTF-8" standalone="no"?><!-- Generator: Gravit.io --><svg xmlns="http://www.w3.org/2000/svg" xmlns:xlink="http://www.w3.org/1999/xlink" style="isolation:isolate" viewBox="0 0 255.664 161.95" width="255.664pt" height="161.95pt"><defs><clipPath id="_clipPath_kgN1B3PFvGUMFYRXoXTSA96tv9TXjQTN"><rect width="255.664" height="161.95"/></clipPath></defs><g clip-path="url(#_clipPath_kgN1B3PFvGUMFYRXoXTSA96tv9TXjQTN)"><g><g><linearGradient id="_lgradient_7" x1="0" y1="0.5" x2="1" y2="0.5" gradientTransform="matrix(176.264,0,0,57.426,79.4,100.8)" gradientUnits="userSpaceOnUse"><stop offset="0%" stop-opacity="1" style="stop-color:rgb(87,88,90)"/><stop offset="50.3004%" stop-opacity="1" style="stop-color:rgb(128,130,132)"/><stop offset="100%" stop-opacity="1" style="stop-color:rgb(87,88,90)"/></linearGradient><path d=" M 235.76 100.8 L 219.071 100.8 L 133.375 100.8 L 91.36 100.8 L 120.034 100.8 L 103.331 100.8 L 86.557 100.8 L 81.805 104.098 L 81.805 104.239 L 81.805 117.182 L 79.4 117.182 L 79.4 142.802 L 81.805 142.802 L 81.805 153.67 L 82.015 153.67 L 86.557 158.226 L 105.636 158.226 L 117.671 158.226 L 132.677 158.226 L 145.271 158.226 L 149.659 158.226 L 184.449 158.226 L 221.377 158.226 L 233.413 158.226 L 249.193 158.226 L 252.492 153.886 L 252.492 153.67 L 252.492 142.802 L 255.664 142.802 L 255.664 117.182 L 252.492 117.182 L 252.492 104.239 L 252.492 104.098 L 248.564 100.8 L 235.76 100.8 Z " fill="url(#_lgradient_7)"/></g><g><path d=" M 240.429 140.593 L 94.287 140.593 L 94.287 119.383 L 240.429 119.383 L 240.429 140.593 Z " fill="rgb(0,0,0)"/></g><g><path d=" M 107.551 125.17 C 104.882 125.17 102.701 127.329 102.701 129.992 C 102.701 132.655 104.882 134.814 107.551 134.814 L 227.164 134.814 C 229.834 134.814 232 132.655 232 129.992 C 232 127.329 229.834 125.17 227.164 125.17 L 107.551 125.17 Z " fill="rgb(38,170,225)"/></g><g><path d=" M 133.375 100.751 L 91.36 100.751 L 91.36 100.8 L 133.375 100.8 L 133.375 100.751 Z " fill="rgb(27,54,100)"/></g><g><linearGradient id="_lgradient_8" x1="0" y1="0.5" x2="1" y2="0.5" gradientTransform="matrix(16.703,0,0,100.8,105.833,0)" gradientUnits="userSpaceOnUse"><stop offset="0%" stop-opacity="1" style="stop-color:rgb(34,31,32)"/><stop offset="50.2%" stop-opacity="1" style="stop-color:rgb(69,68,70)"/><stop offset="100%" stop-opacity="1" style="stop-color:rgb(34,31,32)"/></linearGradient><path d=" M 111.088 3.005 L 111.088 23.036 C 111.088 23.036 110.823 47.545 109.579 62.144 C 109.579 62.144 106.826 83.216 106.826 98.087 L 105.833 100.8 L 122.536 100.8 L 122.536 98.507 C 122.536 98.507 122.536 83.216 119.433 62.55 C 119.433 62.55 117.98 39.97 118.119 23.169 L 118.119 3.005 C 118.119 3.005 116.833 0 114.751 0 C 113.717 0 112.472 0.755 111.088 3.005 Z " fill="url(#_lgradient_8)"/></g><g><linearGradient id="_lgradient_9" x1="0" y1="0.5" x2="1" y2="0.5" gradientTransform="matrix(16.689,0,0,100.8,219.071,0)" gradientUnits="userSpaceOnUse"><stop offset="0%" stop-opacity="1" style="stop-color:rgb(34,31,32)"/><stop offset="50.2%" stop-opacity="1" style="stop-color:rgb(69,68,70)"/><stop offset="100%" stop-opacity="1" style="stop-color:rgb(34,31,32)"/></linearGradient><path d=" M 224.326 3.005 L 224.326 23.036 C 224.326 23.036 224.061 47.545 222.817 62.144 C 222.817 62.144 220.063 83.216 220.063 98.087 L 219.071 100.8 L 235.76 100.8 L 235.76 98.507 C 235.76 98.507 235.76 83.216 232.658 62.55 C 232.658 62.55 231.218 39.97 231.358 23.169 L 231.358 3.005 C 231.358 3.005 230.072 0 227.99 0 C 226.954 0 225.711 0.755 224.326 3.005 Z " fill="url(#_lgradient_9)"/></g><g><linearGradient id="_lgradient_10" x1="0" y1="0.5" x2="1" y2="0.5" gradientTransform="matrix(12.035,0,0,3.446,105.636,158.226)" gradientUnits="userSpaceOnUse"><stop offset="0%" stop-opacity="1" style="stop-color:rgb(37,34,35)"/><stop offset="100%" stop-opacity="1" style="stop-color:rgb(37,34,35)"/><stop offset="100%" stop-opacity="1" style="stop-color:rgb(68,66,68)"/></linearGradient><path d=" M 105.636 158.226 L 106.727 161.672 L 116.301 161.672 L 117.671 158.226 L 105.636 158.226 Z " fill="url(#_lgradient_10)"/></g><g><linearGradient id="_lgradient_11" x1="0" y1="0.5" x2="1" y2="0.5" gradientTransform="matrix(12.036,0,0,3.446,221.377,158.226)" gradientUnits="userSpaceOnUse"><stop offset="0%" stop-opacity="1" style="stop-color:rgb(56,54,56)"/><stop offset="100%" stop-opacity="1" style="stop-color:rgb(68,66,68)"/></linearGradient><path d=" M 221.377 158.226 L 222.468 161.672 L 232.057 161.672 L 233.413 158.226 L 221.377 158.226 Z " fill="url(#_lgradient_11)"/></g><g><linearGradient id="_lgradient_12" x1="0" y1="0.5" x2="6.123233995736766e-17" y2="-0.5" gradientTransform="matrix(101.801,0,0,101.801,0,60.149)" gradientUnits="userSpaceOnUse"><stop offset="0%" stop-opacity="1" style="stop-color:rgb(7,59,107)"/><stop offset="12.4%" stop-opacity="1" style="stop-color:rgb(7,59,107)"/><stop offset="100%" stop-opacity="1" style="stop-color:rgb(24,92,156)"/></linearGradient><path d=" M 0 111.049 C 0 139.161 22.789 161.95 50.9 161.95 C 79.012 161.95 101.801 139.161 101.801 111.049 C 101.801 82.938 79.012 60.149 50.9 60.149 C 22.789 60.149 0 82.938 0 111.049 Z " fill="url(#_lgradient_12)"/></g><g><linearGradient id="_lgradient_13" x1="0" y1="0.5" x2="6.123233995736766e-17" y2="-0.5" gradientTransform="matrix(44.343,0,0,27.889,51.68,97.105)" gradientUnits="userSpaceOnUse"><stop offset="0%" stop-opacity="1" style="stop-color:rgb(177,179,181)"/><stop offset="78.10000000000001%" stop-opacity="1" style="stop-color:rgb(219,220,222)"/><stop offset="100%" stop-opacity="1" style="stop-color:rgb(219,220,222)"/></linearGradient><path d=" M 51.68 111.049 L 74.366 124.994 L 74.366 117.302 L 96.023 117.302 L 96.023 104.796 L 74.366 104.796 L 74.366 97.105 L 51.68 111.049 Z " fill="url(#_lgradient_13)"/></g><g><linearGradient id="_lgradient_14" x1="0" y1="0.5" x2="6.123233995736766e-17" y2="-0.5" gradientTransform="matrix(44.343,0,0,27.889,5.778,97.105)" gradientUnits="userSpaceOnUse"><stop offset="0%" stop-opacity="1" style="stop-color:rgb(177,179,181)"/><stop offset="78.10000000000001%" stop-opacity="1" style="stop-color:rgb(219,220,222)"/><stop offset="100%" stop-opacity="1" style="stop-color:rgb(219,220,222)"/></linearGradient><path d=" M 27.434 104.796 L 5.778 104.796 L 5.778 117.302 L 27.434 117.302 L 27.434 124.994 L 50.121 111.049 L 27.434 97.105 L 27.434 104.796 Z " fill="url(#_lgradient_14)"/></g><g><linearGradient id="_lgradient_15" x1="0" y1="0.5" x2="6.123233995736766e-17" y2="-0.5" gradientTransform="matrix(27.889,0,0,37.345,36.956,63.34)" gradientUnits="userSpaceOnUse"><stop offset="0%" stop-opacity="1" style="stop-color:rgb(177,179,181)"/><stop offset="78.10000000000001%" stop-opacity="1" style="stop-color:rgb(219,220,222)"/><stop offset="100%" stop-opacity="1" style="stop-color:rgb(219,220,222)"/></linearGradient><path d=" M 36.956 86.026 L 44.647 86.026 L 44.647 100.685 L 57.153 100.685 L 57.153 86.026 L 64.845 86.026 L 50.9 63.34 L 36.956 86.026 Z " fill="url(#_lgradient_15)"/></g><g><linearGradient id="_lgradient_16" x1="0" y1="0.5" x2="6.123233995736766e-17" y2="-0.5" gradientTransform="matrix(27.889,0,0,37.344,36.956,121.414)" gradientUnits="userSpaceOnUse"><stop offset="0%" stop-opacity="1" style="stop-color:rgb(177,179,181)"/><stop offset="78.10000000000001%" stop-opacity="1" style="stop-color:rgb(219,220,222)"/><stop offset="100%" stop-opacity="1" style="stop-color:rgb(219,220,222)"/></linearGradient><path d=" M 44.647 121.414 L 44.647 136.073 L 36.956 136.073 L 50.9 158.758 L 64.845 136.073 L 57.153 136.073 L 57.153 121.414 L 44.647 121.414 Z " fill="url(#_lgradient_16)"/></g></g></g></svg>