<?xml version="1.0" encoding="UTF-8" standalone="no"?><!-- Generator: Gravit.io --><svg xmlns="http://www.w3.org/2000/svg" xmlns:xlink="http://www.w3.org/1999/xlink" style="isolation:isolate" viewBox="0 0 256 256.053" width="256pt" height="256.053pt"><defs><clipPath id="_clipPath_4GLduuhBor5aBsCDZ3JVrrOQSc9fmXR9"><rect width="256" height="256.053"/></clipPath></defs><g clip-path="url(#_clipPath_4GLduuhBor5aBsCDZ3JVrrOQSc9fmXR9)"><g><g><path d=" M 205.404 0 C 209.759 1.228 214.213 2.188 218.455 3.729 C 240.571 11.765 255.865 33.348 255.913 56.845 C 256.01 104.107 256.047 151.371 255.911 198.633 C 255.82 230.449 229.912 255.989 197.927 256.025 C 152.042 256.077 106.156 256.04 60.271 256.039 C 25.854 256.038 0.365 231.234 0.167 196.864 C -0.099 150.827 0 104.786 0.136 58.748 C 0.233 25.79 24.699 4.008 49.244 0.763 C 49.62 0.713 49.943 0.263 50.291 0 L 205.404 0 Z " fill="rgb(35,31,32)"/></g><g><path d=" M 128.538 191.754 C 124.732 191.754 120.925 191.698 117.12 191.77 C 113.119 191.844 109.964 194.548 110.152 198.006 C 110.366 201.946 113.114 204.282 116.648 204.454 C 124.364 204.828 132.119 204.746 139.843 204.46 C 144.019 204.306 146.264 201.36 145.886 197.446 C 145.49 193.346 142.955 191.716 139.043 191.752 C 135.541 191.784 132.039 191.76 128.538 191.754 Z  M 128.009 180.588 L 128.009 180.572 C 129.842 180.564 131.674 180.568 133.506 180.564 C 135.491 180.558 137.486 180.67 139.459 180.504 C 143.567 180.158 146.142 177.458 145.904 173.728 C 145.643 169.628 143.211 167.828 139.239 167.83 C 132.062 167.83 124.886 167.78 117.709 167.828 C 113.145 167.858 110.173 170.32 110.093 173.962 C 110.017 177.466 113.154 180.38 117.474 180.558 C 120.98 180.702 124.497 180.588 128.009 180.588 Z  M 128.372 215.662 L 128.372 215.652 C 124.552 215.648 120.731 215.628 116.911 215.654 C 113.109 215.68 110.971 217.976 110.208 221.344 C 109.499 224.474 112.383 228.15 116.028 228.286 C 124.117 228.586 132.238 228.654 140.318 228.252 C 143.725 228.082 146.252 225.708 145.911 221.742 C 145.576 217.836 143.48 215.624 139.361 215.656 C 135.699 215.686 132.035 215.662 128.372 215.662 Z  M 115.177 135.718 C 113.488 135.718 111.943 135.96 110.5 135.68 C 98.56 133.348 86.379 131.79 74.772 128.322 C 56.217 122.776 38.678 114.98 26.938 96.682 C 26.27 99.374 25.371 101.31 25.392 103.234 C 25.454 109.13 28.807 113.6 32.663 117.582 C 41.447 126.656 52.384 132.4 64.052 136.718 C 72.117 139.702 80.418 142.052 88.738 144.726 C 87.357 147.28 85.735 149.716 84.684 152.378 C 83.567 155.204 81.939 155.394 79.312 154.716 C 62.817 150.454 47.178 144.432 33.562 132.734 C 33.471 140.624 37.038 146.078 42.17 150.588 C 50.53 157.936 61.006 160.98 71.296 164.336 C 73.514 165.058 75.736 165.768 78.065 166.518 C 77.467 168.058 77.114 169.058 76.695 170.03 C 74.193 175.838 74.177 175.874 68.075 174.118 C 57.235 170.998 46.913 166.724 36.842 159.258 C 40.282 177.594 54.598 181.252 68.476 185.984 C 60.814 194.486 52.229 192.62 42.732 189.038 C 46.921 195.824 52.537 198.58 59.222 198.714 C 67.618 198.884 75.438 197.064 79.848 188.774 C 85.646 177.87 91.49 166.984 96.966 155.92 C 100.24 149.304 104.019 144.592 112.329 147.66 C 113.42 148.064 114.744 147.836 116.051 147.906 C 116.575 149.05 117.022 150.174 117.589 151.236 C 119.887 155.546 123.652 157.782 128.386 157.712 C 132.941 157.642 136.857 155.478 138.572 151.144 C 139.707 148.274 141.257 147.496 144.01 147.656 C 145.353 147.734 146.752 147.406 148.08 147.078 C 151.85 146.144 154.402 147.298 156.259 150.852 C 162.465 162.738 169.202 174.36 175.063 186.41 C 179.41 195.344 186.644 198.726 195.714 198.838 C 202.741 198.924 208.862 196.318 213.541 189.066 C 203.732 192.658 195.192 194.444 187.849 185.9 C 201.998 181.34 216.059 177.386 219.214 161.028 C 209.841 165.112 200.642 169.97 190.895 173.136 C 180.504 176.512 183.174 177.784 178.516 167.212 C 178.419 166.994 178.503 166.694 178.503 166.53 C 185.159 164.234 191.84 162.136 198.36 159.624 C 205.371 156.924 212.132 153.651 217.043 147.644 C 220.402 143.536 223.023 139.086 222.766 132.68 C 211.248 142.63 198.446 148.446 184.734 152.49 C 173.574 155.782 173.581 155.816 168.072 145.78 C 167.866 145.404 167.854 144.924 167.707 144.304 C 169.227 143.902 170.686 143.502 172.153 143.13 C 187.753 139.15 202.784 133.802 215.935 124.22 C 222.41 119.504 228.328 114.158 230.634 106.048 C 231.497 103.01 231.925 99.864 228.7 97.584 C 213.665 119.032 163.407 140.428 140.665 135.18 C 140.906 131.12 141.146 127.064 141.392 122.908 C 143.389 122.61 145.036 122.294 146.699 122.13 C 168.485 119.978 189.31 114.572 208.125 103.046 C 216.514 97.908 224.356 91.818 226.87 81.526 C 227.416 79.288 226.375 76.664 225.966 73.434 C 203.874 101.166 173.58 106.672 142.517 111.102 L 142.517 97.708 C 147.639 96.92 152.325 96.32 156.963 95.462 C 173.748 92.356 189.783 87.228 203.712 76.974 C 209.155 72.966 214.068 68.324 215.973 61.434 C 216.817 58.38 216.783 55.554 213.812 53.432 C 201.114 71.152 160.393 89.07 142.994 84.596 C 143.361 80.426 143.732 76.216 144.114 71.884 C 145.183 71.766 145.923 71.7 146.657 71.6 C 162.351 69.436 177.444 65.438 190.839 56.588 C 196.105 53.108 200.877 49.03 203.003 42.728 C 204.085 39.516 204.137 36.532 201.199 34.23 C 186.484 52.146 166.101 56.49 145.147 59.944 L 145.147 46.6 C 151.086 45.362 156.659 44.488 162.065 43.004 C 169.906 40.852 177.409 37.774 183.418 32.04 C 185.798 29.769 188.411 27.234 185.934 23.639 C 147.227 39.554 108.731 39.414 69.582 24.024 C 69.956 26.576 70.304 29.304 71.84 30.856 C 74.477 33.522 77.558 36.226 80.981 37.55 C 90.551 41.25 100.391 44.25 111.223 47.898 C 111.384 50.672 111.634 54.996 111.932 60.122 C 90.163 56.432 69.629 52.13 54.424 33.319 C 53.781 36.18 52.471 38.526 53.024 40.284 C 54.133 43.806 55.492 47.916 58.131 50.146 C 63.653 54.814 69.609 59.598 76.225 62.204 C 87.732 66.738 99.874 69.66 112.542 73.498 L 112.542 85.81 C 85.848 81.838 60.058 76.69 41.675 53.102 C 41.099 55.112 39.851 57.068 40.227 58.632 C 41.06 62.092 42.1 65.796 44.14 68.616 C 50.721 77.714 60.452 82.692 70.447 87.03 C 84.097 92.958 98.539 95.89 113.586 97.552 C 113.908 102.026 114.217 106.328 114.539 110.806 C 96.717 109.388 80.076 105.936 64.261 99.1 C 53.123 94.288 42.502 88.626 34.851 78.736 C 33.704 77.252 32.643 75.7 31.542 74.18 C 30.959 74.27 30.375 74.358 29.792 74.446 C 29.762 77.254 28.723 80.62 29.903 82.76 C 32.716 87.862 35.834 93.242 40.152 96.984 C 54.594 109.5 72.315 115.266 90.629 119.222 C 98.633 120.95 106.814 121.858 115.177 123.18 L 115.177 135.718 Z " fill="rgb(255,255,255)"/></g></g></g></svg>