<?xml version="1.0" encoding="utf-8"?>
<!-- Generator: Adobe Illustrator 15.0.2, SVG Export Plug-In . SVG Version: 6.00 Build 0)  -->
<!DOCTYPE svg PUBLIC "-//W3C//DTD SVG 1.1//EN" "http://www.w3.org/Graphics/SVG/1.1/DTD/svg11.dtd">
<svg version="1.1" id="Artwork" xmlns="http://www.w3.org/2000/svg" xmlns:xlink="http://www.w3.org/1999/xlink" x="0px" y="0px"
	 width="256px" height="256px" viewBox="0 0 256 256" enable-background="new 0 0 256 256" xml:space="preserve">
<g id="Logo_-_Seal">
	<g>
		<path fill="#FFFFFF" d="M43.511,214.972l0.539-0.625c0.324,0.132,0.562,0.215,0.712,0.248c0.154,0.03,0.309,0.03,0.463,0
			c0.155-0.033,0.332-0.128,0.535-0.29c0.208-0.161,0.479-0.437,0.814-0.837l9.049-10.566l2.411,2.064l-2.049,11.035
			c-0.283,1.491-0.527,2.637-0.746,3.438l0.087,0.075c1.1-1.412,2.298-2.874,3.59-4.389l2.615-3.056
			c0.407-0.467,0.663-0.82,0.784-1.051c0.117-0.233,0.158-0.455,0.132-0.67c-0.03-0.219-0.177-0.513-0.444-0.897l0.539-0.625
			l3.583,3.066l-0.535,0.629c-0.29-0.139-0.535-0.226-0.735-0.267c-0.199-0.046-0.388-0.027-0.569,0.045
			c-0.173,0.075-0.357,0.199-0.546,0.38c-0.188,0.182-0.407,0.419-0.663,0.717l-7.022,8.205c-0.403,0.474-0.667,0.817-0.78,1.036
			c-0.113,0.218-0.158,0.44-0.127,0.667c0.026,0.233,0.169,0.542,0.425,0.911l-0.535,0.626l-3.843-3.294l1.635-8.701
			c0.106-0.547,0.26-1.277,0.459-2.189c0.204-0.916,0.411-1.76,0.629-2.539l-0.154-0.128c-1.225,1.571-2.603,3.247-4.137,5.036
			l-1.511,1.768c-0.35,0.41-0.592,0.723-0.719,0.931c-0.125,0.219-0.196,0.396-0.211,0.546c-0.015,0.154,0.008,0.309,0.061,0.463
			c0.06,0.159,0.185,0.384,0.381,0.686l-0.535,0.626L43.511,214.972z"/>
		<path fill="#FFFFFF" d="M43.311,197.062l3.439,4.072l1.175-0.448c0.328-0.124,0.641-0.264,0.923-0.407
			c0.286-0.142,0.565-0.327,0.832-0.554c0.625-0.53,0.679-1.137,0.163-1.838l0.633-0.531l3.439,4.068l-0.629,0.535
			c-0.222-0.215-0.482-0.354-0.772-0.41s-0.618-0.06-0.983-0.003c-0.365,0.06-0.84,0.195-1.436,0.41l-13.958,4.979l-2.151-2.55
			l8.024-12.172c0.358-0.544,0.6-0.95,0.716-1.214c0.12-0.264,0.177-0.523,0.173-0.779c-0.004-0.257-0.094-0.547-0.268-0.87
			l0.629-0.532l4.446,5.267l-0.629,0.532c-0.32-0.298-0.614-0.464-0.896-0.501c-0.279-0.035-0.558,0.063-0.821,0.29
			c-0.199,0.165-0.403,0.372-0.603,0.621c-0.203,0.248-0.448,0.58-0.73,0.995L43.311,197.062z M45.334,201.718l-2.9-3.436
			l-4.084,6.062L45.334,201.718z"/>
		<path fill="#FFFFFF" d="M40.67,184.592l-0.708,0.422c-0.23-0.268-0.441-0.463-0.629-0.592c-0.188-0.124-0.38-0.185-0.58-0.18
			c-0.207,0.007-0.425,0.07-0.67,0.191c-0.241,0.117-0.539,0.279-0.878,0.485l-10.646,6.45l0.523,0.866
			c0.26,0.43,0.505,0.728,0.746,0.894c0.238,0.162,0.513,0.268,0.83,0.306c0.316,0.04,0.689,0.01,1.123-0.087
			c0.433-0.102,0.832-0.204,1.202-0.32l0.889,1.461l-3.752,2.271l-7.614-12.567l3.749-2.268l0.886,1.462
			c-0.404,0.429-0.694,0.749-0.878,0.964c-0.181,0.215-0.316,0.422-0.418,0.617c-0.102,0.193-0.174,0.377-0.215,0.544
			c-0.045,0.168-0.061,0.338-0.052,0.496c0.007,0.162,0.052,0.344,0.131,0.547c0.08,0.199,0.204,0.44,0.38,0.734l0.467,0.769
			l10.65-6.45c0.377-0.226,0.655-0.414,0.84-0.557c0.185-0.136,0.32-0.271,0.403-0.399c0.087-0.133,0.144-0.26,0.166-0.389
			c0.022-0.128,0.022-0.282-0.004-0.463c-0.026-0.185-0.098-0.41-0.215-0.686l0.705-0.422L40.67,184.592z"/>
		<path fill="#FFFFFF" d="M29.327,169.918c0.268-0.121,0.509-0.237,0.73-0.357c0.219-0.12,0.392-0.227,0.516-0.339
			c0.125-0.113,0.215-0.234,0.272-0.366c0.063-0.132,0.093-0.29,0.093-0.475c0.004-0.185-0.015-0.399-0.06-0.645l0.746-0.339
			l2.69,5.979l-0.753,0.335c-0.2-0.245-0.38-0.432-0.542-0.554c-0.162-0.12-0.335-0.191-0.527-0.203
			c-0.196-0.012-0.415,0.026-0.663,0.113c-0.245,0.095-0.554,0.219-0.916,0.384l-9.826,4.424c-0.365,0.162-0.659,0.309-0.885,0.429
			c-0.226,0.129-0.399,0.264-0.52,0.41c-0.121,0.151-0.188,0.329-0.204,0.532c-0.019,0.21,0,0.471,0.053,0.795l-0.75,0.339
			l-2.686-5.979l0.746-0.335c0.226,0.274,0.418,0.463,0.58,0.568c0.163,0.102,0.328,0.162,0.498,0.177
			c0.169,0.012,0.373-0.012,0.606-0.083c0.233-0.067,0.561-0.199,0.987-0.388L29.327,169.918z"/>
		<path fill="#FFFFFF" d="M28.531,157.987c0.708,2.343,0.558,4.309-0.463,5.899c-1.014,1.59-2.89,2.792-5.625,3.616
			c-1.793,0.547-3.409,0.724-4.852,0.538c-1.443-0.188-2.664-0.73-3.662-1.643c-0.995-0.903-1.725-2.124-2.185-3.65
			c-0.723-2.385-0.58-4.381,0.426-5.99c1.01-1.607,2.856-2.817,5.549-3.627c1.503-0.456,2.852-0.667,4.039-0.645
			c1.187,0.03,2.227,0.264,3.116,0.708c0.893,0.441,1.635,1.07,2.238,1.884C27.718,155.896,28.193,156.864,28.531,157.987z
			 M20.974,163.807c2.408-0.724,4.11-1.552,5.112-2.489c0.998-0.935,1.323-1.997,0.965-3.181c-0.185-0.613-0.505-1.084-0.968-1.416
			c-0.463-0.331-1.032-0.542-1.707-0.629c-0.671-0.083-1.436-0.067-2.28,0.064c-0.847,0.124-1.759,0.343-2.731,0.637
			c-1.586,0.479-2.878,1.002-3.873,1.574c-0.995,0.577-1.691,1.202-2.083,1.873c-0.391,0.67-0.471,1.4-0.229,2.188
			c0.347,1.157,1.157,1.847,2.43,2.076C16.887,164.734,18.672,164.504,20.974,163.807z"/>
		<path fill="#FFFFFF" d="M6.787,135.325l0.817-0.104c0.151,0.316,0.271,0.543,0.362,0.667c0.09,0.124,0.203,0.229,0.339,0.305
			c0.136,0.083,0.332,0.128,0.592,0.15c0.252,0.015,0.648-0.007,1.164-0.07l13.8-1.741l0.395,3.146l-8.932,6.789
			c-1.209,0.915-2.166,1.601-2.863,2.05l0.015,0.104c1.767-0.305,3.636-0.575,5.61-0.828l3.989-0.505
			c0.622-0.076,1.047-0.162,1.289-0.256c0.237-0.091,0.422-0.23,0.546-0.407c0.125-0.177,0.219-0.502,0.279-0.957l0.817-0.105
			l0.592,4.683l-0.818,0.102c-0.125-0.298-0.245-0.526-0.365-0.693c-0.117-0.161-0.268-0.282-0.452-0.347
			c-0.185-0.063-0.403-0.094-0.655-0.087c-0.26,0.009-0.588,0.035-0.977,0.087l-10.714,1.353c-0.622,0.076-1.044,0.158-1.273,0.238
			c-0.23,0.082-0.414,0.219-0.55,0.41c-0.132,0.192-0.23,0.509-0.291,0.964l-0.817,0.103l-0.633-5.019l7.068-5.342
			c0.44-0.335,1.043-0.772,1.808-1.311c0.766-0.539,1.485-1.025,2.167-1.459l-0.026-0.195c-1.959,0.339-4.11,0.655-6.449,0.952
			l-2.302,0.291c-0.542,0.067-0.923,0.136-1.157,0.211c-0.237,0.068-0.41,0.162-0.523,0.26c-0.109,0.103-0.199,0.23-0.264,0.388
			c-0.068,0.155-0.124,0.403-0.181,0.762l-0.818,0.094L6.787,135.325z"/>
		<path fill="#FFFFFF" d="M18.676,121.938l-0.185,5.326l1.168,0.457c0.328,0.124,0.648,0.233,0.958,0.32
			c0.309,0.083,0.64,0.135,0.986,0.146c0.814,0.03,1.267-0.392,1.356-1.254l0.826,0.029l-0.188,5.328l-0.825-0.023
			c-0.023-0.309-0.125-0.587-0.298-0.825c-0.173-0.24-0.415-0.459-0.723-0.659c-0.309-0.199-0.757-0.422-1.337-0.658L6.73,124.435
			l0.117-3.331l14.12-3.632c0.633-0.162,1.082-0.297,1.345-0.417c0.268-0.113,0.482-0.268,0.652-0.464
			c0.169-0.192,0.297-0.467,0.388-0.825l0.821,0.034l-0.241,6.883l-0.825-0.026c-0.034-0.437-0.143-0.761-0.328-0.971
			c-0.181-0.211-0.452-0.329-0.802-0.339c-0.252-0.008-0.543,0.007-0.863,0.052c-0.32,0.049-0.723,0.128-1.209,0.25L18.676,121.938z
			 M17.045,126.745l0.158-4.491l-7.094,1.751L17.045,126.745z"/>
		<path fill="#FFFFFF" d="M8.904,104.829l0.81,0.151c0.027,0.309,0.072,0.561,0.136,0.75c0.06,0.188,0.166,0.347,0.312,0.471
			c0.151,0.124,0.346,0.223,0.595,0.297c0.252,0.072,0.576,0.151,0.972,0.223l12.233,2.242l0.433-2.381
			c0.086-0.475,0.086-0.87-0.011-1.183c-0.094-0.317-0.275-0.607-0.546-0.875c-0.268-0.26-0.637-0.516-1.104-0.757
			c-0.471-0.241-0.912-0.448-1.326-0.618l0.309-1.688l4.909,1.183l-2.144,11.705l-0.81-0.147c-0.027-0.32-0.075-0.577-0.14-0.769
			c-0.064-0.196-0.173-0.35-0.328-0.467c-0.151-0.117-0.35-0.208-0.607-0.287c-0.252-0.067-0.576-0.143-0.971-0.211l-10.576-1.936
			c-0.384-0.072-0.708-0.121-0.976-0.147c-0.263-0.03-0.486-0.011-0.667,0.041c-0.177,0.053-0.335,0.163-0.471,0.32
			c-0.135,0.158-0.271,0.381-0.407,0.679l-0.81-0.147L8.904,104.829z"/>
		<path fill="#FFFFFF" d="M17.975,77.094l3.369,1.333l-0.625,1.579c-0.946-0.162-1.707-0.125-2.283,0.117
			c-0.573,0.237-0.987,0.682-1.243,1.33c-0.49,1.221-0.268,2.381,0.659,3.466c0.919,1.092,2.536,2.095,4.841,3.01
			c2.144,0.847,3.881,1.209,5.21,1.07c1.33-0.136,2.211-0.754,2.656-1.865c0.223-0.562,0.313-1.059,0.26-1.492
			c-0.045-0.43-0.218-0.829-0.513-1.19c-0.293-0.366-0.757-0.757-1.378-1.19l0.629-1.59l3.519,1.394
			c-0.135,0.934-0.297,1.767-0.482,2.505c-0.185,0.742-0.426,1.492-0.727,2.249c-0.641,1.608-1.447,2.807-2.43,3.598
			c-0.983,0.788-2.163,1.191-3.523,1.206c-1.367,0.019-2.949-0.329-4.743-1.04c-1.677-0.667-3.029-1.53-4.042-2.588
			c-1.017-1.063-1.639-2.28-1.88-3.651c-0.233-1.375-0.045-2.833,0.565-4.37c0.312-0.783,0.633-1.473,0.968-2.075
			C17.109,78.311,17.508,77.708,17.975,77.094z"/>
		<path fill="#FFFFFF" d="M37.683,75.523l-3.308,5.658l-0.708-0.411c0.087-0.309,0.128-0.565,0.135-0.769
			c0.008-0.203-0.037-0.388-0.143-0.55c-0.102-0.162-0.264-0.32-0.475-0.467c-0.214-0.154-0.494-0.335-0.836-0.539l-9.294-5.433
			c-0.339-0.195-0.629-0.354-0.866-0.47c-0.241-0.117-0.456-0.178-0.645-0.185c-0.192-0.011-0.377,0.042-0.554,0.139
			c-0.181,0.102-0.384,0.271-0.621,0.498l-0.709-0.414l3.673-6.284c0.498-0.852,0.976-1.533,1.443-2.057
			c0.467-0.524,0.953-0.938,1.454-1.24c0.418-0.256,0.854-0.426,1.315-0.505c0.456-0.083,0.93-0.072,1.416,0.026
			c0.49,0.098,0.999,0.301,1.537,0.618c0.708,0.407,1.239,0.882,1.598,1.432c0.358,0.542,0.584,1.123,0.67,1.737
			c0.087,0.614,0.075,1.364-0.042,2.238l0.109,0.064c0.539-0.399,1.108-0.655,1.691-0.784c0.588-0.124,1.258-0.154,2.012-0.086
			l1.86,0.181c0.833,0.075,1.5,0.064,2.001-0.045c0.501-0.105,0.908-0.343,1.217-0.712l0.712,0.418l-2.426,4.148
			c-0.817,0.083-1.948,0.053-3.391-0.087l-2.335-0.237c-0.689-0.064-1.202-0.079-1.541-0.034c-0.339,0.041-0.603,0.139-0.799,0.279
			c-0.2,0.139-0.411,0.403-0.64,0.802l-0.374,0.622l3.474,2.023c0.539,0.317,0.931,0.516,1.176,0.588
			c0.245,0.075,0.475,0.079,0.689,0.011c0.211-0.064,0.482-0.267,0.81-0.599L37.683,75.523z M23.57,68.836l5.994,3.504l0.625-1.066
			c0.336-0.573,0.539-1.092,0.6-1.556c0.067-0.464,0.022-0.886-0.128-1.27c-0.147-0.38-0.384-0.723-0.708-1.025
			c-0.324-0.297-0.712-0.58-1.157-0.844c-0.976-0.569-1.846-0.765-2.6-0.591c-0.757,0.173-1.402,0.712-1.929,1.62
			C23.898,68.226,23.672,68.633,23.57,68.836z"/>
		<path fill="#FFFFFF" d="M37.66,46.379l3.085,2.494l-1.077,1.33c-0.787-0.278-1.349-0.437-1.685-0.459
			c-0.335-0.03-0.651,0.011-0.945,0.117c-0.293,0.105-0.644,0.407-1.047,0.904l-1.706,2.117l4.66,3.771l1.036-1.285
			c0.233-0.286,0.373-0.542,0.422-0.768c0.049-0.23,0.022-0.471-0.079-0.728s-0.312-0.595-0.625-1.014l0.886-1.1l3.944,3.191
			l-0.885,1.096c-0.449-0.215-0.818-0.343-1.104-0.396c-0.29-0.049-0.535-0.034-0.739,0.052c-0.207,0.083-0.433,0.275-0.681,0.581
			l-1.037,1.285l5.184,4.193l1.703-2.106c0.185-0.226,0.324-0.425,0.418-0.61c0.098-0.181,0.158-0.362,0.188-0.539
			c0.026-0.177,0.026-0.377-0.004-0.591c-0.034-0.215-0.083-0.418-0.154-0.622c-0.075-0.204-0.188-0.449-0.343-0.731
			c-0.154-0.287-0.389-0.648-0.701-1.096l1.078-1.33l3.394,3.048l-7.716,9.543l-0.64-0.52c0.128-0.294,0.211-0.539,0.245-0.738
			c0.042-0.2,0.023-0.384-0.06-0.558c-0.076-0.177-0.208-0.358-0.396-0.539c-0.192-0.188-0.441-0.404-0.75-0.656l-8.367-6.771
			c-0.305-0.244-0.569-0.44-0.787-0.595c-0.219-0.151-0.422-0.245-0.606-0.283c-0.185-0.038-0.374-0.019-0.565,0.053
			c-0.196,0.079-0.422,0.211-0.686,0.403l-0.644-0.52L37.66,46.379z"/>
		<path fill="#FFFFFF" d="M45.816,38.306c1.028-0.935,1.963-1.632,2.799-2.099c0.832-0.459,1.676-0.765,2.527-0.9
			c0.848-0.144,1.654-0.125,2.419,0.057c0.761,0.177,1.511,0.512,2.245,0.998c0.731,0.486,1.462,1.126,2.177,1.925
			c0.875,0.96,1.545,1.929,2.012,2.893c0.467,0.968,0.72,1.929,0.761,2.882c0.042,0.855-0.087,1.699-0.389,2.543
			c-0.301,0.844-0.768,1.669-1.413,2.49c-0.554,0.705-1.326,1.503-2.32,2.407l-4.201,3.801l-0.558-0.614
			c0.169-0.268,0.294-0.497,0.366-0.689c0.067-0.192,0.075-0.377,0.026-0.561c-0.053-0.188-0.154-0.384-0.312-0.595
			c-0.155-0.211-0.373-0.467-0.641-0.765l-7.222-7.979c-0.264-0.286-0.49-0.523-0.686-0.708c-0.196-0.181-0.381-0.309-0.558-0.373
			c-0.177-0.068-0.366-0.079-0.565-0.034c-0.207,0.042-0.452,0.136-0.742,0.29l-0.55-0.61L45.816,38.306z M55.287,50.685
			c0.125-0.079,0.415-0.324,0.867-0.73c0.678-0.614,1.16-1.228,1.443-1.85c0.215-0.456,0.32-0.926,0.328-1.405
			c0.015-0.792-0.181-1.616-0.595-2.479c-0.448-0.946-1.152-1.944-2.121-3.014c-1.063-1.172-2.099-2.004-3.116-2.491
			c-1.018-0.486-1.978-0.655-2.878-0.508c-0.904,0.151-1.752,0.583-2.551,1.303c-0.384,0.351-0.651,0.603-0.806,0.765L55.287,50.685
			z"/>
		<path fill="#FFFFFF" d="M68.62,37.966c0.169,0.241,0.332,0.459,0.482,0.652c0.154,0.196,0.301,0.346,0.433,0.448
			c0.132,0.102,0.268,0.17,0.407,0.203c0.139,0.042,0.305,0.042,0.482,0.008c0.181-0.03,0.388-0.087,0.622-0.181l0.467,0.679
			l-5.383,3.737l-0.471-0.675c0.204-0.245,0.351-0.459,0.449-0.637c0.086-0.181,0.124-0.369,0.094-0.557
			c-0.027-0.188-0.098-0.399-0.23-0.629c-0.132-0.229-0.309-0.509-0.535-0.836l-6.148-8.854c-0.226-0.328-0.422-0.591-0.584-0.791
			c-0.162-0.204-0.328-0.347-0.497-0.437c-0.169-0.091-0.358-0.121-0.565-0.103c-0.203,0.019-0.459,0.083-0.768,0.196l-0.46-0.678
			l5.384-3.741l0.471,0.682c-0.23,0.268-0.381,0.49-0.456,0.671c-0.075,0.177-0.106,0.35-0.083,0.523
			c0.015,0.169,0.079,0.361,0.188,0.58c0.106,0.215,0.298,0.516,0.562,0.897L68.62,37.966z"/>
		<path fill="#FFFFFF" d="M76.645,36.644l-0.384-0.727c0.283-0.215,0.49-0.411,0.625-0.591c0.139-0.178,0.207-0.37,0.215-0.573
			c0.003-0.2-0.042-0.422-0.147-0.675c-0.102-0.249-0.245-0.554-0.429-0.904l-5.802-11.016l-0.893,0.475
			c-0.445,0.23-0.758,0.459-0.938,0.686c-0.181,0.23-0.302,0.498-0.354,0.81c-0.053,0.313-0.049,0.682,0.019,1.119
			c0.076,0.44,0.155,0.844,0.249,1.221l-1.515,0.798l-2.045-3.877l13.001-6.853l2.046,3.877l-1.515,0.798
			c-0.407-0.429-0.712-0.734-0.916-0.93c-0.207-0.192-0.403-0.347-0.591-0.46c-0.185-0.109-0.362-0.196-0.531-0.245
			c-0.166-0.053-0.332-0.083-0.494-0.083s-0.339,0.038-0.55,0.099c-0.207,0.067-0.456,0.177-0.757,0.338l-0.795,0.418l5.798,11.012
			c0.208,0.392,0.373,0.678,0.501,0.874c0.128,0.192,0.256,0.335,0.377,0.425c0.124,0.094,0.252,0.158,0.38,0.196
			c0.121,0.034,0.279,0.042,0.463,0.023c0.185-0.015,0.411-0.075,0.693-0.169l0.384,0.727L76.645,36.644z"/>
		<path fill="#FFFFFF" d="M100.567,12.367c-0.162-0.606-0.305-1.013-0.418-1.24c-0.117-0.218-0.271-0.384-0.463-0.485
			c-0.188-0.102-0.527-0.155-0.998-0.155l-0.219-0.798l5.301-1.447l0.214,0.794c-0.263,0.159-0.467,0.309-0.61,0.449
			c-0.146,0.139-0.241,0.301-0.282,0.49c-0.042,0.188-0.042,0.414,0,0.67c0.038,0.264,0.117,0.588,0.218,0.972l2.053,7.531
			c0.271,0.994,0.418,1.85,0.441,2.566c0.022,0.715-0.076,1.348-0.287,1.898c-0.211,0.546-0.531,1.032-0.957,1.45
			c-0.426,0.418-0.934,0.776-1.525,1.066c-0.596,0.286-1.281,0.542-2.061,0.75c-1.138,0.313-2.14,0.456-2.988,0.434
			c-0.852-0.023-1.589-0.204-2.211-0.547c-0.621-0.343-1.149-0.825-1.567-1.442c-0.422-0.618-0.784-1.462-1.077-2.543l-2.121-7.794
			c-0.106-0.377-0.204-0.693-0.291-0.945c-0.09-0.249-0.2-0.445-0.328-0.581c-0.128-0.139-0.294-0.237-0.49-0.29
			c-0.2-0.049-0.463-0.079-0.795-0.072l-0.211-0.794l6.325-1.726l0.215,0.795c-0.309,0.177-0.52,0.335-0.652,0.482
			c-0.132,0.147-0.215,0.298-0.256,0.463c-0.045,0.166-0.045,0.374-0.012,0.618c0.03,0.241,0.106,0.583,0.23,1.036l2.167,7.953
			c0.173,0.633,0.373,1.202,0.591,1.699c0.222,0.498,0.489,0.908,0.806,1.225c0.317,0.312,0.686,0.52,1.119,0.621
			c0.433,0.094,0.949,0.064,1.541-0.098c0.821-0.222,1.383-0.554,1.695-0.991c0.313-0.44,0.471-0.976,0.475-1.612
			c0-0.633-0.154-1.541-0.475-2.712L100.567,12.367z"/>
		<path fill="#FFFFFF" d="M123.615,5.861l0.084,0.818c-0.32,0.139-0.543,0.256-0.675,0.343c-0.127,0.086-0.236,0.199-0.316,0.335
			c-0.087,0.136-0.14,0.328-0.163,0.588c-0.022,0.256-0.007,0.644,0.042,1.167l1.397,13.837l-3.153,0.321l-6.567-9.102
			c-0.881-1.228-1.541-2.2-1.974-2.912l-0.117,0.015c0.264,1.771,0.497,3.647,0.697,5.625l0.399,4.001
			c0.063,0.625,0.139,1.051,0.229,1.292c0.083,0.245,0.215,0.429,0.396,0.558c0.173,0.124,0.493,0.229,0.953,0.293l0.087,0.825
			l-4.702,0.471l-0.083-0.821c0.298-0.109,0.527-0.226,0.697-0.346c0.166-0.113,0.29-0.264,0.358-0.441
			c0.071-0.181,0.105-0.399,0.102-0.66c0-0.256-0.019-0.58-0.057-0.972l-1.085-10.741c-0.064-0.625-0.132-1.047-0.208-1.281
			c-0.083-0.233-0.211-0.417-0.399-0.558c-0.184-0.139-0.501-0.245-0.953-0.32l-0.083-0.817l5.03-0.509l5.165,7.196
			c0.32,0.452,0.747,1.062,1.27,1.842c0.519,0.776,0.987,1.507,1.401,2.204l0.199-0.019c-0.293-1.974-0.554-4.125-0.791-6.473
			l-0.234-2.309c-0.057-0.535-0.113-0.927-0.18-1.161c-0.068-0.237-0.147-0.41-0.245-0.527c-0.105-0.109-0.226-0.207-0.381-0.271
			c-0.154-0.072-0.407-0.135-0.753-0.199l-0.086-0.818L123.615,5.861z"/>
		<path fill="#FFFFFF" d="M132.947,20c-0.008,0.29-0.003,0.561,0.004,0.813c0.008,0.245,0.038,0.452,0.083,0.61
			c0.042,0.158,0.113,0.294,0.207,0.403c0.095,0.113,0.227,0.207,0.389,0.294c0.165,0.079,0.365,0.158,0.606,0.218l-0.02,0.821
			l-6.555-0.162l0.019-0.821c0.313-0.075,0.554-0.162,0.735-0.249c0.181-0.09,0.32-0.223,0.411-0.392s0.154-0.384,0.181-0.644
			c0.03-0.264,0.049-0.592,0.063-0.991l0.261-10.771c0.008-0.403,0.008-0.731-0.004-0.987c-0.015-0.26-0.063-0.475-0.146-0.645
			c-0.079-0.169-0.212-0.309-0.389-0.418c-0.174-0.102-0.422-0.199-0.738-0.293l0.019-0.821l6.551,0.158l-0.016,0.825
			c-0.342,0.087-0.599,0.173-0.761,0.279c-0.165,0.102-0.293,0.222-0.376,0.369c-0.087,0.151-0.15,0.347-0.186,0.584
			c-0.045,0.241-0.071,0.595-0.082,1.059L132.947,20z"/>
		<path fill="#FFFFFF" d="M144.058,24.427c-2.418-0.37-4.129-1.356-5.123-2.958c-0.999-1.601-1.277-3.813-0.844-6.638
			c0.281-1.846,0.82-3.387,1.607-4.607c0.787-1.224,1.81-2.087,3.056-2.596c1.243-0.512,2.659-0.641,4.242-0.399
			c2.46,0.376,4.197,1.367,5.222,2.968c1.017,1.594,1.311,3.787,0.885,6.567c-0.236,1.556-0.625,2.863-1.16,3.926
			c-0.542,1.055-1.201,1.895-1.985,2.501c-0.78,0.614-1.672,1.021-2.663,1.209C146.299,24.6,145.222,24.607,144.058,24.427z
			 M142.064,15.106c-0.38,2.487-0.365,4.378,0.049,5.685c0.407,1.307,1.226,2.05,2.453,2.238c0.633,0.098,1.197,0.007,1.691-0.264
			c0.501-0.275,0.93-0.701,1.3-1.266c0.369-0.573,0.678-1.266,0.923-2.087c0.248-0.821,0.448-1.737,0.603-2.739
			c0.253-1.635,0.331-3.029,0.245-4.174c-0.095-1.145-0.357-2.045-0.791-2.686c-0.438-0.645-1.062-1.029-1.876-1.153
			c-1.191-0.181-2.17,0.252-2.92,1.3C142.988,11.015,142.434,12.722,142.064,15.106z"/>
		<path fill="#FFFFFF" d="M173.876,14.571l-0.256,0.784c-0.354-0.004-0.603,0.008-0.758,0.038c-0.154,0.027-0.297,0.083-0.425,0.174
			c-0.129,0.09-0.257,0.249-0.385,0.471c-0.129,0.222-0.271,0.587-0.438,1.085l-4.377,13.201l-3.011-0.995l-2.274-10.993
			c-0.306-1.484-0.509-2.642-0.615-3.462l-0.101-0.038c-0.483,1.729-1.044,3.534-1.669,5.421l-1.274,3.816
			c-0.195,0.595-0.305,1.017-0.323,1.277c-0.019,0.256,0.03,0.482,0.135,0.67c0.11,0.188,0.358,0.411,0.751,0.66l-0.261,0.783
			l-4.479-1.48l0.261-0.784c0.315,0.015,0.58,0.008,0.779-0.03c0.199-0.042,0.369-0.125,0.505-0.26
			c0.14-0.136,0.26-0.32,0.361-0.554c0.105-0.241,0.223-0.546,0.339-0.916l3.398-10.251c0.2-0.588,0.306-1.01,0.332-1.251
			c0.021-0.241-0.023-0.463-0.132-0.67c-0.113-0.203-0.362-0.429-0.742-0.678l0.259-0.783l4.801,1.586l1.781,8.676
			c0.105,0.546,0.237,1.281,0.4,2.204c0.161,0.919,0.285,1.782,0.377,2.584l0.191,0.06c0.539-1.917,1.179-3.993,1.921-6.231
			l0.728-2.204c0.17-0.512,0.271-0.889,0.309-1.13c0.033-0.241,0.033-0.437-0.007-0.583c-0.042-0.147-0.125-0.283-0.233-0.407
			c-0.113-0.121-0.317-0.286-0.607-0.489l0.256-0.78L173.876,14.571z"/>
		<path fill="#FFFFFF" d="M186.259,34.256l-4.572-2.743l-0.966,0.803c-0.271,0.226-0.516,0.452-0.745,0.682
			c-0.226,0.23-0.426,0.49-0.61,0.791c-0.419,0.705-0.271,1.296,0.441,1.797l-0.422,0.708l-4.574-2.742l0.426-0.712
			c0.278,0.128,0.564,0.181,0.863,0.14c0.293-0.038,0.605-0.144,0.931-0.317c0.327-0.173,0.733-0.459,1.228-0.851l11.6-9.211
			l2.855,1.711l-3.662,14.112c-0.162,0.629-0.26,1.092-0.29,1.378c-0.025,0.29,0,0.55,0.087,0.795
			c0.086,0.241,0.268,0.485,0.535,0.734l-0.426,0.712l-5.911-3.545l0.426-0.712c0.396,0.181,0.734,0.245,1.01,0.184
			c0.278-0.052,0.505-0.233,0.688-0.535c0.129-0.222,0.253-0.482,0.37-0.784c0.113-0.301,0.233-0.693,0.369-1.175L186.259,34.256z
			 M182.851,30.507l3.854,2.31l1.906-7.052L182.851,30.507z"/>
		<path fill="#FFFFFF" d="M206.084,34.105c1.054,0.9,1.871,1.737,2.444,2.505c0.565,0.773,0.979,1.563,1.232,2.392
			c0.244,0.821,0.331,1.624,0.252,2.404c-0.08,0.784-0.313,1.563-0.697,2.355c-0.392,0.791-0.931,1.597-1.627,2.411
			c-0.844,0.991-1.715,1.778-2.615,2.369c-0.896,0.592-1.815,0.965-2.753,1.126c-0.837,0.151-1.691,0.132-2.57-0.053
			c-0.874-0.184-1.756-0.546-2.648-1.077c-0.769-0.459-1.664-1.123-2.686-1.985l-4.318-3.677l0.539-0.629
			c0.287,0.14,0.531,0.226,0.728,0.271c0.199,0.042,0.385,0.026,0.564-0.049c0.174-0.075,0.358-0.204,0.547-0.384
			c0.188-0.185,0.414-0.43,0.671-0.735l6.978-8.197c0.248-0.294,0.455-0.554,0.609-0.769c0.159-0.219,0.256-0.415,0.298-0.599
			c0.041-0.185,0.026-0.373-0.042-0.569c-0.075-0.196-0.199-0.422-0.384-0.696l0.532-0.626L206.084,34.105z M195.037,45.102
			c0.102,0.113,0.377,0.373,0.841,0.761c0.7,0.591,1.371,0.991,2.02,1.198c0.481,0.146,0.964,0.196,1.435,0.139
			c0.788-0.09,1.575-0.392,2.378-0.912c0.877-0.562,1.781-1.398,2.712-2.495c1.028-1.205,1.714-2.343,2.068-3.413
			c0.354-1.066,0.402-2.042,0.132-2.919c-0.264-0.875-0.807-1.662-1.624-2.359c-0.396-0.335-0.679-0.565-0.862-0.701L195.037,45.102
			z"/>
		<path fill="#FFFFFF" d="M228.375,59.274c-0.373-0.264-0.667-0.414-0.878-0.444c-0.211-0.034-0.438,0.003-0.663,0.113
			c-0.233,0.102-0.588,0.354-1.073,0.742l-8.405,6.785c-0.4,0.32-0.697,0.588-0.894,0.814c-0.195,0.223-0.312,0.444-0.335,0.664
			c-0.019,0.214,0.071,0.546,0.271,0.994l-0.645,0.516l-4.02-4.984l0.64-0.516c0.311,0.222,0.535,0.365,0.683,0.429
			c0.146,0.06,0.293,0.087,0.437,0.072c0.147-0.015,0.32-0.079,0.539-0.208c0.211-0.124,0.538-0.365,0.98-0.723l4.761-3.846
			c0.523-0.418,1.152-0.908,1.88-1.466c0.728-0.554,1.247-0.941,1.561-1.164l-0.166-0.204c-0.32,0.132-0.645,0.253-0.965,0.365
			c-0.32,0.117-0.893,0.31-1.732,0.588l-9.117,3.06l-1.383-1.71l5.67-9.099c0.316-0.523,0.645-1.024,0.991-1.503l-0.144-0.177
			c-1.018,0.931-2.253,1.978-3.711,3.157l-4.472,3.609c-0.482,0.388-0.795,0.678-0.949,0.877c-0.15,0.196-0.237,0.411-0.249,0.648
			c-0.015,0.233,0.075,0.554,0.264,0.96l-0.644,0.516l-2.965-3.673l0.644-0.516c0.26,0.188,0.482,0.32,0.674,0.395
			c0.188,0.079,0.377,0.098,0.562,0.068c0.188-0.038,0.393-0.125,0.604-0.271c0.214-0.147,0.478-0.343,0.791-0.596l8.405-6.781
			c0.489-0.396,0.81-0.689,0.957-0.877c0.15-0.192,0.233-0.392,0.248-0.61c0.019-0.218-0.071-0.55-0.256-0.995l0.64-0.523
			l3.896,4.83l-5.793,9.128l10.329-3.523l3.677,4.559L228.375,59.274z"/>
		<path fill="#FFFFFF" d="M222.099,74.596c-0.249,0.151-0.482,0.294-0.686,0.437c-0.204,0.139-0.365,0.275-0.476,0.396
			c-0.113,0.124-0.188,0.256-0.233,0.396c-0.045,0.136-0.06,0.297-0.045,0.479c0.015,0.184,0.063,0.395,0.136,0.633l-0.708,0.418
			l-3.335-5.644l0.709-0.415c0.229,0.223,0.43,0.384,0.603,0.49c0.169,0.102,0.354,0.154,0.55,0.143
			c0.188-0.011,0.403-0.079,0.645-0.188c0.237-0.109,0.531-0.264,0.874-0.467l9.282-5.478c0.344-0.204,0.622-0.377,0.833-0.528
			c0.211-0.15,0.369-0.305,0.471-0.467c0.105-0.162,0.154-0.347,0.147-0.55c-0.004-0.204-0.054-0.463-0.144-0.78l0.709-0.418
			l3.333,5.644l-0.708,0.418c-0.252-0.245-0.467-0.411-0.636-0.501c-0.17-0.087-0.34-0.128-0.514-0.125
			c-0.173,0.004-0.372,0.057-0.595,0.151c-0.226,0.094-0.543,0.26-0.941,0.494L222.099,74.596z"/>
		<path fill="#FFFFFF" d="M243.07,86.592l-0.757,0.324c-0.229-0.264-0.406-0.445-0.53-0.543c-0.125-0.094-0.26-0.166-0.415-0.203
			c-0.154-0.038-0.354-0.03-0.61,0.026c-0.252,0.06-0.617,0.188-1.1,0.396l-12.779,5.497l-1.254-2.913l6.706-9
			c0.907-1.213,1.634-2.132,2.185-2.758l-0.049-0.105c-1.612,0.788-3.326,1.571-5.158,2.358l-3.684,1.583
			c-0.573,0.241-0.965,0.448-1.169,0.599c-0.203,0.159-0.338,0.339-0.41,0.55c-0.068,0.207-0.068,0.539,0,0.998l-0.754,0.324
			l-1.864-4.336l0.757-0.324c0.196,0.252,0.377,0.437,0.543,0.565c0.161,0.121,0.335,0.196,0.527,0.208
			c0.196,0.011,0.411-0.019,0.663-0.102c0.241-0.079,0.55-0.196,0.908-0.35l9.919-4.269c0.576-0.245,0.961-0.441,1.156-0.584
			c0.196-0.143,0.332-0.324,0.415-0.546c0.075-0.218,0.079-0.554,0.015-1.005l0.758-0.325l1.996,4.646l-5.308,7.094
			c-0.332,0.444-0.791,1.032-1.375,1.763c-0.58,0.731-1.142,1.398-1.681,2.004l0.08,0.181c1.793-0.874,3.771-1.771,5.934-2.705
			l2.136-0.916c0.497-0.211,0.848-0.388,1.051-0.521c0.207-0.131,0.347-0.267,0.429-0.391c0.08-0.128,0.132-0.279,0.151-0.449
			c0.019-0.166,0.004-0.426-0.034-0.779l0.754-0.324L243.07,86.592z"/>
		<path fill="#FFFFFF" d="M232.379,99.744c-0.274,0.075-0.538,0.162-0.775,0.241c-0.233,0.087-0.418,0.173-0.558,0.268
			c-0.14,0.087-0.249,0.2-0.324,0.32c-0.083,0.12-0.136,0.268-0.162,0.452c-0.03,0.184-0.038,0.399-0.03,0.644l-0.791,0.226
			l-1.8-6.299l0.79-0.229c0.162,0.271,0.32,0.482,0.456,0.629c0.14,0.147,0.31,0.242,0.493,0.275
			c0.188,0.038,0.411,0.03,0.671-0.015c0.256-0.045,0.576-0.128,0.965-0.241l10.359-2.965c0.385-0.109,0.694-0.207,0.942-0.301
			c0.241-0.086,0.434-0.2,0.577-0.332c0.135-0.132,0.233-0.298,0.274-0.497c0.049-0.2,0.072-0.464,0.064-0.792l0.795-0.226
			l1.805,6.299l-0.796,0.226c-0.18-0.305-0.343-0.52-0.489-0.644c-0.143-0.128-0.301-0.207-0.468-0.245
			c-0.165-0.045-0.372-0.045-0.613-0.008c-0.237,0.034-0.588,0.117-1.032,0.241L232.379,99.744z"/>
		<path fill="#FFFFFF" d="M234.82,105.168c-0.938,0.377-1.608,0.844-2.004,1.405c-0.399,0.565-0.512,1.308-0.354,2.234
			c0.082,0.482,0.24,0.908,0.474,1.266c0.23,0.358,0.547,0.621,0.957,0.791c0.403,0.169,0.882,0.207,1.433,0.113
			c0.508-0.086,0.93-0.26,1.277-0.512c0.339-0.252,0.644-0.618,0.903-1.093c0.264-0.478,0.52-1.123,0.769-1.932
			c0.207-0.697,0.44-1.334,0.693-1.91c0.256-0.576,0.562-1.082,0.911-1.522c0.351-0.437,0.754-0.798,1.21-1.085
			c0.46-0.286,0.998-0.482,1.608-0.588c1.01-0.173,1.91-0.075,2.705,0.305c0.791,0.377,1.45,1.01,1.981,1.891
			c0.527,0.886,0.897,1.956,1.115,3.199c0.124,0.731,0.207,1.436,0.245,2.11c0.037,0.681,0.03,1.461-0.015,2.351l-3.568,0.618
			l-0.294-1.688c0.622-0.264,1.101-0.554,1.442-0.863c0.336-0.309,0.565-0.655,0.686-1.047c0.117-0.396,0.132-0.867,0.035-1.413
			c-0.08-0.467-0.238-0.874-0.46-1.21c-0.233-0.343-0.527-0.587-0.886-0.746c-0.361-0.158-0.772-0.2-1.232-0.117
			c-0.478,0.079-0.869,0.241-1.186,0.49c-0.317,0.241-0.607,0.614-0.859,1.107c-0.257,0.49-0.531,1.187-0.811,2.091
			c-0.35,1.1-0.727,1.982-1.13,2.648c-0.402,0.664-0.881,1.19-1.428,1.563c-0.551,0.373-1.213,0.633-2.005,0.772
			c-1.005,0.173-1.925,0.09-2.746-0.245c-0.82-0.339-1.51-0.92-2.064-1.752c-0.55-0.821-0.926-1.82-1.13-2.991
			c-0.143-0.837-0.245-1.718-0.31-2.641c-0.06-0.923-0.07-1.797-0.03-2.622l3.794-0.652L234.82,105.168z"/>
		<path fill="#FFFFFF" d="M232.699,120.844l0.825-0.023c0.072,0.348,0.154,0.622,0.256,0.822c0.102,0.2,0.241,0.347,0.422,0.445
			c0.178,0.09,0.4,0.146,0.672,0.166c0.267,0.015,0.605,0.015,1.006,0.004l12.443-0.385l-0.031-1.009
			c-0.015-0.501-0.082-0.877-0.21-1.141c-0.125-0.261-0.313-0.483-0.569-0.675c-0.253-0.188-0.595-0.347-1.021-0.475
			c-0.426-0.128-0.825-0.233-1.202-0.312l-0.057-1.711l4.378-0.135l0.455,14.692l-4.381,0.136l-0.052-1.71
			c0.561-0.178,0.971-0.312,1.235-0.411c0.264-0.098,0.485-0.207,0.674-0.328c0.185-0.116,0.335-0.236,0.456-0.368
			c0.121-0.129,0.218-0.268,0.286-0.407c0.072-0.144,0.125-0.32,0.155-0.539c0.025-0.215,0.04-0.493,0.025-0.833l-0.025-0.9
			l-12.444,0.384c-0.441,0.015-0.776,0.038-1.002,0.068c-0.23,0.03-0.415,0.083-0.554,0.154c-0.14,0.072-0.249,0.155-0.335,0.256
			c-0.087,0.094-0.162,0.23-0.224,0.403c-0.066,0.174-0.116,0.407-0.15,0.701l-0.82,0.027L232.699,120.844z"/>
		<path fill="#FFFFFF" d="M232.116,140.122l0.82-6.506l0.818,0.104c0.042,0.317,0.098,0.569,0.173,0.758
			c0.072,0.188,0.188,0.34,0.347,0.448c0.158,0.105,0.366,0.191,0.625,0.248c0.26,0.054,0.585,0.113,0.98,0.162l10.68,1.357
			c0.389,0.045,0.717,0.075,0.983,0.09c0.264,0.012,0.485-0.015,0.664-0.08c0.177-0.066,0.327-0.184,0.455-0.347
			c0.12-0.161,0.248-0.395,0.372-0.7l0.818,0.106l-0.915,7.222c-0.125,0.972-0.299,1.793-0.517,2.456
			c-0.223,0.667-0.505,1.235-0.852,1.711c-0.286,0.398-0.625,0.724-1.014,0.979c-0.388,0.249-0.825,0.426-1.311,0.532
			c-0.49,0.102-1.04,0.112-1.661,0.033c-0.807-0.098-1.484-0.332-2.031-0.688c-0.542-0.358-0.972-0.804-1.296-1.331
			c-0.32-0.535-0.599-1.228-0.837-2.079l-0.123-0.016c-0.34,0.577-0.754,1.041-1.251,1.379c-0.49,0.344-1.093,0.641-1.812,0.874
			l-1.781,0.565c-0.799,0.252-1.406,0.523-1.824,0.817c-0.418,0.298-0.7,0.671-0.841,1.131l-0.82-0.099l0.606-4.772
			c0.723-0.393,1.771-0.811,3.152-1.251l2.243-0.701c0.662-0.207,1.137-0.403,1.435-0.573c0.29-0.173,0.498-0.365,0.625-0.564
			c0.125-0.207,0.219-0.543,0.271-0.991l0.091-0.719l-3.989-0.502c-0.622-0.082-1.06-0.108-1.312-0.082
			c-0.256,0.03-0.467,0.112-0.637,0.259c-0.165,0.148-0.339,0.438-0.512,0.867L232.116,140.122z M247.72,140.736l-6.887-0.875
			l-0.154,1.229c-0.086,0.659-0.067,1.213,0.057,1.67c0.124,0.451,0.327,0.82,0.614,1.118c0.286,0.294,0.637,0.513,1.056,0.659
			c0.413,0.15,0.881,0.26,1.39,0.32c1.122,0.146,2.004-0.015,2.629-0.471c0.622-0.453,1.01-1.205,1.142-2.246
			C247.652,141.426,247.708,140.962,247.72,140.736z"/>
		<path fill="#FFFFFF" d="M233.182,160.333l1.511-5.116l-1.024-0.73c-0.29-0.207-0.565-0.387-0.844-0.546
			c-0.279-0.161-0.585-0.294-0.924-0.388c-0.783-0.23-1.322,0.06-1.624,0.877l-0.794-0.233l1.511-5.111l0.791,0.229
			c-0.061,0.306-0.03,0.596,0.079,0.871c0.112,0.274,0.291,0.55,0.539,0.821c0.252,0.271,0.625,0.596,1.13,0.973l11.833,8.913
			l-0.942,3.202l-14.578-0.004c-0.648,0-1.124,0.022-1.406,0.064c-0.286,0.048-0.538,0.143-0.749,0.29
			c-0.211,0.146-0.403,0.384-0.58,0.708l-0.792-0.233l1.948-6.612l0.791,0.226c-0.076,0.434-0.049,0.777,0.075,1.032
			c0.124,0.25,0.354,0.427,0.689,0.532c0.248,0.071,0.535,0.125,0.855,0.162c0.32,0.029,0.727,0.053,1.228,0.064L233.182,160.333z
			 M235.955,156.088l-1.267,4.311l7.305,0.071L235.955,156.088z"/>
		<path fill="#FFFFFF" d="M224.216,169.394l0.746,0.355c-0.099,0.338-0.147,0.621-0.15,0.847c0,0.227,0.052,0.422,0.169,0.589
			c0.116,0.165,0.29,0.315,0.52,0.459c0.233,0.14,0.532,0.29,0.893,0.463l11.238,5.357l0.438-0.908
			c0.215-0.451,0.328-0.825,0.335-1.115c0.008-0.29-0.061-0.58-0.204-0.862c-0.135-0.286-0.368-0.576-0.688-0.886
			c-0.32-0.309-0.625-0.587-0.927-0.828l0.738-1.541l3.959,1.884l-6.329,13.262l-3.955-1.885l0.738-1.548
			c0.58,0.102,1.01,0.166,1.288,0.199c0.283,0.034,0.531,0.038,0.746,0.015c0.214-0.021,0.407-0.06,0.572-0.12
			c0.166-0.057,0.317-0.135,0.445-0.229c0.127-0.098,0.252-0.23,0.38-0.407c0.121-0.174,0.261-0.414,0.407-0.723l0.392-0.807
			l-11.238-5.356c-0.399-0.197-0.708-0.325-0.923-0.404c-0.219-0.071-0.407-0.112-0.564-0.112c-0.158,0-0.29,0.026-0.415,0.075
			c-0.12,0.049-0.252,0.136-0.389,0.263c-0.135,0.118-0.285,0.302-0.448,0.551l-0.745-0.354L224.216,169.394z"/>
		<path fill="#FFFFFF" d="M218.176,186.936c-0.245-0.158-0.479-0.294-0.696-0.41c-0.223-0.125-0.411-0.205-0.572-0.245
			c-0.162-0.042-0.312-0.05-0.456-0.03c-0.144,0.019-0.294,0.078-0.448,0.181c-0.158,0.098-0.324,0.229-0.502,0.403l-0.692-0.441
			l3.522-5.534l0.693,0.444c-0.091,0.305-0.151,0.558-0.166,0.762c-0.012,0.203,0.026,0.384,0.125,0.545
			c0.093,0.167,0.248,0.332,0.459,0.49c0.208,0.166,0.482,0.351,0.813,0.569l9.087,5.786c0.335,0.215,0.622,0.381,0.852,0.497
			c0.226,0.125,0.438,0.192,0.633,0.212c0.188,0.015,0.377-0.023,0.554-0.121c0.182-0.094,0.388-0.256,0.633-0.478l0.694,0.443
			l-3.523,5.53l-0.692-0.44c0.104-0.335,0.161-0.603,0.158-0.794c0-0.193-0.042-0.366-0.125-0.514
			c-0.079-0.15-0.215-0.305-0.398-0.463c-0.186-0.154-0.476-0.361-0.875-0.614L218.176,186.936z"/>
		<path fill="#FFFFFF" d="M208.642,194.168c1.563-1.879,3.292-2.833,5.177-2.858c1.883-0.026,3.926,0.877,6.117,2.705
			c1.439,1.201,2.476,2.451,3.116,3.759s0.854,2.627,0.644,3.956c-0.206,1.33-0.828,2.611-1.846,3.839
			c-1.598,1.91-3.342,2.89-5.236,2.932c-1.899,0.045-3.926-0.834-6.088-2.634c-1.206-1.007-2.125-2.016-2.754-3.025
			c-0.63-1.002-1.002-2.004-1.123-2.991s-0.004-1.959,0.343-2.908S207.885,195.068,208.642,194.168z M217.652,197.276
			c-1.928-1.608-3.563-2.573-4.89-2.901c-1.329-0.32-2.392-0.007-3.187,0.945c-0.407,0.494-0.629,1.029-0.648,1.591
			c-0.022,0.565,0.116,1.152,0.415,1.767c0.297,0.61,0.73,1.232,1.307,1.872c0.576,0.638,1.255,1.281,2.035,1.93
			c1.272,1.055,2.422,1.846,3.45,2.37c1.028,0.512,1.929,0.745,2.705,0.707c0.78-0.041,1.431-0.377,1.955-1.013
			c0.771-0.927,0.904-1.982,0.396-3.172C220.674,200.188,219.499,198.817,217.652,197.276z"/>
		<path fill="#FFFFFF" d="M201.717,224.793l-0.534-0.625c0.181-0.298,0.301-0.524,0.354-0.667c0.061-0.147,0.083-0.298,0.075-0.456
			c-0.007-0.158-0.083-0.351-0.207-0.572c-0.125-0.227-0.365-0.535-0.705-0.935l-9.063-10.549l2.407-2.067l10.594,3.707
			c1.432,0.5,2.524,0.922,3.285,1.258l0.087-0.075c-1.232-1.3-2.494-2.709-3.791-4.216l-2.618-3.052
			c-0.406-0.471-0.716-0.784-0.926-0.931c-0.208-0.15-0.427-0.226-0.645-0.229c-0.219-0.009-0.536,0.09-0.953,0.297l-0.535-0.626
			l3.579-3.073l0.535,0.625c-0.177,0.264-0.306,0.489-0.373,0.682c-0.072,0.192-0.087,0.381-0.042,0.565
			c0.045,0.188,0.144,0.388,0.295,0.6c0.146,0.207,0.35,0.467,0.602,0.761l7.038,8.193c0.406,0.475,0.712,0.783,0.903,0.931
			c0.197,0.14,0.407,0.218,0.646,0.227c0.229,0.007,0.554-0.087,0.964-0.287l0.539,0.625l-3.836,3.297l-8.356-2.949
			c-0.519-0.188-1.216-0.452-2.09-0.788c-0.87-0.338-1.677-0.675-2.411-1.005l-0.15,0.128c1.367,1.449,2.817,3.065,4.351,4.852
			l1.515,1.763c0.354,0.411,0.626,0.693,0.813,0.853c0.186,0.158,0.354,0.252,0.501,0.29c0.151,0.041,0.306,0.041,0.472,0.011
			c0.165-0.034,0.407-0.124,0.73-0.268l0.539,0.622L201.717,224.793z"/>
	</g>
	<g>
		<path fill="#FFFFFF" d="M104.489,243.837c-0.106,0.471-0.162,0.829-0.162,1.086c0,0.248,0.049,0.462,0.15,0.644
			c0.098,0.181,0.264,0.343,0.498,0.482c0.233,0.146,0.535,0.286,0.904,0.406c0.376,0.132,0.87,0.279,1.496,0.438L107.123,248
			l-10.511-2.377l0.249-1.107c0.912,0.162,1.567,0.256,1.967,0.271c0.403,0.02,0.72-0.019,0.957-0.108
			c0.237-0.092,0.426-0.253,0.576-0.482c0.151-0.229,0.291-0.633,0.418-1.198l1.99-8.809c0.075-0.331,0.064-0.587-0.027-0.761
			c-0.094-0.173-0.252-0.282-0.471-0.335c-0.2-0.042-0.508-0.016-0.919,0.087c-0.41,0.102-1.104,0.35-2.083,0.73l-0.453-1.458
			l7.219-2.378l1.56,0.358c-0.222,0.761-0.49,1.839-0.803,3.222L104.489,243.837z"/>
		<path fill="#FFFFFF" d="M115.026,248.49l0.075-0.897c0.539,0.038,1.017,0.026,1.432-0.033c0.486-0.061,0.953-0.188,1.398-0.369
			c0.448-0.188,0.84-0.43,1.194-0.727c0.425-0.355,0.794-0.777,1.104-1.256c0.301-0.481,0.558-1.013,0.758-1.598
			c0.199-0.587,0.369-1.201,0.489-1.841l-0.116-0.057c-0.678,0.384-1.333,0.655-1.966,0.806c-0.637,0.146-1.379,0.188-2.246,0.121
			c-0.979-0.08-1.793-0.358-2.445-0.829c-0.648-0.472-1.119-1.101-1.398-1.876c-0.275-0.78-0.377-1.673-0.298-2.675
			c0.087-1.104,0.422-2.069,1.014-2.894c0.588-0.825,1.386-1.436,2.396-1.82c1.01-0.388,2.174-0.527,3.503-0.422
			c1.334,0.109,2.441,0.475,3.312,1.101c0.874,0.625,1.496,1.484,1.861,2.573c0.369,1.092,0.494,2.381,0.373,3.872
			c-0.166,2.084-0.663,3.847-1.484,5.283c-0.825,1.438-1.943,2.523-3.36,3.25c-1.416,0.73-3.082,1.093-4.999,1.077L115.026,248.49z
			 M118.726,241.046c0.309,0.022,0.599,0.019,0.871-0.019c0.267-0.042,0.526-0.11,0.771-0.212c0.249-0.102,0.479-0.226,0.697-0.38
			c0.214-0.155,0.362-0.287,0.433-0.389c0.079-0.102,0.144-0.256,0.21-0.455c0.065-0.204,0.106-0.486,0.136-0.844
			c0.128-1.625,0.012-2.894-0.358-3.791c-0.365-0.9-0.968-1.386-1.805-1.454c-0.49-0.037-0.912,0.023-1.262,0.188
			c-0.351,0.166-0.645,0.415-0.882,0.747c-0.241,0.327-0.426,0.73-0.558,1.209c-0.128,0.479-0.218,1.006-0.26,1.589
			C116.518,239.655,117.192,240.921,118.726,241.046z"/>
		<path fill="#FFFFFF" d="M129.259,236.908l-0.177-2.953c2.046-1.027,3.93-1.593,5.64-1.691c1.021-0.06,1.933,0.026,2.735,0.261
			c0.803,0.233,1.436,0.613,1.892,1.13c0.46,0.52,0.715,1.164,0.761,1.937c0.041,0.704-0.061,1.334-0.312,1.891
			c-0.249,0.546-0.622,1.04-1.107,1.47c-0.486,0.429-1.127,0.862-1.922,1.292l0.004,0.109c0.73,0.083,1.405,0.286,2.02,0.606
			c0.617,0.32,1.119,0.769,1.506,1.349c0.393,0.572,0.607,1.255,0.652,2.045c0.061,0.966-0.124,1.84-0.549,2.623
			c-0.427,0.775-1.104,1.409-2.035,1.895c-0.927,0.482-2.076,0.769-3.439,0.853c-0.938,0.056-1.868,0.021-2.78-0.095
			c-0.916-0.113-1.723-0.306-2.411-0.569l-0.177-3.127l2.244-0.135c0.294,0.934,0.679,1.601,1.146,2.004
			c0.468,0.399,1.056,0.576,1.771,0.539c1.759-0.106,2.576-1.247,2.444-3.422c-0.075-1.171-0.434-2.026-1.085-2.562
			c-0.652-0.535-1.612-0.769-2.874-0.688l-0.983,0.056l-0.083-1.424c1.443-0.144,2.513-0.547,3.229-1.209
			c0.712-0.667,1.032-1.582,0.96-2.755c-0.056-0.919-0.282-1.607-0.688-2.049c-0.399-0.449-0.961-0.647-1.673-0.607
			c-0.407,0.023-0.78,0.137-1.111,0.337c-0.336,0.195-0.625,0.526-0.866,0.982c-0.245,0.46-0.407,1.055-0.486,1.774L129.259,236.908
			z"/>
		<path fill="#FFFFFF" d="M151.257,246.723c0.275-0.143,0.493-0.278,0.648-0.402c0.158-0.128,0.26-0.287,0.32-0.46
			c0.057-0.177,0.071-0.399,0.041-0.652c-0.029-0.255-0.083-0.58-0.158-0.96l-0.373-1.827l-6.556,1.345l-0.271-1.322l5.252-12.135
			l2.753-0.564l2.125,10.397l0.377-0.075c0.403-0.083,0.679-0.166,0.832-0.253c0.151-0.087,0.269-0.211,0.358-0.384
			c0.083-0.17,0.146-0.457,0.174-0.855l1.284-0.264l0.403,2.735l-3.119,0.637l0.372,1.823c0.087,0.437,0.178,0.776,0.271,1.021
			c0.094,0.253,0.204,0.437,0.336,0.568c0.132,0.133,0.286,0.215,0.475,0.265c0.188,0.042,0.418,0.067,0.692,0.087l0.167,0.806
			l-6.251,1.281L151.257,246.723z M147.237,241.731l4.182-0.855l-0.576-2.803c-0.241-1.175-0.452-2.419-0.637-3.729l-0.125,0.022
			l-2.894,7.158L147.237,241.731z"/>
	</g>
	<g>
		<polygon fill="#FFFFFF" points="78.193,223.332 79.496,225.969 82.405,226.391 80.299,228.443 80.796,231.337 78.193,229.974 
			75.59,231.337 76.087,228.443 73.981,226.391 76.89,225.969 		"/>
	</g>
	<g>
		<polygon fill="#FFFFFF" points="179.592,224.436 180.891,227.072 183.803,227.491 181.697,229.548 182.194,232.444 
			179.592,231.077 176.988,232.444 177.485,229.548 175.379,227.491 178.288,227.072 		"/>
	</g>
	<path fill="#FFFFFF" d="M216.387,146.538c-0.108-0.147,0.012-0.642-0.188-0.697c-0.384-0.076-0.644,0.399-1.021,0.396
		c-0.203-0.008-0.362-0.211-0.396-0.403c-0.038-0.219,0.102-0.426,0.211-0.606c0.475-0.787,1.1-1.473,1.379-2.358
		c0.161-0.53,0.188-1.149-0.022-1.673c-0.128-0.29-0.528,0.113-0.679-0.153c-0.365-0.702-0.267-2.627-1.19-2.872
		c-0.565-0.123-0.5,1.81-0.874,2.137c-0.257,0.207-0.595-0.709-0.825-0.44c-0.354,0.452-0.29,1.156-0.312,1.699
		c-0.038,0.99,0.159,1.988-0.015,2.972c-0.038,0.207-0.162,0.569-0.415,0.588c-0.233,0.008-0.339-0.354-0.384-0.527
		c-0.158-0.637,0.026-1.379-0.335-1.96c-0.162-0.243-0.521,0.257-0.73,0.087c-0.337-0.29-0.23-0.847-0.585-1.122
		c-0.102-0.072-0.105,0.448-0.147,0.517c-0.052,0.097-0.24,0.087-0.263,0.214c-0.061,0.493,0.128,1.002-0.019,1.496
		c-0.099,0.305-0.6,0.347-0.626,0.686c-0.019,0.6,0.43,1.097,0.464,1.691c0.007,0.204-0.075,0.471-0.275,0.558
		c-0.2,0.083-0.415-0.079-0.565-0.188c-0.181-0.139-0.203-0.414-0.403-0.523c-0.184-0.099-0.455-0.181-0.641-0.054
		c-0.188,0.148-0.143,0.438-0.153,0.642c-0.015,0.271,0.127,0.534,0.056,0.798c-0.09,0.32-0.504,0.49-0.504,0.844
		c0.012,0.415,0.554,0.615,0.519,1.04c0,0.019-0.003,0.034-0.003,0.049c-0.049,0.412-0.335,0.766-0.671,0.976
		c-0.931,0.589-2.011,1.056-3.1,1.327c-0.279,0.067-0.78,0.309-1.056,0.351c0.738-1.319,1.379-2.804,1.809-4.326
		c0.459-0.686,0.961-1.4,1.521-2.018c0.505,0.402,1.327,0.35,1.673,0.07c0.166-0.136,0.248-0.351,0.248-0.596
		c0.619-0.625,0.853-1.371,0.528-1.77c-0.324-0.399-1.107-0.313-1.839,0.169c-0.24-0.049-0.467-0.011-0.636,0.128
		c-0.389,0.317-0.607,1.277-0.14,1.843v0.007c-0.452,0.514-0.837,1.044-1.206,1.612c0.249-1.009,0.403-2.026,0.426-3.024
		c0.008-0.468,0.038-0.531,0.31-0.904c0.7-0.999,1.1-2.204,1.876-3.127c0.402-0.471,1.01-0.761,1.611-0.886
		c0.581-0.108,1.056,0.4,1.633,0.386c0.354-0.02,0.516-0.424,0.809-0.562c0.396-0.18,0.905-0.373,0.849-0.896
		c-0.034-0.256-0.271-0.429-0.399-0.641c-0.016-0.022-0.03-0.042-0.042-0.063c-0.154-0.257-0.237-0.655-0.542-0.776
		c-0.403-0.143-0.78,0.215-1.183,0.173c-0.212-0.022-0.441-0.146-0.528-0.346c-0.063-0.178,0.095-0.354,0.215-0.468
		c0.455-0.426,0.999-0.761,1.48-1.16c0.309-0.253,0.772-0.381,0.912-0.795c0.154-0.485-0.091-1.009-0.203-1.478
		c-0.072-0.305-0.03-0.794-0.347-0.967c-0.336-0.178-0.637,0.229-0.964,0.236c-0.155,0-0.337-0.327-0.483-0.226
		c-0.278,0.204-0.207,0.629-0.444,0.866c-0.116,0.113-0.328,0.14-0.467,0.057c-0.146-0.094-0.162-0.302-0.182-0.455
		c-0.094-0.709-0.019-1.439-0.264-2.122c-0.135-0.369-0.403-0.73-0.769-0.885c-0.233-0.083-0.275,0.398-0.509,0.339
		c-0.545-0.154-0.893-0.671-1.4-0.896c-0.17-0.079-0.358-0.102-0.524-0.004c-0.211,0.121-0.151,0.369-0.086,0.558
		c0.128,0.362,0.434,0.799,0.32,1.206c-0.087,0.278-0.694-0.064-0.742,0.233c-0.061,0.443,0.267,0.829,0.512,1.164
		c0.43,0.595,1.051,1.027,1.442,1.657c0.092,0.162,0.179,0.422,0.03,0.576c-0.143,0.14-0.398,0.03-0.534-0.045
		c-0.437-0.252-0.712-0.779-1.225-0.89c-0.249-0.033-0.226,0.464-0.459,0.497c-0.355,0.03-0.596-0.354-0.949-0.312
		c-0.117,0.015,0.139,0.316,0.146,0.384c0.007,0.09-0.132,0.188-0.08,0.278c0.207,0.328,0.596,0.509,0.751,0.875
		c0.094,0.24-0.23,0.554-0.057,0.761c0.323,0.365,0.885,0.354,1.254,0.662c0.125,0.11,0.211,0.31,0.14,0.476
		c-0.087,0.165-0.316,0.207-0.482,0.236c-0.199,0.038-0.385-0.097-0.576-0.04c-0.17,0.056-0.415,0.165-0.46,0.36
		c-0.042,0.193,0.163,0.328,0.275,0.453c0.154,0.162,0.399,0.214,0.52,0.407c0.136,0.229-0.033,0.579,0.181,0.768
		c0.279,0.229,0.727-0.022,0.987,0.241c0.079,0.079,0.136,0.17,0.181,0.271c0.113,0.234,0.124,0.516,0.072,0.772
		c-0.264,1.111-0.912,2.233-1.643,3.107c-0.166-3.247-1.134-5.504-3.177-7.975c-0.132-0.162-0.697-0.853-0.727-1.036
		c-0.034-0.26-0.241-0.26-0.204-0.972c0,0-0.026-1.116,0.269-1.624c0.214-0.381,0.21-0.754,0.527-1.033
		c0.312-0.271,0.783-0.252,1.122-0.474c0.17-0.117,0.185-0.34,0.328-0.475c0.094-0.087,0.497-0.354,0.335-0.517
		c-0.086-0.079-0.256-0.061-0.369-0.091c-0.185-0.06-0.339-0.203-0.554-0.195c-0.294,0.015-0.509,0.24-0.787,0.306
		c-0.132,0.026-0.324,0.037-0.434-0.065c-0.082-0.082,0.015-0.207,0.071-0.271c0.102-0.109,0.212-0.203,0.328-0.291
		c0.195-0.154,0.403-0.282,0.617-0.406c0.179-0.106,0.497-0.125,0.63-0.302c0.105-0.147-0.049-0.358-0.079-0.509
		c-0.004-0.023-0.004-0.049-0.004-0.075c0-0.121-0.003-0.226-0.116-0.309c-0.204-0.139-0.464-0.064-0.686-0.128
		c-0.11-0.038-0.17-0.21-0.29-0.203c-0.103,0.011-0.17,0.08-0.242,0.146c-0.06,0.075-0.124,0.147-0.215,0.188
		c-0.105,0.046-0.252,0.034-0.339-0.038c-0.087-0.067-0.068-0.191-0.049-0.293c0.004-0.027,0.008-0.053,0.016-0.08
		c0.087-0.392,0.32-0.727,0.426-1.112c0.067-0.241,0.067-0.523-0.049-0.75c-0.087-0.161-0.351,0.084-0.457-0.052
		c-0.293-0.426,0.035-1.047-0.293-1.428c-0.037-0.031-0.079-0.049-0.121-0.061c-0.508-0.116-0.727,1.041-1.014,1.296
		c-0.195,0.162-0.398-0.343-0.572-0.143c-0.278,0.331-0.264,0.794-0.223,1.202c0.005,0.064,0.012,0.124,0.026,0.188
		c0.102,0.55,0.403,1.021,0.61,1.53c0.057,0.135,0.099,0.35-0.015,0.47c-0.105,0.113-0.297,0.016-0.396-0.052
		c-0.344-0.256-0.44-0.75-0.811-0.961c-0.169-0.094-0.248,0.423-0.422,0.418c-0.312-0.023-0.354-0.49-0.651-0.539
		c-0.091-0.007,0.041,0.422,0.038,0.483c-0.008,0.109-0.125,0.2-0.091,0.305c0.113,0.384,0.426,0.659,0.565,1.036
		c0.022,0.071,0.025,0.146,0.019,0.222c-0.015,0.162-0.095,0.393,0.023,0.527c0.285,0.294,0.742,0.242,1.084,0.434
		c0.12,0.063,0.233,0.203,0.222,0.347c-0.019,0.146-0.169,0.226-0.285,0.29c-0.137,0.072-0.313-0.008-0.441,0.082
		c-0.124,0.092-0.252,0.245-0.214,0.403c0.037,0.174,0.233,0.237,0.372,0.317c0.17,0.086,0.377,0.063,0.535,0.173
		c0.188,0.124,0.233,0.44,0.471,0.501c0.279,0.053,0.482-0.278,0.762-0.211c0.285,0.067,0.418,0.286,0.572,0.534
		c0.012,0.29-0.169,2.062,0.191,2.619c0.362,0.569,1.271,1.865,1.271,1.865c-0.931-0.252-1.869-0.482-2.796-0.742
		c-0.249-0.072-0.489-0.233-0.561-0.497c0-0.008,0-0.016-0.004-0.02c-0.068-0.301,0.32-0.527,0.259-0.829
		c-0.048-0.226-0.376-0.177-0.5-0.332c-0.109-0.146-0.061-0.354-0.144-0.512c-0.061-0.113-0.113-0.315-0.275-0.305
		c-0.177,0.011-0.32,0.203-0.406,0.335c-0.091,0.146-0.049,0.328-0.136,0.481c-0.075,0.133-0.17,0.313-0.328,0.367
		c-0.12,0.04-0.252-0.03-0.301-0.151c-0.121-0.336,0.037-0.776-0.2-1.069c-0.135-0.159-0.422,0.128-0.595,0.06
		c-0.257-0.116-0.347-0.43-0.588-0.565c-0.071-0.033-0.151,0.099-0.218,0.103c-0.065,0.003-0.265-0.174-0.287-0.068
		c-0.045,0.271,0.219,0.475,0.162,0.742c-0.054,0.199-0.407,0.237-0.407,0.448c0.012,0.351,0.324,0.554,0.403,0.878
		c0.03,0.143,0.012,0.312-0.098,0.422c-0.103,0.091-0.261,0.117-0.374,0.037c-0.327-0.236-0.497-0.644-0.858-0.851
		c-0.226-0.136-0.479-0.245-0.728-0.087c-0.198,0.132-0.01,0.486-0.191,0.645c-0.32,0.26-0.87-0.008-1.048,0.448
		c-0.18,0.485,0.332,0.655,0.344,1.096c0,0.188-0.278,0.298-0.264,0.486c0.015,0.181,0.154,0.298,0.335,0.294
		c0.388-0.015,0.742-0.241,1.126-0.294c0.063-0.011,0.195-0.038,0.207,0.056c0.005,0.125-0.097,0.272-0.177,0.355
		c-0.185,0.191-0.448,0.274-0.614,0.481c-0.075,0.099,0.008,0.212-0.038,0.309c-0.12,0.249-0.417,0.46-0.463,0.739
		c-0.022,0.173,0.257,0.075,0.343,0.078c0.237,0.012,0.414,0.083,0.641-0.033c0.32-0.158,0.542-0.467,0.811-0.693
		c0.425-0.361,0.832-0.749,1.284-1.073c0.071-0.05,0.269-0.208,0.358-0.136c0.105,0.095,0,0.305-0.054,0.403
		c-0.18,0.305-0.526,0.489-0.678,0.817c-0.053,0.104-0.026,0.196,0.026,0.293c0.026,0.046,0.057,0.092,0.068,0.151
		c0.011,0.072-0.054,0.249,0.038,0.29c0.255,0.109,0.695-0.312,0.881-0.444c0.236-0.162,0.531-0.223,0.745-0.419
		c0.337-0.335,0.453-0.824,0.792-1.152c0.392-0.372,0.87-0.734,1.409-0.858c0.931-0.2,2.008,0.199,2.923,0.517
		c0.348,0.123,0.388,0.131,0.573,0.455c1.544,2.642,2.336,5.347,1.94,8.465c-0.615-0.862-1.259-1.669-1.993-2.43
		c-0.173-0.185-0.313-0.445-0.196-0.697c0.132-0.278,0.604-0.241,0.738-0.523c0.091-0.207-0.241-0.297-0.264-0.475
		c-0.02-0.166,0.15-0.294,0.166-0.456c0.008-0.09,0.045-0.203-0.007-0.286c-0.023-0.034-0.054-0.057-0.087-0.075
		c-0.177-0.083-0.419,0.033-0.573,0.12c-0.109,0.071-0.169,0.185-0.245,0.283c-0.037,0.037-0.082,0.075-0.136,0.102
		c-0.153,0.083-0.327,0.181-0.505,0.185c-0.037,0-0.071-0.004-0.105-0.015c-0.078-0.062-0.12-0.163-0.108-0.26
		c0.042-0.389,0.414-0.739,0.327-1.146c-0.06-0.223-0.485-0.084-0.622-0.237c-0.195-0.238-0.132-0.58-0.309-0.833
		c-0.049-0.061-0.195,0.026-0.267,0c-0.068-0.027-0.177-0.29-0.249-0.196c-0.17,0.245-0.02,0.562-0.211,0.791
		c-0.15,0.17-0.516,0.042-0.626,0.242c-0.165,0.342,0.05,0.685-0.041,1.032c-0.042,0.149-0.147,0.309-0.306,0.354
		c-0.144,0.045-0.312-0.007-0.384-0.139c-0.203-0.377-0.165-0.841-0.418-1.199c-0.166-0.233-0.354-0.437-0.667-0.398
		c-0.256,0.045-0.256,0.459-0.513,0.535c-0.437,0.102-0.836-0.347-1.228,0c-0.403,0.368-0.015,0.742-0.233,1.152
		c-0.102,0.181-0.422,0.158-0.505,0.342c-0.08,0.174-0.004,0.332,0.173,0.404c0.396,0.151,0.844,0.086,1.251,0.211
		c0.061,0.019,0.211,0.057,0.169,0.15c-0.061,0.128-0.233,0.207-0.357,0.252c-0.275,0.092-0.576,0.054-0.849,0.174
		c-0.12,0.053-0.09,0.196-0.191,0.268c-0.249,0.177-0.641,0.233-0.829,0.475c-0.112,0.146,0.224,0.188,0.306,0.233
		c0.079,0.041,0.146,0.091,0.218,0.136c0.092-0.083,0.208-0.128,0.325-0.177c0.369-0.128,0.749-0.229,1.126-0.336
		c0.592-0.162,1.194-0.32,1.793-0.433c0.06-0.015,0.354-0.095,0.396-0.026c0.037,0.083-0.265,0.185-0.306,0.195
		c-0.373,0.121-0.765,0.151-1.13,0.269c-0.155,0.056-0.117,0.12-0.207,0.215c-0.02,0.019-0.204,0.102-0.155,0.139
		c0.233,0.18,0.811,0.071,1.077,0.068c0.317-0.005,0.626,0.09,0.942,0.057c0.501-0.057,0.945-0.332,1.446-0.396
		c0.595-0.079,1.247-0.124,1.819,0.076c1.025,0.375,1.741,1.483,2.31,2.403c0.219,0.356,0.14,0.508,0.057,0.922
		c-0.637,3.203-2.248,6.247-4.573,8.541c-0.012-0.738-0.098-1.465-0.166-2.2c-0.087-0.938,1.044-1.189,1.748-1.386
		c-0.301-0.336-0.824-0.946-0.444-1.406c0.132-0.165-0.512-0.44-0.517-0.636c0.005-0.233,0.354-0.295,0.528-0.245
		c0.734,0.192,1.499,0.124,1.928-0.58c-0.26-0.177-0.802-0.306-0.885-0.652c-0.022-0.123,0.026-0.229,0.113-0.312
		c0.245-0.265,0.52-0.46,0.41-0.867c-0.595,0.03-1.118-0.019-1.658-0.29c-0.195-0.102-0.319-0.302-0.443-0.479
		c-0.407,0.162-0.908,0.418-1.315,0.109c-0.426-0.343,0.253-0.75-0.041-1.111c-0.178-0.207-0.659-0.046-0.9-0.14
		c-0.203-0.091-0.245-0.328-0.456-0.403c-0.268-0.086-0.576,0.049-0.832-0.064c-0.49-0.24-0.946-0.554-1.503-0.599
		c-0.155,0.083-0.219,0.2-0.167,0.37c0.026,0.09-0.177,0.097-0.218,0.097c-0.268-0.007-0.531-0.082-0.795-0.12
		c-0.14,0.099,0.079,0.328,0.117,0.43c0.03,0.079-0.728,0-0.792-0.008c0.316,0.298,0.709,0.505,1.067,0.73
		c0.243,0.151,0.485,0.299,0.703,0.487c0.423,0.38-0.43,0.278-0.621,0.263c0.67,0.78,1.597,1.353,2.099,2.269
		c0.271,0.509,0.294,1.11,0.569,1.619c0.625,1.134,1.577,2.13,1.928,3.407c0.215,0.806,0.335,1.962-0.377,2.55
		c-0.516,0.425-1.065,0.802-1.631,1.148c0.158-0.392,0.302-0.783,0.415-1.193l0,0c0.712,0.083,1.379-0.592,1.435-1.07
		c0.026-0.207-0.061-0.411-0.226-0.584c0.012-0.851-0.32-1.529-0.813-1.593c-0.494-0.062-0.979,0.526-1.168,1.352
		c-0.208,0.124-0.34,0.306-0.365,0.513c-0.05,0.429,0.331,1.126,0.919,1.334c-0.128,0.471-0.302,0.949-0.486,1.412
		c-2.128,1.262-4.486,2.167-6.461,3.688c0.063-0.425,0.17-0.851,0.29-1.261c0.377-1.044,0.851-2.072,1.421-3.021
		c0.233-0.381,0.61-0.728,1.065-0.78c0.426-0.042,0.645,0.531,1.062,0.52c0.324-0.015,0.381-0.46,0.648-0.58
		c0.219-0.098,0.467,0.03,0.692-0.022c0.162-0.034,0.422-0.037,0.468-0.241c0.041-0.229-0.147-0.479-0.282-0.637
		c-0.147-0.17-0.381-0.191-0.535-0.347c-0.144-0.15-0.32-0.332-0.336-0.554c-0.007-0.158,0.099-0.309,0.264-0.32
		c0.393-0.019,0.837,0.381,1.209,0.219c0.186-0.09-0.108-0.542-0.04-0.689c0.021-0.049,0.06-0.086,0.102-0.116
		c0.184-0.129,0.433-0.182,0.572-0.377c0.049-0.071-0.102-0.212-0.102-0.29c0-0.091,0.233-0.271,0.098-0.328
		c-0.298-0.112-0.592,0.109-0.882-0.042c-0.229-0.127-0.227-0.549-0.485-0.632c-0.192-0.054-0.366-0.023-0.55,0.048
		c-0.11,0-0.207,0.005-0.309-0.037c-0.163-0.06-0.302-0.185-0.393-0.328c-0.053-0.083-0.158-0.286-0.086-0.388
		c0.025-0.034,0.06-0.061,0.102-0.072c0.236-0.127,0.527-0.21,0.686-0.452c0.169-0.252,0.229-0.493,0.06-0.771
		c-0.158-0.256-0.557-0.195-0.738-0.438c-0.297-0.406-0.146-0.934-0.625-1.235c-0.438-0.264-0.72,0.075-1.119-0.094
		c-0.223-0.099-0.15-0.517-0.377-0.61c-0.162-0.064-0.174,0.012-0.12,0.185c0.068,0.226-0.068,0.501,0.071,0.696
		c0.117,0.163,0.181,0.265,0.282,0.437c0.008,0.017,0.03,0.141-0.033,0.084c-0.129-0.103-0.099-0.113-0.178-0.249
		c-0.185-0.29-0.338-0.584-0.543-0.867c-0.063-0.09-0.143-0.165-0.207-0.255c-0.218-0.299-0.29-0.249-0.535-0.527
		c-0.102-0.113-0.037,0.275-0.045,0.335c-0.045,0.309-0.369,0.438-0.346,0.769c0.025,0.482,0.376,0.606,0.549,1.036
		c0.269,0.692,0.592,1.367,0.811,2.071c0.042,0.14,0.132,0.438-0.015,0.547c-0.186,0.12-0.456,0-0.61-0.12
		c-0.377-0.295-0.479-0.867-0.919-1.074c-0.336-0.146-0.686,0.166-0.999,0.249c-0.237,0.057-0.523,0-0.719,0.177
		c-0.415,0.398-0.075,0.994,0.116,1.424c0.158,0.354-0.012,0.836,0.279,1.134c0.485,0.476,1.292,0.444,1.721,1.003
		c0.438,0.592,0.757,1.334,0.712,2.086c-0.082,1.067-0.719,2.156-1.089,3.139c-0.312,1.028-0.198,1.756-1.043,2.399
		c-0.584,0.449-1.202,0.946-1.835,1.484c0.098-0.425,0.166-1.077,0.102-1.536c-0.011-0.109,0-0.102,0.102-0.113
		c0.75-0.087,1.274-0.949,1.251-1.462c-0.011-0.233-0.146-0.444-0.357-0.603c-0.14-0.931-0.633-1.624-1.184-1.598
		c-0.558,0.026-0.982,0.75-1.043,1.691c-0.199,0.177-0.312,0.399-0.305,0.634c0.019,0.448,0.493,1.126,1.126,1.292
		c0.12,0.033,0.128,0.015,0.162,0.139c0.124,0.472,0.067,1.296-0.094,1.756c-1.293,1.326-2.502,2.633-3.662,3.926
		c-1.47-0.562-3.36-0.278-3.914,0.241c-0.05-1.021-0.69-1.318-1.138-1.726c-0.626-0.562-1.692-0.222-1.952-0.182
		c-0.061-0.402-0.904-0.542-2.113,0.182c-1.202,0.724-0.821,2.249-0.821,2.448c0,0.208-0.143,0.208-0.543,0.849
		c-0.402,0.644,0.766,1.167,0.724,1.308c-0.038,0.139,0.045,0.591,0.162,0.982c-0.569,0.03-0.704,0.238-0.982,0.418
		c-0.804-0.644-2.092-0.199-2.352,0c-0.829-1.025-1.729-0.343-2.013-0.199c-0.301-0.162-1.487-0.219-2.008-0.241
		c-0.523-0.02-0.402-0.34-1.446-0.358c-0.019-0.557-1.511-1.492-1.511-1.492s0.362-0.04,0.683-0.161
		c-0.242-1.044-2.046-2.254-2.532-2.735c-0.241-0.645-2.211-2.25-2.373-2.453c-0.163-0.199-0.724-0.162,0.162-0.24
		c-1.692-1.771-2.333-1.529-2.573-1.93c-0.241-0.398-1.809-2.208-1.809-2.208s-0.562,5.361-3.812,8.945
		c-3.014,3.322-6.362,4.109-7.207,4.388c0.885,0.905,3.364,2.265,4.064,2.423c0.709,0.162,2.012,0.038,2.495,0.381
		c1.947,1.379,4.622,0.983,4.826,0.968c0.198-0.011,0.462-0.083,0.38-0.286c0.945,0.339,3.921,0.302,4.385,0.264
		c0.46-0.042,0.705-0.464,2.147-0.523c1.446-0.064,1.933-0.987,2.234-0.965c1.785,0.117,1.97-0.546,2.271-0.463
		c1.491,0.396,2.072-0.445,2.392-0.309c1.052,0.437,2.055-0.215,2.272-0.113c0.896,0.406,1.79-0.426,1.929-0.362
		c0.071,0.03,0.283,0.099,0.467,0.162c0.155,0.521,0.505,1.134,0.547,1.379c-0.302,0.136-0.584,0.482-0.392,2.2
		c0.038,0.32,0.128,0.595,0.229,0.858c-4.961,7.114-7.485,12.549-8.171,14.618c-0.132,0.475,1.649,1.722,2.022,2.799
		c0.407-2.241,2.776-8.153,7.414-15.871c1.312,0.851,3.146,0.96,4.114,0.976c1.536,0.026,2.113-1.628,2.113-2.084
		c0.634,0.241,1.824-0.346,2.562-0.621c0.735-0.269,1.025-2.095,1.067-2.445c0.048-0.347-0.403-0.618-0.434-0.769
		c0-0.132,0.979-0.633,1.461-0.979c0.483-0.343,0.407-1.051,0.407-2.381c0-1.327-0.282-1.16-0.418-1.28
		c-0.136-0.122-0.366-0.464-1.57-2.333c-0.182-0.282-0.424-0.497-0.687-0.686c0.689-0.904,1.408-1.812,2.15-2.728
		c0.358-0.448,0.559-0.572,1.143-0.637c0.893-0.095,1.913,0.162,2.316,0.874c0.403,0.728-0.248,1.284-0.434,2.092
		c-0.165,0.726-1.009,1.141-1.239,1.85c-0.135,0.413,0.227,0.851,0.227,1.287c0,0.66-0.045,1.312,0.479,1.508
		c0.244,0.094,0.52-0.095,0.779-0.144c0.403-0.061,0.919,0.109,1.214-0.173c0.388-0.369,0.252-1.062,0.554-1.512
		c0.15-0.225,0.455-0.422,0.727-0.38c0.219,0.045,0.32,0.351,0.362,0.568c0.153,0.825,0.127,1.681,0.203,2.525
		c0.049,0.538-0.133,1.16,0.169,1.612c0.32,0.481,0.976,0.621,1.496,0.87c0.351,0.169,0.761,0.572,1.104,0.384
		c0.393-0.203,0.245-0.862,0.497-1.228c0.125-0.178,0.551-0.102,0.565-0.321c0.034-0.426-0.414-0.772-0.448-1.197
		c-0.019-0.207,0.116-0.464,0.313-0.539c0.188-0.075,0.402,0.083,0.572,0.192c0.738,0.493,1.313,1.229,2.109,1.615
		c0.418,0.208,0.972,0.283,1.394,0.087c0.249-0.116-0.063-0.662,0.17-0.806c0.769-0.464,2.257,0.007,2.551-0.837
		c0.252-0.73-1.38-0.874-1.715-1.571c-0.15-0.312,0.724-0.625,0.523-0.915c-0.323-0.474-1.027-0.564-1.601-0.662
		c-0.979-0.162-1.996,0.066-2.977-0.084c-0.259-0.036-0.603-0.203-0.633-0.46c-0.026-0.243,0.287-0.437,0.513-0.519
		c0.66-0.245,1.484-0.05,2.067-0.445c0.254-0.165-0.263-0.67-0.071-0.907c0.298-0.373,0.987-0.257,1.297-0.622
		c0.127-0.158-0.407-0.113-0.576-0.229c-0.11-0.084-0.094-0.309-0.227-0.336c-0.572-0.116-1.194,0.11-1.752-0.06
		c-0.358-0.105-0.479-0.73-0.855-0.724c-0.693,0.015-1.242,0.645-1.921,0.792c-0.237,0.048-0.562-0.023-0.689-0.224
		c-0.128-0.207-0.004-0.504,0.103-0.723c0.12-0.245,0.459-0.343,0.545-0.6c0.087-0.248,0.129-0.61-0.063-0.787
		c-0.203-0.192-0.565-0.087-0.837-0.052c-0.331,0.041-0.632,0.285-0.968,0.278c-0.406-0.016-0.788-0.46-1.179-0.347
		c-0.46,0.14-0.799,1.035-1.263,1.148c-0.531,0.129-0.983-0.019-1.446-0.316c-0.683-0.402-1.398-0.485-1.892-0.509
		c1.184-1.077,2.358-1.973,3.41-2.595c0.692-0.057,1.409-0.087,2.095-0.057c0.012,0.704,0.629,1.355,1.104,1.45
		c0.233,0.045,0.471-0.034,0.678-0.203c0.953,0.082,1.749-0.238,1.854-0.784c0.113-0.554-0.505-1.148-1.417-1.432
		c-0.127-0.24-0.315-0.402-0.549-0.452c-0.531-0.108-1.492,0.373-1.65,1.164v0.005c-0.607-0.02-1.202,0.003-1.79,0.06
		c0.862-0.641,1.809-1.235,2.822-1.789c0.658-0.37,0.658-0.269,1.355-0.012c1.402,0.521,2.965,0.866,4.179,1.669
		c0.621,0.43,1.028,1.123,1.213,1.838c0.165,0.679-0.354,1.289-0.268,1.972c0.056,0.402,0.505,0.594,0.675,0.94
		c0.196,0.411,0.425,1.077,0.99,1.002c0.278-0.045,0.448-0.331,0.66-0.485c0.357-0.26,0.911-0.388,1.103-0.828
		c0.212-0.513-0.218-0.984-0.142-1.508c0.045-0.305,0.248-0.622,0.516-0.779c0.003-0.004,0.011-0.008,0.019-0.008
		c0.215-0.099,0.441,0.026,0.603,0.162c0.569,0.49,0.987,1.122,1.491,1.673c0.32,0.35,0.469,0.953,1.003,1.032
		c0.693,0.09,1.391-0.404,1.992-0.678c0.441-0.196,1.06-0.29,1.293-0.762c0.229-0.479-0.282-0.81-0.29-1.273
		c0-0.199,0.433-0.55,0.293-0.731c-0.267-0.323-0.809-0.086-1.126-0.335c-0.173-0.146-0.173-0.433-0.078-0.621
		c0.104-0.223,0.365-0.31,0.575-0.396c0.897-0.36,1.918-0.033,2.729-0.591c0.474-0.328,1.032-0.357,1.179-0.92
		c0.083-0.323-0.448-0.233-0.406-0.554c0.132-0.806,1.54-1.529,0.945-2.309c-0.403-0.527-1.691,0.316-2.227,0.312
		c-0.362-0.004-0.196-1.319-0.568-1.258c-0.6,0.102-1.06,0.572-1.425,0.998c-0.689,0.807-1.198,1.3-1.971,2.038
		c-0.165,0.158-0.512,0.396-0.742,0.237c-0.21-0.143-0.071-0.535,0.008-0.716c0.275-0.656,0.916-1.187,0.979-1.925
		c0.019-0.317-0.617-0.124-0.688-0.414c-0.106-0.468,0.356-0.879,0.236-1.353c-0.038-0.128-0.388,0.312-0.467,0.342
		c-0.113,0.046-0.269-0.083-0.365,0.012c-0.381,0.392-0.55,0.961-1.002,1.292c-0.29,0.207-0.758-0.079-0.991,0.211
		c-0.411,0.521-0.343,1.244-0.7,1.794c-0.125,0.181-0.373,0.369-0.607,0.315c-0.226-0.057-0.312-0.335-0.369-0.534
		c-0.067-0.237,0.095-0.493-0.019-0.724c-0.099-0.203-0.287-0.46-0.535-0.46c-0.261,0.012-0.407,0.294-0.554,0.472
		c-0.185,0.226-0.23,0.55-0.467,0.737c-0.282,0.224-0.758,0.099-0.987,0.403c-0.094,0.136-0.102,0.31-0.098,0.471
		c0.007,0.25,0.063,0.559-0.116,0.766c-0.332,0.358-0.853,0.493-1.327,0.44c-1.541-0.188-3.146-0.779-4.521-1.488
		c1.271-0.655,2.276-1.254,3.162-1.914c0.828-0.387,1.736-0.79,2.633-1.051c0.237,0.645,1.014,1.048,1.48,0.984
		c0.229-0.035,0.418-0.182,0.558-0.407c0.904-0.222,1.537-0.772,1.458-1.315c-0.075-0.542-0.833-0.896-1.767-0.862
		c-0.188-0.177-0.415-0.271-0.644-0.24c-0.525,0.074-1.259,0.82-1.15,1.604l0,0c-0.659,0.21-1.284,0.463-1.901,0.757
		c1.027-0.87,1.925-1.895,2.972-3.312c0.671-0.911,3.985-1.688,5.09-2.117c0.688-0.057,1.379,0.199,1.933,0.588
		c0.527,0.38,0.512,1.134,0.952,1.578c0.28,0.26,0.714,0.105,1.041,0.253c0.396,0.177,0.938,0.497,1.299,0.09
		c0.17-0.203,0.125-0.501,0.182-0.742c0.09-0.354,0.403-0.757,0.271-1.138c-0.117-0.316-0.453-0.448-0.712-0.625
		c-0.106-0.072-0.208-0.167-0.275-0.279c-0.14-0.229-0.188-0.55-0.079-0.791c0.09-0.204,0.343-0.237,0.538-0.23
		c0.69,0.042,1.353,0.245,2.027,0.352c0.433,0.07,0.878,0.402,1.312,0.165c0.55-0.305,0.787-1.028,1.077-1.541
		c0.21-0.373,0.617-0.775,0.53-1.243C217.197,146.802,216.644,146.862,216.387,146.538z"/>
	<path fill="#FFFFFF" d="M127.689,221.075c1.051-0.965,3.005-3.677,3.277-5.606c1.055,2.26,3.259,3.405,5.094,3.405
		c0.964-1.419,1.025-5.94,1.176-7.96c0.727,2.445,3.62,3.444,5.248,3.831c0.12-0.481,0.451-8.228,0.029-10.159
		c0.663,1.876,3.048,3.615,5.372,3.86c0.332-5.88-2.293-9.647-2.38-11.144c1.084,1.616,4.742,2.057,6.509,2.219
		c-3.936-15.072-13.415-21.595-14.078-21.952c0.572-0.783,0.49-2.422,0.49-2.422s-8.119,0.663-10.729,7.101
		c-2.615-6.438-10.73-7.101-10.73-7.101s-0.083,1.639,0.486,2.422c-0.663,0.362-10.142,6.88-14.079,21.952
		c1.767-0.162,5.426-0.603,6.51-2.219c-0.086,1.496-2.716,5.264-2.381,11.144c2.324-0.24,4.705-1.984,5.369-3.86
		c-0.426,1.932-0.091,9.678,0.03,10.159c1.628-0.387,4.521-1.386,5.248-3.831c0.15,2.023,0.211,6.544,1.172,7.96
		c1.842,0,4.042-1.146,5.102-3.405C124.686,217.401,126.629,220.118,127.689,221.075z"/>
	<path fill="#FFFFFF" d="M103.811,168.693c-3.232-3.405-3.718-8.812-3.718-8.812s-1.563,1.804-1.808,2.211
		c-0.237,0.4-0.881,0.162-2.573,1.93c0.882,0.078,0.324,0.041,0.162,0.241c-0.162,0.199-2.128,1.805-2.374,2.448
		c-0.482,0.482-2.291,1.691-2.535,2.731c0.32,0.124,0.686,0.162,0.686,0.162s-1.496,0.938-1.511,1.499
		c-1.043,0.012-0.923,0.335-1.447,0.354c-0.523,0.02-1.707,0.08-2.008,0.242c-0.283-0.144-1.19-0.825-2.012,0.203
		c-0.26-0.203-1.544-0.641-2.347,0c-0.282-0.185-0.415-0.396-0.987-0.422c0.12-0.396,0.199-0.844,0.162-0.983
		c-0.042-0.139,1.126-0.663,0.723-1.303c-0.399-0.646-0.539-0.646-0.539-0.849s0.381-1.729-0.825-2.452
		c-1.206-0.724-2.05-0.58-2.114-0.185c-0.26-0.038-1.326-0.381-1.951,0.185c-0.449,0.407-1.089,0.708-1.138,1.725
		c-0.422-0.398-1.646-0.65-2.863-0.493c-2.388-1.921-5.922-2.938-8.966-4.645c-1.213-0.938-2.012-2.34-2.645-4.354
		c0.727-4.834-0.569-8.033-0.467-12.271c-2.287,3.774-2.818,8.743,0.079,12.412c0.293,1.018,0.67,2.013,1.134,2.97
		c-1.138-0.773-2.189-1.657-3.157-2.63c-0.354-0.651-0.625-1.315-0.769-1.992c0.61-0.141,1.021-0.905,0.931-1.786
		c-0.09-0.924-0.708-1.624-1.375-1.553c-0.67,0.063-1.134,0.874-1.044,1.798c0.087,0.847,0.61,1.506,1.21,1.56
		c0.06,0.413,0.166,0.82,0.316,1.205c-1.002-1.104-1.906-2.291-2.72-3.542c-0.09-1.201-0.105-2.406-0.053-3.608
		c2.03-3.93,2.256-9.531,3.221-10.736c-4.295,1.897-4.901,6.712-3.613,10.718c-0.064,0.938-0.087,1.876-0.064,2.813
		c-0.663-1.093-1.281-2.245-1.834-3.432c-0.169-0.776-0.241-1.529-0.162-2.245c0.546,0.052,1.092-0.472,1.258-1.218
		c0.173-0.794-0.143-1.537-0.712-1.664c-0.573-0.125-1.18,0.41-1.356,1.205c-0.162,0.723,0.094,1.408,0.573,1.62
		c-0.075,0.434-0.094,0.858-0.06,1.284c-0.539-1.266-0.999-2.565-1.353-3.861c0.233-1.014,0.557-2.001,0.983-2.949
		c2.528-2.438,4.901-4.619,6.562-7.776c-3.458,0.655-6.735,4.035-6.901,7.655c-0.339,0.72-0.629,1.455-0.862,2.212
		c-0.211-0.9-0.362-1.824-0.453-2.758c0.079-0.633,0.233-1.232,0.486-1.764c0.43,0.196,1.033-0.079,1.383-0.645
		c0.377-0.603,0.32-1.307-0.109-1.578c-0.433-0.271-1.088,0.004-1.458,0.61c-0.343,0.551-0.328,1.19,0.007,1.499
		c-0.166,0.299-0.294,0.61-0.388,0.931c-0.041-0.795-0.038-1.589,0.016-2.376c0.022-0.348,0.079-0.792,0.418-1.504
		c0.542-0.803,0.821-1.107,1.473-1.831c1.537-0.754,3.018-1.62,4.445-2.565c1.216-0.802,2.404-1.688,3.409-2.755
		c0.14-0.146,0.275-0.297,0.403-0.455c-0.354,0-0.704,0.026-1.055,0.063c-1.477,0.174-2.904,0.697-4.151,1.516
		c-1.458,0.968-2.641,2.34-3.296,3.971c-0.512,0.534-0.923,1.164-1.372,1.751c-0.343,0.505-0.998,2.333-0.991,2.683
		c-0.373-0.633-0.667-1.255-0.934-1.947c-0.124-4.126-0.618-8.696-1.978-12.613c-1.635,4.083-1.267,9.342,1.661,12.775
		c0.32,0.893,0.746,1.709,1.24,2.52c0.003,0.709,0.048,1.406,0.124,2.099c-0.188-0.271-0.396-0.52-0.629-0.742
		c0.181-0.459-0.034-1.107-0.561-1.563c-0.622-0.542-1.439-0.613-1.827-0.165c-0.392,0.447-0.2,1.246,0.415,1.785
		c0.621,0.538,1.439,0.614,1.831,0.166c0-0.005,0.004-0.008,0.004-0.008c0.324,0.358,0.606,0.776,0.851,1.229
		c0.249,1.725,0.693,3.424,1.292,5.074c-3.704-3.477-5.519-9.682-8.292-14.037c-0.531,4.95,1.62,10.066,6.178,12.455
		c0.788,0.881,1.616,1.718,2.476,2.531c0.373,0.928,0.791,1.868,1.258,2.799c-0.242-0.184-0.505-0.351-0.784-0.485
		c0.075-0.568-0.381-1.225-1.126-1.556c-0.859-0.384-1.778-0.192-2.049,0.425c-0.275,0.618,0.199,1.428,1.055,1.81
		c0.851,0.38,1.767,0.191,2.049-0.419c0.437,0.261,0.844,0.588,1.236,0.961c0.874,1.657,1.879,3.267,2.973,4.675
		c-5.376-2.287-9.114-8.287-14.007-11.796c1.473,5.241,5.696,10.021,11.257,10.911c1.084,0.617,2.207,1.18,3.364,1.649
		c0.52,0.622,1.062,1.213,1.639,1.786c-0.302-0.068-0.607-0.116-0.92-0.14c-0.166-0.603-0.896-1.055-1.778-1.074
		c-1.014-0.015-1.846,0.565-1.857,1.293c-0.011,0.731,0.803,1.342,1.816,1.36c1.01,0.015,1.838-0.562,1.861-1.284
		c0.471,0.063,0.938,0.188,1.405,0.35c0.923,0.854,1.914,1.635,2.977,2.313c0.953,0.614,1.955,1.145,3.002,1.578
		c-5.982,0.705-13.001-3.888-18.572-5.971c3.07,4.306,8.604,7.571,14.025,6.811c0.426-0.071,0.848-0.17,1.255-0.29
		c1.333,0.083,2.683,0.045,4.008-0.128c0.23-0.026,0.309-0.019,0.528,0.053c2.011,0.671,3.842,1.76,5.545,3.086
		c-0.583,0.222-1.111,0.562-1.454,1.092c-1.206,1.865-1.432,2.208-1.567,2.333c-0.139,0.124-0.426-0.05-0.426,1.284
		c0,1.322-0.075,2.034,0.411,2.381c0.482,0.346,1.462,0.848,1.462,0.979c-0.027,0.15-0.483,0.418-0.437,0.769
		c0.048,0.347,0.331,2.17,1.07,2.445c0.742,0.271,1.929,0.858,2.562,0.613c0,0.457,0.573,2.118,2.11,2.084
		c1.364-0.026,4.431-0.223,5.357-2.441c3.383,6.423,5.392,13.302,6.171,17.338c0.516-0.694,1.442-1.736,2.098-2.739
		c-1.691-3.297-2.802-10.206-8.355-17.906c0.109-0.298,0.362-0.779,0.489-1.209c0.185-0.057,0.392-0.129,0.471-0.162
		c0.139-0.057,1.032,0.772,1.929,0.361c0.222-0.098,1.22,0.551,2.271,0.112c0.32-0.132,0.896,0.705,2.392,0.31
		c0.305-0.083,0.486,0.584,2.272,0.464c0.301-0.02,0.783,0.9,2.23,0.964c1.447,0.057,1.688,0.482,2.151,0.523
		c0.463,0.038,3.443,0.079,4.382-0.26c-0.08,0.2,0.184,0.271,0.384,0.283c0.199,0.015,2.878,0.41,4.822-0.969
		c0.482-0.339,1.79-0.219,2.49-0.38c0.705-0.162,3.138-1.478,4.02-2.382C110.223,172.969,106.907,171.941,103.811,168.693z"/>
	<g>
		<path fill="#FFFFFF" d="M113.523,88.227c1.548-0.29,1.809,0.121,3.168,1.085c2.697,1.921,6.002,1.051,6.917,1.206
			c0.521,0.087,0.886,0.946,0.648,1.33c-0.576,0.908-0.2,1.589-0.316,1.71c-0.125,0.121-2.894,2.694-2.938,3.816
			c-3.172,2.129-3.899,4.14-3.937,4.867c-1.126,0.965-1.971,2.412-2.053,3.662c-0.965,0.772-1.466,1.793-1.692,2.374h30.004
			c-0.361-0.84-1.168-2.63-1.639-2.878c-0.332-0.347-0.634-2.2-0.648-2.999c-0.016-0.799-0.497-1.537-1.024-2.411
			c0.012-1.066-0.517-4.871-0.738-5.941c0.135,0.196,0.373,0.618,0.738,1.195c-0.29-1.029-0.832-3.621-0.697-6.529
			c0.139-2.913-1.341-4.284-1.598-4.54c0.136,0.076,0.497,0.151,1.115,0c-0.328-0.083-0.451-0.229-1.868-1.401
			c-1.417-1.175-9.588-2.814-11.822-3.018c-2.234-0.195-3.018,1.146-3.018,1.556c-2.606-0.29-3.514,0.302-3.707,0.708
			c-0.196-0.026-3.043-0.252-4.69,0.109c-5.41,1.19-1.266,6.755-0.769,7.191C112.981,88.859,113.267,88.498,113.523,88.227z"/>
		<path fill="#FFFFFF" d="M203.337,66.813c-2.444-0.935-5.715-0.136-5.972-0.049c0.08-0.147,0.113-0.528,0.113-0.528
			c-6.875,0.32-11.863,5.711-15.48,7.637c-9.587,5.116-18.692,12.99-23.44,18.464c-0.282,0.32-0.662,1.051-0.742,1.477
			c-0.071,0.418-0.719,2.306-1.296,2.954c-2.411,2.728-2.866,6.728-1.989,8.311c0.874,1.586,2.626,1.944,2.653,2.275
			c0.177,1.929,1.329,2.761,1.284,3.089c-0.282,2.091,0.542,5.546,0.633,5.647c0.091,0.113,0.271,0.415,0.103,0.516
			c-0.589,0.347-0.928,1.658-0.822,2.102c-0.475,0.264-1.843,1.869-2.498,2.629v27.721c0.415,0.319,1.119,0.957,1.854,1.25
			c-0.464-0.783-0.362-4.822-0.32-5.828c1.383,2.008,4.543,3.44,5.044,3.537c-0.161-0.395-0.121-4.037-0.121-4.821
			c0.242,0.144,4.201,2.229,5.146,2.49c-0.384-0.482-0.464-4.159-0.584-5.727c0.521,0.705,4.54,2.23,5.625,2.328
			c-0.361-0.482-1.673-5.06-2.012-5.865c0.482,0.26,5.512,1.107,6.25,0.783c-0.862-0.886-2.61-3.797-3.199-4.706
			c0.385,0.046,4.665,0.589,6.157,0.32c-1.304-0.881-2.912-3.677-3.621-4.641c2.092,0.26,5.467-0.747,6.673-1.048
			c-0.584-0.422-3.923-3.116-4.521-3.597c2.792,0.199,5.402-1.229,6.431-1.53c-0.32-0.022-3.681-2.693-4.162-3.134
			c3.74,0.399,6.29-1.225,7.011-2.332c-1.545-0.339-4.458-2.374-4.743-2.694c2.43-0.259,5.345-2.37,6.171-3.198
			c-1.345,0.06-4.722-1.688-5.568-1.929c2.531-0.644,4.423-2.573,5.305-3.176c-2.672-1.145-5.146-1.209-5.885-1.33
			c2.091-0.562,6.027-3.997,7.199-5.003c-0.32,0.045-7.584-0.056-8.525-0.2c1.326-0.482,6.755-4.431,7.636-5.063
			c-0.632-0.034-6.178-0.294-7.989-0.444c6.212-1.873,12.122-7.599,12.665-8.748c-1.382,0.185-4.431,0.034-6.423-0.03
			c5.636-2.833,9.078-7.022,9.949-8.202c-1.356,0.06-3.312-0.392-4.25-0.787C200.896,71.997,202.794,68.139,203.337,66.813z"/>
		<path fill="#FFFFFF" d="M99.501,149.152v-27.815c-0.689-0.791-2.012-2.373-2.468-2.629c0.098-0.444-0.233-1.755-0.825-2.102
			c-0.169-0.102,0.007-0.403,0.102-0.516c0.087-0.105,0.916-3.556,0.637-5.647c-0.049-0.328,1.108-1.16,1.281-3.089
			c0.03-0.328,1.778-0.689,2.652-2.275c0.878-1.583,0.414-5.583-1.989-8.311c-0.577-0.645-1.221-2.532-1.295-2.954
			c-0.08-0.422-0.46-1.152-0.739-1.477c-4.743-5.47-13.849-13.344-23.44-18.464c-3.617-1.929-8.601-7.316-15.48-7.637
			c0,0,0.034,0.381,0.113,0.528c-0.256-0.087-3.53-0.886-5.971,0.049c0.539,1.326,2.441,5.184,10.247,8.921
			c-0.934,0.395-2.894,0.847-4.25,0.787c0.874,1.179,4.31,5.368,9.949,8.197c-1.993,0.064-5.036,0.215-6.423,0.031
			c0.542,1.149,6.454,6.875,12.666,8.748c-1.812,0.15-7.357,0.411-7.99,0.445c0.881,0.629,6.31,4.581,7.633,5.063
			c-0.946,0.143-8.202,0.242-8.522,0.2c1.172,1.01,5.108,4.445,7.199,5.003c-0.742,0.125-3.213,0.185-5.884,1.33
			c0.881,0.599,2.772,2.532,5.304,3.176c-0.847,0.241-4.223,1.989-5.568,1.929c0.821,0.825,3.737,2.935,6.171,3.194
			c-0.279,0.32-3.199,2.354-4.743,2.694c0.723,1.107,3.277,2.731,7.011,2.332c-0.482,0.44-3.835,3.115-4.159,3.134
			c1.025,0.301,3.636,1.729,6.435,1.529c-0.603,0.482-3.945,3.172-4.529,3.598c1.209,0.301,4.585,1.303,6.676,1.047
			c-0.705,0.965-2.309,3.756-3.621,4.642c1.493,0.264,5.772-0.278,6.156-0.324c-0.588,0.908-2.335,3.82-3.199,4.709
			c0.742,0.32,5.772-0.523,6.254-0.784c-0.339,0.804-1.65,5.385-2.011,5.867c1.088-0.099,5.108-1.624,5.628-2.328
			c-0.121,1.566-0.2,5.239-0.58,5.727c0.946-0.261,4.901-2.348,5.146-2.491c0,0.783,0.038,4.419-0.125,4.822
			c0.501-0.098,3.658-1.529,5.044-3.537c0.042,1.006,0.14,5.045-0.32,5.827C98.375,150.034,99.06,149.472,99.501,149.152z"/>
	</g>
	<g>
		<path fill="#FFFFFF" d="M133.411,175.219c1.673-0.683,3.5-1.138,5.356-1.571v-29.02h-5.356V175.219z"/>
		<path fill="#FFFFFF" d="M141.827,172.902c1.861-0.49,3.688-1.104,5.357-2.055v-26.224h-5.357V172.902z"/>
		<path fill="#FFFFFF" d="M108.155,170.853c1.677,0.952,3.5,1.56,5.361,2.053v-28.277h-5.361V170.853z"/>
		<path fill="#FFFFFF" d="M116.575,173.647c1.854,0.434,3.685,0.886,5.357,1.571v-30.591h-5.357V173.647z"/>
		<path fill="#FFFFFF" d="M130.348,176.933v-32.309h-5.356v32.309c1.025,0.787,1.944,1.425,2.689,2.693
			C128.427,178.36,129.327,177.72,130.348,176.933z"/>
		<path fill="#FFFFFF" d="M100.413,151.872c0,8.673,1.88,13.596,4.683,16.576v-23.82h-4.683
			C100.413,146.899,100.413,149.303,100.413,151.872z"/>
		<path fill="#FFFFFF" d="M154.931,151.872c0-2.569,0-4.973,0-7.244h-4.684v23.82C153.055,165.468,154.931,160.545,154.931,151.872z
			"/>
	</g>
	<path id="NCUA" fill="#FFFFFF" d="M146.962,117.597l1.827,11.637h-3.616L146.962,117.597z M154.922,109.218v33.624h-54.482v-33.624
		H154.922z M112.163,110.281h-2.487v20.947l-5.428-20.947h-2.607v31.36h2.487v-20.45l5.35,20.45h2.683L112.163,110.281
		L112.163,110.281z M126.08,132.06l-2.596-1.947c-0.225,2.294-0.591,3.979-1.103,5.044c-0.512,1.074-1.126,1.608-1.838,1.608
		c-0.964,0-1.749-0.839-2.351-2.523c-0.606-1.685-0.904-4.506-0.904-8.465c0-3.742,0.305-6.439,0.919-8.111
		c0.615-1.669,1.413-2.502,2.393-2.502c0.711,0,1.314,0.471,1.815,1.409c0.498,0.942,0.826,2.227,0.98,3.85l2.653-1.496
		c-0.302-2.513-0.754-4.438-1.361-5.779c-1.014-2.268-2.329-3.398-3.952-3.398c-1.857,0-3.356,1.443-4.498,4.333
		c-1.137,2.89-1.71,6.939-1.71,12.161c0,4.932,0.568,8.818,1.703,11.667c1.134,2.845,2.581,4.269,4.344,4.269
		c1.424,0,2.595-0.832,3.526-2.494C125.017,138.023,125.68,135.48,126.08,132.06z M138.938,110.281h-2.678v17.348
		c0,2.483-0.042,4.258-0.117,5.328c-0.083,1.069-0.313,1.974-0.7,2.705c-0.385,0.733-0.962,1.103-1.719,1.103
		c-0.746,0-1.333-0.384-1.764-1.164c-0.429-0.779-0.708-1.805-0.82-3.089c-0.064-0.799-0.099-2.547-0.099-5.244v-16.983h-2.678
		v16.724c0,3.507,0.086,6.163,0.264,7.96c0.123,1.205,0.373,2.373,0.745,3.474c0.385,1.107,0.897,2.008,1.553,2.696
		c0.655,0.69,1.616,1.044,2.882,1.044c1.051,0,1.902-0.316,2.55-0.952c0.652-0.638,1.172-1.485,1.564-2.559
		c0.388-1.074,0.655-2.381,0.802-3.94c0.14-1.549,0.215-4.213,0.215-7.977V110.281L138.938,110.281z M153.721,141.636l-5.308-31.355
		h-2.833l-5.165,31.355h2.84l1.097-7.123h5.301l1.156,7.123H153.721z"/>
	<polygon fill="#FFFFFF" points="127.681,31.057 130.088,38.463 137.879,38.463 131.58,43.044 133.983,50.455 127.681,45.878 
		121.381,50.455 123.789,43.044 117.483,38.463 125.274,38.463 	"/>
	<polygon fill="#FFFFFF" points="96.706,49.347 99.117,56.754 106.907,56.754 100.601,61.339 103.005,68.742 96.706,64.161 
		90.407,68.742 92.81,61.339 86.511,56.754 94.298,56.754 	"/>
	<polygon fill="#FFFFFF" points="158.656,49.347 156.253,56.754 148.462,56.754 154.761,61.339 152.354,68.742 158.656,64.161 
		164.958,68.742 162.552,61.339 168.854,56.754 161.067,56.754 	"/>
	<path fill="#FFFFFF" d="M128.167,228.515c-55.67,0-100.962-45.29-100.962-100.961c0-55.67,45.292-100.961,100.962-100.961
		c55.669,0,100.961,45.291,100.961,100.961C229.129,183.225,183.837,228.515,128.167,228.515z M128.167,27.941
		c-54.927,0-99.613,44.686-99.613,99.612c0,54.928,44.686,99.612,99.613,99.612c54.927,0,99.612-44.685,99.612-99.612
		C227.779,72.627,183.095,27.941,128.167,27.941z"/>
	<path fill="#FFFFFF" d="M128.163,254.118c-69.789,0-126.564-56.778-126.564-126.564c0-69.79,56.776-126.567,126.564-126.567
		c69.791,0,126.564,56.777,126.564,126.567C254.728,197.34,197.954,254.118,128.163,254.118z M128.163,2.334
		C59.119,2.334,2.948,58.508,2.948,127.554c0,69.044,56.171,125.216,125.215,125.216c69.044,0,125.216-56.172,125.216-125.216
		C253.379,58.508,197.207,2.334,128.163,2.334z"/>
</g>
</svg>
