<?xml version="1.0" encoding="utf-8"?>
<!-- Generator: Adobe Illustrator 15.0.2, SVG Export Plug-In . SVG Version: 6.00 Build 0)  -->
<!DOCTYPE svg PUBLIC "-//W3C//DTD SVG 1.1//EN" "http://www.w3.org/Graphics/SVG/1.1/DTD/svg11.dtd">
<svg version="1.1" id="Artwork" xmlns="http://www.w3.org/2000/svg" xmlns:xlink="http://www.w3.org/1999/xlink" x="0px" y="0px"
	 width="256px" height="256px" viewBox="0 0 256 256" enable-background="new 0 0 256 256" xml:space="preserve">
<g>
	<path fill="#1D4E91" d="M43.694,215.329l0.535-0.625c0.322,0.135,0.559,0.217,0.713,0.25c0.152,0.032,0.306,0.032,0.459,0
		c0.154-0.033,0.332-0.129,0.534-0.288c0.203-0.161,0.474-0.439,0.814-0.838l9.026-10.542l2.403,2.058l-2.044,11.009
		c-0.279,1.488-0.527,2.632-0.741,3.433l0.085,0.073c1.099-1.411,2.293-2.87,3.584-4.377l2.608-3.048
		c0.405-0.472,0.666-0.823,0.78-1.054c0.114-0.231,0.158-0.453,0.129-0.668c-0.028-0.217-0.175-0.515-0.44-0.895l0.535-0.624
		l3.578,3.063l-0.535,0.624c-0.288-0.136-0.532-0.225-0.731-0.266c-0.201-0.041-0.389-0.024-0.566,0.049
		c-0.177,0.072-0.359,0.197-0.545,0.378c-0.187,0.179-0.406,0.417-0.661,0.714l-7.008,8.186c-0.406,0.472-0.665,0.816-0.777,1.031
		c-0.113,0.216-0.156,0.438-0.129,0.669c0.026,0.229,0.169,0.532,0.428,0.906l-0.535,0.625l-3.833-3.282l1.633-8.688
		c0.105-0.542,0.257-1.271,0.458-2.182c0.201-0.909,0.41-1.754,0.625-2.532l-0.151-0.13c-1.221,1.568-2.596,3.244-4.126,5.03
		l-1.506,1.76c-0.352,0.408-0.589,0.719-0.714,0.931c-0.125,0.21-0.195,0.39-0.21,0.54c-0.014,0.153,0.006,0.307,0.062,0.464
		c0.056,0.158,0.181,0.386,0.375,0.684l-0.534,0.624L43.694,215.329z"/>
	<path fill="#1D4E91" d="M43.496,197.461l3.434,4.063l1.169-0.449c0.329-0.126,0.636-0.26,0.923-0.404
		c0.286-0.144,0.562-0.329,0.828-0.553c0.622-0.525,0.676-1.138,0.163-1.833l0.628-0.531l3.434,4.063l-0.628,0.529
		c-0.224-0.212-0.48-0.349-0.77-0.408c-0.29-0.06-0.617-0.061-0.981-0.003c-0.364,0.059-0.842,0.194-1.431,0.408l-13.926,4.965
		l-2.146-2.54l8.004-12.145c0.359-0.542,0.597-0.944,0.716-1.208c0.12-0.265,0.177-0.525,0.172-0.781
		c-0.005-0.257-0.094-0.546-0.268-0.866l0.627-0.531l4.439,5.253l-0.628,0.531c-0.317-0.3-0.616-0.465-0.896-0.501
		c-0.28-0.035-0.553,0.061-0.819,0.285c-0.196,0.165-0.397,0.373-0.6,0.62c-0.204,0.249-0.446,0.579-0.729,0.992L43.496,197.461z
		 M45.511,202.104l-2.894-3.425l-4.071,6.047L45.511,202.104z"/>
	<path fill="#1D4E91" d="M40.856,185.015l-0.703,0.426c-0.23-0.268-0.439-0.464-0.626-0.589c-0.188-0.124-0.381-0.184-0.583-0.18
		c-0.2,0.006-0.422,0.066-0.666,0.187c-0.245,0.118-0.536,0.28-0.876,0.487l-10.624,6.436l0.523,0.863
		c0.258,0.426,0.505,0.723,0.743,0.889c0.237,0.168,0.513,0.271,0.827,0.309c0.314,0.038,0.687,0.009,1.119-0.088
		c0.432-0.096,0.832-0.204,1.199-0.319l0.884,1.46l-3.739,2.267l-7.598-12.541l3.739-2.267l0.885,1.46
		c-0.401,0.428-0.692,0.749-0.874,0.965c-0.179,0.217-0.32,0.42-0.422,0.612c-0.102,0.194-0.173,0.377-0.215,0.547
		c-0.042,0.169-0.06,0.337-0.049,0.495c0.009,0.16,0.053,0.34,0.13,0.542c0.078,0.199,0.205,0.445,0.381,0.736l0.464,0.768
		l10.625-6.436c0.376-0.229,0.656-0.411,0.838-0.552c0.183-0.14,0.317-0.274,0.402-0.403c0.088-0.131,0.142-0.259,0.168-0.387
		c0.024-0.126,0.023-0.281-0.004-0.462c-0.027-0.183-0.099-0.408-0.215-0.68l0.703-0.426L40.856,185.015z"/>
	<path fill="#1D4E91" d="M29.539,170.381c0.265-0.119,0.508-0.238,0.729-0.354c0.219-0.12,0.393-0.233,0.516-0.343
		c0.123-0.11,0.215-0.23,0.274-0.362s0.091-0.29,0.095-0.474c0.004-0.183-0.017-0.397-0.063-0.642l0.75-0.337l2.683,5.966
		l-0.75,0.338c-0.202-0.247-0.383-0.433-0.543-0.555c-0.16-0.123-0.337-0.19-0.527-0.2c-0.191-0.01-0.412,0.027-0.66,0.111
		c-0.25,0.086-0.556,0.209-0.919,0.373l-9.805,4.41c-0.363,0.163-0.659,0.308-0.884,0.433c-0.226,0.125-0.4,0.261-0.519,0.411
		c-0.12,0.148-0.188,0.326-0.206,0.529c-0.017,0.203,0,0.467,0.054,0.788l-0.75,0.337l-2.683-5.964l0.75-0.339
		c0.223,0.273,0.415,0.463,0.576,0.567c0.162,0.105,0.327,0.165,0.498,0.18c0.17,0.014,0.373-0.012,0.606-0.081
		c0.233-0.068,0.562-0.198,0.986-0.389L29.539,170.381z"/>
	<path fill="#1D4E91" d="M28.746,158.474c0.706,2.337,0.553,4.3-0.46,5.883c-1.013,1.588-2.883,2.791-5.61,3.616
		c-1.789,0.54-3.403,0.718-4.843,0.532s-2.657-0.731-3.65-1.636c-0.994-0.906-1.721-2.122-2.183-3.648
		c-0.718-2.376-0.575-4.368,0.428-5.973c1.004-1.605,2.848-2.812,5.536-3.625c1.503-0.453,2.846-0.666,4.03-0.639
		c1.185,0.03,2.221,0.266,3.109,0.709c0.889,0.442,1.633,1.068,2.235,1.881C27.938,156.387,28.407,157.353,28.746,158.474z
		 M21.208,164.278c2.401-0.726,4.101-1.554,5.099-2.485c1-0.93,1.32-1.986,0.961-3.172c-0.185-0.611-0.507-1.083-0.967-1.411
		c-0.46-0.332-1.027-0.539-1.699-0.627c-0.673-0.088-1.432-0.065-2.278,0.062c-0.846,0.131-1.753,0.342-2.723,0.635
		c-1.583,0.479-2.87,1.005-3.864,1.578c-0.993,0.572-1.686,1.194-2.078,1.863c-0.392,0.67-0.469,1.398-0.231,2.185
		c0.348,1.153,1.158,1.843,2.428,2.071C17.126,165.205,18.91,164.972,21.208,164.278z"/>
	<path fill="#1D4E91" d="M7.051,135.858l0.816-0.103c0.149,0.316,0.268,0.537,0.36,0.664c0.092,0.128,0.205,0.23,0.34,0.31
		c0.136,0.079,0.332,0.128,0.59,0.145c0.258,0.018,0.646-0.006,1.165-0.071l13.769-1.736l0.396,3.139l-8.914,6.775
		c-1.208,0.913-2.159,1.594-2.856,2.042l0.014,0.111c1.761-0.306,3.626-0.583,5.596-0.831l3.98-0.503
		c0.618-0.077,1.046-0.161,1.286-0.256c0.239-0.093,0.421-0.229,0.545-0.407c0.124-0.179,0.216-0.499,0.275-0.958l0.815-0.103
		l0.589,4.672L25,148.851c-0.121-0.294-0.242-0.522-0.364-0.689c-0.121-0.164-0.271-0.277-0.452-0.344
		c-0.181-0.065-0.399-0.094-0.657-0.086s-0.581,0.036-0.969,0.084l-10.691,1.35c-0.619,0.076-1.042,0.157-1.27,0.239
		c-0.228,0.086-0.41,0.221-0.545,0.409c-0.135,0.188-0.232,0.509-0.293,0.959l-0.816,0.104l-0.631-5.006l7.049-5.334
		c0.444-0.331,1.047-0.768,1.807-1.307c0.76-0.541,1.482-1.025,2.165-1.453l-0.024-0.199c-1.958,0.34-4.104,0.657-6.435,0.95
		l-2.299,0.291c-0.535,0.066-0.92,0.136-1.154,0.207c-0.234,0.072-0.406,0.157-0.52,0.26c-0.113,0.102-0.201,0.231-0.264,0.386
		c-0.064,0.154-0.125,0.406-0.182,0.757L7.64,140.53L7.051,135.858z"/>
	<path fill="#1D4E91" d="M18.911,122.503l-0.186,5.317l1.168,0.452c0.328,0.128,0.646,0.235,0.955,0.321
		c0.308,0.085,0.637,0.134,0.985,0.147c0.813,0.027,1.264-0.389,1.353-1.25l0.821,0.028l-0.185,5.317l-0.822-0.027
		c-0.022-0.311-0.121-0.584-0.295-0.823c-0.174-0.238-0.416-0.458-0.725-0.66s-0.753-0.421-1.335-0.657l-13.651-5.674l0.116-3.324
		l14.087-3.623c0.629-0.16,1.076-0.298,1.342-0.415c0.266-0.116,0.483-0.27,0.652-0.463c0.169-0.193,0.297-0.468,0.384-0.822
		l0.822,0.029l-0.24,6.872l-0.822-0.028c-0.035-0.433-0.144-0.757-0.327-0.971c-0.183-0.214-0.449-0.328-0.798-0.34
		c-0.257-0.009-0.544,0.011-0.862,0.058c-0.317,0.048-0.719,0.13-1.205,0.245L18.911,122.503z M17.285,127.296l0.157-4.482
		l-7.08,1.748L17.285,127.296z"/>
	<path fill="#1D4E91" d="M9.166,105.436l0.809,0.148c0.028,0.308,0.073,0.558,0.135,0.746c0.063,0.189,0.167,0.346,0.313,0.47
		c0.146,0.124,0.345,0.224,0.598,0.299c0.252,0.076,0.574,0.15,0.966,0.222l12.205,2.238l0.436-2.379
		c0.087-0.473,0.083-0.866-0.011-1.18c-0.095-0.312-0.277-0.602-0.545-0.866c-0.268-0.264-0.636-0.518-1.102-0.759
		c-0.466-0.241-0.908-0.447-1.324-0.616l0.307-1.679l4.902,1.176l-2.141,11.679l-0.809-0.149c-0.026-0.317-0.073-0.572-0.139-0.766
		c-0.065-0.194-0.174-0.348-0.326-0.465c-0.152-0.117-0.354-0.21-0.605-0.282c-0.253-0.071-0.576-0.144-0.968-0.215l-10.55-1.933
		c-0.384-0.071-0.709-0.12-0.974-0.146c-0.265-0.028-0.488-0.014-0.667,0.042c-0.179,0.057-0.335,0.163-0.471,0.319
		c-0.134,0.158-0.271,0.383-0.409,0.679l-0.809-0.148L9.166,105.436z"/>
	<path fill="#1D4E91" d="M18.215,77.757l3.358,1.332l-0.625,1.574c-0.945-0.16-1.704-0.121-2.277,0.116
		c-0.571,0.238-0.987,0.682-1.243,1.33c-0.484,1.22-0.265,2.374,0.657,3.463c0.921,1.089,2.532,2.089,4.833,3.002
		c2.138,0.848,3.871,1.204,5.198,1.069c1.326-0.135,2.208-0.755,2.646-1.859c0.224-0.563,0.312-1.06,0.264-1.491
		c-0.048-0.429-0.22-0.825-0.514-1.188c-0.294-0.362-0.754-0.757-1.38-1.184l0.629-1.587l3.508,1.392
		c-0.136,0.929-0.296,1.763-0.483,2.502c-0.186,0.739-0.429,1.488-0.729,2.244c-0.637,1.606-1.445,2.802-2.427,3.587
		c-0.982,0.786-2.153,1.188-3.514,1.208c-1.361,0.019-2.938-0.327-4.729-1.038c-1.675-0.665-3.02-1.526-4.034-2.585
		c-1.014-1.059-1.638-2.273-1.872-3.645c-0.234-1.37-0.045-2.823,0.563-4.359c0.309-0.78,0.632-1.469,0.967-2.07
		C17.349,78.973,17.75,78.368,18.215,77.757z"/>
	<path fill="#1D4E91" d="M37.878,76.189l-3.3,5.647l-0.71-0.416c0.083-0.306,0.129-0.562,0.137-0.765
		c0.007-0.202-0.041-0.383-0.144-0.545c-0.104-0.162-0.261-0.318-0.475-0.473c-0.213-0.153-0.492-0.331-0.836-0.532l-9.272-5.417
		c-0.337-0.197-0.625-0.353-0.865-0.47c-0.239-0.117-0.454-0.178-0.641-0.187c-0.187-0.008-0.371,0.038-0.55,0.139
		c-0.181,0.102-0.385,0.268-0.616,0.499l-0.71-0.415l3.665-6.271c0.494-0.845,0.973-1.531,1.438-2.052
		c0.464-0.522,0.949-0.935,1.451-1.237c0.42-0.255,0.857-0.424,1.312-0.503c0.455-0.08,0.927-0.071,1.413,0.026
		c0.487,0.096,1,0.302,1.538,0.617c0.703,0.411,1.233,0.886,1.589,1.427c0.358,0.542,0.581,1.119,0.669,1.732
		c0.088,0.615,0.074,1.359-0.042,2.234l0.108,0.062c0.539-0.397,1.103-0.656,1.689-0.78s1.256-0.153,2.008-0.09l1.858,0.178
		c0.828,0.08,1.493,0.066,1.993-0.041s0.906-0.343,1.216-0.71l0.71,0.415l-2.42,4.141c-0.816,0.082-1.945,0.052-3.383-0.086
		l-2.331-0.236c-0.691-0.066-1.204-0.078-1.539-0.034c-0.334,0.045-0.6,0.139-0.796,0.279c-0.198,0.139-0.411,0.406-0.642,0.8
		l-0.364,0.624l3.463,2.024c0.539,0.314,0.929,0.509,1.174,0.584c0.245,0.076,0.472,0.08,0.686,0.012
		c0.213-0.067,0.482-0.266,0.809-0.594L37.878,76.189z M23.797,69.519l5.981,3.495l0.623-1.065c0.334-0.574,0.535-1.092,0.598-1.555
		c0.064-0.463,0.021-0.885-0.127-1.265c-0.148-0.38-0.385-0.72-0.709-1.021c-0.324-0.3-0.709-0.58-1.153-0.84
		c-0.976-0.57-1.841-0.767-2.597-0.593c-0.755,0.174-1.397,0.712-1.927,1.616C24.125,68.908,23.896,69.317,23.797,69.519z"/>
	<path fill="#1D4E91" d="M37.855,47.11l3.081,2.49l-1.073,1.328c-0.785-0.283-1.347-0.438-1.684-0.465
		c-0.336-0.026-0.651,0.013-0.945,0.119c-0.293,0.105-0.641,0.405-1.042,0.903l-1.708,2.113l4.651,3.758l1.034-1.279
		c0.229-0.284,0.37-0.54,0.419-0.766c0.049-0.226,0.024-0.47-0.077-0.728c-0.102-0.257-0.31-0.594-0.625-1.009l0.885-1.096
		l3.934,3.181l-0.885,1.095c-0.448-0.212-0.814-0.343-1.101-0.393c-0.287-0.049-0.531-0.032-0.739,0.052
		c-0.207,0.083-0.433,0.278-0.678,0.581l-1.034,1.278l5.174,4.182l1.698-2.102c0.183-0.226,0.322-0.429,0.419-0.607
		c0.096-0.179,0.158-0.357,0.187-0.538s0.026-0.376-0.005-0.589c-0.031-0.211-0.083-0.419-0.154-0.621
		c-0.073-0.202-0.185-0.446-0.339-0.731s-0.388-0.649-0.701-1.095l1.073-1.328l3.388,3.042l-7.699,9.524l-0.64-0.517
		c0.128-0.291,0.212-0.536,0.25-0.735c0.038-0.198,0.018-0.385-0.06-0.561c-0.078-0.174-0.21-0.354-0.398-0.538
		c-0.188-0.184-0.437-0.401-0.748-0.652l-8.348-6.749c-0.304-0.247-0.565-0.444-0.785-0.595c-0.22-0.15-0.422-0.245-0.606-0.282
		c-0.184-0.036-0.373-0.017-0.565,0.056c-0.193,0.074-0.421,0.208-0.684,0.4l-0.64-0.517L37.855,47.11z"/>
	<path fill="#1D4E91" d="M45.992,39.057c1.028-0.932,1.96-1.629,2.794-2.093c0.834-0.464,1.676-0.767,2.523-0.907
		c0.848-0.141,1.652-0.121,2.414,0.059c0.762,0.178,1.508,0.511,2.24,0.998c0.731,0.486,1.456,1.126,2.175,1.921
		c0.869,0.959,1.537,1.925,2.004,2.891c0.467,0.967,0.72,1.926,0.761,2.874c0.04,0.849-0.088,1.693-0.386,2.534
		c-0.297,0.841-0.766,1.668-1.406,2.483c-0.553,0.702-1.324,1.501-2.316,2.398l-4.193,3.796l-0.552-0.609
		c0.172-0.268,0.292-0.498,0.361-0.688c0.068-0.191,0.077-0.378,0.027-0.564c-0.049-0.184-0.152-0.382-0.309-0.593
		c-0.157-0.211-0.37-0.464-0.637-0.76l-7.206-7.961c-0.262-0.289-0.49-0.525-0.684-0.708c-0.193-0.183-0.378-0.307-0.555-0.372
		s-0.365-0.076-0.568-0.033c-0.202,0.042-0.447,0.139-0.737,0.29l-0.552-0.61L45.992,39.057z M55.44,51.407
		c0.128-0.082,0.416-0.326,0.866-0.734c0.677-0.612,1.157-1.226,1.441-1.841c0.211-0.461,0.32-0.928,0.327-1.404
		c0.015-0.788-0.183-1.611-0.592-2.472c-0.447-0.94-1.153-1.943-2.116-3.008c-1.059-1.169-2.096-1.999-3.11-2.487
		c-1.013-0.488-1.97-0.658-2.872-0.508c-0.901,0.149-1.748,0.583-2.543,1.302c-0.382,0.345-0.649,0.6-0.805,0.762L55.44,51.407z"/>
	<path fill="#1D4E91" d="M68.75,38.718c0.166,0.239,0.327,0.456,0.482,0.651c0.156,0.195,0.299,0.343,0.43,0.445
		c0.131,0.102,0.267,0.168,0.406,0.203c0.14,0.035,0.301,0.037,0.482,0.008c0.182-0.031,0.389-0.091,0.619-0.181l0.469,0.676
		l-5.374,3.729l-0.469-0.676c0.206-0.244,0.354-0.455,0.446-0.635c0.092-0.181,0.125-0.365,0.1-0.555
		c-0.026-0.19-0.103-0.399-0.231-0.628c-0.129-0.23-0.307-0.508-0.534-0.835l-6.13-8.833c-0.227-0.328-0.423-0.591-0.587-0.79
		c-0.164-0.201-0.33-0.345-0.499-0.436s-0.355-0.125-0.559-0.105c-0.204,0.02-0.459,0.085-0.765,0.197l-0.469-0.675l5.374-3.729
		l0.468,0.676c-0.227,0.269-0.378,0.492-0.452,0.669c-0.073,0.177-0.102,0.352-0.085,0.521c0.017,0.17,0.081,0.364,0.191,0.581
		c0.11,0.217,0.298,0.516,0.563,0.898L68.75,38.718z"/>
	<path fill="#1D4E91" d="M76.757,37.398l-0.383-0.727c0.281-0.215,0.489-0.412,0.626-0.591c0.135-0.179,0.207-0.369,0.213-0.57
		c0.007-0.2-0.042-0.425-0.146-0.676c-0.104-0.252-0.249-0.552-0.435-0.905l-5.79-10.989l-0.893,0.47
		c-0.441,0.232-0.752,0.462-0.932,0.688c-0.182,0.229-0.3,0.498-0.356,0.808c-0.056,0.312-0.049,0.687,0.021,1.123
		c0.07,0.437,0.152,0.842,0.246,1.216l-1.51,0.795l-2.038-3.868l12.973-6.835l2.039,3.868L78.882,22
		c-0.403-0.426-0.707-0.735-0.912-0.928c-0.205-0.193-0.4-0.345-0.586-0.459c-0.187-0.112-0.363-0.195-0.533-0.248
		c-0.168-0.052-0.332-0.079-0.491-0.079c-0.16,0-0.341,0.033-0.546,0.099c-0.206,0.065-0.458,0.178-0.759,0.336l-0.794,0.418
		l5.789,10.989c0.206,0.389,0.373,0.679,0.501,0.869c0.128,0.191,0.255,0.333,0.379,0.427s0.25,0.157,0.375,0.19
		c0.125,0.033,0.279,0.041,0.463,0.023c0.183-0.016,0.414-0.074,0.69-0.173l0.383,0.727L76.757,37.398z"/>
	<path fill="#1D4E91" d="M100.625,13.173c-0.163-0.602-0.303-1.013-0.42-1.235c-0.117-0.222-0.271-0.384-0.462-0.487
		c-0.191-0.103-0.524-0.154-0.997-0.154l-0.217-0.793l5.289-1.44l0.216,0.792c-0.266,0.159-0.471,0.307-0.615,0.446
		c-0.143,0.138-0.236,0.3-0.279,0.488c-0.043,0.189-0.042,0.412,0.002,0.671c0.045,0.259,0.119,0.58,0.224,0.965l2.046,7.513
		c0.271,0.994,0.417,1.847,0.44,2.559c0.022,0.713-0.073,1.343-0.286,1.892c-0.212,0.549-0.53,1.032-0.955,1.449
		c-0.424,0.417-0.933,0.771-1.525,1.062c-0.592,0.29-1.277,0.542-2.054,0.753c-1.139,0.31-2.132,0.453-2.982,0.431
		s-1.586-0.205-2.208-0.547c-0.623-0.342-1.145-0.822-1.568-1.438c-0.422-0.618-0.779-1.463-1.072-2.536l-2.118-7.777
		c-0.103-0.376-0.199-0.69-0.29-0.941c-0.089-0.25-0.198-0.445-0.327-0.582c-0.127-0.137-0.291-0.232-0.491-0.286
		c-0.2-0.053-0.462-0.078-0.79-0.076l-0.216-0.793l6.311-1.719l0.216,0.793c-0.304,0.179-0.521,0.338-0.65,0.481
		c-0.128,0.142-0.213,0.297-0.255,0.463c-0.041,0.166-0.046,0.369-0.014,0.61c0.031,0.242,0.108,0.587,0.23,1.035l2.162,7.933
		c0.172,0.633,0.37,1.2,0.592,1.698c0.222,0.499,0.49,0.906,0.804,1.222c0.314,0.314,0.686,0.521,1.117,0.618
		c0.431,0.098,0.944,0.065,1.536-0.096c0.818-0.223,1.381-0.553,1.693-0.991c0.311-0.438,0.469-0.973,0.473-1.607
		c0.003-0.634-0.154-1.537-0.473-2.706L100.625,13.173z"/>
	<path fill="#1D4E91" d="M123.622,6.682l0.083,0.818c-0.32,0.141-0.543,0.255-0.673,0.344c-0.128,0.087-0.234,0.198-0.317,0.332
		c-0.082,0.133-0.135,0.328-0.16,0.585c-0.024,0.257-0.01,0.646,0.042,1.167l1.394,13.808l-3.148,0.318l-6.551-9.079
		c-0.884-1.229-1.542-2.199-1.972-2.906l-0.112,0.011c0.262,1.769,0.493,3.64,0.692,5.615l0.403,3.99
		c0.062,0.62,0.137,1.05,0.225,1.292c0.086,0.242,0.218,0.426,0.394,0.555c0.176,0.128,0.492,0.228,0.95,0.299l0.083,0.818
		l-4.685,0.473l-0.083-0.818c0.297-0.113,0.53-0.229,0.697-0.346c0.168-0.117,0.287-0.265,0.356-0.442
		c0.069-0.179,0.104-0.397,0.103-0.656s-0.021-0.583-0.06-0.97L110.2,11.167c-0.062-0.62-0.132-1.045-0.209-1.274
		c-0.078-0.23-0.209-0.416-0.395-0.555c-0.185-0.14-0.503-0.246-0.953-0.318l-0.082-0.817l5.02-0.507l5.158,7.179
		c0.321,0.452,0.741,1.065,1.262,1.839c0.521,0.773,0.986,1.508,1.399,2.2l0.199-0.02c-0.292-1.966-0.554-4.118-0.79-6.457
		l-0.233-2.306c-0.054-0.536-0.114-0.922-0.179-1.158c-0.066-0.236-0.148-0.411-0.248-0.527c-0.099-0.114-0.226-0.206-0.378-0.275
		c-0.152-0.067-0.403-0.134-0.752-0.199l-0.083-0.818L123.622,6.682z"/>
	<path fill="#1D4E91" d="M132.933,20.788c-0.008,0.291-0.006,0.561,0.006,0.811c0.01,0.249,0.038,0.453,0.084,0.613
		c0.046,0.158,0.114,0.294,0.208,0.403c0.092,0.11,0.222,0.207,0.386,0.29c0.163,0.084,0.364,0.157,0.605,0.221l-0.02,0.822
		l-6.54-0.159l0.02-0.822c0.31-0.075,0.554-0.159,0.737-0.25c0.18-0.091,0.316-0.221,0.406-0.389
		c0.092-0.168,0.154-0.383,0.184-0.644c0.032-0.261,0.053-0.59,0.061-0.989l0.262-10.748c0.009-0.399,0.007-0.727-0.008-0.984
		s-0.062-0.473-0.146-0.645c-0.082-0.173-0.212-0.311-0.387-0.415c-0.176-0.104-0.42-0.202-0.734-0.292l0.02-0.822l6.54,0.159
		l-0.021,0.821c-0.343,0.084-0.597,0.176-0.76,0.275c-0.166,0.099-0.291,0.224-0.377,0.37c-0.086,0.148-0.15,0.341-0.188,0.582
		c-0.04,0.24-0.065,0.593-0.077,1.057L132.933,20.788z"/>
	<path fill="#1D4E91" d="M144.021,25.207c-2.412-0.37-4.117-1.353-5.111-2.951c-0.996-1.597-1.276-3.804-0.846-6.621
		c0.283-1.847,0.818-3.379,1.606-4.599c0.787-1.22,1.804-2.083,3.049-2.59c1.247-0.505,2.657-0.639,4.231-0.397
		c2.455,0.375,4.191,1.362,5.206,2.959c1.018,1.597,1.312,3.782,0.886,6.557c-0.237,1.551-0.622,2.856-1.159,3.912
		c-0.536,1.057-1.195,1.891-1.978,2.501s-1.671,1.013-2.661,1.205C146.253,25.376,145.179,25.384,144.021,25.207z M142.032,15.902
		c-0.38,2.48-0.366,4.37,0.044,5.672s1.226,2.046,2.449,2.234c0.632,0.097,1.196,0.009,1.691-0.264
		c0.495-0.272,0.928-0.693,1.296-1.263c0.369-0.569,0.677-1.264,0.924-2.083c0.248-0.818,0.447-1.729,0.602-2.731
		c0.25-1.633,0.33-3.022,0.24-4.166c-0.089-1.145-0.352-2.037-0.786-2.678c-0.436-0.643-1.059-1.026-1.873-1.152
		c-1.189-0.181-2.161,0.252-2.914,1.299C142.953,11.82,142.396,13.53,142.032,15.902z"/>
	<path fill="#1D4E91" d="M173.774,15.371l-0.258,0.781c-0.351-0.001-0.601,0.011-0.755,0.039c-0.153,0.027-0.295,0.085-0.426,0.174
		c-0.129,0.087-0.257,0.245-0.385,0.469c-0.127,0.225-0.273,0.585-0.437,1.083l-4.368,13.172l-3.004-0.997l-2.271-10.964
		c-0.305-1.483-0.509-2.636-0.613-3.458l-0.107-0.036c-0.482,1.722-1.036,3.525-1.66,5.408l-1.263,3.808
		c-0.195,0.591-0.303,1.015-0.322,1.271c-0.021,0.257,0.025,0.479,0.133,0.667c0.108,0.19,0.355,0.41,0.746,0.661l-0.259,0.781
		l-4.471-1.481l0.259-0.781c0.316,0.018,0.578,0.008,0.779-0.031c0.2-0.038,0.369-0.125,0.504-0.259
		c0.136-0.133,0.259-0.319,0.363-0.557c0.104-0.236,0.218-0.54,0.341-0.91l3.39-10.229c0.197-0.592,0.306-1.007,0.328-1.249
		c0.024-0.242-0.021-0.464-0.132-0.667c-0.112-0.204-0.358-0.429-0.74-0.678l0.26-0.781l4.788,1.587l1.775,8.661
		c0.108,0.544,0.24,1.274,0.401,2.193c0.157,0.919,0.285,1.78,0.377,2.581l0.189,0.063c0.537-1.914,1.177-3.986,1.917-6.216
		l0.729-2.199c0.17-0.512,0.272-0.889,0.309-1.13c0.037-0.243,0.034-0.436-0.012-0.582c-0.042-0.146-0.12-0.28-0.23-0.405
		c-0.112-0.125-0.313-0.288-0.605-0.49l0.257-0.781L173.774,15.371z"/>
	<path fill="#1D4E91" d="M186.128,35.014l-4.559-2.738l-0.963,0.804c-0.271,0.225-0.52,0.451-0.742,0.68
		c-0.224,0.229-0.427,0.492-0.606,0.791c-0.419,0.699-0.273,1.295,0.438,1.79l-0.424,0.705l-4.561-2.738l0.424-0.705
		c0.278,0.13,0.567,0.176,0.86,0.139c0.293-0.036,0.603-0.141,0.93-0.314c0.325-0.171,0.733-0.455,1.223-0.85l11.577-9.195
		l2.851,1.712l-3.655,14.08c-0.162,0.628-0.26,1.086-0.287,1.375c-0.029,0.289,0.002,0.553,0.088,0.794
		c0.088,0.242,0.268,0.486,0.534,0.735l-0.425,0.704l-5.895-3.539l0.422-0.705c0.397,0.18,0.733,0.241,1.01,0.184
		c0.275-0.058,0.502-0.235,0.684-0.534c0.133-0.221,0.254-0.481,0.368-0.782c0.112-0.301,0.235-0.691,0.369-1.173L186.128,35.014z
		 M182.724,31.27l3.846,2.307l1.9-7.038L182.724,31.27z"/>
	<path fill="#1D4E91" d="M205.91,34.864c1.056,0.899,1.867,1.732,2.437,2.5c0.568,0.767,0.979,1.562,1.226,2.385
		c0.248,0.822,0.334,1.622,0.255,2.4c-0.078,0.779-0.312,1.562-0.699,2.351c-0.387,0.788-0.928,1.59-1.621,2.406
		c-0.841,0.986-1.71,1.774-2.609,2.362c-0.896,0.588-1.815,0.963-2.749,1.127c-0.836,0.15-1.69,0.132-2.562-0.055
		c-0.872-0.187-1.754-0.544-2.646-1.073c-0.767-0.457-1.659-1.119-2.679-1.985l-4.306-3.666l0.533-0.626
		c0.287,0.136,0.53,0.226,0.729,0.269c0.196,0.043,0.384,0.028,0.562-0.045c0.176-0.074,0.358-0.202,0.546-0.384
		c0.189-0.183,0.413-0.426,0.671-0.73l6.96-8.179c0.253-0.297,0.456-0.553,0.613-0.77c0.157-0.215,0.256-0.414,0.297-0.598
		c0.042-0.183,0.027-0.373-0.041-0.566c-0.068-0.195-0.196-0.426-0.382-0.694l0.532-0.626L205.91,34.864z M194.889,45.835
		c0.098,0.116,0.377,0.37,0.839,0.763c0.694,0.592,1.366,0.989,2.014,1.19c0.482,0.15,0.962,0.196,1.435,0.141
		c0.782-0.085,1.574-0.388,2.374-0.907c0.873-0.565,1.777-1.395,2.707-2.489c1.023-1.202,1.711-2.337,2.063-3.405
		c0.354-1.068,0.396-2.04,0.132-2.914c-0.265-0.874-0.805-1.659-1.62-2.353c-0.393-0.334-0.68-0.567-0.859-0.7L194.889,45.835z"/>
	<path fill="#1D4E91" d="M228.154,59.977c-0.372-0.264-0.666-0.413-0.879-0.443c-0.21-0.032-0.433,0.005-0.663,0.11
		c-0.229,0.105-0.587,0.353-1.072,0.745l-8.386,6.768c-0.395,0.318-0.69,0.589-0.889,0.812c-0.197,0.223-0.308,0.444-0.332,0.66
		c-0.023,0.216,0.065,0.547,0.268,0.994l-0.641,0.516l-4.013-4.973l0.64-0.517c0.306,0.221,0.534,0.364,0.682,0.427
		c0.146,0.062,0.29,0.087,0.434,0.073c0.144-0.014,0.323-0.084,0.537-0.208c0.215-0.124,0.54-0.364,0.98-0.719l4.75-3.833
		c0.522-0.423,1.148-0.911,1.875-1.466c0.729-0.554,1.246-0.941,1.561-1.162l-0.164-0.205c-0.321,0.131-0.642,0.254-0.96,0.368
		c-0.319,0.113-0.896,0.309-1.728,0.586l-9.098,3.05l-1.378-1.707l5.657-9.079c0.316-0.521,0.643-1.021,0.984-1.499l-0.141-0.174
		c-1.015,0.925-2.249,1.975-3.703,3.148l-4.459,3.599c-0.479,0.386-0.795,0.677-0.944,0.874c-0.153,0.196-0.234,0.412-0.247,0.647
		c-0.014,0.234,0.072,0.555,0.26,0.958l-0.64,0.516l-2.957-3.665l0.641-0.516c0.258,0.186,0.481,0.318,0.67,0.394
		c0.189,0.078,0.377,0.099,0.565,0.064c0.186-0.032,0.386-0.122,0.6-0.268c0.213-0.145,0.476-0.344,0.786-0.594l8.387-6.767
		c0.49-0.397,0.81-0.689,0.957-0.877c0.146-0.188,0.23-0.391,0.247-0.607c0.016-0.217-0.068-0.547-0.257-0.993l0.64-0.516
		l3.888,4.818l-5.791,9.109l10.306-3.515l3.67,4.547L228.154,59.977z"/>
	<path fill="#1D4E91" d="M221.889,75.265c-0.25,0.148-0.479,0.292-0.685,0.433c-0.207,0.14-0.364,0.273-0.476,0.396
		c-0.11,0.123-0.188,0.254-0.232,0.39c-0.043,0.138-0.059,0.297-0.041,0.48c0.017,0.183,0.061,0.394,0.133,0.63l-0.709,0.419
		l-3.324-5.633l0.709-0.419c0.229,0.223,0.429,0.387,0.601,0.492c0.173,0.106,0.355,0.153,0.545,0.142
		c0.19-0.012,0.406-0.074,0.644-0.185c0.238-0.111,0.529-0.269,0.872-0.472l9.261-5.463c0.342-0.203,0.619-0.378,0.831-0.527
		s0.368-0.304,0.47-0.465c0.104-0.162,0.152-0.346,0.146-0.549c-0.005-0.206-0.052-0.463-0.14-0.778l0.707-0.418l3.325,5.632
		l-0.709,0.418c-0.252-0.247-0.464-0.413-0.635-0.5c-0.172-0.086-0.344-0.128-0.514-0.123c-0.171,0.005-0.37,0.054-0.594,0.147
		c-0.224,0.093-0.537,0.258-0.938,0.495L221.889,75.265z"/>
	<path fill="#1D4E91" d="M242.816,87.233l-0.755,0.325c-0.23-0.262-0.408-0.442-0.53-0.538s-0.26-0.164-0.413-0.203
		c-0.152-0.039-0.354-0.03-0.605,0.024c-0.254,0.055-0.618,0.184-1.1,0.392l-12.748,5.484l-1.252-2.907l6.688-8.98
		c0.908-1.213,1.635-2.13,2.179-2.754l-0.045-0.103c-1.607,0.782-3.323,1.564-5.146,2.348l-3.687,1.587
		c-0.572,0.246-0.96,0.447-1.163,0.603c-0.206,0.156-0.342,0.337-0.412,0.543c-0.069,0.206-0.069,0.539,0.001,0.997l-0.755,0.325
		l-1.859-4.326l0.755-0.325c0.198,0.249,0.377,0.436,0.539,0.561c0.162,0.125,0.339,0.194,0.53,0.206
		c0.189,0.013,0.408-0.02,0.656-0.099c0.244-0.079,0.548-0.195,0.906-0.35l9.9-4.259c0.571-0.246,0.956-0.44,1.15-0.584
		c0.197-0.143,0.334-0.325,0.411-0.542c0.078-0.219,0.083-0.554,0.015-1.004l0.756-0.325l1.994,4.635l-5.294,7.079
		c-0.333,0.442-0.793,1.027-1.374,1.757c-0.582,0.729-1.14,1.395-1.676,1.996l0.078,0.184c1.788-0.87,3.76-1.768,5.92-2.696
		l2.128-0.916c0.497-0.213,0.846-0.387,1.052-0.52c0.205-0.133,0.347-0.266,0.427-0.394c0.081-0.13,0.129-0.277,0.147-0.444
		c0.019-0.166,0.007-0.425-0.036-0.777l0.756-0.326L242.816,87.233z"/>
	<path fill="#1D4E91" d="M232.146,100.355c-0.28,0.08-0.537,0.162-0.772,0.247s-0.421,0.173-0.561,0.264
		c-0.137,0.091-0.244,0.198-0.321,0.319c-0.078,0.122-0.132,0.273-0.16,0.454c-0.033,0.182-0.043,0.396-0.031,0.644l-0.791,0.226
		l-1.8-6.288l0.791-0.227c0.163,0.273,0.315,0.481,0.458,0.627c0.14,0.145,0.305,0.236,0.493,0.273
		c0.188,0.037,0.408,0.032,0.668-0.016c0.258-0.048,0.579-0.127,0.963-0.236l10.334-2.96c0.384-0.109,0.695-0.21,0.938-0.301
		c0.242-0.092,0.433-0.202,0.572-0.332c0.139-0.13,0.232-0.296,0.279-0.495c0.047-0.199,0.066-0.461,0.06-0.788l0.791-0.226
		l1.801,6.288l-0.79,0.227c-0.183-0.303-0.346-0.517-0.489-0.644c-0.146-0.127-0.301-0.209-0.468-0.249
		c-0.166-0.039-0.371-0.041-0.61-0.006c-0.241,0.034-0.586,0.114-1.032,0.243L232.146,100.355z"/>
	<path fill="#1D4E91" d="M234.586,105.771c-0.938,0.373-1.606,0.84-2.001,1.401c-0.396,0.562-0.515,1.305-0.354,2.229
		c0.084,0.483,0.241,0.903,0.472,1.259c0.229,0.356,0.547,0.62,0.952,0.79c0.405,0.17,0.882,0.208,1.43,0.113
		c0.507-0.087,0.931-0.258,1.27-0.511c0.34-0.253,0.642-0.617,0.905-1.092s0.52-1.118,0.767-1.928
		c0.209-0.693,0.441-1.328,0.695-1.901c0.253-0.576,0.556-1.081,0.906-1.517c0.352-0.436,0.754-0.795,1.211-1.081
		c0.456-0.286,0.991-0.481,1.604-0.588c1.006-0.174,1.905-0.072,2.696,0.305c0.79,0.377,1.451,1.007,1.976,1.89
		c0.528,0.882,0.901,1.945,1.115,3.189c0.126,0.728,0.207,1.43,0.243,2.107c0.038,0.677,0.031,1.457-0.018,2.342l-3.561,0.616
		l-0.29-1.681c0.62-0.268,1.099-0.555,1.438-0.861c0.34-0.308,0.568-0.657,0.686-1.049c0.117-0.392,0.13-0.861,0.035-1.409
		c-0.081-0.467-0.236-0.87-0.462-1.209c-0.228-0.34-0.522-0.589-0.881-0.746c-0.361-0.157-0.771-0.195-1.229-0.117
		c-0.475,0.083-0.869,0.246-1.186,0.491c-0.316,0.244-0.604,0.611-0.859,1.103c-0.255,0.491-0.525,1.186-0.809,2.086
		c-0.351,1.098-0.726,1.978-1.13,2.642c-0.402,0.665-0.878,1.184-1.423,1.561c-0.546,0.378-1.212,0.633-1.998,0.769
		c-1.005,0.175-1.921,0.092-2.742-0.246c-0.82-0.338-1.508-0.92-2.059-1.743c-0.551-0.824-0.927-1.82-1.13-2.991
		c-0.145-0.835-0.248-1.712-0.309-2.633c-0.062-0.92-0.073-1.793-0.03-2.618l3.78-0.653L234.586,105.771z"/>
	<path fill="#1D4E91" d="M232.469,121.413l0.821-0.025c0.069,0.347,0.154,0.62,0.255,0.821c0.102,0.201,0.241,0.347,0.421,0.441
		c0.176,0.095,0.399,0.151,0.671,0.167c0.27,0.017,0.604,0.019,1.003,0.006l12.416-0.383l-0.03-1.009
		c-0.016-0.498-0.086-0.878-0.211-1.14c-0.125-0.261-0.314-0.487-0.568-0.674c-0.258-0.188-0.596-0.346-1.02-0.473
		c-0.424-0.128-0.823-0.232-1.199-0.312l-0.053-1.707l4.371-0.134l0.451,14.655l-4.369,0.136l-0.054-1.707
		c0.56-0.176,0.971-0.314,1.233-0.412c0.263-0.099,0.485-0.206,0.67-0.325c0.184-0.119,0.335-0.242,0.455-0.37
		s0.216-0.264,0.287-0.407c0.07-0.144,0.12-0.321,0.151-0.534c0.032-0.213,0.042-0.491,0.031-0.831l-0.028-0.896l-12.415,0.383
		c-0.44,0.014-0.774,0.036-1.002,0.069c-0.227,0.032-0.411,0.083-0.549,0.154c-0.14,0.07-0.251,0.155-0.334,0.253
		c-0.085,0.098-0.16,0.233-0.226,0.406c-0.065,0.172-0.114,0.404-0.147,0.696l-0.821,0.024L232.469,121.413z"/>
	<path fill="#1D4E91" d="M231.883,140.644l0.821-6.488l0.815,0.104c0.043,0.314,0.101,0.568,0.175,0.757
		c0.072,0.188,0.187,0.338,0.345,0.446s0.366,0.19,0.621,0.248c0.257,0.058,0.583,0.11,0.979,0.161l10.654,1.348
		c0.387,0.049,0.714,0.079,0.98,0.093c0.266,0.012,0.485-0.015,0.664-0.08c0.176-0.065,0.325-0.18,0.45-0.345s0.25-0.398,0.372-0.7
		l0.814,0.103l-0.91,7.206c-0.124,0.972-0.297,1.789-0.519,2.454c-0.221,0.661-0.505,1.23-0.85,1.706
		c-0.286,0.398-0.621,0.725-1.009,0.978c-0.388,0.252-0.825,0.43-1.311,0.531c-0.486,0.102-1.038,0.113-1.656,0.035
		c-0.809-0.103-1.482-0.332-2.023-0.689c-0.54-0.357-0.973-0.801-1.295-1.331c-0.321-0.531-0.601-1.222-0.836-2.071l-0.125-0.015
		c-0.339,0.575-0.757,1.034-1.246,1.378c-0.491,0.345-1.096,0.634-1.812,0.87l-1.779,0.566c-0.794,0.251-1.399,0.525-1.817,0.818
		c-0.42,0.294-0.699,0.672-0.841,1.131l-0.816-0.104l0.604-4.758c0.72-0.396,1.77-0.812,3.146-1.247l2.236-0.696
		c0.663-0.21,1.139-0.401,1.429-0.573c0.288-0.171,0.497-0.362,0.624-0.568c0.126-0.205,0.218-0.536,0.275-0.988l0.092-0.716
		l-3.98-0.504c-0.617-0.077-1.055-0.104-1.308-0.077c-0.257,0.025-0.467,0.111-0.637,0.258c-0.169,0.145-0.34,0.434-0.511,0.864
		L231.883,140.644z M247.453,141.258l-6.873-0.869l-0.155,1.224c-0.084,0.659-0.063,1.213,0.061,1.664
		c0.122,0.451,0.326,0.821,0.611,1.113c0.286,0.292,0.636,0.512,1.054,0.661c0.417,0.148,0.88,0.255,1.391,0.32
		c1.122,0.142,1.997-0.016,2.623-0.472c0.627-0.457,1.006-1.204,1.138-2.242C247.39,141.947,247.44,141.482,247.453,141.258z"/>
	<path fill="#1D4E91" d="M232.947,160.812l1.504-5.101l-1.019-0.729c-0.286-0.206-0.569-0.389-0.845-0.547
		c-0.279-0.161-0.584-0.29-0.918-0.389c-0.782-0.229-1.321,0.062-1.622,0.873l-0.788-0.231l1.505-5.103l0.787,0.231
		c-0.055,0.304-0.028,0.594,0.082,0.868c0.11,0.273,0.289,0.548,0.538,0.821s0.625,0.595,1.129,0.969l11.809,8.896l-0.94,3.19
		l-14.546-0.001c-0.649-0.002-1.116,0.021-1.403,0.066c-0.285,0.045-0.534,0.141-0.747,0.286c-0.211,0.145-0.402,0.378-0.576,0.699
		l-0.789-0.23l1.943-6.598l0.79,0.232c-0.074,0.43-0.05,0.771,0.075,1.022c0.126,0.253,0.354,0.43,0.688,0.528
		c0.248,0.072,0.531,0.126,0.851,0.159s0.729,0.055,1.227,0.062L232.947,160.812z M235.715,156.576l-1.266,4.302l7.288,0.07
		L235.715,156.576z"/>
	<path fill="#1D4E91" d="M224.003,169.853l0.742,0.354c-0.099,0.34-0.149,0.622-0.15,0.847c-0.002,0.225,0.057,0.421,0.171,0.585
		c0.113,0.164,0.288,0.316,0.521,0.455c0.231,0.139,0.529,0.294,0.889,0.466l11.212,5.347l0.435-0.912
		c0.214-0.449,0.325-0.818,0.335-1.109c0.009-0.29-0.058-0.576-0.197-0.859c-0.141-0.283-0.371-0.579-0.688-0.887
		c-0.318-0.309-0.625-0.584-0.924-0.827l0.735-1.54l3.946,1.882l-6.311,13.235l-3.947-1.883l0.734-1.539
		c0.577,0.102,1.006,0.166,1.285,0.198s0.527,0.038,0.744,0.017c0.219-0.02,0.408-0.061,0.574-0.118
		c0.166-0.061,0.314-0.139,0.441-0.232c0.128-0.095,0.256-0.23,0.38-0.404c0.126-0.177,0.261-0.417,0.406-0.724l0.386-0.812
		l-11.211-5.343c-0.397-0.191-0.703-0.324-0.92-0.4c-0.218-0.075-0.404-0.113-0.56-0.114c-0.157-0.001-0.295,0.022-0.415,0.071
		c-0.119,0.049-0.248,0.135-0.385,0.258c-0.137,0.124-0.288,0.309-0.448,0.552l-0.742-0.352L224.003,169.853z"/>
	<path fill="#1D4E91" d="M217.976,187.357c-0.245-0.156-0.476-0.295-0.696-0.415c-0.219-0.12-0.408-0.201-0.568-0.243
		s-0.311-0.054-0.453-0.03c-0.142,0.022-0.291,0.082-0.448,0.181c-0.154,0.099-0.321,0.233-0.5,0.404l-0.694-0.441l3.514-5.518
		l0.692,0.443c-0.096,0.302-0.151,0.557-0.166,0.759c-0.014,0.201,0.026,0.385,0.122,0.55c0.099,0.163,0.251,0.328,0.457,0.489
		c0.207,0.162,0.479,0.35,0.815,0.563l9.069,5.775c0.337,0.213,0.62,0.381,0.848,0.501c0.228,0.121,0.438,0.19,0.628,0.208
		s0.376-0.022,0.556-0.119s0.39-0.257,0.629-0.478l0.693,0.442l-3.512,5.516l-0.695-0.44c0.107-0.337,0.159-0.602,0.159-0.794
		c-0.001-0.192-0.04-0.363-0.122-0.515c-0.083-0.149-0.216-0.303-0.401-0.46c-0.186-0.159-0.474-0.361-0.866-0.61L217.976,187.357z"
		/>
	<path fill="#1D4E91" d="M208.457,194.574c1.563-1.876,3.286-2.826,5.168-2.852c1.881-0.025,3.916,0.873,6.104,2.697
		c1.435,1.195,2.472,2.447,3.109,3.751c0.637,1.304,0.852,2.621,0.641,3.949c-0.209,1.327-0.825,2.604-1.846,3.829
		c-1.591,1.907-3.333,2.885-5.223,2.928c-1.892,0.045-3.916-0.832-6.071-2.63c-1.205-1.005-2.122-2.01-2.752-3.015
		c-0.626-1.005-0.999-1.999-1.118-2.985c-0.119-0.985-0.005-1.953,0.343-2.9C207.157,196.396,207.708,195.474,208.457,194.574z
		 M217.451,197.676c-1.926-1.605-3.554-2.569-4.88-2.893c-1.327-0.32-2.385-0.008-3.179,0.943c-0.41,0.491-0.625,1.021-0.647,1.585
		c-0.022,0.565,0.114,1.153,0.411,1.763c0.298,0.609,0.732,1.232,1.306,1.867c0.574,0.635,1.25,1.277,2.028,1.927
		c1.27,1.059,2.417,1.845,3.441,2.359c1.026,0.514,1.926,0.75,2.701,0.711c0.774-0.041,1.425-0.377,1.95-1.01
		c0.771-0.924,0.903-1.979,0.395-3.166C220.471,200.577,219.294,199.215,217.451,197.676z"/>
	<path fill="#1D4E91" d="M201.553,225.13l-0.535-0.623c0.183-0.299,0.301-0.521,0.355-0.666c0.056-0.147,0.078-0.298,0.069-0.456
		c-0.009-0.156-0.077-0.347-0.204-0.57c-0.127-0.225-0.361-0.535-0.701-0.934l-9.045-10.525l2.401-2.062l10.567,3.696
		c1.429,0.504,2.521,0.922,3.281,1.257l0.085-0.073c-1.229-1.301-2.487-2.703-3.782-4.208l-2.614-3.043
		c-0.405-0.474-0.713-0.784-0.922-0.933c-0.211-0.148-0.424-0.226-0.641-0.229c-0.22-0.005-0.535,0.095-0.952,0.3l-0.535-0.624
		l3.573-3.069l0.534,0.624c-0.179,0.265-0.303,0.491-0.374,0.682c-0.07,0.193-0.083,0.382-0.037,0.568
		c0.044,0.186,0.14,0.384,0.29,0.596c0.148,0.211,0.351,0.466,0.604,0.761l7.024,8.176c0.405,0.472,0.706,0.781,0.9,0.926
		c0.195,0.146,0.408,0.22,0.642,0.229c0.23,0.01,0.553-0.085,0.962-0.284l0.536,0.623l-3.827,3.287l-8.338-2.937
		c-0.522-0.187-1.219-0.449-2.088-0.786c-0.869-0.338-1.67-0.672-2.406-1.005l-0.152,0.13c1.364,1.447,2.811,3.062,4.343,4.844
		l1.511,1.757c0.35,0.41,0.621,0.692,0.81,0.848c0.188,0.156,0.357,0.253,0.504,0.291c0.146,0.037,0.303,0.04,0.467,0.009
		c0.165-0.032,0.408-0.12,0.732-0.268l0.534,0.623L201.553,225.13z"/>
</g>
<g>
	<path fill="#1D4E91" d="M104.537,244.136c-0.107,0.471-0.161,0.829-0.162,1.081s0.048,0.468,0.148,0.646
		c0.1,0.181,0.266,0.341,0.497,0.482c0.232,0.142,0.533,0.278,0.905,0.408c0.37,0.131,0.865,0.273,1.486,0.432l-0.25,1.104
		l-10.488-2.365l0.25-1.106c0.909,0.162,1.562,0.253,1.962,0.271c0.4,0.019,0.717-0.019,0.952-0.11
		c0.233-0.092,0.425-0.254,0.576-0.483c0.149-0.231,0.289-0.628,0.417-1.197l1.983-8.785c0.075-0.332,0.065-0.586-0.027-0.76
		s-0.248-0.286-0.467-0.335c-0.202-0.045-0.508-0.017-0.92,0.086c-0.411,0.104-1.103,0.348-2.075,0.731l-0.451-1.455l7.202-2.371
		l1.556,0.351c-0.224,0.766-0.492,1.839-0.802,3.216L104.537,244.136z"/>
	<path fill="#1D4E91" d="M115.051,248.774l0.072-0.893c0.54,0.034,1.015,0.022,1.428-0.037c0.487-0.061,0.954-0.184,1.397-0.369
		c0.445-0.184,0.841-0.427,1.19-0.723c0.429-0.358,0.795-0.776,1.1-1.257c0.305-0.48,0.558-1.012,0.759-1.595
		c0.201-0.584,0.364-1.195,0.49-1.836l-0.12-0.06c-0.673,0.388-1.325,0.656-1.958,0.807c-0.633,0.147-1.38,0.189-2.241,0.119
		c-0.977-0.078-1.791-0.352-2.439-0.825c-0.65-0.472-1.114-1.098-1.394-1.874c-0.279-0.776-0.379-1.665-0.299-2.667
		c0.087-1.101,0.425-2.063,1.012-2.888c0.586-0.823,1.383-1.429,2.388-1.815c1.006-0.385,2.171-0.525,3.496-0.419
		c1.333,0.106,2.435,0.471,3.306,1.094c0.871,0.624,1.49,1.48,1.856,2.567c0.367,1.088,0.492,2.377,0.373,3.866
		c-0.166,2.078-0.661,3.834-1.484,5.269c-0.822,1.435-1.939,2.516-3.353,3.243c-1.412,0.73-3.076,1.088-4.991,1.077L115.051,248.774
		z M118.745,241.347c0.306,0.024,0.593,0.018,0.863-0.019c0.27-0.037,0.527-0.105,0.773-0.207c0.245-0.102,0.477-0.229,0.692-0.383
		c0.216-0.152,0.362-0.279,0.437-0.384c0.074-0.102,0.143-0.255,0.206-0.457c0.062-0.204,0.107-0.483,0.135-0.838
		c0.13-1.623,0.012-2.885-0.354-3.785c-0.365-0.898-0.966-1.382-1.802-1.45c-0.489-0.037-0.908,0.023-1.259,0.187
		c-0.35,0.164-0.646,0.411-0.884,0.742c-0.238,0.331-0.423,0.734-0.553,1.212c-0.13,0.477-0.218,1.005-0.264,1.584
		C116.544,239.958,117.213,241.224,118.745,241.347z"/>
	<path fill="#1D4E91" d="M129.25,237.219l-0.175-2.948c2.043-1.021,3.92-1.584,5.627-1.686c1.021-0.06,1.931,0.026,2.73,0.262
		c0.801,0.234,1.431,0.609,1.889,1.127c0.462,0.518,0.714,1.162,0.759,1.933c0.044,0.704-0.06,1.333-0.31,1.885
		c-0.25,0.551-0.617,1.041-1.104,1.471c-0.486,0.427-1.123,0.858-1.914,1.288l0.007,0.111c0.73,0.08,1.401,0.281,2.014,0.603
		c0.615,0.319,1.115,0.769,1.505,1.345c0.388,0.575,0.607,1.259,0.653,2.045c0.058,0.962-0.126,1.831-0.549,2.61
		s-1.099,1.409-2.026,1.894c-0.928,0.485-2.071,0.768-3.431,0.85c-0.938,0.056-1.861,0.025-2.776-0.09
		c-0.914-0.116-1.717-0.307-2.406-0.572l-0.186-3.121l2.237-0.135c0.298,0.932,0.678,1.597,1.145,1.997
		c0.465,0.4,1.053,0.579,1.767,0.537c1.756-0.106,2.571-1.244,2.44-3.416c-0.07-1.17-0.431-2.022-1.084-2.558
		c-0.651-0.535-1.606-0.765-2.867-0.688l-0.982,0.059l-0.085-1.417c1.44-0.145,2.514-0.549,3.223-1.211s1.028-1.577,0.958-2.747
		c-0.056-0.919-0.284-1.604-0.685-2.05c-0.401-0.444-0.958-0.647-1.671-0.604c-0.406,0.024-0.776,0.136-1.11,0.336
		c-0.332,0.198-0.621,0.527-0.864,0.987s-0.404,1.051-0.486,1.77L129.25,237.219z"/>
	<path fill="#1D4E91" d="M151.199,247.012c0.277-0.141,0.494-0.276,0.65-0.405c0.155-0.131,0.262-0.282,0.317-0.46
		c0.059-0.177,0.072-0.396,0.046-0.651c-0.028-0.257-0.079-0.577-0.158-0.959l-0.373-1.819l-6.541,1.339l-0.271-1.319l5.241-12.108
		l2.747-0.562l2.122,10.374l0.38-0.078c0.398-0.081,0.673-0.165,0.825-0.251c0.152-0.085,0.271-0.214,0.359-0.386
		c0.089-0.17,0.146-0.452,0.178-0.849l1.28-0.263l0.404,2.727l-3.112,0.638l0.373,1.817c0.088,0.433,0.179,0.771,0.272,1.02
		c0.093,0.249,0.203,0.438,0.33,0.569c0.131,0.13,0.287,0.216,0.474,0.259c0.188,0.042,0.419,0.073,0.692,0.093l0.165,0.807
		l-6.235,1.275L151.199,247.012z M147.193,242.032l4.174-0.853l-0.572-2.797c-0.239-1.172-0.451-2.412-0.636-3.722l-0.121,0.023
		l-2.887,7.141L147.193,242.032z"/>
</g>
<g>
	<polygon fill="#1D4E91" points="78.3,223.671 79.599,226.304 82.504,226.725 80.401,228.773 80.897,231.666 78.3,230.3 
		75.703,231.666 76.198,228.773 74.097,226.725 77.001,226.304 	"/>
</g>
<g>
	<polygon fill="#1D4E91" points="179.473,224.772 180.771,227.405 183.678,227.828 181.576,229.877 182.071,232.769 
		179.473,231.403 176.876,232.769 177.372,229.877 175.271,227.828 178.175,227.405 	"/>
</g>
<path fill="#1D4E91" d="M113.198,108.809c0,0,0.441-1.685,1.845-2.809c0.08-1.244,0.923-2.688,2.045-3.65
	c0.041-0.722,0.763-2.728,3.932-4.854c0.04-1.123,2.809-3.69,2.929-3.812c0.121-0.12-0.258-0.8,0.315-1.709
	c0.241-0.38-0.127-1.239-0.646-1.323c-0.917-0.15-4.21,0.712-6.905-1.204c-1.353-0.963-1.609-1.369-3.16-1.083
	c-0.254,0.271-0.541,0.632-0.556,1.083c-0.497-0.437-4.629-5.988,0.767-7.176c1.64-0.36,4.482-0.135,4.678-0.105
	c0.195-0.407,1.099-0.994,3.702-0.708c0-0.406,0.781-1.745,3.009-1.55c2.226,0.196,10.38,1.836,11.794,3.009
	c1.413,1.174,1.538,1.317,1.864,1.399c-0.616,0.15-0.978,0.074-1.113,0c0.256,0.255,1.73,1.624,1.596,4.527
	c-0.136,2.904,0.405,5.492,0.69,6.514c-0.36-0.572-0.601-0.993-0.736-1.189c0.226,1.068,0.752,4.859,0.736,5.928
	c0.527,0.872,1.01,1.61,1.024,2.407s0.314,2.647,0.646,2.993c0.617,0.331,1.819,3.31,1.819,3.31L113.198,108.809L113.198,108.809z"
	/>
<path fill="#1D4E91" d="M155.341,122.408c0,0,2.366-2.788,2.967-3.129c-0.1-0.441,0.235-1.75,0.822-2.097
	c0.172-0.1-0.009-0.4-0.101-0.51c-0.09-0.111-0.914-3.552-0.632-5.636c0.047-0.331-1.102-1.16-1.278-3.084
	c-0.03-0.331-1.773-0.691-2.646-2.271c-0.874-1.579-0.418-5.571,1.985-8.289c0.57-0.647,1.219-2.527,1.293-2.948
	c0.077-0.421,0.46-1.152,0.738-1.474c4.733-5.461,13.82-13.316,23.388-18.419c3.609-1.926,8.586-7.301,15.445-7.622
	c0,0-0.035,0.376-0.109,0.526c0.255-0.09,3.52-0.887,5.955,0.045c-0.54,1.325-2.436,5.176-10.229,8.906
	c0.933,0.391,2.89,0.843,4.242,0.782c-0.873,1.174-4.302,5.356-9.928,8.184c1.985,0.061,5.024,0.211,6.408,0.03
	c-0.542,1.143-6.439,6.86-12.637,8.726c1.804,0.15,7.342,0.411,7.975,0.442c-0.884,0.631-6.3,4.572-7.622,5.053
	c0.942,0.142,8.184,0.241,8.504,0.202c-1.164,1.004-5.096,4.433-7.182,4.995c0.741,0.12,3.21,0.181,5.877,1.324
	c-0.883,0.601-2.768,2.527-5.295,3.169c0.841,0.242,4.212,1.986,5.557,1.926c-0.822,0.822-3.73,2.929-6.159,3.189
	c0.282,0.321,3.19,2.346,4.734,2.688c-0.723,1.103-3.269,2.728-6.999,2.327c0.481,0.441,3.831,3.108,4.152,3.129
	c-1.024,0.3-3.631,1.725-6.418,1.524c0.6,0.481,3.93,3.169,4.512,3.59c-1.203,0.302-4.573,1.303-6.659,1.044
	c0.701,0.961,2.308,3.75,3.61,4.634c-1.485,0.26-5.755-0.281-6.137-0.321c0.581,0.902,2.326,3.812,3.188,4.692
	c-0.74,0.321-5.755-0.521-6.238-0.781c0.343,0.802,1.646,5.375,2.006,5.854c-1.081-0.1-5.094-1.624-5.615-2.324
	c0.12,1.562,0.2,5.233,0.581,5.715c-0.943-0.261-4.895-2.347-5.135-2.486c0,0.782-0.04,4.413,0.119,4.814
	c-0.499-0.101-3.648-1.526-5.033-3.53c-0.04,1.002-0.14,5.034,0.32,5.816c-0.901-0.36-2.065-1.043-2.246-1.305L155.341,122.408z"/>
<path fill="#1D4E91" d="M100.066,122.408c0,0-2.367-2.788-2.969-3.129c0.1-0.441-0.234-1.75-0.822-2.097
	c-0.17-0.1,0.01-0.4,0.1-0.51c0.09-0.111,0.916-3.552,0.631-5.636c-0.045-0.331,1.104-1.16,1.278-3.084
	c0.031-0.331,1.776-0.691,2.649-2.271c0.872-1.579,0.416-5.571-1.987-8.289c-0.571-0.647-1.218-2.527-1.294-2.948
	c-0.075-0.421-0.458-1.152-0.737-1.474c-4.733-5.461-13.82-13.316-23.387-18.419c-3.61-1.926-8.585-7.301-15.445-7.622
	c0,0,0.036,0.376,0.11,0.526c-0.256-0.09-3.52-0.887-5.957,0.045c0.541,1.325,2.438,5.176,10.23,8.906
	c-0.933,0.391-2.889,0.843-4.243,0.782c0.873,1.174,4.303,5.356,9.929,8.184c-1.986,0.061-5.024,0.211-6.409,0.03
	c0.542,1.143,6.439,6.86,12.637,8.726c-1.806,0.15-7.342,0.411-7.974,0.442c0.883,0.631,6.299,4.572,7.623,5.053
	c-0.942,0.142-8.183,0.241-8.504,0.202c1.163,1.004,5.094,4.433,7.181,4.995c-0.743,0.12-3.21,0.181-5.877,1.324
	c0.882,0.601,2.769,2.527,5.296,3.169c-0.843,0.242-4.213,1.986-5.557,1.926c0.822,0.822,3.731,2.929,6.158,3.189
	c-0.281,0.321-3.189,2.346-4.734,2.688c0.722,1.103,3.27,2.728,7.001,2.327c-0.482,0.441-3.832,3.108-4.153,3.129
	c1.023,0.3,3.631,1.725,6.419,1.524c-0.603,0.481-3.931,3.169-4.514,3.59c1.204,0.302,4.573,1.303,6.66,1.044
	c-0.702,0.961-2.306,3.75-3.611,4.634c1.484,0.26,5.757-0.281,6.138-0.321c-0.582,0.902-2.327,3.812-3.189,4.692
	c0.742,0.321,5.757-0.521,6.238-0.781c-0.341,0.802-1.645,5.375-2.006,5.854c1.083-0.1,5.095-1.624,5.616-2.324
	c-0.121,1.562-0.2,5.233-0.582,5.715c0.943-0.261,4.895-2.347,5.135-2.486c0,0.782,0.041,4.413-0.12,4.814
	c0.501-0.101,3.651-1.526,5.035-3.53c0.04,1.002,0.14,5.034-0.321,5.816c0.902-0.36,2.066-1.043,2.246-1.305L100.066,122.408z"/>
<path fill="#1D4E91" d="M186.953,172.534c0-1.324-0.287-1.158-0.423-1.279c-0.134-0.12-0.36-0.466-1.563-2.329
	c-1.203-1.86-4.574-1.567-5.344-0.846c-0.045-1.018-0.686-1.318-1.135-1.726c-0.621-0.562-1.684-0.22-1.946-0.181
	c-0.06-0.4-0.902-0.541-2.105,0.181c-1.204,0.723-0.822,2.248-0.822,2.448s-0.14,0.2-0.543,0.842
	c-0.399,0.643,0.763,1.164,0.723,1.305c-0.039,0.14,0.039,0.591,0.16,0.981c-0.571,0.03-0.702,0.242-0.982,0.423
	c-0.802-0.643-2.086-0.201-2.348,0c-0.822-1.023-1.726-0.342-2.006-0.201c-0.301-0.16-1.484-0.222-2.005-0.241
	c-0.521-0.019-0.402-0.34-1.445-0.355c-0.015-0.557-1.504-1.489-1.504-1.489s0.361-0.039,0.683-0.162
	c-0.24-1.043-2.046-2.245-2.528-2.727c-0.239-0.644-2.205-2.247-2.365-2.447c-0.159-0.2-0.722-0.16,0.16-0.24
	c-1.687-1.765-2.326-1.525-2.567-1.926c-0.241-0.401-1.805-2.207-1.805-2.207s-1.023,5.255-3.853,8.727
	c-2.827,3.47-6.579,4.052-7.42,4.332c0.882,0.902,3.629,2.506,4.331,2.669c0.703,0.159,2.006,0.038,2.487,0.379
	c1.943,1.376,4.614,0.983,4.813,0.97c0.201-0.014,0.462-0.086,0.382-0.287c0.942,0.341,3.911,0.302,4.373,0.261
	c0.461-0.041,0.7-0.461,2.146-0.521c1.444-0.06,1.926-0.982,2.226-0.963c1.781,0.118,1.967-0.541,2.266-0.461
	c1.491,0.398,2.067-0.44,2.389-0.309c1.049,0.436,2.047-0.212,2.267-0.112c0.895,0.407,1.785-0.422,1.926-0.361
	c0.074,0.032,0.283,0.102,0.467,0.161c0.153,0.517,0.504,1.134,0.545,1.378c-0.3,0.135-0.586,0.481-0.39,2.197
	c0.353,3.106,4.062,3.339,5.596,3.369c1.533,0.03,2.106-1.624,2.106-2.075c0.631,0.239,1.82-0.349,2.557-0.618
	c0.735-0.271,1.021-2.091,1.067-2.437c0.044-0.346-0.405-0.618-0.437-0.767c0-0.136,0.978-0.633,1.459-0.978
	C187.025,174.564,186.953,173.857,186.953,172.534z"/>
<path fill="#1D4E91" d="M201.899,136.922c-0.928-0.252-1.861-0.486-2.789-0.741c-0.25-0.07-0.488-0.235-0.559-0.497
	c-0.001-0.007-0.003-0.013-0.005-0.02c-0.064-0.298,0.319-0.526,0.26-0.827c-0.052-0.223-0.378-0.177-0.503-0.335
	c-0.109-0.145-0.061-0.35-0.141-0.509c-0.06-0.114-0.115-0.312-0.278-0.307c-0.176,0.011-0.318,0.203-0.405,0.335
	c-0.093,0.147-0.052,0.331-0.133,0.48c-0.075,0.136-0.172,0.312-0.327,0.366c-0.125,0.041-0.256-0.03-0.3-0.149
	c-0.124-0.335,0.035-0.772-0.198-1.066c-0.135-0.157-0.425,0.126-0.595,0.056c-0.259-0.114-0.347-0.427-0.591-0.562
	c-0.067-0.034-0.149,0.096-0.217,0.102c-0.065,0.004-0.269-0.174-0.288-0.063c-0.038,0.271,0.219,0.473,0.16,0.74
	c-0.049,0.2-0.405,0.239-0.405,0.449c0.012,0.35,0.327,0.55,0.397,0.875c0.029,0.141,0.013,0.315-0.096,0.42
	c-0.1,0.091-0.256,0.114-0.372,0.035c-0.329-0.236-0.496-0.643-0.853-0.848c-0.229-0.132-0.475-0.244-0.728-0.088
	c-0.199,0.133-0.011,0.489-0.194,0.646c-0.317,0.255-0.863-0.008-1.043,0.441c-0.183,0.487,0.334,0.654,0.344,1.096
	c-0.001,0.187-0.279,0.296-0.267,0.484c0.02,0.183,0.154,0.296,0.336,0.292c0.39-0.015,0.74-0.239,1.123-0.294
	c0.062-0.008,0.196-0.037,0.205,0.061c0.007,0.127-0.094,0.269-0.176,0.354c-0.184,0.188-0.447,0.273-0.614,0.479
	c-0.077,0.098,0.011,0.204-0.036,0.308c-0.12,0.25-0.416,0.458-0.463,0.736c-0.023,0.175,0.256,0.077,0.347,0.079
	c0.23,0.011,0.411,0.079,0.637-0.031c0.316-0.159,0.543-0.466,0.809-0.692c0.423-0.36,0.832-0.745,1.284-1.071
	c0.069-0.049,0.268-0.206,0.355-0.132c0.104,0.093,0.004,0.304-0.052,0.396c-0.184,0.305-0.526,0.494-0.68,0.818
	c-0.049,0.107-0.027,0.197,0.03,0.294c0.028,0.046,0.057,0.094,0.065,0.147c0.014,0.076-0.054,0.252,0.036,0.293
	c0.262,0.109,0.695-0.311,0.884-0.443c0.231-0.164,0.532-0.219,0.741-0.422c0.334-0.331,0.448-0.818,0.791-1.146
	c0.395-0.372,0.868-0.734,1.406-0.858c0.927-0.197,2,0.198,2.914,0.516c0.348,0.12,0.388,0.132,0.573,0.451
	c1.543,2.641,2.332,5.333,1.938,8.449c-0.613-0.86-1.259-1.662-1.989-2.424c-0.173-0.184-0.309-0.445-0.195-0.694
	c0.137-0.28,0.606-0.239,0.741-0.525c0.085-0.201-0.242-0.295-0.266-0.472c-0.017-0.164,0.149-0.293,0.165-0.453
	c0.008-0.088,0.046-0.204-0.008-0.285c-0.021-0.033-0.05-0.061-0.085-0.078c-0.18-0.08-0.416,0.038-0.569,0.124
	c-0.113,0.065-0.17,0.181-0.246,0.281c-0.04,0.038-0.085,0.074-0.134,0.102c-0.151,0.085-0.327,0.183-0.508,0.186
	c-0.035,0-0.069-0.003-0.102-0.017c-0.08-0.057-0.122-0.158-0.112-0.256c0.041-0.389,0.417-0.739,0.329-1.145
	c-0.058-0.222-0.485-0.084-0.619-0.235c-0.198-0.234-0.134-0.579-0.309-0.825c-0.05-0.065-0.195,0.022-0.265-0.004
	c-0.066-0.027-0.177-0.29-0.253-0.191c-0.17,0.238-0.018,0.558-0.207,0.788c-0.147,0.169-0.518,0.035-0.622,0.24
	c-0.162,0.341,0.049,0.685-0.043,1.03c-0.043,0.15-0.147,0.309-0.304,0.356c-0.143,0.04-0.312-0.011-0.387-0.145
	c-0.203-0.374-0.166-0.838-0.413-1.192c-0.166-0.235-0.353-0.438-0.666-0.396c-0.257,0.042-0.26,0.457-0.514,0.527
	c-0.435,0.108-0.834-0.346-1.226-0.001c-0.406,0.371-0.017,0.745-0.229,1.152c-0.102,0.18-0.42,0.157-0.507,0.343
	c-0.076,0.176-0.001,0.334,0.175,0.403c0.396,0.149,0.842,0.09,1.247,0.212c0.062,0.02,0.213,0.055,0.173,0.149
	c-0.059,0.126-0.229,0.212-0.353,0.253c-0.278,0.092-0.578,0.053-0.847,0.17c-0.122,0.056-0.096,0.194-0.194,0.27
	c-0.245,0.177-0.637,0.229-0.829,0.474c-0.109,0.146,0.223,0.189,0.304,0.229c0.078,0.039,0.146,0.094,0.218,0.141
	c0.089-0.085,0.209-0.134,0.324-0.175c0.369-0.134,0.75-0.231,1.128-0.335c0.593-0.164,1.188-0.323,1.791-0.438
	c0.059-0.012,0.353-0.092,0.392-0.022c0.038,0.081-0.259,0.179-0.303,0.193c-0.369,0.121-0.762,0.147-1.13,0.272
	c-0.154,0.052-0.114,0.116-0.205,0.207c-0.023,0.022-0.204,0.104-0.158,0.142c0.233,0.179,0.81,0.07,1.079,0.066
	c0.313-0.002,0.623,0.093,0.937,0.06c0.503-0.057,0.944-0.331,1.445-0.399c0.59-0.076,1.243-0.122,1.816,0.076
	c1.021,0.372,1.734,1.482,2.303,2.398c0.218,0.356,0.139,0.506,0.058,0.921c-0.637,3.194-2.244,6.234-4.563,8.522
	c-0.014-0.734-0.098-1.464-0.17-2.193c-0.084-0.939,1.046-1.189,1.745-1.391c-0.301-0.333-0.818-0.94-0.445-1.396
	c0.133-0.169-0.512-0.445-0.517-0.638c0.004-0.236,0.354-0.293,0.53-0.248c0.735,0.193,1.497,0.127,1.927-0.58
	c-0.26-0.177-0.804-0.303-0.882-0.652c-0.025-0.122,0.029-0.224,0.112-0.311c0.243-0.261,0.521-0.46,0.406-0.863
	c-0.59,0.031-1.115-0.016-1.648-0.289c-0.195-0.103-0.32-0.303-0.442-0.476c-0.407,0.162-0.905,0.422-1.313,0.111
	c-0.429-0.341,0.248-0.749-0.045-1.107c-0.18-0.203-0.657-0.044-0.896-0.143c-0.205-0.089-0.248-0.328-0.46-0.403
	c-0.265-0.086-0.573,0.054-0.828-0.065c-0.49-0.238-0.946-0.547-1.501-0.595c-0.154,0.083-0.22,0.198-0.166,0.366
	c0.024,0.09-0.179,0.098-0.221,0.097c-0.268-0.008-0.53-0.079-0.794-0.117c-0.143,0.096,0.072,0.325,0.113,0.428
	c0.028,0.081-0.728-0.001-0.793-0.009c0.313,0.294,0.706,0.504,1.065,0.734c0.245,0.145,0.488,0.296,0.702,0.484
	c0.424,0.379-0.428,0.279-0.618,0.262c0.669,0.778,1.593,1.351,2.097,2.264c0.274,0.509,0.293,1.108,0.569,1.617
	c0.626,1.133,1.574,2.128,1.923,3.399c0.215,0.805,0.339,1.957-0.375,2.545c-0.517,0.423-1.063,0.8-1.629,1.146
	c0.159-0.389,0.3-0.782,0.419-1.19h0.003c0.708,0.087,1.373-0.591,1.429-1.067c0.026-0.207-0.06-0.413-0.226-0.583
	c0.013-0.844-0.321-1.525-0.812-1.586c-0.492-0.06-0.979,0.522-1.167,1.346c-0.201,0.128-0.333,0.304-0.358,0.513
	c-0.053,0.426,0.33,1.123,0.916,1.325c-0.128,0.474-0.299,0.949-0.485,1.414c-2.124,1.257-4.475,2.16-6.445,3.68
	c0.064-0.428,0.169-0.848,0.289-1.264c0.377-1.035,0.851-2.063,1.42-3.01c0.229-0.379,0.605-0.726,1.061-0.779
	c0.424-0.041,0.643,0.528,1.061,0.521c0.325-0.016,0.381-0.456,0.645-0.581c0.222-0.097,0.466,0.033,0.695-0.018
	c0.161-0.036,0.421-0.039,0.464-0.245c0.04-0.225-0.148-0.474-0.282-0.634c-0.143-0.17-0.379-0.191-0.533-0.347
	c-0.142-0.148-0.321-0.333-0.336-0.549c-0.009-0.157,0.102-0.311,0.266-0.323c0.388-0.02,0.831,0.372,1.207,0.216
	c0.185-0.089-0.106-0.534-0.044-0.687c0.023-0.049,0.059-0.089,0.104-0.116c0.186-0.127,0.431-0.182,0.569-0.372
	c0.049-0.075-0.1-0.21-0.101-0.294c0.001-0.09,0.229-0.269,0.096-0.324c-0.295-0.118-0.589,0.107-0.876-0.044
	c-0.232-0.128-0.231-0.55-0.486-0.629c-0.191-0.055-0.364-0.025-0.547,0.043c-0.106,0.007-0.203,0.01-0.305-0.029
	c-0.158-0.062-0.303-0.181-0.392-0.327c-0.049-0.085-0.153-0.288-0.082-0.39c0.025-0.033,0.059-0.061,0.103-0.07
	c0.239-0.13,0.523-0.214,0.684-0.449c0.171-0.254,0.231-0.494,0.064-0.771c-0.157-0.251-0.559-0.193-0.739-0.433
	c-0.3-0.408-0.147-0.932-0.625-1.23c-0.436-0.268-0.714,0.071-1.113-0.097c-0.22-0.1-0.15-0.516-0.372-0.609
	c-0.158-0.066-0.175,0.012-0.124,0.182c0.066,0.228-0.062,0.5,0.072,0.693c0.114,0.162,0.182,0.267,0.28,0.438
	c0.009,0.018,0.033,0.139-0.036,0.087c-0.127-0.102-0.095-0.112-0.18-0.248c-0.181-0.288-0.34-0.587-0.538-0.865
	c-0.063-0.09-0.141-0.165-0.206-0.253c-0.221-0.298-0.289-0.248-0.537-0.523c-0.1-0.11-0.033,0.273-0.041,0.332
	c-0.049,0.311-0.372,0.439-0.352,0.77c0.031,0.477,0.375,0.601,0.546,1.032c0.273,0.688,0.596,1.358,0.812,2.067
	c0.042,0.141,0.133,0.437-0.019,0.543c-0.183,0.123-0.452,0.001-0.606-0.116c-0.371-0.29-0.475-0.863-0.917-1.071
	c-0.331-0.147-0.686,0.166-0.995,0.248c-0.235,0.058-0.521,0.001-0.715,0.18c-0.416,0.4-0.074,0.993,0.117,1.417
	c0.154,0.354-0.014,0.836,0.275,1.133c0.483,0.478,1.29,0.447,1.717,1.005c0.44,0.59,0.759,1.333,0.712,2.081
	c-0.083,1.065-0.718,2.149-1.09,3.134c-0.312,1.022-0.198,1.752-1.043,2.394c-0.585,0.445-1.2,0.942-1.828,1.479
	c0.095-0.422,0.162-1.077,0.103-1.532c-0.015-0.11-0.003-0.101,0.101-0.113c0.752-0.09,1.274-0.945,1.253-1.461
	c-0.012-0.232-0.145-0.441-0.356-0.6c-0.139-0.932-0.629-1.619-1.182-1.596c-0.552,0.025-0.98,0.753-1.037,1.693
	c-0.198,0.175-0.312,0.396-0.302,0.629c0.02,0.451,0.492,1.124,1.12,1.295c0.12,0.031,0.128,0.016,0.158,0.139
	c0.124,0.471,0.064,1.297-0.096,1.752c-13.724,14.086-19.784,26.538-20.905,29.932c-0.137,0.474,1.644,1.719,2.016,2.789
	c0.647-3.562,6.288-16.469,18.141-31.123c0.358-0.444,0.552-0.573,1.14-0.635c0.891-0.093,1.909,0.162,2.31,0.876
	c0.405,0.721-0.245,1.277-0.432,2.085c-0.167,0.721-1.01,1.139-1.238,1.841c-0.135,0.416,0.222,0.853,0.223,1.289
	c0.001,0.659-0.043,1.309,0.477,1.504c0.248,0.094,0.521-0.1,0.78-0.14c0.403-0.065,0.918,0.105,1.213-0.177
	c0.386-0.369,0.253-1.066,0.552-1.509c0.151-0.225,0.455-0.423,0.722-0.376c0.221,0.04,0.322,0.348,0.362,0.566
	c0.15,0.829,0.126,1.678,0.201,2.516c0.048,0.538-0.131,1.161,0.168,1.61c0.322,0.478,0.976,0.617,1.494,0.868
	c0.351,0.168,0.757,0.567,1.1,0.388c0.391-0.207,0.247-0.864,0.496-1.227c0.122-0.18,0.551-0.105,0.568-0.323
	c0.033-0.423-0.418-0.768-0.451-1.189c-0.018-0.208,0.118-0.465,0.312-0.54c0.187-0.074,0.404,0.079,0.57,0.189
	c0.732,0.495,1.312,1.228,2.107,1.613c0.418,0.203,0.97,0.28,1.393,0.086c0.251-0.114-0.062-0.662,0.173-0.806
	c0.764-0.462,2.251,0.007,2.546-0.837c0.254-0.73-1.375-0.868-1.708-1.565c-0.152-0.313,0.716-0.622,0.521-0.91
	c-0.326-0.477-1.029-0.572-1.597-0.664c-0.98-0.161-1.994,0.068-2.975-0.079c-0.258-0.038-0.601-0.205-0.631-0.464
	c-0.029-0.241,0.286-0.432,0.513-0.517c0.659-0.246,1.48-0.049,2.062-0.443c0.25-0.169-0.262-0.669-0.073-0.904
	c0.3-0.372,0.986-0.253,1.296-0.618c0.135-0.155-0.404-0.111-0.571-0.23c-0.109-0.078-0.092-0.312-0.226-0.339
	c-0.57-0.114-1.188,0.111-1.746-0.057c-0.356-0.107-0.478-0.733-0.85-0.724c-0.689,0.016-1.241,0.641-1.915,0.786
	c-0.235,0.053-0.562-0.017-0.69-0.221c-0.129-0.205-0.007-0.503,0.101-0.722c0.117-0.24,0.457-0.343,0.545-0.597
	c0.086-0.248,0.13-0.606-0.062-0.787c-0.205-0.189-0.56-0.085-0.838-0.051c-0.33,0.041-0.63,0.285-0.966,0.275
	c-0.408-0.013-0.783-0.456-1.175-0.342c-0.457,0.136-0.798,1.03-1.261,1.144c-0.533,0.13-0.984-0.017-1.442-0.317
	c-0.683-0.401-1.396-0.486-1.891-0.5c1.177-1.081,2.354-1.976,3.404-2.595c0.692-0.058,1.404-0.091,2.089-0.056
	c0.014,0.701,0.628,1.354,1.103,1.447c0.232,0.048,0.471-0.035,0.676-0.206c0.951,0.087,1.744-0.231,1.853-0.78
	c0.109-0.55-0.503-1.147-1.415-1.428c-0.126-0.236-0.315-0.401-0.547-0.448c-0.532-0.104-1.491,0.372-1.646,1.162v0.003
	c-0.605-0.019-1.197,0.007-1.79,0.061c0.863-0.643,1.806-1.235,2.817-1.791c0.657-0.361,0.656-0.265,1.351-0.009
	c1.398,0.516,2.962,0.859,4.17,1.662c0.62,0.427,1.025,1.119,1.214,1.837c0.165,0.672-0.352,1.29-0.271,1.963
	c0.057,0.405,0.502,0.594,0.675,0.941c0.195,0.407,0.422,1.073,0.989,0.996c0.278-0.042,0.447-0.33,0.658-0.485
	c0.359-0.259,0.911-0.388,1.104-0.826c0.211-0.512-0.221-0.984-0.146-1.502c0.05-0.307,0.248-0.62,0.518-0.776
	c0.007-0.003,0.013-0.007,0.019-0.01c0.212-0.101,0.441,0.029,0.603,0.166c0.566,0.492,0.985,1.116,1.49,1.667
	c0.319,0.348,0.464,0.947,0.999,1.029c0.692,0.091,1.389-0.406,1.99-0.678c0.437-0.197,1.052-0.288,1.29-0.76
	c0.228-0.479-0.279-0.808-0.286-1.268c0.003-0.2,0.431-0.555,0.293-0.735c-0.271-0.323-0.808-0.084-1.127-0.335
	c-0.17-0.145-0.169-0.432-0.08-0.618c0.108-0.219,0.367-0.308,0.577-0.394c0.896-0.363,1.911-0.035,2.721-0.592
	c0.471-0.323,1.029-0.354,1.175-0.917c0.084-0.324-0.448-0.231-0.407-0.551c0.133-0.804,1.537-1.525,0.943-2.306
	c-0.398-0.528-1.683,0.314-2.219,0.312c-0.36-0.004-0.197-1.319-0.57-1.256c-0.597,0.099-1.056,0.567-1.42,0.996
	c-0.684,0.811-1.188,1.3-1.963,2.033c-0.167,0.157-0.511,0.394-0.744,0.24c-0.206-0.146-0.065-0.533,0.009-0.715
	c0.275-0.656,0.913-1.186,0.978-1.924c0.019-0.316-0.618-0.122-0.69-0.41c-0.101-0.471,0.36-0.88,0.239-1.351
	c-0.037-0.13-0.39,0.311-0.466,0.346c-0.114,0.044-0.268-0.087-0.363,0.008c-0.386,0.392-0.554,0.961-1.004,1.292
	c-0.286,0.203-0.754-0.079-0.99,0.205c-0.408,0.52-0.34,1.246-0.693,1.793c-0.124,0.185-0.372,0.371-0.606,0.317
	c-0.226-0.056-0.311-0.334-0.369-0.528c-0.067-0.239,0.092-0.494-0.017-0.725c-0.098-0.202-0.282-0.456-0.531-0.453
	c-0.259,0.009-0.406,0.292-0.551,0.467c-0.187,0.226-0.231,0.548-0.467,0.738c-0.283,0.221-0.759,0.1-0.984,0.401
	c-0.099,0.139-0.106,0.312-0.102,0.474c0.01,0.249,0.066,0.559-0.117,0.762c-0.33,0.356-0.849,0.49-1.321,0.438
	c-1.539-0.186-3.138-0.774-4.512-1.483c1.267-0.656,2.269-1.25,3.151-1.911c0.831-0.389,1.732-0.788,2.625-1.05
	c0.238,0.642,1.013,1.047,1.479,0.982c0.23-0.033,0.423-0.183,0.558-0.406c0.904-0.225,1.533-0.771,1.457-1.312
	c-0.075-0.542-0.832-0.895-1.762-0.861c-0.19-0.178-0.418-0.27-0.646-0.237c-0.522,0.073-1.254,0.819-1.146,1.597v0.004
	c-0.657,0.204-1.279,0.462-1.897,0.753c1.023-0.868,1.922-1.888,2.963-3.301c0.671-0.912,3.977-1.688,5.082-2.114
	c0.687-0.06,1.377,0.195,1.932,0.589c0.521,0.38,0.505,1.13,0.946,1.572c0.276,0.264,0.71,0.11,1.034,0.254
	c0.396,0.182,0.935,0.497,1.298,0.089c0.17-0.204,0.121-0.499,0.182-0.739c0.089-0.355,0.401-0.756,0.271-1.136
	c-0.118-0.316-0.448-0.449-0.712-0.621c-0.108-0.078-0.209-0.17-0.278-0.284c-0.135-0.227-0.185-0.545-0.076-0.791
	c0.094-0.199,0.344-0.232,0.54-0.224c0.688,0.036,1.346,0.244,2.022,0.351c0.431,0.069,0.873,0.4,1.308,0.168
	c0.548-0.308,0.785-1.027,1.073-1.544c0.214-0.373,0.618-0.773,0.531-1.241c-0.096-0.467-0.649-0.412-0.905-0.734
	c-0.108-0.146,0.012-0.638-0.188-0.69c-0.38-0.079-0.641,0.395-1.014,0.391c-0.204-0.006-0.362-0.212-0.397-0.398
	c-0.039-0.219,0.104-0.428,0.212-0.606c0.47-0.782,1.096-1.468,1.375-2.354c0.163-0.528,0.187-1.147-0.024-1.668
	c-0.126-0.292-0.521,0.111-0.671-0.154c-0.366-0.696-0.269-2.615-1.189-2.865c-0.564-0.12-0.504,1.808-0.867,2.137
	c-0.258,0.208-0.598-0.708-0.824-0.439c-0.355,0.453-0.293,1.154-0.314,1.695c-0.036,0.989,0.159,1.983-0.014,2.967
	c-0.037,0.206-0.161,0.571-0.419,0.588c-0.231,0.009-0.339-0.354-0.381-0.526c-0.158-0.637,0.024-1.377-0.337-1.957
	c-0.161-0.243-0.52,0.259-0.731,0.089c-0.335-0.286-0.227-0.846-0.581-1.122c-0.099-0.071-0.106,0.449-0.143,0.516
	c-0.058,0.097-0.242,0.089-0.261,0.212c-0.061,0.495,0.129,1.003-0.021,1.491c-0.101,0.304-0.599,0.351-0.618,0.688
	c-0.021,0.599,0.425,1.092,0.459,1.683c0.009,0.205-0.075,0.472-0.275,0.559c-0.197,0.083-0.412-0.077-0.561-0.188
	c-0.181-0.137-0.201-0.412-0.405-0.523c-0.182-0.095-0.455-0.182-0.641-0.046c-0.187,0.143-0.143,0.433-0.155,0.639
	c-0.015,0.268,0.129,0.53,0.061,0.798c-0.091,0.318-0.506,0.49-0.505,0.838c0.012,0.413,0.552,0.613,0.521,1.041
	c-0.001,0.017-0.004,0.033-0.005,0.049c-0.049,0.409-0.335,0.759-0.672,0.976c-0.927,0.586-2.006,1.055-3.096,1.324
	c-0.276,0.068-0.776,0.308-1.053,0.35c0.732-1.317,1.373-2.794,1.806-4.314c0.456-0.685,0.957-1.399,1.516-2.012
	c0.504,0.4,1.324,0.344,1.669,0.063c0.168-0.139,0.248-0.353,0.248-0.599c0.615-0.623,0.852-1.37,0.526-1.768
	c-0.326-0.397-1.107-0.31-1.838,0.171c-0.24-0.048-0.466-0.011-0.635,0.128c-0.384,0.314-0.605,1.271-0.137,1.842l0.002,0.002
	c-0.448,0.51-0.836,1.046-1.202,1.61c0.249-1.006,0.4-2.021,0.424-3.018c0.011-0.469,0.038-0.526,0.304-0.903
	c0.699-0.995,1.098-2.198,1.872-3.119c0.408-0.469,1.01-0.762,1.612-0.883c0.582-0.108,1.058,0.395,1.629,0.381
	c0.354-0.014,0.516-0.421,0.812-0.557c0.396-0.179,0.902-0.371,0.843-0.895c-0.035-0.261-0.267-0.428-0.4-0.637
	c-0.014-0.022-0.026-0.045-0.039-0.067c-0.153-0.252-0.24-0.657-0.544-0.772c-0.402-0.141-0.778,0.211-1.181,0.174
	c-0.208-0.021-0.442-0.144-0.522-0.346c-0.065-0.173,0.094-0.354,0.21-0.464c0.457-0.429,0.993-0.759,1.477-1.156
	c0.308-0.252,0.774-0.381,0.911-0.794c0.152-0.484-0.094-1.008-0.205-1.475c-0.068-0.304-0.032-0.789-0.345-0.968
	c-0.332-0.18-0.635,0.229-0.962,0.237c-0.153-0.001-0.337-0.325-0.482-0.227c-0.275,0.204-0.207,0.63-0.443,0.864
	c-0.118,0.115-0.325,0.139-0.466,0.055c-0.145-0.092-0.159-0.299-0.181-0.452c-0.099-0.707-0.021-1.438-0.268-2.12
	c-0.135-0.364-0.397-0.727-0.767-0.88c-0.231-0.086-0.272,0.397-0.509,0.338c-0.542-0.15-0.889-0.669-1.395-0.896
	c-0.171-0.075-0.357-0.101-0.525-0.003c-0.206,0.121-0.15,0.368-0.083,0.558c0.127,0.361,0.434,0.798,0.321,1.196
	c-0.091,0.281-0.692-0.062-0.741,0.238c-0.057,0.441,0.272,0.825,0.513,1.161c0.432,0.592,1.052,1.021,1.439,1.65
	c0.096,0.157,0.178,0.425,0.032,0.577c-0.14,0.139-0.393,0.031-0.533-0.048c-0.437-0.248-0.706-0.774-1.224-0.883
	c-0.239-0.042-0.226,0.458-0.458,0.485c-0.354,0.034-0.593-0.35-0.946-0.311c-0.115,0.017,0.136,0.316,0.146,0.387
	c0.008,0.091-0.13,0.188-0.079,0.274c0.203,0.33,0.593,0.509,0.747,0.875c0.095,0.239-0.229,0.549-0.056,0.759
	c0.326,0.363,0.887,0.351,1.253,0.659c0.127,0.109,0.215,0.312,0.136,0.472c-0.085,0.169-0.313,0.21-0.48,0.241
	c-0.194,0.032-0.382-0.103-0.575-0.045c-0.172,0.056-0.412,0.165-0.458,0.358c-0.04,0.19,0.162,0.329,0.273,0.451
	c0.153,0.159,0.399,0.212,0.519,0.405c0.135,0.231-0.033,0.578,0.182,0.768c0.275,0.23,0.728-0.021,0.984,0.241
	c0.075,0.079,0.136,0.171,0.181,0.27c0.11,0.238,0.125,0.515,0.066,0.77c-0.26,1.11-0.905,2.232-1.637,3.105
	c-0.167-3.242-1.132-5.493-3.167-7.961c-0.131-0.159-0.698-0.848-0.724-1.034c-0.037-0.258-0.241-0.258-0.204-0.971
	c0,0-0.023-1.112,0.269-1.624c0.217-0.379,0.212-0.752,0.528-1.03c0.311-0.271,0.777-0.249,1.119-0.474
	c0.171-0.116,0.185-0.337,0.328-0.472c0.094-0.089,0.496-0.355,0.336-0.517c-0.089-0.082-0.257-0.062-0.366-0.094
	c-0.188-0.057-0.341-0.198-0.548-0.192c-0.296,0.016-0.511,0.238-0.791,0.304c-0.133,0.03-0.323,0.036-0.432-0.062
	c-0.081-0.08,0.013-0.208,0.072-0.271c0.098-0.108,0.208-0.202,0.325-0.288c0.192-0.155,0.403-0.283,0.616-0.408
	c0.18-0.104,0.499-0.126,0.628-0.301c0.103-0.149-0.052-0.359-0.084-0.509c-0.004-0.023-0.005-0.047-0.006-0.071
	c-0.002-0.125-0.006-0.227-0.115-0.309c-0.204-0.144-0.463-0.065-0.687-0.132c-0.107-0.034-0.17-0.212-0.286-0.203
	c-0.101,0.012-0.174,0.075-0.239,0.146c-0.062,0.073-0.127,0.148-0.219,0.188c-0.102,0.044-0.248,0.032-0.337-0.038
	c-0.085-0.069-0.063-0.194-0.05-0.29c0.006-0.027,0.011-0.055,0.017-0.083c0.087-0.388,0.322-0.723,0.428-1.105
	c0.062-0.24,0.065-0.521-0.051-0.746c-0.087-0.159-0.352,0.082-0.454-0.055c-0.293-0.419,0.033-1.042-0.297-1.423
	c-0.034-0.031-0.077-0.051-0.122-0.063c-0.502-0.115-0.722,1.041-1.009,1.297c-0.197,0.163-0.397-0.345-0.573-0.143
	c-0.275,0.333-0.263,0.793-0.222,1.199c0.008,0.062,0.017,0.126,0.03,0.188c0.1,0.546,0.4,1.018,0.606,1.526
	c0.055,0.136,0.099,0.352-0.017,0.47c-0.108,0.11-0.295,0.016-0.396-0.058c-0.341-0.252-0.436-0.746-0.808-0.958
	c-0.175-0.091-0.246,0.427-0.423,0.423c-0.312-0.023-0.352-0.491-0.65-0.537c-0.091-0.01,0.04,0.422,0.037,0.481
	c-0.008,0.105-0.122,0.197-0.094,0.304c0.115,0.385,0.431,0.662,0.568,1.034c0.025,0.068,0.026,0.146,0.021,0.22
	c-0.013,0.157-0.098,0.392,0.026,0.525c0.285,0.295,0.739,0.242,1.081,0.431c0.115,0.066,0.23,0.204,0.218,0.346
	c-0.016,0.144-0.168,0.229-0.284,0.289c-0.135,0.071-0.309-0.006-0.437,0.086c-0.124,0.089-0.254,0.241-0.221,0.402
	c0.04,0.175,0.235,0.242,0.374,0.315c0.168,0.089,0.376,0.065,0.536,0.174c0.185,0.128,0.229,0.443,0.466,0.499
	c0.278,0.056,0.484-0.273,0.761-0.208c0.286,0.065,0.416,0.286,0.572,0.53c0.011,0.294-0.17,2.059,0.191,2.619
	C200.996,135.627,201.899,136.922,201.899,136.922z"/>
<path fill="#1D4E91" d="M68.439,172.534c0-1.324,0.286-1.158,0.421-1.279c0.135-0.12,0.362-0.466,1.564-2.329
	c1.204-1.86,4.575-1.567,5.344-0.846c0.045-1.018,0.686-1.318,1.135-1.726c0.622-0.562,1.685-0.22,1.945-0.181
	c0.061-0.4,0.903-0.541,2.106,0.181c1.204,0.723,0.823,2.248,0.823,2.448s0.141,0.2,0.541,0.842
	c0.402,0.643-0.762,1.164-0.722,1.305c0.04,0.14-0.04,0.591-0.161,0.981c0.571,0.03,0.703,0.242,0.983,0.423
	c0.802-0.643,2.085-0.201,2.346,0c0.823-1.023,1.725-0.342,2.005-0.201c0.301-0.16,1.485-0.222,2.006-0.241
	c0.522-0.019,0.401-0.34,1.444-0.355c0.015-0.557,1.504-1.489,1.504-1.489s-0.361-0.039-0.682-0.162
	c0.241-1.043,2.046-2.245,2.527-2.727c0.241-0.644,2.207-2.247,2.367-2.447c0.161-0.2,0.723-0.16-0.16-0.24
	c1.686-1.765,2.327-1.525,2.567-1.926c0.241-0.401,1.805-2.207,1.805-2.207s1.023,5.255,3.852,8.727
	c2.829,3.47,6.579,4.052,7.422,4.332c-0.883,0.902-3.631,2.506-4.333,2.669c-0.702,0.159-2.006,0.038-2.487,0.379
	c-1.942,1.376-4.613,0.983-4.814,0.97s-0.461-0.086-0.381-0.287c-0.942,0.341-3.911,0.302-4.372,0.261
	c-0.461-0.041-0.702-0.461-2.146-0.521c-1.444-0.06-1.925-0.982-2.227-0.963c-1.781,0.118-1.966-0.541-2.266-0.461
	c-1.491,0.398-2.066-0.44-2.387-0.309c-1.049,0.436-2.045-0.212-2.266-0.112c-0.896,0.407-1.786-0.422-1.925-0.361
	c-0.073,0.032-0.283,0.102-0.467,0.161c-0.153,0.517-0.505,1.134-0.546,1.378c0.301,0.135,0.586,0.481,0.391,2.197
	c-0.354,3.106-4.062,3.339-5.596,3.369c-1.534,0.03-2.106-1.624-2.106-2.075c-0.631,0.239-1.82-0.349-2.557-0.618
	c-0.737-0.271-1.023-2.091-1.069-2.437c-0.045-0.346,0.407-0.618,0.437-0.767c0-0.136-0.979-0.633-1.459-0.978
	C68.366,174.564,68.439,173.857,68.439,172.534z"/>
<path fill="#1D4E91" d="M127.687,221.425c1.054-0.963,2.998-3.671,3.269-5.596c1.053,2.257,3.25,3.399,5.086,3.399
	c0.963-1.414,1.021-5.926,1.173-7.942c0.721,2.437,3.609,3.43,5.235,3.82c0.12-0.481,0.451-8.214,0.029-10.141
	c0.663,1.866,3.039,3.612,5.355,3.854c0.331-5.868-2.287-9.629-2.378-11.123c1.085,1.614,4.735,2.056,6.5,2.217
	c-3.933-15.043-13.389-21.543-14.051-21.903c0.572-0.782,0.488-3.309,0.488-3.309s-8.099,0.66-10.707,7.085
	c-2.607-6.425-10.705-7.085-10.705-7.085s-0.085,2.526,0.485,3.309c-0.662,0.36-10.119,6.86-14.051,21.903
	c1.766-0.161,5.416-0.602,6.499-2.217c-0.09,1.494-2.708,5.255-2.376,11.123c2.316-0.241,4.694-1.987,5.355-3.854
	c-0.421,1.927-0.09,9.659,0.031,10.141c1.624-0.391,4.513-1.384,5.234-3.82c0.15,2.017,0.211,6.529,1.173,7.942
	c1.835,0,4.032-1.143,5.085-3.399C124.689,217.754,126.635,220.462,127.687,221.425z"/>
<path fill="#1D4E91" d="M49.907,139.631c-0.376-0.635-0.668-1.255-0.932-1.943c-0.122-4.122-0.613-8.68-1.971-12.586
	c-1.635,4.076-1.264,9.323,1.658,12.75c0.322,0.89,0.745,1.703,1.235,2.514c0.006,0.701,0.049,1.398,0.125,2.093
	c-0.183-0.269-0.394-0.518-0.63-0.744c0.185-0.457-0.029-1.103-0.555-1.559c-0.618-0.539-1.435-0.613-1.823-0.168
	s-0.201,1.244,0.418,1.782c0.619,0.539,1.436,0.613,1.824,0.167c0.002-0.002,0.004-0.005,0.006-0.007
	c0.324,0.36,0.602,0.772,0.848,1.227c0.247,1.727,0.695,3.419,1.289,5.064c-3.696-3.47-5.504-9.662-8.275-14.002
	c-0.526,4.934,1.618,10.046,6.167,12.424c0.783,0.878,1.612,1.715,2.469,2.522c0.368,0.924,0.789,1.865,1.253,2.796
	c-0.245-0.184-0.504-0.349-0.781-0.487c0.075-0.571-0.379-1.226-1.124-1.557c-0.856-0.382-1.773-0.189-2.047,0.429
	c-0.273,0.614,0.199,1.426,1.054,1.805c0.853,0.38,1.765,0.192,2.043-0.418c0.436,0.258,0.844,0.584,1.23,0.957
	c0.874,1.657,1.881,3.261,2.97,4.669c-5.366-2.284-9.088-8.273-13.979-11.774c1.474,5.232,5.686,10.002,11.235,10.888
	c1.082,0.621,2.2,1.176,3.355,1.647c0.519,0.621,1.065,1.218,1.64,1.783c-0.3-0.07-0.606-0.116-0.917-0.138
	c-0.167-0.599-0.896-1.059-1.776-1.072c-1.012-0.017-1.843,0.562-1.854,1.291c-0.012,0.729,0.799,1.334,1.812,1.351
	c1.008,0.016,1.835-0.557,1.855-1.281c0.469,0.064,0.937,0.185,1.405,0.352c0.92,0.853,1.91,1.631,2.968,2.312
	c0.951,0.609,1.954,1.139,2.997,1.573c-5.966,0.699-12.972-3.88-18.53-5.961c3.064,4.297,8.585,7.554,13.998,6.797
	c0.423-0.071,0.841-0.168,1.251-0.294c1.334,0.087,2.676,0.05,4.001-0.125c0.229-0.032,0.308-0.021,0.528,0.053
	c12.712,4.264,19.197,23.804,20.755,31.887c0.515-0.694,1.438-1.733,2.096-2.735c-2.277-4.452-3.479-15.5-16.077-26.172
	c-2.386-2.021-6.035-3.038-9.157-4.789c-1.21-0.933-2.006-2.334-2.638-4.346c0.724-4.822-0.568-8.015-0.466-12.245
	c-2.283,3.769-2.813,8.724,0.077,12.385c0.293,1.019,0.67,2.012,1.133,2.965c-1.136-0.772-2.183-1.655-3.146-2.625
	c-0.354-0.652-0.623-1.313-0.766-1.988c0.607-0.141,1.017-0.907,0.928-1.78c-0.094-0.926-0.71-1.619-1.376-1.554
	c-0.667,0.068-1.13,0.873-1.038,1.797c0.086,0.848,0.61,1.501,1.21,1.556c0.061,0.417,0.166,0.819,0.315,1.206
	c-1-1.097-1.902-2.287-2.713-3.534c-0.09-1.196-0.104-2.398-0.05-3.6c2.023-3.915,2.251-9.506,3.214-10.71
	c-4.288,1.895-4.894,6.692-3.605,10.695c-0.064,0.935-0.087,1.872-0.066,2.808c-0.658-1.09-1.275-2.24-1.828-3.428
	c-0.169-0.771-0.243-1.523-0.162-2.238c0.541,0.051,1.089-0.47,1.256-1.217c0.177-0.789-0.142-1.534-0.711-1.661
	c-0.57-0.128-1.175,0.412-1.351,1.2c-0.162,0.725,0.092,1.409,0.572,1.616c-0.075,0.428-0.094,0.855-0.057,1.279
	c-0.539-1.264-0.997-2.558-1.349-3.853c0.235-1.008,0.559-1.996,0.984-2.941c2.521-2.429,4.891-4.605,6.546-7.759
	c-3.452,0.651-6.72,4.024-6.883,7.639c-0.342,0.714-0.629,1.451-0.862,2.206c-0.208-0.896-0.36-1.82-0.452-2.75
	c0.084-0.634,0.234-1.225,0.488-1.756c0.431,0.196,1.032-0.077,1.381-0.645c0.371-0.603,0.32-1.306-0.113-1.573
	c-0.433-0.269-1.085,0.004-1.456,0.604c-0.339,0.552-0.326,1.189,0.012,1.498c-0.167,0.298-0.293,0.605-0.383,0.929
	c-0.042-0.795-0.039-1.588,0.016-2.372c0.025-0.347,0.075-0.787,0.417-1.501c0.542-0.804,0.818-1.103,1.471-1.823
	c1.53-0.755,3.009-1.619,4.431-2.558c1.218-0.807,2.399-1.687,3.406-2.751c0.139-0.148,0.274-0.299,0.405-0.452
	c-0.353,0-0.705,0.021-1.054,0.061c-1.479,0.176-2.9,0.694-4.144,1.511c-1.457,0.968-2.635,2.337-3.294,3.962
	c-0.509,0.535-0.918,1.163-1.367,1.751C50.554,137.457,49.902,139.28,49.907,139.631z"/>
<path fill="#FFFFFF" d="M99.709,108.367h55.941v44.129c0,18.891-8.749,20.956-16.467,22.777c-4.352,1.028-8.111,1.916-10.254,5.624
	l-1.25,2.166l-1.251-2.166c-2.141-3.708-5.899-4.596-10.253-5.624c-7.718-1.821-16.465-3.887-16.465-22.777V108.367L99.709,108.367z
	"/>
<g id="Shield">
	<g>
		<defs>
			<path id="SVGID_1_" d="M154.207,109.812c0,0,0-0.962,0,42.685c0,28.239-19.925,16.245-26.527,27.681
				c-6.602-11.435-26.527,0.56-26.527-27.681c0-43.648,0-42.685,0-42.685H154.207z"/>
		</defs>
		<clipPath id="SVGID_2_">
			<use xlink:href="#SVGID_1_"  overflow="visible"/>
		</clipPath>
		
			<rect id="Background_of_Stripes" x="100.499" y="144.773" clip-path="url(#SVGID_2_)" fill="#FFFFFF" width="54.363" height="35.943"/>
	</g>
	<g>
		<defs>
			<path id="SVGID_3_" d="M154.207,109.812c0,0,0-0.962,0,42.685c0,28.239-19.925,16.245-26.527,27.681
				c-6.602-11.435-26.527,0.56-26.527-27.681c0-43.648,0-42.685,0-42.685H154.207z"/>
		</defs>
		<clipPath id="SVGID_4_">
			<use xlink:href="#SVGID_3_"  overflow="visible"/>
		</clipPath>
		
			<rect id="Background_for_NCUA" x="100.499" y="109.812" clip-path="url(#SVGID_4_)" fill="#1D4E91" width="54.363" height="34.179"/>
	</g>
	<g>
		<defs>
			<path id="SVGID_5_" d="M154.207,109.812c0,0,0-0.962,0,42.685c0,28.239-19.925,16.245-26.527,27.681
				c-6.602-11.435-26.527,0.56-26.527-27.681c0-43.648,0-42.685,0-42.685H154.207z"/>
		</defs>
		<clipPath id="SVGID_6_">
			<use xlink:href="#SVGID_5_"  overflow="visible"/>
		</clipPath>
		<g id="Stripes" clip-path="url(#SVGID_6_)">
			<rect x="116.88" y="145.354" fill="#1D4E91" width="5.216" height="34.822"/>
			<rect x="108.688" y="145.354" fill="#1D4E91" width="5.216" height="34.822"/>
			<rect x="125.072" y="145.354" fill="#1D4E91" width="5.215" height="34.822"/>
			<rect x="100.499" y="145.354" fill="#1D4E91" width="5.215" height="34.822"/>
			<rect x="149.646" y="145.354" fill="#1D4E91" width="5.216" height="34.822"/>
			<rect x="141.454" y="145.354" fill="#1D4E91" width="5.216" height="34.822"/>
			<rect x="133.265" y="145.354" fill="#1D4E91" width="5.214" height="34.822"/>
		</g>
	</g>
</g>
<g>
	<path id="N" fill="#FFFFFF" d="M101.698,142.164v-31.291h2.601l5.416,20.896v-20.896h2.483v31.291h-2.681l-5.336-20.404v20.404
		H101.698z"/>
	<path id="C" fill="#FFFFFF" d="M123.491,130.659l2.59,1.941c-0.396,3.416-1.058,5.953-1.98,7.611
		c-0.924,1.655-2.096,2.485-3.516,2.485c-1.757,0-3.202-1.42-4.334-4.258c-1.131-2.839-1.697-6.722-1.697-11.644
		c0-5.208,0.569-9.252,1.707-12.134c1.138-2.881,2.634-4.322,4.487-4.322c1.619,0,2.934,1.131,3.945,3.393
		c0.602,1.338,1.053,3.259,1.354,5.763l-2.645,1.494c-0.156-1.622-0.482-2.903-0.979-3.842c-0.497-0.938-1.1-1.409-1.81-1.409
		c-0.981,0-1.777,0.833-2.388,2.497c-0.612,1.665-0.917,4.361-0.917,8.09c0,3.955,0.301,6.773,0.903,8.452
		c0.602,1.68,1.385,2.519,2.348,2.519c0.71,0,1.321-0.532,1.832-1.6C122.901,134.63,123.269,132.95,123.491,130.659z"/>
	<path id="U" fill="#FFFFFF" d="M128.358,110.873h2.671v16.948c0,2.688,0.033,4.432,0.1,5.229c0.113,1.281,0.386,2.31,0.815,3.084
		c0.431,0.775,1.021,1.164,1.767,1.164c0.758,0,1.329-0.366,1.714-1.1c0.386-0.732,0.618-1.633,0.696-2.699
		c0.078-1.069,0.117-2.84,0.117-5.316v-17.31h2.672v16.435c0,3.757-0.072,6.41-0.217,7.961c-0.145,1.552-0.409,2.861-0.799,3.928
		c-0.388,1.068-0.906,1.917-1.558,2.55c-0.65,0.635-1.498,0.951-2.545,0.951c-1.266,0-2.224-0.346-2.876-1.035
		c-0.653-0.689-1.169-1.587-1.547-2.69c-0.379-1.102-0.629-2.258-0.75-3.467c-0.175-1.794-0.261-4.44-0.261-7.941V110.873
		L128.358,110.873z"/>
	<path id="A" fill="#FFFFFF" d="M153.662,142.164h-2.907l-1.156-7.108h-5.289l-1.093,7.108h-2.836l5.153-31.291h2.828
		L153.662,142.164z M148.74,129.784l-1.823-11.611l-1.787,11.611H148.74z"/>
</g>
<polygon fill="#1D4E91" points="127.68,31.823 130.082,39.215 137.854,39.215 131.565,43.785 133.968,51.177 127.68,46.608 
	121.392,51.177 123.793,43.785 117.505,39.215 125.277,39.215 "/>
<polygon fill="#1D4E91" points="96.773,50.073 99.175,57.466 106.948,57.466 100.66,62.034 103.061,69.426 96.773,64.858 
	90.485,69.426 92.887,62.034 86.599,57.466 94.371,57.466 "/>
<polygon fill="#1D4E91" points="158.587,50.073 156.185,57.466 148.411,57.466 154.701,62.034 152.298,69.426 158.587,64.858 
	164.875,69.426 162.472,62.034 168.761,57.466 160.987,57.466 "/>
<path fill="#1D4E91" d="M128.161,228.752c-55.497,0-100.647-45.15-100.647-100.647c0-55.497,45.151-100.647,100.647-100.647
	c55.497,0,100.647,45.151,100.647,100.647C228.809,183.602,183.658,228.752,128.161,228.752z M128.161,28.621
	c-54.855,0-99.484,44.628-99.484,99.484c0,54.856,44.628,99.486,99.484,99.486c54.856,0,99.486-44.63,99.486-99.486
	C227.647,73.249,183.018,28.621,128.161,28.621z"/>
<path fill="#1D4E91" d="M128.161,254.299c-33.708,0-65.397-13.127-89.232-36.962S1.967,161.812,1.967,128.104
	c0-33.708,13.126-65.397,36.961-89.232S94.454,1.911,128.161,1.911c33.708,0,65.397,13.126,89.232,36.961
	s36.962,55.525,36.962,89.232c0,33.708-13.127,65.397-36.962,89.232S161.869,254.299,128.161,254.299z M128.161,3.074
	C59.219,3.074,3.13,59.163,3.13,128.104c0,68.942,56.089,125.031,125.031,125.031c68.943,0,125.031-56.089,125.031-125.031
	C253.192,59.163,197.104,3.074,128.161,3.074z"/>
<rect x="100.974" y="143.502" fill="#FFFFFF" width="53.815" height="1.491"/>
</svg>
