<?xml version="1.0" encoding="UTF-8" standalone="no"?>
<svg
   xmlns:dc="http://purl.org/dc/elements/1.1/"
   xmlns:cc="http://creativecommons.org/ns#"
   xmlns:rdf="http://www.w3.org/1999/02/22-rdf-syntax-ns#"
   xmlns:svg="http://www.w3.org/2000/svg"
   xmlns="http://www.w3.org/2000/svg"
   xmlns:sodipodi="http://sodipodi.sourceforge.net/DTD/sodipodi-0.dtd"
   xmlns:inkscape="http://www.inkscape.org/namespaces/inkscape"
   version="1.1"
   id="svg22"
   sodipodi:docname="hexbug2.svg"
   inkscape:version="0.92.4 (5da689c313, 2019-01-14)"
   width="70.436668"
   height="61">
  <metadata
     id="metadata28">
    <rdf:RDF>
      <cc:Work
         rdf:about="">
        <dc:format>image/svg+xml</dc:format>
        <dc:type
           rdf:resource="http://purl.org/dc/dcmitype/StillImage" />
        <dc:title></dc:title>
      </cc:Work>
    </rdf:RDF>
  </metadata>
  <defs
     id="defs26" />
  <sodipodi:namedview
     pagecolor="#ffffff"
     bordercolor="#666666"
     borderopacity="1"
     objecttolerance="10"
     gridtolerance="10"
     guidetolerance="10"
     inkscape:pageopacity="0"
     inkscape:pageshadow="2"
     inkscape:window-width="1178"
     inkscape:window-height="737"
     id="namedview24"
     showgrid="false"
     inkscape:zoom="5.68"
     inkscape:cx="35"
     inkscape:cy="30"
     inkscape:window-x="149"
     inkscape:window-y="60"
     inkscape:window-maximized="0"
     inkscape:current-layer="svg22" />
  <path
     d="M 52.827502,61 H 35.218335 17.609167 L 8.804584,45.75 0,30.5 8.804584,15.25 17.609167,0 H 35.218335 52.827502 L 61.632086,15.25 70.43667,30.5 61.632086,45.75 Z M 23.483648,42.958724 v 0 l -5.555357,1.898212 -0.488301,6.122537 c -0.136874,1.746613 -2.408298,1.619805 -2.291256,-0.187808 l 0.450739,-8.188424 7.053463,-2.36067 c -0.0607,-0.267288 -0.114638,-0.529167 -0.162116,-0.783985 l -6.440608,0.02705 c -1.493899,0.0035 -1.303687,-2.658759 -0.07512,-2.704434 H 22.17155 C 22.16088,36.55433 22.15622,36.351347 22.15607,36.17601 q -4.5e-4,-0.332195 3.01e-4,-0.692936 l -6.218845,-2.157537 -0.751231,-9.916256 c -0.07001,-2.027274 2.180073,-1.837062 2.253694,-0.22537 l 0.600985,7.925493 4.136131,1.428241 q 0.02494,-2.288101 0.07918,-5.276349 c 0.504076,-1.693426 1.593662,-2.473505 3.255236,-2.353759 l 20.082973,0.05003 c 1.583145,-0.0278 2.486126,0.84183 2.704434,2.604219 q 0.138376,2.690461 0.172182,5.021833 l 4.269549,-1.474217 0.600985,-7.925493 c 0.07362,-1.611692 2.32371,-1.801904 2.253695,0.22537 l -0.751232,9.916256 -6.374349,2.211475 q -0.0078,0.453143 -0.02058,0.889308 c -0.0032,0.108178 -0.0078,0.226722 -0.01442,0.354882 h 6.371796 c 1.228564,0.04567 1.418776,2.707889 -0.07512,2.704434 l -6.616697,-0.0278 c -0.04387,0.237239 -0.093,0.481239 -0.148294,0.730498 l 7.21573,2.414908 0.450738,8.188424 c 0.117042,1.807613 -2.154231,1.934421 -2.291256,0.187808 l -0.4883,-6.122537 -5.701547,-1.948094 v 0 c -1.532362,3.967855 -4.829217,8.089412 -11.863749,8.089412 -6.917941,0 -10.240638,-4.064163 -11.804401,-8.03953 z M 40.306276,12.868596 c 0.898623,-2.22064 2.267367,-3.676677 4.102926,-4.371266 1.952451,-0.732451 2.52564,1.460094 1.012209,2.066938 -1.848179,0.741165 -2.553285,1.687867 -3.130532,3.591488 2.473956,2.008793 4.054848,5.074419 4.054848,8.506345 0,0.211096 -0.006,0.42084 -0.01998,0.62833 v 0 L 24.439815,23.161219 c -0.0096,-0.16512 -0.01337,-0.331593 -0.01337,-0.499118 0,-3.628148 1.766897,-6.847025 4.487557,-8.840943 -0.56102,-1.681407 -1.288212,-2.560047 -3.025961,-3.25689 C 24.37461,9.957424 24.9478,7.764879 26.900251,8.49733 c 1.775611,0.671902 3.114305,2.056271 4.011877,4.158067 1.36649,-0.612254 2.880822,-0.952863 4.473884,-0.952863 1.769,0 3.44064,0.419939 4.920266,1.166062 v 0 0 z"
     id="path20"
     inkscape:connector-curvature="0"
     style="fill-rule:evenodd;stroke-width:0.15024631" />
</svg>
