<svg viewBox="0 0 468.8 470">
<path d=" M 351.606 438 L 234.404 438 L 117.202 438 L 58.601 336.5 L 0 235 L 58.601 133.5 L 117.202 32 L 234.404 32 L 351.606 32 L 410.207 133.5 L 468.808 235 L 410.207 336.5 L 351.606 438 Z  M 156.301 317.922 L 156.301 317.922 L 119.326 330.556 L 116.076 371.306 C 115.165 382.931 100.047 382.087 100.826 370.056 L 103.826 315.556 L 150.772 299.844 C 150.368 298.065 150.009 296.322 149.693 294.626 L 106.826 294.806 C 96.883 294.829 98.149 277.11 106.326 276.806 L 147.568 276.806 C 147.497 275.296 147.466 273.945 147.465 272.778 Q 147.462 270.567 147.467 268.166 L 106.076 253.806 L 101.076 187.806 C 100.61 174.313 115.586 175.579 116.076 186.306 L 120.076 239.056 L 147.605 248.562 Q 147.771 233.333 148.132 213.444 C 151.487 202.173 158.739 196.981 169.798 197.778 L 303.465 198.111 C 314.002 197.926 320.012 203.714 321.465 215.444 Q 322.386 233.351 322.611 248.868 L 351.028 239.056 L 355.028 186.306 C 355.518 175.579 370.494 174.313 370.028 187.806 L 365.028 253.806 L 322.602 268.525 Q 322.55 271.541 322.465 274.444 C 322.444 275.164 322.413 275.953 322.369 276.806 L 364.778 276.806 C 372.955 277.11 374.221 294.829 364.278 294.806 L 320.239 294.621 C 319.947 296.2 319.62 297.824 319.252 299.483 L 367.278 315.556 L 370.278 370.056 C 371.057 382.087 355.94 382.931 355.028 371.306 L 351.778 330.556 L 313.83 317.59 L 313.83 317.59 C 303.631 343.999 281.688 371.431 234.868 371.431 C 188.824 371.431 166.709 344.381 156.301 317.922 L 156.301 317.922 Z  M 268.268 117.65 C 274.249 102.87 283.359 93.179 295.576 88.556 C 308.571 83.681 312.386 98.274 302.313 102.313 C 290.012 107.246 285.319 113.547 281.477 126.217 C 297.943 139.587 308.465 159.991 308.465 182.833 C 308.465 184.238 308.425 185.634 308.332 187.015 L 308.332 187.015 L 162.665 186.155 C 162.601 185.056 162.576 183.948 162.576 182.833 C 162.576 158.685 174.336 137.261 192.444 123.99 C 188.71 112.799 183.87 106.951 172.304 102.313 C 162.231 98.274 166.046 83.681 179.041 88.556 C 190.859 93.028 199.769 102.242 205.743 116.231 C 214.838 112.156 224.917 109.889 235.52 109.889 C 247.294 109.889 258.42 112.684 268.268 117.65 L 268.268 117.65 L 268.268 117.65 L 268.268 117.65 Z "
	fill-rule="evenodd"
 />
</svg>