<?xml version="1.0" encoding="utf-8"?>
<!-- Generator: Adobe Illustrator 19.2.1, SVG Export Plug-In . SVG Version: 6.00 Build 0)  -->
<svg version="1.1" id="Layer_1" xmlns="http://www.w3.org/2000/svg" xmlns:xlink="http://www.w3.org/1999/xlink" x="0px" y="0px"
	 width="28px" height="28px" viewBox="0 0 28 28" style="enable-background:new 0 0 28 28;" xml:space="preserve">
<style type="text/css">
	.st0{fill:#005277;}
	.st1{fill:#FFFFFF;}
</style>
<path class="st0" d="M14,28c7.7,0,14-6.3,14-14S21.7,0,14,0S0,6.3,0,14S6.3,28,14,28z"/>
<g>
		<path class="st1" style="transform: scale(.5) translate(10px,12px)" d="M5.833,0.002L5.833,22.22C5.833,22.22 10.09,22.023 12.64,22.743 15.189,23.465 16.439,24.12 16.439,24.12L16.439,3.805C16.439,3.805 15.322,1.378 13.228,0.658 11.135,-0.064 5.833,0.002 5.833,0.002 M21.804,0.658C19.743,1.378,18.56,3.805,18.56,3.805L18.56,24.12C18.56,24.12 19.872,23.465 22.383,22.743 24.892,22.023 29.166,22.22 29.166,22.22L29.166,0.002C29.166,0.002,23.862,-0.064,21.804,0.658 M35,3.871L35,27.853C35,28.687,34.266,29.117,33.448,29.117L23.133,29.117C22.41,31.275 20.265,32 17.728,32 15.192,32 13.046,31.275 12.321,29.117L1.686,29.117C0.866,29.117,0,28.687,0,27.853L0,3.871C0,3.037,0.866,2.147,1.686,2.147L3.712,2.147 3.712,23.396C3.712,24.231,4.305,24.802,5.122,24.802L11.491,24.802C15.405,25.341 16.571,27.725 17.642,27.707 18.743,27.686 20.23,25.341 24.186,24.802L29.989,24.802C30.81,24.802,31.288,24.231,31.288,23.396L31.288,2.147 33.448,2.147C34.266,2.147,35,3.037,35,3.871"/>
</g>
</svg>
