<?xml version="1.0" encoding="utf-8"?>
<!-- Generator: Adobe Illustrator 19.2.1, SVG Export Plug-In . SVG Version: 6.00 Build 0)  -->
<svg version="1.1" id="Layer_1" xmlns="http://www.w3.org/2000/svg" xmlns:xlink="http://www.w3.org/1999/xlink" x="0px" y="0px"
	 width="28px" height="28px" viewBox="0 0 28 28" style="enable-background:new 0 0 28 28;" xml:space="preserve">
<style type="text/css">
	.st0{fill:#005277;}
	.st1{fill:#FFFFFF;}
</style>
<path class="st0" d="M14,28c7.7,0,14-6.3,14-14S21.7,0,14,0S0,6.3,0,14S6.3,28,14,28z"/>
<g>
	<path class="st1" d="M15.2,18h-2.6c0-0.4,0-0.6,0-0.7c0-0.8,0.1-1.5,0.4-2.1s0.8-1.2,1.7-1.8c0.8-0.7,1.4-1.1,1.5-1.3
		c0.3-0.3,0.4-0.7,0.4-1.1c0-0.6-0.2-1-0.7-1.4c-0.5-0.4-1.1-0.6-1.8-0.6c-0.7,0-1.4,0.2-1.9,0.6c-0.5,0.4-0.8,1-1,1.9l-2.7-0.3
		C8.6,9.9,9.1,8.8,10,8c1-0.8,2.3-1.3,3.8-1.3c1.7,0,3,0.4,4,1.3c1,0.9,1.5,1.9,1.5,3c0,0.6-0.2,1.2-0.6,1.8
		c-0.3,0.6-1.1,1.3-2.3,2.3c-0.6,0.5-1,0.9-1.1,1.2C15.2,16.7,15.1,17.2,15.2,18z M12.5,21.9V19h2.9v2.9H12.5z"/>
</g>
</svg>
