<?xml version="1.0" ?>
<svg height="443.88" id="svg1825" width="439.488" 
    xmlns="http://www.w3.org/2000/svg">
    <defs id="defs1827">
        <marker id="ArrowEnd" markerHeight="3" markerUnits="strokeWidth" markerWidth="4" orient="auto" refX="0" refY="5" viewBox="0 0 10 10">
            <path d="M 0 0 L 10 5 L 0 10 z" id="path1830"/>
        </marker>
        <marker id="ArrowStart" markerHeight="3" markerUnits="strokeWidth" markerWidth="4" orient="auto" refX="10" refY="5" viewBox="0 0 10 10">
            <path d="M 10 0 L 0 5 L 10 10 z" id="path1833"/>
        </marker>
    </defs>
    <g id="g1835">
        <g id="g1837">
            <path d="M 219.744 443.88C 341.103 443.88 439.488 344.51 439.488 221.94C 439.488 99.368 341.103 0 219.744 0C 98.387 0 0 99.368 0 221.94C 0 344.51 98.387 443.88 219.744 443.88z" id="path1839" style="stroke:none; fill:#000000"/>
            <path d="M 219.744 221.94" id="path1841" style="stroke:none; fill:#000000"/>
        </g>
        <g id="g1843">
            <path d="M 219.744 392.714C 313.128 392.714 388.83 316.255 388.83 221.94C 388.83 127.623 313.128 51.166 219.744 51.166C 126.362 51.166 50.659 127.623 50.659 221.94C 50.659 316.255 126.362 392.714 219.744 392.714z" id="path1845" style="stroke:none; fill:#ffffff"/>
            <path d="M 219.744 221.94" id="path1847" style="stroke:none; fill:#ffffff"/>
        </g>
        <g id="g1849">
            <path d="M 196.963 300.274L 246.494 300.172L 246.494 261.69C 246.494 251.252 251.36 241.39 264.38 232.849C 277.399 224.312 313.744 206.988 313.744 161.44C 313.744 115.89 275.577 84.582 243.494 77.94C 211.416 71.298 176.659 75.668 151.994 102.69C 129.907 126.887 125.253 146.027 125.253 188.255L 174.744 188.255L 174.744 178.44C 174.744 155.939 177.347 132.186 209.494 125.69C 227.04 122.144 243.488 127.648 253.244 137.19C 264.404 148.102 264.494 172.69 246.711 184.933L 218.815 203.912C 202.543 214.35 196.963 225.971 196.963 243.051L 196.963 300.274z" id="path1851" style="stroke:none; fill:#000000"/>
            <g id="g1853">
                <path d="M 196.638 370.692L 196.638 319.687L 246.85 319.687L 246.85 370.692L 196.638 370.692z" id="path1855" style="stroke:none; fill:#000000"/>
                <path d="M 221.744 345.19" id="path1857" style="stroke:none; fill:#000000"/>
            </g>
        </g>
    </g>
</svg>