<?xml version="1.0" encoding="UTF-8" standalone="no"?>
<svg xmlns="http://www.w3.org/2000/svg" height="21.56052" width="22.000093" id="svg822" xml:space="preserve" viewBox="0 0 22.000094 21.56052" version="1.1">

    <g style="fill:#000000;fill-opacity:1" transform="translate(-11.007038,-13.21973)" id="g819">
        <path d="m 31.87428,31.43847 c -0.70801,-0.68311 -1.62891,-1.15088 -2.52002,-1.60303 -0.19434,-0.09912 -0.38574,-0.19629 -0.57129,-0.29395 -0.38672,-0.2041 -0.77539,-0.4043 -1.16455,-0.60449 l -0.5249,-0.271 C 26.37721,28.29539 25.85963,28.02733 25.58229,27.3242 25.32008,26.66063 25.30153,26.57859 25.261,25.92186 l 0.30029,-0.37109 c 0.25146,-0.37061 0.43066,-1.36719 0.50684,-1.86035 0.34424,-0.14209 0.59668,-0.49756 0.71631,-0.87354 0.13574,-0.42676 0.26367,-0.83008 0.32471,-1.35156 0.04443,-0.37061 0.10596,-0.87793 -0.26758,-1.24951 -0.07715,-0.07715 -0.2124,-0.12939 -0.3501,-0.15771 0.01611,-0.30078 0.03418,-0.7876 0.05518,-1.58887 l 0.36328,-0.27002 c 0.10156,-0.07568 0.15479,-0.20068 0.13818,-0.32666 l -0.15332,-1.15527 c -0.02246,-0.10986 -0.58594,-2.69824 -3.33105,-3.33789 -2.35693,-0.55078 -3.90186,0.4751 -4.30811,0.79004 -0.56543,0.03809 -1.43555,0.34717 -1.79883,1.80078 -0.19092,0.76416 -0.11328,1.52734 -0.03809,2.26514 l 0.02734,0.27539 c 0.03467,0.35938 0.04785,0.71777 0.06299,1.11963 0.002,0.05469 -9.8e-4,0.12158 -0.0039,0.19287 -0.0029,0.07812 -0.0064,0.15918 -0.0059,0.24072 -0.13086,0.03076 -0.25293,0.08252 -0.32227,0.15137 -0.37451,0.37207 -0.31299,0.87939 -0.26172,1.30664 0.05518,0.46875 0.18457,0.87549 0.34082,1.36523 0.10156,0.32031 0.34961,0.66455 0.69385,0.80371 0.07666,0.49463 0.2583,1.49365 0.52441,1.88428 l 0.28223,0.34668 c -0.04053,0.65674 -0.05908,0.73877 -0.3208,1.40234 -0.27734,0.70312 -0.79492,0.9707 -1.54248,1.35791 l -0.50537,0.26074 c -0.38525,0.19824 -0.77051,0.39648 -1.15332,0.59863 -0.18555,0.09766 -0.37695,0.19482 -0.57129,0.29346 -0.89062,0.45264 -1.81201,0.92041 -2.51709,1.60107 -0.0459,0.04346 -0.09033,0.08838 -0.13037,0.13623 -0.44336,0.51904 -0.78027,1.4126 -1.00146,2.65527 -0.02441,0.13672 0.0127,0.27588 0.10156,0.38232 0.09082,0.1084 0.2251,0.17041 0.36816,0.17041 h 21.03125 c 0.14697,0 0.28516,-0.06396 0.37842,-0.17529 0.09229,-0.10986 0.13086,-0.25391 0.10596,-0.39697 -0.22021,-1.23145 -0.55615,-2.11816 -0.99707,-2.63525 -0.04052,-0.04735 -0.08447,-0.09179 -0.12841,-0.13427 z" style="fill:#000000;fill-opacity:1" id="path815" />
    </g>
</svg>