<svg width="337" height="60" xmlns="http://www.w3.org/2000/svg" xmlns:xlink="http://www.w3.org/1999/xlink" overflow="hidden"><defs><clipPath id="clip0"><rect x="1140" y="759" width="337" height="60"/></clipPath></defs><g clip-path="url(#clip0)" transform="translate(-1140 -759)"><path d="M292.884-136.236C291.613-135.035 289.919-134.387 288.171-134.435 284.24-134.266 280.915-137.316 280.746-141.247 280.743-141.319 280.741-141.392 280.74-141.464 280.728-145.31 283.839-148.437 287.685-148.447 287.761-148.448 287.838-148.447 287.913-148.444 289.712-148.49 291.454-147.805 292.739-146.546L291.532-144.938C290.551-145.857 289.258-146.369 287.913-146.369 285.33-146.451 283.17-144.422 283.088-141.838 283.085-141.74 283.085-141.642 283.088-141.544 283.041-138.8 285.231-136.537 287.975-136.492 288.057-136.49 288.137-136.491 288.219-136.493 289.517-136.459 290.785-136.893 291.79-137.716Z" fill="#FFFFFF" transform="matrix(1 0 0 1.00088 996.025 908.38)"/><path d="M292.739-130.285 295.956-135.898 292.192-143.683 294.508-143.683 297.146-138.038 299.784-143.683 302.197-143.683 295.135-130.285Z" fill="#FFFFFF" transform="matrix(1 0 0 1.00088 996.025 908.38)"/><path d="M303.194-149.249 305.285-149.249 305.285-143.152C306.083-143.663 307.007-143.936 307.955-143.941 310.29-143.873 312.129-141.925 312.061-139.59 312.058-139.485 312.052-139.38 312.04-139.276 312.117-136.683 310.08-134.518 307.487-134.441 307.326-134.436 307.165-134.439 307.006-134.451 305.651-134.453 304.324-134.838 303.178-135.561ZM305.285-136.638C305.806-136.35 306.395-136.206 306.99-136.22 308.498-136.15 309.777-137.316 309.848-138.825 309.854-138.959 309.85-139.094 309.837-139.228 309.837-140.836 309.016-142.171 307.504-142.171 306.686-142.15 305.901-141.843 305.285-141.303Z" fill="#FFFFFF" transform="matrix(1 0 0 1.00088 996.025 908.38)"/><path d="M322.077-135.657C320.986-134.86 319.663-134.447 318.313-134.483 315.828-134.25 313.625-136.076 313.391-138.562 313.374-138.756 313.369-138.952 313.375-139.147 313.205-141.638 315.087-143.795 317.577-143.965 317.731-143.976 317.885-143.978 318.04-143.973 320.383-144.045 322.342-142.203 322.415-139.859 322.42-139.686 322.415-139.513 322.399-139.34L322.399-138.472 315.531-138.472C315.659-137.33 316.705-136.268 318.748-136.268 319.748-136.257 320.724-136.586 321.514-137.201ZM320.227-140.113C320.237-141.303 319.28-142.275 318.09-142.285 318.062-142.285 318.035-142.285 318.008-142.284 316.743-142.323 315.666-141.373 315.547-140.113Z" fill="#FFFFFF" transform="matrix(1 0 0 1.00088 996.025 908.38)"/><path d="M324.184-134.74 324.184-143.683 326.275-143.683 326.275-142.3C326.468-142.718 327.176-143.908 328.221-143.908 328.788-143.919 329.346-143.768 329.83-143.474L329.058-141.544C328.715-141.806 328.299-141.952 327.867-141.962 326.854-141.962 326.259-140.836 326.259-139.71L326.259-134.74Z" fill="#FFFFFF" transform="matrix(1 0 0 1.00088 996.025 908.38)"/><path d="M330.924-137.137C331.599-136.501 332.474-136.119 333.401-136.059 334.221-136.059 334.736-136.493 334.736-137.073 334.736-138.681 330.779-138.922 330.779-141.399 330.891-142.932 332.225-144.083 333.758-143.971 333.804-143.967 333.853-143.963 333.899-143.957 334.958-143.954 335.987-143.604 336.827-142.959L336.038-141.496C335.533-142.007 334.858-142.316 334.14-142.364 333.481-142.364 332.982-141.994 332.982-141.464 332.982-139.984 336.859-139.855 336.859-137.185 336.859-135.577 335.54-134.483 333.513-134.483 332.294-134.475 331.107-134.883 330.151-135.641Z" fill="#FFFFFF" transform="matrix(1 0 0 1.00088 996.025 908.38)"/><path d="M346.879-135.657C345.789-134.86 344.465-134.447 343.116-134.483 340.631-134.25 338.427-136.076 338.194-138.562 338.176-138.756 338.171-138.952 338.178-139.147 338.007-141.638 339.887-143.795 342.377-143.965 342.538-143.977 342.697-143.979 342.858-143.973 345.203-144.036 347.154-142.187 347.217-139.842 347.222-139.675 347.217-139.507 347.201-139.34L347.201-138.472 340.333-138.472C340.462-137.33 341.507-136.268 343.469-136.268 344.47-136.257 345.446-136.586 346.236-137.201ZM345.03-140.113C345.039-141.303 344.082-142.275 342.892-142.285 342.865-142.285 342.837-142.285 342.81-142.284 341.546-142.323 340.468-141.373 340.349-140.113Z" fill="#FFFFFF" transform="matrix(1 0 0 1.00088 996.025 908.38)"/><path d="M356.611-135.77C355.662-134.887 354.399-134.424 353.104-134.483 350.537-134.535 348.48-136.627 348.472-139.196 348.525-141.823 350.669-143.925 353.297-143.925 354.401-143.934 355.473-143.565 356.337-142.879L355.533-141.271C354.947-141.819 354.179-142.128 353.378-142.139 351.85-142.125 350.622-140.875 350.637-139.347 350.637-139.291 350.64-139.235 350.643-139.18 350.545-137.628 351.724-136.291 353.275-136.193 353.315-136.19 353.353-136.189 353.394-136.188 354.352-136.162 355.279-136.535 355.951-137.217Z" fill="#FFFFFF" transform="matrix(1 0 0 1.00088 996.025 908.38)"/><path d="M364.009-143.683 366.1-143.683 366.1-135.641C364.981-134.751 363.57-134.31 362.144-134.402 359.779-134.402 358.122-135.544 358.122-137.861L358.122-143.603 360.294-143.603 360.294-138.375C360.294-136.606 361.291-136.14 362.433-136.14 363.004-136.125 363.567-136.288 364.042-136.606Z" fill="#FFFFFF" transform="matrix(1 0 0 1.00088 996.025 908.38)"/><path d="M368.336-134.74 368.336-143.683 370.427-143.683 370.427-142.3C370.62-142.718 371.328-143.908 372.373-143.908 372.94-143.919 373.498-143.768 373.982-143.474L373.162-141.544C372.827-141.808 372.414-141.955 371.987-141.962 370.974-141.962 370.379-140.836 370.379-139.71L370.379-134.74Z" fill="#FFFFFF" transform="matrix(1 0 0 1.00088 996.025 908.38)"/><path d="M375.011-146.562C374.949-147.279 375.478-147.911 376.195-147.975 376.256-147.98 376.317-147.981 376.378-147.978 377.088-148.005 377.686-147.452 377.713-146.742 377.715-146.704 377.715-146.665 377.713-146.627 377.741-145.917 377.188-145.319 376.477-145.292 376.444-145.29 376.411-145.29 376.378-145.292 375.669-145.247 375.058-145.786 375.014-146.495 375.013-146.518 375.011-146.54 375.011-146.562ZM375.301-134.74 375.301-143.683 377.392-143.683 377.392-134.74Z" fill="#FFFFFF" transform="matrix(1 0 0 1.00088 996.025 908.38)"/><path d="M380.641-134.74 380.641-141.962 379.032-141.962 379.032-143.667 380.641-143.667 380.641-146.723 382.812-146.723 382.812-143.667 385-143.667 385-141.962 382.812-141.962 382.812-134.74Z" fill="#FFFFFF" transform="matrix(1 0 0 1.00088 996.025 908.38)"/><path d="M385.772-130.285 388.989-135.963 385.225-143.748 387.541-143.748 390.179-138.102 392.817-143.748 395.213-143.748 388.12-130.285Z" fill="#FFFFFF" transform="matrix(1 0 0 1.00088 996.025 908.38)"/><path d="M401.261-134.74 401.261-141.962 399.749-141.962 399.749-143.667 401.261-143.667 401.261-145.42C401.211-146.392 401.494-147.351 402.065-148.139 402.772-148.855 403.746-149.24 404.752-149.2 405.59-149.212 406.415-148.989 407.132-148.557L406.312-146.948C405.89-147.255 405.385-147.423 404.864-147.431 403.819-147.431 403.256-146.691 403.256-145.453L403.256-143.667 405.508-143.667 405.508-141.962 403.256-141.962 403.256-134.74Z" fill="#FFFFFF" transform="matrix(1 0 0 1.00088 996.025 908.38)"/><path d="M411.153-134.483C408.543-134.43 406.383-136.503 406.329-139.114 406.328-139.136 406.328-139.158 406.328-139.18 406.328-141.845 408.488-144.005 411.153-144.005 413.764-144.059 415.926-141.986 415.979-139.375 415.98-139.31 415.98-139.245 415.979-139.18 415.909-136.565 413.769-134.482 411.153-134.483ZM413.759-139.18C413.904-140.683 412.802-142.019 411.298-142.163 411.261-142.167 411.222-142.169 411.185-142.171 409.667-142.118 408.48-140.844 408.533-139.325 408.536-139.261 408.541-139.196 408.548-139.131 408.466-137.606 409.636-136.302 411.161-136.22 411.165-136.22 411.166-136.22 411.169-136.22 412.617-136.226 413.786-137.404 413.781-138.852 413.78-138.962 413.773-139.071 413.759-139.18Z" fill="#FFFFFF" transform="matrix(1 0 0 1.00088 996.025 908.38)"/><path d="M417.764-134.74 417.764-143.683 419.807-143.683 419.807-142.3C420-142.718 420.707-143.908 421.753-143.908 422.319-143.919 422.877-143.768 423.361-143.474L422.622-141.544C422.287-141.808 421.874-141.955 421.447-141.962 420.434-141.962 419.839-140.836 419.839-139.71L419.839-134.74Z" fill="#FFFFFF" transform="matrix(1 0 0 1.00088 996.025 908.38)"/><path d="M429.763-134.74 429.763-141.962 428.074-141.962 428.074-143.667 429.763-143.667 429.763-146.723 431.854-146.723 431.854-143.667 434.042-143.667 434.042-141.962 431.854-141.962 431.854-134.74Z" fill="#FFFFFF" transform="matrix(1 0 0 1.00088 996.025 908.38)"/><path d="M441.328-134.74 441.328-139.566C441.328-141.174 441.054-142.043 439.591-142.043 438.801-141.984 438.066-141.613 437.548-141.013L437.548-134.692 435.457-134.692 435.457-149.168 437.5-149.168 437.5-142.734C438.28-143.459 439.298-143.872 440.363-143.892 442.309-143.892 443.371-142.927 443.371-140.675L443.371-134.708Z" fill="#FFFFFF" transform="matrix(1 0 0 1.00088 996.025 908.38)"/><path d="M453.874-135.657C452.782-134.865 451.46-134.453 450.11-134.483 447.625-134.25 445.421-136.076 445.188-138.562 445.17-138.756 445.166-138.952 445.172-139.147 445.002-141.638 446.882-143.795 449.373-143.965 449.528-143.976 449.682-143.978 449.837-143.973 452.18-144.045 454.139-142.203 454.212-139.859 454.216-139.686 454.212-139.513 454.196-139.34L454.196-138.472 447.327-138.472C447.456-137.33 448.502-136.268 450.464-136.268 451.461-136.253 452.433-136.583 453.214-137.201ZM451.976-140.113C451.986-141.303 451.028-142.275 449.838-142.285 449.811-142.285 449.784-142.285 449.756-142.284 448.492-142.323 447.414-141.373 447.295-140.113Z" fill="#FFFFFF" transform="matrix(1 0 0 1.00088 996.025 908.38)"/><path d="M288.042-111.916C284.095-111.835 280.828-114.966 280.74-118.913 280.819-122.865 284.087-126.005 288.039-125.926 288.04-125.926 288.04-125.926 288.042-125.926 291.941-126.033 295.187-122.959 295.293-119.06 295.295-118.995 295.296-118.93 295.296-118.865 295.174-114.96 291.949-111.871 288.042-111.916ZM288.042-123.867C285.379-123.938 283.16-121.836 283.09-119.172 283.088-119.123 283.088-119.075 283.088-119.026 283.086-116.328 285.218-114.111 287.913-114.007 290.577-113.927 292.802-116.021 292.882-118.685 292.885-118.766 292.885-118.848 292.884-118.929 292.937-121.594 290.82-123.797 288.156-123.85 288.118-123.851 288.081-123.851 288.042-123.851Z" fill="#FFFFFF" transform="matrix(1 0 0 1.00088 996.025 908.38)"/><path d="M297.033-107.766 297.033-120.457C298.253-121.104 299.61-121.447 300.99-121.454 303.499-121.607 305.658-119.696 305.809-117.187 305.819-117.044 305.82-116.901 305.816-116.758 306.038-114.325 304.246-112.173 301.812-111.951 301.688-111.939 301.564-111.933 301.441-111.932 300.582-111.971 299.757-112.274 299.076-112.801L299.076-107.766ZM299.173-114.699C299.742-114.065 300.556-113.708 301.408-113.718 302.647-113.718 303.708-114.876 303.708-116.677 303.837-118.191 302.713-119.522 301.199-119.65 301.061-119.661 300.921-119.662 300.781-119.653 300.186-119.662 299.599-119.518 299.076-119.235Z" fill="#FFFFFF" transform="matrix(1 0 0 1.00088 996.025 908.38)"/><path d="M315.852-113.139C314.76-112.344 313.438-111.932 312.089-111.965 309.603-111.732 307.4-113.558 307.167-116.043 307.149-116.238 307.144-116.434 307.151-116.629 306.98-119.119 308.86-121.276 311.352-121.447 311.506-121.457 311.661-121.46 311.815-121.454 314.159-121.526 316.118-119.684 316.19-117.34 316.195-117.168 316.19-116.994 316.174-116.822L316.174-115.954 309.306-115.954C309.435-114.812 310.48-113.75 312.442-113.75 313.44-113.735 314.411-114.064 315.193-114.683ZM314.003-117.594C314.012-118.784 313.055-119.757 311.865-119.767 311.838-119.767 311.81-119.766 311.783-119.766 310.519-119.805 309.441-118.854 309.322-117.594Z" fill="#FFFFFF" transform="matrix(1 0 0 1.00088 996.025 908.38)"/><path d="M317.959-112.222 317.959-121.165 320.083-121.165 320.083-119.782C320.276-120.2 320.983-121.39 322.029-121.39 322.595-121.401 323.153-121.25 323.637-120.956L322.833-119.026C322.49-119.287 322.074-119.434 321.643-119.444 320.629-119.444 320.034-118.318 320.034-117.192L320.034-112.222Z" fill="#FFFFFF" transform="matrix(1 0 0 1.00088 996.025 908.38)"/><path d="M331.985-113.171C330.845-112.335 329.457-111.91 328.044-111.965 325.117-111.965 323.878-113.573 323.878-115.181 324.039-116.951 325.604-118.255 327.374-118.094 327.377-118.093 327.382-118.093 327.385-118.093 328.318-118.138 329.239-117.86 329.991-117.305L329.991-118.35C329.991-119.187 329.524-119.717 328.028-119.717 327.171-119.723 326.32-119.547 325.535-119.203L324.892-120.811C325.944-121.301 327.092-121.549 328.253-121.535 331.213-121.535 331.985-120.136 331.985-117.98ZM329.991-115.664C329.391-116.152 328.641-116.419 327.867-116.42 326.677-116.42 326.066-115.728 326.066-115.037 326.066-114.345 326.677-113.621 328.06-113.621 328.734-113.611 329.4-113.778 329.991-114.104Z" fill="#FFFFFF" transform="matrix(1 0 0 1.00088 996.025 908.38)"/><path d="M335.025-112.222 335.025-119.444 333.417-119.444 333.417-121.149 335.025-121.149 335.025-124.205 337.116-124.205 337.116-121.149 339.384-121.149 339.384-119.444 337.18-119.444 337.18-112.222Z" fill="#FFFFFF" transform="matrix(1 0 0 1.00088 996.025 908.38)"/><path d="M340.51-124.044C340.483-124.763 341.044-125.368 341.763-125.395 341.79-125.396 341.818-125.396 341.845-125.395 342.554-125.432 343.159-124.886 343.196-124.176 343.198-124.132 343.198-124.088 343.196-124.044 343.214-123.325 342.646-122.727 341.927-122.709 341.9-122.708 341.872-122.708 341.845-122.709 341.136-122.682 340.537-123.235 340.51-123.946 340.508-123.978 340.508-124.011 340.51-124.044ZM340.799-112.222 340.799-121.165 342.89-121.165 342.89-112.222Z" fill="#FFFFFF" transform="matrix(1 0 0 1.00088 996.025 908.38)"/><path d="M349.566-111.965C346.955-111.911 344.795-113.985 344.742-116.596 344.74-116.618 344.74-116.639 344.74-116.661 344.74-119.326 346.9-121.487 349.566-121.487 352.176-121.54 354.338-119.467 354.391-116.856 354.392-116.791 354.392-116.726 354.391-116.661 354.322-114.047 352.181-111.964 349.566-111.965ZM352.252-116.661C352.396-118.164 351.295-119.5 349.791-119.644 349.754-119.648 349.715-119.651 349.678-119.653 348.16-119.626 346.95-118.373 346.978-116.854 346.979-116.774 346.984-116.693 346.992-116.613 346.91-115.087 348.081-113.784 349.606-113.702 349.609-113.702 349.611-113.702 349.614-113.702 351.061-113.681 352.252-114.837 352.273-116.285 352.276-116.411 352.268-116.537 352.252-116.661Z" fill="#FFFFFF" transform="matrix(1 0 0 1.00088 996.025 908.38)"/><path d="M362.047-112.222 362.047-117.047C362.047-118.656 361.774-119.524 360.31-119.524 359.52-119.465 358.785-119.095 358.267-118.495L358.267-112.174 356.176-112.174 356.176-121.117 358.267-121.117 358.267-120.2C359.047-120.925 360.066-121.337 361.13-121.358 363.077-121.358 364.138-120.393 364.138-118.141L364.138-112.174Z" fill="#FFFFFF" transform="matrix(1 0 0 1.00088 996.025 908.38)"/><path d="M373.805-113.171C372.658-112.336 371.265-111.911 369.848-111.965 366.937-111.965 365.698-113.573 365.698-115.181 365.859-116.951 367.424-118.255 369.193-118.094 369.197-118.093 369.202-118.093 369.205-118.093 370.133-118.139 371.048-117.86 371.794-117.305L371.794-118.35C371.794-119.187 371.344-119.717 369.832-119.717 368.975-119.718 368.125-119.543 367.339-119.203L366.696-120.811C367.747-121.301 368.896-121.549 370.057-121.535 373.017-121.535 373.805-120.136 373.805-117.98ZM371.794-115.664C371.194-116.152 370.445-116.419 369.671-116.42 368.497-116.42 367.87-115.728 367.87-115.037 367.87-114.345 368.497-113.621 369.864-113.621 370.538-113.609 371.204-113.776 371.794-114.104Z" fill="#FFFFFF" transform="matrix(1 0 0 1.00088 996.025 908.38)"/><path d="M375.992-112.222 375.992-126.698 378.083-126.698 378.083-112.222Z" fill="#FFFFFF" transform="matrix(1 0 0 1.00088 996.025 908.38)"/><path d="M387.75-112.222 387.75-123.481 383.81-123.481 383.81-125.54 393.943-125.54 393.943-123.481 390.018-123.481 390.018-112.222Z" fill="#FFFFFF" transform="matrix(1 0 0 1.00088 996.025 908.38)"/><path d="M402.114-113.139C401.023-112.341 399.699-111.928 398.35-111.965 395.865-111.732 393.661-113.558 393.428-116.043 393.41-116.238 393.406-116.434 393.412-116.629 393.241-119.119 395.123-121.276 397.613-121.447 397.768-121.457 397.922-121.46 398.077-121.454 400.42-121.526 402.379-119.684 402.452-117.34 402.456-117.168 402.452-116.994 402.435-116.822L402.435-115.954 395.519-115.954C395.648-114.812 396.693-113.75 398.656-113.75 399.656-113.739 400.632-114.068 401.422-114.683ZM400.264-117.594C400.274-118.784 399.317-119.757 398.126-119.767 398.099-119.767 398.072-119.766 398.044-119.766 396.78-119.805 395.702-118.854 395.583-117.594Z" fill="#FFFFFF" transform="matrix(1 0 0 1.00088 996.025 908.38)"/><path d="M411.764-113.251C410.812-112.365 409.542-111.901 408.242-111.965 405.718-112.076 403.729-114.151 403.722-116.677 403.775-119.305 405.919-121.407 408.548-121.406 409.651-121.415 410.724-121.046 411.588-120.361L410.783-118.752C410.198-119.3 409.429-119.61 408.628-119.621 407.092-119.616 405.849-118.367 405.853-116.83 405.853-116.763 405.857-116.696 405.861-116.629 405.779-115.077 406.973-113.752 408.525-113.671 408.533-113.67 408.54-113.67 408.548-113.67 409.501-113.638 410.425-114.012 411.089-114.699Z" fill="#FFFFFF" transform="matrix(1 0 0 1.00088 996.025 908.38)"/><path d="M419.244-112.222 419.244-117.047C419.244-118.656 418.97-119.524 417.523-119.524 416.728-119.461 415.991-119.092 415.464-118.495L415.464-112.174 413.373-112.174 413.373-126.65 415.464-126.65 415.464-120.216C416.246-120.937 417.264-121.349 418.327-121.374 420.273-121.374 421.335-120.409 421.335-118.157L421.335-112.19Z" fill="#FFFFFF" transform="matrix(1 0 0 1.00088 996.025 908.38)"/><path d="M429.457-112.222 429.457-117.047C429.457-118.656 429.168-119.524 427.72-119.524 426.931-119.465 426.195-119.095 425.678-118.495L425.678-112.174 423.587-112.174 423.587-121.117 425.678-121.117 425.678-120.2C426.458-120.925 427.476-121.337 428.541-121.358 430.487-121.358 431.548-120.393 431.548-118.141L431.548-112.174Z" fill="#FFFFFF" transform="matrix(1 0 0 1.00088 996.025 908.38)"/><path d="M438.095-111.965C435.492-111.902 433.332-113.961 433.271-116.563 433.27-116.596 433.27-116.629 433.27-116.661 433.27-119.326 435.43-121.487 438.095-121.487 440.705-121.54 442.867-119.467 442.92-116.856 442.922-116.791 442.922-116.726 442.92-116.661 442.851-114.047 440.71-111.964 438.095-111.965ZM440.717-116.661C440.86-118.164 439.758-119.5 438.256-119.644 438.212-119.648 438.17-119.651 438.127-119.653 436.609-119.626 435.399-118.373 435.426-116.854 435.428-116.774 435.433-116.693 435.441-116.613 435.359-115.087 436.53-113.784 438.056-113.703 438.063-113.702 438.071-113.702 438.079-113.702 439.526-113.681 440.717-114.837 440.738-116.285 440.741-116.411 440.733-116.537 440.717-116.661Z" fill="#FFFFFF" transform="matrix(1 0 0 1.00088 996.025 908.38)"/><path d="M444.738-112.222 444.738-126.698 446.829-126.698 446.829-112.222Z" fill="#FFFFFF" transform="matrix(1 0 0 1.00088 996.025 908.38)"/><path d="M453.472-111.965C450.869-111.902 448.709-113.961 448.648-116.563 448.646-116.596 448.646-116.629 448.646-116.661 448.646-119.326 450.807-121.487 453.472-121.487 456.082-121.54 458.244-119.467 458.297-116.856 458.299-116.791 458.299-116.726 458.297-116.661 458.228-114.047 456.087-111.964 453.472-111.965ZM456.093-116.661C456.24-118.164 455.141-119.502 453.637-119.648 453.62-119.65 453.602-119.652 453.584-119.653 452.066-119.626 450.856-118.373 450.884-116.854 450.885-116.774 450.89-116.693 450.898-116.613 450.816-115.087 451.987-113.784 453.514-113.703 453.522-113.702 453.528-113.702 453.536-113.702 454.984-113.725 456.139-114.918 456.114-116.366 456.113-116.464 456.106-116.563 456.093-116.661Z" fill="#FFFFFF" transform="matrix(1 0 0 1.00088 996.025 908.38)"/><path d="M466.211-113.026C465.564-112.378 464.697-111.998 463.782-111.965 461.36-112.064 459.476-114.11 459.576-116.533 459.577-116.581 459.581-116.629 459.584-116.677 459.516-119.226 461.527-121.347 464.076-121.415 464.219-121.419 464.363-121.416 464.506-121.406 465.831-121.452 467.144-121.135 468.302-120.489L468.302-111.804C468.543-109.632 466.978-107.676 464.805-107.435 464.535-107.405 464.261-107.403 463.991-107.429 462.572-107.41 461.175-107.783 459.954-108.506L460.822-110.115C461.747-109.502 462.833-109.178 463.943-109.182 465.083-109.065 466.101-109.893 466.219-111.033 466.236-111.199 466.233-111.366 466.211-111.53ZM466.211-119.315C465.707-119.554 465.159-119.685 464.602-119.701 463.121-119.767 461.866-118.618 461.8-117.136 461.794-116.983 461.8-116.829 461.82-116.677 461.82-115.407 462.543-113.718 464.2-113.718 465.024-113.691 465.801-114.101 466.243-114.795Z" fill="#FFFFFF" transform="matrix(1 0 0 1.00088 996.025 908.38)"/><path d="M470.007-107.766 473.224-113.444 469.46-121.229 471.776-121.229 474.414-115.584 477.052-121.229 479.32-121.229 472.355-107.766Z" fill="#FFFFFF" transform="matrix(1 0 0 1.00088 996.025 908.38)"/><path d="M281.48-89.7196 281.48-103.086 289.232-103.086 289.232-101.027 283.748-101.027 283.748-97.8102 288.171-97.8102 288.171-95.7674 283.748-95.7674 283.748-91.7463 289.795-91.7463 289.795-89.6874Z" fill="#FFFFFF" transform="matrix(1 0 0 1.00088 996.025 908.38)"/><path d="M297.387-89.7035 297.387-94.5289C297.387-96.1374 297.098-97.0059 295.65-97.0059 294.857-96.9425 294.119-96.5736 293.591-95.9765L293.591-89.6553 291.5-89.6553 291.5-98.5983 293.591-98.5983 293.591-97.6815C294.375-98.4001 295.391-98.8116 296.454-98.8396 298.401-98.8396 299.478-97.8745 299.478-95.6227L299.478-89.6553Z" fill="#FFFFFF" transform="matrix(1 0 0 1.00088 996.025 908.38)"/><path d="M304.706-89.3014 300.347-98.6465 302.679-98.6465 304.625-94.0785C304.828-93.6586 304.979-93.2158 305.076-92.7596L305.076-92.7596C305.159-93.2169 305.306-93.6607 305.51-94.0785L307.44-98.6465 309.724-98.6465 305.43-89.3014Z" fill="#FFFFFF" transform="matrix(1 0 0 1.00088 996.025 908.38)"/><path d="M310.609-101.526C310.581-102.245 311.143-102.849 311.862-102.876 311.889-102.877 311.916-102.877 311.944-102.877 312.653-102.913 313.258-102.368 313.295-101.658 313.296-101.614 313.296-101.57 313.295-101.526 313.313-100.806 312.745-100.209 312.026-100.19 311.998-100.19 311.971-100.19 311.944-100.191 311.234-100.163 310.636-100.717 310.609-101.427 310.607-101.46 310.607-101.493 310.609-101.526ZM310.898-89.7035 310.898-98.6465 312.989-98.6465 312.989-89.7035Z" fill="#FFFFFF" transform="matrix(1 0 0 1.00088 996.025 908.38)"/><path d="M315.354-89.7035 315.354-98.6465 317.445-98.6465 317.445-97.2633C317.638-97.6815 318.345-98.8717 319.391-98.8717 319.957-98.8822 320.515-98.7316 320.999-98.4374L320.227-96.5073C319.885-96.7688 319.468-96.9152 319.037-96.9255 318.024-96.9255 317.429-95.7996 317.429-94.6737L317.429-89.7035Z" fill="#FFFFFF" transform="matrix(1 0 0 1.00088 996.025 908.38)"/><path d="M326.227-89.4462C323.616-89.3928 321.456-91.4662 321.403-94.0774 321.401-94.0993 321.401-94.121 321.401-94.1429 321.445-96.7764 323.592-98.8881 326.227-98.8878 328.837-98.941 330.997-96.8676 331.051-94.2564 331.052-94.2186 331.052-94.1807 331.052-94.1429 330.983-91.5283 328.842-89.4452 326.227-89.4462ZM328.833-94.1429C328.977-95.6461 327.875-96.9818 326.372-97.1261 326.335-97.1298 326.296-97.1325 326.259-97.1346 324.741-97.1076 323.531-95.8544 323.558-94.3356 323.56-94.2551 323.565-94.1747 323.573-94.0946 323.491-92.5688 324.662-91.266 326.188-91.1844 326.196-91.184 326.203-91.1836 326.211-91.1833 327.658-91.1712 328.842-92.3353 328.855-93.7832 328.855-93.9034 328.849-94.0237 328.833-94.1429Z" fill="#FFFFFF" transform="matrix(1 0 0 1.00088 996.025 908.38)"/><path d="M338.708-89.7035 338.708-94.5289C338.708-96.1374 338.435-97.0059 336.971-97.0059 336.182-96.9435 335.448-96.5739 334.929-95.9765L334.929-89.6553 332.838-89.6553 332.838-98.5983 334.929-98.5983 334.929-97.6815C335.709-98.4066 336.727-98.8188 337.792-98.8396 339.738-98.8396 340.799-97.8745 340.799-95.6227L340.799-89.6553Z" fill="#FFFFFF" transform="matrix(1 0 0 1.00088 996.025 908.38)"/><path d="M354.166-89.7035 354.166-95.3653C354.166-96.5234 353.683-97.0542 352.766-97.0542 351.969-97.0172 351.219-96.6572 350.691-96.0569L350.691-89.7035 348.6-89.7035 348.6-95.4618C348.6-96.5877 348.054-97.0703 347.105-97.0703 346.347-97.0009 345.644-96.644 345.142-96.073L345.142-89.7196 343.051-89.7196 343.051-98.6626 345.142-98.6626 345.142-97.7297C345.898-98.4526 346.895-98.8706 347.941-98.9039 348.893-98.9737 349.786-98.44 350.177-97.5689 351.071-98.3577 352.203-98.8273 353.394-98.9039 355.227-98.9039 356.257-97.9388 356.257-95.687L356.257-89.6874Z" fill="#FFFFFF" transform="matrix(1 0 0 1.00088 996.025 908.38)"/><path d="M366.728-90.6204C365.637-89.8229 364.313-89.4098 362.964-89.4462 360.479-89.2136 358.275-91.0397 358.042-93.5251 358.024-93.7197 358.02-93.9153 358.026-94.1107 357.855-96.6011 359.736-98.7582 362.226-98.9288 362.387-98.9398 362.546-98.9422 362.707-98.9361 365.052-98.9991 367.003-97.1499 367.066-94.8055 367.07-94.6381 367.066-94.4705 367.049-94.3037L367.049-93.4352 360.181-93.4352C360.31-92.2931 361.355-91.2316 363.398-91.2316 364.399-91.2205 365.375-91.5494 366.165-92.1645ZM364.878-95.0758C364.888-96.266 363.931-97.2387 362.74-97.2482 362.713-97.2483 362.686-97.248 362.658-97.2472 361.394-97.2868 360.316-96.3358 360.197-95.0758Z" fill="#FFFFFF" transform="matrix(1 0 0 1.00088 996.025 908.38)"/><path d="M374.77-89.7035 374.77-94.5289C374.77-96.1374 374.48-97.0059 373.033-97.0059 372.24-96.9425 371.502-96.5736 370.974-95.9765L370.974-89.6553 368.883-89.6553 368.883-98.5983 370.974-98.5983 370.974-97.6815C371.757-98.4001 372.774-98.8116 373.837-98.8396 375.783-98.8396 376.845-97.8745 376.845-95.6227L376.845-89.6553Z" fill="#FFFFFF" transform="matrix(1 0 0 1.00088 996.025 908.38)"/><path d="M379.837-89.7035 379.837-96.9255 378.148-96.9255 378.148-98.6305 379.837-98.6305 379.837-101.687 381.912-101.687 381.912-98.6305 384.115-98.6305 384.115-96.9255 381.912-96.9255 381.912-89.7035Z" fill="#FFFFFF" transform="matrix(1 0 0 1.00088 996.025 908.38)"/><path d="M130.172 1.64062 99.9655 59.545 0 59.545 0 1.64062 130.172 1.64062Z" fill="#FFFFFF" transform="matrix(1 0 0 1.00088 1141.59 759)"/><path d="M197.341-101.333C194.855-101.333 192.838-103.349 192.838-105.836 192.838-108.324 194.855-110.34 197.341-110.34 199.822-110.331 201.829-108.317 201.829-105.836 201.839-103.358 199.836-101.342 197.357-101.333 197.353-101.333 197.346-101.333 197.341-101.333ZM197.341-109.134C195.583-109.091 194.166-107.676 194.124-105.917 194.124-104.127 195.551-102.663 197.341-102.619 199.119-102.619 200.558-104.059 200.56-105.835 200.56-105.863 200.558-105.89 200.558-105.917 200.594-107.693 199.183-109.162 197.406-109.197 197.385-109.198 197.362-109.198 197.341-109.198Z" fill="#2C7BBA" transform="matrix(1 0 0 1.00088 996.025 908.38)"/><path d="M272.553-101.912C270.994-101.942 269.64-100.85 269.336-99.3221L250.549-99.3221 249.922-98.1158 269.32-98.1158C269.63-96.5938 270.983-95.5109 272.537-95.5422 274.314-95.5422 275.754-96.9824 275.754-98.7591 275.718-100.504 274.298-101.903 272.553-101.912ZM272.553-96.7486C271.43-96.7215 270.497-97.6051 270.462-98.727 270.497-99.8489 271.43-100.732 272.553-100.705 273.653-100.75 274.581-99.8936 274.626-98.7931 274.628-98.7603 274.628-98.7276 274.628-98.6948 274.576-97.5919 273.656-96.7299 272.553-96.7486Z" fill="#FFFFFF" transform="matrix(1 0 0 1.00088 996.025 908.38)"/><path d="M163.757-104.952C163.425-104.952 163.154-105.215 163.146-105.547L163.146-108.86C163.146-109.198 163.419-109.471 163.757-109.471 164.088-109.463 164.352-109.192 164.352-108.86L164.352-105.547C164.344-105.222 164.082-104.96 163.757-104.952Z" fill="#2C7BBA" transform="matrix(1 0 0 1.00088 996.025 908.38)"/><path d="M163.757-102.941C163.676-102.932 163.596-102.932 163.516-102.941 163.442-102.976 163.377-103.025 163.323-103.086 163.266-103.144 163.218-103.209 163.178-103.279 163.168-103.354 163.168-103.429 163.178-103.504 163.168-103.579 163.168-103.654 163.178-103.729L163.323-103.938C163.377-103.994 163.443-104.038 163.516-104.067 163.665-104.124 163.832-104.124 163.982-104.067L164.175-103.938C164.233-103.879 164.276-103.808 164.304-103.729 164.32-103.655 164.32-103.578 164.304-103.504 164.305-103.346 164.243-103.194 164.127-103.086L163.934-102.941Z" fill="#2C7BBA" transform="matrix(1 0 0 1.00088 996.025 908.38)"/><path d="M170.496-100.786 156.985-100.786C156.77-100.784 156.572-100.902 156.47-101.091 156.367-101.276 156.367-101.502 156.47-101.687L163.194-113.766C163.303-113.957 163.504-114.079 163.725-114.088L163.725-114.088C163.947-114.085 164.151-113.962 164.255-113.766L170.979-101.687C171.082-101.502 171.082-101.276 170.979-101.091 170.881-100.914 170.699-100.799 170.496-100.786ZM158.079-101.992 169.483-101.992 163.773-112.238Z" fill="#2C7BBA" transform="matrix(1 0 0 1.00088 996.025 908.38)"/><path d="M272.553-110.26C270.989-110.288 269.632-109.189 269.336-107.654L262.339-107.654 266.071-114.812 269.288-114.812C269.598-113.29 270.951-112.207 272.504-112.238 274.282-112.238 275.721-113.678 275.721-115.455 275.721-117.232 274.282-118.672 272.504-118.672 270.946-118.702 269.592-117.611 269.288-116.082L265.668-116.082C265.44-116.085 265.229-115.961 265.122-115.761L260.94-107.718 254.86-107.718 254.232-106.512 269.288-106.512C269.604-104.996 270.957-103.922 272.504-103.954 274.282-103.954 275.721-105.395 275.721-107.171 275.654-108.879 274.261-110.235 272.553-110.26ZM272.553-117.401C273.643-117.455 274.571-116.613 274.626-115.522 274.628-115.483 274.628-115.445 274.628-115.407 274.584-114.297 273.663-113.426 272.553-113.444 271.43-113.417 270.497-114.301 270.462-115.423 270.487-116.551 271.424-117.444 272.551-117.417 272.553-117.417 272.553-117.417 272.553-117.417ZM272.553-105.096C271.43-105.069 270.497-105.953 270.462-107.075 270.497-108.197 271.43-109.08 272.553-109.053 273.653-109.098 274.581-108.241 274.626-107.141 274.628-107.108 274.628-107.075 274.628-107.043 274.576-105.94 273.656-105.078 272.553-105.096Z" fill="#FFFFFF" transform="matrix(1 0 0 1.00088 996.025 908.38)"/><path d="M234.384-106.448 241.429-106.448C241.746-104.932 243.099-103.857 244.646-103.89 246.182-103.894 247.512-104.953 247.863-106.448L254.297-106.448 254.924-107.654 247.911-107.654C247.615-109.189 246.258-110.288 244.694-110.26 244.049-110.264 243.417-110.08 242.877-109.729L240.786-111.82C241.183-112.337 241.403-112.969 241.413-113.621 241.413-115.398 239.973-116.838 238.196-116.838 236.568-116.938 235.126-115.804 234.834-114.2L225.521-114.2C225.217-115.729 223.863-116.82 222.305-116.79 220.529-116.834 219.052-115.43 219.009-113.654 219.007-113.627 219.007-113.6 219.007-113.573 219.033-112.021 220.162-110.709 221.693-110.453L221.693-108.957C220.374-108.744 219.326-107.739 219.055-106.431L208.263-106.431 208.263-107.236C208.255-107.94 207.68-108.506 206.976-108.506L206.027-108.506C205.852-109.053 205.647-109.59 205.416-110.115L206.043-110.742C206.54-111.237 206.543-112.042 206.048-112.539 206.046-112.541 206.045-112.542 206.043-112.544L204.065-114.522C203.569-115.019 202.765-115.021 202.268-114.526 202.266-114.525 202.265-114.523 202.263-114.522L201.555-113.879C201.033-114.144 200.496-114.381 199.947-114.586L199.947-115.471C199.939-116.175 199.365-116.742 198.66-116.742L195.878-116.742C195.176-116.742 194.607-116.173 194.607-115.471L194.607-114.522C194.06-114.342 193.523-114.133 192.999-113.895L192.452-114.458C191.942-114.977 191.105-114.985 190.586-114.474 190.581-114.469 190.575-114.463 190.57-114.458L188.607-112.592C188.125-112.088 188.125-111.294 188.607-110.79L189.251-110.099C188.993-109.6 188.784-109.085 188.559-108.49L187.675-108.49C186.973-108.49 186.404-107.921 186.404-107.22L186.404-106.415 175.322-106.415C174.952-112.463 169.863-117.133 163.805-116.983 157.49-117.099 152.277-112.074 152.16-105.759 152.16-105.747 152.16-105.735 152.16-105.724 152.217-101.666 154.488-97.9634 158.079-96.073L156.02-92.2931C155.876-91.9946 155.988-91.6353 156.277-91.4728 156.367-91.4522 156.461-91.4522 156.551-91.4728 156.779-91.4696 156.99-91.5936 157.098-91.7945L159.141-95.7192C160.607-95.1017 162.182-94.7845 163.773-94.7862 169.772-94.7385 174.802-99.3118 175.322-105.289L186.452-105.289 186.452-104.55C186.452-103.848 187.021-103.279 187.723-103.279L188.672-103.279C188.845-102.732 189.05-102.195 189.283-101.67L188.656-101.043C188.173-100.539 188.173-99.7454 188.656-99.2417L190.634-97.2794C191.129-96.7819 191.934-96.7799 192.431-97.2748 192.432-97.2763 192.434-97.2779 192.436-97.2794L193.143-97.9067C193.664-97.6438 194.202-97.4129 194.752-97.215L194.752-96.3304C194.752-95.6286 195.321-95.0597 196.022-95.0597L198.805-95.0597C199.506-95.0508 200.082-95.6125 200.092-96.3141 200.092-96.3196 200.092-96.3249 200.092-96.3304L200.092-97.2794C200.639-97.4531 201.176-97.6572 201.7-97.8906L202.328-97.2794C202.823-96.7819 203.627-96.7799 204.124-97.2748 204.126-97.2763 204.127-97.2779 204.129-97.2794L206.107-99.2417C206.604-99.7366 206.608-100.541 206.112-101.039 206.111-101.04 206.109-101.042 206.107-101.043L205.464-101.751C205.726-102.273 205.958-102.81 206.156-103.359L207.04-103.359C207.742-103.35 208.317-103.912 208.327-104.614 208.327-104.619 208.327-104.625 208.327-104.63L208.327-105.418 219.12-105.418C219.43-103.896 220.783-102.813 222.337-102.845 224.114-102.845 225.554-104.285 225.554-106.062 225.576-107.65 224.434-109.016 222.868-109.278L222.868-110.774C224.166-111.022 225.193-112.012 225.489-113.3L234.834-113.3C234.926-112.865 235.106-112.454 235.365-112.093L232.985-109.97C232.443-110.334 231.804-110.525 231.151-110.517 229.375-110.57 227.892-109.174 227.839-107.398 227.838-107.365 227.838-107.333 227.838-107.3 227.857-105.737 228.997-104.413 230.54-104.164L230.54-102.073C229.002-101.824 227.865-100.509 227.838-98.9521 227.838-97.1755 229.277-95.7346 231.053-95.7338 231.085-95.7338 231.119-95.7343 231.151-95.7352 232.69-95.7412 234.024-96.8076 234.368-98.3088L236.33-98.3088C236.641-96.7868 237.993-95.7039 239.547-95.7352 241.101-95.7039 242.454-96.7868 242.764-98.3088L249.89-98.3088 250.517-99.5151 242.877-99.5151C242.573-101.043 241.218-102.135 239.66-102.105 238.101-102.135 236.747-101.043 236.443-99.5151L234.481-99.5151C234.212-100.818 233.171-101.822 231.859-102.04L231.859-104.147C233.072-104.367 234.053-105.26 234.384-106.448ZM244.662-109.053C245.762-109.098 246.69-108.241 246.735-107.141 246.737-107.113 246.737-107.086 246.737-107.059 246.694-105.95 245.772-105.078 244.662-105.096 243.543-105.061 242.608-105.938 242.571-107.057 242.571-107.063 242.571-107.069 242.571-107.075 242.597-108.194 243.525-109.08 244.644-109.054 244.651-109.054 244.656-109.053 244.662-109.053ZM163.757-95.9283C158.128-95.8023 153.458-100.256 153.318-105.885 153.458-111.516 158.125-115.974 163.757-115.857 169.325-115.999 173.954-111.601 174.096-106.033 174.098-105.956 174.099-105.88 174.099-105.804 173.89-100.257 169.308-95.8808 163.757-95.9283ZM206.992-104.437 206.107-104.437C205.551-104.433 205.064-104.068 204.901-103.536 204.76-103.081 204.576-102.64 204.354-102.217 204.092-101.724 204.184-101.116 204.579-100.721L205.207-99.9976 203.132-98.0353 202.504-98.6465C202.118-99.0453 201.517-99.1434 201.025-98.8878 200.597-98.6604 200.151-98.472 199.69-98.3249 199.157-98.1664 198.797-97.6734 198.805-97.1185L198.805-96.1695 195.958-96.1695 195.958-97.0542C195.96-97.6118 195.593-98.1032 195.057-98.2605 194.602-98.408 194.16-98.5964 193.738-98.8235 193.553-98.9166 193.351-98.9661 193.143-98.9682 192.802-98.9708 192.476-98.8309 192.243-98.5822L191.519-97.971 189.54-100.03 190.168-100.657C190.575-101.047 190.666-101.661 190.393-102.153 190.177-102.578 189.996-103.019 189.846-103.472 189.688-104.007 189.198-104.374 188.64-104.373L187.691-104.373 187.691-107.236 188.575-107.236C189.13-107.227 189.622-107.588 189.782-108.12 189.93-108.578 190.113-109.025 190.328-109.455 190.599-109.942 190.507-110.551 190.103-110.935L189.476-111.659 191.406-113.766C191.406-113.766 191.535-113.766 191.583-113.766L192.13-113.219C192.524-112.823 193.132-112.732 193.626-112.994 194.047-113.216 194.49-113.399 194.945-113.541 195.479-113.709 195.844-114.203 195.845-114.763L195.845-115.712 198.709-115.712 198.709-114.828C198.704-114.27 199.062-113.775 199.593-113.605 200.053-113.46 200.499-113.278 200.928-113.058 201.416-112.793 202.02-112.885 202.408-113.283L203.035-113.911 205.11-111.836 204.483-111.209C204.084-110.822 203.992-110.217 204.258-109.729 204.48-109.301 204.663-108.854 204.805-108.394 204.967-107.865 205.458-107.506 206.011-107.509L206.976-107.509ZM224.396-105.869C224.344-104.766 223.424-103.904 222.321-103.922 221.201-103.886 220.267-104.764 220.23-105.883 220.23-105.889 220.23-105.895 220.23-105.901 220.255-107.02 221.183-107.906 222.303-107.88 222.309-107.879 222.314-107.879 222.321-107.879 223.43-107.915 224.359-107.044 224.394-105.934 224.396-105.912 224.396-105.89 224.396-105.869ZM222.321-111.659C221.198-111.632 220.265-112.515 220.23-113.637 220.255-114.765 221.192-115.658 222.319-115.632 222.321-115.632 222.321-115.632 222.321-115.632 223.43-115.667 224.359-114.796 224.394-113.687 224.396-113.665 224.396-113.643 224.396-113.621 224.352-112.512 223.43-111.641 222.321-111.659ZM238.084-115.632C239.193-115.676 240.128-114.813 240.173-113.703 240.174-113.676 240.174-113.649 240.174-113.621 240.123-112.509 239.197-111.64 238.084-111.659 236.964-111.641 236.036-112.519 235.993-113.637 236.028-114.749 236.938-115.632 238.051-115.632ZM236.25-110.983C236.797-110.63 237.432-110.44 238.084-110.437 238.724-110.443 239.349-110.632 239.885-110.983L241.96-108.892C241.694-108.516 241.508-108.089 241.413-107.638L234.384-107.638C234.307-108.079 234.132-108.497 233.869-108.86ZM239.579-100.689C240.68-100.734 241.608-99.8775 241.653-98.777 241.654-98.7442 241.654-98.7115 241.654-98.6787 241.596-97.6131 240.726-96.7722 239.66-96.7486 238.54-96.7127 237.606-97.5906 237.569-98.7093 237.569-98.7152 237.569-98.721 237.569-98.727 237.595-99.846 238.523-100.732 239.642-100.706 239.649-100.706 239.653-100.706 239.66-100.705ZM233.226-98.6948C233.174-97.5919 232.254-96.7299 231.151-96.7486 230.024-96.7125 229.079-97.5973 229.044-98.7249 229.044-98.7257 229.044-98.7263 229.044-98.727 229.079-99.8547 230.022-100.74 231.149-100.705 231.149-100.705 231.151-100.705 231.151-100.705 232.251-100.75 233.179-99.8936 233.224-98.7931 233.226-98.7603 233.226-98.7276 233.226-98.6948ZM231.151-105.129C230.024-105.093 229.079-105.977 229.044-107.105 229.044-107.106 229.044-107.106 229.044-107.107 229.079-108.235 230.022-109.12 231.149-109.085 231.149-109.085 231.151-109.085 231.151-109.085 232.251-109.13 233.179-108.274 233.224-107.173 233.226-107.135 233.226-107.097 233.226-107.059 233.183-105.956 232.271-105.087 231.167-105.096Z" fill="#2C7BBA" transform="matrix(1 0 0 1.00088 996.025 908.38)"/><path d="M178.538-123.658C176.534-121.792 173.876-120.792 171.14-120.875 164.999-120.591 159.79-125.338 159.506-131.479 159.5-131.617 159.496-131.755 159.494-131.893 159.491-137.916 164.371-142.801 170.393-142.804 170.514-142.804 170.635-142.802 170.754-142.799 173.599-142.904 176.362-141.834 178.394-139.839L176.512-137.378C174.947-138.825 172.885-139.614 170.754-139.582 166.713-139.685 163.355-136.493 163.252-132.452 163.247-132.266 163.249-132.079 163.258-131.893 163.194-127.603 166.618-124.073 170.908-124.008 171.04-124.006 171.17-124.007 171.3-124.012 173.35-123.963 175.349-124.653 176.93-125.958Z" fill="#2C7BBA" transform="matrix(1 0 0 1.00088 996.025 908.38)"/><path d="M180.34-114.2 185.278-123.095 179.375-135.271 182.994-135.271 187.128-126.441 191.245-135.271 195.009-135.271 184.023-114.2Z" fill="#2C7BBA" transform="matrix(1 0 0 1.00088 996.025 908.38)"/><path d="M207.635-120.875C201.491-120.794 196.415-125.654 196.232-131.797 196.389-137.971 201.493-142.866 207.668-142.766 213.768-142.935 218.85-138.127 219.018-132.026 219.022-131.923 219.023-131.82 219.023-131.716 218.797-125.612 213.744-120.801 207.635-120.875ZM207.635-139.55C203.434-139.585 199.999-136.208 199.963-132.006 199.963-131.969 199.963-131.931 199.963-131.893 199.968-127.687 203.288-124.233 207.491-124.06 211.718-123.989 215.203-127.359 215.274-131.587 215.276-131.64 215.276-131.695 215.276-131.749 215.364-135.967 212.017-139.459 207.798-139.548 207.743-139.549 207.69-139.55 207.635-139.55Z" fill="#2C7BBA" transform="matrix(1 0 0 1.00088 996.025 908.38)"/><path d="M226.004-121.342 226.004-139.035 219.844-139.035 219.844-142.252 235.703-142.252 235.703-139.035 229.559-139.035 229.559-121.342Z" fill="#2C7BBA" transform="matrix(1 0 0 1.00088 996.025 908.38)"/><path d="M238.518-121.358 238.518-142.268 251.53-142.268 251.53-139.051 242.072-139.051 242.072-133.502 251.53-133.502 251.53-130.285 242.072-130.285 242.072-124.623 251.53-124.623 251.53-121.406 238.518-121.406Z" fill="#2C7BBA" transform="matrix(1 0 0 1.00088 996.025 908.38)"/></g></svg>