<svg width="342" height="61" xmlns="http://www.w3.org/2000/svg" xmlns:xlink="http://www.w3.org/1999/xlink" overflow="hidden"><defs><clipPath id="clip0"><rect x="1138" y="348" width="342" height="61"/></clipPath></defs><g clip-path="url(#clip0)" transform="translate(-1138 -348)"><path d="M297.229-138.257C295.939-137.038 294.221-136.381 292.446-136.429 288.457-136.258 285.083-139.353 284.912-143.343 284.908-143.416 284.907-143.489 284.905-143.562 284.894-147.466 288.05-150.639 291.953-150.65 292.03-150.65 292.108-150.649 292.185-150.647 294.01-150.693 295.778-149.998 297.082-148.721L295.858-147.088C294.862-148.021 293.55-148.541 292.185-148.541 289.564-148.623 287.371-146.565 287.288-143.943 287.285-143.843 287.285-143.743 287.288-143.644 287.241-140.859 289.462-138.563 292.247-138.517 292.33-138.515 292.412-138.516 292.495-138.519 293.813-138.483 295.099-138.924 296.119-139.759Z" fill="#FFFFFF" transform="matrix(1 0 0 1.00269 991.889 499.87)"/><path d="M297.082-132.218 300.347-137.915 296.527-145.815 298.878-145.815 301.555-140.086 304.232-145.815 306.68-145.815 299.514-132.218Z" fill="#FFFFFF" transform="matrix(1 0 0 1.00269 991.889 499.87)"/><path d="M307.692-151.463 309.814-151.463 309.814-145.276C310.624-145.794 311.562-146.071 312.524-146.076 314.894-146.008 316.76-144.031 316.691-141.661 316.688-141.555 316.681-141.448 316.67-141.343 316.748-138.711 314.68-136.514 312.049-136.435 311.886-136.43 311.722-136.434 311.561-136.446 310.186-136.448 308.84-136.839 307.676-137.572ZM309.814-138.666C310.343-138.373 310.94-138.227 311.544-138.241 313.076-138.17 314.373-139.354 314.445-140.885 314.452-141.021 314.447-141.158 314.434-141.294 314.434-142.926 313.601-144.281 312.067-144.281 311.236-144.259 310.439-143.947 309.814-143.399Z" fill="#FFFFFF" transform="matrix(1 0 0 1.00269 991.889 499.87)"/><path d="M326.856-137.67C325.749-136.861 324.405-136.441 323.036-136.478 320.514-136.242 318.278-138.095 318.041-140.618 318.023-140.815 318.018-141.014 318.025-141.212 317.852-143.739 319.762-145.928 322.288-146.101 322.445-146.112 322.602-146.114 322.758-146.109 325.137-146.182 327.125-144.313 327.198-141.934 327.203-141.758 327.198-141.583 327.182-141.408L327.182-140.526 320.212-140.526C320.343-139.367 321.404-138.29 323.477-138.29 324.492-138.279 325.483-138.613 326.284-139.237ZM324.978-142.191C324.988-143.399 324.017-144.386 322.809-144.396 322.781-144.396 322.754-144.396 322.726-144.395 321.443-144.435 320.349-143.47 320.228-142.191Z" fill="#FFFFFF" transform="matrix(1 0 0 1.00269 991.889 499.87)"/><path d="M328.994-136.739 328.994-145.815 331.116-145.815 331.116-144.411C331.312-144.836 332.03-146.044 333.091-146.044 333.666-146.054 334.232-145.901 334.723-145.603L333.94-143.644C333.592-143.91 333.169-144.058 332.732-144.068 331.704-144.068 331.1-142.926 331.1-141.783L331.1-136.739Z" fill="#FFFFFF" transform="matrix(1 0 0 1.00269 991.889 499.87)"/><path d="M335.833-139.172C336.519-138.526 337.407-138.139 338.347-138.078 339.18-138.078 339.702-138.519 339.702-139.106 339.702-140.739 335.686-140.983 335.686-143.497 335.801-145.053 337.154-146.221 338.71-146.107 338.757-146.103 338.806-146.099 338.853-146.093 339.927-146.09 340.972-145.735 341.824-145.081L341.024-143.595C340.512-144.114 339.826-144.428 339.098-144.477 338.429-144.477 337.923-144.101 337.923-143.562 337.923-142.061 341.857-141.93 341.857-139.221 341.857-137.588 340.518-136.478 338.461-136.478 337.224-136.47 336.019-136.885 335.05-137.653Z" fill="#FFFFFF" transform="matrix(1 0 0 1.00269 991.889 499.87)"/><path d="M352.026-137.67C350.919-136.861 349.576-136.441 348.206-136.478 345.684-136.242 343.448-138.095 343.211-140.618 343.193-140.815 343.189-141.014 343.195-141.212 343.022-143.739 344.93-145.928 347.457-146.101 347.62-146.113 347.782-146.115 347.945-146.109 350.325-146.173 352.305-144.296 352.369-141.917 352.374-141.747 352.369-141.577 352.352-141.408L352.352-140.526 345.382-140.526C345.513-139.367 346.574-138.29 348.565-138.29 349.581-138.279 350.572-138.613 351.373-139.237ZM350.149-142.191C350.159-143.399 349.187-144.386 347.979-144.396 347.952-144.396 347.924-144.396 347.896-144.395 346.613-144.435 345.52-143.47 345.399-142.191Z" fill="#FFFFFF" transform="matrix(1 0 0 1.00269 991.889 499.87)"/><path d="M361.901-137.784C360.938-136.889 359.657-136.418 358.343-136.478 355.738-136.531 353.65-138.655 353.642-141.261 353.696-143.927 355.872-146.06 358.539-146.06 359.659-146.069 360.747-145.695 361.624-144.999L360.808-143.367C360.214-143.923 359.433-144.237 358.621-144.248 357.07-144.234 355.824-142.965 355.839-141.415 355.839-141.358 355.842-141.301 355.846-141.245 355.746-139.67 356.943-138.313 358.516-138.214 358.557-138.211 358.596-138.209 358.637-138.208 359.61-138.182 360.55-138.56 361.232-139.253Z" fill="#FFFFFF" transform="matrix(1 0 0 1.00269 991.889 499.87)"/><path d="M369.41-145.815 371.532-145.815 371.532-137.653C370.396-136.75 368.965-136.302 367.517-136.397 365.117-136.397 363.436-137.556 363.436-139.906L363.436-145.733 365.639-145.733 365.639-140.428C365.639-138.633 366.652-138.16 367.81-138.16 368.39-138.145 368.961-138.31 369.443-138.633Z" fill="#FFFFFF" transform="matrix(1 0 0 1.00269 991.889 499.87)"/><path d="M373.801-136.739 373.801-145.815 375.923-145.815 375.923-144.411C376.119-144.836 376.837-146.044 377.898-146.044 378.473-146.054 379.039-145.901 379.531-145.603L378.698-143.644C378.359-143.912 377.939-144.061 377.506-144.068 376.478-144.068 375.874-142.926 375.874-141.783L375.874-136.739Z" fill="#FFFFFF" transform="matrix(1 0 0 1.00269 991.889 499.87)"/><path d="M380.575-148.737C380.512-149.464 381.049-150.106 381.777-150.17 381.839-150.176 381.901-150.177 381.963-150.173 382.683-150.201 383.29-149.64 383.318-148.919 383.319-148.88 383.319-148.841 383.318-148.802 383.345-148.082 382.784-147.475 382.062-147.447 382.03-147.446 381.995-147.446 381.963-147.447 381.243-147.402 380.623-147.949 380.578-148.669 380.577-148.692 380.575-148.714 380.575-148.737ZM380.869-136.739 380.869-145.815 382.991-145.815 382.991-136.739Z" fill="#FFFFFF" transform="matrix(1 0 0 1.00269 991.889 499.87)"/><path d="M386.288-136.739 386.288-144.068 384.656-144.068 384.656-145.799 386.288-145.799 386.288-148.9 388.492-148.9 388.492-145.799 390.712-145.799 390.712-144.068 388.492-144.068 388.492-136.739Z" fill="#FFFFFF" transform="matrix(1 0 0 1.00269 991.889 499.87)"/><path d="M391.495-132.218 394.76-137.98 390.94-145.88 393.291-145.88 395.968-140.151 398.645-145.88 401.077-145.88 393.879-132.218Z" fill="#FFFFFF" transform="matrix(1 0 0 1.00269 991.889 499.87)"/><path d="M407.215-136.739 407.215-144.068 405.68-144.068 405.68-145.799 407.215-145.799 407.215-147.578C407.164-148.564 407.451-149.537 408.031-150.337 408.747-151.064 409.737-151.455 410.757-151.414 411.607-151.426 412.445-151.2 413.173-150.761L412.34-149.129C411.913-149.439 411.4-149.611 410.871-149.618 409.81-149.618 409.239-148.868 409.239-147.611L409.239-145.799 411.524-145.799 411.524-144.068 409.239-144.068 409.239-136.739Z" fill="#FFFFFF" transform="matrix(1 0 0 1.00269 991.889 499.87)"/><path d="M417.253-136.478C414.604-136.424 412.412-138.528 412.358-141.178 412.356-141.2 412.356-141.222 412.356-141.245 412.356-143.949 414.549-146.142 417.253-146.142 419.903-146.196 422.097-144.092 422.15-141.443 422.152-141.376 422.152-141.311 422.15-141.245 422.08-138.591 419.908-136.477 417.253-136.478ZM419.898-141.245C420.045-142.77 418.927-144.126 417.4-144.272 417.363-144.276 417.324-144.279 417.286-144.281 415.745-144.226 414.54-142.933 414.594-141.393 414.598-141.327 414.603-141.261 414.609-141.196 414.526-139.647 415.714-138.325 417.262-138.241 417.265-138.241 417.267-138.241 417.27-138.241 418.739-138.247 419.926-139.443 419.921-140.912 419.919-141.023 419.912-141.134 419.898-141.245Z" fill="#FFFFFF" transform="matrix(1 0 0 1.00269 991.889 499.87)"/><path d="M423.962-136.739 423.962-145.815 426.035-145.815 426.035-144.411C426.231-144.836 426.949-146.044 428.01-146.044 428.585-146.054 429.151-145.901 429.643-145.603L428.892-143.644C428.552-143.912 428.133-144.061 427.7-144.068 426.672-144.068 426.068-142.926 426.068-141.783L426.068-136.739Z" fill="#FFFFFF" transform="matrix(1 0 0 1.00269 991.889 499.87)"/><path d="M436.139-136.739 436.139-144.068 434.425-144.068 434.425-145.799 436.139-145.799 436.139-148.9 438.261-148.9 438.261-145.799 440.481-145.799 440.481-144.068 438.261-144.068 438.261-136.739Z" fill="#FFFFFF" transform="matrix(1 0 0 1.00269 991.889 499.87)"/><path d="M447.876-136.739 447.876-141.636C447.876-143.269 447.598-144.15 446.113-144.15 445.311-144.09 444.565-143.714 444.04-143.105L444.04-136.69 441.918-136.69 441.918-151.381 443.991-151.381 443.991-144.852C444.782-145.588 445.816-146.006 446.896-146.027 448.871-146.027 449.949-145.048 449.949-142.763L449.949-136.707Z" fill="#FFFFFF" transform="matrix(1 0 0 1.00269 991.889 499.87)"/><path d="M460.608-137.67C459.5-136.866 458.158-136.448 456.788-136.478 454.266-136.242 452.03-138.095 451.793-140.618 451.775-140.815 451.77-141.014 451.777-141.212 451.604-143.739 453.512-145.928 456.041-146.101 456.197-146.112 456.354-146.114 456.511-146.109 458.889-146.182 460.877-144.313 460.951-141.934 460.956-141.758 460.951-141.583 460.934-141.408L460.934-140.526 453.964-140.526C454.095-139.367 455.156-138.29 457.147-138.29 458.159-138.275 459.145-138.609 459.939-139.237ZM458.682-142.191C458.691-143.399 457.72-144.386 456.512-144.396 456.485-144.396 456.457-144.396 456.429-144.395 455.146-144.435 454.052-143.47 453.932-142.191Z" fill="#FFFFFF" transform="matrix(1 0 0 1.00269 991.889 499.87)"/><path d="M292.316-113.577C288.31-113.495 284.995-116.672 284.905-120.677 284.985-124.688 288.302-127.875 292.312-127.794 292.314-127.794 292.314-127.794 292.316-127.794 296.272-127.902 299.566-124.783 299.674-120.827 299.676-120.761 299.677-120.695 299.677-120.628 299.553-116.665 296.281-113.53 292.316-113.577ZM292.316-125.705C289.613-125.777 287.362-123.644 287.29-120.94 287.288-120.891 287.288-120.841 287.288-120.792 287.287-118.054 289.449-115.804 292.185-115.699 294.888-115.617 297.146-117.742 297.227-120.446 297.231-120.528 297.231-120.611 297.229-120.694 297.283-123.398 295.135-125.634 292.432-125.688 292.392-125.688 292.355-125.689 292.316-125.689Z" fill="#FFFFFF" transform="matrix(1 0 0 1.00269 991.889 499.87)"/><path d="M301.44-109.365 301.44-122.244C302.678-122.901 304.055-123.248 305.456-123.256 308.002-123.411 310.193-121.472 310.346-118.926 310.356-118.781 310.358-118.635 310.353-118.49 310.578-116.021 308.76-113.837 306.29-113.612 306.164-113.6 306.039-113.594 305.913-113.593 305.041-113.632 304.204-113.94 303.513-114.475L303.513-109.365ZM303.611-116.401C304.189-115.758 305.015-115.395 305.88-115.405 307.137-115.405 308.215-116.58 308.215-118.408 308.345-119.945 307.204-121.295 305.668-121.425 305.528-121.437 305.386-121.438 305.244-121.428 304.64-121.437 304.044-121.291 303.513-121.004Z" fill="#FFFFFF" transform="matrix(1 0 0 1.00269 991.889 499.87)"/><path d="M320.539-114.817C319.43-114.011 318.088-113.593 316.719-113.626 314.197-113.39 311.961-115.243 311.724-117.765 311.706-117.963 311.701-118.161 311.708-118.359 311.535-120.887 313.443-123.076 315.971-123.248 316.128-123.259 316.285-123.262 316.441-123.256 318.82-123.33 320.808-121.46 320.881-119.081 320.886-118.906 320.881-118.73 320.865-118.555L320.865-117.674 313.895-117.674C314.026-116.515 315.087-115.438 317.078-115.438 318.09-115.422 319.076-115.757 319.869-116.384ZM318.661-119.339C318.671-120.547 317.7-121.534 316.492-121.543 316.464-121.544 316.436-121.543 316.409-121.542 315.126-121.583 314.032-120.618 313.911-119.339Z" fill="#FFFFFF" transform="matrix(1 0 0 1.00269 991.889 499.87)"/><path d="M322.677-113.887 322.677-122.963 324.832-122.963 324.832-121.559C325.027-121.983 325.746-123.191 326.807-123.191 327.381-123.202 327.948-123.049 328.439-122.75L327.623-120.792C327.275-121.057 326.852-121.206 326.415-121.216 325.387-121.216 324.783-120.073 324.783-118.931L324.783-113.887Z" fill="#FFFFFF" transform="matrix(1 0 0 1.00269 991.889 499.87)"/><path d="M336.911-114.85C335.753-114.002 334.345-113.571 332.911-113.626 329.941-113.626 328.684-115.258 328.684-116.89 328.847-118.686 330.435-120.009 332.231-119.846 332.234-119.846 332.239-119.845 332.242-119.845 333.189-119.891 334.124-119.609 334.887-119.045L334.887-120.106C334.887-120.955 334.413-121.494 332.895-121.494 332.025-121.499 331.162-121.321 330.365-120.971L329.712-122.604C330.78-123.101 331.945-123.352 333.124-123.338 336.127-123.338 336.911-121.918 336.911-119.731ZM334.887-117.38C334.278-117.875 333.517-118.146 332.732-118.147 331.524-118.147 330.904-117.445 330.904-116.743 330.904-116.042 331.524-115.307 332.928-115.307 333.612-115.297 334.288-115.466 334.887-115.797Z" fill="#FFFFFF" transform="matrix(1 0 0 1.00269 991.889 499.87)"/><path d="M339.996-113.887 339.996-121.216 338.363-121.216 338.363-122.946 339.996-122.946 339.996-126.048 342.118-126.048 342.118-122.946 344.419-122.946 344.419-121.216 342.183-121.216 342.183-113.887Z" fill="#FFFFFF" transform="matrix(1 0 0 1.00269 991.889 499.87)"/><path d="M345.562-125.884C345.534-126.614 346.104-127.228 346.834-127.255 346.861-127.256 346.889-127.256 346.917-127.256 347.637-127.293 348.25-126.739 348.288-126.018 348.29-125.974 348.29-125.929 348.288-125.884 348.306-125.154 347.73-124.548 347-124.529 346.972-124.528 346.945-124.529 346.917-124.53 346.197-124.502 345.59-125.064 345.562-125.785 345.56-125.818 345.56-125.851 345.562-125.884ZM345.856-113.887 345.856-122.963 347.978-122.963 347.978-113.887Z" fill="#FFFFFF" transform="matrix(1 0 0 1.00269 991.889 499.87)"/><path d="M354.752-113.626C352.103-113.572 349.91-115.676 349.857-118.326 349.855-118.348 349.855-118.37 349.855-118.392 349.855-121.097 352.047-123.289 354.752-123.289 357.401-123.344 359.595-121.24 359.649-118.59 359.651-118.524 359.651-118.458 359.649-118.392 359.579-115.739 357.406-113.625 354.752-113.626ZM357.478-118.392C357.625-119.918 356.507-121.273 354.98-121.42 354.943-121.423 354.904-121.426 354.866-121.428 353.325-121.401 352.098-120.129 352.126-118.588 352.127-118.506 352.132-118.424 352.14-118.343 352.057-116.795 353.245-115.472 354.793-115.389 354.796-115.389 354.798-115.389 354.801-115.389 356.27-115.367 357.478-116.541 357.499-118.01 357.502-118.138 357.494-118.266 357.478-118.392Z" fill="#FFFFFF" transform="matrix(1 0 0 1.00269 991.889 499.87)"/><path d="M367.419-113.887 367.419-118.784C367.419-120.416 367.141-121.298 365.656-121.298 364.854-121.238 364.108-120.862 363.583-120.253L363.583-113.838 361.461-113.838 361.461-122.914 363.583-122.914 363.583-121.983C364.374-122.719 365.408-123.137 366.488-123.158 368.463-123.158 369.541-122.179 369.541-119.894L369.541-113.838Z" fill="#FFFFFF" transform="matrix(1 0 0 1.00269 991.889 499.87)"/><path d="M379.351-114.85C378.187-114.003 376.774-113.572 375.335-113.626 372.381-113.626 371.124-115.258 371.124-116.89 371.287-118.686 372.876-120.009 374.671-119.846 374.674-119.846 374.679-119.845 374.683-119.845 375.624-119.891 376.553-119.609 377.311-119.045L377.311-120.106C377.311-120.955 376.854-121.494 375.319-121.494 374.449-121.495 373.587-121.317 372.789-120.971L372.136-122.604C373.204-123.101 374.369-123.352 375.548-123.338 378.551-123.338 379.351-121.918 379.351-119.731ZM377.311-117.38C376.702-117.875 375.941-118.146 375.156-118.147 373.964-118.147 373.328-117.445 373.328-116.743 373.328-116.042 373.964-115.307 375.352-115.307 376.036-115.295 376.712-115.464 377.311-115.797Z" fill="#FFFFFF" transform="matrix(1 0 0 1.00269 991.889 499.87)"/><path d="M381.571-113.887 381.571-128.578 383.693-128.578 383.693-113.887Z" fill="#FFFFFF" transform="matrix(1 0 0 1.00269 991.889 499.87)"/><path d="M393.503-113.887 393.503-125.313 389.504-125.313 389.504-127.403 399.788-127.403 399.788-125.313 395.805-125.313 395.805-113.887Z" fill="#FFFFFF" transform="matrix(1 0 0 1.00269 991.889 499.87)"/><path d="M408.08-114.817C406.973-114.008 405.63-113.589 404.26-113.626 401.738-113.39 399.502-115.243 399.265-117.765 399.247-117.963 399.242-118.161 399.249-118.359 399.076-120.887 400.986-123.076 403.513-123.248 403.669-123.259 403.826-123.262 403.983-123.256 406.361-123.33 408.349-121.46 408.423-119.081 408.427-118.906 408.423-118.73 408.406-118.555L408.406-117.674 401.387-117.674C401.518-116.515 402.579-115.438 404.57-115.438 405.586-115.426 406.576-115.76 407.378-116.384ZM406.203-119.339C406.212-120.547 405.241-121.534 404.033-121.543 404.006-121.544 403.978-121.543 403.95-121.542 402.667-121.583 401.573-120.618 401.453-119.339Z" fill="#FFFFFF" transform="matrix(1 0 0 1.00269 991.889 499.87)"/><path d="M417.874-114.932C416.907-114.032 415.618-113.561 414.299-113.626 411.738-113.739 409.719-115.845 409.712-118.408 409.766-121.075 411.942-123.208 414.609-123.207 415.729-123.217 416.818-122.842 417.694-122.146L416.878-120.514C416.284-121.07 415.504-121.385 414.691-121.396 413.132-121.391 411.87-120.123 411.875-118.563 411.875-118.495 411.878-118.427 411.883-118.359 411.8-116.784 413.011-115.44 414.586-115.357 414.594-115.357 414.601-115.356 414.609-115.356 415.577-115.324 416.514-115.704 417.188-116.401Z" fill="#FFFFFF" transform="matrix(1 0 0 1.00269 991.889 499.87)"/><path d="M425.464-113.887 425.464-118.784C425.464-120.416 425.187-121.298 423.717-121.298 422.911-121.233 422.163-120.859 421.628-120.253L421.628-113.838 419.506-113.838 419.506-128.529 421.628-128.529 421.628-122C422.421-122.731 423.455-123.149 424.534-123.175 426.509-123.175 427.586-122.195 427.586-119.91L427.586-113.854Z" fill="#FFFFFF" transform="matrix(1 0 0 1.00269 991.889 499.87)"/><path d="M435.829-113.887 435.829-118.784C435.829-120.416 435.535-121.298 434.066-121.298 433.265-121.238 432.519-120.862 431.993-120.253L431.993-113.838 429.871-113.838 429.871-122.914 431.993-122.914 431.993-121.983C432.785-122.719 433.818-123.137 434.899-123.158 436.874-123.158 437.951-122.179 437.951-119.894L437.951-113.838Z" fill="#FFFFFF" transform="matrix(1 0 0 1.00269 991.889 499.87)"/><path d="M444.595-113.626C441.954-113.563 439.761-115.652 439.699-118.293 439.698-118.326 439.698-118.359 439.698-118.392 439.698-121.097 441.89-123.289 444.595-123.289 447.244-123.344 449.438-121.24 449.492-118.59 449.493-118.524 449.493-118.458 449.492-118.392 449.422-115.739 447.249-113.625 444.595-113.626ZM447.255-118.392C447.401-119.918 446.283-121.273 444.758-121.419 444.714-121.423 444.671-121.426 444.627-121.428 443.087-121.401 441.859-120.129 441.887-118.588 441.888-118.506 441.893-118.424 441.901-118.343 441.818-116.795 443.007-115.473 444.556-115.39 444.562-115.389 444.57-115.389 444.578-115.389 446.048-115.367 447.255-116.541 447.277-118.01 447.28-118.138 447.272-118.266 447.255-118.392Z" fill="#FFFFFF" transform="matrix(1 0 0 1.00269 991.889 499.87)"/><path d="M451.336-113.887 451.336-128.578 453.458-128.578 453.458-113.887Z" fill="#FFFFFF" transform="matrix(1 0 0 1.00269 991.889 499.87)"/><path d="M460.2-113.626C457.559-113.563 455.366-115.652 455.304-118.293 455.303-118.326 455.303-118.359 455.303-118.392 455.303-121.097 457.495-123.289 460.2-123.289 462.849-123.344 465.043-121.24 465.097-118.59 465.098-118.524 465.098-118.458 465.097-118.392 465.027-115.739 462.854-113.625 460.2-113.626ZM462.86-118.392C463.009-119.917 461.894-121.275 460.368-121.423 460.35-121.425 460.332-121.427 460.314-121.428 458.773-121.401 457.546-120.129 457.573-118.588 457.575-118.506 457.58-118.424 457.588-118.343 457.505-116.795 458.693-115.473 460.242-115.39 460.25-115.389 460.257-115.389 460.265-115.389 461.734-115.412 462.906-116.623 462.882-118.092 462.88-118.192 462.873-118.293 462.86-118.392Z" fill="#FFFFFF" transform="matrix(1 0 0 1.00269 991.889 499.87)"/><path d="M473.128-114.703C472.472-114.045 471.592-113.66 470.663-113.626 468.205-113.727 466.293-115.803 466.394-118.262 466.396-118.311 466.399-118.36 466.403-118.408 466.334-120.995 468.374-123.147 470.962-123.216 471.107-123.22 471.252-123.217 471.397-123.207 472.743-123.254 474.074-122.932 475.25-122.277L475.25-113.463C475.495-111.258 473.906-109.273 471.701-109.029 471.427-108.998 471.149-108.996 470.875-109.023 469.435-109.004 468.017-109.382 466.778-110.116L467.659-111.749C468.598-111.127 469.7-110.798 470.826-110.802 471.983-110.683 473.017-111.524 473.136-112.681 473.154-112.849 473.151-113.018 473.128-113.185ZM473.128-121.085C472.617-121.328 472.06-121.461 471.495-121.477 469.992-121.543 468.719-120.378 468.652-118.874 468.645-118.718 468.652-118.563 468.671-118.408 468.671-117.119 469.406-115.405 471.087-115.405 471.923-115.378 472.711-115.793 473.16-116.499Z" fill="#FFFFFF" transform="matrix(1 0 0 1.00269 991.889 499.87)"/><path d="M476.98-109.365 480.245-115.127 476.425-123.028 478.776-123.028 481.453-117.298 484.13-123.028 486.431-123.028 479.363-109.365Z" fill="#FFFFFF" transform="matrix(1 0 0 1.00269 991.889 499.87)"/><path d="M285.656-91.0508 285.656-104.615 293.524-104.615 293.524-102.526 287.957-102.526 287.957-99.2613 292.446-99.2613 292.446-97.1883 287.957-97.1883 287.957-93.1075 294.095-93.1075 294.095-91.0181Z" fill="#FFFFFF" transform="matrix(1 0 0 1.00269 991.889 499.87)"/><path d="M301.799-91.0344 301.799-95.9314C301.799-97.5637 301.506-98.4452 300.037-98.4452 299.232-98.3809 298.483-98.0064 297.947-97.4005L297.947-90.9855 295.825-90.9855 295.825-100.061 297.947-100.061 297.947-99.1307C298.742-99.8601 299.774-100.278 300.853-100.306 302.828-100.306 303.922-99.3266 303.922-97.0414L303.922-90.9855Z" fill="#FFFFFF" transform="matrix(1 0 0 1.00269 991.889 499.87)"/><path d="M309.227-90.6264 304.803-100.11 307.17-100.11 309.145-95.4743C309.351-95.0482 309.504-94.5988 309.602-94.1358L309.602-94.1358C309.687-94.5999 309.835-95.0503 310.043-95.4743L312.001-100.11 314.319-100.11 309.961-90.6264Z" fill="#FFFFFF" transform="matrix(1 0 0 1.00269 991.889 499.87)"/><path d="M315.217-103.032C315.189-103.762 315.759-104.375 316.489-104.403 316.517-104.404 316.544-104.404 316.572-104.403 317.292-104.44 317.906-103.886 317.943-103.166 317.945-103.121 317.945-103.077 317.943-103.032 317.961-102.302 317.385-101.695 316.655-101.677 316.627-101.676 316.6-101.676 316.572-101.677 315.852-101.65 315.245-102.211 315.217-102.932 315.216-102.965 315.216-102.999 315.217-103.032ZM315.511-91.0344 315.511-100.11 317.633-100.11 317.633-91.0344Z" fill="#FFFFFF" transform="matrix(1 0 0 1.00269 991.889 499.87)"/><path d="M320.033-91.0344 320.033-100.11 322.155-100.11 322.155-98.7063C322.35-99.1307 323.069-100.339 324.13-100.339 324.704-100.349 325.271-100.196 325.762-99.8979L324.978-97.9392C324.631-98.2046 324.208-98.3531 323.771-98.3636 322.742-98.3636 322.138-97.2209 322.138-96.0783L322.138-91.0344Z" fill="#FFFFFF" transform="matrix(1 0 0 1.00269 991.889 499.87)"/><path d="M331.067-90.7733C328.418-90.7191 326.226-92.8233 326.172-95.4732 326.17-95.4954 326.17-95.5174 326.17-95.5396 326.214-98.2122 328.393-100.355 331.067-100.355 333.716-100.409 335.908-98.3048 335.962-95.6549 335.964-95.6165 335.964-95.578 335.964-95.5396 335.894-92.8863 333.721-90.7723 331.067-90.7733ZM333.711-95.5396C333.858-97.0652 332.74-98.4207 331.214-98.5671 331.176-98.5709 331.137-98.5736 331.1-98.5758 329.559-98.5483 328.331-97.2766 328.359-95.7352 328.361-95.6536 328.365-95.572 328.374-95.4907 328.29-93.9423 329.479-92.6201 331.028-92.5373 331.036-92.5368 331.042-92.5365 331.051-92.5362 332.52-92.5239 333.721-93.7052 333.734-95.1747 333.734-95.2966 333.728-95.4187 333.711-95.5396Z" fill="#FFFFFF" transform="matrix(1 0 0 1.00269 991.889 499.87)"/><path d="M343.734-91.0344 343.734-95.9314C343.734-97.5637 343.456-98.4452 341.971-98.4452 341.169-98.3818 340.425-98.0067 339.898-97.4005L339.898-90.9855 337.776-90.9855 337.776-100.061 339.898-100.061 339.898-99.1307C340.689-99.8666 341.723-100.285 342.803-100.306 344.778-100.306 345.856-99.3266 345.856-97.0414L345.856-90.9855Z" fill="#FFFFFF" transform="matrix(1 0 0 1.00269 991.889 499.87)"/><path d="M359.42-91.0344 359.42-96.7802C359.42-97.9555 358.931-98.4941 358-98.4941 357.191-98.4566 356.43-98.0913 355.895-97.4821L355.895-91.0344 353.773-91.0344 353.773-96.8781C353.773-98.0208 353.218-98.5105 352.254-98.5105 351.486-98.4401 350.772-98.0779 350.263-97.4984L350.263-91.0508 348.141-91.0508 348.141-100.126 350.263-100.126 350.263-99.1797C351.03-99.9133 352.042-100.338 353.103-100.371 354.07-100.442 354.976-99.9005 355.372-99.0165 356.28-99.817 357.429-100.294 358.637-100.371 360.498-100.371 361.542-99.3919 361.542-97.1067L361.542-91.0181Z" fill="#FFFFFF" transform="matrix(1 0 0 1.00269 991.889 499.87)"/><path d="M372.169-91.9649C371.062-91.1556 369.719-90.7364 368.349-90.7733 365.827-90.5372 363.591-92.3904 363.354-94.9127 363.336-95.1102 363.331-95.3087 363.338-95.507 363.165-98.0343 365.073-100.223 367.6-100.397 367.763-100.408 367.925-100.41 368.088-100.404 370.468-100.468 372.448-98.5913 372.512-96.2122 372.516-96.0422 372.512-95.8721 372.495-95.7029L372.495-94.8214 365.525-94.8214C365.656-93.6625 366.717-92.5851 368.79-92.5851 369.805-92.5739 370.796-92.9077 371.597-93.5319ZM370.292-96.4864C370.301-97.6943 369.33-98.6814 368.122-98.691 368.095-98.6912 368.067-98.6908 368.039-98.69 366.756-98.7302 365.662-97.7651 365.542-96.4864Z" fill="#FFFFFF" transform="matrix(1 0 0 1.00269 991.889 499.87)"/><path d="M380.33-91.0344 380.33-95.9314C380.33-97.5637 380.037-98.4452 378.567-98.4452 377.763-98.3809 377.014-98.0064 376.478-97.4005L376.478-90.9855 374.356-90.9855 374.356-100.061 376.478-100.061 376.478-99.1307C377.273-99.8601 378.305-100.278 379.384-100.306 381.359-100.306 382.436-99.3266 382.436-97.0414L382.436-90.9855Z" fill="#FFFFFF" transform="matrix(1 0 0 1.00269 991.889 499.87)"/><path d="M385.472-91.0344 385.472-98.3636 383.758-98.3636 383.758-100.094 385.472-100.094 385.472-103.195 387.578-103.195 387.578-100.094 389.814-100.094 389.814-98.3636 387.578-98.3636 387.578-91.0344Z" fill="#FFFFFF" transform="matrix(1 0 0 1.00269 991.889 499.87)"/><path d="M132.104 1.66497 101.449 60.4285 0 60.4285 0 1.66497 132.104 1.66497Z" fill="#FFFFFF" transform="matrix(1 0 0 1.00269 1139.61 348)"/><path d="M200.269-102.836C197.746-102.836 195.699-104.882 195.699-107.407 195.699-109.931 197.746-111.977 200.269-111.977 202.786-111.968 204.823-109.924 204.823-107.407 204.833-104.891 202.801-102.845 200.286-102.836 200.281-102.836 200.274-102.836 200.269-102.836ZM200.269-110.753C198.485-110.71 197.047-109.273 197.005-107.488 197.005-105.672 198.452-104.186 200.269-104.142 202.073-104.141 203.534-105.603 203.536-107.406 203.536-107.433 203.534-107.461 203.534-107.488 203.57-109.291 202.138-110.781 200.335-110.818 200.313-110.818 200.29-110.818 200.269-110.818Z" fill="#2C7BBA" transform="matrix(1 0 0 1.00269 991.889 499.87)"/><path d="M276.596-103.424C275.015-103.454 273.64-102.347 273.332-100.796L254.266-100.796 253.63-99.5715 273.316-99.5715C273.631-98.027 275.003-96.9279 276.58-96.9598 278.384-96.9598 279.845-98.4213 279.845-100.224 279.809-101.995 278.368-103.415 276.596-103.424ZM276.596-98.184C275.457-98.1566 274.51-99.0532 274.474-100.192 274.51-101.33 275.457-102.227 276.596-102.2 277.713-102.245 278.655-101.376 278.701-100.259 278.702-100.226 278.702-100.192 278.702-100.159 278.65-99.0398 277.716-98.1651 276.596-98.184Z" fill="#FFFFFF" transform="matrix(1 0 0 1.00269 991.889 499.87)"/><path d="M166.186-106.509C165.85-106.509 165.574-106.777 165.566-107.113L165.566-110.475C165.566-110.818 165.844-111.096 166.186-111.096 166.523-111.087 166.79-110.812 166.79-110.475L166.79-107.113C166.782-106.783 166.516-106.517 166.186-106.509Z" fill="#2C7BBA" transform="matrix(1 0 0 1.00269 991.889 499.87)"/><path d="M166.186-104.468C166.105-104.459 166.023-104.459 165.942-104.468 165.866-104.504 165.801-104.554 165.746-104.615 165.689-104.674 165.64-104.74 165.599-104.811 165.589-104.887 165.589-104.964 165.599-105.04 165.589-105.116 165.589-105.192 165.599-105.268L165.746-105.48C165.801-105.537 165.868-105.581 165.942-105.611 166.093-105.669 166.263-105.669 166.415-105.611L166.611-105.48C166.67-105.42 166.714-105.348 166.741-105.268 166.758-105.193 166.758-105.115 166.741-105.04 166.743-104.879 166.679-104.725 166.562-104.615L166.366-104.468Z" fill="#2C7BBA" transform="matrix(1 0 0 1.00269 991.889 499.87)"/><path d="M173.026-102.281 159.314-102.281C159.096-102.279 158.895-102.399 158.792-102.591 158.687-102.779 158.687-103.007 158.792-103.195L165.615-115.454C165.726-115.648 165.93-115.771 166.154-115.78L166.154-115.78C166.379-115.778 166.586-115.653 166.692-115.454L173.516-103.195C173.62-103.007 173.62-102.779 173.516-102.591 173.416-102.411 173.232-102.294 173.026-102.281ZM160.424-103.505 171.997-103.505 166.203-113.903Z" fill="#2C7BBA" transform="matrix(1 0 0 1.00269 991.889 499.87)"/><path d="M276.596-111.895C275.01-111.924 273.632-110.809 273.332-109.251L266.231-109.251 270.018-116.515 273.283-116.515C273.598-114.97 274.971-113.871 276.548-113.903 278.351-113.903 279.812-115.365 279.812-117.168 279.812-118.971 278.351-120.433 276.548-120.433 274.966-120.463 273.591-119.356 273.283-117.804L269.61-117.804C269.378-117.808 269.165-117.682 269.055-117.478L264.811-109.316 258.641-109.316 258.004-108.092 273.283-108.092C273.604-106.554 274.977-105.463 276.548-105.497 278.351-105.497 279.812-106.958 279.812-108.761 279.744-110.494 278.33-111.871 276.596-111.895ZM276.596-119.143C277.703-119.197 278.645-118.343 278.701-117.236 278.702-117.197 278.702-117.158 278.702-117.119 278.658-115.993 277.723-115.109 276.596-115.127 275.457-115.1 274.51-115.997 274.474-117.135 274.501-118.28 275.451-119.186 276.595-119.159 276.596-119.159 276.596-119.159 276.596-119.159ZM276.596-106.656C275.457-106.628 274.51-107.525 274.474-108.663 274.51-109.802 275.457-110.699 276.596-110.671 277.713-110.716 278.655-109.847 278.701-108.731 278.702-108.697 278.702-108.664 278.702-108.631 278.65-107.512 277.716-106.637 276.596-106.656Z" fill="#FFFFFF" transform="matrix(1 0 0 1.00269 991.889 499.87)"/><path d="M237.862-108.027 245.011-108.027C245.333-106.489 246.705-105.398 248.276-105.431 249.835-105.436 251.185-106.51 251.54-108.027L258.07-108.027 258.706-109.251 251.589-109.251C251.289-110.809 249.911-111.924 248.325-111.895 247.67-111.9 247.029-111.713 246.48-111.357L244.358-113.479C244.761-114.004 244.985-114.645 244.995-115.307 244.995-117.11 243.534-118.572 241.73-118.572 240.078-118.673 238.614-117.522 238.319-115.895L228.867-115.895C228.559-117.446 227.185-118.553 225.603-118.523 223.801-118.568 222.302-117.143 222.258-115.341 222.257-115.313 222.257-115.286 222.257-115.258 222.283-113.683 223.429-112.351 224.983-112.091L224.983-110.573C223.644-110.357 222.58-109.338 222.306-108.011L211.353-108.011 211.353-108.827C211.345-109.542 210.762-110.116 210.047-110.116L209.084-110.116C208.906-110.671 208.699-111.215 208.463-111.749L209.1-112.385C209.604-112.887 209.608-113.704 209.105-114.209 209.103-114.21 209.102-114.212 209.1-114.213L207.092-116.221C206.59-116.726 205.773-116.728 205.269-116.226 205.267-116.224 205.266-116.223 205.264-116.221L204.546-115.568C204.015-115.838 203.47-116.078 202.914-116.286L202.914-117.184C202.905-117.899 202.323-118.474 201.608-118.474L198.784-118.474C198.072-118.474 197.494-117.896 197.494-117.184L197.494-116.221C196.939-116.039 196.394-115.826 195.862-115.585L195.307-116.156C194.79-116.683 193.941-116.691 193.413-116.173 193.409-116.167 193.402-116.162 193.397-116.156L191.406-114.262C190.916-113.751 190.916-112.945 191.406-112.434L192.059-111.732C191.798-111.226 191.585-110.704 191.357-110.1L190.459-110.1C189.747-110.1 189.169-109.523 189.169-108.81L189.169-107.994 177.923-107.994C177.547-114.131 172.383-118.871 166.235-118.719 159.827-118.837 154.536-113.737 154.418-107.328 154.418-107.316 154.418-107.304 154.417-107.292 154.475-103.174 156.78-99.4169 160.424-97.4984L158.335-93.6625C158.188-93.3595 158.303-92.9949 158.596-92.83 158.687-92.8091 158.782-92.8091 158.874-92.83 159.105-92.8267 159.319-92.9526 159.429-93.1565L161.502-97.1393C162.99-96.5127 164.588-96.1908 166.203-96.1926 172.291-96.1441 177.396-100.785 177.923-106.852L189.218-106.852 189.218-106.101C189.218-105.389 189.796-104.811 190.508-104.811L191.471-104.811C191.647-104.256 191.855-103.711 192.091-103.179L191.455-102.542C190.965-102.031 190.965-101.225 191.455-100.714L193.462-98.7227C193.965-98.2178 194.781-98.2158 195.286-98.7181 195.287-98.7196 195.289-98.7212 195.291-98.7227L196.009-99.3593C196.538-99.0926 197.083-98.8581 197.641-98.6574L197.641-97.7596C197.641-97.0474 198.219-96.4701 198.931-96.4701L201.755-96.4701C202.466-96.4611 203.051-97.0311 203.061-97.7431 203.061-97.7487 203.061-97.7541 203.061-97.7596L203.061-98.7227C203.615-98.899 204.161-99.1061 204.693-99.3429L205.329-98.7227C205.832-98.2178 206.648-98.2158 207.153-98.7181 207.154-98.7196 207.156-98.7212 207.158-98.7227L209.165-100.714C209.67-101.216 209.673-102.033 209.17-102.538 209.169-102.539 209.167-102.541 209.165-102.542L208.512-103.261C208.779-103.79 209.014-104.335 209.214-104.893L210.112-104.893C210.824-104.884 211.408-105.454 211.418-106.166 211.418-106.171 211.418-106.177 211.418-106.182L211.418-106.982 222.371-106.982C222.686-105.438 224.059-104.339 225.635-104.37 227.439-104.37 228.9-105.832 228.9-107.635 228.923-109.247 227.764-110.634 226.174-110.9L226.174-112.418C227.491-112.669 228.534-113.674 228.835-114.981L238.319-114.981C238.412-114.54 238.594-114.123 238.857-113.756L236.441-111.602C235.891-111.971 235.243-112.165 234.581-112.157 232.779-112.211 231.274-110.794 231.22-108.991 231.218-108.958 231.218-108.925 231.218-108.892 231.238-107.306 232.395-105.963 233.96-105.709L233.96-103.587C232.4-103.334 231.246-102.001 231.218-100.42 231.218-98.6172 232.679-97.155 234.481-97.1542 234.514-97.1542 234.548-97.1547 234.581-97.1556 236.143-97.1617 237.496-98.2439 237.845-99.7673L239.837-99.7673C240.152-98.2229 241.524-97.1238 243.101-97.1556 244.678-97.1238 246.051-98.2229 246.366-99.7673L253.597-99.7673 254.234-100.992 246.48-100.992C246.172-102.543 244.797-103.65 243.216-103.62 241.634-103.65 240.259-102.543 239.951-100.992L237.959-100.992C237.687-102.314 236.631-103.332 235.299-103.554L235.299-105.693C236.53-105.915 237.525-106.822 237.862-108.027ZM248.292-110.671C249.409-110.716 250.35-109.847 250.396-108.73 250.398-108.703 250.398-108.675 250.398-108.647 250.354-107.522 249.418-106.637 248.292-106.656 247.156-106.619 246.208-107.51 246.17-108.646 246.17-108.652 246.17-108.657 246.17-108.663 246.196-109.799 247.138-110.698 248.274-110.672 248.281-110.672 248.286-110.671 248.292-110.671ZM166.186-97.3515C160.474-97.2237 155.735-101.743 155.593-107.456 155.735-113.17 160.471-117.695 166.186-117.576 171.838-117.72 176.535-113.257 176.679-107.606 176.681-107.529 176.682-107.451 176.682-107.374 176.47-101.744 171.82-97.3034 166.186-97.3515ZM210.063-105.986 209.165-105.986C208.601-105.982 208.106-105.612 207.941-105.072 207.798-104.61 207.611-104.162 207.386-103.734 207.12-103.233 207.213-102.616 207.615-102.216L208.251-101.481 206.146-99.4899 205.509-100.11C205.117-100.515 204.507-100.614 204.007-100.355 203.573-100.124 203.121-99.933 202.652-99.7837 202.112-99.6229 201.746-99.1226 201.755-98.5594L201.755-97.5964 198.865-97.5964 198.865-98.4941C198.867-99.0601 198.495-99.5587 197.951-99.7184 197.489-99.8681 197.041-100.059 196.613-100.29 196.425-100.384 196.219-100.434 196.009-100.437 195.663-100.439 195.331-100.297 195.095-100.045L194.36-99.4246 192.352-101.514 192.989-102.151C193.402-102.546 193.495-103.169 193.218-103.669 192.999-104.1 192.814-104.548 192.663-105.007 192.503-105.55 192.005-105.922 191.438-105.921L190.475-105.921 190.475-108.827 191.373-108.827C191.936-108.818 192.436-109.185 192.597-109.725 192.748-110.189 192.934-110.642 193.152-111.079 193.427-111.573 193.334-112.191 192.924-112.581L192.287-113.316 194.246-115.454C194.246-115.454 194.377-115.454 194.426-115.454L194.981-114.899C195.38-114.497 195.997-114.404 196.499-114.67 196.926-114.896 197.375-115.081 197.837-115.225 198.379-115.396 198.75-115.898 198.751-116.466L198.751-117.429 201.657-117.429 201.657-116.531C201.652-115.966 202.016-115.463 202.554-115.291 203.021-115.144 203.473-114.958 203.909-114.736 204.404-114.467 205.018-114.56 205.411-114.964L206.048-115.601 208.153-113.495 207.517-112.859C207.112-112.466 207.019-111.852 207.288-111.357 207.513-110.923 207.7-110.469 207.843-110.002 208.008-109.466 208.506-109.101 209.067-109.104L210.047-109.104ZM227.725-107.439C227.673-106.32 226.739-105.445 225.619-105.464 224.483-105.428 223.535-106.319 223.497-107.454 223.497-107.46 223.497-107.466 223.497-107.472 223.523-108.607 224.465-109.507 225.601-109.48 225.608-109.48 225.613-109.48 225.619-109.48 226.745-109.516 227.687-108.632 227.723-107.506 227.725-107.483 227.725-107.461 227.725-107.439ZM225.619-113.316C224.48-113.288 223.533-114.185 223.497-115.323 223.523-116.468 224.473-117.374 225.618-117.347 225.619-117.347 225.619-117.347 225.619-117.347 226.745-117.384 227.687-116.5 227.723-115.373 227.725-115.351 227.725-115.329 227.725-115.307 227.681-114.181 226.745-113.297 225.619-113.316ZM241.616-117.347C242.742-117.392 243.691-116.516 243.736-115.39 243.738-115.363 243.738-115.335 243.738-115.307 243.686-114.179 242.745-113.297 241.616-113.316 240.48-113.297 239.538-114.189 239.494-115.323 239.53-116.452 240.454-117.348 241.583-117.347ZM239.755-112.63C240.31-112.271 240.955-112.079 241.616-112.075 242.266-112.081 242.901-112.274 243.444-112.63L245.55-110.508C245.28-110.126 245.091-109.693 244.995-109.235L237.862-109.235C237.783-109.683 237.605-110.107 237.339-110.475ZM243.134-102.183C244.25-102.228 245.192-101.359 245.238-100.243 245.24-100.209 245.24-100.176 245.24-100.143 245.181-99.0614 244.298-98.208 243.216-98.184 242.079-98.1476 241.131-99.0385 241.094-100.174 241.094-100.18 241.094-100.186 241.094-100.192 241.12-101.327 242.062-102.226 243.198-102.2 243.204-102.2 243.209-102.2 243.216-102.2ZM236.686-100.159C236.634-99.0398 235.7-98.1651 234.581-98.184 233.436-98.1474 232.478-99.0454 232.442-100.19 232.442-100.19 232.442-100.191 232.442-100.192 232.478-101.336 233.435-102.235 234.579-102.2 234.579-102.2 234.581-102.2 234.581-102.2 235.697-102.245 236.639-101.376 236.685-100.259 236.686-100.226 236.686-100.192 236.686-100.159ZM234.581-106.688C233.436-106.652 232.478-107.55 232.442-108.694 232.442-108.695 232.442-108.695 232.442-108.696 232.478-109.841 233.435-110.739 234.579-110.704 234.579-110.704 234.581-110.704 234.581-110.704 235.697-110.749 236.639-109.88 236.685-108.763 236.686-108.725 236.686-108.686 236.686-108.647 236.642-107.528 235.717-106.646 234.597-106.656Z" fill="#2C7BBA" transform="matrix(1 0 0 1.00269 991.889 499.87)"/><path d="M181.187-125.493C179.154-123.599 176.455-122.584 173.679-122.669 167.447-122.38 162.161-127.198 161.872-133.43 161.866-133.57 161.862-133.71 161.861-133.85 161.857-139.962 166.81-144.92 172.921-144.923 173.044-144.923 173.166-144.921 173.287-144.917 176.175-145.024 178.979-143.938 181.041-141.914L179.131-139.416C177.542-140.884 175.45-141.685 173.287-141.653 169.187-141.757 165.778-138.518 165.674-134.417 165.669-134.228 165.671-134.039 165.68-133.85 165.615-129.496 169.09-125.914 173.444-125.848 173.578-125.846 173.71-125.847 173.842-125.852 175.922-125.802 177.951-126.503 179.555-127.827Z" fill="#2C7BBA" transform="matrix(1 0 0 1.00269 991.889 499.87)"/><path d="M183.016-115.895 188.027-124.921 182.036-137.278 185.709-137.278 189.904-128.317 194.083-137.278 197.902-137.278 186.754-115.895Z" fill="#2C7BBA" transform="matrix(1 0 0 1.00269 991.889 499.87)"/><path d="M210.716-122.669C204.481-122.586 199.329-127.518 199.143-133.752 199.303-140.018 204.482-144.985 210.749-144.885 216.94-145.056 222.097-140.176 222.268-133.985 222.271-133.88 222.273-133.775 222.273-133.671 222.043-127.475 216.916-122.594 210.716-122.669ZM210.716-141.62C206.452-141.656 202.966-138.229 202.93-133.965 202.93-133.927 202.93-133.888 202.93-133.85 202.935-129.581 206.304-126.076 210.569-125.901 214.859-125.829 218.396-129.248 218.468-133.539 218.47-133.594 218.47-133.648 218.47-133.703 218.559-137.985 215.163-141.528 210.881-141.618 210.825-141.62 210.772-141.62 210.716-141.62Z" fill="#2C7BBA" transform="matrix(1 0 0 1.00269 991.889 499.87)"/><path d="M229.357-123.142 229.357-141.098 223.105-141.098 223.105-144.362 239.2-144.362 239.2-141.098 232.965-141.098 232.965-123.142Z" fill="#2C7BBA" transform="matrix(1 0 0 1.00269 991.889 499.87)"/><path d="M242.057-123.158 242.057-144.379 255.262-144.379 255.262-141.114 245.664-141.114 245.664-135.482 255.262-135.482 255.262-132.218 245.664-132.218 245.664-126.472 255.262-126.472 255.262-123.207 242.057-123.207Z" fill="#2C7BBA" transform="matrix(1 0 0 1.00269 991.889 499.87)"/></g></svg>