<?xml version="1.0" encoding="UTF-8" standalone="no"?><!-- Generator: Gravit.io --><svg xmlns="http://www.w3.org/2000/svg" xmlns:xlink="http://www.w3.org/1999/xlink" style="isolation:isolate" viewBox="0 0 170.838 256" width="170.838pt" height="256pt"><defs><clipPath id="_clipPath_ltt0B9Mqxgj9CrmyBjpbjLBk5tuC7PS3"><rect width="170.838" height="256"/></clipPath></defs><g clip-path="url(#_clipPath_ltt0B9Mqxgj9CrmyBjpbjLBk5tuC7PS3)"><g><g><path d=" M 61.815 142.861 L 0 142.861 L 0 35.151 L 61.815 35.151 L 61.815 142.861 Z " fill="rgb(0,0,0)"/></g><g><linearGradient id="_lgradient_80" x1="0" y1="0.5" x2="1" y2="0.5" gradientTransform="matrix(95.365,0,0,255.995,0.001,0)" gradientUnits="userSpaceOnUse"><stop offset="0%" stop-opacity="1" style="stop-color:rgb(108,110,112)"/><stop offset="53.6%" stop-opacity="1" style="stop-color:rgb(63,62,64)"/><stop offset="100%" stop-opacity="1" style="stop-color:rgb(63,62,64)"/></linearGradient><path d=" M 1.901 0 C 0.85 0 0.001 0.844 0.001 1.888 L 0.001 35.152 L 61.815 35.152 L 61.815 41.539 L 0.001 41.539 L 0.001 68.927 L 61.815 68.927 L 61.815 75.315 L 0.001 75.315 L 0.001 102.704 L 61.815 102.704 L 61.815 109.085 L 0.001 109.085 L 0.001 136.479 L 61.815 136.479 L 61.815 142.861 L 0.001 142.861 L 0.001 254.096 C 0.001 255.152 0.85 255.995 1.901 255.995 L 93.466 255.995 C 94.516 255.995 95.366 255.152 95.366 254.096 L 95.366 1.888 C 95.366 0.844 94.516 0 93.466 0 L 1.901 0 Z " fill="url(#_lgradient_80)"/></g><g><path d=" M 95.366 41.539 L 63.878 41.539 L 63.878 35.152 L 95.366 35.152 L 95.366 41.539 Z " fill="rgb(38,170,225)"/></g><g><path d=" M 95.366 75.315 L 63.878 75.315 L 63.878 68.927 L 95.366 68.927 L 95.366 75.315 Z " fill="rgb(38,170,225)"/></g><g><path d=" M 95.366 109.085 L 63.878 109.085 L 63.878 102.704 L 95.366 102.704 L 95.366 109.085 Z " fill="rgb(38,170,225)"/></g><g><path d=" M 95.366 142.861 L 63.878 142.861 L 63.878 136.479 L 95.366 136.479 L 95.366 142.861 Z " fill="rgb(38,170,225)"/></g><g><path d=" M 95.366 247.271 L 0 247.271 L 0 240.896 L 95.366 240.896 L 95.366 247.271 Z " fill="rgb(0,0,0)"/></g><g><path d=" M 133.162 133.372 L 114.539 133.372 L 114.539 120.067 L 123.729 117.948 L 133.162 120.067 L 133.162 133.372 Z " fill="rgb(35,31,32)"/></g><g><path d=" M 126.353 124.285 L 121.331 124.282 L 121.351 94.163 L 126.373 94.167 L 126.353 124.285 Z " fill="rgb(35,31,32)"/></g><g><path d=" M 124.574 123.922 L 124.574 123.606 L 123.85 123.764 L 123.127 123.606 L 123.127 123.922 L 76.863 134.026 L 76.863 256 L 123.127 256 L 124.574 256 L 170.838 256 L 170.838 134.026 L 124.574 123.922 Z " fill="rgb(35,31,32)"/></g><g><path d=" M 79.911 252.952 L 121.525 252.952 L 121.525 127.393 L 79.911 136.481 L 79.911 252.952 Z " fill="rgb(250,211,175)"/></g><g><path d=" M 87.086 144.476 L 87.086 147.14 L 114.35 141.185 L 114.35 138.522 L 87.086 144.476 Z " fill="rgb(35,31,32)"/></g><g><path d=" M 87.086 156.89 L 87.086 159.554 L 114.35 153.599 L 114.35 150.936 L 87.086 156.89 Z " fill="rgb(35,31,32)"/></g><g><path d=" M 87.086 169.305 L 87.086 171.969 L 114.35 166.014 L 114.35 163.351 L 87.086 169.305 Z " fill="rgb(35,31,32)"/></g><g><path d=" M 87.086 181.719 L 87.086 184.383 L 114.35 178.428 L 114.35 175.765 L 87.086 181.719 Z " fill="rgb(35,31,32)"/></g><g><path d=" M 87.086 194.133 L 87.086 196.797 L 114.35 190.842 L 114.35 188.179 L 87.086 194.133 Z " fill="rgb(35,31,32)"/></g><g><path d=" M 87.086 206.547 L 87.086 209.211 L 114.35 203.256 L 114.35 200.593 L 87.086 206.547 Z " fill="rgb(35,31,32)"/></g><g><path d=" M 87.086 218.962 L 87.086 221.626 L 114.35 215.671 L 114.35 213.008 L 87.086 218.962 Z " fill="rgb(35,31,32)"/></g><g><path d=" M 87.086 231.376 L 87.086 234.04 L 114.35 228.085 L 114.35 225.422 L 87.086 231.376 Z " fill="rgb(35,31,32)"/></g><g><path d=" M 87.086 243.79 L 87.086 246.454 L 114.35 240.499 L 114.35 237.836 L 87.086 243.79 Z " fill="rgb(35,31,32)"/></g><g><path d=" M 167.789 252.952 L 126.175 252.952 L 126.175 127.393 L 167.789 136.481 L 167.789 252.952 Z " fill="rgb(242,183,129)"/></g><g><path d=" M 160.614 144.476 L 160.614 147.14 L 133.35 141.185 L 133.35 138.522 L 160.614 144.476 Z " fill="rgb(35,31,32)"/></g><g><path d=" M 160.614 156.89 L 160.614 159.554 L 133.35 153.599 L 133.35 150.936 L 160.614 156.89 Z " fill="rgb(35,31,32)"/></g><g><path d=" M 160.614 169.305 L 160.614 171.969 L 133.35 166.014 L 133.35 163.351 L 160.614 169.305 Z " fill="rgb(35,31,32)"/></g><g><path d=" M 160.614 181.719 L 160.614 184.383 L 133.35 178.428 L 133.35 175.765 L 160.614 181.719 Z " fill="rgb(35,31,32)"/></g><g><path d=" M 160.614 194.133 L 160.614 196.797 L 133.35 190.842 L 133.35 188.179 L 160.614 194.133 Z " fill="rgb(35,31,32)"/></g><g><path d=" M 160.614 206.547 L 160.614 209.211 L 133.35 203.256 L 133.35 200.593 L 160.614 206.547 Z " fill="rgb(35,31,32)"/></g><g><path d=" M 160.614 218.962 L 160.614 221.626 L 133.35 215.671 L 133.35 213.008 L 160.614 218.962 Z " fill="rgb(35,31,32)"/></g><g><path d=" M 160.614 231.376 L 160.614 234.04 L 133.35 228.085 L 133.35 225.422 L 160.614 231.376 Z " fill="rgb(35,31,32)"/></g><g><path d=" M 160.614 243.79 L 160.614 246.454 L 133.35 240.499 L 133.35 237.836 L 160.614 243.79 Z " fill="rgb(35,31,32)"/></g></g></g></svg>