<?xml version="1.0" encoding="UTF-8" standalone="no"?><!-- Generator: Gravit.io --><svg xmlns="http://www.w3.org/2000/svg" xmlns:xlink="http://www.w3.org/1999/xlink" style="isolation:isolate" viewBox="0 0 255.004 256" width="255.004pt" height="256pt"><defs><clipPath id="_clipPath_M737DYxTXJA3W1SDJvUWobM47J4CAjcm"><rect width="255.004" height="256"/></clipPath></defs><g clip-path="url(#_clipPath_M737DYxTXJA3W1SDJvUWobM47J4CAjcm)"><g><g><linearGradient id="_lgradient_71" x1="0" y1="0.5" x2="6.123233995736766e-17" y2="-0.5" gradientTransform="matrix(236.324,0,0,96.691,9.34,159.309)" gradientUnits="userSpaceOnUse"><stop offset="0%" stop-opacity="1" style="stop-color:rgb(76,76,78)"/><stop offset="24.9%" stop-opacity="1" style="stop-color:rgb(98,99,102)"/><stop offset="100%" stop-opacity="1" style="stop-color:rgb(49,47,49)"/></linearGradient><path d=" M 13.254 159.309 C 11.093 159.309 9.34 161.062 9.34 163.223 L 9.34 252.086 C 9.34 254.248 11.092 256 13.254 256 L 241.75 256 C 243.911 256 245.664 254.248 245.664 252.086 L 245.664 163.223 C 245.664 161.062 243.911 159.309 241.75 159.309 L 13.254 159.309 Z " fill="url(#_lgradient_71)"/></g><g><radialGradient id="_rgradient_4" fx="0.5" fy="0.5" cx="0.5" cy="0.5" r="0.5" gradientTransform="matrix(255.004,0,0,255.004,0,0)" gradientUnits="userSpaceOnUse"><stop offset="0%" stop-opacity="1" style="stop-color:rgb(230,231,232)"/><stop offset="31.1%" stop-opacity="1" style="stop-color:rgb(230,231,232)"/><stop offset="46.9%" stop-opacity="1" style="stop-color:rgb(187,189,191)"/><stop offset="93.4%" stop-opacity="1" style="stop-color:rgb(211,213,214)"/><stop offset="100%" stop-opacity="1" style="stop-color:rgb(187,189,191)"/></radialGradient><path d=" M 127.502 0 C 57.085 0 0 57.085 0 127.502 C 0 197.919 57.085 255.004 127.502 255.004 C 197.919 255.004 255.004 197.919 255.004 127.502 C 255.004 57.085 197.919 0 127.502 0 Z  M 88.437 127.502 C 88.437 105.927 105.927 88.438 127.502 88.438 C 149.077 88.438 166.566 105.927 166.566 127.502 C 166.566 149.076 149.077 166.566 127.502 166.566 C 105.927 166.566 88.437 149.076 88.437 127.502 Z " fill="url(#_rgradient_4)"/></g><g><radialGradient id="_rgradient_5" fx="0.5" fy="0.5" cx="0.5" cy="0.5" r="0.5" gradientTransform="matrix(241.723,0,0,241.722,6.641,6.641)" gradientUnits="userSpaceOnUse"><stop offset="0%" stop-opacity="1" style="stop-color:rgb(173,197,230)"/><stop offset="29.099999999999998%" stop-opacity="1" style="stop-color:rgb(173,197,230)"/><stop offset="50.5%" stop-opacity="1" style="stop-color:rgb(204,219,240)"/><stop offset="92.30000000000001%" stop-opacity="1" style="stop-color:rgb(173,197,230)"/><stop offset="98%" stop-opacity="1" style="stop-color:rgb(155,177,207)"/><stop offset="100%" stop-opacity="1" style="stop-color:rgb(155,177,207)"/></radialGradient><path d=" M 6.641 127.502 C 6.641 194.252 60.752 248.363 127.502 248.363 C 194.252 248.363 248.364 194.252 248.364 127.502 C 248.364 60.752 194.252 6.641 127.502 6.641 C 60.752 6.641 6.641 60.752 6.641 127.502 Z  M 74.594 127.502 C 74.594 98.528 98.083 75.04 127.056 75.04 C 156.03 75.04 179.518 98.528 179.518 127.502 C 179.518 156.475 156.03 179.964 127.056 179.964 C 98.083 179.964 74.594 156.475 74.594 127.502 Z " fill="url(#_rgradient_5)"/></g><g><path d=" M 144.078 47.813 L 110.926 47.813 C 106.342 47.813 102.625 51.53 102.625 56.114 L 102.625 81.123 C 109.944 77.245 118.285 75.04 127.144 75.04 C 136.292 75.04 144.89 77.387 152.379 81.503 L 152.379 56.114 C 152.379 51.53 148.662 47.813 144.078 47.813 Z " fill="rgb(220,230,245)"/></g><g><path d=" M 142.719 72.684 L 112.285 72.684 L 112.285 52.403 L 142.719 52.403 L 142.719 72.684 Z " fill="rgb(1,3,5)"/></g><g><linearGradient id="_lgradient_72" x1="0" y1="0.5" x2="0.9396302834501772" y2="0.8421913652086209" gradientTransform="matrix(28.67,0,0,18.691,113.167,53.206)" gradientUnits="userSpaceOnUse"><stop offset="0%" stop-opacity="1" style="stop-color:rgb(30,144,206)"/><stop offset="22.154000000000007%" stop-opacity="1" style="stop-color:rgb(110,190,233)"/><stop offset="66.59840000000001%" stop-opacity="1" style="stop-color:rgb(26,142,205)"/><stop offset="100%" stop-opacity="1" style="stop-color:rgb(26,142,205)"/></linearGradient><path d=" M 113.167 71.897 L 141.837 71.897 L 141.837 53.206 L 113.167 53.206 L 113.167 71.897 Z " fill="url(#_lgradient_72)"/></g><g><linearGradient id="_lgradient_73" x1="0" y1="0.5" x2="1" y2="0.5" gradientTransform="matrix(100.957,0,0,41.831,77.023,159.166)" gradientUnits="userSpaceOnUse"><stop offset="0%" stop-opacity="1" style="stop-color:rgb(76,76,78)"/><stop offset="24.9%" stop-opacity="1" style="stop-color:rgb(98,99,102)"/><stop offset="100%" stop-opacity="1" style="stop-color:rgb(49,47,49)"/></linearGradient><path d=" M 147.218 159.166 L 147.218 170.746 L 128.909 170.746 L 128.909 167.777 L 128.277 167.777 L 126.727 167.777 L 126.095 167.777 L 126.095 170.746 L 107.786 170.746 L 107.786 159.166 L 82.13 159.166 L 82.13 162.581 L 77.023 162.581 L 77.023 173.437 L 77.023 186.595 C 77.135 188.492 78.748 189.904 80.266 190.823 C 80.273 190.823 80.28 190.826 80.286 190.826 C 93.17 197.183 109.601 200.997 127.502 200.997 C 145.403 200.997 161.834 197.183 174.718 190.826 C 175.572 190.404 176.408 189.971 177.229 189.529 C 177.698 188.94 177.98 188.199 177.98 187.393 L 177.98 173.437 L 177.98 162.581 L 172.874 162.581 L 172.874 159.166 L 147.218 159.166 Z " fill="url(#_lgradient_73)"/></g><g><linearGradient id="_lgradient_74" x1="0" y1="0.5" x2="1" y2="0.5" gradientTransform="matrix(100.957,0,0,33.099,77.023,132.825)" gradientUnits="userSpaceOnUse"><stop offset="0%" stop-opacity="1" style="stop-color:rgb(157,159,161)"/><stop offset="3.5999999999999996%" stop-opacity="1" style="stop-color:rgb(157,159,161)"/><stop offset="50.5%" stop-opacity="1" style="stop-color:rgb(219,220,222)"/><stop offset="80.10000000000001%" stop-opacity="1" style="stop-color:rgb(192,194,196)"/><stop offset="100%" stop-opacity="1" style="stop-color:rgb(192,194,196)"/></linearGradient><path d=" M 82.072 137.366 C 82.072 137.366 77.023 138.914 77.023 140.806 L 77.023 157.759 L 80.448 157.759 L 80.448 154.345 L 109.468 154.345 L 109.468 165.924 L 124.413 165.924 L 124.413 162.955 L 126.727 162.955 L 128.277 162.955 L 130.591 162.955 L 130.591 165.924 L 145.536 165.924 L 145.536 154.345 L 174.556 154.345 L 174.556 157.759 L 177.98 157.759 L 177.98 140.806 C 177.98 138.914 172.931 137.366 172.931 137.366 C 166.133 135.948 148.749 132.825 127.502 132.825 C 106.255 132.825 88.871 135.948 82.072 137.366 Z " fill="url(#_lgradient_74)"/></g><g><path d=" M 174.556 157.759 L 174.556 154.345 L 145.536 154.345 L 145.536 165.925 L 130.591 165.925 L 130.591 162.955 L 128.277 162.955 L 126.727 162.955 L 124.413 162.955 L 124.413 165.925 L 109.468 165.925 L 109.468 154.345 L 80.448 154.345 L 80.448 157.759 L 76.993 157.759 L 76.993 159.441 L 82.13 159.441 L 82.13 156.026 L 107.786 156.026 L 107.786 167.606 L 126.095 167.606 L 126.095 164.636 L 126.727 164.636 L 128.277 164.636 L 128.91 164.636 L 128.91 167.606 L 147.218 167.606 L 147.218 156.026 L 172.874 156.026 L 172.874 159.441 L 178.012 159.441 L 178.012 157.759 L 174.556 157.759 Z " fill="rgb(35,31,32)"/></g><g><path d=" M 109.007 136.941 C 113.814 139.538 120.324 141.142 127.509 141.142 C 134.688 141.142 141.191 139.542 145.997 136.95 C 140.14 136.596 133.922 136.382 127.435 136.382 C 120.998 136.382 114.823 136.593 109.007 136.941 Z " fill="rgb(35,31,32)"/></g><g><path d=" M 174.556 157.759 L 174.556 154.345 L 145.536 154.345 L 145.536 165.925 L 130.591 165.925 L 130.591 162.955 L 128.277 162.955 L 126.727 162.955 L 124.413 162.955 L 124.413 165.925 L 109.468 165.925 L 109.468 154.345 L 80.448 154.345 L 80.448 157.759 L 76.993 157.759 L 76.993 159.441 L 82.13 159.441 L 82.13 156.026 L 107.786 156.026 L 107.786 167.606 L 126.095 167.606 L 126.095 164.636 L 126.727 164.636 L 128.277 164.636 L 128.91 164.636 L 128.91 167.606 L 147.218 167.606 L 147.218 156.026 L 172.874 156.026 L 172.874 159.441 L 178.012 159.441 L 178.012 157.759 L 174.556 157.759 Z " fill="rgb(35,31,32)"/></g><g><linearGradient id="_lgradient_75" x1="0" y1="0.5" x2="1" y2="0.5" gradientTransform="matrix(100.957,0,0,41.831,77.023,156.025)" gradientUnits="userSpaceOnUse"><stop offset="0%" stop-opacity="1" style="stop-color:rgb(157,159,161)"/><stop offset="3.5999999999999996%" stop-opacity="1" style="stop-color:rgb(157,159,161)"/><stop offset="50.5%" stop-opacity="1" style="stop-color:rgb(219,220,222)"/><stop offset="80.10000000000001%" stop-opacity="1" style="stop-color:rgb(192,194,196)"/><stop offset="100%" stop-opacity="1" style="stop-color:rgb(192,194,196)"/></linearGradient><path d=" M 147.218 156.025 L 147.218 167.606 L 128.909 167.606 L 128.909 164.636 L 128.277 164.636 L 126.727 164.636 L 126.095 164.636 L 126.095 167.606 L 107.786 167.606 L 107.786 156.025 L 82.13 156.025 L 82.13 159.441 L 77.023 159.441 L 77.023 170.296 L 77.023 183.453 C 77.135 185.352 78.748 186.764 80.266 187.683 C 80.273 187.683 80.28 187.684 80.286 187.685 C 93.17 194.043 109.601 197.856 127.502 197.856 C 145.403 197.856 161.834 194.043 174.718 187.685 C 175.572 187.263 176.408 186.831 177.229 186.388 C 177.698 185.8 177.98 185.057 177.98 184.252 L 177.98 170.296 L 177.98 159.441 L 172.874 159.441 L 172.874 156.025 L 147.218 156.025 Z " fill="url(#_lgradient_75)"/></g></g></g></svg>