<?xml version="1.0" encoding="UTF-8" standalone="no"?><!-- Generator: Gravit.io --><svg xmlns="http://www.w3.org/2000/svg" xmlns:xlink="http://www.w3.org/1999/xlink" style="isolation:isolate" viewBox="0 0 256 250.972" width="256pt" height="250.972pt"><defs><clipPath id="_clipPath_Sg4Pb9leDCEZhukm7hIQ1cYRsmU6YRNJ"><rect width="256" height="250.972"/></clipPath></defs><g clip-path="url(#_clipPath_Sg4Pb9leDCEZhukm7hIQ1cYRsmU6YRNJ)"><g><g><path d=" M 87.483 54.936 L 41.002 28.795 L 0 95.147 L 47.451 123.928 L 0.35 150.892 L 37.5 219.036 L 86.31 192.856 L 86.31 250.972 L 169.807 250.972 L 169.723 192.865 L 218.518 219.038 L 255.619 150.889 L 208.526 123.93 L 256 95.149 L 214.994 28.787 L 168.723 54.874 L 168.759 0.084 L 87.483 0 L 87.483 54.936 Z " fill="rgb(230,231,232)"/></g><g><path d=" M 138.654 91.679 L 138.417 104.624 C 138.417 110.977 122.804 122.271 120.379 132.388 C 119.668 135.44 119.431 139.204 121.816 145.069 C 122.316 146.245 125.9 153.324 127.6 153.06 C 127.837 150.736 127.6 142.48 127.113 140.129 C 125.189 128.624 142.014 120.87 146.586 109.564 C 149.458 102.299 146.981 97.28 138.654 91.679 Z  M 244.376 92.339 L 212.03 39.993 L 160.275 69.171 L 160.315 8.411 L 95.78 8.344 L 95.78 69.211 L 43.828 39.993 L 11.482 92.339 L 63.856 124.107 L 11.548 154.051 L 40.798 207.705 L 94.608 178.844 L 94.608 242.577 L 161.356 242.577 L 161.264 178.844 L 215.073 207.705 L 244.284 154.051 L 191.976 124.107 L 244.376 92.339 Z  M 128.035 54.668 C 128.416 54.668 130.248 54.628 130.248 54.245 C 130.248 53.849 128.482 53.558 128.061 53.558 C 127.666 53.558 125.65 53.743 125.65 54.139 C 125.65 54.536 127.639 54.668 128.035 54.668 Z  M 131.684 216.449 L 132.185 222.539 L 132.896 222.539 L 133.845 214.085 C 133.845 214.085 131.684 215.948 131.684 216.449 Z  M 134.332 206.516 L 135.057 175.727 C 135.057 174.775 129.761 182.318 129.761 183.493 L 131.17 212.606 C 131.658 211.43 134.108 209.594 134.332 206.516 Z  M 135.321 155.002 L 135.769 126.299 C 135.769 124.437 128.588 132.428 128.588 136.417 L 129.049 168.422 C 129.049 170.522 135.057 162.307 135.321 155.002 Z  M 135.518 199.74 C 136.164 211.694 132.185 211.76 129.984 215.498 C 129.273 216.648 139.59 210.783 137.705 202.329 C 137.442 201.378 135.518 198.301 135.518 199.74 Z  M 133.845 53.69 C 134.82 54.866 137.705 55.817 137.705 57.217 L 137.705 38.381 C 137.705 30.628 125.676 29.703 125.189 38.157 L 125.189 49.463 C 125.189 51.326 129.984 48.05 133.845 53.69 Z  M 125.189 62.038 L 127.6 116.142 C 127.837 119.417 136.981 107.662 136.981 104.624 L 137.929 58.762 C 137.705 65.341 125.189 61.114 125.189 62.038 Z  M 137.205 151.026 C 136.717 156.442 136.006 163.02 132.409 167.022 C 126.625 173.204 122.83 178.844 124.464 187.945 C 128.812 210.743 128.324 194.985 128.324 194.298 C 126.625 176.413 134.332 177.14 141.065 165.12 C 143.226 161.606 142.014 155.491 138.654 151.95 L 137.205 151.026 Z  M 125.94 97.9 C 125.676 94.136 125.452 86.832 124.965 86.144 C 117.283 73.9 120.88 59.093 124.728 60.269 C 127.6 61.219 135.677 62.725 136.849 60.07 L 136.981 59.806 C 136.981 59.806 134.108 59.317 134.108 58.855 C 134.108 58.406 136.493 59.806 137.468 58.855 C 138.68 57.217 134.596 56.041 133.12 54.139 C 127.6 46.637 117.995 54.866 114.411 59.317 C 108.877 66.094 110.221 74.521 112.382 80.32 C 112.738 81.297 116.361 88.865 120.775 93.872 C 122.014 95.219 125.94 99.314 125.94 97.9 Z " fill="rgb(0,93,135)"/></g></g></g></svg>