<?xml version="1.0" encoding="UTF-8" standalone="no"?><!-- Generator: Gravit.io --><svg xmlns="http://www.w3.org/2000/svg" xmlns:xlink="http://www.w3.org/1999/xlink" style="isolation:isolate" viewBox="0 0 256 215.965" width="256pt" height="215.965pt"><defs><clipPath id="_clipPath_CAN2zGULXfgY55YbDxQazam2Cb7z9XS0"><rect width="256" height="215.965"/></clipPath></defs><g clip-path="url(#_clipPath_CAN2zGULXfgY55YbDxQazam2Cb7z9XS0)"><g><g><path d=" M 167.92 210.698 L 118.52 210.698 L 118.52 189.734 L 167.92 189.734 L 167.92 210.698 Z " fill="rgb(1,3,5)"/></g><g><path d=" M 0 120.518 L 52.147 120.518 L 52.147 29.654 L 0 29.654 L 0 120.518 Z " fill="rgb(0,0,0)"/></g><g><linearGradient id="_lgradient_28" x1="0" y1="0.5" x2="1" y2="0.5" gradientTransform="matrix(80.451,0,0,215.959,0,0)" gradientUnits="userSpaceOnUse"><stop offset="0%" stop-opacity="1" style="stop-color:rgb(108,110,112)"/><stop offset="53.6%" stop-opacity="1" style="stop-color:rgb(63,62,64)"/><stop offset="100%" stop-opacity="1" style="stop-color:rgb(63,62,64)"/></linearGradient><path d=" M 1.603 0 C 0.717 0 0 0.713 0 1.593 L 0 29.654 L 52.147 29.654 L 52.147 35.043 L 0 35.043 L 0 58.148 L 52.147 58.148 L 52.147 63.536 L 0 63.536 L 0 86.641 L 52.147 86.641 L 52.147 92.025 L 0 92.025 L 0 115.135 L 52.147 115.135 L 52.147 120.518 L 0 120.518 L 0 214.357 C 0 215.248 0.717 215.959 1.603 215.959 L 78.848 215.959 C 79.734 215.959 80.451 215.248 80.451 214.357 L 80.451 1.593 C 80.451 0.713 79.734 0 78.848 0 L 1.603 0 Z " fill="url(#_lgradient_28)"/></g><g><path d=" M 80.451 35.043 L 53.887 35.043 L 53.887 29.654 L 80.451 29.654 L 80.451 35.043 Z " fill="rgb(38,170,225)"/></g><g><path d=" M 80.451 63.536 L 53.887 63.536 L 53.887 58.148 L 80.451 58.148 L 80.451 63.536 Z " fill="rgb(38,170,225)"/></g><g><path d=" M 80.451 92.025 L 53.887 92.025 L 53.887 86.641 L 80.451 86.641 L 80.451 92.025 Z " fill="rgb(38,170,225)"/></g><g><path d=" M 80.451 120.518 L 53.887 120.518 L 53.887 115.135 L 80.451 115.135 L 80.451 120.518 Z " fill="rgb(38,170,225)"/></g><g><path d=" M 80.451 208.599 L 0 208.599 L 0 203.221 L 80.451 203.221 L 80.451 208.599 Z " fill="rgb(0,0,0)"/></g><g><path d=" M 256 192.681 L 30.445 192.681 L 30.445 42.372 L 256 42.372 L 256 192.681 Z " fill="rgb(1,3,5)"/></g><g><linearGradient id="_lgradient_29" x1="0" y1="0.5" x2="0.9396247388245901" y2="0.8422065899260576" gradientTransform="matrix(212.478,0,0,138.529,36.983,48.32)" gradientUnits="userSpaceOnUse"><stop offset="0%" stop-opacity="1" style="stop-color:rgb(30,144,206)"/><stop offset="22.153999999999993%" stop-opacity="1" style="stop-color:rgb(110,190,233)"/><stop offset="66.5984%" stop-opacity="1" style="stop-color:rgb(26,142,205)"/><stop offset="100%" stop-opacity="1" style="stop-color:rgb(26,142,205)"/></linearGradient><path d=" M 36.983 186.849 L 249.461 186.849 L 249.461 48.32 L 36.983 48.32 L 36.983 186.849 Z " fill="url(#_lgradient_29)"/></g><g><path d=" M 193.993 215.965 L 92.451 215.965 L 92.451 205.425 L 193.993 205.425 L 193.993 215.965 Z " fill="rgb(1,3,5)"/></g><g><path d=" M 131.511 118.193 L 91.481 118.193 L 91.481 78.162 L 131.511 78.162 L 131.511 118.193 Z  M 85.934 123.74 L 137.058 123.74 L 137.058 72.616 L 85.934 72.616 L 85.934 123.74 Z " fill="rgb(255,255,255)"/></g><g><path d=" M 249.462 100.957 L 36.983 100.957 L 36.983 95.41 L 249.462 95.41 L 249.462 100.957 Z " fill="rgb(255,255,255)"/></g><g><path d=" M 114.265 186.849 L 108.718 186.849 L 108.718 48.32 L 114.265 48.32 L 114.265 186.849 Z " fill="rgb(255,255,255)"/></g></g></g></svg>