<?xml version="1.0" encoding="UTF-8" standalone="no"?><!-- Generator: Gravit.io --><svg xmlns="http://www.w3.org/2000/svg" xmlns:xlink="http://www.w3.org/1999/xlink" style="isolation:isolate" viewBox="0 0 190.778 255.5" width="190.778pt" height="255.5pt"><defs><clipPath id="_clipPath_M3SkdwAmJ7rJwoAqSPGt9okgwBuNWw2v"><rect width="190.778" height="255.5"/></clipPath></defs><g clip-path="url(#_clipPath_M3SkdwAmJ7rJwoAqSPGt9okgwBuNWw2v)"><g><g><linearGradient id="_lgradient_87" x1="0" y1="0.5" x2="6.123233995736766e-17" y2="1.5" gradientTransform="matrix(160.692,0,0,161.916,15.043,93.584)" gradientUnits="userSpaceOnUse"><stop offset="0%" stop-opacity="1" style="stop-color:rgb(26,142,205)"/><stop offset="16.3%" stop-opacity="1" style="stop-color:rgb(26,142,205)"/><stop offset="65.2%" stop-opacity="1" style="stop-color:rgb(110,190,233)"/><stop offset="100%" stop-opacity="1" style="stop-color:rgb(110,190,233)"/></linearGradient><path d=" M 126.183 93.585 C 125.465 93.585 125.074 93.61 125.074 93.61 C 125.074 93.61 114.487 102.085 94.379 102.085 C 74.271 102.085 65.7 93.61 65.7 93.61 C 65.7 93.61 65.316 93.585 64.603 93.585 C 60.884 93.574 48.285 94.248 34.949 102.807 C 34.436 103.14 33.922 103.487 33.408 103.835 C 17.454 114.791 15.181 125.234 15.05 143 C 15.043 143.572 15.043 144.159 15.043 144.749 L 15.043 255.5 L 175.735 255.5 L 175.735 144.749 L 175.735 143 C 175.604 125.234 173.323 114.791 157.367 103.835 C 156.853 103.487 156.339 103.14 155.825 102.807 C 142.602 94.313 130.082 93.585 126.269 93.584 C 126.24 93.584 126.211 93.585 126.183 93.585 Z " fill="url(#_lgradient_87)"/></g><g><linearGradient id="_lgradient_88" x1="0" y1="0.5" x2="6.123233995736766e-17" y2="1.5" gradientTransform="matrix(79.857,0,0,93.432,54.936,0)" gradientUnits="userSpaceOnUse"><stop offset="0%" stop-opacity="1" style="stop-color:rgb(46,44,45)"/><stop offset="100%" stop-opacity="1" style="stop-color:rgb(87,88,90)"/></linearGradient><path d=" M 94.281 0 C 52.241 0 61.576 40.928 61.576 40.928 L 61.606 40.928 C 61.793 42.442 61.989 43.253 61.989 43.253 C 61.989 43.253 54.936 42.887 54.936 48.654 C 54.936 54.433 56.862 65.65 59.107 66.295 C 61.354 66.939 65.204 66.295 65.204 66.295 C 65.204 66.295 64.237 73.029 74.817 82.971 C 83.44 91.074 91.623 92.997 94.379 93.432 L 95.353 93.432 C 98.097 92.997 106.29 91.074 114.914 82.971 C 125.495 73.029 124.535 66.295 124.535 66.295 C 124.535 66.295 128.384 66.939 130.621 66.295 C 132.87 65.65 134.793 54.433 134.793 48.654 C 134.793 42.887 127.738 43.253 127.738 43.253 L 128.27 40.928 C 128.27 40.928 137.604 0 95.565 0 L 94.281 0 Z " fill="url(#_lgradient_88)"/></g><g><linearGradient id="_lgradient_89" x1="0" y1="0.5" x2="6.123233995736766e-17" y2="1.5" gradientTransform="matrix(190.778,0,0,124.999,0,107.501)" gradientUnits="userSpaceOnUse"><stop offset="0%" stop-opacity="1" style="stop-color:rgb(46,44,45)"/><stop offset="100%" stop-opacity="1" style="stop-color:rgb(87,88,90)"/></linearGradient><path d=" M 0 232.5 L 190.778 232.5 L 190.778 107.501 L 0 107.501 L 0 232.5 Z " fill="url(#_lgradient_89)"/></g><g><path d=" M 154.758 226.916 L 36.02 226.916 L 36.02 113.084 L 154.758 113.084 L 154.758 226.916 Z " fill="rgb(35,31,32)"/></g><g><path d=" M 95.501 204.772 C 93.51 204.772 91.519 204.744 89.528 204.78 C 87.436 204.82 85.785 206.234 85.884 208.044 C 85.996 210.104 87.433 211.326 89.282 211.416 C 93.318 211.612 97.374 211.568 101.414 211.418 C 103.6 211.338 104.773 209.798 104.575 207.75 C 104.369 205.606 103.043 204.752 100.996 204.772 C 99.164 204.79 97.332 204.776 95.501 204.772 Z  M 95.224 198.932 L 95.224 198.922 C 96.183 198.918 97.142 198.92 98.1 198.918 C 99.139 198.916 100.182 198.974 101.214 198.888 C 103.363 198.708 104.71 197.294 104.585 195.342 C 104.449 193.198 103.177 192.256 101.099 192.258 C 97.345 192.258 93.591 192.232 89.837 192.256 C 87.449 192.274 85.895 193.56 85.853 195.466 C 85.813 197.298 87.454 198.824 89.714 198.916 C 91.548 198.992 93.387 198.932 95.224 198.932 Z  M 95.415 217.28 L 95.415 217.274 C 93.416 217.272 91.418 217.26 89.419 217.274 C 87.431 217.288 86.312 218.488 85.913 220.25 C 85.542 221.888 87.051 223.81 88.957 223.882 C 93.188 224.04 97.437 224.076 101.663 223.864 C 103.445 223.776 104.768 222.534 104.589 220.46 C 104.414 218.416 103.317 217.258 101.163 217.276 C 99.247 217.292 97.33 217.28 95.415 217.28 Z  M 88.512 175.46 C 87.629 175.46 86.82 175.588 86.065 175.44 C 79.82 174.22 73.448 173.406 67.376 171.592 C 57.671 168.69 48.496 164.614 42.355 155.042 C 42.006 156.45 41.536 157.462 41.546 158.468 C 41.579 161.552 43.333 163.89 45.35 165.974 C 49.945 170.72 55.666 173.724 61.769 175.984 C 65.988 177.544 70.33 178.774 74.682 180.172 C 73.959 181.508 73.111 182.784 72.562 184.176 C 71.977 185.654 71.126 185.752 69.751 185.398 C 61.123 183.168 52.942 180.018 45.82 173.9 C 45.772 178.026 47.638 180.88 50.323 183.24 C 54.696 187.084 60.176 188.674 65.559 190.43 C 66.718 190.808 67.881 191.178 69.099 191.572 C 68.786 192.376 68.602 192.9 68.382 193.41 C 67.074 196.446 67.065 196.466 63.873 195.546 C 58.203 193.916 52.804 191.678 47.536 187.774 C 49.335 197.366 56.824 199.278 64.084 201.754 C 60.075 206.202 55.585 205.226 50.617 203.352 C 52.808 206.902 55.745 208.342 59.243 208.414 C 63.634 208.502 67.725 207.55 70.032 203.212 C 73.065 197.51 76.122 191.816 78.986 186.028 C 80.698 182.568 82.675 180.102 87.022 181.708 C 87.593 181.918 88.286 181.8 88.969 181.836 C 89.243 182.434 89.478 183.022 89.774 183.578 C 90.976 185.832 92.945 187.002 95.421 186.964 C 97.805 186.928 99.853 185.796 100.75 183.53 C 101.344 182.028 102.154 181.622 103.595 181.706 C 104.297 181.746 105.028 181.576 105.724 181.402 C 107.695 180.914 109.03 181.517 110.002 183.376 C 113.248 189.594 116.772 195.674 119.838 201.976 C 122.112 206.65 125.897 208.42 130.641 208.478 C 134.316 208.522 137.519 207.16 139.966 203.366 C 134.835 205.246 130.367 206.18 126.526 201.71 C 133.928 199.324 141.283 197.256 142.933 188.7 C 138.03 190.836 133.219 193.376 128.12 195.034 C 122.684 196.8 124.081 197.464 121.644 191.934 C 121.594 191.82 121.638 191.664 121.638 191.578 C 125.119 190.376 128.613 189.28 132.024 187.966 C 135.691 186.554 139.229 184.84 141.797 181.699 C 143.555 179.55 144.926 177.222 144.791 173.872 C 138.766 179.076 132.069 182.118 124.897 184.234 C 119.06 185.956 119.063 185.974 116.182 180.724 C 116.073 180.528 116.067 180.276 115.99 179.952 C 116.785 179.742 117.549 179.532 118.316 179.338 C 126.476 177.256 134.339 174.46 141.218 169.446 C 144.605 166.978 147.7 164.182 148.906 159.94 C 149.358 158.352 149.582 156.706 147.896 155.514 C 140.03 166.732 113.741 177.924 101.845 175.18 C 101.971 173.056 102.097 170.934 102.226 168.76 C 103.27 168.604 104.131 168.438 105.001 168.352 C 116.397 167.228 127.291 164.4 137.133 158.37 C 141.521 155.682 145.623 152.498 146.938 147.114 C 147.224 145.942 146.679 144.57 146.465 142.88 C 134.909 157.386 119.063 160.268 102.813 162.584 L 102.813 155.578 C 105.492 155.166 107.944 154.852 110.37 154.404 C 119.15 152.778 127.538 150.096 134.824 144.732 C 137.671 142.636 140.241 140.208 141.237 136.604 C 141.68 135.004 141.661 133.528 140.107 132.418 C 133.465 141.688 112.164 151.058 103.063 148.719 C 103.255 146.538 103.449 144.334 103.649 142.07 C 104.208 142.006 104.595 141.974 104.98 141.92 C 113.188 140.79 121.084 138.698 128.09 134.068 C 130.845 132.248 133.341 130.116 134.453 126.818 C 135.02 125.138 135.046 123.578 133.51 122.374 C 125.813 131.746 115.149 134.018 104.189 135.824 L 104.189 128.842 C 107.296 128.196 110.211 127.74 113.039 126.962 C 117.141 125.838 121.065 124.226 124.208 121.228 C 125.453 120.04 126.82 118.712 125.524 116.834 C 105.277 125.158 85.141 125.084 64.662 117.035 C 64.857 118.37 65.04 119.796 65.843 120.608 C 67.223 122.003 68.834 123.418 70.625 124.11 C 75.63 126.045 80.778 127.614 86.443 129.522 C 86.528 130.972 86.659 133.236 86.814 135.918 C 75.428 133.986 64.687 131.736 56.733 121.896 C 56.397 123.394 55.711 124.62 56.001 125.541 C 56.581 127.382 57.292 129.532 58.672 130.7 C 61.561 133.14 64.676 135.642 68.137 137.006 C 74.156 139.378 80.507 140.906 87.134 142.914 L 87.134 149.354 C 73.17 147.276 59.68 144.584 50.064 132.246 C 49.762 133.296 49.11 134.32 49.307 135.138 C 49.742 136.948 50.286 138.884 51.354 140.36 C 54.796 145.12 59.886 147.722 65.114 149.992 C 72.254 153.092 79.809 154.626 87.68 155.496 C 87.848 157.836 88.01 160.086 88.178 162.43 C 78.855 161.688 70.151 159.88 61.878 156.306 C 56.052 153.788 50.497 150.826 46.495 145.654 C 45.894 144.878 45.339 144.066 44.763 143.27 C 44.459 143.318 44.153 143.364 43.848 143.41 C 43.832 144.878 43.289 146.638 43.906 147.758 C 45.377 150.426 47.009 153.242 49.267 155.2 C 56.821 161.746 66.091 164.762 75.671 166.832 C 79.858 167.736 84.138 168.21 88.512 168.902 L 88.512 175.46 Z " fill="rgb(255,255,255)"/></g></g></g></svg>