<?xml version="1.0" encoding="UTF-8" standalone="no"?><!-- Generator: Gravit.io --><svg xmlns="http://www.w3.org/2000/svg" xmlns:xlink="http://www.w3.org/1999/xlink" style="isolation:isolate" viewBox="0 0 222.916 256" width="222.916pt" height="256pt"><defs><clipPath id="_clipPath_zedeTkHIDlGgRi9qVW49z1UfIQ7qJOJO"><rect width="222.916" height="256"/></clipPath></defs><g clip-path="url(#_clipPath_zedeTkHIDlGgRi9qVW49z1UfIQ7qJOJO)"><g><g><path d=" M 189.457 27.608 C 189.457 39.068 154.535 48.358 111.458 48.358 C 68.38 48.358 33.459 39.068 33.459 27.608 C 33.459 16.149 68.38 6.858 111.458 6.858 C 154.535 6.858 189.457 16.149 189.457 27.608 Z " fill="rgb(38,170,225)"/></g><g><linearGradient id="_lgradient_92" x1="0" y1="0.5" x2="6.123233995736766e-17" y2="1.5" gradientTransform="matrix(71.109,0,0,163.569,11.76,20.084)" gradientUnits="userSpaceOnUse"><stop offset="0%" stop-opacity="1" style="stop-color:rgb(108,110,112)"/><stop offset="100%" stop-opacity="1" style="stop-color:rgb(63,62,64)"/></linearGradient><path d=" M 11.76 183.653 L 82.869 183.653 L 82.869 20.084 L 11.76 20.084 L 11.76 183.653 Z " fill="url(#_lgradient_92)"/></g><g><linearGradient id="_lgradient_93" x1="0" y1="0.5" x2="6.123233995736766e-17" y2="1.5" gradientTransform="matrix(71.109,0,0,121.771,11.76,115.258)" gradientUnits="userSpaceOnUse"><stop offset="0%" stop-opacity="1" style="stop-color:rgb(108,110,112)"/><stop offset="100%" stop-opacity="1" style="stop-color:rgb(63,62,64)"/></linearGradient><path d=" M 74.637 115.258 L 74.637 155.427 C 74.637 157.218 73.172 158.684 71.38 158.684 L 23.251 158.684 C 21.459 158.684 19.994 157.218 19.994 155.427 L 19.994 115.258 L 11.76 115.258 L 11.76 237.029 L 82.869 237.029 L 82.869 115.258 L 74.637 115.258 Z " fill="url(#_lgradient_93)"/></g><g><path d=" M 49.928 142.499 C 48.591 142.499 47.496 141.405 47.496 140.067 L 47.496 2.432 C 47.496 1.095 48.591 0 49.928 0 C 51.266 0 52.36 1.095 52.36 2.432 L 52.36 140.067 C 52.36 141.405 51.266 142.499 49.928 142.499 Z " fill="rgb(35,31,32)"/></g><g><path d=" M 58.912 142.499 C 57.575 142.499 56.48 141.405 56.48 140.067 L 56.48 2.432 C 56.48 1.095 57.575 0 58.912 0 C 60.25 0 61.344 1.095 61.344 2.432 L 61.344 140.067 C 61.344 141.405 60.25 142.499 58.912 142.499 Z " fill="rgb(35,31,32)"/></g><g><path d=" M 36.957 256 C 35.619 256 34.525 254.905 34.525 253.567 L 34.525 140.878 C 34.525 139.54 35.619 138.446 36.957 138.446 C 38.294 138.446 39.389 139.54 39.389 140.878 L 39.389 253.567 C 39.389 254.905 38.294 256 36.957 256 Z " fill="rgb(35,31,32)"/></g><g><linearGradient id="_lgradient_94" x1="0" y1="0.5" x2="1" y2="0.5" gradientTransform="matrix(140.047,0,0,217.488,82.869,20.084)" gradientUnits="userSpaceOnUse"><stop offset="0%" stop-opacity="1" style="stop-color:rgb(177,179,181)"/><stop offset="17.599999999999998%" stop-opacity="1" style="stop-color:rgb(177,179,181)"/><stop offset="56.2%" stop-opacity="1" style="stop-color:rgb(202,204,206)"/><stop offset="100%" stop-opacity="1" style="stop-color:rgb(202,204,206)"/></linearGradient><path d=" M 88.87 20.084 C 85.57 20.084 82.869 22.784 82.869 26.084 L 82.869 231.572 C 82.869 234.872 85.57 237.572 88.87 237.572 L 216.916 237.572 C 220.216 237.572 222.916 234.872 222.916 231.572 L 222.916 26.084 C 222.916 22.784 220.216 20.084 216.916 20.084 L 88.87 20.084 Z " fill="url(#_lgradient_94)"/></g><g><linearGradient id="_lgradient_95" x1="0" y1="0.5" x2="1" y2="0.5" gradientTransform="matrix(107.84,0,0,189.263,100.602,37.092)" gradientUnits="userSpaceOnUse"><stop offset="0%" stop-opacity="1" style="stop-color:rgb(108,110,112)"/><stop offset="53.6%" stop-opacity="1" style="stop-color:rgb(63,62,64)"/><stop offset="100%" stop-opacity="1" style="stop-color:rgb(63,62,64)"/></linearGradient><path d=" M 106.601 37.092 C 103.302 37.092 100.602 39.792 100.602 43.092 L 100.602 220.355 C 100.602 223.654 103.302 226.355 106.601 226.355 L 202.442 226.355 C 205.741 226.355 208.442 223.654 208.442 220.355 L 208.442 43.092 C 208.442 39.792 205.741 37.092 202.442 37.092 L 106.601 37.092 Z " fill="url(#_lgradient_95)"/></g><g><path d=" M 42.701 138.852 C 42.701 142.209 39.979 144.932 36.62 144.932 C 33.263 144.932 30.54 142.209 30.54 138.852 C 30.54 135.494 33.263 132.771 36.62 132.771 C 39.979 132.771 42.701 135.494 42.701 138.852 Z " fill="rgb(38,170,225)"/></g><g><linearGradient id="_lgradient_96" x1="0" y1="0.5" x2="1" y2="0.5" gradientTransform="matrix(4.864,0,0,142.499,47.022,0)" gradientUnits="userSpaceOnUse"><stop offset="0%" stop-opacity="1" style="stop-color:rgb(177,179,181)"/><stop offset="17.599999999999998%" stop-opacity="1" style="stop-color:rgb(177,179,181)"/><stop offset="82.19999999999999%" stop-opacity="1" style="stop-color:rgb(202,204,206)"/><stop offset="100%" stop-opacity="1" style="stop-color:rgb(177,179,181)"/></linearGradient><path d=" M 49.454 0 C 48.117 0 47.022 1.095 47.022 2.432 L 47.022 140.067 C 47.022 141.406 48.117 142.499 49.454 142.499 C 50.792 142.499 51.886 141.406 51.886 140.067 L 51.886 2.432 C 51.886 1.095 50.792 0 49.454 0 Z " fill="url(#_lgradient_96)"/></g><g><linearGradient id="_lgradient_97" x1="0" y1="0.5" x2="1" y2="0.5" gradientTransform="matrix(4.865,0,0,142.499,56.005,0)" gradientUnits="userSpaceOnUse"><stop offset="0%" stop-opacity="1" style="stop-color:rgb(177,179,181)"/><stop offset="17.599999999999998%" stop-opacity="1" style="stop-color:rgb(177,179,181)"/><stop offset="82.19999999999999%" stop-opacity="1" style="stop-color:rgb(202,204,206)"/><stop offset="100%" stop-opacity="1" style="stop-color:rgb(177,179,181)"/></linearGradient><path d=" M 58.438 0 C 57.101 0 56.005 1.095 56.005 2.432 L 56.005 140.067 C 56.005 141.406 57.101 142.499 58.438 142.499 C 59.775 142.499 60.87 141.406 60.87 140.067 L 60.87 2.432 C 60.87 1.095 59.775 0 58.438 0 Z " fill="url(#_lgradient_97)"/></g><g><path d=" M 57.764 144.387 L 50.227 144.387 C 47.033 144.387 44.419 141.774 44.419 138.579 C 44.419 135.385 47.033 132.771 50.227 132.771 L 57.764 132.771 C 60.958 132.771 63.572 135.385 63.572 138.579 C 63.572 141.774 60.958 144.387 57.764 144.387 Z " fill="rgb(38,170,225)"/></g><g><line x1="20.446" y1="104.04" x2="20.808" y2="104.04"/></g><g><linearGradient id="_lgradient_98" x1="0" y1="0.5" x2="6.123233995736766e-17" y2="1.5" gradientTransform="matrix(11.76,0,0,217.488,0,20.084)" gradientUnits="userSpaceOnUse"><stop offset="0%" stop-opacity="1" style="stop-color:rgb(177,179,181)"/><stop offset="17.599999999999998%" stop-opacity="1" style="stop-color:rgb(177,179,181)"/><stop offset="56.2%" stop-opacity="1" style="stop-color:rgb(202,204,206)"/><stop offset="100%" stop-opacity="1" style="stop-color:rgb(202,204,206)"/></linearGradient><path d=" M 0 25.965 L 0 231.693 C 0 234.926 2.646 237.572 5.881 237.572 C 9.114 237.572 11.76 234.926 11.76 231.693 L 11.76 25.965 C 11.76 22.731 9.114 20.084 5.881 20.084 C 2.646 20.084 0 22.731 0 25.965 Z " fill="url(#_lgradient_98)"/></g><g><path d=" M 113.514 114.817 L 113.514 68.293 C 113.514 63.388 117.49 59.413 122.394 59.413 L 189.907 59.413 C 194.811 59.413 198.786 63.388 198.786 68.293 L 198.786 114.817 C 198.786 119.721 194.811 123.697 189.907 123.697 L 122.394 123.697 C 117.49 123.697 113.514 119.721 113.514 114.817 Z " fill="rgb(35,31,32)"/></g><g><linearGradient id="_lgradient_99" x1="0" y1="0.5" x2="0.7073678601382329" y2="-0.20684560580331635" gradientTransform="matrix(82.145,0,0,61.158,115.077,60.976)" gradientUnits="userSpaceOnUse"><stop offset="0%" stop-opacity="1" style="stop-color:rgb(26,142,205)"/><stop offset="21.592999999999993%" stop-opacity="1" style="stop-color:rgb(26,142,205)"/><stop offset="66.9328%" stop-opacity="1" style="stop-color:rgb(110,190,233)"/><stop offset="100%" stop-opacity="1" style="stop-color:rgb(35,147,208)"/></linearGradient><path d=" M 121.077 60.976 C 117.777 60.976 115.077 63.676 115.077 66.976 L 115.077 116.134 C 115.077 119.434 117.777 122.134 121.077 122.134 L 191.223 122.134 C 194.522 122.134 197.222 119.434 197.222 116.134 L 197.222 66.976 C 197.222 63.676 194.522 60.976 191.223 60.976 L 121.077 60.976 Z " fill="url(#_lgradient_99)"/></g><g><path d=" M 130.344 167.778 C 125.491 167.778 121.546 163.813 121.546 158.939 C 121.546 154.076 125.491 150.12 130.344 150.12 C 135.215 150.12 139.177 154.076 139.177 158.939 C 139.177 163.813 135.215 167.778 130.344 167.778 Z " fill="rgb(35,31,32)"/></g><g><path d=" M 156.132 167.778 C 151.28 167.778 147.334 163.813 147.334 158.939 C 147.334 154.076 151.28 150.12 156.132 150.12 C 161.004 150.12 164.966 154.076 164.966 158.939 C 164.966 163.813 161.004 167.778 156.132 167.778 Z " fill="rgb(35,31,32)"/></g><g><path d=" M 181.921 167.778 C 177.068 167.778 173.123 163.813 173.123 158.939 C 173.123 154.076 177.068 150.12 181.921 150.12 C 186.792 150.12 190.754 154.076 190.754 158.939 C 190.754 163.813 186.792 167.778 181.921 167.778 Z " fill="rgb(35,31,32)"/></g><g><path d=" M 130.344 188.894 C 125.491 188.894 121.546 184.93 121.546 180.057 C 121.546 175.194 125.491 171.236 130.344 171.236 C 135.215 171.236 139.177 175.194 139.177 180.057 C 139.177 184.93 135.215 188.894 130.344 188.894 Z " fill="rgb(35,31,32)"/></g><g><path d=" M 156.132 188.894 C 151.28 188.894 147.334 184.93 147.334 180.057 C 147.334 175.194 151.28 171.236 156.132 171.236 C 161.004 171.236 164.966 175.194 164.966 180.057 C 164.966 184.93 161.004 188.894 156.132 188.894 Z " fill="rgb(35,31,32)"/></g><g><path d=" M 181.921 188.894 C 177.068 188.894 173.123 184.93 173.123 180.057 C 173.123 175.194 177.068 171.236 181.921 171.236 C 186.792 171.236 190.754 175.194 190.754 180.057 C 190.754 184.93 186.792 188.894 181.921 188.894 Z " fill="rgb(35,31,32)"/></g><g><path d=" M 130.344 210.012 C 125.491 210.012 121.546 206.047 121.546 201.173 C 121.546 196.31 125.491 192.354 130.344 192.354 C 135.215 192.354 139.177 196.31 139.177 201.173 C 139.177 206.047 135.215 210.012 130.344 210.012 Z " fill="rgb(35,31,32)"/></g><g><path d=" M 156.132 210.012 C 151.28 210.012 147.334 206.047 147.334 201.173 C 147.334 196.31 151.28 192.354 156.132 192.354 C 161.004 192.354 164.966 196.31 164.966 201.173 C 164.966 206.047 161.004 210.012 156.132 210.012 Z " fill="rgb(35,31,32)"/></g><g><path d=" M 181.921 210.012 C 177.068 210.012 173.123 206.047 173.123 201.173 C 173.123 196.31 177.068 192.354 181.921 192.354 C 186.792 192.354 190.754 196.31 190.754 201.173 C 190.754 206.047 186.792 210.012 181.921 210.012 Z " fill="rgb(35,31,32)"/></g><g><linearGradient id="_lgradient_100" x1="0" y1="0.5" x2="1" y2="0.5" gradientTransform="matrix(4.864,0,0,117.553,34.051,138.447)" gradientUnits="userSpaceOnUse"><stop offset="0%" stop-opacity="1" style="stop-color:rgb(177,179,181)"/><stop offset="17.599999999999998%" stop-opacity="1" style="stop-color:rgb(177,179,181)"/><stop offset="82.19999999999999%" stop-opacity="1" style="stop-color:rgb(202,204,206)"/><stop offset="100%" stop-opacity="1" style="stop-color:rgb(177,179,181)"/></linearGradient><path d=" M 34.051 140.878 L 34.051 253.567 C 34.051 254.906 35.145 256 36.483 256 C 37.821 256 38.915 254.906 38.915 253.567 L 38.915 140.878 C 38.915 139.54 37.821 138.447 36.483 138.447 C 35.145 138.447 34.051 139.54 34.051 140.878 Z " fill="url(#_lgradient_100)"/></g><g><path d=" M 130.344 166.215 C 126.356 166.215 123.11 162.951 123.11 158.94 C 123.11 154.939 126.356 151.684 130.344 151.684 C 134.353 151.684 137.614 154.939 137.614 158.94 C 137.614 162.951 134.353 166.215 130.344 166.215 Z " fill="rgb(38,170,225)"/></g><g><path d=" M 156.132 166.215 C 152.144 166.215 148.898 162.951 148.898 158.94 C 148.898 154.939 152.144 151.684 156.132 151.684 C 160.141 151.684 163.403 154.939 163.403 158.94 C 163.403 162.951 160.141 166.215 156.132 166.215 Z " fill="rgb(38,170,225)"/></g><g><path d=" M 181.921 166.215 C 177.932 166.215 174.686 162.951 174.686 158.94 C 174.686 154.939 177.932 151.684 181.921 151.684 C 185.929 151.684 189.191 154.939 189.191 158.94 C 189.191 162.951 185.929 166.215 181.921 166.215 Z " fill="rgb(38,170,225)"/></g><g><path d=" M 130.344 187.332 C 126.356 187.332 123.11 184.067 123.11 180.056 C 123.11 176.055 126.356 172.8 130.344 172.8 C 134.353 172.8 137.614 176.055 137.614 180.056 C 137.614 184.067 134.353 187.332 130.344 187.332 Z " fill="rgb(38,170,225)"/></g><g><path d=" M 156.132 187.332 C 152.144 187.332 148.898 184.067 148.898 180.056 C 148.898 176.055 152.144 172.8 156.132 172.8 C 160.141 172.8 163.403 176.055 163.403 180.056 C 163.403 184.067 160.141 187.332 156.132 187.332 Z " fill="rgb(38,170,225)"/></g><g><path d=" M 181.921 187.332 C 177.932 187.332 174.686 184.067 174.686 180.056 C 174.686 176.055 177.932 172.8 181.921 172.8 C 185.929 172.8 189.191 176.055 189.191 180.056 C 189.191 184.067 185.929 187.332 181.921 187.332 Z " fill="rgb(38,170,225)"/></g><g><path d=" M 130.344 208.448 C 126.356 208.448 123.11 205.184 123.11 201.173 C 123.11 197.172 126.356 193.916 130.344 193.916 C 134.353 193.916 137.614 197.172 137.614 201.173 C 137.614 205.184 134.353 208.448 130.344 208.448 Z " fill="rgb(38,170,225)"/></g><g><path d=" M 156.132 208.448 C 152.144 208.448 148.898 205.184 148.898 201.173 C 148.898 197.172 152.144 193.916 156.132 193.916 C 160.141 193.916 163.403 197.172 163.403 201.173 C 163.403 205.184 160.141 208.448 156.132 208.448 Z " fill="rgb(38,170,225)"/></g><g><path d=" M 181.921 208.448 C 177.932 208.448 174.686 205.184 174.686 201.173 C 174.686 197.172 177.932 193.916 181.921 193.916 C 185.929 193.916 189.191 197.172 189.191 201.173 C 189.191 205.184 185.929 208.448 181.921 208.448 Z " fill="rgb(38,170,225)"/></g></g></g></svg>