<?xml version="1.0" encoding="UTF-8" standalone="no"?><!-- Generator: Gravit.io --><svg xmlns="http://www.w3.org/2000/svg" xmlns:xlink="http://www.w3.org/1999/xlink" style="isolation:isolate" viewBox="0 0 256 256.026" width="256pt" height="256.026pt"><defs><clipPath id="_clipPath_O0KVWqLH28uoeyzzY1l4k3KJV50T4KQj"><rect width="256" height="256.026"/></clipPath></defs><g clip-path="url(#_clipPath_O0KVWqLH28uoeyzzY1l4k3KJV50T4KQj)"><g><g><path d=" M 197 0 L 59 0 C 26.55 0 0 26.55 0 59 L 0 197.026 C 0 229.477 26.55 256.026 59 256.026 L 197 256.026 C 229.45 256.026 256 229.477 256 197.026 L 256 59 C 256 26.55 229.45 0 197 0 Z " fill="rgb(35,31,32)"/></g><g><path d=" M 145.724 241.201 C 144.198 241.201 142.792 241.103 141.663 241.025 C 141.215 240.994 140.79 240.964 140.369 240.942 C 136.166 240.732 132.283 239.555 128.941 237.5 C 125.599 239.555 121.714 240.732 117.507 240.943 C 117.09 240.965 116.66 240.994 116.23 241.024 C 115.091 241.103 113.686 241.201 112.159 241.201 C 103.881 241.201 97.062 237.96 92.439 231.827 C 91.756 230.921 91.153 229.981 90.633 229.015 C 78.981 228.633 71.108 222.654 66.169 218.154 C 61.313 213.73 56.629 209.166 52.099 204.752 L 50.777 203.464 C 49.015 201.746 47.93 200.057 47.057 198.701 C 46.743 198.213 46.403 197.682 45.959 197.039 C 44.363 194.73 43.463 192.065 43.319 189.316 C 34.495 181.834 31.138 171.599 34.005 161.331 C 29.786 156.278 27.799 149.806 28.234 142.417 C 28.251 142.113 28.279 141.709 28.28 141.453 C 28.298 136.664 28.323 130.298 31.992 124.754 C 31.518 123.009 31.254 121.245 30.961 119.295 L 30.939 119.145 C 30.522 116.377 29.826 111.748 31.371 106.729 C 35.113 94.575 38.351 84.388 41.996 74.177 C 45.12 65.424 49.9 61.116 54.201 59.023 C 54.817 55.014 56.645 51.254 59.521 48.173 C 60.261 47.379 60.999 46.579 61.739 45.778 C 66.322 40.815 71.058 35.686 76.911 31.151 C 80.836 28.11 85.345 26.358 90.039 26.034 C 92.32 22.068 96.903 17.648 106.092 16.476 C 107.643 16.278 109.19 16.178 110.689 16.178 C 114.83 16.178 122.158 17.05 128.941 22.261 C 135.725 17.051 143.052 16.178 147.193 16.178 C 148.692 16.178 150.239 16.278 151.79 16.476 C 160.978 17.648 165.562 22.067 167.844 26.034 C 172.537 26.357 177.046 28.11 180.971 31.15 C 186.823 35.684 191.557 40.811 196.136 45.77 C 196.885 46.581 197.622 47.379 198.362 48.172 C 201.238 51.254 203.066 55.014 203.682 59.023 C 207.983 61.115 212.763 65.424 215.887 74.177 C 219.536 84.398 222.773 94.582 226.511 106.728 C 228.054 111.741 227.361 116.364 226.947 119.126 L 226.92 119.3 C 226.628 121.249 226.364 123.011 225.89 124.754 C 229.561 130.301 229.584 136.666 229.603 141.462 C 229.604 141.717 229.63 142.098 229.645 142.357 C 230.084 149.798 228.098 156.276 223.877 161.331 C 226.745 171.597 223.389 181.83 214.565 189.315 C 214.42 192.066 213.519 194.732 211.921 197.045 C 211.498 197.656 211.17 198.165 210.894 198.595 L 210.818 198.712 C 209.95 200.061 208.865 201.748 207.11 203.46 L 205.78 204.755 C 201.257 209.163 196.578 213.723 191.713 218.154 C 186.77 222.659 178.884 228.646 167.249 229.016 C 166.73 229.981 166.127 230.92 165.445 231.826 C 160.821 237.959 154.001 241.201 145.724 241.201 Z " fill="rgb(255,255,255)"/></g><g><path d=" M 210.843 185.907 C 210.401 186.268 209.938 186.613 209.458 186.94 C 209.857 189.443 209.295 192.05 207.808 194.201 C 207.31 194.922 206.933 195.511 206.616 196.001 C 205.805 197.262 204.965 198.567 203.618 199.881 L 202.292 201.172 C 197.789 205.56 193.133 210.097 188.346 214.458 C 183.922 218.489 176.855 223.868 166.603 224.03 L 166.206 224.033 C 165.446 224.033 164.706 223.998 163.988 223.931 C 163.473 225.605 162.629 227.254 161.451 228.816 C 157.757 233.717 152.466 236.201 145.724 236.201 C 144.378 236.201 143.12 236.114 142.01 236.037 C 141.545 236.005 141.082 235.972 140.623 235.949 C 136.012 235.719 131.991 234.053 128.942 231.265 C 125.891 234.053 121.87 235.719 117.258 235.949 C 116.8 235.972 116.337 236.005 115.872 236.037 C 114.762 236.114 113.505 236.201 112.159 236.201 L 112.158 236.201 C 105.416 236.201 100.125 233.717 96.432 228.817 C 95.253 227.254 94.409 225.605 93.895 223.931 C 93.176 223.998 92.437 224.033 91.676 224.033 L 91.279 224.03 C 81.028 223.868 73.961 218.489 69.536 214.458 C 64.749 210.097 60.092 205.559 55.589 201.171 L 54.267 199.883 C 52.916 198.566 52.075 197.261 51.263 195.997 C 50.947 195.506 50.57 194.918 50.073 194.198 C 48.587 192.048 48.027 189.442 48.425 186.94 C 47.945 186.613 47.482 186.268 47.039 185.907 C 38.496 178.956 35.896 169.514 39.708 160.078 C 35.08 155.827 32.806 149.828 33.225 142.71 C 33.245 142.372 33.278 141.823 33.28 141.481 C 33.3 136.348 33.322 130.527 37.352 125.962 C 37.435 125.868 37.519 125.776 37.603 125.684 C 37.531 125.522 37.462 125.358 37.396 125.191 C 36.602 123.194 36.295 121.146 35.906 118.554 L 35.883 118.399 C 35.507 115.902 34.94 112.13 36.15 108.2 C 39.873 96.106 43.093 85.979 46.705 75.857 C 49.913 66.867 54.94 63.619 58.976 62.559 C 58.848 58.574 60.256 54.713 63.176 51.584 C 63.923 50.782 64.668 49.976 65.413 49.169 C 69.855 44.359 74.449 39.384 79.973 35.103 C 83.455 32.406 87.486 30.979 91.631 30.979 C 92.176 30.979 92.719 31.004 93.258 31.052 C 93.426 30.527 93.629 30.009 93.869 29.496 C 95.987 24.966 100.312 22.254 106.724 21.436 C 108.067 21.264 109.401 21.178 110.689 21.178 C 114.723 21.178 122.577 22.182 128.941 28.999 C 135.306 22.182 143.159 21.178 147.193 21.178 C 148.481 21.178 149.815 21.264 151.157 21.436 C 157.571 22.254 161.896 24.966 164.014 29.497 C 164.253 30.009 164.457 30.527 164.624 31.052 C 165.163 31.004 165.706 30.979 166.252 30.979 C 170.396 30.979 174.427 32.405 177.908 35.102 C 183.435 39.385 188.029 44.361 192.472 49.172 C 193.216 49.979 193.96 50.784 194.706 51.583 C 197.626 54.713 199.034 58.574 198.906 62.559 C 202.943 63.619 207.969 66.866 211.178 75.857 C 214.796 85.995 218.014 96.118 221.733 108.199 C 222.942 112.127 222.375 115.896 222.001 118.39 L 221.977 118.551 C 221.587 121.146 221.281 123.194 220.487 125.191 C 220.42 125.358 220.351 125.522 220.279 125.684 C 220.364 125.775 220.447 125.868 220.531 125.962 C 224.562 130.527 224.583 136.348 224.603 141.483 C 224.605 141.844 224.638 142.385 224.657 142.718 C 225.077 149.828 222.803 155.826 218.174 160.078 C 221.988 169.514 219.387 178.955 210.843 185.907 Z " fill="rgb(35,31,32)"/></g><g><path d=" M 214.603 141.522 C 214.567 131.926 213.947 131.228 204.131 129.66 C 203.895 129.846 203.521 130 203.457 130.238 C 202.833 132.554 202.833 135.564 199.317 135.24 C 195.54 134.894 196.075 131.814 196.019 129.226 C 196.013 128.918 196.017 128.61 196.017 128.302 C 195.995 119.584 196.829 118.958 204.943 121.604 C 211.043 123.596 211.107 123.604 212.087 117.07 C 212.379 115.12 212.729 112.944 212.175 111.142 C 208.881 100.444 205.521 89.758 201.759 79.218 C 200.501 75.692 198.127 71.018 193.913 72.32 C 191.837 72.962 190.793 78.354 190.117 81.764 C 189.253 86.112 189.633 90.71 188.713 95.04 C 188.099 97.928 188.737 99.726 190.753 101.5 C 191.905 102.514 193.397 103.55 193.823 104.87 C 194.313 106.38 194.409 108.808 193.523 109.738 C 192.761 110.536 189.401 110.432 188.861 109.618 C 183.573 101.662 175.637 102.528 167.773 102.636 C 163.721 102.694 159.861 102.514 156.727 105.938 C 156.065 106.66 153.005 106.468 152.441 105.69 C 151.625 104.564 151.379 102.048 152.117 100.954 C 154.387 97.588 157.307 95.214 162.033 95.532 C 168.165 95.947 174.351 95.572 180.511 95.635 C 183.521 95.665 184.581 94.414 183.617 91.254 C 181.043 82.828 182.227 73.72 187.305 66.52 C 189.367 63.594 189.541 60.708 187.395 58.406 C 182.405 53.058 177.523 47.456 171.783 43.008 C 166.823 39.164 161.127 41.068 157.597 46.326 C 156.827 47.476 156.047 48.622 155.291 49.784 C 153.749 52.156 152.073 55.042 148.809 53.038 C 145.403 50.944 147.499 48.256 149.035 45.908 C 150.553 43.59 152.113 41.3 153.605 38.966 C 156.561 34.347 155.437 32.064 149.891 31.356 C 140.051 30.1 133.72 35.524 130.868 46.644 C 128.89 54.354 132.997 59.962 136.247 65.962 C 136.604 66.624 138.119 66.918 139.104 66.938 C 144.033 67.028 148.977 67.172 153.887 66.862 C 155.739 66.746 157.627 65.648 159.291 64.65 C 160.579 63.878 161.515 62.538 162.651 61.5 C 164.565 59.75 166.499 57.27 169.265 59.942 C 171.973 62.556 169.883 64.64 168.021 66.598 C 166.869 67.812 165.719 69.03 164.219 70.616 C 166.007 72.568 167.953 74.144 169.125 76.168 C 169.249 76.378 169.337 76.608 169.403 76.854 C 169.977 78.986 168.259 81.062 166.051 81.126 C 165.417 81.144 164.783 81.162 164.149 81.176 C 164.035 81.178 163.883 81.01 163.801 80.886 C 157.293 70.886 147.179 74.74 138.227 74.418 C 137.142 74.38 135.38 76.162 134.997 77.422 C 134.344 79.57 133.94 82.132 134.489 84.244 C 136.091 90.39 134.412 96.123 132.991 101.904 C 131.109 109.56 134.985 116.006 137.267 122.758 C 137.536 123.552 139.533 124.118 140.755 124.172 C 148.269 124.514 155.773 124.598 162.919 121.784 C 163.849 121.418 164.791 121.062 165.751 120.782 C 177.223 117.428 179.939 119.246 178.715 130.534 C 178.689 130.774 178.625 131.01 178.533 131.244 C 177.547 133.732 174.165 134.1 172.423 132.068 C 172.035 131.616 171.663 131.152 171.315 130.67 C 170.853 130.028 171.075 128.894 170.945 127.564 C 169.683 127.664 168.405 127.462 167.403 127.896 C 159.703 131.232 151.615 131.846 143.421 131.208 C 139.226 130.882 137.902 132.622 137.268 136.532 C 136.175 143.292 134.065 149.892 133.087 156.662 C 132.505 160.696 133.06 164.944 133.479 169.058 C 134.493 179.016 143.745 183.062 153.061 181.286 C 153.869 181.13 154.979 178.702 154.733 177.598 C 154.039 174.472 152.607 171.518 151.669 168.434 C 150.915 165.954 150.101 163.404 149.943 160.846 C 149.631 155.786 152.207 153.062 157.329 152.942 C 164.565 152.77 171.809 152.778 179.049 152.872 C 181.999 152.91 183.453 152.048 183.967 148.842 C 184.019 148.516 184.161 148.204 184.363 147.9 C 185.863 145.662 189.283 146.018 190.515 148.414 C 190.635 148.652 190.739 148.894 190.819 149.144 C 192.089 153.158 192.701 157.378 193.957 161.396 C 194.766 163.98 195.497 166.7 192.473 167.538 C 191.133 167.91 188.209 166 187.471 164.434 C 185.751 160.785 183.415 159.65 179.523 159.806 C 172.345 160.094 165.149 159.888 157.151 159.888 C 157.817 162.73 158.291 164.742 158.763 166.754 C 159.967 171.904 161.115 177.066 162.407 182.194 C 162.721 183.444 163.177 184.66 163.821 185.778 C 165.637 188.936 168.089 191.766 169.639 195.034 C 169.785 195.34 169.833 195.694 169.821 196.078 C 169.753 198.212 167.667 199.722 165.569 199.318 C 164.951 199.2 164.339 199.052 163.749 198.848 C 163.045 198.606 162.699 197.392 162.139 196.658 C 160.111 194.002 158.497 189.772 155.925 189.068 C 151.343 187.816 145.991 187.91 141.323 188.994 C 138.575 189.632 135.619 192.846 134.329 195.63 C 130.639 203.592 130.688 211.986 133.473 220.36 C 134.724 224.12 137.518 225.782 141.125 225.962 C 145.499 226.182 150.203 227.126 153.465 222.798 C 154.971 220.8 155.125 218.952 153.071 217.126 C 151.461 215.698 149.557 214.308 148.649 212.474 C 148.411 211.992 148.289 211.454 148.229 210.884 C 147.979 208.418 150.205 206.28 152.595 206.936 C 152.915 207.024 153.187 207.16 153.389 207.364 C 157.081 211.08 160.849 214.12 166.445 214.032 C 172.557 213.934 177.335 210.962 181.611 207.066 C 186.729 202.404 191.677 197.55 196.639 192.718 C 197.483 191.896 198.025 190.766 199.581 188.514 C 195.915 188.514 193.207 188.93 190.689 188.42 C 186.547 187.584 182.415 186.432 178.503 184.858 C 176.063 183.876 174.601 181.48 176.381 178.812 C 178.097 176.24 180.141 177.278 182.331 178.686 C 188.511 182.662 199.447 182.29 204.531 178.152 C 210.269 173.482 211.467 167.878 207.747 161.482 C 206.083 158.622 205.653 156.212 208.869 154.49 C 213.543 151.986 214.957 148.078 214.673 143.298 C 214.645 142.81 214.603 142.01 214.603 141.522 Z " fill="rgb(199,200,202)"/></g><g><path d=" M 95.231 61.5 C 96.367 62.538 97.303 63.878 98.589 64.65 C 100.253 65.648 102.143 66.746 103.995 66.862 C 108.905 67.172 113.849 67.028 118.777 66.936 C 119.763 66.918 121.277 66.624 121.635 65.962 C 124.887 59.962 128.991 54.354 127.013 46.644 C 124.161 35.525 117.831 30.101 107.99 31.356 C 102.445 32.063 101.321 34.347 104.277 38.966 C 105.769 41.3 107.329 43.59 108.847 45.908 C 110.383 48.256 112.479 50.944 109.073 53.038 C 105.809 55.042 104.133 52.156 102.589 49.784 C 101.835 48.622 101.057 47.476 100.283 46.326 C 96.753 41.069 91.059 39.164 86.099 43.008 C 80.359 47.456 75.477 53.058 70.487 58.406 C 68.339 60.708 68.515 63.594 70.577 66.52 C 75.655 73.72 76.839 82.828 74.265 91.254 C 73.301 94.414 74.361 95.665 77.369 95.635 C 83.531 95.572 89.715 95.947 95.849 95.532 C 100.575 95.214 103.495 97.588 105.765 100.954 C 106.503 102.048 106.257 104.564 105.441 105.69 C 104.877 106.468 101.817 106.66 101.155 105.938 C 98.021 102.514 94.161 102.694 90.107 102.636 C 82.245 102.528 74.309 101.662 69.021 109.618 C 68.481 110.432 65.121 110.536 64.359 109.738 C 63.473 108.808 63.569 106.38 64.059 104.87 C 64.485 103.55 65.977 102.514 67.129 101.5 C 69.145 99.726 69.783 97.928 69.169 95.04 C 68.249 90.71 68.627 86.112 67.765 81.764 C 67.089 78.354 66.045 72.962 63.969 72.32 C 59.753 71.018 57.381 75.692 56.123 79.218 C 52.361 89.758 49.001 100.444 45.707 111.142 C 45.153 112.944 45.503 115.12 45.795 117.07 C 46.776 123.604 46.837 123.596 52.939 121.604 C 61.053 118.958 61.887 119.582 61.865 128.302 C 61.865 128.61 61.869 128.918 61.863 129.226 C 61.807 131.814 62.341 134.894 58.565 135.24 C 55.047 135.564 55.049 132.554 54.425 130.238 C 54.361 130 53.987 129.846 53.751 129.66 C 43.936 131.228 43.316 131.926 43.28 141.522 C 43.278 142.01 43.237 142.81 43.208 143.298 C 42.927 148.078 44.337 151.986 49.014 154.49 C 52.23 156.212 51.799 158.622 50.136 161.482 C 46.416 167.878 47.614 173.482 53.351 178.152 C 58.437 182.29 69.371 182.662 75.55 178.686 C 77.741 177.278 79.785 176.24 81.501 178.812 C 83.281 181.48 81.819 183.876 79.379 184.858 C 75.467 186.432 71.333 187.584 67.193 188.42 C 64.675 188.93 61.967 188.514 58.301 188.514 C 59.855 190.766 60.399 191.896 61.243 192.718 C 66.205 197.55 71.153 202.404 76.271 207.066 C 80.547 210.962 85.325 213.934 91.437 214.032 C 97.033 214.12 100.803 211.08 104.493 207.364 C 104.695 207.16 104.967 207.024 105.287 206.936 C 107.677 206.28 109.903 208.418 109.653 210.884 C 109.595 211.454 109.471 211.992 109.233 212.474 C 108.325 214.308 106.419 215.698 104.811 217.126 C 102.755 218.952 102.911 220.8 104.417 222.798 C 107.679 227.124 112.383 226.182 116.757 225.962 C 120.363 225.782 123.157 224.12 124.409 220.36 C 127.193 211.986 127.243 203.592 123.553 195.63 C 122.263 192.846 119.307 189.632 116.559 188.994 C 111.891 187.91 106.539 187.816 101.955 189.068 C 99.385 189.772 97.771 194.002 95.743 196.658 C 95.183 197.392 94.837 198.606 94.133 198.848 C 93.543 199.052 92.933 199.2 92.313 199.318 C 90.213 199.722 88.127 198.212 88.061 196.078 C 88.049 195.694 88.097 195.34 88.243 195.034 C 89.793 191.766 92.245 188.936 94.061 185.778 C 94.705 184.66 95.161 183.444 95.475 182.194 C 96.767 177.066 97.915 171.904 99.119 166.754 C 99.589 164.742 100.065 162.73 100.731 159.888 C 92.733 159.888 85.537 160.094 78.359 159.806 C 74.465 159.65 72.131 160.785 70.411 164.434 C 69.673 166 66.749 167.91 65.409 167.538 C 62.385 166.7 63.117 163.98 63.925 161.396 C 65.183 157.378 65.793 153.158 67.063 149.144 C 67.143 148.894 67.245 148.652 67.367 148.414 C 68.599 146.018 72.019 145.662 73.519 147.9 C 73.721 148.204 73.863 148.516 73.915 148.842 C 74.429 152.048 75.885 152.91 78.833 152.872 C 86.073 152.778 93.317 152.77 100.553 152.942 C 105.675 153.062 108.251 155.786 107.939 160.846 C 107.782 163.404 106.967 165.954 106.213 168.434 C 105.275 171.518 103.843 174.472 103.149 177.598 C 102.903 178.702 104.013 181.13 104.821 181.286 C 114.137 183.062 123.389 179.016 124.403 169.058 C 124.821 164.944 125.375 160.696 124.793 156.662 C 123.817 149.892 121.707 143.292 120.613 136.532 C 119.981 132.622 118.657 130.882 114.461 131.208 C 106.267 131.846 98.179 131.232 90.479 127.896 C 89.477 127.462 88.199 127.664 86.937 127.562 C 86.807 128.894 87.029 130.028 86.567 130.67 C 86.219 131.152 85.847 131.616 85.459 132.068 C 83.717 134.1 80.335 133.732 79.349 131.244 C 79.255 131.01 79.193 130.774 79.167 130.534 C 77.943 119.246 80.659 117.428 92.131 120.782 C 93.091 121.062 94.033 121.418 94.963 121.784 C 102.109 124.598 109.613 124.514 117.125 124.172 C 118.349 124.118 120.347 123.552 120.615 122.758 C 122.897 116.006 126.773 109.56 124.891 101.904 C 123.469 96.123 121.791 90.39 123.393 84.244 C 123.943 82.132 123.537 79.57 122.885 77.422 C 122.501 76.162 120.739 74.38 119.655 74.418 C 110.703 74.74 100.587 70.886 94.079 80.886 C 93.999 81.01 93.847 81.178 93.731 81.176 C 93.099 81.162 92.465 81.144 91.831 81.126 C 89.623 81.062 87.903 78.986 88.479 76.854 C 88.543 76.608 88.633 76.378 88.757 76.168 C 89.929 74.144 91.875 72.568 93.663 70.616 C 92.163 69.03 91.013 67.812 89.861 66.598 C 87.999 64.64 85.909 62.556 88.617 59.942 C 91.385 57.27 93.317 59.75 95.231 61.5 Z " fill="rgb(199,200,202)"/></g><g><linearGradient id="_lgradient_123" x1="0" y1="0.5" x2="1" y2="0.5" gradientTransform="matrix(28.214,0,0,19.138,150.777,74.062)" gradientUnits="userSpaceOnUse"><stop offset="0%" stop-opacity="1" style="stop-color:rgb(147,47,30)"/><stop offset="77.3%" stop-opacity="1" style="stop-color:rgb(147,47,30)"/><stop offset="99.6%" stop-opacity="1" style="stop-color:rgb(153,60,38)"/><stop offset="100%" stop-opacity="1" style="stop-color:rgb(153,60,38)"/></linearGradient><path d=" M 171.908 79.126 C 171.908 79.126 167.134 86.286 163.704 84.049 C 160.274 81.811 155.5 78.516 152.517 81.804 C 149.533 85.093 148.865 93.958 163.256 93.148 C 181.881 92.1 180.699 74.064 176.165 74.062 C 174.889 74.062 173.348 75.489 171.908 79.126 Z " fill="url(#_lgradient_123)"/></g><g><linearGradient id="_lgradient_124" x1="0" y1="0.5" x2="1" y2="0.5" gradientTransform="matrix(28.215,0,0,19.138,78.878,74.062)" gradientUnits="userSpaceOnUse"><stop offset="0%" stop-opacity="1" style="stop-color:rgb(153,60,38)"/><stop offset="77.3%" stop-opacity="1" style="stop-color:rgb(153,60,38)"/><stop offset="99.6%" stop-opacity="1" style="stop-color:rgb(147,47,30)"/><stop offset="100%" stop-opacity="1" style="stop-color:rgb(147,47,30)"/></linearGradient><path d=" M 94.613 93.148 C 109.004 93.958 108.337 85.093 105.353 81.804 C 102.37 78.516 97.597 81.811 94.166 84.049 C 90.735 86.286 85.962 79.126 85.962 79.126 C 84.521 75.489 82.98 74.062 81.704 74.062 C 77.17 74.064 75.988 92.1 94.613 93.148 Z " fill="url(#_lgradient_124)"/></g><g><linearGradient id="_lgradient_125" x1="0" y1="0.5" x2="1" y2="0.5" gradientTransform="matrix(20.719,0,0,14.754,163.3,164.432)" gradientUnits="userSpaceOnUse"><stop offset="3.2418516071714084e-15%" stop-opacity="1" style="stop-color:rgb(26,142,205)"/><stop offset="16.300000000000004%" stop-opacity="1" style="stop-color:rgb(26,142,205)"/><stop offset="65.2%" stop-opacity="1" style="stop-color:rgb(110,190,233)"/><stop offset="100%" stop-opacity="1" style="stop-color:rgb(110,190,233)"/></linearGradient><path d=" M 164.594 165.824 C 162.542 168.697 162.542 181.008 167.466 178.957 C 172.391 176.904 175.263 171.159 180.598 171.159 C 185.933 171.159 184.756 166.236 178.957 165.414 C 178.957 165.414 174.046 164.432 169.911 164.432 C 167.498 164.432 165.35 164.766 164.594 165.824 Z " fill="url(#_lgradient_125)"/></g><g><linearGradient id="_lgradient_126" x1="0" y1="0.5" x2="1" y2="0.5" gradientTransform="matrix(20.719,0,0,14.754,73.072,164.432)" gradientUnits="userSpaceOnUse"><stop offset="3.4835460662764096e-15%" stop-opacity="1" style="stop-color:rgb(110,190,233)"/><stop offset="16.300000000000004%" stop-opacity="1" style="stop-color:rgb(110,190,233)"/><stop offset="65.2%" stop-opacity="1" style="stop-color:rgb(26,142,205)"/><stop offset="100%" stop-opacity="1" style="stop-color:rgb(26,142,205)"/></linearGradient><path d=" M 78.134 165.414 C 72.335 166.236 71.159 171.159 76.493 171.159 C 81.828 171.159 84.7 176.904 89.625 178.957 C 94.549 181.008 94.549 168.697 92.497 165.824 C 91.741 164.766 89.593 164.432 87.18 164.432 C 83.045 164.432 78.134 165.414 78.134 165.414 Z " fill="url(#_lgradient_126)"/></g></g></g></svg>