<?xml version="1.0" encoding="UTF-8" standalone="no"?><!-- Generator: Gravit.io --><svg xmlns="http://www.w3.org/2000/svg" xmlns:xlink="http://www.w3.org/1999/xlink" style="isolation:isolate" viewBox="0 0 222.522 256" width="222.522pt" height="256pt"><defs><clipPath id="_clipPath_jF8clq8X8rWYWdWGy3ejE1ETFk4yztgr"><rect width="222.522" height="256"/></clipPath></defs><g clip-path="url(#_clipPath_jF8clq8X8rWYWdWGy3ejE1ETFk4yztgr)"><g><g><radialGradient id="_rgradient_13" fx="0.5" fy="0.5" cx="0.5" cy="0.5" r="0.561" gradientTransform="matrix(102.249,0,0,126.086,58.228,0)" gradientUnits="userSpaceOnUse"><stop offset="0%" stop-opacity="1" style="stop-color:rgb(98,99,102)"/><stop offset="24.9%" stop-opacity="1" style="stop-color:rgb(98,99,102)"/><stop offset="100%" stop-opacity="1" style="stop-color:rgb(49,47,49)"/></radialGradient><path d=" M 109.256 0 C 104.796 0 101.181 3.616 101.181 8.076 C 101.181 8.091 101.185 8.106 101.185 8.121 L 101.078 8.545 C 101.008 8.821 93.995 36.517 85.643 57.889 C 83.989 62.123 81.952 66.951 79.59 72.237 C 70.296 93.037 58.695 114.83 58.578 115.047 C 57.806 116.496 58.354 118.299 59.804 119.072 C 61.098 119.762 62.67 119.393 63.543 118.273 C 63.861 118.187 64.173 118.053 64.466 117.868 C 72.567 112.728 81.046 106.709 89.478 100.563 C 92.665 105.154 96.066 109.64 99.422 114.061 C 101.83 117.233 104.104 120.232 106.276 123.235 C 106.342 124.819 107.637 126.086 109.238 126.086 C 109.279 126.086 109.315 126.072 109.353 126.063 C 109.393 126.064 109.427 126.086 109.468 126.086 C 111.068 126.086 112.363 124.82 112.43 123.236 C 114.602 120.232 116.876 117.233 119.282 114.062 C 122.639 109.64 126.041 105.154 129.227 100.563 C 137.659 106.709 146.139 112.728 154.238 117.868 C 154.533 118.053 154.844 118.187 155.163 118.273 C 156.036 119.393 157.608 119.762 158.901 119.072 C 160.351 118.299 160.899 116.497 160.127 115.047 C 160.01 114.83 148.409 93.037 139.116 72.237 C 136.753 66.951 134.717 62.123 133.062 57.889 C 124.71 36.517 117.698 8.822 117.627 8.545 L 117.213 6.903 C 116.642 3.004 113.315 0 109.256 0 Z  M 112.442 37.455 L 112.442 15.494 C 112.707 15.381 112.947 15.225 113.198 15.084 C 114.443 19.715 116.481 27.05 119.031 35.321 C 118.85 35.546 118.688 35.788 118.566 36.063 C 117.843 37.707 117.115 39.289 116.385 40.84 C 115.101 39.666 113.789 38.528 112.442 37.455 Z  M 100.14 36.063 C 100.018 35.787 99.854 35.546 99.674 35.321 C 102.208 27.104 104.235 19.811 105.484 15.175 C 105.74 15.312 105.991 15.455 106.263 15.564 L 106.263 37.455 C 104.917 38.527 103.605 39.666 102.32 40.84 C 101.59 39.289 100.862 37.707 100.14 36.063 Z  M 114.95 57.984 C 116.089 56.083 117.207 54.109 118.31 52.06 C 120.019 53.726 121.685 55.319 123.366 56.78 C 122.505 58.743 121.565 60.657 120.559 62.537 C 118.712 61.029 116.838 59.504 114.95 57.984 Z  M 95.34 56.78 C 97.02 55.319 98.687 53.726 100.396 52.06 C 101.498 54.109 102.616 56.082 103.755 57.984 C 101.868 59.504 99.994 61.029 98.147 62.537 C 97.141 60.657 96.2 58.743 95.34 56.78 Z  M 125.886 66.884 C 126.745 65.327 127.567 63.743 128.345 62.129 C 129.598 65.253 131.032 68.651 132.628 72.28 C 130.36 70.493 128.108 68.691 125.886 66.884 Z  M 90.361 62.129 C 91.139 63.743 91.96 65.327 92.82 66.884 C 90.598 68.691 88.346 70.493 86.078 72.28 C 87.674 68.651 89.107 65.253 90.361 62.129 Z  M 112.442 64.647 C 114.023 65.929 115.592 67.209 117.139 68.473 C 115.642 70.914 114.064 73.335 112.442 75.78 L 112.442 64.647 Z  M 101.567 68.473 C 103.114 67.209 104.683 65.928 106.263 64.647 L 106.263 75.78 C 104.641 73.335 103.063 70.914 101.567 68.473 Z  M 123.846 88.231 C 121.167 86.258 118.594 84.365 116.073 82.523 C 116.091 82.495 116.11 82.467 116.128 82.44 C 118.239 79.28 120.377 76.076 122.421 72.778 C 125.87 75.575 129.389 78.369 132.963 81.085 C 131.391 84.407 129.541 87.685 127.506 90.922 C 126.283 90.024 125.062 89.126 123.846 88.231 Z  M 85.741 81.085 C 89.317 78.369 92.836 75.575 96.285 72.778 C 98.328 76.076 100.466 79.28 102.578 82.439 C 102.596 82.467 102.615 82.495 102.633 82.523 C 100.112 84.365 97.538 86.258 94.858 88.23 C 93.643 89.126 92.423 90.024 91.2 90.922 C 89.165 87.685 87.314 84.407 85.741 81.085 Z  M 132.973 94.927 C 134.998 91.731 136.874 88.479 138.512 85.155 C 142.21 92.988 145.904 100.41 148.846 106.2 C 143.62 102.627 138.29 98.805 132.973 94.927 Z  M 80.194 85.155 C 81.832 88.479 83.707 91.731 85.732 94.927 C 80.415 98.804 75.085 102.627 69.86 106.2 C 72.802 100.409 76.496 92.988 80.194 85.155 Z  M 112.442 88.244 C 114.842 89.998 117.291 91.799 119.84 93.675 C 121.145 94.636 122.457 95.602 123.771 96.568 C 120.625 101.109 117.238 105.574 113.898 109.974 C 113.415 110.609 112.928 111.252 112.442 111.894 L 112.442 88.244 Z  M 104.808 109.974 C 101.468 105.574 98.079 101.108 94.935 96.568 C 96.249 95.601 97.56 94.636 98.866 93.675 C 101.414 91.799 103.864 89.998 106.263 88.244 L 106.263 111.894 C 105.776 111.251 105.29 110.609 104.808 109.974 Z " fill="url(#_rgradient_13)"/></g><g><linearGradient id="_lgradient_130" x1="0" y1="0.5" x2="6.123233995736766e-17" y2="-0.5" gradientTransform="matrix(222.522,0,0,144.33,0,111.67)" gradientUnits="userSpaceOnUse"><stop offset="0%" stop-opacity="1" style="stop-color:rgb(143,145,148)"/><stop offset="91.4%" stop-opacity="1" style="stop-color:rgb(179,181,184)"/><stop offset="100%" stop-opacity="1" style="stop-color:rgb(204,206,208)"/></linearGradient><path d=" M 0 111.67 L 0 129.408 L 7.288 129.408 L 7.288 256 L 215.233 256 L 215.233 129.408 L 222.522 129.408 L 222.522 111.67 L 0 111.67 Z " fill="url(#_lgradient_130)"/></g><g><linearGradient id="_lgradient_131" x1="0" y1="0.5" x2="6.123233995736766e-17" y2="-0.5" gradientTransform="matrix(194.078,0,0,122.294,14.222,129.336)" gradientUnits="userSpaceOnUse"><stop offset="0%" stop-opacity="1" style="stop-color:rgb(147,47,30)"/><stop offset="77.3%" stop-opacity="1" style="stop-color:rgb(147,47,30)"/><stop offset="99.6%" stop-opacity="1" style="stop-color:rgb(153,60,38)"/><stop offset="100%" stop-opacity="1" style="stop-color:rgb(153,60,38)"/></linearGradient><path d=" M 14.222 129.336 L 14.222 251.63 L 42.674 251.63 L 42.674 180.05 L 88.818 180.05 L 88.818 251.63 L 208.3 251.63 L 208.3 129.336 L 14.222 129.336 Z " fill="url(#_lgradient_131)"/></g><g><linearGradient id="_lgradient_132" x1="0" y1="0.5" x2="6.123233995736766e-17" y2="-0.5" gradientTransform="matrix(36.284,0,0,71.126,47.604,184.874)" gradientUnits="userSpaceOnUse"><stop offset="0%" stop-opacity="1" style="stop-color:rgb(57,56,58)"/><stop offset="42.3%" stop-opacity="1" style="stop-color:rgb(49,47,49)"/><stop offset="100%" stop-opacity="1" style="stop-color:rgb(49,47,49)"/></linearGradient><path d=" M 47.604 256 L 83.888 256 L 83.888 184.874 L 47.604 184.874 L 47.604 256 Z " fill="url(#_lgradient_132)"/></g><g><linearGradient id="_lgradient_133" x1="0" y1="0.5" x2="6.123233995736766e-17" y2="-0.5" gradientTransform="matrix(7.686,0,0,7.686,70.671,214.21)" gradientUnits="userSpaceOnUse"><stop offset="0%" stop-opacity="1" style="stop-color:rgb(143,145,148)"/><stop offset="91.4%" stop-opacity="1" style="stop-color:rgb(179,181,184)"/><stop offset="100%" stop-opacity="1" style="stop-color:rgb(204,206,208)"/></linearGradient><path d=" M 70.671 218.053 C 70.671 220.176 72.392 221.896 74.514 221.896 C 76.636 221.896 78.357 220.176 78.357 218.053 C 78.357 215.931 76.636 214.21 74.514 214.21 C 72.392 214.21 70.671 215.931 70.671 218.053 Z " fill="url(#_lgradient_133)"/></g><g><linearGradient id="_lgradient_134" x1="0" y1="0.5" x2="6.123233995736766e-17" y2="-0.5" gradientTransform="matrix(74.049,0,0,50.863,115.033,156.454)" gradientUnits="userSpaceOnUse"><stop offset="0%" stop-opacity="1" style="stop-color:rgb(143,145,148)"/><stop offset="91.4%" stop-opacity="1" style="stop-color:rgb(179,181,184)"/><stop offset="100%" stop-opacity="1" style="stop-color:rgb(204,206,208)"/></linearGradient><path d=" M 115.033 207.317 L 189.082 207.317 L 189.082 156.454 L 115.033 156.454 L 115.033 207.317 Z " fill="url(#_lgradient_134)"/></g><g><linearGradient id="_lgradient_135" x1="0" y1="0.5" x2="6.123233995736766e-17" y2="-0.5" gradientTransform="matrix(64.05,0,0,40.862,120.032,161.455)" gradientUnits="userSpaceOnUse"><stop offset="0%" stop-opacity="1" style="stop-color:rgb(68,68,69)"/><stop offset="42.3%" stop-opacity="1" style="stop-color:rgb(49,47,49)"/><stop offset="100%" stop-opacity="1" style="stop-color:rgb(49,47,49)"/></linearGradient><path d=" M 120.032 202.317 L 184.082 202.317 L 184.082 161.455 L 120.032 161.455 L 120.032 202.317 Z " fill="url(#_lgradient_135)"/></g></g></g></svg>