<?xml version="1.0" encoding="UTF-8" standalone="no"?><!-- Generator: Gravit.io --><svg xmlns="http://www.w3.org/2000/svg" xmlns:xlink="http://www.w3.org/1999/xlink" style="isolation:isolate" viewBox="0 0 226.214 256" width="226.214pt" height="256pt"><defs><clipPath id="_clipPath_YAs5oYn4TPOCemWLYk1cIYCRt9zgrwrX"><rect width="226.214" height="256"/></clipPath></defs><g clip-path="url(#_clipPath_YAs5oYn4TPOCemWLYk1cIYCRt9zgrwrX)"><g><g><radialGradient id="_rgradient_16" fx="0.5" fy="0.5" cx="0.5" cy="0.5" r="0.565" gradientTransform="matrix(205.334,0,0,256,20.88,0)" gradientUnits="userSpaceOnUse"><stop offset="0%" stop-opacity="1" style="stop-color:rgb(98,99,102)"/><stop offset="24.9%" stop-opacity="1" style="stop-color:rgb(98,99,102)"/><stop offset="100%" stop-opacity="1" style="stop-color:rgb(49,47,49)"/></radialGradient><path d=" M 123.549 0 C 115.039 0 108.14 6.899 108.14 15.409 C 108.14 15.421 108.143 15.431 108.143 15.443 L 108.068 15.443 L 106.931 19.957 C 106.79 20.514 92.707 76.131 75.934 119.05 C 72.612 127.552 68.522 137.247 63.779 147.863 C 45.115 189.632 21.818 233.396 21.584 233.833 C 20.032 236.744 21.133 240.363 24.045 241.915 C 26.641 243.302 29.8 242.56 31.552 240.311 C 32.192 240.137 32.819 239.871 33.408 239.497 C 49.675 229.176 66.703 217.089 83.635 204.746 C 90.035 213.965 96.866 222.975 103.606 231.854 C 108.439 238.222 113.008 244.246 117.368 250.276 C 117.502 253.457 120.102 256 123.316 256 C 123.398 256 123.472 255.974 123.548 255.953 C 123.629 255.957 123.696 256 123.778 256 C 126.992 256 129.592 253.457 129.726 250.276 C 134.087 244.246 138.655 238.222 143.489 231.854 C 150.228 222.975 157.059 213.965 163.459 204.746 C 180.392 217.089 197.42 229.176 213.686 239.497 C 214.276 239.871 214.901 240.137 215.542 240.311 C 217.294 242.56 220.453 243.302 223.05 241.915 C 225.961 240.363 227.062 236.744 225.511 233.833 C 225.276 233.396 201.979 189.632 183.316 147.863 C 178.573 137.247 174.482 127.552 171.16 119.05 C 154.387 76.131 140.305 20.514 140.164 19.957 L 139.027 15.443 L 138.956 15.443 C 138.956 15.431 138.959 15.421 138.959 15.409 C 138.959 6.899 132.06 0 123.549 0 Z  M 129.751 78.013 L 129.751 29.498 C 129.921 29.423 130.07 29.315 130.237 29.234 C 132.533 37.903 137.077 54.577 142.983 73.729 C 142.621 74.18 142.294 74.665 142.05 75.22 C 140.597 78.52 139.137 81.698 137.67 84.811 C 135.091 82.455 132.456 80.167 129.751 78.013 Z  M 134.788 119.24 C 137.076 115.422 139.321 111.46 141.533 107.344 C 144.966 110.69 148.314 113.888 151.688 116.821 C 149.959 120.763 148.071 124.607 146.049 128.384 C 142.341 125.355 138.58 122.292 134.788 119.24 Z  M 156.749 137.114 C 158.473 133.987 160.125 130.805 161.686 127.565 C 164.203 133.838 167.082 140.66 170.288 147.95 C 165.733 144.36 161.211 140.742 156.749 137.114 Z  M 85.408 127.565 C 86.97 130.805 88.621 133.987 90.346 137.114 C 85.884 140.742 81.362 144.36 76.806 147.95 C 80.012 140.66 82.891 133.838 85.408 127.565 Z  M 129.751 132.622 C 132.926 135.194 136.075 137.765 139.183 140.305 C 136.177 145.206 133.009 150.068 129.751 154.978 L 129.751 132.622 Z  M 107.912 140.305 C 111.02 137.765 114.169 135.194 117.343 132.622 L 117.343 154.978 C 114.085 150.068 110.917 145.206 107.912 140.305 Z  M 152.654 179.981 C 147.272 176.02 142.106 172.218 137.042 168.52 C 137.079 168.464 137.116 168.408 137.154 168.352 C 141.393 162.006 145.687 155.571 149.791 148.949 C 156.715 154.566 163.782 160.177 170.962 165.632 C 167.804 172.302 164.088 178.884 160.001 185.386 C 157.546 183.581 155.095 181.778 152.654 179.981 Z  M 76.132 165.632 C 83.312 160.177 90.379 154.566 97.305 148.949 C 101.408 155.571 105.702 162.006 109.941 168.352 C 109.978 168.408 110.015 168.464 110.052 168.52 C 104.989 172.218 99.823 176.02 94.441 179.981 C 92 181.778 89.549 183.581 87.093 185.386 C 83.006 178.884 79.29 172.302 76.132 165.632 Z  M 170.981 193.428 C 175.047 187.01 178.815 180.48 182.104 173.805 C 189.529 189.533 196.947 204.437 202.856 216.066 C 192.362 208.891 181.659 201.215 170.981 193.428 Z  M 64.99 173.805 C 68.28 180.48 72.048 187.01 76.113 193.428 C 65.436 201.215 54.733 208.891 44.239 216.066 C 50.147 204.437 57.565 189.533 64.99 173.805 Z  M 129.751 180.007 C 134.57 183.529 139.489 187.147 144.606 190.914 C 147.228 192.844 149.862 194.783 152.502 196.722 C 146.185 205.842 139.381 214.81 132.675 223.646 C 131.706 224.922 130.729 226.211 129.751 227.501 L 129.751 180.007 Z  M 114.42 223.646 C 107.713 214.81 100.909 205.842 94.593 196.722 C 97.233 194.783 99.866 192.844 102.489 190.914 C 107.606 187.147 112.524 183.529 117.343 180.007 L 117.343 227.501 C 116.366 226.211 115.388 224.922 114.42 223.646 Z " fill="url(#_rgradient_16)"/></g><g><linearGradient id="_lgradient_139" x1="0" y1="0.5" x2="1" y2="0.5" gradientTransform="matrix(86.02,0,0,89.686,37.798,30.133)" gradientUnits="userSpaceOnUse"><stop offset="0%" stop-opacity="1" style="stop-color:rgb(219,220,222)"/><stop offset="85.2%" stop-opacity="1" style="stop-color:rgb(160,162,165)"/><stop offset="100%" stop-opacity="1" style="stop-color:rgb(160,162,165)"/></linearGradient><path d=" M 46.746 30.133 C 41.156 42.56 37.798 58.079 37.798 74.977 C 37.798 91.873 41.156 107.393 46.746 119.819 L 114.869 119.819 C 120.458 107.393 123.818 91.873 123.818 74.977 C 123.818 58.079 120.458 42.56 114.869 30.133 L 46.746 30.133 Z " fill="url(#_lgradient_139)"/></g><g><linearGradient id="_lgradient_140" x1="0" y1="0.5" x2="1" y2="0.5" gradientTransform="matrix(86.02,0,0,147.278,28.674,1.338)" gradientUnits="userSpaceOnUse"><stop offset="0%" stop-opacity="1" style="stop-color:rgb(219,220,222)"/><stop offset="56.599999999999994%" stop-opacity="1" style="stop-color:rgb(219,220,222)"/><stop offset="100%" stop-opacity="1" style="stop-color:rgb(160,162,165)"/></linearGradient><path d=" M 43.01 1.338 L 43.01 20.2 C 34.23 33.682 28.674 53.194 28.674 74.977 C 28.674 96.758 34.23 116.271 43.01 129.753 L 43.01 148.468 L 69.975 148.468 C 70.547 148.506 71.107 148.616 71.684 148.616 C 95.438 148.616 114.694 115.646 114.694 74.977 C 114.694 35.185 96.247 2.85 73.203 1.469 L 73.203 1.338 L 43.01 1.338 Z " fill="url(#_lgradient_140)"/></g><g><radialGradient id="_rgradient_17" fx="0.472" fy="0.416" cx="0.472" cy="0.416" r="0.701" gradientTransform="matrix(86.02,0,0,147.278,0,1.338)" gradientUnits="userSpaceOnUse"><stop offset="0%" stop-opacity="1" style="stop-color:rgb(219,220,222)"/><stop offset="52.1%" stop-opacity="1" style="stop-color:rgb(219,220,222)"/><stop offset="100%" stop-opacity="1" style="stop-color:rgb(160,162,165)"/></radialGradient><path d=" M 0 74.977 C 0 115.646 19.257 148.616 43.01 148.616 C 66.764 148.616 86.02 115.646 86.02 74.977 C 86.02 34.307 66.764 1.338 43.01 1.338 C 19.257 1.338 0 34.307 0 74.977 Z " fill="url(#_rgradient_17)"/></g></g></g></svg>