<?xml version="1.0" encoding="UTF-8" standalone="no"?><!-- Generator: Gravit.io --><svg xmlns="http://www.w3.org/2000/svg" xmlns:xlink="http://www.w3.org/1999/xlink" style="isolation:isolate" viewBox="0 0 187.95 256" width="187.95pt" height="256pt"><defs><clipPath id="_clipPath_CFWK0b2ZfBYdauwj1gujRLZ0A546D9NB"><rect width="187.95" height="256"/></clipPath></defs><g clip-path="url(#_clipPath_CFWK0b2ZfBYdauwj1gujRLZ0A546D9NB)"><g><g><linearGradient id="_lgradient_192" x1="0" y1="0.5" x2="6.123233995736766e-17" y2="-0.5" gradientTransform="matrix(187.95,0,0,122.539,0,100.258)" gradientUnits="userSpaceOnUse"><stop offset="0%" stop-opacity="1" style="stop-color:rgb(219,220,222)"/><stop offset="10.7%" stop-opacity="1" style="stop-color:rgb(219,220,222)"/><stop offset="83.3%" stop-opacity="1" style="stop-color:rgb(157,159,161)"/><stop offset="100%" stop-opacity="1" style="stop-color:rgb(160,162,165)"/></linearGradient><path d=" M 187.95 100.258 L 175.384 100.258 L 12.566 100.258 L 0 100.258 L 0 121.112 L 12.566 146.147 L 12.566 222.797 L 12.689 222.797 L 175.261 222.797 L 175.384 222.797 L 175.384 146.146 L 187.95 121.112 L 187.95 100.258 Z " fill="url(#_lgradient_192)"/></g><g><linearGradient id="_lgradient_193" x1="0" y1="0.5" x2="6.123233995736766e-17" y2="-0.5" gradientTransform="matrix(163.678,0,0,33.203,12.689,222.797)" gradientUnits="userSpaceOnUse"><stop offset="0%" stop-opacity="1" style="stop-color:rgb(108,110,112)"/><stop offset="100%" stop-opacity="1" style="stop-color:rgb(63,62,64)"/></linearGradient><path d=" M 12.689 222.797 L 12.689 238.84 L 12.689 256 L 35.386 256 L 54.228 241.868 L 134.829 241.868 L 153.67 256 L 176.367 256 L 176.367 238.84 L 176.367 222.797 L 12.689 222.797 Z " fill="url(#_lgradient_193)"/></g><g><linearGradient id="_lgradient_194" x1="0" y1="0.5" x2="6.123233995736766e-17" y2="-0.5" gradientTransform="matrix(170.832,0,0,29.661,8.559,103.754)" gradientUnits="userSpaceOnUse"><stop offset="0%" stop-opacity="1" style="stop-color:rgb(108,110,112)"/><stop offset="100%" stop-opacity="1" style="stop-color:rgb(63,62,64)"/></linearGradient><path d=" M 8.559 103.754 L 8.559 119.538 L 16.368 133.415 L 23.163 133.415 L 164.787 133.415 L 171.582 133.415 L 179.391 119.538 L 179.391 103.754 L 8.559 103.754 Z " fill="url(#_lgradient_194)"/></g><g><path d=" M 0 104.6 L 187.949 104.6 L 187.949 0 L 0 0 L 0 104.6 Z " fill="rgb(1,3,5)"/></g><g><linearGradient id="_lgradient_195" x1="0" y1="0.5" x2="0.939613277629381" y2="0.8422380582322366" gradientTransform="matrix(177.053,0,0,94.667,5.448,5.016)" gradientUnits="userSpaceOnUse"><stop offset="0%" stop-opacity="1" style="stop-color:rgb(28,143,206)"/><stop offset="23.122999999999998%" stop-opacity="1" style="stop-color:rgb(110,190,233)"/><stop offset="66.0208%" stop-opacity="1" style="stop-color:rgb(26,142,205)"/><stop offset="100%" stop-opacity="1" style="stop-color:rgb(26,142,205)"/></linearGradient><path d=" M 182.501 5.016 L 5.448 5.016 L 5.448 99.683 L 182.501 99.683 L 182.501 5.016 Z " fill="url(#_lgradient_195)"/></g><g><path d=" M 32.239 113.57 L 20.583 113.57 L 20.583 109.252 L 32.239 109.252 L 32.239 113.57 Z " fill="rgb(35,31,32)"/></g><g><path d=" M 47.253 113.57 L 35.597 113.57 L 35.597 109.252 L 47.253 109.252 L 47.253 113.57 Z " fill="rgb(35,31,32)"/></g><g><path d=" M 62.267 113.57 L 50.611 113.57 L 50.611 109.252 L 62.267 109.252 L 62.267 113.57 Z " fill="rgb(35,31,32)"/></g><g><path d=" M 77.282 113.57 L 65.626 113.57 L 65.626 109.252 L 77.282 109.252 L 77.282 113.57 Z " fill="rgb(35,31,32)"/></g><g><path d=" M 92.296 113.57 L 80.64 113.57 L 80.64 109.252 L 92.296 109.252 L 92.296 113.57 Z " fill="rgb(35,31,32)"/></g><g><path d=" M 107.31 113.57 L 95.654 113.57 L 95.654 109.252 L 107.31 109.252 L 107.31 113.57 Z " fill="rgb(35,31,32)"/></g><g><path d=" M 122.324 113.57 L 110.668 113.57 L 110.668 109.252 L 122.324 109.252 L 122.324 113.57 Z " fill="rgb(35,31,32)"/></g><g><path d=" M 137.339 113.57 L 125.683 113.57 L 125.683 109.252 L 137.339 109.252 L 137.339 113.57 Z " fill="rgb(35,31,32)"/></g><g><path d=" M 152.353 113.57 L 140.697 113.57 L 140.697 109.252 L 152.353 109.252 L 152.353 113.57 Z " fill="rgb(35,31,32)"/></g><g><path d=" M 167.367 113.57 L 155.711 113.57 L 155.711 109.252 L 167.367 109.252 L 167.367 113.57 Z " fill="rgb(35,31,32)"/></g><g><path d=" M 32.239 120.843 L 20.583 120.843 L 20.583 116.525 L 32.239 116.525 L 32.239 120.843 Z " fill="rgb(35,31,32)"/></g><g><path d=" M 47.253 120.843 L 35.597 120.843 L 35.597 116.525 L 47.253 116.525 L 47.253 120.843 Z " fill="rgb(35,31,32)"/></g><g><path d=" M 62.267 120.843 L 50.611 120.843 L 50.611 116.525 L 62.267 116.525 L 62.267 120.843 Z " fill="rgb(35,31,32)"/></g><g><path d=" M 77.282 120.843 L 65.626 120.843 L 65.626 116.525 L 77.282 116.525 L 77.282 120.843 Z " fill="rgb(35,31,32)"/></g><g><path d=" M 92.296 120.843 L 80.64 120.843 L 80.64 116.525 L 92.296 116.525 L 92.296 120.843 Z " fill="rgb(35,31,32)"/></g><g><path d=" M 107.31 120.843 L 95.654 120.843 L 95.654 116.525 L 107.31 116.525 L 107.31 120.843 Z " fill="rgb(35,31,32)"/></g><g><path d=" M 122.324 120.843 L 110.668 120.843 L 110.668 116.525 L 122.324 116.525 L 122.324 120.843 Z " fill="rgb(35,31,32)"/></g><g><path d=" M 137.339 120.843 L 125.683 120.843 L 125.683 116.525 L 137.339 116.525 L 137.339 120.843 Z " fill="rgb(35,31,32)"/></g><g><path d=" M 152.353 120.843 L 140.697 120.843 L 140.697 116.525 L 152.353 116.525 L 152.353 120.843 Z " fill="rgb(35,31,32)"/></g><g><path d=" M 167.367 120.843 L 155.711 120.843 L 155.711 116.525 L 167.367 116.525 L 167.367 120.843 Z " fill="rgb(35,31,32)"/></g><g><path d=" M 32.239 128.115 L 20.583 128.115 L 20.583 123.797 L 32.239 123.797 L 32.239 128.115 Z " fill="rgb(35,31,32)"/></g><g><path d=" M 47.253 128.115 L 35.597 128.115 L 35.597 123.797 L 47.253 123.797 L 47.253 128.115 Z " fill="rgb(35,31,32)"/></g><g><path d=" M 62.267 128.115 L 50.611 128.115 L 50.611 123.797 L 62.267 123.797 L 62.267 128.115 Z " fill="rgb(35,31,32)"/></g><g><path d=" M 77.282 128.115 L 65.626 128.115 L 65.626 123.797 L 77.282 123.797 L 77.282 128.115 Z " fill="rgb(35,31,32)"/></g><g><path d=" M 92.296 128.115 L 80.64 128.115 L 80.64 123.797 L 92.296 123.797 L 92.296 128.115 Z " fill="rgb(35,31,32)"/></g><g><path d=" M 107.31 128.115 L 95.654 128.115 L 95.654 123.797 L 107.31 123.797 L 107.31 128.115 Z " fill="rgb(35,31,32)"/></g><g><path d=" M 122.324 128.115 L 110.668 128.115 L 110.668 123.797 L 122.324 123.797 L 122.324 128.115 Z " fill="rgb(35,31,32)"/></g><g><path d=" M 137.339 128.115 L 125.683 128.115 L 125.683 123.797 L 137.339 123.797 L 137.339 128.115 Z " fill="rgb(35,31,32)"/></g><g><path d=" M 152.353 128.115 L 140.697 128.115 L 140.697 123.797 L 152.353 123.797 L 152.353 128.115 Z " fill="rgb(35,31,32)"/></g><g><path d=" M 167.367 128.115 L 155.711 128.115 L 155.711 123.797 L 167.367 123.797 L 167.367 128.115 Z " fill="rgb(35,31,32)"/></g></g></g></svg>