<?xml version="1.0" encoding="UTF-8" standalone="no"?><!-- Generator: Gravit.io --><svg xmlns="http://www.w3.org/2000/svg" xmlns:xlink="http://www.w3.org/1999/xlink" style="isolation:isolate" viewBox="0 0 256 256" width="256pt" height="256pt"><defs><clipPath id="_clipPath_lgJP1htwA951junHKXnxYc4QsI6a37Gg"><rect width="256" height="256"/></clipPath></defs><g clip-path="url(#_clipPath_lgJP1htwA951junHKXnxYc4QsI6a37Gg)"><g><g><linearGradient id="_lgradient_285" x1="0" y1="0.5" x2="1" y2="0.5" gradientTransform="matrix(256,0,0,256,0,0)" gradientUnits="userSpaceOnUse"><stop offset="0%" stop-opacity="1" style="stop-color:rgb(219,220,222)"/><stop offset="37.8%" stop-opacity="1" style="stop-color:rgb(177,179,181)"/><stop offset="72.1%" stop-opacity="1" style="stop-color:rgb(219,220,222)"/><stop offset="100%" stop-opacity="1" style="stop-color:rgb(187,189,191)"/></linearGradient><path d=" M 128 0 C 57.304 0 0 57.311 0 128 C 0 198.69 57.304 256 128 256 C 198.696 256 256 198.69 256 128 C 256 57.311 198.696 0 128 0 Z " fill="url(#_lgradient_285)"/></g><g><linearGradient id="_lgradient_286" x1="0" y1="0.5" x2="0.9397350320761654" y2="0.8419035967766475" gradientTransform="matrix(206.417,0,0,206.417,24.791,24.792)" gradientUnits="userSpaceOnUse"><stop offset="3.000000000000006%" stop-opacity="1" style="stop-color:rgb(63,62,64)"/><stop offset="53.384%" stop-opacity="1" style="stop-color:rgb(63,62,64)"/><stop offset="96.99999999999999%" stop-opacity="1" style="stop-color:rgb(108,110,112)"/></linearGradient><path d=" M 24.791 128 C 24.791 185.001 70.993 231.209 128 231.209 C 185 231.209 231.208 185.001 231.208 128 C 231.208 71 185 24.792 128 24.792 C 70.993 24.792 24.791 71 24.791 128 Z " fill="url(#_lgradient_286)"/></g><g><linearGradient id="_lgradient_287" x1="0" y1="0.5" x2="0.9397753121660986" y2="0.8417928651144023" gradientTransform="matrix(138.125,0,0,89.636,58.937,72.826)" gradientUnits="userSpaceOnUse"><stop offset="0%" stop-opacity="1" style="stop-color:rgb(30,144,206)"/><stop offset="22.154%" stop-opacity="1" style="stop-color:rgb(110,190,233)"/><stop offset="66.5984%" stop-opacity="1" style="stop-color:rgb(26,142,205)"/><stop offset="100%" stop-opacity="1" style="stop-color:rgb(26,142,205)"/></linearGradient><path d=" M 58.937 162.462 L 197.062 162.462 L 197.062 72.826 L 58.937 72.826 L 58.937 162.462 Z " fill="url(#_lgradient_287)"/></g><g><path d=" M 161.679 174.991 C 168.545 174.991 174.19 180.582 174.19 187.49 C 174.19 194.41 168.545 200.007 161.679 200.007 C 154.783 200.007 149.198 194.41 149.198 187.49 C 149.198 180.582 154.783 174.991 161.679 174.991 Z " fill="rgb(38,170,225)"/></g><g><path d=" M 128.479 174.991 C 135.399 174.991 141.027 180.582 141.027 187.49 C 141.027 194.41 135.399 200.007 128.479 200.007 C 121.602 200.007 115.98 194.41 115.98 187.49 C 115.98 180.582 121.602 174.991 128.479 174.991 Z " fill="rgb(38,170,225)"/></g><g><path d=" M 94.352 174.991 C 101.254 174.991 106.857 180.582 106.857 187.49 C 106.857 194.41 101.254 200.007 94.352 200.007 C 87.438 200.007 81.81 194.41 81.81 187.49 C 81.81 180.582 87.438 174.991 94.352 174.991 Z " fill="rgb(38,170,225)"/></g></g></g></svg>