<?xml version="1.0" encoding="UTF-8" standalone="no"?><!-- Generator: Gravit.io --><svg xmlns="http://www.w3.org/2000/svg" xmlns:xlink="http://www.w3.org/1999/xlink" style="isolation:isolate" viewBox="0 0 205.333 256" width="205.333pt" height="256pt"><defs><clipPath id="_clipPath_7Zq2hx7TTQY6JEIvL1QRI6K9U8KMCPP9"><rect width="205.333" height="256"/></clipPath></defs><g clip-path="url(#_clipPath_7Zq2hx7TTQY6JEIvL1QRI6K9U8KMCPP9)"><g><g><radialGradient id="_rgradient_27" fx="0.5" fy="0.5" cx="0.5" cy="0.5" r="0.565" gradientTransform="matrix(205.333,0,0,256,0,0)" gradientUnits="userSpaceOnUse"><stop offset="0%" stop-opacity="1" style="stop-color:rgb(98,99,102)"/><stop offset="24.9%" stop-opacity="1" style="stop-color:rgb(98,99,102)"/><stop offset="100%" stop-opacity="1" style="stop-color:rgb(49,47,49)"/></radialGradient><path d=" M 102.669 0 C 94.158 0 87.26 6.899 87.26 15.409 C 87.26 15.421 87.262 15.431 87.262 15.443 L 87.188 15.443 L 86.051 19.957 C 85.91 20.514 71.827 76.131 55.054 119.05 C 51.731 127.552 47.642 137.247 42.898 147.863 C 24.235 189.632 0.938 233.396 0.704 233.833 C -0.848 236.744 0.253 240.363 3.165 241.915 C 5.761 243.302 8.92 242.56 10.672 240.311 C 11.312 240.137 11.939 239.871 12.527 239.497 C 28.795 229.176 45.823 217.089 62.755 204.746 C 69.155 213.965 75.986 222.975 82.726 231.854 C 87.559 238.222 92.127 244.246 96.488 250.276 C 96.621 253.457 99.222 256 102.436 256 C 102.518 256 102.592 255.974 102.668 255.953 C 102.749 255.957 102.816 256 102.898 256 C 106.111 256 108.712 253.457 108.846 250.276 C 113.207 244.246 117.775 238.222 122.609 231.854 C 129.348 222.975 136.179 213.965 142.578 204.746 C 159.511 217.089 176.539 229.176 192.806 239.497 C 193.396 239.871 194.021 240.137 194.662 240.311 C 196.414 242.56 199.573 243.302 202.169 241.915 C 205.08 240.363 206.182 236.744 204.63 233.833 C 204.396 233.396 181.099 189.632 162.436 147.863 C 157.693 137.247 153.602 127.552 150.28 119.05 C 133.507 76.131 119.425 20.514 119.284 19.957 L 118.146 15.443 L 118.076 15.443 C 118.076 15.431 118.079 15.421 118.079 15.409 C 118.079 6.899 111.18 0 102.669 0 Z  M 108.871 78.013 L 108.871 29.498 C 109.041 29.423 109.19 29.315 109.356 29.234 C 111.653 37.903 116.197 54.577 122.102 73.729 C 121.741 74.18 121.413 74.665 121.17 75.22 C 119.716 78.52 118.256 81.698 116.79 84.811 C 114.21 82.455 111.576 80.167 108.871 78.013 Z  M 113.908 119.24 C 116.196 115.422 118.441 111.46 120.653 107.344 C 124.086 110.69 127.434 113.888 130.808 116.821 C 129.079 120.763 127.191 124.607 125.17 128.384 C 121.461 125.355 117.7 122.292 113.908 119.24 Z  M 135.869 137.114 C 137.593 133.987 139.244 130.805 140.805 127.565 C 143.323 133.838 146.202 140.66 149.407 147.95 C 144.853 144.36 140.331 140.742 135.869 137.114 Z  M 64.528 127.565 C 66.09 130.805 67.741 133.987 69.466 137.114 C 65.004 140.742 60.482 144.36 55.926 147.95 C 59.131 140.66 62.011 133.838 64.528 127.565 Z  M 108.871 132.622 C 112.046 135.194 115.195 137.765 118.302 140.305 C 115.297 145.206 112.129 150.068 108.871 154.978 L 108.871 132.622 Z  M 87.032 140.305 C 90.14 137.765 93.289 135.194 96.462 132.622 L 96.462 154.978 C 93.205 150.068 90.036 145.206 87.032 140.305 Z  M 131.774 179.981 C 126.392 176.02 121.226 172.218 116.162 168.52 C 116.199 168.464 116.236 168.408 116.273 168.352 C 120.513 162.006 124.806 155.571 128.91 148.949 C 135.834 154.566 142.902 160.177 150.081 165.632 C 146.923 172.302 143.207 178.884 139.121 185.386 C 136.665 183.581 134.215 181.778 131.774 179.981 Z  M 55.251 165.632 C 62.431 160.177 69.499 154.566 76.424 148.949 C 80.528 155.571 84.821 162.006 89.061 168.352 C 89.098 168.408 89.134 168.464 89.171 168.52 C 84.109 172.218 78.942 176.02 73.561 179.981 C 71.12 181.778 68.668 183.581 66.213 185.386 C 62.126 178.884 58.41 172.302 55.251 165.632 Z  M 150.101 193.428 C 154.167 187.01 157.935 180.48 161.224 173.805 C 168.649 189.533 176.066 204.437 181.976 216.066 C 171.482 208.891 160.779 201.215 150.101 193.428 Z  M 44.11 173.805 C 47.4 180.48 51.167 187.01 55.233 193.428 C 44.556 201.215 33.853 208.891 23.359 216.066 C 29.267 204.437 36.684 189.533 44.11 173.805 Z  M 108.871 180.007 C 113.69 183.529 118.608 187.147 123.726 190.914 C 126.349 192.844 128.982 194.783 131.621 196.722 C 125.305 205.842 118.501 214.81 111.795 223.646 C 110.826 224.922 109.849 226.211 108.871 227.501 L 108.871 180.007 Z  M 93.539 223.646 C 86.833 214.81 80.029 205.842 73.713 196.722 C 76.353 194.783 78.986 192.844 81.608 190.914 C 86.725 187.147 91.645 183.529 96.462 180.007 L 96.462 227.501 C 95.486 226.211 94.508 224.922 93.539 223.646 Z " fill="url(#_rgradient_27)"/></g><g><linearGradient id="_lgradient_302" x1="0" y1="0.5" x2="1" y2="0.5" gradientTransform="matrix(18.091,0,0,102.593,57.733,13.265)" gradientUnits="userSpaceOnUse"><stop offset="0%" stop-opacity="1" style="stop-color:rgb(219,220,222)"/><stop offset="85.2%" stop-opacity="1" style="stop-color:rgb(160,162,165)"/><stop offset="100%" stop-opacity="1" style="stop-color:rgb(160,162,165)"/></linearGradient><path d=" M 63.807 13.265 C 60.466 13.265 57.733 15.998 57.733 19.338 L 57.733 109.785 C 57.733 113.125 60.466 115.858 63.807 115.858 L 69.751 115.858 C 73.091 115.858 75.824 113.125 75.824 109.785 L 75.824 19.338 C 75.824 15.998 73.091 13.265 69.751 13.265 L 63.807 13.265 Z " fill="url(#_lgradient_302)"/></g><g><linearGradient id="_lgradient_303" x1="0" y1="0.5" x2="1" y2="0.5" gradientTransform="matrix(18.092,0,0,102.593,53.775,13.265)" gradientUnits="userSpaceOnUse"><stop offset="0%" stop-opacity="1" style="stop-color:rgb(219,220,222)"/><stop offset="64.3%" stop-opacity="1" style="stop-color:rgb(160,162,165)"/><stop offset="100%" stop-opacity="1" style="stop-color:rgb(207,209,210)"/></linearGradient><path d=" M 59.848 13.265 C 56.509 13.265 53.775 15.998 53.775 19.338 L 53.775 109.785 C 53.775 113.125 56.509 115.858 59.848 115.858 L 65.794 115.858 C 69.134 115.858 71.867 113.125 71.867 109.785 L 71.867 19.338 C 71.867 15.998 69.134 13.265 65.794 13.265 L 59.848 13.265 Z " fill="url(#_lgradient_303)"/></g><g><linearGradient id="_lgradient_304" x1="0" y1="0.5" x2="1" y2="0.5" gradientTransform="matrix(18.091,0,0,102.593,84.87,13.265)" gradientUnits="userSpaceOnUse"><stop offset="0%" stop-opacity="1" style="stop-color:rgb(219,220,222)"/><stop offset="85.2%" stop-opacity="1" style="stop-color:rgb(160,162,165)"/><stop offset="100%" stop-opacity="1" style="stop-color:rgb(160,162,165)"/></linearGradient><path d=" M 90.943 13.265 C 87.603 13.265 84.87 15.998 84.87 19.338 L 84.87 109.785 C 84.87 113.125 87.603 115.858 90.943 115.858 L 96.888 115.858 C 100.229 115.858 102.961 113.125 102.961 109.785 L 102.961 19.338 C 102.961 15.998 100.229 13.265 96.888 13.265 L 90.943 13.265 Z " fill="url(#_lgradient_304)"/></g><g><linearGradient id="_lgradient_305" x1="0" y1="0.5" x2="1" y2="0.5" gradientTransform="matrix(18.091,0,0,102.593,80.913,13.265)" gradientUnits="userSpaceOnUse"><stop offset="0%" stop-opacity="1" style="stop-color:rgb(219,220,222)"/><stop offset="64.3%" stop-opacity="1" style="stop-color:rgb(160,162,165)"/><stop offset="100%" stop-opacity="1" style="stop-color:rgb(207,209,210)"/></linearGradient><path d=" M 86.986 13.265 C 83.645 13.265 80.913 15.998 80.913 19.338 L 80.913 109.785 C 80.913 113.125 83.645 115.858 86.986 115.858 L 92.931 115.858 C 96.271 115.858 99.004 113.125 99.004 109.785 L 99.004 19.338 C 99.004 15.998 96.271 13.265 92.931 13.265 L 86.986 13.265 Z " fill="url(#_lgradient_305)"/></g></g></g></svg>