<?xml version="1.0" encoding="UTF-8" standalone="no"?><!-- Generator: Gravit.io --><svg xmlns="http://www.w3.org/2000/svg" xmlns:xlink="http://www.w3.org/1999/xlink" style="isolation:isolate" viewBox="0 0 255.975 256" width="255.975pt" height="256pt"><defs><clipPath id="_clipPath_FQSzufTsEzSIIOZhprddA4sQ7gHpwj1u"><rect width="255.975" height="256"/></clipPath></defs><g clip-path="url(#_clipPath_FQSzufTsEzSIIOZhprddA4sQ7gHpwj1u)"><g><g><linearGradient id="_lgradient_317" x1="0" y1="0.5" x2="1" y2="0.5" gradientTransform="matrix(5.593,0,0,241.458,199.115,2.237)" gradientUnits="userSpaceOnUse"><stop offset="0%" stop-opacity="1" style="stop-color:rgb(108,110,112)"/><stop offset="53.6%" stop-opacity="1" style="stop-color:rgb(63,62,64)"/><stop offset="100%" stop-opacity="1" style="stop-color:rgb(63,62,64)"/></linearGradient><path d=" M 204.708 2.237 L 199.115 2.237 L 199.115 243.695 L 204.708 243.695 L 204.708 2.237 Z " fill="url(#_lgradient_317)"/></g><g><linearGradient id="_lgradient_318" x1="0" y1="0.5" x2="6.123233995736766e-17" y2="-0.5" gradientTransform="matrix(80.541,0,0,41.948,161.641,170.985)" gradientUnits="userSpaceOnUse"><stop offset="0%" stop-opacity="1" style="stop-color:rgb(26,142,205)"/><stop offset="100%" stop-opacity="1" style="stop-color:rgb(110,190,233)"/></linearGradient><path d=" M 242.182 212.933 L 161.641 212.933 L 161.641 170.985 L 242.182 170.985 L 242.182 212.933 Z " fill="url(#_lgradient_318)"/></g><g><linearGradient id="_lgradient_319" x1="0" y1="0.5" x2="1" y2="0.5" gradientTransform="matrix(21.941,0,0,113.475,68.118,142.525)" gradientUnits="userSpaceOnUse"><stop offset="0%" stop-opacity="1" style="stop-color:rgb(219,220,222)"/><stop offset="72.1%" stop-opacity="1" style="stop-color:rgb(219,220,222)"/><stop offset="100%" stop-opacity="1" style="stop-color:rgb(187,189,191)"/></linearGradient><path d=" M 68.118 256 L 90.059 256 L 90.059 142.525 L 68.118 142.525 L 68.118 256 Z " fill="url(#_lgradient_319)"/></g><g><path d=" M 0 145.816 L 158.179 145.816 L 158.179 40.407 L 0 40.407 L 0 145.816 Z " fill="rgb(1,3,5)"/></g><g><linearGradient id="_lgradient_320" x1="0" y1="0.5" x2="0.9396260982186645" y2="0.8422028573030458" gradientTransform="matrix(149.009,0,0,97.148,4.584,44.578)" gradientUnits="userSpaceOnUse"><stop offset="0%" stop-opacity="1" style="stop-color:rgb(30,144,206)"/><stop offset="22.154%" stop-opacity="1" style="stop-color:rgb(110,190,233)"/><stop offset="66.5984%" stop-opacity="1" style="stop-color:rgb(26,142,205)"/><stop offset="100%" stop-opacity="1" style="stop-color:rgb(26,142,205)"/></linearGradient><path d=" M 153.593 44.578 L 4.584 44.578 L 4.584 141.726 L 153.593 141.726 L 153.593 44.578 Z " fill="url(#_lgradient_320)"/></g><g><linearGradient id="_lgradient_321" x1="0" y1="0.5" x2="6.123233995736766e-17" y2="-0.5" gradientTransform="matrix(18.671,0,0,18.69,169.952,187.971)" gradientUnits="userSpaceOnUse"><stop offset="0%" stop-opacity="1" style="stop-color:rgb(219,220,222)"/><stop offset="72.1%" stop-opacity="1" style="stop-color:rgb(219,220,222)"/><stop offset="100%" stop-opacity="1" style="stop-color:rgb(187,189,191)"/></linearGradient><path d=" M 169.952 197.308 C 169.952 202.48 174.123 206.661 179.276 206.661 C 184.406 206.661 188.623 202.48 188.623 197.308 C 188.623 192.148 184.406 187.971 179.276 187.971 C 174.123 187.971 169.952 192.148 169.952 197.308 Z " fill="url(#_lgradient_321)"/></g><g><path d=" M 179.276 203.057 C 176.122 203.057 173.556 200.479 173.556 197.31 C 173.556 194.148 176.122 191.576 179.276 191.576 C 182.444 191.576 185.019 194.148 185.019 197.31 C 185.019 200.479 182.444 203.057 179.276 203.057 Z " fill="rgb(35,31,32)"/></g><g><linearGradient id="_lgradient_322" x1="0" y1="0.5" x2="6.123233995736766e-17" y2="-0.5" gradientTransform="matrix(18.672,0,0,18.69,192.576,187.971)" gradientUnits="userSpaceOnUse"><stop offset="0%" stop-opacity="1" style="stop-color:rgb(219,220,222)"/><stop offset="72.1%" stop-opacity="1" style="stop-color:rgb(219,220,222)"/><stop offset="100%" stop-opacity="1" style="stop-color:rgb(187,189,191)"/></linearGradient><path d=" M 192.576 197.308 C 192.576 202.48 196.748 206.661 201.9 206.661 C 207.03 206.661 211.248 202.48 211.248 197.308 C 211.248 192.148 207.03 187.971 201.9 187.971 C 196.748 187.971 192.576 192.148 192.576 197.308 Z " fill="url(#_lgradient_322)"/></g><g><path d=" M 201.9 203.057 C 198.746 203.057 196.18 200.479 196.18 197.31 C 196.18 194.148 198.746 191.576 201.9 191.576 C 205.068 191.576 207.643 194.148 207.643 197.31 C 207.643 200.479 205.068 203.057 201.9 203.057 Z " fill="rgb(35,31,32)"/></g><g><linearGradient id="_lgradient_323" x1="0" y1="0.5" x2="6.123233995736766e-17" y2="-0.5" gradientTransform="matrix(18.673,0,0,18.69,215.199,187.971)" gradientUnits="userSpaceOnUse"><stop offset="0%" stop-opacity="1" style="stop-color:rgb(219,220,222)"/><stop offset="72.1%" stop-opacity="1" style="stop-color:rgb(219,220,222)"/><stop offset="100%" stop-opacity="1" style="stop-color:rgb(187,189,191)"/></linearGradient><path d=" M 215.199 197.308 C 215.199 202.48 219.372 206.661 224.524 206.661 C 229.654 206.661 233.872 202.48 233.872 197.308 C 233.872 192.148 229.654 187.971 224.524 187.971 C 219.372 187.971 215.199 192.148 215.199 197.308 Z " fill="url(#_lgradient_323)"/></g><g><path d=" M 224.524 203.057 C 221.37 203.057 218.804 200.479 218.804 197.31 C 218.804 194.148 221.37 191.576 224.524 191.576 C 227.692 191.576 230.267 194.148 230.267 197.31 C 230.267 200.479 227.692 203.057 224.524 203.057 Z " fill="rgb(35,31,32)"/></g><g><linearGradient id="_lgradient_324" x1="0" y1="0.5" x2="1" y2="0.5" gradientTransform="matrix(172.269,0,0,12.865,49.778,243.135)" gradientUnits="userSpaceOnUse"><stop offset="0%" stop-opacity="1" style="stop-color:rgb(108,110,112)"/><stop offset="53.6%" stop-opacity="1" style="stop-color:rgb(63,62,64)"/><stop offset="100%" stop-opacity="1" style="stop-color:rgb(63,62,64)"/></linearGradient><path d=" M 49.778 256 L 222.047 256 L 222.047 243.135 L 49.778 243.135 L 49.778 256 Z " fill="url(#_lgradient_324)"/></g><g><path d=" M 134.553 231.914 C 132.22 231.916 130.019 231.497 127.945 230.659 C 102.084 220.21 106.537 148.77 106.739 145.734 L 109.15 145.895 C 109.102 146.621 104.6 218.623 128.851 228.42 C 140.492 233.119 157.211 222.702 178.544 197.447 L 180.391 199.007 C 161.907 220.887 146.531 231.913 134.553 231.914 Z " fill="rgb(35,31,32)"/></g><g><path d=" M 150.487 231.916 C 147.259 231.916 144.251 231.293 141.467 230.045 C 113.785 217.639 118.697 148.654 118.92 145.724 L 121.329 145.906 C 121.276 146.607 116.315 216.127 142.456 227.841 C 155.916 233.867 175.551 223.624 200.83 197.389 L 202.569 199.064 C 181.518 220.914 164.057 231.916 150.487 231.916 Z " fill="rgb(35,31,32)"/></g><g><path d=" M 165.092 231.917 C 160.578 231.917 156.448 230.987 152.702 229.124 C 123.32 214.504 128.728 148.512 128.973 145.71 L 131.379 145.92 C 131.321 146.59 125.863 213.073 153.78 226.962 C 169.408 234.737 192.74 224.767 223.122 197.33 L 224.742 199.124 C 200.58 220.942 180.594 231.917 165.092 231.917 Z " fill="rgb(35,31,32)"/></g><g><linearGradient id="_lgradient_325" x1="0" y1="0.5" x2="6.123233995736766e-17" y2="-0.5" gradientTransform="matrix(63.463,0,0,10.008,170.179,0)" gradientUnits="userSpaceOnUse"><stop offset="0%" stop-opacity="1" style="stop-color:rgb(219,220,222)"/><stop offset="72.1%" stop-opacity="1" style="stop-color:rgb(219,220,222)"/><stop offset="100%" stop-opacity="1" style="stop-color:rgb(187,189,191)"/></linearGradient><path d=" M 189.915 0 L 189.915 0.098 C 185.172 0.096 176.708 0.318 173.133 1.815 C 171.139 2.649 170.015 4.279 170.199 6.07 C 170.352 7.56 171.535 9.351 174.397 9.909 C 174.743 9.976 175.118 10.008 175.518 10.008 C 181.378 10.008 192.537 3.198 193.868 2.373 L 194.086 2.237 L 209.737 2.237 L 209.955 2.373 C 211.287 3.198 222.444 10.008 228.305 10.008 C 228.705 10.008 229.08 9.976 229.427 9.909 C 232.288 9.351 233.471 7.56 233.623 6.07 C 233.807 4.279 232.683 2.649 230.69 1.815 C 227.382 0.429 219.887 0.135 215.027 0.1 L 215.027 0 L 189.915 0 Z  M 215.027 2.518 C 220.081 2.561 226.989 2.884 229.758 4.043 C 230.73 4.451 231.291 5.133 231.221 5.823 C 231.14 6.613 230.255 7.286 228.962 7.537 C 228.734 7.581 228.481 7.603 228.209 7.603 C 225.09 7.603 219.263 4.834 215.027 2.518 Z  M 174.86 7.537 C 173.569 7.286 172.684 6.613 172.602 5.823 C 172.532 5.133 173.092 4.451 174.066 4.043 C 176.832 2.885 183.742 2.561 188.795 2.518 C 184.562 4.833 178.741 7.603 175.618 7.603 C 175.343 7.603 175.09 7.582 174.86 7.537 Z " fill="url(#_lgradient_325)"/></g><g><path d=" M 240.97 236.59 C 233.871 236.59 226.233 229.187 226.233 212.933 L 228.649 212.933 C 228.649 219.67 230.035 225.271 232.659 229.131 C 234.87 232.383 237.821 234.174 240.97 234.174 C 247.226 234.174 253.558 226.902 253.558 213 C 253.558 204.393 251.698 198.136 248.178 194.907 C 245.338 192.302 242.417 192.527 242.294 192.534 L 242.062 190.13 C 242.222 190.111 246.098 189.765 249.746 193.068 C 253.879 196.806 255.975 203.513 255.975 213 C 255.975 228.487 248.426 236.59 240.97 236.59 Z " fill="rgb(35,31,32)"/></g></g></g></svg>