<?xml version="1.0" encoding="UTF-8" standalone="no"?><!-- Generator: Gravit.io --><svg xmlns="http://www.w3.org/2000/svg" xmlns:xlink="http://www.w3.org/1999/xlink" style="isolation:isolate" viewBox="0 0 256 198.006" width="256pt" height="198.006pt"><defs><clipPath id="_clipPath_59EEW5yPN90Kdb0ijd6SpFSAvnL4iG8w"><rect width="256" height="198.006"/></clipPath></defs><g clip-path="url(#_clipPath_59EEW5yPN90Kdb0ijd6SpFSAvnL4iG8w)"><g><g><linearGradient id="_lgradient_0" x1="0" y1="0.5" x2="1" y2="0.5" gradientTransform="matrix(13.716,0,0,158.445,36.478,0)" gradientUnits="userSpaceOnUse"><stop offset="0%" stop-opacity="1" style="stop-color:rgb(34,31,32)"/><stop offset="50.2%" stop-opacity="1" style="stop-color:rgb(69,68,70)"/><stop offset="100%" stop-opacity="1" style="stop-color:rgb(34,31,32)"/></linearGradient><path d=" M 40.798 2.469 L 40.798 29.521 C 40.798 29.521 40.579 49.664 39.557 61.664 C 39.557 61.664 37.294 78.981 37.294 91.203 L 36.478 158.445 L 50.194 158.445 L 50.194 91.548 C 50.194 91.548 50.194 78.981 47.643 61.996 C 47.643 61.996 46.461 43.439 46.576 29.631 L 46.576 2.469 C 46.576 2.469 45.518 0 43.807 0 C 42.957 0 41.935 0.62 40.798 2.469 Z " fill="url(#_lgradient_0)"/></g><g><linearGradient id="_lgradient_1" x1="0" y1="0.5" x2="1" y2="0.5" gradientTransform="matrix(13.716,0,0,158.445,121.387,0)" gradientUnits="userSpaceOnUse"><stop offset="0%" stop-opacity="1" style="stop-color:rgb(34,31,32)"/><stop offset="50.2%" stop-opacity="1" style="stop-color:rgb(69,68,70)"/><stop offset="100%" stop-opacity="1" style="stop-color:rgb(34,31,32)"/></linearGradient><path d=" M 125.706 2.469 L 125.706 29.521 C 125.706 29.521 125.488 49.664 124.465 61.664 C 124.465 61.664 122.202 78.981 122.202 91.203 L 121.387 158.445 L 135.103 158.445 L 135.103 91.548 C 135.103 91.548 135.103 78.981 132.553 61.996 C 132.553 61.996 131.369 43.439 131.484 29.631 L 131.484 2.469 C 131.484 2.469 130.427 0 128.715 0 C 127.866 0 126.843 0.62 125.706 2.469 Z " fill="url(#_lgradient_1)"/></g><g><linearGradient id="_lgradient_2" x1="0" y1="0.5" x2="1" y2="0.5" gradientTransform="matrix(13.717,0,0,158.445,206.294,0)" gradientUnits="userSpaceOnUse"><stop offset="0%" stop-opacity="1" style="stop-color:rgb(34,31,32)"/><stop offset="50.2%" stop-opacity="1" style="stop-color:rgb(69,68,70)"/><stop offset="100%" stop-opacity="1" style="stop-color:rgb(34,31,32)"/></linearGradient><path d=" M 210.614 2.469 L 210.614 29.521 C 210.614 29.521 210.396 49.664 209.373 61.664 C 209.373 61.664 207.111 78.981 207.111 91.203 L 206.294 158.445 L 220.011 158.445 L 220.011 91.548 C 220.011 91.548 220.011 78.981 217.461 61.996 C 217.461 61.996 216.277 43.439 216.392 29.631 L 216.392 2.469 C 216.392 2.469 215.336 0 213.624 0 C 212.773 0 211.752 0.62 210.614 2.469 Z " fill="url(#_lgradient_2)"/></g><g><linearGradient id="_lgradient_3" x1="0" y1="0.5" x2="1" y2="0.5" gradientTransform="matrix(256,0,0,57.93,0,140.076)" gradientUnits="userSpaceOnUse"><stop offset="0%" stop-opacity="1" style="stop-color:rgb(7,59,107)"/><stop offset="12.4248%" stop-opacity="1" style="stop-color:rgb(7,59,107)"/><stop offset="100%" stop-opacity="1" style="stop-color:rgb(24,92,156)"/></linearGradient><path d=" M 0 140.076 L 0 193.383 L 12.912 193.383 L 14.927 197.277 L 34.256 197.277 L 35.749 193.383 L 220.648 193.383 L 222.452 198.006 L 241.716 198.006 L 244.094 193.383 L 256 193.383 L 256 140.076 L 0 140.076 Z " fill="url(#_lgradient_3)"/></g><g><path d=" M 245.432 181.878 C 244.215 181.878 243.232 174.837 243.232 166.146 C 243.232 157.473 244.215 150.432 245.432 150.432 C 246.661 150.432 247.655 157.473 247.655 166.146 C 247.655 174.837 246.661 181.878 245.432 181.878 Z " fill="rgb(35,31,32)"/></g><g><path d=" M 105.161 181.878 C 103.949 181.878 102.955 174.837 102.955 166.146 C 102.955 157.473 103.949 150.432 105.161 150.432 C 106.39 150.432 107.378 157.473 107.378 166.146 C 107.378 174.837 106.39 181.878 105.161 181.878 Z " fill="rgb(35,31,32)"/></g><g><linearGradient id="_lgradient_4" x1="0" y1="0.5" x2="1" y2="0.5" gradientTransform="matrix(140.634,0,0,31.084,105.161,150.599)" gradientUnits="userSpaceOnUse"><stop offset="0%" stop-opacity="1" style="stop-color:rgb(187,189,191)"/><stop offset="50.2%" stop-opacity="1" style="stop-color:rgb(230,231,232)"/><stop offset="100%" stop-opacity="1" style="stop-color:rgb(219,220,222)"/></linearGradient><path d=" M 105.161 181.683 L 245.795 181.683 L 245.795 150.599 L 105.161 150.599 L 105.161 181.683 Z " fill="url(#_lgradient_4)"/></g><g><path d=" M 140.094 170.397 L 134.718 170.397 L 134.718 173.556 L 132.352 173.556 L 132.352 176.87 L 122.898 176.87 L 122.898 173.556 L 120.387 173.556 L 120.387 170.397 L 115.81 170.397 L 115.81 155.274 L 140.094 155.274 L 140.094 170.397 Z " fill="rgb(35,31,32)"/></g><g><path d=" M 171.913 170.397 L 166.543 170.397 L 166.543 173.556 L 164.182 173.556 L 164.182 176.87 L 154.723 176.87 L 154.723 173.556 L 152.212 173.556 L 152.212 170.397 L 147.629 170.397 L 147.629 155.274 L 171.913 155.274 L 171.913 170.397 Z " fill="rgb(35,31,32)"/></g><g><path d=" M 203.722 170.397 L 198.346 170.397 L 198.346 173.556 L 195.98 173.556 L 195.98 176.87 L 186.52 176.87 L 186.52 173.556 L 184.01 173.556 L 184.01 170.397 L 179.427 170.397 L 179.427 155.274 L 203.722 155.274 L 203.722 170.397 Z " fill="rgb(35,31,32)"/></g><g><path d=" M 235.852 171.057 L 230.482 171.057 L 230.482 174.216 L 228.115 174.216 L 228.115 177.53 L 218.656 177.53 L 218.656 174.216 L 216.134 174.216 L 216.134 171.057 L 211.563 171.057 L 211.563 155.928 L 235.852 155.928 L 235.852 171.057 Z " fill="rgb(35,31,32)"/></g><g><linearGradient id="_lgradient_5" x1="0" y1="0.5" x2="1" y2="0.5" gradientTransform="matrix(22.974,0,0,3.917,12.855,193.389)" gradientUnits="userSpaceOnUse"><stop offset="0%" stop-opacity="1" style="stop-color:rgb(34,31,32)"/><stop offset="50.2%" stop-opacity="1" style="stop-color:rgb(69,68,70)"/><stop offset="100%" stop-opacity="1" style="stop-color:rgb(34,31,32)"/></linearGradient><path d=" M 12.855 193.389 L 14.888 197.306 L 34.324 197.306 L 35.829 193.389 L 12.855 193.389 Z " fill="url(#_lgradient_5)"/></g><g><linearGradient id="_lgradient_6" x1="0" y1="0.5" x2="1" y2="0.5" gradientTransform="matrix(22.975,0,0,3.917,220.533,193.389)" gradientUnits="userSpaceOnUse"><stop offset="0%" stop-opacity="1" style="stop-color:rgb(34,31,32)"/><stop offset="50.2%" stop-opacity="1" style="stop-color:rgb(69,68,70)"/><stop offset="100%" stop-opacity="1" style="stop-color:rgb(34,31,32)"/></linearGradient><path d=" M 220.533 193.389 L 222.566 197.306 L 242.003 197.306 L 243.508 193.389 L 220.533 193.389 Z " fill="url(#_lgradient_6)"/></g><g><path d=" M 53.02 166.071 C 53.02 171.419 48.684 175.755 43.336 175.755 C 37.989 175.755 33.652 171.419 33.652 166.071 C 33.652 160.725 37.989 156.389 43.336 156.389 C 48.684 156.389 53.02 160.725 53.02 166.071 Z " fill="rgb(38,170,225)"/></g></g></g></svg>