<?xml version="1.0" encoding="utf-8"?>
<!-- Generator: Adobe Illustrator 28.1.0, SVG Export Plug-In . SVG Version: 6.00 Build 0)  -->
<svg version="1.1" id="CIP_Logo_00000047775288577358438680000006422714085626467488_"
	 xmlns="http://www.w3.org/2000/svg" xmlns:xlink="http://www.w3.org/1999/xlink" x="0px" y="0px" viewBox="0 0 239 170"
	 style="enable-background:new 0 0 239 170;" xml:space="preserve">
<style type="text/css">
	.st0{fill:#9CCB3C;}
	.st1{fill:#017249;}
</style>
<g id="CIP_Logo">
	<path id="Fill" class="st0" d="M167.32,21.21c-0.76,0-25.04,0.05-25.04,0.05v23.57h25.85l0.1-0.01
		c14.11,0.5,25.46,11.71,25.46,25.94c0,14.29-11.37,25.89-25.56,26.33c0,0,0,0.02,0,0.03h-32.98V52.08H110.9l-0.04,72.19
		c0,0-23.64,0.39-23.77,0.39c-22.05,0-39.93-17.88-39.93-39.93c0-21.2,16.52-38.53,37.39-39.84v-0.05h18.15V21.27H90.63
		c-1.17-0.06-2.35-0.1-3.54-0.1c-35.11,0-63.57,28.46-63.57,63.57s28.55,64.04,63.66,64.04c8.42,0,47.99,0,47.99,0v-28.43
		l33.23-0.06c26.87-0.57,48.49-22.51,48.49-49.52C216.86,43.39,194.68,21.21,167.32,21.21z"/>
	<path id="Outline" class="st1" d="M167.32,8.6c-0.58,0-15.07,0.03-21.75,0.04l0,0h-45.11v0.01h-9.5c-1.36-0.07-2.63-0.1-3.88-0.1
		c-42,0-76.18,34.17-76.18,76.18c0,42.26,34.21,76.65,76.26,76.65h47.98h12.61v-12.61v-15.84l20.64-0.04h0.12h0.12
		c16.32-0.34,31.61-6.96,43.06-18.62c11.46-11.68,17.77-27.13,17.77-43.5C229.47,36.48,201.59,8.6,167.32,8.6z M110.89,21.26h24.25
		v23.56h-24.25V21.26z M168.38,120.28l-33.23,0.06v28.43c0,0-39.56,0-47.99,0c-35.11,0-63.66-28.93-63.66-64.04
		s28.46-63.57,63.57-63.57c1.19,0,2.37,0.04,3.54,0.1h9.84l0,0h2.23v23.57H84.53v0.05c-20.87,1.31-37.39,18.64-37.39,39.84
		c0,22.05,17.88,39.93,39.93,39.93c0.13,0,23.77-0.39,23.77-0.39l0.04-72.19h24.25v45.04h32.98c0-0.01,0-0.03,0-0.03
		c14.18-0.43,25.56-12.04,25.56-26.33c0-14.23-11.35-25.44-25.46-25.94l-0.1,0.01h-25.85V21.25c0,0,24.28-0.05,25.04-0.05
		c27.36,0,49.55,22.18,49.55,49.55C216.86,97.77,195.25,119.71,168.38,120.28z M98.28,57.44l-0.03,54.43
		c-5.33,0.09-10.51,0.17-11.25,0.18c-15.03-0.04-27.24-12.29-27.24-27.33c0-14.38,11.23-26.36,25.58-27.26l0.4-0.03h12.54V57.44z
		 M147.75,84.5V57.43h20.37h0.01c7.28,0.43,12.94,6.22,12.94,13.32c0,7.47-5.86,13.5-13.33,13.73l-0.67,0.02H147.75z"/>
</g>
</svg>
