<?xml version="1.0" encoding="utf-8"?>
<!-- Generator: Adobe Illustrator 28.1.0, SVG Export Plug-In . SVG Version: 6.00 Build 0)  -->
<svg version="1.1" id="Artwork" xmlns="http://www.w3.org/2000/svg" xmlns:xlink="http://www.w3.org/1999/xlink" x="0px" y="0px"
	 viewBox="0 0 403 188" style="enable-background:new 0 0 403 188;" xml:space="preserve">
<style type="text/css">
	.st0{fill:#9CCB3C;}
	.st1{fill:#017249;}
	.st2{fill:none;stroke:#9CCB3C;stroke-width:2.5463;stroke-linecap:round;stroke-miterlimit:10;}
	.st3{fill:#036648;}
</style>
<g id="Logo_w_text">
	<g id="CIP_Logo_00000157310664201858224180000004421448106618577322_">
		<path id="Fill_00000018238900131949313340000011174193132839849094_" class="st0" d="M108.95,21.69c-0.46,0-15.41,0.03-15.41,0.03
			v14.51h15.91l0.06-0.01c8.68,0.3,15.67,7.2,15.67,15.96c0,8.79-7,15.93-15.73,16.2c0,0,0,0.01,0,0.02h-20.3V40.69H74.22
			l-0.03,44.42c0,0-14.55,0.24-14.63,0.24c-13.57,0-24.57-11-24.57-24.57c0-13.05,10.17-23.71,23.01-24.52v-0.03h11.17V21.72h-7.43
			c-0.72-0.04-1.45-0.06-2.18-0.06c-21.6,0-39.12,17.51-39.12,39.12c0,21.6,17.57,39.41,39.17,39.41c5.18,0,29.53,0,29.53,0V82.7
			l20.45-0.04c16.54-0.35,29.84-13.85,29.84-30.47C139.44,35.34,125.79,21.69,108.95,21.69z"/>
		<path id="Outline_00000024718175349270494650000018187048790275899797_" class="st1" d="M108.95,13.93
			c-0.36,0-9.28,0.02-13.38,0.03l0,0H67.8v0.01h-5.85c-0.84-0.04-1.62-0.06-2.39-0.06c-25.85,0-46.88,21.03-46.88,46.88
			c0,26.01,21.05,47.17,46.93,47.17h29.53h7.76v-7.76v-9.75l12.7-0.02h0.08h0.08c10.05-0.21,19.46-4.28,26.5-11.46
			c7.05-7.19,10.94-16.7,10.94-26.77C147.2,31.09,130.04,13.93,108.95,13.93z M74.23,21.72h14.93v14.5H74.23L74.23,21.72
			L74.23,21.72z M109.6,82.66L89.15,82.7v17.49c0,0-24.34,0.03-29.53,0c-21.29-0.14-39.17-17.8-39.17-39.41
			c0-21.6,17.51-39.12,39.12-39.12c0.73,0,1.46,0.02,2.18,0.06h6.05l0,0h1.37v14.51H58v0.03c-12.84,0.81-23.01,11.47-23.01,24.52
			c0,13.57,11,24.57,24.57,24.57c0.08,0,14.63-0.24,14.63-0.24l0.03-44.42h14.93V68.4h20.3v-0.02c8.73-0.27,15.73-7.41,15.73-16.2
			c0-8.76-6.98-15.66-15.67-15.96l-0.06,0.01H93.54V21.72c0,0,14.94-0.03,15.41-0.03c16.84,0,30.49,13.65,30.49,30.49
			C139.44,68.8,126.14,82.31,109.6,82.66z M66.47,43.98l-0.02,33.49c-3.28,0.05-6.47,0.11-6.93,0.11
			c-9.25-0.03-16.77-7.56-16.77-16.82c0-8.85,6.91-16.22,15.74-16.78l0.25-0.02h7.73V43.98z M96.91,60.64V43.98h12.54h0.01
			c4.48,0.27,7.96,3.83,7.96,8.2c0,4.6-3.6,8.31-8.2,8.45l-0.41,0.01L96.91,60.64L96.91,60.64z"/>
	</g>
	<line class="st2" x1="161.36" y1="8.06" x2="161.36" y2="178.43"/>
	<g id="Crit_text">
		<path class="st3" d="M183.18,41.97c4.11,0,6.98-2.74,6.98-6.66v-4.14h-4.81v4.14c0,1.36-0.82,2.2-2.13,2.2s-2.13-0.84-2.13-2.2
			V20.5c0-1.36,0.82-2.2,2.13-2.2s2.13,0.84,2.13,2.2v3.45h4.81V20.5c0-3.92-2.87-6.66-6.98-6.66c-4.11,0-6.98,2.74-6.98,6.66v14.82
			C176.2,39.24,179.07,41.97,183.18,41.97z"/>
		<path class="st3" d="M197.5,30.55h1.65l3.09,11.04h5.08l-3.62-12.13c1.85-1.17,2.87-3.15,2.87-5.61v-2.94
			c0-4.07-2.74-6.7-6.98-6.7h-6.98v27.37h4.89L197.5,30.55L197.5,30.55z M197.5,18.68h1.89c1.48,0,2.29,0.77,2.29,2.16v3.09
			c0,1.4-0.81,2.16-2.29,2.16h-1.89V18.68z"/>
		<rect x="209.77" y="14.22" class="st3" width="4.89" height="27.37"/>
		<polygon class="st3" points="221.08,41.59 225.97,41.59 225.97,18.68 230.62,18.68 230.62,14.22 216.43,14.22 216.43,18.68 
			221.08,18.68 		"/>
		<rect x="233.03" y="14.22" class="st3" width="4.89" height="27.37"/>
		<path class="st3" d="M247.67,41.97c4.11,0,6.98-2.74,6.98-6.66v-4.14h-4.81v4.14c0,1.36-0.82,2.2-2.13,2.2s-2.13-0.84-2.13-2.2
			V20.5c0-1.36,0.82-2.2,2.13-2.2s2.13,0.84,2.13,2.2v3.45h4.81V20.5c0-3.92-2.87-6.66-6.98-6.66s-6.98,2.74-6.98,6.66v14.82
			C240.69,39.24,243.56,41.97,247.67,41.97z"/>
		<path class="st3" d="M261.49,35.67h4.03l0.92,5.92h4.98l-4.72-27.11l-0.05-0.26h-6.23l-4.76,27.37h4.9L261.49,35.67z
			 M263.51,22.36l1.35,8.78h-2.71L263.51,22.36z"/>
		<polygon class="st3" points="285.88,37.14 278.3,37.14 278.3,14.22 273.42,14.22 273.42,41.59 285.88,41.59 		"/>
		<rect x="176.57" y="47.32" class="st3" width="4.89" height="27.37"/>
		<polygon class="st3" points="193.81,63.43 188.95,47.32 183.7,47.32 183.7,74.69 188.51,74.69 188.51,59.26 193.58,74.69 
			198.62,74.69 198.62,47.32 193.81,47.32 		"/>
		<polygon class="st3" points="213.82,51.78 213.82,47.32 201.31,47.32 201.31,74.69 206.2,74.69 206.2,63.43 212.21,63.43 
			212.21,58.97 206.2,58.97 206.2,51.78 		"/>
		<path class="st3" d="M227.31,62.57c1.85-1.17,2.87-3.15,2.87-5.61v-2.94c0-4.07-2.74-6.7-6.98-6.7h-6.98v27.37h4.89V63.65h1.65
			l3.09,11.04h5.08L227.31,62.57z M221.12,51.78h1.89c1.48,0,2.29,0.77,2.29,2.16v3.09c0,1.4-0.81,2.16-2.29,2.16h-1.89V51.78z"/>
		<path class="st3" d="M237.56,74.69l0.92-5.92h4.03l0.92,5.92h4.98l-4.72-27.11l-0.05-0.26h-6.23l-4.76,27.37H237.56z
			 M240.49,55.46l1.35,8.78h-2.71L240.49,55.46z"/>
		<path class="st3" d="M250.04,66.95v1.24c0,4.06,2.95,6.89,7.18,6.89s7.18-2.83,7.18-6.89c0-2.96-1.18-4.89-5.51-9.01
			c-3.01-2.87-3.79-4.01-3.79-5.54c0-1.49,0.68-2.24,2.01-2.24c1.66,0,2.01,1.53,2.01,2.81v1.12l4.73-0.49v-0.97
			c0-4.27-2.6-6.93-6.78-6.93s-6.78,2.64-6.78,6.89c0,3.12,1.29,5.22,5.52,9.02c3.26,2.95,3.79,4.04,3.79,5.53
			c0,1.4-0.9,2.24-2.41,2.24s-2.41-1.05-2.41-2.81v-1.35L250.04,66.95z"/>
		<polygon class="st3" points="274.74,74.69 274.74,51.78 279.39,51.78 279.39,47.32 265.2,47.32 265.2,51.78 269.85,51.78 
			269.85,74.69 		"/>
		<path class="st3" d="M281.8,74.69h4.89V63.65h1.65l3.09,11.04h5.08l-3.62-12.13c1.85-1.17,2.87-3.15,2.87-5.61v-2.94
			c0-4.07-2.74-6.7-6.98-6.7h-6.98L281.8,74.69L281.8,74.69z M288.58,51.78c1.48,0,2.29,0.77,2.29,2.16v3.09
			c0,1.4-0.81,2.16-2.29,2.16h-1.89v-7.42L288.58,51.78L288.58,51.78z"/>
		<path class="st3" d="M307.23,68.49c0,1.31-0.78,2.13-2.05,2.13c-1.26,0-2.05-0.81-2.05-2.13V47.32h-4.89v21.17
			c0,3.87,2.85,6.58,6.94,6.58c4.1,0,6.86-2.65,6.86-6.58V47.32h-4.81V68.49z"/>
		<path class="st3" d="M322.1,46.94c-4.11,0-6.98,2.74-6.98,6.66v14.82c0,3.92,2.87,6.66,6.98,6.66s6.98-2.74,6.98-6.66v-4.14h-4.81
			v4.14c0,1.36-0.82,2.2-2.13,2.2s-2.13-0.84-2.13-2.2V53.6c0-1.36,0.82-2.2,2.13-2.2s2.13,0.84,2.13,2.2v3.45h4.81V53.6
			C329.08,49.68,326.21,46.94,322.1,46.94z"/>
		<polygon class="st3" points="330.49,51.78 335.14,51.78 335.14,74.69 340.03,74.69 340.03,51.78 344.68,51.78 344.68,47.32 
			330.49,47.32 		"/>
		<path class="st3" d="M355.72,68.49c0,1.31-0.78,2.13-2.05,2.13s-2.05-0.81-2.05-2.13V47.32h-4.89v21.17
			c0,3.87,2.85,6.58,6.94,6.58c4.1,0,6.86-2.65,6.86-6.58V47.32h-4.81V68.49z"/>
		<path class="st3" d="M377.41,56.96v-2.94c0-4.07-2.74-6.7-6.98-6.7h-6.98v27.37h4.89V63.65h1.65l3.09,11.04h5.08l-3.62-12.13
			C376.39,61.39,377.41,59.41,377.41,56.96z M368.34,51.78h1.89c1.48,0,2.29,0.77,2.29,2.16v3.09c0,1.4-0.81,2.16-2.29,2.16h-1.89
			V51.78z"/>
		<polygon class="st3" points="393.21,51.78 393.21,47.32 380.5,47.32 380.5,74.69 393.21,74.69 393.21,70.24 385.39,70.24 
			385.39,63.05 391.6,63.05 391.6,58.59 385.39,58.59 385.39,51.78 		"/>
		<path class="st3" d="M183.54,80.42h-6.98v27.37h4.89V96.94h2.09c4.24,0,6.98-2.63,6.98-6.7v-3.13
			C190.52,83.05,187.78,80.42,183.54,80.42z M181.45,84.88h1.89c1.48,0,2.29,0.77,2.29,2.16v3.28c0,1.4-0.81,2.16-2.29,2.16h-1.89
			V84.88z"/>
		<path class="st3" d="M207.16,90.06v-2.94c0-4.07-2.74-6.7-6.98-6.7h-6.98v27.37h4.89V96.75h1.65l3.09,11.04h5.08l-3.62-12.13
			C206.15,94.49,207.16,92.51,207.16,90.06z M198.1,84.88h1.89c1.48,0,2.29,0.77,2.29,2.16v3.09c0,1.4-0.81,2.16-2.29,2.16h-1.89
			V84.88z"/>
		<path class="st3" d="M217.07,108.18c4.27,0,7.14-2.72,7.14-6.77V86.82c0-4.05-2.87-6.77-7.14-6.77c-4.27,0-7.14,2.72-7.14,6.77
			v14.59C209.94,105.46,212.8,108.18,217.07,108.18z M219.32,101.4c0,1.47-0.82,2.32-2.25,2.32s-2.25-0.84-2.25-2.32V86.81
			c0-1.47,0.82-2.32,2.25-2.32s2.25,0.84,2.25,2.32V101.4z"/>
		<polygon class="st3" points="231.15,107.8 236.04,107.8 236.04,84.88 240.69,84.88 240.69,80.42 226.5,80.42 226.5,84.88 
			231.15,84.88 		"/>
		<polygon class="st3" points="255.05,103.34 247.23,103.34 247.23,96.15 253.44,96.15 253.44,91.69 247.23,91.69 247.23,84.88 
			255.05,84.88 255.05,80.42 242.34,80.42 242.34,107.8 255.05,107.8 		"/>
		<path class="st3" d="M271.97,101.52v-4.14h-4.81v4.14c0,1.36-0.82,2.2-2.13,2.2s-2.13-0.84-2.13-2.2V86.7
			c0-1.36,0.82-2.2,2.13-2.2s2.13,0.84,2.13,2.2v3.45h4.81V86.7c0-3.92-2.87-6.66-6.98-6.66s-6.98,2.74-6.98,6.66v14.82
			c0,3.92,2.87,6.66,6.98,6.66S271.97,105.44,271.97,101.52z"/>
		<polygon class="st3" points="283.16,107.8 283.16,84.88 287.81,84.88 287.81,80.42 273.62,80.42 273.62,84.88 278.27,84.88 
			278.27,107.8 		"/>
		<rect x="289.66" y="80.42" class="st3" width="4.89" height="27.37"/>
		<path class="st3" d="M303.94,80.04c-4.27,0-7.14,2.72-7.14,6.77v14.59c0,4.05,2.87,6.77,7.14,6.77s7.14-2.72,7.14-6.77V86.81
			C311.07,82.76,308.2,80.04,303.94,80.04z M301.69,86.81c0-1.47,0.82-2.32,2.25-2.32s2.25,0.84,2.25,2.32v14.59
			c0,1.47-0.82,2.32-2.25,2.32s-2.25-0.84-2.25-2.32V86.81z"/>
		<polygon class="st3" points="323.47,96.54 318.61,80.42 313.36,80.42 313.36,107.8 318.17,107.8 318.17,92.36 323.24,107.8 
			328.28,107.8 328.28,80.42 323.47,80.42 		"/>
		<path class="st3" d="M183.54,113.53h-6.98v27.37h4.89v-10.85h2.09c4.24,0,6.98-2.63,6.98-6.7v-3.13
			C190.52,116.15,187.78,113.53,183.54,113.53z M181.45,117.98h1.89c1.48,0,2.29,0.77,2.29,2.16v3.28c0,1.4-0.81,2.16-2.29,2.16
			h-1.89V117.98z"/>
		<path class="st3" d="M207.48,123.16v-2.94c0-4.07-2.74-6.7-6.98-6.7h-6.98v27.37h4.89v-11.04h1.65l3.09,11.04h5.08l-3.62-12.13
			C206.46,127.6,207.48,125.62,207.48,123.16z M198.42,117.98h1.89c1.48,0,2.29,0.77,2.29,2.16v3.09c0,1.4-0.81,2.16-2.29,2.16
			h-1.89V117.98z"/>
		<path class="st3" d="M217.75,113.14c-4.27,0-7.14,2.72-7.14,6.77v14.59c0,4.05,2.87,6.77,7.14,6.77c4.27,0,7.14-2.72,7.14-6.77
			v-14.59C224.89,115.87,222.02,113.14,217.75,113.14z M215.5,119.92c0-1.47,0.82-2.32,2.25-2.32s2.25,0.84,2.25,2.32v14.59
			c0,1.47-0.82,2.32-2.25,2.32s-2.25-0.84-2.25-2.32V119.92z"/>
		<path class="st3" d="M241.65,122.49v-2.57c0-4.05-2.87-6.77-7.14-6.77c-4.27,0-7.14,2.72-7.14,6.77v14.59
			c0,4.05,2.87,6.77,7.14,6.77c1.75,0,3.26-0.46,4.44-1.29l0.3,1.29h2.4v-15.65h-8.35v4.46h3.46v4.42c0,1.47-0.82,2.32-2.25,2.32
			s-2.25-0.84-2.25-2.32v-14.59c0-1.47,0.82-2.32,2.25-2.32s2.25,0.84,2.25,2.32v2.57L241.65,122.49L241.65,122.49z"/>
		<path class="st3" d="M258.69,123.16v-2.94c0-4.07-2.74-6.7-6.98-6.7h-6.98v27.37h4.89v-11.04h1.65l3.09,11.04h5.08l-3.62-12.13
			C257.68,127.6,258.69,125.62,258.69,123.16z M249.63,117.98h1.89c1.48,0,2.29,0.77,2.29,2.16v3.09c0,1.4-0.81,2.16-2.29,2.16
			h-1.89V117.98z"/>
		<path class="st3" d="M272.16,113.53h-6.23l-4.76,27.37h4.9l0.92-5.92h4.03l0.92,5.92h4.98l-4.72-27.11L272.16,113.53z
			 M270.36,130.45h-2.71l1.35-8.78L270.36,130.45z"/>
		<polygon class="st3" points="288.73,129.38 285.3,113.53 278.71,113.53 278.71,140.9 283.52,140.9 283.52,125.22 286.91,140.9 
			290.39,140.9 293.79,125.22 293.79,140.9 298.68,140.9 298.68,113.53 292,113.53 		"/>
	</g>
	<g id="Powered_by">
		<path class="st3" d="M182.11,155.8c0,0.41-0.06,0.78-0.18,1.09c-0.12,0.32-0.28,0.59-0.49,0.81s-0.47,0.39-0.76,0.5
			c-0.3,0.11-0.62,0.17-0.99,0.17h-1.11l-0.6,3.31h-0.97l1.4-7.66h1.85c0.26,0,0.51,0.04,0.74,0.11c0.23,0.07,0.42,0.18,0.58,0.32
			c0.16,0.14,0.29,0.33,0.39,0.55C182.06,155.23,182.11,155.5,182.11,155.8z M181.15,155.92c0-0.33-0.08-0.6-0.25-0.8
			c-0.17-0.2-0.43-0.3-0.8-0.3h-0.87l-0.5,2.78h0.94c0.46,0,0.82-0.15,1.09-0.45C181.02,156.86,181.15,156.44,181.15,155.92z"/>
		<path class="st3" d="M188.36,156.7c0,0.62-0.08,1.24-0.24,1.85c-0.16,0.61-0.4,1.17-0.7,1.66c-0.3,0.49-0.67,0.89-1.1,1.2
			s-0.9,0.46-1.43,0.46c-0.36,0-0.68-0.07-0.96-0.21c-0.28-0.14-0.51-0.33-0.7-0.57c-0.19-0.25-0.34-0.54-0.44-0.88
			s-0.15-0.72-0.15-1.14c0-0.61,0.08-1.23,0.24-1.85s0.39-1.18,0.68-1.68c0.3-0.5,0.66-0.9,1.09-1.22c0.43-0.31,0.91-0.47,1.46-0.47
			c0.37,0,0.7,0.07,0.98,0.21c0.28,0.14,0.51,0.34,0.7,0.58c0.19,0.25,0.33,0.55,0.43,0.9C188.31,155.89,188.36,156.28,188.36,156.7
			z M187.3,156.83c0-0.26-0.02-0.52-0.05-0.78s-0.09-0.49-0.18-0.69s-0.22-0.37-0.38-0.49c-0.16-0.13-0.38-0.19-0.64-0.19
			c-0.25,0-0.48,0.07-0.7,0.21s-0.42,0.32-0.59,0.55c-0.17,0.23-0.33,0.49-0.47,0.8c-0.14,0.3-0.25,0.62-0.34,0.95
			c-0.09,0.33-0.16,0.66-0.2,1c-0.05,0.34-0.07,0.65-0.07,0.95c0,0.26,0.02,0.51,0.07,0.74c0.05,0.23,0.12,0.43,0.22,0.6
			s0.23,0.31,0.4,0.41c0.16,0.1,0.36,0.15,0.6,0.15c0.36,0,0.69-0.13,0.98-0.4c0.29-0.26,0.53-0.6,0.73-1.01s0.36-0.86,0.47-1.36
			C187.25,157.76,187.3,157.28,187.3,156.83z"/>
		<path class="st3" d="M194.8,161.68h-1.26l-0.08-6.28h-0.02l-2.37,6.28h-1.25l-0.16-7.66h1l0.03,6.45h0.03l2.43-6.45h1.15
			l0.11,6.45h0.02l2.36-6.45h0.95L194.8,161.68z"/>
		<path class="st3" d="M201.95,154.85h-2.34l-0.45,2.48h2.23l-0.15,0.77h-2.22l-0.5,2.77h2.52l-0.15,0.82h-3.47l1.4-7.66h3.27
			L201.95,154.85z"/>
		<path class="st3" d="M207.43,155.77c0,0.31-0.04,0.6-0.13,0.86c-0.09,0.26-0.21,0.5-0.37,0.7s-0.35,0.37-0.57,0.51
			s-0.45,0.23-0.71,0.29l1.07,3.56h-1.02l-0.95-3.44h-0.95l-0.62,3.44h-0.95l1.4-7.66h1.85c0.63,0,1.12,0.14,1.46,0.43
			C207.26,154.74,207.43,155.18,207.43,155.77z M206.48,155.88c0-0.38-0.11-0.66-0.32-0.82c-0.22-0.17-0.49-0.25-0.82-0.25h-0.92
			l-0.49,2.71h0.97c0.23,0,0.44-0.04,0.63-0.11s0.36-0.19,0.51-0.33c0.14-0.14,0.26-0.32,0.34-0.51
			C206.44,156.36,206.48,156.14,206.48,155.88z"/>
		<path class="st3" d="M212.32,154.85h-2.34l-0.45,2.48h2.23l-0.15,0.77h-2.22l-0.5,2.77h2.52l-0.15,0.82h-3.47l1.4-7.66h3.27
			L212.32,154.85z"/>
		<path class="st3" d="M218.21,156.94c0,0.65-0.08,1.26-0.25,1.84s-0.41,1.08-0.74,1.51c-0.33,0.43-0.72,0.77-1.19,1.02
			s-1.01,0.37-1.62,0.37h-1.82l1.4-7.66h1.82c0.42,0,0.78,0.07,1.08,0.22c0.3,0.14,0.55,0.35,0.75,0.61
			c0.2,0.26,0.34,0.57,0.44,0.93C218.16,156.13,218.21,156.52,218.21,156.94z M217.22,157c0-0.68-0.13-1.2-0.4-1.58
			c-0.26-0.38-0.66-0.57-1.18-0.57h-0.85l-1.09,6.02h0.85c0.39,0,0.76-0.1,1.09-0.31s0.61-0.48,0.85-0.84
			c0.23-0.35,0.42-0.76,0.54-1.23C217.15,158.02,217.22,157.53,217.22,157z"/>
		<path class="st3" d="M226.09,155.68c0,0.28-0.04,0.53-0.12,0.76c-0.08,0.22-0.19,0.42-0.32,0.58c-0.13,0.16-0.29,0.3-0.46,0.41
			c-0.17,0.11-0.36,0.19-0.55,0.24v0.02c0.13,0.02,0.26,0.07,0.39,0.14s0.25,0.17,0.35,0.3c0.11,0.13,0.19,0.28,0.26,0.45
			c0.07,0.18,0.1,0.38,0.1,0.61c0,0.42-0.07,0.78-0.22,1.1c-0.14,0.31-0.34,0.57-0.57,0.78c-0.24,0.21-0.52,0.36-0.83,0.47
			c-0.31,0.1-0.64,0.16-0.97,0.16H221l1.4-7.66h1.85c0.23,0,0.45,0.03,0.67,0.1c0.22,0.06,0.42,0.16,0.59,0.3
			c0.17,0.13,0.31,0.3,0.42,0.51C226.04,155.14,226.09,155.39,226.09,155.68z M224.79,159.17c0-0.2-0.04-0.37-0.11-0.51
			c-0.07-0.14-0.17-0.26-0.28-0.35c-0.12-0.09-0.25-0.15-0.39-0.19s-0.29-0.06-0.43-0.06h-0.98l-0.52,2.84h1.02
			c0.5,0,0.91-0.15,1.22-0.45C224.63,160.15,224.79,159.72,224.79,159.17z M225.14,155.8c0-0.34-0.11-0.59-0.32-0.75
			c-0.22-0.16-0.48-0.24-0.8-0.24h-0.83l-0.45,2.51h0.9c0.18,0,0.36-0.03,0.55-0.09c0.18-0.06,0.34-0.16,0.49-0.28
			c0.14-0.13,0.26-0.28,0.35-0.48C225.09,156.28,225.14,156.06,225.14,155.8z"/>
		<path class="st3" d="M229.1,158.6l-0.56,3.08h-0.97l0.56-3.08l-1.16-4.58H228l0.75,3.63h0.02l2.1-3.63h1.08L229.1,158.6z"/>
		<path class="st3" d="M183.1,166.07c-0.13-0.2-0.29-0.36-0.48-0.48c-0.19-0.12-0.43-0.17-0.73-0.17c-0.37,0-0.71,0.13-1.01,0.39
			c-0.3,0.26-0.55,0.58-0.76,0.98c-0.21,0.39-0.36,0.83-0.47,1.3s-0.16,0.93-0.16,1.37c0,0.57,0.11,1.04,0.32,1.4
			c0.22,0.36,0.56,0.54,1.04,0.54c0.32,0,0.58-0.07,0.8-0.21c0.22-0.14,0.4-0.28,0.55-0.43l1,1.52c-0.33,0.32-0.71,0.59-1.16,0.8
			c-0.44,0.21-0.97,0.31-1.57,0.31c-0.52,0-0.99-0.09-1.4-0.27s-0.75-0.43-1.02-0.75s-0.48-0.71-0.62-1.16
			c-0.14-0.45-0.21-0.95-0.21-1.49c0-0.8,0.12-1.58,0.34-2.34c0.23-0.76,0.55-1.43,0.98-2.01c0.42-0.58,0.92-1.05,1.51-1.4
			c0.58-0.35,1.23-0.53,1.93-0.53c0.67,0,1.21,0.11,1.62,0.32c0.41,0.21,0.73,0.48,0.96,0.79L183.1,166.07z"/>
		<path class="st3" d="M188.14,169.72l-0.63,3.42h-2.18l0.63-3.42l-1.35-6.04h2.27l0.52,3.93h0.04l1.97-3.93h2.34L188.14,169.72z"/>
		<path class="st3" d="M198.07,165.84c0,0.32-0.04,0.61-0.13,0.87s-0.21,0.49-0.36,0.68c-0.15,0.2-0.33,0.36-0.53,0.49
			s-0.42,0.24-0.65,0.31l0.01,0.03c0.17,0.04,0.33,0.12,0.48,0.21c0.15,0.1,0.29,0.22,0.41,0.37s0.22,0.33,0.29,0.53
			s0.11,0.43,0.11,0.68c0,0.55-0.1,1.03-0.3,1.42c-0.2,0.39-0.47,0.72-0.79,0.97c-0.33,0.25-0.7,0.44-1.1,0.56
			c-0.41,0.12-0.82,0.18-1.24,0.18h-3.28l1.73-9.46h2.89c0.29,0,0.58,0.04,0.88,0.11c0.3,0.08,0.56,0.2,0.8,0.37
			c0.24,0.17,0.44,0.39,0.59,0.67C198,165.1,198.07,165.44,198.07,165.84z M195.62,170.02c0-0.36-0.11-0.61-0.33-0.76
			c-0.22-0.15-0.46-0.22-0.72-0.22h-0.86l-0.44,2.38h0.87c0.43,0,0.78-0.12,1.06-0.35C195.48,170.83,195.62,170.48,195.62,170.02z
			 M196.1,166.26c0-0.28-0.09-0.5-0.28-0.65s-0.42-0.22-0.69-0.22h-0.74l-0.39,2.14h0.8c0.15,0,0.3-0.02,0.46-0.07
			c0.16-0.05,0.3-0.12,0.42-0.23c0.12-0.1,0.22-0.23,0.3-0.39C196.06,166.67,196.1,166.48,196.1,166.26z"/>
		<path class="st3" d="M204.63,165.48h-2.6l-0.36,1.97h2.43l-0.31,1.68h-2.41l-0.39,2.17h2.84l-0.34,1.85h-4.9l1.73-9.46h4.65
			L204.63,165.48z"/>
		<path class="st3" d="M212.2,166.11c0,0.72-0.17,1.33-0.51,1.82c-0.34,0.49-0.8,0.83-1.37,1.02l1.11,4.2h-2.27l-0.83-3.81h-0.73
			l-0.69,3.81h-2.08l1.73-9.46h2.92c0.88,0,1.55,0.2,2.02,0.61C211.96,164.69,212.2,165.3,212.2,166.11z M210.05,166.38
			c0-0.37-0.1-0.62-0.31-0.76s-0.44-0.21-0.7-0.21h-0.73l-0.45,2.47h0.7c0.41,0,0.76-0.12,1.05-0.37
			C209.9,167.25,210.05,166.88,210.05,166.38z"/>
		<path class="st3" d="M221.33,165.54h-2.61l-0.36,2.02h2.43l-0.32,1.78h-2.41l-0.7,3.81h-2.13l1.73-9.46h4.73L221.33,165.54z"/>
		<path class="st3" d="M226.12,173.14h-4.84l1.73-9.46h2.16l-1.38,7.57h2.68L226.12,173.14z"/>
		<path class="st3" d="M234.95,167.07c0,0.78-0.11,1.54-0.32,2.29c-0.22,0.75-0.52,1.43-0.92,2.03c-0.4,0.6-0.88,1.08-1.46,1.44
			c-0.58,0.37-1.22,0.55-1.94,0.55c-0.51,0-0.96-0.09-1.35-0.26c-0.4-0.17-0.73-0.42-1-0.74c-0.27-0.32-0.48-0.7-0.62-1.14
			c-0.14-0.44-0.21-0.93-0.21-1.48c0-0.78,0.11-1.54,0.32-2.3c0.21-0.76,0.51-1.43,0.91-2.03s0.88-1.08,1.46-1.45
			c0.58-0.37,1.23-0.56,1.96-0.56c0.53,0,1,0.09,1.4,0.26s0.73,0.42,1,0.74s0.47,0.7,0.6,1.15
			C234.88,166.04,234.95,166.53,234.95,167.07z M232.72,167.37c0-0.25-0.02-0.49-0.06-0.73c-0.04-0.24-0.1-0.45-0.19-0.63
			s-0.21-0.32-0.36-0.43s-0.34-0.17-0.56-0.17c-0.36,0-0.67,0.14-0.95,0.41c-0.28,0.28-0.51,0.62-0.7,1.04s-0.33,0.87-0.42,1.36
			c-0.09,0.49-0.14,0.94-0.14,1.36c0,0.25,0.02,0.49,0.06,0.71s0.11,0.42,0.2,0.58c0.09,0.17,0.21,0.29,0.37,0.39
			c0.15,0.09,0.34,0.14,0.57,0.14c0.34,0,0.64-0.13,0.91-0.39s0.5-0.59,0.69-0.99s0.33-0.84,0.43-1.31
			C232.67,168.25,232.72,167.8,232.72,167.37z"/>
		<path class="st3" d="M242.77,166.11c0,0.72-0.17,1.33-0.51,1.82c-0.34,0.49-0.8,0.83-1.37,1.02l1.11,4.2h-2.27l-0.83-3.81h-0.73
			l-0.69,3.81h-2.08l1.73-9.46h2.92c0.88,0,1.55,0.2,2.02,0.61C242.53,164.69,242.77,165.3,242.77,166.11z M240.62,166.38
			c0-0.37-0.1-0.62-0.31-0.76s-0.44-0.21-0.7-0.21h-0.73l-0.45,2.47h0.7c0.41,0,0.76-0.12,1.05-0.37
			C240.47,167.25,240.62,166.88,240.62,166.38z"/>
		<path class="st3" d="M245.17,173.14h-2.18l1.73-9.46h2.18L245.17,173.14z"/>
		<path class="st3" d="M254.84,167.37c0,0.67-0.08,1.35-0.25,2.03c-0.17,0.69-0.45,1.31-0.83,1.86c-0.38,0.55-0.89,1-1.52,1.36
			c-0.63,0.35-1.4,0.53-2.33,0.53h-2.88l1.73-9.46h2.62c0.62,0,1.15,0.09,1.59,0.27s0.8,0.43,1.07,0.76
			c0.28,0.33,0.48,0.72,0.6,1.17C254.77,166.33,254.84,166.82,254.84,167.37z M252.63,167.54c0-0.3-0.03-0.57-0.08-0.83
			c-0.05-0.25-0.14-0.47-0.25-0.66c-0.12-0.18-0.27-0.33-0.45-0.44c-0.18-0.11-0.4-0.16-0.67-0.16h-0.6l-1.07,5.91h0.63
			c0.41,0,0.77-0.12,1.08-0.35s0.57-0.53,0.78-0.9s0.37-0.78,0.47-1.23C252.58,168.44,252.63,167.99,252.63,167.54z"/>
		<path class="st3" d="M259.41,173.14l-0.04-1.78h-2.32l-0.74,1.78h-2.25l4.31-9.46h2.71l0.52,9.46H259.41z M259.31,165.72h-0.06
			l-1.64,4.06h1.78L259.31,165.72z"/>
		<path class="st3" d="M268.82,168c0,0.16-0.01,0.32-0.03,0.48s-0.05,0.34-0.08,0.53l-0.49,2.73c-0.02,0.08-0.04,0.19-0.06,0.32
			s-0.04,0.27-0.06,0.41s-0.04,0.27-0.06,0.39c-0.02,0.12-0.03,0.22-0.03,0.28h-0.97c0-0.06,0.01-0.14,0.02-0.24
			c0.01-0.1,0.03-0.2,0.05-0.31s0.04-0.21,0.05-0.32c0.01-0.11,0.03-0.2,0.05-0.27h-0.03c-0.18,0.42-0.42,0.74-0.72,0.97
			s-0.67,0.34-1.12,0.34c-0.4,0-0.74-0.13-1.02-0.39s-0.41-0.66-0.41-1.19s0.1-0.98,0.31-1.33c0.21-0.35,0.47-0.63,0.79-0.84
			s0.67-0.36,1.05-0.44c0.38-0.08,0.76-0.13,1.12-0.13h0.48c0.05-0.25,0.08-0.43,0.09-0.53c0.01-0.11,0.02-0.2,0.02-0.27
			c0-0.37-0.08-0.63-0.25-0.8c-0.17-0.16-0.4-0.25-0.7-0.25c-0.26,0-0.52,0.06-0.77,0.19c-0.25,0.12-0.47,0.29-0.67,0.49l-0.51-0.67
			c0.27-0.29,0.6-0.51,1-0.69c0.39-0.17,0.77-0.26,1.14-0.26c0.62,0,1.07,0.16,1.36,0.47C268.67,167,268.82,167.44,268.82,168z
			 M267.02,169.83c-0.24,0-0.49,0.03-0.73,0.09c-0.24,0.06-0.46,0.15-0.65,0.29c-0.19,0.13-0.35,0.31-0.47,0.54
			s-0.18,0.51-0.18,0.84c0,0.29,0.07,0.51,0.22,0.65s0.33,0.21,0.54,0.21c0.25,0,0.47-0.07,0.67-0.21c0.19-0.14,0.36-0.32,0.51-0.53
			c0.14-0.21,0.26-0.45,0.35-0.71c0.09-0.26,0.16-0.51,0.2-0.75l0.08-0.4h-0.54V169.83z"/>
		<path class="st3" d="M273.18,167.33H272l-0.7,3.93c-0.02,0.09-0.03,0.18-0.04,0.27s-0.01,0.17-0.01,0.24
			c0,0.22,0.05,0.37,0.14,0.45c0.09,0.08,0.23,0.12,0.42,0.12c0.08,0,0.18-0.01,0.27-0.03c0.1-0.02,0.18-0.05,0.26-0.07l-0.11,0.87
			c-0.12,0.04-0.25,0.08-0.39,0.11s-0.28,0.04-0.41,0.04c-0.46,0-0.8-0.11-1.01-0.33c-0.22-0.22-0.32-0.52-0.32-0.9
			c0-0.16,0.02-0.34,0.06-0.55l0.76-4.14h-0.97l0.15-0.88h0.94l0.32-1.79h1.11l-0.31,1.79h1.19L273.18,167.33z"/>
		<path class="st3" d="M282.63,169.64c-0.1,0.53-0.24,1.02-0.41,1.47c-0.17,0.46-0.4,0.85-0.69,1.19s-0.65,0.6-1.08,0.8
			c-0.43,0.19-0.96,0.29-1.59,0.29c-0.51,0-0.94-0.07-1.32-0.2c-0.37-0.13-0.69-0.32-0.93-0.56s-0.43-0.52-0.55-0.85
			c-0.12-0.33-0.18-0.68-0.18-1.08c0-0.16,0.01-0.33,0.02-0.51c0.01-0.18,0.04-0.36,0.08-0.55l1.09-5.96h2.18l-1.07,5.8
			c-0.03,0.15-0.05,0.3-0.07,0.45c-0.02,0.15-0.03,0.28-0.03,0.41c0,0.31,0.07,0.57,0.2,0.78c0.14,0.21,0.38,0.31,0.72,0.31
			c0.24,0,0.45-0.05,0.62-0.15c0.17-0.1,0.31-0.24,0.42-0.41c0.11-0.17,0.21-0.38,0.28-0.61c0.07-0.24,0.14-0.49,0.18-0.76l1.05-5.8
			h2.16L282.63,169.64z"/>
		<path class="st3" d="M289.15,165.84c-0.16-0.18-0.36-0.32-0.59-0.42s-0.48-0.15-0.73-0.15c-0.13,0-0.27,0.02-0.41,0.07
			c-0.15,0.05-0.28,0.12-0.39,0.22c-0.12,0.1-0.22,0.22-0.3,0.37s-0.12,0.32-0.12,0.53c0,0.26,0.08,0.47,0.25,0.64
			c0.16,0.17,0.41,0.34,0.74,0.52c0.19,0.11,0.39,0.23,0.6,0.38s0.4,0.32,0.58,0.52c0.17,0.2,0.32,0.43,0.43,0.7
			c0.11,0.26,0.17,0.57,0.17,0.92c0,0.54-0.1,1.02-0.29,1.42c-0.19,0.41-0.45,0.74-0.77,1.02c-0.32,0.27-0.69,0.47-1.1,0.61
			c-0.41,0.13-0.84,0.2-1.28,0.2c-0.61,0-1.16-0.1-1.67-0.29c-0.51-0.2-0.9-0.44-1.18-0.72l1.28-1.54c0.19,0.21,0.42,0.37,0.7,0.5
			s0.56,0.19,0.86,0.19c0.15,0,0.3-0.03,0.45-0.08c0.15-0.05,0.28-0.13,0.4-0.23s0.21-0.22,0.28-0.36c0.07-0.14,0.11-0.3,0.11-0.48
			c0-0.26-0.08-0.49-0.25-0.69c-0.16-0.2-0.43-0.4-0.81-0.61c-0.22-0.12-0.42-0.24-0.62-0.39c-0.2-0.14-0.38-0.31-0.53-0.51
			s-0.28-0.42-0.37-0.67s-0.14-0.54-0.14-0.87c0-0.45,0.08-0.88,0.25-1.27c0.17-0.39,0.4-0.73,0.7-1.02
			c0.3-0.29,0.66-0.51,1.08-0.68c0.42-0.16,0.88-0.25,1.39-0.25c0.57,0,1.08,0.09,1.53,0.25c0.45,0.17,0.8,0.39,1.05,0.67
			L289.15,165.84z"/>
		<path class="st3" d="M296.34,165.54h-2.61l-0.36,2.02h2.43l-0.32,1.78h-2.41l-0.7,3.81h-2.13l1.73-9.46h4.73L296.34,165.54z"/>
	</g>
</g>
</svg>
