<?xml version="1.0" encoding="utf-8"?>
<!-- Generator: Adobe Illustrator 28.1.0, SVG Export Plug-In . SVG Version: 6.00 Build 0)  -->
<svg version="1.1" xmlns="http://www.w3.org/2000/svg" xmlns:xlink="http://www.w3.org/1999/xlink" x="0px" y="0px"
	 viewBox="0 0 256 52" style="enable-background:new 0 0 256 52;" xml:space="preserve">
<style type="text/css">
	.st0{display:none;fill:#343645;}
	.st1{fill:#6FA593;}
	.st2{fill:#FFFFFF;}
</style>
<g id="Logo_00000108297236925590563330000011611302181552846216_">
	<rect id="Background" x="-276.48" y="0.27" class="st0" width="256.11" height="52.53"/>
	<path id="shadow" class="st1" d="M-168.11,21.2c0,0.25-0.12,0.37-0.37,0.37h-36.6c-0.25,0-0.37-0.12-0.37-0.37v-4.81
		c0-0.25,0.12-0.37,0.37-0.37h36.6c0.25,0,0.37,0.12,0.37,0.37V21.2z M-176.03,28.13v4.81c0,0.25-0.12,0.37-0.37,0.37h-23.49v11.37
		c0,0.25-0.12,0.37-0.37,0.37h-4.81c-0.25,0-0.37-0.12-0.37-0.37V28.13c0-0.25,0.14-0.37,0.41-0.37h28.64
		C-176.16,27.75-176.03,27.88-176.03,28.13z M-152.3,16.01c2.6,0,6.5,0,11.68,0s9.08,0,11.68,0c0.25,0,0.37,0.12,0.37,0.37v4.81
		c0,0.25-0.12,0.37-0.37,0.37h-23.37c-1.6,0-3.1,0.4-4.48,1.2c-1.38,0.8-2.48,1.89-3.28,3.26c-0.8,1.37-1.2,2.87-1.2,4.5
		c0,2.46,0.88,4.57,2.64,6.33c1.76,1.76,3.87,2.64,6.33,2.64h23.37c0.25,0,0.37,0.12,0.37,0.37v4.81c0,0.25-0.12,0.37-0.37,0.37
		h-23.37c-2.63,0-5.06-0.65-7.28-1.95c-2.23-1.3-3.99-3.06-5.29-5.29c-1.3-2.23-1.95-4.65-1.95-7.28c0-2.63,0.65-5.06,1.95-7.28
		c1.3-2.23,3.06-3.99,5.29-5.29C-157.35,16.66-154.92,16.01-152.3,16.01z M-94.48,33.44l8.12,9.6l0.01,2.02h-6.27
		c-0.11,0-0.21-0.01-0.31-0.04c-0.1-0.03-0.19-0.08-0.27-0.17s-0.15-0.15-0.19-0.19c-0.04-0.04-0.1-0.13-0.19-0.27
		c-0.08-0.14-0.14-0.22-0.17-0.25c-0.72-1.02-1.49-2.13-2.32-3.32c-0.83-1.19-1.72-2.46-2.66-3.82c-0.94-1.36-1.7-2.45-2.28-3.28
		l-0.29-0.42h-16.6v11.37c0,0.25-0.12,0.37-0.37,0.37h-4.81c-0.25,0-0.37-0.12-0.37-0.37V28.13V16.38c0-0.25,0.12-0.37,0.37-0.37
		h29.26c1.58,0,3.03,0.39,4.36,1.16c1.33,0.77,2.38,1.83,3.15,3.15c0.77,1.33,1.16,2.77,1.16,4.32c0,1.11-0.2,2.16-0.6,3.15
		c-0.4,1-0.95,1.87-1.64,2.64c-0.69,0.76-1.51,1.4-2.47,1.91c-0.95,0.51-1.96,0.82-3.01,0.93L-94.48,33.44z M-117.89,21.57v6.18
		h24.11c0.86,0,1.59-0.3,2.2-0.91c0.61-0.61,0.91-1.33,0.91-2.18c0-0.84-0.3-1.57-0.91-2.18c-0.61-0.61-1.34-0.91-2.2-0.91H-117.89z
		 M-55.1,16.92l19.74,26.12l0.01,2.02h-6.23c-0.14,0-0.25-0.01-0.33-0.04c-0.08-0.03-0.17-0.08-0.25-0.17s-0.15-0.15-0.19-0.19
		c-0.04-0.04-0.1-0.13-0.19-0.27c-0.08-0.14-0.15-0.22-0.21-0.25l-3.49-5.02h-25.94l-3.53,5.02c-0.03,0.03-0.08,0.11-0.17,0.25
		c-0.08,0.14-0.15,0.23-0.19,0.27c-0.04,0.04-0.1,0.1-0.19,0.19c-0.08,0.08-0.17,0.14-0.27,0.17c-0.1,0.03-0.2,0.04-0.31,0.04h-6.27
		l-0.01-2.02l19.76-26.12c0.44-0.61,0.82-0.91,1.12-0.91h6.02C-55.88,16.01-55.52,16.31-55.1,16.92z M-68.26,33.56h18.14
		l-9.09-12.91L-60,21.74L-68.26,33.56z M-252.97,22.32c-0.23,0-0.34-0.11-0.34-0.34l0.02-3.28c0-0.23,0.11-0.34,0.34-0.34h31.79
		c0,0-0.01-1.61-0.01-2.03l-1.04-0.3c0,0-5.02-0.73-9.84-3.36c-4.82-2.63-7.97-6.56-7.97-6.56l0,0c0,0-3.15,3.92-7.97,6.56
		c-4.82,2.63-10.48,3.15-10.48,3.15s-2.83,11.57,3.21,22.11c0.63,1.09,1.29,2.11,1.97,3.05V29.37c0-0.23,0.13-0.34,0.38-0.34h25.99
		c0.23,0,0.34,0.11,0.34,0.34v4.37c0,0.23-0.11,0.34-0.34,0.34h-21.32l0.02,8.93c0,0.23-0.15,0.54-0.37,0.54l-1.55-0.83l0.01,2.02
		c5.07,5.21,10.11,7.02,10.11,7.02l0,0c0,0,9.19-3.28,15.23-13.82c2.91-5.07,3.76-12.37,3.86-16.52L-252.97,22.32z"/>
	<path id="Logo" class="st2" d="M-168.12,19.18c0,0.25-0.12,0.37-0.37,0.37h-36.6c-0.25,0-0.37-0.12-0.37-0.37v-4.81
		c0-0.25,0.12-0.37,0.37-0.37h36.6c0.25,0,0.37,0.12,0.37,0.37V19.18z M-176.04,26.11v4.81c0,0.25-0.12,0.37-0.37,0.37h-23.49v11.37
		c0,0.25-0.12,0.37-0.37,0.37h-4.81c-0.25,0-0.37-0.12-0.37-0.37V26.11c0-0.25,0.14-0.37,0.41-0.37h28.64
		C-176.17,25.73-176.04,25.86-176.04,26.11z M-152.31,13.99c2.6,0,6.5,0,11.68,0s9.08,0,11.68,0c0.25,0,0.37,0.12,0.37,0.37v4.81
		c0,0.25-0.12,0.37-0.37,0.37h-23.37c-1.6,0-3.1,0.4-4.48,1.2c-1.38,0.8-2.48,1.89-3.28,3.26c-0.8,1.37-1.2,2.87-1.2,4.5
		c0,2.46,0.88,4.57,2.64,6.33c1.76,1.76,3.87,2.64,6.33,2.64h23.37c0.25,0,0.37,0.12,0.37,0.37v4.81c0,0.25-0.12,0.37-0.37,0.37
		h-23.37c-2.63,0-5.06-0.65-7.28-1.95c-2.23-1.3-3.99-3.06-5.29-5.29c-1.3-2.23-1.95-4.65-1.95-7.28c0-2.63,0.65-5.06,1.95-7.28
		c1.3-2.23,3.06-3.99,5.29-5.29C-157.36,14.64-154.94,13.99-152.31,13.99z M-94.5,31.42l8.13,11.62h-6.27
		c-0.11,0-0.21-0.01-0.31-0.04c-0.1-0.03-0.19-0.08-0.27-0.17c-0.08-0.08-0.15-0.15-0.19-0.19c-0.04-0.04-0.1-0.13-0.19-0.27
		c-0.08-0.14-0.14-0.22-0.17-0.25c-0.72-1.02-1.49-2.13-2.32-3.32c-0.83-1.19-1.72-2.46-2.66-3.82c-0.94-1.36-1.7-2.45-2.28-3.28
		l-0.29-0.42h-16.6v11.37c0,0.25-0.12,0.37-0.37,0.37h-4.81c-0.25,0-0.37-0.12-0.37-0.37V26.11V14.36c0-0.25,0.12-0.37,0.37-0.37
		h29.26c1.58,0,3.03,0.39,4.36,1.16c1.33,0.77,2.38,1.83,3.15,3.15c0.77,1.33,1.16,2.77,1.16,4.32c0,1.11-0.2,2.16-0.6,3.15
		c-0.4,1-0.95,1.87-1.64,2.64c-0.69,0.76-1.51,1.4-2.47,1.91c-0.95,0.51-1.96,0.82-3.01,0.93L-94.5,31.42z M-117.9,19.55v6.18h24.11
		c0.86,0,1.59-0.3,2.2-0.91c0.61-0.61,0.91-1.33,0.91-2.18c0-0.84-0.3-1.57-0.91-2.18c-0.61-0.61-1.34-0.91-2.2-0.91H-117.9z
		 M-55.11,14.9l19.75,28.14h-6.23c-0.14,0-0.25-0.01-0.33-0.04c-0.08-0.03-0.17-0.08-0.25-0.17c-0.08-0.08-0.15-0.15-0.19-0.19
		c-0.04-0.04-0.1-0.13-0.19-0.27c-0.08-0.14-0.15-0.22-0.21-0.25l-3.49-5.02h-25.94l-3.53,5.02c-0.03,0.03-0.08,0.11-0.17,0.25
		c-0.08,0.14-0.15,0.23-0.19,0.27c-0.04,0.04-0.1,0.1-0.19,0.19c-0.08,0.08-0.17,0.14-0.27,0.17c-0.1,0.03-0.2,0.04-0.31,0.04h-6.27
		l19.75-28.14c0.44-0.61,0.82-0.91,1.12-0.91h6.02C-55.89,13.99-55.53,14.29-55.11,14.9z M-68.27,31.54h18.14l-9.09-12.91
		l-0.79,1.08L-68.27,31.54z M-252.96,21.39c-0.23,0-0.34-0.11-0.34-0.34v-4.37c0-0.23,0.11-0.34,0.34-0.34h31.79
		c-0.19-1.6-0.42-2.54-0.42-2.54s-5.66-0.51-10.48-3.15c-4.82-2.63-7.97-6.56-7.97-6.56l0,0c0,0-3.15,3.92-7.97,6.56
		c-4.82,2.63-10.48,3.15-10.48,3.15s-2.83,11.57,3.21,22.11c0.63,1.09,1.29,2.11,1.97,3.05V27.35c0-0.23,0.13-0.34,0.38-0.34h25.99
		c0.23,0,0.34,0.11,0.34,0.34v4.37c0,0.23-0.11,0.34-0.34,0.34h-21.32v10.32c0,0.23-0.11,0.34-0.34,0.34h-1.56
		c5.07,5.21,10.11,7.02,10.11,7.02l0,0c0,0,9.19-3.28,15.23-13.82c2.91-5.07,3.76-10.37,3.86-14.52H-252.96z"/>
</g>
<g id="Hover">
	<rect id="background" x="-0.48" y="0.27" class="st0" width="256.11" height="52.53"/>
	<path id="Logo_00000178204184202810502770000005445385468578232487_" class="st1" d="M107.88,21.18c0,0.25-0.12,0.37-0.37,0.37
		H70.9c-0.25,0-0.37-0.12-0.37-0.37v-4.81c0-0.25,0.12-0.37,0.37-0.37h36.6c0.25,0,0.37,0.12,0.37,0.37V21.18z M99.96,28.11v4.81
		c0,0.25-0.12,0.37-0.37,0.37H76.09v11.37c0,0.25-0.12,0.37-0.37,0.37H70.9c-0.25,0-0.37-0.12-0.37-0.37V28.11
		c0-0.25,0.14-0.37,0.41-0.37h28.64C99.83,27.74,99.96,27.86,99.96,28.11z M123.69,15.99c2.6,0,6.5,0,11.68,0s9.08,0,11.68,0
		c0.25,0,0.37,0.12,0.37,0.37v4.81c0,0.25-0.12,0.37-0.37,0.37h-23.37c-1.6,0-3.1,0.4-4.48,1.2c-1.38,0.8-2.48,1.89-3.28,3.26
		c-0.8,1.37-1.2,2.87-1.2,4.5c0,2.46,0.88,4.57,2.64,6.33c1.76,1.76,3.87,2.64,6.33,2.64h23.37c0.25,0,0.37,0.12,0.37,0.37v4.81
		c0,0.25-0.12,0.37-0.37,0.37h-23.37c-2.63,0-5.06-0.65-7.28-1.95c-2.23-1.3-3.99-3.06-5.29-5.29c-1.3-2.23-1.95-4.65-1.95-7.28
		c0-2.63,0.65-5.06,1.95-7.28c1.3-2.23,3.06-3.99,5.29-5.29C118.64,16.64,121.06,15.99,123.69,15.99z M181.5,33.42l8.13,11.62h-6.27
		c-0.11,0-0.21-0.01-0.31-0.04c-0.1-0.03-0.19-0.08-0.27-0.17s-0.15-0.15-0.19-0.19c-0.04-0.04-0.1-0.13-0.19-0.27
		c-0.08-0.14-0.14-0.22-0.17-0.25c-0.72-1.02-1.49-2.13-2.32-3.32c-0.83-1.19-1.72-2.46-2.66-3.82c-0.94-1.36-1.7-2.45-2.28-3.28
		l-0.29-0.42h-16.6v11.37c0,0.25-0.12,0.37-0.37,0.37h-4.81c-0.25,0-0.37-0.12-0.37-0.37V28.11V16.36c0-0.25,0.12-0.37,0.37-0.37
		h29.26c1.58,0,3.03,0.39,4.36,1.16c1.33,0.77,2.38,1.83,3.15,3.15c0.77,1.33,1.16,2.77,1.16,4.32c0,1.11-0.2,2.16-0.6,3.15
		c-0.4,1-0.95,1.87-1.64,2.64c-0.69,0.76-1.51,1.4-2.47,1.91c-0.95,0.51-1.96,0.82-3.01,0.93L181.5,33.42z M158.1,21.55v6.18h24.11
		c0.86,0,1.59-0.3,2.2-0.91c0.61-0.61,0.91-1.33,0.91-2.18c0-0.84-0.3-1.57-0.91-2.18c-0.61-0.61-1.34-0.91-2.2-0.91H158.1z
		 M220.89,16.9l19.75,28.14h-6.23c-0.14,0-0.25-0.01-0.33-0.04c-0.08-0.03-0.17-0.08-0.25-0.17s-0.15-0.15-0.19-0.19
		c-0.04-0.04-0.1-0.13-0.19-0.27c-0.08-0.14-0.15-0.22-0.21-0.25l-3.49-5.02h-25.94l-3.53,5.02c-0.03,0.03-0.08,0.11-0.17,0.25
		c-0.08,0.14-0.15,0.23-0.19,0.27c-0.04,0.04-0.1,0.1-0.19,0.19c-0.08,0.08-0.17,0.14-0.27,0.17c-0.1,0.03-0.2,0.04-0.31,0.04h-6.27
		l19.75-28.14c0.44-0.61,0.82-0.91,1.12-0.91h6.02C220.11,15.99,220.47,16.3,220.89,16.9z M207.73,33.55h18.14l-9.09-12.91
		l-0.79,1.08L207.73,33.55z M23.04,23.4c-0.23,0-0.34-0.11-0.34-0.34v-4.37c0-0.23,0.11-0.34,0.34-0.34h31.79
		c-0.19-1.6-0.42-2.54-0.42-2.54s-5.66-0.51-10.48-3.15c-4.82-2.63-7.97-6.56-7.97-6.56l0,0c0,0-3.15,3.92-7.97,6.56
		c-4.82,2.63-10.48,3.15-10.48,3.15s-2.83,11.57,3.21,22.11c0.63,1.09,1.29,2.11,1.97,3.05V29.35c0-0.23,0.13-0.34,0.38-0.34h25.99
		c0.23,0,0.34,0.11,0.34,0.34v4.37c0,0.23-0.11,0.34-0.34,0.34H27.75v10.32c0,0.23-0.11,0.34-0.34,0.34h-1.56
		c5.07,5.21,10.11,7.02,10.11,7.02l0,0c0,0,9.19-3.28,15.23-13.82c2.91-5.07,3.76-10.37,3.86-14.52H23.04z"/>
</g>
</svg>
