<?xml version="1.0" encoding="UTF-8" standalone="no"?>
<svg
   xmlns:dc="http://purl.org/dc/elements/1.1/"
   xmlns:cc="http://creativecommons.org/ns#"
   xmlns:rdf="http://www.w3.org/1999/02/22-rdf-syntax-ns#"
   xmlns:svg="http://www.w3.org/2000/svg"
   xmlns="http://www.w3.org/2000/svg"
   xmlns:sodipodi="http://sodipodi.sourceforge.net/DTD/sodipodi-0.dtd"
   xmlns:inkscape="http://www.inkscape.org/namespaces/inkscape"
   height="60.538795"
   style="clip-rule:evenodd;fill-rule:evenodd;stroke-linejoin:round;stroke-miterlimit:1.41420996"
   version="1.1"
   viewBox="0 0 59.95768 60.538795"
   width="59.95768"
   xml:space="preserve"
   id="svg3769"
   sodipodi:docname="export2.svg"
   inkscape:version="0.92.3 (2405546, 2018-03-11)"><metadata
   id="metadata3775"><rdf:RDF><cc:Work
       rdf:about=""><dc:format>image/svg+xml</dc:format><dc:type
         rdf:resource="http://purl.org/dc/dcmitype/StillImage" /><dc:title></dc:title></cc:Work></rdf:RDF></metadata><defs
   id="defs3773" /><sodipodi:namedview
   pagecolor="#ffffff"
   bordercolor="#666666"
   borderopacity="1"
   objecttolerance="10"
   gridtolerance="10"
   guidetolerance="10"
   inkscape:pageopacity="0"
   inkscape:pageshadow="2"
   inkscape:window-width="2145"
   inkscape:window-height="1289"
   id="namedview3771"
   showgrid="false"
   inkscape:zoom="10.34284"
   inkscape:cx="43.579607"
   inkscape:cy="30.862507"
   inkscape:window-x="4843"
   inkscape:window-y="455"
   inkscape:window-maximized="0"
   inkscape:current-layer="svg3769" />
    
    <clipPath
   id="_clip1">
        <rect
   height="8"
   width="60"
   x="20.731001"
   y="85.755997"
   id="rect3747" />
    </clipPath>
    
    
    <clipPath
   id="_clip2">
        <path
   d="m 54.131,33.056 v 36.6 l 17.9,-15.4 5.2,6.1 -24.5,21 c -1.5,1.3 -3.7,1.3 -5.2,0 l -24.5,-21 5.2,-6.1 17.9,15.4 v -36.5 h 8 z"
   id="path3756"
   inkscape:connector-curvature="0"
   style="clip-rule:nonzero" />
    </clipPath>
    
    
    
    
<path
   style="stroke:none;stroke-width:0.09576158"
   d="m 0,56.573522 v -3.965274 h 29.97884 29.978838 v 3.965274 3.965274 H 29.97884 0 Z"
   id="path3777"
   inkscape:connector-curvature="0" /><path
   style="stroke:none;stroke-width:0.0683668"
   d="m 0,56.573522 v -3.965274 h 14.698861 14.69886 v 3.965274 3.965274 H 14.698861 0 Z"
   id="path3779"
   inkscape:connector-curvature="0" /><path
   style="stroke:#000000;stroke-width:0.0683668;stroke-opacity:1"
   d="m 28.611191,0.1036113 c -0.492902,0.09802 -1.154034,0.404577 -1.584338,0.734626 -0.232329,0.178199 -5.871108,4.998353 -12.53062,10.7114517 -7.595281,6.515882 -12.095268,10.421168 -12.073495,10.477907 0.06155,0.160394 5.048502,5.973589 5.107457,5.953665 0.03131,-0.01058 4.043959,-3.449547 8.916986,-7.64214 4.873027,-4.192594 8.888223,-7.633153 8.922658,-7.645687 0.0378,-0.01376 0.06261,7.198827 0.06261,18.202659 v 18.225448 h 1.982637 1.982637 V 24.577862 0.0341833 l -0.256375,0.0075 c -0.141007,0.0041 -0.379576,0.03199 -0.530155,0.06194 z"
   id="path3781"
   inkscape:connector-curvature="0" /><path
   style="stroke:#000000;stroke-width:0.0683668;stroke-opacity:1"
   d="M 29.397721,24.587601 V 49.14102 h 1.982637 1.982637 V 30.915572 c 0,-11.648151 0.02375,-18.217223 0.06581,-18.202659 0.03619,0.01253 4.052521,3.453093 8.92517,7.645687 4.872648,4.192593 8.883852,7.631556 8.913785,7.64214 0.0581,0.02054 5.045264,-5.798136 5.106633,-5.95806 C 56.398413,21.98008 52.24308,18.374439 44.15195,11.437108 37.409588,5.6562093 31.735619,0.8206333 31.54313,0.6913833 c -0.433831,-0.291303 -1.180955,-0.556395 -1.7298,-0.61376 l -0.415608,-0.04344 z"
   id="path3783"
   inkscape:connector-curvature="0" /></svg>