<?xml version="1.0" encoding="utf-8"?>
<svg version="1.1" xmlns="http://www.w3.org/2000/svg" xmlns:xlink="http://www.w3.org/1999/xlink" x="0px" y="0px"
                    viewBox="0 0 84 64" enable-background="new 0 0 84 64" xml:space="preserve" fill="#fff" >
    <g>
        <polygon points="61.9,0 51.6,10.2 73.7,31.9 84,21.8 	" />
        <path  d="M50.2,16.5c-0.3,0.3-0.8,0.5-1.2,0.4l-7.1-0.5c-1.1-0.1-2.2,0.2-3.2,0.8l0-0.1L35.3,16c-0.2-0.1-0.4-0.3-0.6-0.4l-2.1-2
    l2.6-2.6L24,0L1,22.7l11.2,11l2.2-2.2l6.5,9l1.6,1.6l-2,1.9c-1.3,1.3-1.2,3.5,0.3,5c0.8,0.8,1.8,1.2,2.8,1.2c0.1,0,0.2,0,0.2,0
    c-0.2,0.4-0.3,0.8-0.3,1.3c-0.1,1.1,0.3,2.1,1,2.8c0.6,0.6,1.5,1,2.5,1c0.3,0,0.7,0,1-0.1c-0.3,1.2,0,2.6,1,3.6
    c0.7,0.7,1.6,1.1,2.6,1.1c0.4,0,0.8-0.1,1.1-0.2c0,0.1,0,0.2,0,0.3c0,1,0.5,2,1.2,2.8c0.8,0.8,1.8,1.2,2.9,1.2
    c0.8,0,1.6-0.3,2.1-0.8l2.5-2.4c0.8,0.7,1.9,1.1,3.1,1.1c1.3,0,2.5-0.4,3.3-1.2c0.7-0.7,1.1-1.7,1.2-2.7c0.5,0.1,1.1,0.2,1.7,0.2
    c1.2,0,2.3-0.4,3-1c0.8-0.7,1.2-1.8,1.3-2.8c0.3,0.1,0.7,0.1,1,0.1c1.3,0,2.4-0.4,3.2-1.1c0.9-0.9,1.3-2.2,1.3-3.5
    c0.1,0,0.1,0,0.2,0c1.3,0,2.4-0.4,3.2-1.2c1.6-1.6,1.6-4.8-0.1-6.5L62.7,41l4.6-7.3l1.9-1.8l-17.4-17L50.2,16.5z M13.8,24.2
    c-0.9,0.9-2.3,0.9-3.1,0c-0.9-0.8-0.9-2.2,0-3.1c0.9-0.9,2.3-0.9,3.1,0C14.7,21.9,14.7,23.3,13.8,24.2z M62.2,46.8
    c-0.3,0.3-0.8,0.4-1.4,0.4c-0.6,0-1.1-0.2-1.4-0.4l-0.1,0c0,0,0,0-0.1-0.1L53.4,41c-0.5-0.5-1.3-0.5-1.8,0c-0.5,0.5-0.5,1.3,0,1.8
    l5.7,5.8c0.1,0.1,0.1,0.1,0.2,0.2c0,0,0.1,0.1,0.1,0.1c0.5,0.5,0.5,2-0.2,2.7c-0.2,0.2-0.8,0.4-1.4,0.4c-0.8,0-1.5-0.2-1.8-0.5
    c-0.1-0.2-0.2-0.3-0.4-0.5l-5.2-5.1c-0.5-0.5-1.3-0.5-1.8,0c-0.5,0.5-0.5,1.3,0,1.8l5.2,5.1c0.1,0.1,0.1,0.1,0.2,0.2
    c0.4,0.6,0.3,1.8-0.4,2.5c-0.2,0.2-0.6,0.3-1.2,0.3c-0.9,0-1.7-0.3-2-0.6L48,54.3c0,0-0.1-0.1-0.1-0.1c0,0-0.1-0.1-0.1-0.1
    l-2.5-2.4c-0.5-0.5-1.3-0.5-1.8,0c-0.5,0.5-0.5,1.3,0,1.8l2.6,2.6c0.6,0.7,0.5,2.2-0.1,2.8c-0.3,0.3-0.9,0.5-1.5,0.5
    c-0.6,0-1.1-0.2-1.4-0.5l-0.5-0.4c0,0,0,0-0.1-0.1c0-0.9-0.4-1.8-1-2.6l-0.2-0.2c-0.8-0.7-1.7-1.2-2.7-1.2c0.3-0.6,0.5-1.2,0.5-1.9
    c0-1-0.4-2-1.1-2.7c-0.7-0.7-1.6-1.1-2.6-1.1c-0.1,0-0.1,0-0.2,0c0.8-1.5,0.6-3.3-0.5-4.5c-0.6-0.6-1.5-1-2.5-1
    c-0.8,0-1.7,0.3-2.5,0.7c0,0,0,0,0-0.1c-0.1-0.8-0.4-1.7-1-2.3l-0.2-0.2c-0.8-0.8-1.8-1.2-2.8-1.2c-0.5,0-0.9,0.1-1.3,0.3L22.9,39
    l-6.7-9.3l14.6-14.3l2.1,2c0.4,0.4,0.8,0.7,1.2,0.9l2.5,0.8l-6.7,6.6l-0.8,0.8c-0.7,0.7-1,1.5-1,2.5c0,1.2,0.5,2.5,1.4,3.4
    c1,1,2.4,1.6,3.7,1.6c0.9,0,1.7-0.3,2.4-0.9l7.4-7.6L62,43.9C62.7,44.6,62.8,46.2,62.2,46.8z" />
    </g>
</svg>