<?xml version="1.0" encoding="utf-8"?>
<!-- Generator: Adobe Illustrator 21.0.2, SVG Export Plug-In . SVG Version: 6.00 Build 0)  -->
<svg version="1.1" id="Layer_1" xmlns="http://www.w3.org/2000/svg" xmlns:xlink="http://www.w3.org/1999/xlink" x="0px" y="0px"
	 width="100px" height="100px" viewBox="0 0 100 100" style="enable-background:new 0 0 100 100;" xml:space="preserve">
<style type="text/css">
	.st0{fill:#005277;}
	.st1{fill:#FFFFFF;}
</style>
<path class="st0" d="M50,100c27.6,0,50-22.4,50-50c0-27.6-22.4-50-50-50C22.4,0,0,22.4,0,50C0,77.6,22.4,99.9,50,100z"/>
<polygon class="st1" points="47.3,56.8 44.6,69.1 57,66.4 59.9,63.5 50.3,53.8 "/>
<path class="st1" d="M72.8,31.3l-4.7,4.7V25c0-2.5-2.1-4.6-4.6-4.6h-7.9c-0.1-2.9-3.3-0.8-5-3.6c-1.9-3.3-10.5-3.3-12.4,0
	c-1.6,2.8-4.9,0.7-5,3.6h-7.9c-2.5,0-4.6,2.1-4.6,4.6v51.2c0,2.5,2.1,4.6,4.6,4.6h38.1c2.5,0,4.6-2.1,4.6-4.6V55.2l14.3-14.3
	L72.8,31.3z M44.4,15.8c1.2,0,2.2,1,2.2,2.2c0,1.2-1,2.2-2.2,2.2s-2.2-1-2.2-2.2l0,0C42.2,16.8,43.2,15.8,44.4,15.8z M63.8,76.3
	c0,0.2-0.1,0.3-0.3,0.3H25.4c-0.2,0-0.3-0.1-0.3-0.3V25c0-0.2,0.1-0.3,0.3-0.3h7.9v0.6c0,1.1,0.9,2,2,2h18.5c1.1,0,2-0.9,2-2
	c0,0,0,0,0,0v-0.6h7.9c0.2,0,0.3,0.1,0.3,0.3v15.2L52.2,51.8l9.7,9.6l1.9-1.9L63.8,76.3z"/>
<path class="st1" d="M81.8,25.1c-1.5,0-2.9,0.5-4.1,1.4l-2.8,2.8l9.6,9.6l2.8-2.8c2.3-3,1.7-7.4-1.4-9.6
	C84.7,25.6,83.2,25.1,81.8,25.1L81.8,25.1z"/>
</svg>
