<?xml version="1.0" encoding="UTF-8" standalone="no"?>
<svg xmlns:svg="http://www.w3.org/2000/svg" 
     xmlns="http://www.w3.org/2000/svg" xml:space="preserve" width="105.63924" viewBox="0 0 105.63924 105.63924" version="1.1" id="Layer_1" height="105.63924">
    
     <defs id="defs5211" />
     <g transform="translate(-11.179762,-11.181)" id="g5206">
          <path id="path5202" style="fill:#2f3435" d="M 36.108,110.473 106.544,40.037 87.963,21.457 17.526,91.893 c -0.378,0.302 -0.671,0.716 -0.803,1.22 l -5.476,20.803 c -0.01,0.04 -0.01,0.082 -0.019,0.121 -0.018,0.082 -0.029,0.162 -0.039,0.247 -0.007,0.075 -0.009,0.147 -0.009,0.222 -10e-4,0.077 10e-4,0.147 0.009,0.225 0.01,0.084 0.021,0.166 0.039,0.246 0.008,0.04 0.008,0.082 0.019,0.121 0.007,0.029 0.021,0.055 0.031,0.083 0.023,0.078 0.053,0.154 0.086,0.23 0.029,0.067 0.057,0.134 0.09,0.196 0.037,0.066 0.077,0.127 0.121,0.189 0.041,0.063 0.083,0.126 0.13,0.184 0.047,0.059 0.1,0.109 0.152,0.162 0.053,0.054 0.105,0.105 0.163,0.152 0.056,0.048 0.119,0.09 0.182,0.131 0.063,0.043 0.124,0.084 0.192,0.12 0.062,0.033 0.128,0.062 0.195,0.09 0.076,0.033 0.151,0.063 0.23,0.087 0.028,0.009 0.054,0.023 0.083,0.031 0.04,0.01 0.081,0.01 0.121,0.02 0.081,0.017 0.162,0.028 0.246,0.037 0.077,0.009 0.148,0.011 0.224,0.01 0.075,0 0.147,-10e-4 0.223,-0.008 0.084,-0.011 0.166,-0.022 0.247,-0.039 0.04,-0.01 0.082,-0.01 0.121,-0.02 l 20.804,-5.475 c 0.505,-0.132 0.92,-0.425 1.22,-0.805 z m -16.457,-2.124 c -0.535,-0.535 -1.267,-0.746 -1.964,-0.649 L 20.87,95.606 32.396,107.131 20.3,110.313 c 0.098,-0.697 -0.112,-1.429 -0.649,-1.964 z" />
          <path id="path5204" style="fill:#2f3435" d="m 109.702,36.879 -18.58,-18.581 7.117,-7.117 c 0,0 12.656,4.514 18.58,18.582 z" />
     </g>
</svg>