<?xml version="1.0" encoding="utf-8"?>
<!-- Generator: Adobe Illustrator 15.0.2, SVG Export Plug-In . SVG Version: 6.00 Build 0)  -->
<!DOCTYPE svg PUBLIC "-//W3C//DTD SVG 1.1//EN" "http://www.w3.org/Graphics/SVG/1.1/DTD/svg11.dtd">
<svg version="1.1" id="artwork" xmlns="http://www.w3.org/2000/svg" xmlns:xlink="http://www.w3.org/1999/xlink" x="0px" y="0px"
	 width="612px" height="792px" viewBox="0 0 612 792" enable-background="new 0 0 612 792" xml:space="preserve">
<g id="TSA_2_">
	<g id="TSA_1_">
		<path fill="#FFFFFF" d="M488.133,120.822h-3.792v-6.148h-11.598v36.194h6.259v3.756h-19.846v-3.756h6.259v-36.194h-11.598v6.148
			h-3.756v-13.697h3.756v2.319h30.523v-2.319h3.792V120.822z"/>
		<path fill="#FFFFFF" d="M520.877,142.324c0,1.915-0.326,3.676-0.975,5.284c-0.651,1.608-1.579,2.989-2.781,4.143
			c-1.203,1.155-2.639,2.043-4.308,2.67c-1.669,0.625-3.512,0.938-5.523,0.938c-1.67,0-3.271-0.271-4.806-0.81
			c-1.534-0.539-3.124-1.326-4.768-2.357v3.352h-3.756v-14.508h3.756v5.744c2.896,3.462,5.94,5.191,9.131,5.191
			c2.111,0,3.897-0.693,5.358-2.08c1.46-1.387,2.19-3.099,2.19-5.136c0-1.768-0.503-3.271-1.51-4.511
			c-1.008-1.24-2.522-2.461-4.547-3.664c-2.025-1.203-3.971-2.369-5.837-3.498c-1.865-1.129-3.437-2.32-4.713-3.571
			c-2.699-2.701-4.05-5.745-4.05-9.131c0-2.013,0.527-3.916,1.583-5.708c1.056-1.792,2.559-3.233,4.511-4.327
			c1.952-1.092,4.191-1.638,6.719-1.638c3.511,0,6.42,0.749,8.728,2.245v-2.393h3.793v12.261h-3.793v-4.896
			c-0.909-1.203-2.057-2.142-3.443-2.816c-1.387-0.675-2.853-1.013-4.399-1.013c-2.406,0-4.211,0.614-5.413,1.842
			c-1.203,1.228-1.804,2.773-1.804,4.638c0,2.087,0.692,3.695,2.08,4.824c1.386,1.129,3.763,2.621,7.124,4.474
			c3.363,1.853,5.892,3.627,7.586,5.32c1.399,1.399,2.394,2.805,2.982,4.216C520.582,138.821,520.877,140.46,520.877,142.324z"/>
		<path fill="#FFFFFF" d="M567.465,154.623h-15.759v-3.756h4.308l-4.308-12.077h-15.06l-4.087,12.077h4.087v3.756h-11.782v-3.756
			h3.939l14.985-42.527h3.866l15.907,42.527h3.902V154.623z M550.196,135.034l-6.112-16.605h-0.146l-5.781,16.605H550.196z"/>
	</g>
	<path fill="#FFFFFF" d="M576.001,116.763c0,2.987-2.403,5.357-5.453,5.357c-3.051,0-5.484-2.37-5.484-5.357s2.434-5.32,5.516-5.32
		C573.598,111.443,576.001,113.775,576.001,116.763z M566.429,116.763c0,2.37,1.783,4.25,4.15,4.25
		c2.305,0.034,4.059-1.881,4.059-4.215c0-2.371-1.754-4.285-4.121-4.285C568.212,112.513,566.429,114.427,566.429,116.763z
		 M569.704,119.523h-1.234v-5.322c0.486-0.066,1.17-0.163,2.047-0.163c1.007,0,1.461,0.163,1.819,0.419
		c0.322,0.228,0.548,0.617,0.548,1.139c0,0.649-0.486,1.068-1.102,1.267v0.063c0.519,0.162,0.78,0.584,0.941,1.297
		c0.16,0.812,0.291,1.103,0.391,1.299h-1.3c-0.163-0.197-0.261-0.648-0.422-1.299c-0.1-0.55-0.423-0.811-1.105-0.811h-0.583V119.523
		z M569.737,116.536h0.584c0.683,0,1.232-0.228,1.232-0.777c0-0.485-0.355-0.812-1.137-0.812c-0.324,0-0.552,0.032-0.68,0.069
		V116.536z"/>
</g>
<g id="CSET">
	<path id="T_2_" fill="#FFFFFF" d="M367.273,109.506h73.509v8.999h-32.356v36h-9.276v-36h-31.876V109.506z"/>
	<path id="E_2_" fill="#FFFFFF" d="M293.693,136.918v8.311h64.235v9.276h-73.304v-44.999h73.304v9.068h-64.235v9.343h32.701v9.001
		H293.693z"/>
	<path id="S_2_" fill="#FFFFFF" d="M267.933,154.505h-65.955v-9l62.998-0.138c0.733,0,1.169-0.364,1.306-1.099
		c0.046-0.137,0.07-0.252,0.07-0.346l-0.07-6.868v-0.137h-64.304v-19.854c0-3.161,1.281-5.381,3.849-6.666
		c1.098-0.594,2.358-0.892,3.777-0.892h65.815v9.068l-62.861-0.069c-0.732,0-1.167,0.343-1.306,1.031
		c-0.047,0.138-0.07,0.251-0.07,0.345v8.036h64.306v18.962c0,3.207-1.261,5.451-3.778,6.732
		C270.564,154.208,269.304,154.505,267.933,154.505z"/>
	<path id="C_2_" fill="#FFFFFF" d="M128.743,143.788c0,0.822,0.363,1.303,1.097,1.44c0.093,0.048,0.184,0.071,0.274,0.071h62.728
		v9.205h-65.886c-3.07,0-5.291-1.282-6.666-3.849c-0.64-1.189-0.96-2.518-0.96-3.983v-29.609c0-3.161,1.283-5.381,3.848-6.666
		c1.097-0.594,2.357-0.892,3.778-0.892h66.365v8.999h-62.932c-1.097,0-1.646,0.643-1.646,1.925V143.788z"/>
</g>
<g id="CSET_Lock">
	<path id="Lock_Body" fill="#FFFFFF" d="M94.417,109.281H39.983c-1.685,0-3.051,1.364-3.051,3.05v39.179
		c0,1.684,1.366,3.051,3.051,3.051h54.434c1.685,0,3.051-1.367,3.051-3.051v-39.179C97.469,110.646,96.103,109.281,94.417,109.281z
		 M91.563,123.868H50.57c-0.717,0-1.075,0.419-1.075,1.253v15.216c0,0.536,0.238,0.85,0.716,0.94
		c0.06,0.029,0.119,0.043,0.179,0.043H91.25v5.998H48.333c-2,0-3.446-0.836-4.341-2.507c-0.419-0.776-0.626-1.642-0.626-2.595
		v-19.288c0-2.061,0.834-3.506,2.506-4.343c0.716-0.387,1.536-0.581,2.461-0.581h43.23V123.868z"/>
	<path id="Top_of_Lock" fill="#FFFFFF" d="M67.871,84.26c8.056,0,14.585,6.529,14.585,14.586l-0.001,5.374h7.446v-5.374
		c0-12.167-9.863-22.03-22.03-22.03c-12.166,0-22.029,9.862-22.029,22.03v5.424h7.443l0.001-5.424
		C53.287,90.789,59.816,84.26,67.871,84.26z"/>
</g>
</svg>
