<svg xmlns="http://www.w3.org/2000/svg">

<symbol id="spriteDetails" viewBox="0 0 31 35" >
    <title>Details</title>  
    <path fill="#044" stroke="transparent" stroke-width="0" transform="scale(.9)" 
        d="M28,7.566L28,16.38 28,23.15 28,31.962C28,33.637,26.625,35,24.936,35L7.633,35C6.732,35,5.921,34.611,5.36,33.994L4.678,33.316 4.575,33.316 2.957,31.713 2.314,31.076 2.314,30.969 1.069,29.731C0.951,29.631,0.839,29.52,0.739,29.403L0.727,29.394 0.73,29.394C0.276,28.863,0,28.18,0,27.432L0,18.62 0,11.848 0,3.036C0,1.361,1.372,0,3.062,0L8.052,0 8.052,0.095C6.725,0.427,5.738,1.619,5.738,3.036L5.738,3.201 5.738,4.311 5.738,19.02 7.646,17.401 9.751,19.02 9.751,4.311 9.751,3.201 9.751,3.036C9.751,1.361,11.123,0,12.812,0L20.367,0C22.052,0,23.429,1.361,23.429,3.036L23.429,11.848 23.429,18.62 23.429,27.432C23.429,29.107,22.057,30.47,20.367,30.47L4.913,30.47 6.167,31.713 7.213,32.751 22.668,32.751C24.357,32.751,25.729,31.388,25.729,29.713L25.729,20.901 25.729,15.085 25.729,14.128 25.729,5.317 25.729,4.639C27.033,4.987,28,6.165,28,7.566"
    />
    </symbol>            

 <symbol id="spriteSupplemental" viewBox="0 0 31 35">
    <title>Supplemental Info</title>
    <path fill="#044" stroke="transparent" stroke-width="0" transform="scale(.9)" 
        d="M18.879,29.328C17.64,29.934 16.341,30.24 14.986,30.24 14.044,30.24 13.424,29.824 13.125,28.99 12.927,28.434 13.014,27.26 13.386,25.472L15.071,17.634C15.214,16.934 15.287,16.422 15.287,16.09 15.287,15.614 15.063,15.364 14.615,15.336L13.088,15.228C12.989,15.05 12.945,14.794 12.958,14.466 12.972,14.134 13.039,13.892 13.164,13.74 15.756,13.402 17.941,13.236 19.718,13.236 20.239,13.236 20.499,13.506 20.499,14.044 20.499,14.24 20.462,14.516 20.384,14.868 20.308,15.22 20.206,15.686 20.077,16.27 19.949,16.85 19.846,17.31 19.772,17.65L18.119,25.136C17.758,26.69 17.807,27.464 18.263,27.464 18.49,27.464 18.877,27.294 19.429,26.954 19.981,26.612 20.487,26.19 20.948,25.682 21.171,25.682 21.391,25.802 21.608,26.042 21.825,26.286 21.971,26.518 22.045,26.74 21.175,27.856 20.121,28.718 18.879,29.328 M16.841,5.47C17.307,4.998 17.962,4.764 18.804,4.764 19.538,4.764 20.133,5.024 20.592,5.546 21.052,6.068 21.281,6.652 21.281,7.296 21.281,7.856 21.028,8.388 20.518,8.896 20.008,9.406 19.363,9.66 18.582,9.66 17.849,9.66 17.26,9.404 16.812,8.888 16.365,8.374 16.142,7.788 16.142,7.126 16.142,6.496 16.375,5.942 16.841,5.47 M17.5,0C7.835,0 0,7.834 0,17.5 0,27.164 7.835,35 17.5,35 27.166,35 35,27.164 35,17.5 35,7.834 27.166,0 17.5,0"
    />
</symbol>

<symbol id="spriteComment" viewBox="0 0 31 35">
<title>Comments</title>
    <path fill="#044" stroke="transparent" stroke-width="0" transform="scale(.9)" 
        d="M5.523,11.864C5.523,10.271 6.6,9.151 8.173,9.151 9.746,9.151 10.869,10.271 10.869,11.864 10.869,13.413 9.79,14.576 8.219,14.576 6.556,14.576 5.523,13.413 5.523,11.864 M14.827,11.864C14.827,10.271 15.905,9.151 17.478,9.151 19.05,9.151 20.174,10.271 20.174,11.864 20.174,13.413 19.094,14.576 17.523,14.576 15.861,14.576 14.827,13.413 14.827,11.864 M24.132,11.864C24.132,10.271 25.209,9.151 26.782,9.151 28.355,9.151 29.478,10.271 29.478,11.864 29.478,13.413 28.399,14.576 26.828,14.576 25.165,14.576 24.132,13.413 24.132,11.864 M0,3.332L0,20.394C0,22.227,1.565,23.726,3.477,23.726L7.42,23.726 7.42,33 15.455,23.726 31.524,23.726C33.436,23.726,35,22.227,35,20.394L35,3.332C35,1.499,33.436,0,31.524,0L3.477,0C1.565,0,0,1.499,0,3.332"
    />
</symbol>

<symbol id="spriteDocs" viewBox="0 0 31 35">
    <title>Documents</title>
    <path fill="#044" stroke="transparent" stroke-width="0" transform="scale(.9)" 
        d="M19.495,0L19.495,8.726 28.221,8.726z M0,0.202L0,35 28.02,35 28.02,11.522 16.7,11.522 16.7,0.202z M5.729,16.483L22.08,16.483 22.08,19.558 5.729,19.558z M5.729,21.654L22.08,21.654 22.08,24.728 5.729,24.728z M5.729,26.825L22.08,26.825 22.08,29.899 5.729,29.899z"
    />
</symbol>

<symbol id="spriteRefs" viewBox="0 0 31 35">
    <title>References</title>
    <path fill="#044" stroke="transparent" stroke-width="0" transform="scale(.55)" 
        d="M27,20.681L20,20.681 20,4.681 27,4.681z M17,60.681L30,60.681 30,0.681 17,0.681z M45.974,20.131L39.182,21.827 35.307,6.303 42.098,4.607z M31.427,3.149L45.96,61.362 58.573,58.213 44.039,0z M10,20.681L3,20.681 3,4.681 10,4.681z M0,60.681L13,60.681 13,0.681 0,0.681z"
       />
</symbol>

<symbol id="spriteDisc" viewBox="0 0 31 35">
    <title>Observations</title>
    <path fill="#044" stroke="transparent" stroke-width="0" transform="scale(.9)" 
        d="M17.479,17.533L17.118,17.717C16.347,18.107,15.869,18.82,15.869,19.575L15.869,19.924 15.85,19.924 15.85,26.23 8.852,26.23 8.852,19.453C8.852,18.707,8.403,18.023,7.657,17.624L7.304,17.438C4.463,15.923 2.763,13.335 2.763,10.511 2.763,8.331 3.774,6.279 5.615,4.729 7.453,3.177 9.894,2.328 12.487,2.328 15.077,2.328 17.517,3.177 19.355,4.727 21.195,6.276 22.203,8.329 22.203,10.511 22.203,13.411 20.439,16.037 17.479,17.533 M17.047,10.111L14.794,11.241C14.76,11.177 13.964,9.66 12.343,9.66 10.71,9.66 9.879,11.19 9.844,11.254L7.604,10.093C7.668,9.973 9.152,7.13 12.343,7.13 15.546,7.13 16.986,9.986 17.047,10.111 M21.307,3.081C18.948,1.093 15.814,0 12.487,0 5.601,0 0,4.716 0,10.511 0,14.137 2.179,17.462 5.829,19.406 5.829,19.406 5.987,19.489 6.086,19.543L6.086,19.924 6.019,19.924 6.019,31.583C6.019,32.084,6.424,32.49,6.925,32.49L8.168,32.49 8.803,32.49 9.172,32.49 9.172,34.093C9.172,34.594,9.578,35,10.079,35L14.891,35C15.392,35,15.798,34.594,15.798,34.093L15.798,32.49 15.85,32.49 17.728,32.49C18.228,32.49,18.634,32.084,18.634,31.583L18.634,26.654 18.634,19.924 18.634,19.667C18.737,19.613 18.904,19.532 18.904,19.532 22.702,17.607 24.97,14.236 24.97,10.511 24.97,7.708 23.668,5.066 21.307,3.081"
    />
</symbol>

<symbol id="spriteQ" viewBox="0 0 31 35">
    <title>Related Questions</title>
    <path fill="" stroke="transparent" stroke-width="0" transform="scale(.4)"
        d="M31.159,41.824C33.864,39.722 36.056,36.832 37.732,33.154 39.41,29.475 40.248,25.646 40.248,21.666 40.248,16.702 38.884,12.762 36.156,9.844 33.427,6.926 30.086,5.467 26.128,5.467 22.818,5.467 19.632,6.433 16.569,8.368 13.505,10.302 11.056,13.137 9.223,16.87 7.39,20.604 6.473,24.674 6.473,29.079 6.473,34.601 8.195,38.872 11.638,41.891 14.322,44.239 17.194,45.413 20.259,45.413 22.695,45.413 24.887,45.033 26.832,44.272 24.797,42.417 22.707,40.929 20.56,39.811L22.941,35.719C24.394,36.345 25.709,37.09 26.883,37.95 28.056,38.811 29.481,40.102 31.159,41.824 M35.183,46.05C36.838,48.017,39.074,49.919,41.891,51.752L38.973,55.642C36,53.697 33.327,51.338 30.958,48.565 27.626,50.131 24.451,50.913 21.432,50.913 19.017,50.913 16.368,50.455 13.483,49.538 10.598,48.622 8.183,47.235 6.238,45.379 4.293,43.523 2.767,41.137 1.66,38.219 0.554,35.301 0,32.075 0,28.542 0,24.271 0.816,20.179 2.448,16.266 3.812,13.047 5.585,10.268 7.765,7.931 9.945,5.595 12.331,3.79 14.926,2.514 18.346,0.838 22.047,0 26.027,0 32.153,0 37.145,1.995 41.003,5.986 44.86,9.977 46.789,15.327 46.789,22.035 46.789,26.977 45.76,31.533 43.703,35.703 41.645,39.873 38.806,43.322 35.183,46.05"
    />
</symbol>

</svg>            