<?xml version="1.0" encoding="UTF-8"?>
<svg id="a" data-name="Layer 1" xmlns="http://www.w3.org/2000/svg" xmlns:xlink="http://www.w3.org/1999/xlink" viewBox="0 0 747.23 269.47">
  <defs>
    <style>
      .ah {
        clip-path: url(#ad);
      }

      .ai {
        clip-path: url(#j);
      }

      .aj {
        fill: #2982b1;
      }

      .aj, .ak, .al, .am, .an, .ao, .ap, .aq, .ar {
        stroke-width: 0px;
      }

      .as {
        clip-path: url(#t);
      }

      .ak {
        fill: #c1dbe3;
      }

      .at {
        clip-path: url(#g);
      }

      .au {
        clip-path: url(#z);
      }

      .av {
        clip-path: url(#r);
      }

      .al {
        fill: #8fbfe0;
      }

      .aw {
        clip-path: url(#p);
      }

      .am {
        fill: #6e6d6e;
      }

      .ax {
        clip-path: url(#d);
      }

      .ay {
        clip-path: url(#ab);
      }

      .az {
        clip-path: url(#ac);
      }

      .ba {
        clip-path: url(#aa);
      }

      .bb {
        clip-path: url(#v);
      }

      .bc {
        clip-path: url(#m);
      }

      .bd {
        clip-path: url(#x);
      }

      .be {
        clip-path: url(#i);
      }

      .an, .bf {
        fill: none;
      }

      .bg {
        clip-path: url(#b);
      }

      .bf {
        stroke: #fff;
        stroke-miterlimit: 10;
        stroke-width: .41px;
      }

      .bh {
        clip-path: url(#e);
      }

      .bi {
        clip-path: url(#f);
      }

      .bj {
        clip-path: url(#l);
      }

      .ao, .aq {
        fill: #fff;
      }

      .bk {
        clip-path: url(#o);
      }

      .bl {
        clip-path: url(#af);
      }

      .ap {
        fill: #314c63;
      }

      .bm {
        clip-path: url(#n);
      }

      .aq {
        fill-rule: evenodd;
      }

      .bn {
        clip-path: url(#q);
      }

      .bo {
        clip-path: url(#k);
      }

      .bp {
        opacity: .2;
      }

      .bq {
        clip-path: url(#c);
      }

      .br {
        clip-path: url(#u);
      }

      .ar {
        fill: #33669a;
      }

      .bs {
        clip-path: url(#ae);
      }

      .bt {
        clip-path: url(#s);
      }

      .bu {
        clip-path: url(#ag);
      }

      .bv {
        clip-path: url(#h);
      }

      .bw {
        clip-path: url(#y);
      }

      .bx {
        clip-path: url(#w);
      }
    </style>
    <clipPath id="b">
      <rect class="an" x="-22.38" y="-306" width="792" height="612"/>
    </clipPath>
    <clipPath id="c">
      <rect class="an" x="-22.38" y="-306" width="792" height="612"/>
    </clipPath>
    <clipPath id="d">
      <rect class="an" x="13.62" y="4.5" width="720" height="260.34"/>
    </clipPath>
    <clipPath id="e">
      <rect class="an" x="94.55" y="156.18" width="77.67" height="24.44"/>
    </clipPath>
    <clipPath id="f">
      <rect class="an" x="94.55" y="156.18" width="77.67" height="24.44"/>
    </clipPath>
    <clipPath id="g">
      <rect class="an" x="494.74" y="180.13" width="77.67" height="24.44"/>
    </clipPath>
    <clipPath id="h">
      <rect class="an" x="494.74" y="180.13" width="77.67" height="24.44"/>
    </clipPath>
    <clipPath id="i">
      <rect class="an" x="414.48" y="204.08" width="77.67" height="24.44"/>
    </clipPath>
    <clipPath id="j">
      <rect class="an" x="414.48" y="204.08" width="77.67" height="24.44"/>
    </clipPath>
    <clipPath id="k">
      <rect class="an" x="335.35" y="228.03" width="76.53" height="24.44"/>
    </clipPath>
    <clipPath id="l">
      <rect class="an" x="335.35" y="228.04" width="76.53" height="24.44"/>
    </clipPath>
    <clipPath id="m">
      <rect class="an" x="255.09" y="204.08" width="77.67" height="24.44"/>
    </clipPath>
    <clipPath id="n">
      <rect class="an" x="255.09" y="204.08" width="77.67" height="24.44"/>
    </clipPath>
    <clipPath id="o">
      <rect class="an" x="174.82" y="180.13" width="77.67" height="24.44"/>
    </clipPath>
    <clipPath id="p">
      <rect class="an" x="174.82" y="180.13" width="77.67" height="24.44"/>
    </clipPath>
    <clipPath id="q">
      <rect class="an" x="575.01" y="156.18" width="77.67" height="24.44"/>
    </clipPath>
    <clipPath id="r">
      <rect class="an" x="575.01" y="156.18" width="77.67" height="24.44"/>
    </clipPath>
    <clipPath id="s">
      <rect class="an" x="576.15" y="18.29" width="77.67" height="24.44"/>
    </clipPath>
    <clipPath id="t">
      <rect class="an" x="576.15" y="18.3" width="77.67" height="24.44"/>
    </clipPath>
    <clipPath id="u">
      <rect class="an" x="173.68" y="42.25" width="77.67" height="24.44"/>
    </clipPath>
    <clipPath id="v">
      <rect class="an" x="173.68" y="42.25" width="77.67" height="24.44"/>
    </clipPath>
    <clipPath id="w">
      <rect class="an" x="253.94" y="66.2" width="77.67" height="24.44"/>
    </clipPath>
    <clipPath id="x">
      <rect class="an" x="253.94" y="66.2" width="77.67" height="24.44"/>
    </clipPath>
    <clipPath id="y">
      <rect class="an" x="334.21" y="90.15" width="78.82" height="12.4"/>
    </clipPath>
    <clipPath id="z">
      <rect class="an" x="334.21" y="90.15" width="78.82" height="12.4"/>
    </clipPath>
    <clipPath id="aa">
      <rect class="an" x="415.62" y="66.2" width="77.67" height="24.44"/>
    </clipPath>
    <clipPath id="ab">
      <rect class="an" x="415.62" y="66.2" width="77.67" height="24.44"/>
    </clipPath>
    <clipPath id="ac">
      <rect class="an" x="495.89" y="42.25" width="77.67" height="24.44"/>
    </clipPath>
    <clipPath id="ad">
      <rect class="an" x="495.89" y="42.25" width="77.67" height="24.44"/>
    </clipPath>
    <clipPath id="ae">
      <rect class="an" x="93.41" y="18.29" width="77.67" height="24.44"/>
    </clipPath>
    <clipPath id="af">
      <rect class="an" x="93.41" y="18.3" width="77.67" height="24.44"/>
    </clipPath>
    <clipPath id="ag">
      <rect class="an" x="13.62" y="4.5" width="720" height="260.34"/>
    </clipPath>
  </defs>
  <g class="bg">
    <g class="bq">
      <rect class="ap" x="94.76" y="18.5" width="76.11" height="161.91"/>
      <rect class="aj" x="415.83" y="66.41" width="76.11" height="161.91"/>
      <rect class="aj" x="255.29" y="66.41" width="76.11" height="161.91"/>
      <rect class="al" x="335.56" y="90.36" width="76.11" height="161.91"/>
      <rect class="ar" x="496.09" y="42.45" width="76.11" height="161.91"/>
      <rect class="ap" x="576.36" y="18.5" width="76.11" height="161.91"/>
      <rect class="ar" x="175.03" y="42.45" width="76.11" height="161.91"/>
      <g class="ax">
        <g class="bp">
          <g class="bh">
            <polygon class="ao" points="94.76 180.41 170.87 180.41 94.76 156.46 94.76 180.41"/>
            <g class="bi">
              <polygon class="bf" points="94.76 156.46 170.87 180.41 94.76 180.41 94.76 156.46"/>
            </g>
          </g>
        </g>
        <g class="bp">
          <g class="at">
            <polygon class="ao" points="496.09 204.36 572.21 204.36 572.21 180.41 496.09 204.36"/>
            <g class="bv">
              <polygon class="bf" points="572.21 180.41 496.09 204.37 572.21 204.37 572.21 180.41"/>
            </g>
          </g>
        </g>
        <g class="bp">
          <g class="be">
            <polygon class="ao" points="415.83 228.32 491.94 228.32 491.94 204.36 415.83 228.32"/>
            <g class="ai">
              <polygon class="bf" points="491.94 204.37 415.83 228.32 491.94 228.32 491.94 204.37"/>
            </g>
          </g>
        </g>
        <g class="bp">
          <g class="bo">
            <polygon class="ao" points="373.62 240.29 335.56 228.32 335.56 252.27 411.67 252.27 411.67 228.32 373.62 240.29"/>
            <g class="bj">
              <polygon class="bf" points="411.67 228.32 373.62 240.29 335.56 228.32 335.56 252.27 411.67 252.27 411.67 228.32"/>
            </g>
          </g>
        </g>
        <g class="bp">
          <g class="bc">
            <polygon class="ao" points="255.29 228.32 331.41 228.32 255.29 204.36 255.29 228.32"/>
            <g class="bm">
              <polygon class="bf" points="255.29 204.37 331.41 228.32 255.29 228.32 255.29 204.37"/>
            </g>
          </g>
        </g>
        <g class="bp">
          <g class="bk">
            <polygon class="ao" points="175.03 204.36 251.14 204.36 175.03 180.41 175.03 204.36"/>
            <g class="aw">
              <polygon class="bf" points="175.03 180.41 251.14 204.37 175.03 204.37 175.03 180.41"/>
            </g>
          </g>
        </g>
        <g class="bp">
          <g class="bn">
            <polygon class="ao" points="576.36 180.41 652.47 180.41 652.47 156.46 576.36 180.41"/>
            <g class="av">
              <polygon class="bf" points="652.47 156.46 576.36 180.41 652.47 180.41 652.47 156.46"/>
            </g>
          </g>
        </g>
        <g class="bp">
          <g class="bt">
            <polygon class="ao" points="576.36 18.5 576.36 42.46 652.47 18.5 576.36 18.5"/>
            <g class="as">
              <polygon class="bf" points="576.36 42.45 652.47 18.5 576.36 18.5 576.36 42.45"/>
            </g>
          </g>
        </g>
        <g class="bp">
          <g class="br">
            <polygon class="ao" points="175.03 42.45 251.14 66.41 251.14 42.45 175.03 42.45"/>
            <g class="bb">
              <polygon class="bf" points="251.14 66.41 175.03 42.45 251.14 42.45 251.14 66.41"/>
            </g>
          </g>
        </g>
        <g class="bp">
          <g class="bx">
            <polygon class="ao" points="255.29 66.41 331.41 90.36 331.41 66.41 255.29 66.41"/>
            <g class="bd">
              <polygon class="bf" points="331.41 90.36 255.29 66.41 331.41 66.41 331.41 90.36"/>
            </g>
          </g>
        </g>
        <g class="bp">
          <g class="bw">
            <polygon class="ao" points="335.56 90.36 373.62 102.34 411.67 90.36 335.56 90.36"/>
            <g class="au">
              <polygon class="bf" points="373.62 102.34 335.56 90.36 411.67 90.36 373.62 102.34"/>
            </g>
          </g>
        </g>
        <g class="bp">
          <g class="ba">
            <polygon class="ao" points="415.83 66.41 415.83 90.36 491.94 66.41 415.83 66.41"/>
            <g class="ay">
              <polygon class="bf" points="415.83 90.36 491.94 66.41 415.83 66.41 415.83 90.36"/>
            </g>
          </g>
        </g>
        <g class="bp">
          <g class="az">
            <polygon class="ao" points="496.09 42.45 496.09 66.41 572.21 42.45 496.09 42.45"/>
            <g class="ah">
              <polygon class="bf" points="496.09 66.41 572.21 42.45 496.09 42.45 496.09 66.41"/>
            </g>
          </g>
        </g>
        <g class="bp">
          <g class="bs">
            <polygon class="ao" points="94.76 18.5 170.87 42.46 170.87 18.5 94.76 18.5"/>
            <g class="bl">
              <polygon class="bf" points="170.87 42.45 94.76 18.5 170.87 18.5 170.87 42.45"/>
            </g>
          </g>
        </g>
      </g>
      <g>
        <path class="ao" d="M112.94,97.44c0-2.52,1.36-4.3,3.49-4.3,1.62,0,2.38,1.03,2.8,1.99l-1.38.61c-.25-.66-.74-1.12-1.42-1.12-1.1,0-1.77,1.18-1.77,2.82s.67,2.82,1.77,2.82c.71,0,1.2-.52,1.43-1.21l1.38.6c-.41,1-1.17,2.09-2.82,2.09-2.13,0-3.49-1.78-3.49-4.3Z"/>
        <path class="ao" d="M119.85,98.57c0-1.68.95-3.15,2.72-3.15s2.73,1.47,2.73,3.15-.94,3.17-2.73,3.17-2.72-1.47-2.72-3.17ZM123.75,98.57c0-.99-.36-1.83-1.18-1.83s-1.16.85-1.16,1.83.36,1.84,1.16,1.84,1.18-.85,1.18-1.84Z"/>
        <path class="ao" d="M129.71,97.62c0-.64-.29-.89-.79-.89s-.89.39-1.1.75v4.1h-1.5v-6.02h1.5v.79c.32-.47,1-.93,1.77-.93,1.11,0,1.61.65,1.61,1.65v4.53h-1.5v-3.96Z"/>
        <path class="ao" d="M135,95.42c.95,0,1.57.39,1.92.81l-.75,1.03c-.27-.34-.6-.52-1.01-.52-.86,0-1.37.79-1.37,1.83s.51,1.84,1.37,1.84c.41,0,.74-.19,1.01-.52l.75,1.03c-.35.42-.97.81-1.92.81-1.66,0-2.75-1.32-2.75-3.17s1.1-3.15,2.75-3.15Z"/>
        <path class="ao" d="M140.19,95.42c1.66,0,2.59,1.35,2.59,3.22v.42h-3.78c.06.82.55,1.47,1.46,1.47.46,0,.97-.21,1.31-.59l.69.9c-.54.59-1.35.9-2.16.9-1.7,0-2.8-1.27-2.8-3.17,0-1.75,1.02-3.15,2.69-3.15ZM139,98.03h2.33c-.03-.62-.3-1.41-1.17-1.41s-1.13.79-1.16,1.41Z"/>
        <path class="ao" d="M143.78,103.88v-8.32h1.5v.76c.37-.6.94-.91,1.52-.91,1.36,0,2.23,1.18,2.23,3.15s-.87,3.17-2.23,3.17c-.57,0-1.15-.29-1.52-.91v3.05h-1.5ZM146.31,96.74c-.4,0-.84.3-1.04.7v2.27c.2.39.64.71,1.04.71.77,0,1.17-.79,1.17-1.84s-.4-1.83-1.17-1.83Z"/>
        <path class="ao" d="M150.32,100.14v-3.27h-.79v-1.31h.79v-1.65h1.5v1.65h1v1.31h-1v2.92c0,.39.15.62.44.62.19,0,.37-.08.45-.17l.31,1.15c-.22.2-.61.35-1.16.35-1.05,0-1.53-.54-1.53-1.6Z"/>
      </g>
      <g>
        <path class="ao" d="M181.31,122.52h-.9v3.02h-1.67v-8.32h3.1c1.52,0,2.53,1.1,2.53,2.63,0,1.43-.76,2.16-1.45,2.38l1.51,3.3h-1.86l-1.27-3.02ZM181.6,118.68h-1.18v2.39h1.18c.65,0,1.07-.49,1.07-1.2s-.42-1.2-1.07-1.2Z"/>
        <path class="ao" d="M187.63,119.37c1.66,0,2.59,1.35,2.59,3.22v.42h-3.78c.06.82.55,1.47,1.46,1.47.46,0,.97-.21,1.31-.59l.69.9c-.54.59-1.35.9-2.16.9-1.7,0-2.8-1.27-2.8-3.17,0-1.75,1.02-3.15,2.69-3.15ZM186.44,121.98h2.33c-.03-.62-.3-1.41-1.17-1.41s-1.13.79-1.16,1.41Z"/>
        <path class="ao" d="M194.64,127.83v-3.05c-.36.62-.94.91-1.52.91-1.36,0-2.22-1.21-2.22-3.17s.86-3.15,2.22-3.15c.59,0,1.16.31,1.52.91v-.76h1.5v8.32h-1.5ZM194.64,121.39c-.19-.4-.62-.7-1.04-.7-.76,0-1.16.79-1.16,1.83s.4,1.84,1.16,1.84c.41,0,.85-.32,1.04-.71v-2.27Z"/>
        <path class="ao" d="M200.87,124.78c-.32.47-.99.91-1.77.91-1.11,0-1.61-.61-1.61-1.62v-4.55h1.5v3.98c0,.64.3.87.8.87s.87-.36,1.08-.74v-4.11h1.5v6.02h-1.5v-.76Z"/>
        <path class="ao" d="M203.56,117.73c0-.5.41-.91.9-.91s.9.41.9.91-.4.9-.9.9-.9-.4-.9-.9ZM203.71,119.52h1.5v6.02h-1.5v-6.02Z"/>
        <path class="ao" d="M206.55,119.52h1.5v.84c.34-.55,1-.97,1.65-.97v1.46c-.1-.02-.22-.04-.36-.04-.47,0-1.03.32-1.28.72v4.01h-1.5v-6.02Z"/>
        <path class="ao" d="M212.92,119.37c1.66,0,2.59,1.35,2.59,3.22v.42h-3.78c.06.82.55,1.47,1.46,1.47.46,0,.97-.21,1.31-.59l.69.9c-.54.59-1.35.9-2.16.9-1.7,0-2.8-1.27-2.8-3.17,0-1.75,1.02-3.15,2.69-3.15ZM211.74,121.98h2.33c-.03-.62-.3-1.41-1.17-1.41s-1.13.79-1.16,1.41Z"/>
        <path class="ao" d="M222.94,121.49c0-.5-.21-.8-.69-.8s-.85.41-1.03.75v4.1h-1.5v-4.05c0-.49-.2-.8-.69-.8s-.85.41-1.04.75v4.1h-1.5v-6.02h1.5v.79c.24-.41.94-.93,1.7-.93s1.3.36,1.46,1.05c.29-.52,1-1.05,1.76-1.05.92,0,1.52.49,1.52,1.6v4.58h-1.5v-4.05Z"/>
        <path class="ao" d="M228.16,119.37c1.66,0,2.59,1.35,2.59,3.22v.42h-3.78c.06.82.55,1.47,1.46,1.47.46,0,.97-.21,1.31-.59l.69.9c-.54.59-1.35.9-2.16.9-1.7,0-2.8-1.27-2.8-3.17,0-1.75,1.02-3.15,2.69-3.15ZM226.98,121.98h2.33c-.03-.62-.3-1.41-1.17-1.41s-1.13.79-1.16,1.41Z"/>
        <path class="ao" d="M235.13,121.57c0-.64-.29-.89-.79-.89s-.89.39-1.1.75v4.1h-1.5v-6.02h1.5v.79c.32-.47,1-.93,1.77-.93,1.11,0,1.61.65,1.61,1.65v4.53h-1.5v-3.96Z"/>
        <path class="ao" d="M238.24,124.09v-3.27h-.79v-1.31h.79v-1.65h1.5v1.65h1v1.31h-1v2.92c0,.39.15.62.44.62.19,0,.37-.08.45-.17l.31,1.15c-.22.2-.61.35-1.16.35-1.05,0-1.53-.54-1.53-1.6Z"/>
        <path class="ao" d="M241.87,123.78c.37.4,1.05.74,1.66.74.57,0,.88-.24.88-.62,0-.41-.46-.59-1.03-.77-.85-.27-1.95-.6-1.95-1.94,0-.97.79-1.81,2.19-1.81.86,0,1.57.31,2.09.77l-.6,1.01c-.3-.34-.86-.62-1.47-.62-.47,0-.8.22-.8.56,0,.36.41.54.97.71.87.27,2.02.64,2.02,2.02,0,1.08-.88,1.87-2.29,1.87-.97,0-1.81-.32-2.32-.86l.64-1.05Z"/>
      </g>
      <g>
        <path class="ao" d="M277.15,141.17h2.68c2.29,0,3.62,1.72,3.62,4.16s-1.31,4.15-3.62,4.15h-2.68v-8.32ZM279.83,148.02c1.23,0,1.91-1.1,1.91-2.68s-.65-2.69-1.91-2.69h-1.01v5.37h1.01Z"/>
        <path class="ao" d="M286.91,143.32c1.66,0,2.59,1.35,2.59,3.22v.42h-3.78c.06.82.55,1.47,1.46,1.47.46,0,.97-.21,1.31-.59l.69.9c-.54.59-1.35.9-2.16.9-1.7,0-2.8-1.27-2.8-3.17,0-1.75,1.02-3.15,2.69-3.15ZM285.72,145.93h2.33c-.03-.62-.3-1.41-1.17-1.41s-1.13.79-1.16,1.41Z"/>
        <path class="ao" d="M290.67,147.73c.37.4,1.05.74,1.66.74.57,0,.88-.24.88-.62,0-.41-.46-.59-1.03-.77-.85-.27-1.95-.6-1.95-1.94,0-.97.79-1.81,2.19-1.81.86,0,1.57.31,2.09.77l-.6,1.01c-.3-.34-.86-.62-1.47-.62-.47,0-.8.22-.8.56,0,.36.41.54.97.71.87.27,2.02.64,2.02,2.02,0,1.08-.88,1.87-2.29,1.87-.97,0-1.81-.32-2.32-.86l.64-1.05Z"/>
        <path class="ao" d="M295.48,141.68c0-.5.41-.91.9-.91s.9.41.9.91-.4.9-.9.9-.9-.4-.9-.9ZM295.62,143.47h1.5v6.02h-1.5v-6.02Z"/>
        <path class="ao" d="M299,150.01c.41.45.94.66,1.55.66.69,0,1.35-.36,1.35-1.42v-.74c-.37.6-.94.92-1.52.92-1.35,0-2.22-1.08-2.22-3.05s.87-3.07,2.22-3.07c.59,0,1.16.29,1.52.91v-.76h1.5v5.71c0,2.19-1.43,2.75-2.77,2.75-.89,0-1.6-.21-2.22-.77l.6-1.15ZM301.9,145.35c-.19-.4-.62-.71-1.04-.71-.76,0-1.16.7-1.16,1.75s.4,1.73,1.16,1.73c.41,0,.85-.31,1.04-.7v-2.07Z"/>
        <path class="ao" d="M308.13,145.52c0-.64-.29-.89-.79-.89s-.89.39-1.1.75v4.1h-1.5v-6.02h1.5v.79c.32-.47,1-.93,1.77-.93,1.11,0,1.61.65,1.61,1.65v4.53h-1.5v-3.96Z"/>
      </g>
      <g>
        <path class="ao" d="M342.16,165.12h2.68c2.29,0,3.62,1.72,3.62,4.16s-1.31,4.15-3.62,4.15h-2.68v-8.32ZM344.84,171.97c1.23,0,1.91-1.1,1.91-2.68s-.65-2.69-1.91-2.69h-1.01v5.37h1.01Z"/>
        <path class="ao" d="M351.91,167.27c1.66,0,2.59,1.35,2.59,3.22v.42h-3.78c.06.82.55,1.47,1.46,1.47.46,0,.97-.21,1.31-.59l.69.9c-.54.59-1.35.9-2.16.9-1.7,0-2.8-1.27-2.8-3.17,0-1.75,1.02-3.15,2.69-3.15ZM350.73,169.88h2.33c-.03-.62-.3-1.41-1.17-1.41s-1.13.79-1.16,1.41Z"/>
        <path class="ao" d="M354.8,167.42h1.6l1.21,4.23,1.22-4.23h1.6l-2.01,6.02h-1.61l-2.01-6.02Z"/>
        <path class="ao" d="M363.44,167.27c1.66,0,2.59,1.35,2.59,3.22v.42h-3.78c.06.82.55,1.47,1.46,1.47.46,0,.97-.21,1.31-.59l.69.9c-.54.59-1.35.9-2.16.9-1.7,0-2.8-1.27-2.8-3.17,0-1.75,1.02-3.15,2.69-3.15ZM362.25,169.88h2.33c-.03-.62-.3-1.41-1.17-1.41s-1.13.79-1.16,1.41Z"/>
        <path class="ao" d="M367.03,165.12h1.5v8.32h-1.5v-8.32Z"/>
        <path class="ao" d="M369.56,170.42c0-1.68.95-3.15,2.72-3.15s2.73,1.47,2.73,3.15-.94,3.17-2.73,3.17-2.72-1.47-2.72-3.17ZM373.46,170.42c0-.99-.36-1.83-1.18-1.83s-1.16.85-1.16,1.83.36,1.84,1.16,1.84,1.18-.85,1.18-1.84Z"/>
        <path class="ao" d="M376.04,175.73v-8.32h1.5v.76c.37-.6.94-.91,1.52-.91,1.36,0,2.23,1.18,2.23,3.15s-.87,3.17-2.23,3.17c-.57,0-1.15-.29-1.52-.91v3.05h-1.5ZM378.57,168.59c-.4,0-.84.3-1.04.7v2.27c.2.39.64.71,1.04.71.77,0,1.17-.79,1.17-1.84s-.4-1.83-1.17-1.83Z"/>
        <path class="ao" d="M388.75,169.39c0-.5-.21-.8-.69-.8s-.85.41-1.03.75v4.1h-1.5v-4.05c0-.49-.2-.8-.69-.8s-.85.41-1.04.75v4.1h-1.5v-6.02h1.5v.79c.24-.41.94-.93,1.7-.93s1.3.36,1.46,1.05c.29-.52,1-1.05,1.76-1.05.92,0,1.52.49,1.52,1.6v4.58h-1.5v-4.05Z"/>
        <path class="ao" d="M393.97,167.27c1.66,0,2.59,1.35,2.59,3.22v.42h-3.78c.06.82.55,1.47,1.46,1.47.46,0,.97-.21,1.31-.59l.69.9c-.54.59-1.35.9-2.16.9-1.7,0-2.8-1.27-2.8-3.17,0-1.75,1.02-3.15,2.69-3.15ZM392.78,169.88h2.33c-.03-.62-.3-1.41-1.17-1.41s-1.13.79-1.16,1.41Z"/>
        <path class="ao" d="M400.93,169.47c0-.64-.29-.89-.79-.89s-.89.39-1.1.75v4.1h-1.5v-6.02h1.5v.79c.32-.47,1-.93,1.77-.93,1.11,0,1.61.65,1.61,1.65v4.53h-1.5v-3.96Z"/>
        <path class="ao" d="M404.05,171.99v-3.27h-.79v-1.31h.79v-1.65h1.5v1.65h1v1.31h-1v2.92c0,.39.15.62.44.62.19,0,.37-.08.45-.17l.31,1.15c-.22.2-.61.35-1.16.35-1.05,0-1.53-.54-1.53-1.6Z"/>
      </g>
      <g>
        <path class="ao" d="M511,117.08c2.18,0,3.48,1.83,3.48,4.3s-1.3,4.3-3.48,4.3-3.47-1.82-3.47-4.3,1.3-4.3,3.47-4.3ZM511,118.57c-1.13,0-1.75,1.21-1.75,2.82s.61,2.82,1.75,2.82,1.77-1.23,1.77-2.82-.62-2.82-1.77-2.82Z"/>
        <path class="ao" d="M515.56,127.83v-8.32h1.5v.76c.37-.6.94-.91,1.52-.91,1.36,0,2.23,1.18,2.23,3.15s-.87,3.17-2.23,3.17c-.57,0-1.15-.29-1.52-.91v3.05h-1.5ZM518.09,120.69c-.4,0-.84.3-1.04.7v2.27c.2.39.64.71,1.04.71.77,0,1.17-.79,1.17-1.84s-.4-1.83-1.17-1.83Z"/>
        <path class="ao" d="M524.22,119.37c1.66,0,2.59,1.35,2.59,3.22v.42h-3.78c.06.82.55,1.47,1.46,1.47.46,0,.97-.21,1.31-.59l.69.9c-.54.59-1.35.9-2.16.9-1.7,0-2.8-1.27-2.8-3.17,0-1.75,1.02-3.15,2.69-3.15ZM523.04,121.98h2.33c-.03-.62-.3-1.41-1.17-1.41s-1.13.79-1.16,1.41Z"/>
        <path class="ao" d="M527.81,119.52h1.5v.84c.34-.55,1-.97,1.65-.97v1.46c-.1-.02-.22-.04-.36-.04-.47,0-1.03.32-1.28.72v4.01h-1.5v-6.02Z"/>
        <path class="ao" d="M534.92,124.94c-.34.47-.97.75-1.58.75-.95,0-1.86-.71-1.86-1.99s.91-1.95,1.86-1.95c.62,0,1.26.24,1.58.71v-.8c0-.65-.4-1.05-1.11-1.05-.52,0-1.04.21-1.48.65l-.56-1.02c.64-.61,1.55-.87,2.32-.87,1.31,0,2.34.59,2.34,2.13v4.04h-1.51v-.6ZM534.92,123.33c-.2-.36-.6-.59-1.01-.59-.56,0-.94.4-.94.97s.37.96.94.96c.41,0,.81-.2,1.01-.57v-.77Z"/>
        <path class="ao" d="M538.03,124.09v-3.27h-.79v-1.31h.79v-1.65h1.5v1.65h1v1.31h-1v2.92c0,.39.15.62.44.62.19,0,.37-.08.45-.17l.31,1.15c-.22.2-.61.35-1.16.35-1.05,0-1.53-.54-1.53-1.6Z"/>
        <path class="ao" d="M541.33,117.73c0-.5.41-.91.9-.91s.9.41.9.91-.4.9-.9.9-.9-.4-.9-.9ZM541.48,119.52h1.5v6.02h-1.5v-6.02Z"/>
        <path class="ao" d="M544.01,122.52c0-1.68.95-3.15,2.72-3.15s2.73,1.47,2.73,3.15-.94,3.17-2.73,3.17-2.72-1.47-2.72-3.17ZM547.91,122.52c0-.99-.36-1.83-1.18-1.83s-1.16.85-1.16,1.83.36,1.84,1.16,1.84,1.18-.85,1.18-1.84Z"/>
        <path class="ao" d="M553.87,121.57c0-.64-.29-.89-.79-.89s-.89.39-1.1.75v4.1h-1.5v-6.02h1.5v.79c.32-.47,1-.93,1.77-.93,1.11,0,1.61.65,1.61,1.65v4.53h-1.5v-3.96Z"/>
        <path class="ao" d="M556.89,123.78c.37.4,1.05.74,1.66.74.57,0,.88-.24.88-.62,0-.41-.46-.59-1.03-.77-.85-.27-1.95-.6-1.95-1.94,0-.97.79-1.81,2.19-1.81.86,0,1.57.31,2.09.77l-.6,1.01c-.3-.34-.86-.62-1.47-.62-.47,0-.8.22-.8.56,0,.36.41.54.97.71.87.27,2.02.64,2.02,2.02,0,1.08-.88,1.87-2.29,1.87-.97,0-1.81-.32-2.32-.86l.64-1.05Z"/>
      </g>
      <g>
        <path class="ao" d="M528.71,139.89c-.34.47-.97.75-1.58.75-.95,0-1.86-.71-1.86-1.99s.91-1.95,1.86-1.95c.62,0,1.26.24,1.58.71v-.8c0-.65-.4-1.05-1.11-1.05-.52,0-1.04.21-1.48.65l-.56-1.02c.64-.61,1.55-.87,2.32-.87,1.31,0,2.34.59,2.34,2.13v4.04h-1.51v-.6ZM528.71,138.28c-.2-.36-.6-.59-1.01-.59-.56,0-.94.4-.94.97s.37.96.94.96c.41,0,.81-.2,1.01-.57v-.77Z"/>
        <path class="ao" d="M534.94,136.53c0-.64-.29-.89-.79-.89s-.89.39-1.1.75v4.1h-1.5v-6.02h1.5v.79c.32-.47,1-.93,1.77-.93,1.11,0,1.61.65,1.61,1.65v4.53h-1.5v-3.96Z"/>
        <path class="ao" d="M541.23,139.73c-.37.6-.95.91-1.52.91-1.36,0-2.23-1.18-2.23-3.15s.87-3.17,2.23-3.17c.57,0,1.15.29,1.52.91v-3.05h1.5v8.32h-1.5v-.76ZM541.23,136.35c-.2-.4-.64-.71-1.05-.71-.76,0-1.16.79-1.16,1.84s.4,1.83,1.16,1.83c.41,0,.85-.31,1.05-.71v-2.26Z"/>
      </g>
      <g>
        <path class="ao" d="M509.2,149.73l-1.87,5.71h-.69l-1.84-5.71v5.71h-1.66v-8.32h2.24l1.61,4.99,1.62-4.99h2.23v8.32h-1.65v-5.71Z"/>
        <path class="ao" d="M515.35,154.84c-.34.47-.97.75-1.58.75-.95,0-1.86-.71-1.86-1.99s.91-1.95,1.86-1.95c.62,0,1.26.24,1.58.71v-.8c0-.65-.4-1.05-1.11-1.05-.52,0-1.04.21-1.48.65l-.56-1.02c.64-.61,1.55-.87,2.32-.87,1.31,0,2.34.59,2.34,2.13v4.04h-1.51v-.6ZM515.35,153.24c-.2-.36-.6-.59-1.01-.59-.56,0-.94.4-.94.97s.37.96.94.96c.41,0,.81-.2,1.01-.57v-.77Z"/>
        <path class="ao" d="M518.05,147.64c0-.5.41-.91.9-.91s.9.41.9.91-.4.9-.9.9-.9-.4-.9-.9ZM518.2,149.42h1.5v6.02h-1.5v-6.02Z"/>
        <path class="ao" d="M524.42,151.48c0-.64-.29-.89-.79-.89s-.89.39-1.1.75v4.1h-1.5v-6.02h1.5v.79c.32-.47,1-.93,1.77-.93,1.11,0,1.61.65,1.61,1.65v4.53h-1.5v-3.96Z"/>
        <path class="ao" d="M527.54,154v-3.27h-.79v-1.31h.79v-1.65h1.5v1.65h1v1.31h-1v2.92c0,.39.15.62.44.62.19,0,.37-.08.45-.17l.31,1.15c-.22.2-.61.35-1.16.35-1.05,0-1.53-.54-1.53-1.6Z"/>
        <path class="ao" d="M533.37,149.27c1.66,0,2.59,1.35,2.59,3.22v.42h-3.78c.06.82.55,1.47,1.46,1.47.46,0,.97-.21,1.31-.59l.69.9c-.54.59-1.35.9-2.16.9-1.7,0-2.8-1.27-2.8-3.17,0-1.75,1.02-3.15,2.69-3.15ZM532.19,151.89h2.33c-.03-.62-.3-1.41-1.17-1.41s-1.13.79-1.16,1.41Z"/>
        <path class="ao" d="M540.34,151.48c0-.64-.29-.89-.79-.89s-.89.39-1.1.75v4.1h-1.5v-6.02h1.5v.79c.32-.47,1-.93,1.77-.93,1.11,0,1.61.65,1.61,1.65v4.53h-1.5v-3.96Z"/>
        <path class="ao" d="M546.31,154.84c-.34.47-.97.75-1.58.75-.95,0-1.86-.71-1.86-1.99s.91-1.95,1.86-1.95c.62,0,1.26.24,1.58.71v-.8c0-.65-.4-1.05-1.11-1.05-.52,0-1.04.21-1.48.65l-.56-1.02c.64-.61,1.55-.87,2.32-.87,1.31,0,2.34.59,2.34,2.13v4.04h-1.51v-.6ZM546.31,153.24c-.2-.36-.6-.59-1.01-.59-.56,0-.94.4-.94.97s.37.96.94.96c.41,0,.81-.2,1.01-.57v-.77Z"/>
        <path class="ao" d="M552.54,151.48c0-.64-.29-.89-.79-.89s-.89.39-1.1.75v4.1h-1.5v-6.02h1.5v.79c.32-.47,1-.93,1.77-.93,1.11,0,1.61.65,1.61,1.65v4.53h-1.5v-3.96Z"/>
        <path class="ao" d="M557.83,149.27c.95,0,1.57.39,1.92.81l-.75,1.03c-.27-.34-.6-.52-1.01-.52-.86,0-1.37.79-1.37,1.83s.51,1.84,1.37,1.84c.41,0,.74-.19,1.01-.52l.75,1.03c-.35.42-.97.81-1.92.81-1.66,0-2.75-1.32-2.75-3.17s1.1-3.15,2.75-3.15Z"/>
        <path class="ao" d="M563.02,149.27c1.66,0,2.59,1.35,2.59,3.22v.42h-3.78c.06.82.55,1.47,1.46,1.47.46,0,.97-.21,1.31-.59l.69.9c-.54.59-1.35.9-2.16.9-1.7,0-2.8-1.27-2.8-3.17,0-1.75,1.02-3.15,2.69-3.15ZM561.83,151.89h2.33c-.03-.62-.3-1.41-1.17-1.41s-1.13.79-1.16,1.41Z"/>
      </g>
      <g>
        <path class="ao" d="M590.63,98.57h-.9v3.02h-1.67v-8.32h3.1c1.52,0,2.53,1.1,2.53,2.63,0,1.43-.76,2.16-1.45,2.38l1.51,3.3h-1.86l-1.27-3.02ZM590.92,94.73h-1.18v2.39h1.18c.65,0,1.07-.49,1.07-1.2s-.42-1.2-1.07-1.2Z"/>
        <path class="ao" d="M596.95,95.42c1.66,0,2.59,1.35,2.59,3.22v.42h-3.78c.06.82.55,1.47,1.46,1.47.46,0,.97-.21,1.31-.59l.69.9c-.54.59-1.35.9-2.16.9-1.7,0-2.8-1.27-2.8-3.17,0-1.75,1.02-3.15,2.69-3.15ZM595.76,98.03h2.33c-.03-.62-.3-1.41-1.17-1.41s-1.13.79-1.16,1.41Z"/>
        <path class="ao" d="M600.79,100.14v-3.27h-.79v-1.31h.79v-1.65h1.5v1.65h1v1.31h-1v2.92c0,.39.15.62.44.62.19,0,.37-.08.45-.17l.31,1.15c-.22.2-.61.35-1.16.35-1.05,0-1.53-.54-1.53-1.6Z"/>
        <path class="ao" d="M604.1,93.78c0-.5.41-.91.9-.91s.9.41.9.91-.4.9-.9.9-.9-.4-.9-.9ZM604.25,95.57h1.5v6.02h-1.5v-6.02Z"/>
        <path class="ao" d="M607.09,95.57h1.5v.83c.34-.55,1-.97,1.65-.97v1.46c-.1-.02-.22-.04-.36-.04-.47,0-1.03.32-1.28.72v4.01h-1.5v-6.02Z"/>
        <path class="ao" d="M613.46,95.42c1.66,0,2.59,1.35,2.59,3.22v.42h-3.78c.06.82.55,1.47,1.46,1.47.46,0,.97-.21,1.31-.59l.69.9c-.54.59-1.35.9-2.16.9-1.7,0-2.8-1.27-2.8-3.17,0-1.75,1.02-3.15,2.69-3.15ZM612.27,98.03h2.33c-.03-.62-.3-1.41-1.17-1.41s-1.13.79-1.16,1.41Z"/>
        <path class="ao" d="M623.48,97.54c0-.5-.21-.8-.69-.8s-.85.41-1.03.75v4.1h-1.5v-4.05c0-.49-.2-.8-.69-.8s-.85.41-1.04.75v4.1h-1.5v-6.02h1.5v.79c.24-.41.94-.93,1.7-.93s1.3.36,1.46,1.05c.29-.52,1-1.05,1.76-1.05.92,0,1.52.49,1.52,1.6v4.58h-1.5v-4.05Z"/>
        <path class="ao" d="M628.7,95.42c1.66,0,2.59,1.35,2.59,3.22v.42h-3.78c.06.82.55,1.47,1.46,1.47.46,0,.97-.21,1.31-.59l.69.9c-.54.59-1.35.9-2.16.9-1.7,0-2.8-1.27-2.8-3.17,0-1.75,1.02-3.15,2.69-3.15ZM627.51,98.03h2.33c-.03-.62-.3-1.41-1.17-1.41s-1.13.79-1.16,1.41Z"/>
        <path class="ao" d="M635.66,97.62c0-.64-.29-.89-.79-.89s-.89.39-1.1.75v4.1h-1.5v-6.02h1.5v.79c.32-.47,1-.93,1.77-.93,1.11,0,1.61.65,1.61,1.65v4.53h-1.5v-3.96Z"/>
        <path class="ao" d="M638.78,100.14v-3.27h-.79v-1.31h.79v-1.65h1.5v1.65h1v1.31h-1v2.92c0,.39.15.62.44.62.19,0,.37-.08.45-.17l.31,1.15c-.22.2-.61.35-1.16.35-1.05,0-1.53-.54-1.53-1.6Z"/>
      </g>
      <g>
        <path class="ao" d="M608.98,115.94c-.34.47-.97.75-1.58.75-.95,0-1.86-.71-1.86-1.99s.91-1.95,1.86-1.95c.62,0,1.26.24,1.58.71v-.8c0-.65-.4-1.05-1.11-1.05-.52,0-1.04.21-1.48.65l-.56-1.02c.64-.61,1.55-.87,2.32-.87,1.31,0,2.34.59,2.34,2.13v4.04h-1.51v-.6ZM608.98,114.33c-.2-.36-.6-.58-1.01-.58-.56,0-.94.4-.94.97s.37.96.94.96c.41,0,.81-.2,1.01-.57v-.77Z"/>
        <path class="ao" d="M615.21,112.58c0-.64-.29-.89-.79-.89s-.89.39-1.1.75v4.1h-1.5v-6.02h1.5v.79c.32-.47,1-.93,1.77-.93,1.11,0,1.61.65,1.61,1.65v4.53h-1.5v-3.96Z"/>
        <path class="ao" d="M621.51,115.78c-.37.6-.95.91-1.52.91-1.36,0-2.23-1.18-2.23-3.15s.87-3.17,2.23-3.17c.57,0,1.15.29,1.52.91v-3.05h1.5v8.32h-1.5v-.76ZM621.51,112.4c-.2-.4-.64-.71-1.05-.71-.76,0-1.16.79-1.16,1.84s.4,1.83,1.16,1.83c.41,0,.85-.31,1.05-.71v-2.26Z"/>
      </g>
      <g>
        <path class="ao" d="M585.73,128.48h-.9v3.02h-1.67v-8.32h3.1c1.52,0,2.53,1.1,2.53,2.63,0,1.43-.76,2.16-1.45,2.38l1.51,3.3h-1.86l-1.27-3.02ZM586.02,124.64h-1.18v2.39h1.18c.65,0,1.07-.49,1.07-1.2s-.42-1.2-1.07-1.2Z"/>
        <path class="ao" d="M592.05,125.32c1.66,0,2.59,1.35,2.59,3.22v.42h-3.78c.06.82.55,1.47,1.46,1.47.46,0,.97-.21,1.31-.59l.69.9c-.54.59-1.35.9-2.16.9-1.7,0-2.8-1.27-2.8-3.17,0-1.75,1.02-3.15,2.69-3.15ZM590.87,127.94h2.33c-.03-.62-.3-1.41-1.17-1.41s-1.13.79-1.16,1.41Z"/>
        <path class="ao" d="M595.64,133.79v-8.32h1.5v.76c.37-.6.94-.91,1.52-.91,1.36,0,2.23,1.18,2.23,3.15s-.87,3.17-2.23,3.17c-.57,0-1.15-.29-1.52-.91v3.05h-1.5ZM598.17,126.64c-.4,0-.84.3-1.04.7v2.27c.2.39.64.71,1.04.71.77,0,1.17-.79,1.17-1.84s-.4-1.83-1.17-1.83Z"/>
        <path class="ao" d="M601.92,123.18h1.5v8.32h-1.5v-8.32Z"/>
        <path class="ao" d="M607.88,130.9c-.34.47-.97.75-1.58.75-.95,0-1.86-.71-1.86-1.99s.91-1.95,1.86-1.95c.62,0,1.26.24,1.58.71v-.8c0-.65-.4-1.05-1.11-1.05-.52,0-1.04.21-1.48.65l-.56-1.02c.64-.61,1.55-.87,2.32-.87,1.31,0,2.34.59,2.34,2.13v4.04h-1.51v-.6ZM607.88,129.29c-.2-.36-.6-.59-1.01-.59-.56,0-.94.4-.94.97s.37.96.94.96c.41,0,.81-.2,1.01-.57v-.77Z"/>
        <path class="ao" d="M613.17,125.32c.95,0,1.57.39,1.92.81l-.75,1.03c-.27-.34-.6-.52-1.01-.52-.86,0-1.37.79-1.37,1.83s.51,1.84,1.37,1.84c.41,0,.74-.19,1.01-.52l.75,1.03c-.35.42-.97.81-1.92.81-1.66,0-2.75-1.32-2.75-3.17s1.1-3.15,2.75-3.15Z"/>
        <path class="ao" d="M618.35,125.32c1.66,0,2.59,1.35,2.59,3.22v.42h-3.78c.06.82.55,1.47,1.46,1.47.46,0,.97-.21,1.31-.59l.69.9c-.54.59-1.35.9-2.16.9-1.7,0-2.8-1.27-2.8-3.17,0-1.75,1.02-3.15,2.69-3.15ZM617.17,127.94h2.33c-.03-.62-.3-1.41-1.17-1.41s-1.13.79-1.16,1.41Z"/>
        <path class="ao" d="M628.37,127.44c0-.5-.21-.8-.69-.8s-.85.41-1.03.75v4.1h-1.5v-4.05c0-.49-.2-.8-.69-.8s-.85.41-1.04.75v4.1h-1.5v-6.02h1.5v.79c.24-.41.94-.93,1.7-.93s1.3.36,1.46,1.05c.29-.52,1-1.05,1.76-1.05.92,0,1.52.49,1.52,1.6v4.58h-1.5v-4.05Z"/>
        <path class="ao" d="M633.59,125.32c1.66,0,2.59,1.35,2.59,3.22v.42h-3.78c.06.82.55,1.47,1.46,1.47.46,0,.97-.21,1.31-.59l.69.9c-.54.59-1.35.9-2.16.9-1.7,0-2.8-1.27-2.8-3.17,0-1.75,1.02-3.15,2.69-3.15ZM632.41,127.94h2.33c-.03-.62-.3-1.41-1.17-1.41s-1.13.79-1.16,1.41Z"/>
        <path class="ao" d="M640.56,127.53c0-.64-.29-.89-.79-.89s-.89.39-1.1.75v4.1h-1.5v-6.02h1.5v.79c.32-.47,1-.93,1.77-.93,1.11,0,1.61.65,1.61,1.65v4.53h-1.5v-3.96Z"/>
        <path class="ao" d="M643.67,130.05v-3.27h-.79v-1.31h.79v-1.65h1.5v1.65h1v1.31h-1v2.92c0,.39.15.62.44.62.19,0,.37-.08.45-.17l.31,1.15c-.22.2-.61.35-1.16.35-1.05,0-1.53-.54-1.53-1.6Z"/>
      </g>
      <g>
        <path class="ao" d="M435.69,132.35h-1.86v-1.47h5.37v1.47h-1.84v6.84h-1.67v-6.84Z"/>
        <path class="ao" d="M441.61,133.02c1.66,0,2.59,1.35,2.59,3.22v.42h-3.78c.06.82.55,1.47,1.46,1.47.46,0,.97-.21,1.31-.59l.69.9c-.54.59-1.35.9-2.16.9-1.7,0-2.8-1.27-2.8-3.17,0-1.75,1.02-3.15,2.69-3.15ZM440.42,135.64h2.33c-.03-.62-.3-1.41-1.17-1.41s-1.13.79-1.16,1.41Z"/>
        <path class="ao" d="M445.37,137.44c.37.4,1.05.74,1.66.74.57,0,.88-.24.88-.62,0-.41-.46-.59-1.03-.77-.85-.27-1.95-.6-1.95-1.94,0-.97.79-1.81,2.19-1.81.86,0,1.57.31,2.09.77l-.6,1.01c-.3-.34-.86-.62-1.47-.62-.47,0-.8.22-.8.56,0,.36.41.54.97.71.87.27,2.02.64,2.02,2.02,0,1.08-.88,1.87-2.29,1.87-.97,0-1.81-.32-2.32-.86l.64-1.05Z"/>
        <path class="ao" d="M450.59,137.75v-3.27h-.79v-1.31h.79v-1.65h1.5v1.65h1v1.31h-1v2.92c0,.39.15.62.44.62.19,0,.37-.08.45-.17l.31,1.15c-.22.2-.61.35-1.16.35-1.05,0-1.53-.54-1.53-1.6Z"/>
        <path class="ao" d="M453.89,131.39c0-.5.41-.91.9-.91s.9.41.9.91-.4.9-.9.9-.9-.4-.9-.9ZM454.04,133.17h1.5v6.02h-1.5v-6.02Z"/>
        <path class="ao" d="M460.26,135.23c0-.64-.29-.89-.79-.89s-.89.39-1.1.75v4.1h-1.5v-6.02h1.5v.79c.32-.47,1-.93,1.77-.93,1.11,0,1.61.65,1.61,1.65v4.53h-1.5v-3.96Z"/>
        <path class="ao" d="M463.65,139.72c.41.45.94.66,1.55.66.69,0,1.35-.36,1.35-1.42v-.74c-.37.6-.94.92-1.52.92-1.35,0-2.22-1.08-2.22-3.05s.87-3.07,2.22-3.07c.59,0,1.16.29,1.52.91v-.76h1.5v5.71c0,2.19-1.43,2.75-2.77,2.75-.89,0-1.6-.21-2.22-.77l.6-1.15ZM466.54,135.06c-.19-.4-.62-.71-1.04-.71-.76,0-1.16.7-1.16,1.75s.4,1.73,1.16,1.73c.41,0,.85-.31,1.04-.7v-2.07Z"/>
        <path class="ao" d="M469.43,140.35c.4-.22.83-.74.93-1.17-.04.01-.14.04-.22.04-.46,0-.82-.36-.82-.87s.44-.95.95-.95c.56,0,1.06.45,1.06,1.23,0,.91-.5,1.72-1.25,2.26l-.65-.54Z"/>
      </g>
      <g>
        <path class="ao" d="M423.23,145.83h1.81l1.67,6.35,1.66-6.35h1.82l-2.47,8.32h-2.02l-2.47-8.32Z"/>
        <path class="ao" d="M432.69,147.98c1.66,0,2.59,1.35,2.59,3.22v.42h-3.78c.06.82.55,1.47,1.46,1.47.46,0,.97-.21,1.31-.59l.69.9c-.54.59-1.35.9-2.16.9-1.7,0-2.8-1.27-2.8-3.17,0-1.75,1.02-3.15,2.69-3.15ZM431.5,150.59h2.33c-.03-.62-.3-1.41-1.17-1.41s-1.13.79-1.16,1.41Z"/>
        <path class="ao" d="M436.27,148.13h1.5v.83c.34-.55,1-.97,1.65-.97v1.46c-.1-.02-.22-.04-.36-.04-.47,0-1.03.32-1.28.72v4.01h-1.5v-6.02Z"/>
        <path class="ao" d="M440.11,146.34c0-.5.41-.91.9-.91s.9.41.9.91-.4.9-.9.9-.9-.4-.9-.9ZM440.26,148.13h1.5v6.02h-1.5v-6.02Z"/>
        <path class="ao" d="M443.38,149.44h-.77v-1.31h.77v-.47c0-1.23.71-1.94,1.76-1.94.41,0,.74.07,1,.21l-.27,1.13c-.09-.07-.21-.11-.37-.11-.36,0-.6.25-.6.71v.47h.98v1.31h-.98v4.71h-1.51v-4.71ZM446.54,146.34c0-.5.41-.91.9-.91s.9.41.9.91-.4.9-.9.9-.9-.4-.9-.9ZM446.69,148.13h1.5v6.02h-1.5v-6.02Z"/>
        <path class="ao" d="M451.99,147.98c.95,0,1.57.39,1.92.81l-.75,1.03c-.27-.34-.6-.52-1.01-.52-.86,0-1.37.79-1.37,1.83s.51,1.84,1.37,1.84c.41,0,.74-.19,1.01-.52l.75,1.03c-.35.42-.97.81-1.92.81-1.66,0-2.75-1.32-2.75-3.17s1.1-3.15,2.75-3.15Z"/>
        <path class="ao" d="M457.91,153.55c-.34.47-.97.75-1.58.75-.95,0-1.86-.71-1.86-1.99s.91-1.95,1.86-1.95c.62,0,1.26.24,1.58.71v-.8c0-.65-.4-1.05-1.11-1.05-.52,0-1.04.21-1.48.65l-.56-1.02c.64-.61,1.55-.87,2.32-.87,1.31,0,2.34.59,2.34,2.13v4.04h-1.51v-.6ZM457.91,151.94c-.2-.36-.6-.58-1.01-.58-.56,0-.94.4-.94.97s.37.96.94.96c.41,0,.81-.2,1.01-.57v-.77Z"/>
        <path class="ao" d="M461.02,152.7v-3.27h-.79v-1.31h.79v-1.65h1.5v1.65h1v1.31h-1v2.92c0,.39.15.62.44.62.19,0,.37-.08.45-.17l.31,1.15c-.22.2-.61.35-1.16.35-1.05,0-1.53-.54-1.53-1.6Z"/>
        <path class="ao" d="M464.32,146.34c0-.5.41-.91.9-.91s.9.41.9.91-.4.9-.9.9-.9-.4-.9-.9ZM464.47,148.13h1.5v6.02h-1.5v-6.02Z"/>
        <path class="ao" d="M467,151.13c0-1.68.95-3.15,2.72-3.15s2.73,1.47,2.73,3.15-.94,3.17-2.73,3.17-2.72-1.47-2.72-3.17ZM470.9,151.13c0-.99-.36-1.83-1.18-1.83s-1.16.85-1.16,1.83.36,1.84,1.16,1.84,1.18-.85,1.18-1.84Z"/>
        <path class="ao" d="M476.86,150.18c0-.64-.29-.89-.79-.89s-.89.39-1.1.75v4.1h-1.5v-6.02h1.5v.79c.32-.47,1-.93,1.77-.93,1.11,0,1.61.65,1.61,1.65v4.53h-1.5v-3.96Z"/>
        <path class="ao" d="M479.75,155.31c.4-.22.83-.74.93-1.17-.04.01-.14.04-.22.04-.46,0-.82-.36-.82-.87s.44-.95.95-.95c.56,0,1.06.45,1.06,1.23,0,.91-.5,1.72-1.25,2.26l-.65-.54Z"/>
      </g>
      <g>
        <path class="ao" d="M426.53,160.79h1.81l1.67,6.35,1.66-6.35h1.82l-2.47,8.32h-2.02l-2.47-8.32Z"/>
        <path class="ao" d="M436.67,168.5c-.34.47-.97.75-1.58.75-.95,0-1.86-.71-1.86-1.99s.91-1.95,1.86-1.95c.62,0,1.26.24,1.58.71v-.8c0-.65-.4-1.05-1.11-1.05-.52,0-1.04.21-1.48.65l-.56-1.02c.64-.61,1.55-.87,2.32-.87,1.31,0,2.34.59,2.34,2.13v4.04h-1.51v-.6ZM436.67,166.89c-.2-.36-.6-.58-1.01-.58-.56,0-.94.4-.94.97s.37.96.94.96c.41,0,.81-.2,1.01-.57v-.77Z"/>
        <path class="ao" d="M439.53,160.79h1.5v8.32h-1.5v-8.32Z"/>
        <path class="ao" d="M442.22,161.3c0-.5.41-.91.9-.91s.9.41.9.91-.4.9-.9.9-.9-.4-.9-.9ZM442.37,163.08h1.5v6.02h-1.5v-6.02Z"/>
        <path class="ao" d="M448.65,168.34c-.37.6-.95.91-1.52.91-1.36,0-2.23-1.18-2.23-3.15s.87-3.17,2.23-3.17c.57,0,1.15.29,1.52.91v-3.05h1.5v8.32h-1.5v-.76ZM448.65,164.96c-.2-.4-.64-.71-1.05-.71-.76,0-1.16.79-1.16,1.84s.4,1.83,1.16,1.83c.41,0,.85-.31,1.05-.71v-2.26Z"/>
        <path class="ao" d="M454.6,168.5c-.34.47-.97.75-1.58.75-.95,0-1.86-.71-1.86-1.99s.91-1.95,1.86-1.95c.62,0,1.26.24,1.58.71v-.8c0-.65-.4-1.05-1.11-1.05-.52,0-1.04.21-1.48.65l-.56-1.02c.64-.61,1.55-.87,2.32-.87,1.31,0,2.34.59,2.34,2.13v4.04h-1.51v-.6ZM454.6,166.89c-.2-.36-.6-.58-1.01-.58-.56,0-.94.4-.94.97s.37.96.94.96c.41,0,.81-.2,1.01-.57v-.77Z"/>
        <path class="ao" d="M457.72,167.65v-3.27h-.79v-1.31h.79v-1.65h1.5v1.65h1v1.31h-1v2.92c0,.39.15.62.44.62.19,0,.37-.08.45-.17l.31,1.15c-.22.2-.61.35-1.16.35-1.05,0-1.53-.54-1.53-1.6Z"/>
        <path class="ao" d="M461.02,161.3c0-.5.41-.91.9-.91s.9.41.9.91-.4.9-.9.9-.9-.4-.9-.9ZM461.17,163.08h1.5v6.02h-1.5v-6.02Z"/>
        <path class="ao" d="M463.7,166.08c0-1.68.95-3.15,2.72-3.15s2.73,1.47,2.73,3.15-.94,3.17-2.73,3.17-2.72-1.47-2.72-3.17ZM467.6,166.08c0-.99-.36-1.83-1.18-1.83s-1.16.85-1.16,1.83.36,1.84,1.16,1.84,1.18-.85,1.18-1.84Z"/>
        <path class="ao" d="M473.56,165.14c0-.64-.29-.89-.79-.89s-.89.39-1.1.75v4.1h-1.5v-6.02h1.5v.79c.32-.47,1-.93,1.77-.93,1.11,0,1.61.65,1.61,1.65v4.53h-1.5v-3.96Z"/>
        <path class="ao" d="M476.45,170.26c.4-.22.83-.74.93-1.17-.04.01-.14.04-.22.04-.46,0-.82-.36-.82-.87s.44-.95.95-.95c.56,0,1.06.45,1.06,1.23,0,.91-.5,1.72-1.25,2.26l-.65-.54Z"/>
      </g>
      <g>
        <path class="ao" d="M447.25,183.46c-.34.47-.97.75-1.58.75-.95,0-1.86-.71-1.86-1.99s.91-1.95,1.86-1.95c.62,0,1.26.24,1.58.71v-.8c0-.65-.4-1.05-1.11-1.05-.52,0-1.04.21-1.48.65l-.56-1.02c.64-.61,1.55-.87,2.32-.87,1.31,0,2.34.59,2.34,2.13v4.04h-1.51v-.6ZM447.25,181.85c-.2-.36-.6-.59-1.01-.59-.56,0-.94.4-.94.97s.37.96.94.96c.41,0,.81-.2,1.01-.57v-.77Z"/>
        <path class="ao" d="M453.48,180.09c0-.64-.29-.89-.79-.89s-.89.39-1.1.75v4.1h-1.5v-6.02h1.5v.79c.32-.47,1-.93,1.77-.93,1.11,0,1.61.65,1.61,1.65v4.53h-1.5v-3.96Z"/>
        <path class="ao" d="M459.78,183.29c-.37.6-.95.91-1.52.91-1.36,0-2.23-1.18-2.23-3.15s.87-3.17,2.23-3.17c.57,0,1.15.29,1.52.91v-3.05h1.5v8.32h-1.5v-.76ZM459.78,179.92c-.2-.4-.64-.71-1.05-.71-.76,0-1.16.79-1.16,1.84s.4,1.83,1.16,1.83c.41,0,.85-.31,1.05-.71v-2.26Z"/>
      </g>
      <g>
        <path class="ao" d="M423.73,190.69h2.68c2.29,0,3.62,1.72,3.62,4.16s-1.31,4.15-3.62,4.15h-2.68v-8.32ZM426.41,197.54c1.23,0,1.91-1.1,1.91-2.68s-.65-2.69-1.91-2.69h-1.01v5.37h1.01Z"/>
        <path class="ao" d="M433.48,192.84c1.66,0,2.59,1.35,2.59,3.22v.42h-3.78c.06.82.55,1.47,1.46,1.47.46,0,.97-.21,1.31-.59l.69.9c-.54.59-1.35.9-2.16.9-1.7,0-2.8-1.27-2.8-3.17,0-1.75,1.02-3.15,2.69-3.15ZM432.3,195.46h2.33c-.03-.62-.3-1.41-1.17-1.41s-1.13.79-1.16,1.41Z"/>
        <path class="ao" d="M437.07,201.3v-8.32h1.5v.76c.37-.6.94-.91,1.52-.91,1.36,0,2.23,1.18,2.23,3.15s-.87,3.17-2.23,3.17c-.57,0-1.15-.29-1.52-.91v3.05h-1.5ZM439.6,194.16c-.4,0-.84.3-1.04.7v2.27c.2.39.64.71,1.04.71.77,0,1.17-.79,1.17-1.84s-.4-1.83-1.17-1.83Z"/>
        <path class="ao" d="M443.35,190.69h1.5v8.32h-1.5v-8.32Z"/>
        <path class="ao" d="M445.88,195.99c0-1.68.95-3.15,2.72-3.15s2.73,1.47,2.73,3.15-.94,3.17-2.73,3.17-2.72-1.47-2.72-3.17ZM449.78,195.99c0-.99-.36-1.83-1.18-1.83s-1.16.85-1.16,1.83.36,1.84,1.16,1.84,1.18-.85,1.18-1.84Z"/>
        <path class="ao" d="M452.83,200.13c.34,0,.55-.12.66-.44l.2-.57-2.03-6.13h1.6l1.21,4.21,1.22-4.21h1.6l-2.36,7.04c-.37,1.11-1.02,1.41-1.98,1.42-.19,0-.56-.04-.72-.09l.22-1.32c.1.05.27.09.39.09Z"/>
        <path class="ao" d="M464.35,194.96c0-.5-.21-.8-.69-.8s-.85.41-1.03.75v4.1h-1.5v-4.05c0-.49-.2-.8-.69-.8s-.85.41-1.04.75v4.1h-1.5v-6.02h1.5v.79c.24-.41.94-.93,1.7-.93s1.3.36,1.46,1.05c.29-.52,1-1.05,1.76-1.05.92,0,1.52.49,1.52,1.6v4.58h-1.5v-4.05Z"/>
        <path class="ao" d="M469.57,192.84c1.66,0,2.59,1.35,2.59,3.22v.42h-3.78c.06.82.55,1.47,1.46,1.47.46,0,.97-.21,1.31-.59l.69.9c-.54.59-1.35.9-2.16.9-1.7,0-2.8-1.27-2.8-3.17,0-1.75,1.02-3.15,2.69-3.15ZM468.39,195.46h2.33c-.03-.62-.3-1.41-1.17-1.41s-1.13.79-1.16,1.41Z"/>
        <path class="ao" d="M476.54,195.04c0-.64-.29-.89-.79-.89s-.89.39-1.1.75v4.1h-1.5v-6.02h1.5v.79c.32-.47,1-.93,1.77-.93,1.11,0,1.61.65,1.61,1.65v4.53h-1.5v-3.96Z"/>
        <path class="ao" d="M479.65,197.56v-3.27h-.79v-1.31h.79v-1.65h1.5v1.65h1v1.31h-1v2.92c0,.39.15.62.44.62.19,0,.37-.08.45-.17l.31,1.15c-.22.2-.61.35-1.16.35-1.05,0-1.53-.54-1.53-1.6Z"/>
      </g>
      <path class="ak" d="M105.15,174.07h-4.21l-.74,1.84h-1.15l3.34-8.32h1.28l3.35,8.32h-1.15l-.74-1.84ZM101.24,173.15h3.6l-1.79-4.62-1.81,4.62Z"/>
      <path class="ak" d="M180.19,191.55h3.7c1.45,0,2.33.87,2.33,2.12,0,1.05-.7,1.75-1.46,1.91.88.14,1.62,1.05,1.62,2.04,0,1.33-.88,2.24-2.41,2.24h-3.79v-8.32ZM183.71,195.16c.94,0,1.43-.57,1.43-1.33s-.5-1.35-1.43-1.35h-2.49v2.68h2.49ZM183.76,198.94c.97,0,1.55-.55,1.55-1.43,0-.76-.52-1.43-1.55-1.43h-2.54v2.87h2.54Z"/>
      <path class="ak" d="M260.11,219.67c0-2.56,1.88-4.3,4.24-4.3,1.51,0,2.53.71,3.19,1.65l-.87.49c-.47-.7-1.33-1.21-2.32-1.21-1.78,0-3.17,1.4-3.17,3.38s1.38,3.38,3.17,3.38c.99,0,1.85-.5,2.32-1.21l.88.49c-.7.95-1.7,1.65-3.2,1.65-2.36,0-4.24-1.75-4.24-4.3Z"/>
      <path class="aj" d="M340.71,239.45h2.84c2.58,0,4.26,1.81,4.26,4.16s-1.68,4.15-4.26,4.15h-2.84v-8.32ZM343.55,246.84c2.02,0,3.19-1.45,3.19-3.23s-1.13-3.24-3.19-3.24h-1.81v6.47h1.81Z"/>
      <path class="ak" d="M481.64,215.5h5.45v.92h-4.41v2.68h4.33v.92h-4.33v2.87h4.41v.92h-5.45v-8.32Z"/>
      <path class="ak" d="M562.14,191.55h5.45v.92h-4.41v2.68h4.33v.92h-4.33v3.79h-1.03v-8.32Z"/>
      <path class="ak" d="M644.31,167.46c1.47,0,2.49.65,3.23,1.56l-.82.51c-.52-.67-1.41-1.15-2.41-1.15-1.82,0-3.2,1.4-3.2,3.38s1.38,3.39,3.2,3.39c1,0,1.82-.49,2.23-.9v-1.7h-2.86v-.92h3.89v3c-.77.86-1.91,1.43-3.27,1.43-2.37,0-4.28-1.73-4.28-4.31s1.91-4.3,4.28-4.3Z"/>
      <g class="bu">
        <path class="aq" d="M131.62,42.59c-1.23.05-2.46.31-3.62.75-3.09,1.18-5.71,3.7-6.52,7.31-.81,3.59.21,8.19,4.13,13.49.09.14.19.3.34.59.15.3.32.71.47,1.29.3,1.15.51,2.95.22,5.66-.01.14.03.28.11.39.09.11.22.18.36.19.29.03.55-.18.59-.47.3-2.81.09-4.74-.25-6.04-.17-.65-.37-1.14-.54-1.49-.18-.36-.34-.6-.38-.67,0-.01-.02-.03-.03-.04-3.83-5.16-4.7-9.44-3.98-12.67.73-3.23,3.06-5.48,5.86-6.54,2.8-1.07,6.05-.92,8.54.63,2.48,1.55,4.27,4.47,4.15,9.22-.03.78.36,1.69.81,2.79.45,1.09,1,2.28,1.38,3.22h0c.14.35.08.38.09.37,0,0-.09.06-.3.07-.42.03-1.03-.13-1.03-.13-.01,0-.03,0-.05-.01-.31-.06-.66,0-.9.21-.24.2-.34.47-.4.73-.12.51-.08,1.09-.05,1.72.03.63.08,1.29.05,1.86-.03.57-.15,1.02-.33,1.26-.08.09-.36.24-.81.32-.45.07-1.04.09-1.63.06-1.19-.05-2.43-.25-2.97-.33-.14-.03-.29,0-.41.09-.12.09-.2.21-.22.36-.02.14.02.29.11.4.09.11.22.19.37.2.32.05.99.14,1.74.22-.13,1.08-.2,2.36-.1,4.18.02.29.27.52.56.5.29-.02.52-.27.5-.56-.09-1.79-.03-3,.1-4.03.1,0,.18.02.28.02.64.03,1.28.02,1.85-.07.57-.09,1.11-.25,1.47-.7,0,0,0,0,.01-.01.4-.53.51-1.19.55-1.85.04-.67-.01-1.36-.04-1.98-.03-.62-.04-1.17.02-1.43.03-.12.05-.13.05-.13,0,0,0-.02,0-.02-.02.01-.02.02.01.03.04.01.67.2,1.35.16.35-.02.77-.1,1.06-.47.29-.37.29-.9.07-1.43-.4-.97-.94-2.16-1.38-3.22-.44-1.06-.74-2.09-.73-2.34h0c.13-5.04-1.84-8.42-4.65-10.17-1.4-.88-3.01-1.35-4.64-1.46-.41-.03-.82-.03-1.23-.01ZM131.75,46.81c-3.51,0-6.37,2.86-6.37,6.37,0,2.25,1.26,4.26,3.18,5.4v2.03h-.51c-.14,0-.28.05-.38.15-.1.1-.16.24-.16.38s.06.28.16.38c.1.1.24.15.38.15h7.4c.14,0,.28-.05.38-.15.1-.1.16-.24.16-.38s-.06-.28-.16-.38c-.1-.1-.24-.15-.38-.15h-.51v-2.03c1.92-1.14,3.18-3.15,3.18-5.4,0-3.51-2.86-6.37-6.37-6.37M131.75,47.87c2.94,0,5.31,2.37,5.31,5.31,0,1.99-1.12,3.82-2.89,4.73-.18.09-.29.27-.29.47v2.23h-4.25v-2.24c0-.2-.11-.38-.29-.47-1.78-.91-2.89-2.73-2.89-4.72,0-2.94,2.37-5.31,5.31-5.31M134.6,51.05c-.12,0-.24.04-.33.11l-3.82,2.87-1.1-1.43c-.18-.23-.51-.28-.74-.1-.23.18-.28.51-.1.74l1.42,1.85c.18.23.51.28.74.1l4.25-3.18c.19-.13.26-.37.19-.59-.07-.22-.27-.37-.5-.37M129.03,62.73c-.29.01-.52.26-.5.56s.26.52.56.5h5.34c.14,0,.28-.05.38-.15.1-.1.16-.24.16-.38s-.06-.28-.16-.38c-.1-.1-.24-.16-.38-.15h-5.34s-.04,0-.05,0M130.07,64.86c-.29.02-.52.27-.5.56s.26.52.56.5h3.26c.14,0,.28-.05.38-.15.1-.1.16-.24.16-.38s-.06-.28-.16-.38c-.1-.1-.24-.16-.38-.15h-3.26s-.04,0-.05,0"/>
        <rect class="ao" x="285.16" y="94.68" width=".91" height=".91"/>
        <rect class="ao" x="286.98" y="94.68" width=".91" height=".91"/>
        <rect class="ao" x="288.8" y="94.68" width=".91" height=".91"/>
        <path class="ao" d="M280.15,120.17h14.11c.18,0,.35-.11.42-.28.07-.17.03-.37-.1-.5l-14.11-14.11c-.13-.13-.33-.17-.5-.1-.17.07-.28.24-.28.42v14.11c0,.12.05.24.13.32.08.09.2.13.32.13M280.6,106.7l12.56,12.56h-12.56v-12.56Z"/>
        <path class="ao" d="M287.75,116.66l-4.55-4.55c-.13-.13-.33-.17-.5-.1-.17.07-.28.24-.28.42v4.55c0,.12.05.24.13.32.08.09.2.13.32.13h4.55c.18,0,.35-.11.42-.28.07-.17.03-.37-.1-.5M283.34,116.53v-3l3,3h-3Z"/>
        <path class="ao" d="M306.5,96.74c.44-.44.61-1.08.45-1.68-.16-.6-.63-1.07-1.23-1.23-.6-.16-1.24.01-1.68.45l-.68.68c-.04-.57-.3-1.1-.72-1.49s-.97-.61-1.54-.61h-15.48c-.6,0-1.18.24-1.61.67-.43.43-.67,1.01-.67,1.61v11.84h.91v-11.84c0-.36.14-.71.4-.97.26-.26.6-.4.96-.4h15.48c.36,0,.71.14.97.4.26.26.4.6.4.97v.72l-4.29,4.29h-3.35c-.43-1.11-1.25-2.03-2.31-2.6-1.05-.56-2.27-.73-3.44-.47-1.17.26-2.2.93-2.92,1.88-.72.96-1.07,2.14-.99,3.33.08,1.19.58,2.32,1.41,3.17.83.85,1.95,1.38,3.13,1.49v1.84c0,.12.05.24.13.32.09.09.2.13.32.13h10.01c.12,0,.24-.05.32-.13.09-.08.13-.2.13-.32v-6.19l1.82-1.82v9.37h-10.47c-.25,0-.46.2-.46.46v3.64c0,.12.05.24.13.32.08.09.2.13.32.13h10.47v.45c0,.36-.14.71-.4.97-.26.26-.6.4-.97.4h-7.28v.91h7.28c.6,0,1.18-.24,1.61-.67.43-.43.67-1.01.67-1.61v-.45h3.19c.12,0,.24-.05.32-.13.08-.09.13-.2.13-.32v-3.64c0-.12-.05-.24-.13-.32-.09-.09-.2-.13-.32-.13h-3.19v-10.28l3.13-3.13ZM304.67,94.92c.15-.16.37-.25.59-.26.22,0,.44.09.6.24.16.16.25.37.24.6,0,.22-.1.44-.26.59l-.21.21-1.18-1.18.21-.21ZM294.26,101.96c0,1.01-.37,1.98-1.05,2.73-.67.75-1.6,1.23-2.6,1.34v-4.98h3.54c.07.3.1.6.11.91M289.71,100.6v5.44c-1.44-.16-2.69-1.06-3.28-2.38-.6-1.32-.45-2.85.38-4.04.83-1.19,2.22-1.85,3.67-1.74,1.44.11,2.72.97,3.36,2.27h-3.66c-.25,0-.46.2-.46.46h0ZM299.72,108.34h-9.11v-1.39c1.4-.12,2.69-.83,3.54-1.96.85-1.12,1.19-2.55.92-3.94h2.17l-1.04,1.04c-.06.06-.11.15-.12.23l-.45,2.28c-.03.13,0,.27.09.38.09.11.22.17.35.17.03,0,.06,0,.09,0l2.28-.46c.09-.02.17-.06.23-.12l1.04-1.04v4.82ZM296.82,103.34l.62.62-.77.15.16-.77ZM304.28,111.07v.91h.91v-.91h.91v2.73h-13.66v-2.73h.91v.91h.91v-.91h.91v.91h.91v-.91h.91v.91h.91v-.91h.91v.91h.91v-.91h.91v.91h.91v-.91h.91v.91h.91v-.91h.91ZM298.36,103.6l-1.18-1.18,6.64-6.64,1.18,1.18-6.64,6.64Z"/>
        <path class="ao" d="M379.48,128.51c0-3.26-2.61-5.86-5.86-5.86s-5.86,2.61-5.86,5.86,2.61,5.86,5.86,5.86,5.86-2.61,5.86-5.86M373.62,133.07c-2.54,0-4.56-2.02-4.56-4.56s2.02-4.56,4.56-4.56,4.56,2.02,4.56,4.56-2.02,4.56-4.56,4.56"/>
        <path class="ao" d="M375.7,137.95l.2-.98c.78-.2,1.5-.52,2.15-.91l.85.59c.46.33,1.11.26,1.5-.13l1.3-1.3c.39-.39.46-1.04.13-1.5l-.59-.85c.39-.65.65-1.37.91-2.15l.98-.2c.59-.06.98-.59.98-1.17v-1.89c0-.59-.39-1.04-.98-1.17l-1.04-.07c-.2-.72-.52-1.43-.91-2.15l.59-.78c.33-.46.26-1.11-.13-1.5l-1.3-1.3c-.39-.46-1.04-.46-1.5-.13l-.85.59c-.65-.39-1.37-.65-2.15-.91l-.19-.98c0-.59-.52-.98-1.11-.98h-1.89c-.59,0-1.04.39-1.17.98l-.13.98c-.78.2-1.5.52-2.15.91l-.78-.59c-.46-.33-1.11-.26-1.5.13l-1.3,1.3c-.46.39-.46,1.04-.13,1.5l.59.85c-.39.65-.72,1.37-.91,2.15l-.98.19c-.59,0-.98.52-.98,1.11v1.89c0,.59.39,1.04.98,1.17l.98.2c.2.78.52,1.5.91,2.15l-.59.72c-.33.46-.26,1.11.13,1.5l1.3,1.3c.39.39,1.04.46,1.5.13l.85-.59c.65.39,1.37.65,2.15.91l.2.98c.07.59.59.98,1.17.98h1.89c.46,0,.98-.39,1.04-.98M372.77,137.63l-.2-.98c-.07-.46-.46-.85-.85-.98-.65-.19-1.3-.46-1.95-.78-.39-.26-.91-.2-1.3.07l-.72.59-1.17-1.17.59-.78c.26-.39.26-.85.07-1.3-.33-.59-.65-1.24-.78-1.89-.13-.46-.46-.78-.91-.91l-1.04-.13v-1.63l.98-.2c.46-.07.85-.46.91-.85.2-.65.46-1.3.78-1.95.26-.39.2-.91-.07-1.3l-.52-.78,1.17-1.17.78.59c.39.26.85.26,1.3.06.59-.33,1.24-.65,1.89-.78.46-.13.85-.46.91-.91l.19-.98h1.63l.19.98c.07.46.46.85.91.98.65.19,1.3.46,1.89.78.39.26.91.2,1.3-.07l.78-.59,1.17,1.17-.59.78c-.26.39-.26.85-.07,1.3.33.59.65,1.24.78,1.89.13.46.45.78.91.91l.98.19v1.63l-.98.2c-.46.06-.85.46-.91.85-.2.65-.46,1.3-.78,1.95-.26.39-.19.91.07,1.3l.59.78-1.24,1.04-.78-.59c-.39-.26-.85-.26-1.3-.06-.59.32-1.24.65-1.89.78-.45.13-.78.46-.91.91l-.13,1.04h-1.69Z"/>
        <path class="ao" d="M360.27,125.84c.33.07.72-.13.78-.46,1.24-5.08,5.4-8.79,10.42-9.64l-1.11.91c-.26.19-.33.65-.13.91.19.26.65.33.91.13l2.87-2.21c.2-.13.26-.39.26-.59,0-.26-.2-.46-.39-.52l-3.32-1.43c-.33-.13-.72,0-.85.33-.13.33,0,.72.33.85l.98.39c-5.41,1.04-9.83,5.08-11.2,10.55-.07.39.13.72.46.78"/>
        <path class="ao" d="M370.49,141.01c-5.08-1.24-8.79-5.41-9.57-10.42l.85,1.17c.2.26.65.33.91.13.26-.19.33-.65.13-.91l-2.21-2.87c-.13-.2-.39-.26-.59-.26-.26,0-.46.2-.52.39l-1.43,3.32c-.13.32,0,.72.33.85.32.13.72,0,.85-.32l.46-.98c.98,5.41,5.01,9.83,10.55,11.2.32.07.72-.13.78-.46.07-.39-.2-.72-.52-.85"/>
        <path class="ao" d="M386.97,130.92c-.33-.06-.72.13-.78.52-1.17,5.21-5.34,8.99-10.42,9.83l1.11-.85c.26-.2.33-.65.13-.91-.19-.26-.65-.33-.91-.13l-2.87,2.15c-.2.13-.26.39-.26.58,0,.26.2.46.39.52l3.32,1.43c.33.13.72,0,.85-.33.13-.32,0-.72-.33-.85l-.98-.46c5.54-.98,9.96-5.15,11.27-10.75.07-.32-.13-.72-.52-.78"/>
        <path class="ao" d="M388.86,124.6c-.33-.13-.72,0-.85.33l-.46.98c-.98-5.54-5.14-9.96-10.81-11.27-.33-.07-.72.13-.78.52-.07.32.13.72.52.78,5.21,1.17,8.99,5.34,9.83,10.49l-.85-1.17c-.2-.26-.65-.32-.91-.13-.26.2-.33.65-.13.91l2.21,2.87c.13.13.33.26.52.26.26,0,.52-.13.59-.39l1.43-3.32c.13-.33,0-.72-.33-.85"/>
        <path class="ao" d="M546.41,67.48l-4.79,2.4c-.16.08-.27.25-.27.43v1.72l-11.51,11.51-.62-.62c-.19-.19-.49-.19-.68,0l-1.44,1.44c-.32.32-.08.6.06.74l3.43,3.43-5.98,5.98c-.96.96-2.41.99-3.28.12s-.84-2.32.12-3.28l4.65-4.66c.52-.45-.23-1.2-.68-.68l-4.66,4.65c-1.3,1.3-1.38,3.38-.12,4.64,1.26,1.26,3.33,1.18,4.64-.12l7.76-7.76c.19-.19.19-.49,0-.68l-.62-.62,11.51-11.51h1.72c.18,0,.35-.1.43-.27l2.4-4.8c.09-.18.05-.41-.09-.55l-1.44-1.44c-.12-.12-.34-.2-.56-.09h0ZM523.12,67.43c-.43,0-.64.52-.34.82l3.22,3.22v1.04l-1.16,1.16h-1.04l-3.22-3.22c-.3-.3-.82-.09-.82.34v3.84c0,.13.05.25.14.34l2.4,2.4c.09.09.21.14.34.14h3.64l3.78,3.78c.45.47,1.15-.23.68-.68l-3.92-3.92c-.09-.09-.21-.14-.34-.14h-3.64l-2.12-2.12v-2.48l2.54,2.54c.09.09.21.14.34.14h1.44c.13,0,.25-.05.34-.14l1.44-1.44c.09-.09.14-.21.14-.34v-1.44c0-.13-.05-.25-.14-.34l-2.54-2.54h2.48l2.12,2.12v3.64c0,.13.05.25.14.34l3.92,3.92c.45.47,1.15-.23.68-.68l-3.78-3.78v-3.64c0-.13-.05-.25-.14-.34l-2.4-2.4c-.09-.09-.21-.14-.34-.14h-3.84ZM546.53,68.5l.95.95-2.11,4.23h-1.62c-.13,0-.25.05-.34.14l-11.65,11.65-1.24-1.24,11.65-11.65c.09-.09.14-.21.14-.34v-1.62l4.22-2.11ZM537.9,82.22c-.43,0-.64.52-.34.82l3.92,3.92c.09.09.21.14.34.14h3.64l2.12,2.12v2.48l-2.54-2.54c-.09-.09-.21-.14-.34-.14h-1.44c-.13,0-.25.05-.34.14l-1.44,1.44c-.09.09-.14.21-.14.34v1.44c0,.13.05.25.14.34l2.54,2.54h-2.48l-2.12-2.12v-3.64c0-.13-.05-.25-.14-.34l-3.92-3.92c-.45-.47-1.15.23-.68.68l3.78,3.78v3.64c0,.13.05.25.14.34l2.4,2.4c.09.09.21.14.34.14h3.84c.43,0,.64-.52.34-.82l-3.22-3.22v-1.04l1.16-1.16h1.04l3.22,3.22c.3.3.82.09.82-.34v-3.84c0-.13-.05-.25-.14-.34l-2.4-2.4c-.09-.09-.21-.14-.34-.14h-3.64l-3.78-3.78c-.09-.09-.21-.15-.34-.15M528.88,83.95l3.16,3.16-.76.76-3.16-3.16.77-.76Z"/>
        <path class="ao" d="M627.5,57.13h-10.27v-10.27c0-.24-.2-.44-.44-.44h-15.46c-.24,0-.44.2-.44.44v14.27c0,.24.2.43.44.43h10.27v10.27c0,.24.19.44.43.44h15.46c.24,0,.44-.2.44-.44v-14.27c0-.24-.2-.43-.44-.43M617.83,58h3.88v3.39l-1.67-1.33c-.16-.13-.38-.13-.54,0l-1.67,1.33v-3.39ZM607.13,47.3h3.88v3.41l-1.67-1.34c-.16-.13-.39-.13-.54,0l-1.67,1.34v-3.41ZM611.6,57.56v3.13h-9.83v-13.4h4.48v4.32c0,.17.1.32.25.39.15.07.33.05.46-.05l2.11-1.68,2.1,1.68c.13.11.31.13.46.05.15-.07.25-.22.25-.39v-4.32h4.48v9.83h-4.32c-.24,0-.44.2-.44.44h0ZM627.06,71.4h-14.59v-13.4h4.48v4.29c0,.17.1.32.25.39.15.07.33.05.46-.05l2.11-1.68,2.11,1.68c.13.1.31.12.46.05.15-.07.25-.23.25-.39v-4.29h4.48v13.4ZM604.15,63.51v1.78c0,.36.14.7.4.95s.6.4.95.4h3.11l-.45-.44c-.17-.17-.17-.45,0-.62.17-.17.45-.17.62,0,1.28,1.28,1.24,1.22,1.28,1.33.02.05.03.11.03.17,0,.25-.11.29-1.32,1.5-.17.16-.44.16-.61,0-.17-.17-.17-.44,0-.61l.45-.45h-3.11c-.59,0-1.15-.24-1.57-.65-.42-.42-.65-.98-.65-1.57v-1.78c0-.24.19-.44.44-.44s.44.19.44.44M623.5,55.18v-2.97c0-.36-.14-.7-.4-.95-.25-.25-.59-.4-.95-.4h-1.92l.45.45c.16.17.16.44,0,.61-.17.17-.44.17-.61,0l-1.19-1.19c-.17-.17-.17-.45,0-.62l1.19-1.19h0c.17-.17.44-.16.61,0,.17.17.17.44,0,.61l-.45.45h1.92c.59,0,1.15.23,1.57.65.42.42.65.98.65,1.57v2.97c0,.24-.2.44-.44.44s-.44-.19-.44-.44h0ZM620.53,67.27v2.67c0,.23.07.45.23.61.15.16.37.26.59.27h4.59c.23,0,.44-.11.59-.27.15-.17.23-.38.23-.61v-2.67c0-.22-.07-.44-.23-.61-.15-.16-.37-.26-.59-.27h-4.59c-.23,0-.44.11-.59.27-.15.17-.24.38-.23.61M621.41,67.27s-.21,0,4.48,0c0,.03,0,.13,0,2.68,0,.03.21,0-4.48,0,0-.03,0-.13,0-2.68M622.39,68.61h0c0-.24.19-.44.44-.44h1.63c.24,0,.44.19.44.44s-.19.44-.44.44h-1.63c-.24,0-.44-.19-.44-.44Z"/>
        <path class="ao" d="M225.9,73.96l-.83-.88c-.17-.18-.4-.28-.65-.29-.25,0-.49.08-.67.25l-1.69,1.6v-2.68c0-.71-.28-1.39-.79-1.89-.5-.5-1.18-.79-1.89-.79h-3.83v-.42c0-.22-.18-.41-.41-.41h-2.03c-.13-.64-.56-1.19-1.15-1.48-.59-.29-1.28-.29-1.87,0-.59.29-1.02.84-1.15,1.48h-2.03c-.22,0-.41.18-.41.41v.42h-3.82c-.71,0-1.39.28-1.9.79s-.79,1.18-.79,1.89v21.48c0,.71.28,1.39.79,1.89.5.5,1.18.79,1.9.79h16.69c.71,0,1.39-.28,1.9-.79.5-.5.79-1.18.79-1.89v-14.58l3.8-3.59c.18-.17.28-.4.29-.65,0-.25-.08-.49-.25-.67M215.56,70.1h3.83c.49,0,.97.2,1.32.55.35.35.55.82.55,1.32v3.45l-.78.73v-4.19c0-.29-.12-.57-.32-.77-.21-.2-.48-.32-.77-.32h-3.83v-.78ZM207.33,69.28h1.98c.22,0,.4-.18.41-.4,0-.47.25-.9.66-1.14s.91-.24,1.32,0c.41.24.66.67.66,1.14,0,.22.18.4.41.4h1.99v2.42h-7.41v-2.42ZM206.52,71.69v.41h0c0,.22.18.41.41.41h8.23c.23,0,.41-.18.41-.41v-.41h3.83c.15,0,.27.12.28.27v4.96l-1.8,1.7s-.09.1-.11.16h0s-.37,1.07-.37,1.07c0,0,0,.01,0,.02l-.33,1.11c-.04.12-.01.26.06.36.08.1.2.16.33.16.03,0,.06,0,.09-.01l2.14-.51v12.29c0,.25-.2.45-.45.45h-16.52c-.15,0-.27-.12-.28-.28v-21.48c0-.15.12-.27.28-.28h3.83ZM218.29,79.69l.6.64-.88.21.13-.43.15-.43ZM219.55,95.31h-16.85c-.5,0-.97-.2-1.32-.55-.35-.35-.55-.83-.55-1.32v-21.48c0-.5.2-.97.55-1.32.35-.35.82-.55,1.32-.55h3.83v.78h-3.83c-.29,0-.57.11-.77.32-.21.2-.32.48-.32.77v21.48c0,.29.11.57.32.77.21.2.48.32.77.32h16.78c.55,0,1.01-.45,1.01-1.01v-13.16l.78-.73v13.97c0,.94-.76,1.7-1.7,1.7M225.31,74.69l-5.61,5.3-.99-1.05,5.61-5.3s.12-.04.17,0l.83.88s.04.12,0,.17M209.14,87.6c0-.22.18-.41.41-.41h8.28c.23,0,.41.18.41.41s-.18.41-.41.41h-8.28c-.22,0-.4-.18-.4-.41M209.55,89.97h7.03c.11,0,.22-.03.3-.11s.13-.18.13-.3-.05-.22-.13-.3c-.08-.08-.19-.12-.3-.11h-7.03c-.21.01-.38.19-.38.41s.17.39.38.41h0ZM209.55,81.86h6.18c.23,0,.41-.18.41-.41s-.18-.41-.41-.41h-6.18c-.23,0-.41.18-.41.41s.18.41.41.41M209.55,83.83h8.26c.11,0,.22-.03.3-.11.08-.08.13-.18.13-.3s-.05-.22-.13-.3c-.08-.08-.19-.12-.3-.11h-8.26c-.21.01-.38.19-.38.41s.17.39.38.41M209.55,75.72h8.26c.11,0,.22-.03.3-.11.08-.08.13-.18.13-.3s-.05-.22-.13-.3c-.08-.08-.19-.12-.3-.11h-8.26c-.21.01-.38.19-.38.41s.17.39.38.41M209.55,77.68h8.26c.11,0,.22-.03.3-.11.08-.08.13-.18.13-.3s-.05-.22-.13-.3c-.08-.08-.19-.12-.3-.11h-8.26c-.21.01-.38.19-.38.41s.17.39.38.41M205.85,74.19c-1.26,0-2.28,1.02-2.28,2.28s1.02,2.28,2.28,2.28,2.28-1.02,2.28-2.28-1.02-2.28-2.28-2.28M205.85,77.94c-.81,0-1.47-.65-1.47-1.46s.66-1.46,1.47-1.46,1.46.66,1.46,1.46-.66,1.46-1.46,1.46M205.85,80.34c-1.26,0-2.28,1.02-2.28,2.28s1.02,2.28,2.28,2.28,2.28-1.02,2.28-2.28-1.02-2.28-2.28-2.28M205.85,84.09c-.81,0-1.47-.65-1.47-1.46s.66-1.46,1.47-1.46,1.46.66,1.46,1.46-.66,1.46-1.46,1.46M205.85,86.49c-1.26,0-2.28,1.02-2.28,2.28s1.02,2.28,2.28,2.28,2.28-1.02,2.28-2.28-1.02-2.28-2.28-2.28M205.85,90.23c-.81,0-1.47-.66-1.47-1.46s.66-1.46,1.47-1.46,1.46.66,1.46,1.46-.66,1.46-1.46,1.46"/>
        <path class="ao" d="M449.44,110.46c0-.22.18-.41.41-.41h5.34c.23,0,.41.18.41.41s-.18.41-.41.41h-5.34c-.22,0-.41-.18-.41-.41M449.85,112.83h4.49c.11,0,.22-.03.3-.11s.13-.18.13-.3-.05-.22-.13-.3-.19-.12-.3-.11h-4.49c-.21.01-.38.19-.38.41s.17.39.38.41h0ZM448.47,109.54h0c.17.15.18.41.03.57l-.36.4h0c.38.67.39,1.48.04,2.17-.35.68-1.02,1.14-1.79,1.23-.76.08-1.52-.22-2.01-.81-.49-.59-.65-1.39-.43-2.12.22-.74.8-1.31,1.54-1.53.74-.22,1.53-.05,2.12.44l.29-.31c.15-.16.41-.18.57-.03h0ZM447.54,111.16l-1,1.09c-.13.14-.35.17-.52.07l-.85-.54c-.1-.05-.17-.14-.2-.26-.03-.11-.01-.23.05-.32.06-.1.16-.16.27-.18.11-.02.23,0,.32.07l.56.35.9-.98h0c-.37-.29-.86-.39-1.32-.26-.45.13-.82.47-.98.92-.16.45-.09.94.18,1.33.27.39.71.62,1.19.62s.92-.22,1.2-.6c.28-.38.35-.88.2-1.33M449.84,104.72h6.18c.22,0,.41-.18.41-.41s-.18-.41-.41-.41h-6.18c-.23,0-.41.18-.41.41s.18.41.41.41M449.84,106.68h8.25c.11,0,.22-.03.31-.11.08-.08.13-.18.13-.3s-.05-.22-.13-.3-.19-.12-.31-.11h-8.25c-.21.01-.38.19-.38.41s.17.39.38.41M448.47,103.39c.16.15.18.41.02.57l-.36.4c.38.67.39,1.48.04,2.17-.35.68-1.02,1.14-1.79,1.23-.76.08-1.52-.22-2.01-.81-.49-.59-.65-1.39-.43-2.12s.8-1.31,1.54-1.53c.74-.22,1.53-.05,2.12.44l.29-.31c.07-.08.17-.13.28-.13.11,0,.21.03.29.11h0ZM447.54,105.01l-1,1.1c-.13.14-.35.17-.52.07l-.85-.54c-.17-.13-.21-.36-.1-.54.11-.18.35-.24.53-.14l.56.35.9-.98c-.37-.29-.86-.39-1.32-.26-.45.13-.82.47-.98.92-.16.45-.09.94.18,1.33s.71.62,1.19.62c.47,0,.92-.22,1.2-.6.28-.38.35-.88.2-1.32M449.84,98.58h8.25c.11,0,.22-.03.31-.11.08-.08.13-.18.13-.3s-.05-.22-.13-.3-.19-.12-.31-.11h-8.25c-.21.01-.38.19-.38.41s.17.39.38.41M449.84,100.54h8.25c.11,0,.22-.03.31-.11.08-.08.13-.18.13-.3s-.05-.22-.13-.3c-.08-.08-.19-.12-.31-.11h-8.25c-.21.01-.38.19-.38.41s.17.39.38.41M446.14,97.05c.54,0,1.06.19,1.47.54l.29-.31c.07-.09.17-.14.29-.15.11,0,.22.03.3.11.08.08.13.18.13.29,0,.11-.04.22-.12.3l-.36.4c.33.59.38,1.29.14,1.92s-.74,1.12-1.37,1.35c-.63.22-1.33.16-1.91-.18-.58-.34-.98-.92-1.09-1.58-.11-.66.07-1.34.5-1.85.43-.51,1.07-.81,1.74-.81M445.04,98.93c.12-.19.37-.25.56-.13l.56.35.9-.98h0c-.37-.29-.86-.39-1.31-.26-.45.13-.82.47-.98.92-.16.45-.09.94.18,1.33.27.39.71.62,1.19.62.47,0,.92-.22,1.2-.6.28-.38.35-.88.21-1.32l-1.01,1.1c-.13.14-.35.17-.52.07l-.85-.54c-.19-.12-.24-.37-.13-.56M467.46,114.19c0,1.49-.55,2.92-1.55,4.02-1,1.1-2.38,1.79-3.86,1.93-1.48.14-2.96-.27-4.16-1.16h-14.91c-.71,0-1.39-.28-1.89-.78-.5-.5-.79-1.18-.79-1.89v-21.48c0-.71.28-1.39.79-1.9.5-.5,1.18-.78,1.89-.78h3.83v-.42c0-.23.18-.41.41-.41h2.03c.13-.65.56-1.19,1.15-1.48.59-.29,1.28-.29,1.87,0,.59.29,1.02.84,1.15,1.48h2.03c.23,0,.41.18.41.41v.41h3.83c.71,0,1.39.28,1.89.79.5.5.79,1.18.79,1.89v2.68l1.7-1.6c.18-.17.42-.26.67-.25.25,0,.48.11.65.29l.83.88c.17.18.26.42.25.67,0,.25-.11.48-.29.65l-3.8,3.59v6.54c1.42.21,2.71.93,3.65,2.01.94,1.09,1.45,2.47,1.45,3.91ZM461.55,102.5l-.78.73v5.01c.24-.03.47-.04.71-.04h.07v-5.7ZM446.81,94.96v-.41h-3.83c-.15,0-.27.12-.27.28v21.48c0,.15.12.27.27.28h13c-.7-1.6-.66-3.43.1-5.01.76-1.57,2.18-2.74,3.87-3.18v-4.55l-2.14.51s-.06.01-.09.01c-.13,0-.25-.06-.33-.16-.08-.1-.1-.24-.06-.36l.33-1.11s0-.01,0-.02l.37-1.07h0s0,0,0,0c.02-.06.06-.12.11-.16l1.81-1.7v-4.96c0-.15-.12-.27-.28-.28h-3.83v.41c0,.23-.18.41-.41.41h-8.23c-.23,0-.41-.18-.41-.41h0ZM458.44,102.97l-.13.42.88-.21-.61-.64-.15.43ZM459,101.8l.99,1.05,5.61-5.3s.05-.12,0-.17l-.83-.88s-.12-.05-.17,0l-5.61,5.3ZM455.85,92.96v.78h3.83c.29,0,.56.11.77.32.2.2.32.48.32.77v4.19l.78-.73v-3.45c0-.5-.2-.97-.55-1.32-.35-.35-.83-.55-1.32-.55h-3.83ZM447.63,94.55h7.41v-2.42h-1.98c-.22,0-.4-.18-.41-.4,0-.47-.25-.9-.66-1.14-.41-.23-.91-.23-1.32,0-.41.24-.66.67-.66,1.14,0,.22-.18.4-.41.4h-1.98v2.42ZM442.99,118.17h14.02c-.22-.24-.41-.5-.59-.78h-13.43c-.29,0-.57-.12-.77-.32-.2-.2-.32-.48-.32-.77v-21.48c0-.29.12-.57.32-.77.2-.2.48-.32.77-.32h3.83v-.78h-3.83c-.49,0-.97.2-1.32.55-.35.35-.55.82-.55,1.32v21.48c0,.49.2.97.55,1.32.35.35.82.55,1.32.55M466.65,114.19c0-1.37-.54-2.69-1.51-3.66-.97-.97-2.29-1.51-3.66-1.51s-2.69.54-3.66,1.52c-.97.97-1.51,2.29-1.51,3.66,0,1.37.55,2.69,1.52,3.66s2.29,1.51,3.66,1.51c1.37,0,2.69-.55,3.65-1.52.97-.97,1.52-2.29,1.52-3.66M463.68,112.21l-2.88,3.14-1.61-1.01h0c-.09-.07-.21-.09-.32-.07-.11.02-.21.09-.27.18-.06.1-.08.21-.05.32.03.11.1.2.2.25l1.9,1.2c.17.11.38.08.52-.07l3.11-3.39c.14-.17.12-.41-.04-.56-.16-.15-.4-.14-.56,0h0Z"/>
        <rect class="am" x="656.63" y="18.5" width="57.24" height="30.05"/>
        <polygon class="am" points="729.79 33.53 708.27 55.39 708.27 11.67 729.79 33.53"/>
        <polygon class="am" points="23.9 18.5 28.97 33.53 23.9 48.56 90.61 48.56 90.61 18.5 23.9 18.5"/>
      </g>
    </g>
  </g>
</svg>