<?xml version="1.0" encoding="UTF-8"?>
<svg id="a" data-name="Layer 1" xmlns="http://www.w3.org/2000/svg" xmlns:xlink="http://www.w3.org/1999/xlink" viewBox="0 0 481.79 202.21">
  <defs>
    <style>
      .c {
        fill: #2982b1;
      }

      .c, .d, .e, .f, .g, .h {
        stroke-width: 0px;
      }

      .d {
        fill: #c1dbe3;
      }

      .e, .i {
        fill: none;
      }

      .j {
        clip-path: url(#b);
      }

      .i {
        stroke: #314c63;
        stroke-miterlimit: 10;
        stroke-width: .5px;
      }

      .f {
        fill: #fff;
      }

      .g {
        fill: #314c63;
      }

      .h {
        fill: #231f20;
      }
    </style>
    <clipPath id="b">
      <rect class="e" x="-203.15" y="-132.74" width="792" height="612"/>
    </clipPath>
  </defs>
  <g class="j">
    <rect class="d" x="20.35" y="29.78" width="440.25" height="16.11"/>
    <g>
      <path class="c" d="M101.03,38.39c0-1.85,1.4-3.11,3.15-3.11,1.37,0,2.13.72,2.56,1.47l-1.1.54c-.25-.49-.79-.87-1.46-.87-1.04,0-1.84.84-1.84,1.97s.79,1.97,1.84,1.97c.67,0,1.21-.38,1.46-.87l1.1.53c-.43.75-1.19,1.48-2.56,1.48-1.76,0-3.15-1.26-3.15-3.11Z"/>
      <path class="c" d="M107.72,35.38h1.28v6h-1.28v-6Z"/>
      <path class="c" d="M110.41,35.38h4.25v1.1h-2.97v1.31h2.91v1.1h-2.91v1.4h2.97v1.11h-4.25v-6Z"/>
      <path class="c" d="M118.39,35.38h1.28v6h-1.28v-6Z"/>
      <path class="c" d="M126.31,37.06l-1.69,4.32h-.56l-1.69-4.32v4.32h-1.28v-6h1.79l1.46,3.75,1.46-3.75h1.8v6h-1.29v-4.32Z"/>
      <path class="c" d="M128.99,35.38h2.81c1.3,0,2.02.88,2.02,1.94s-.72,1.92-2.02,1.92h-1.53v2.15h-1.28v-6ZM131.63,36.48h-1.36v1.66h1.36c.5,0,.88-.32.88-.83s-.38-.83-.88-.83Z"/>
      <path class="c" d="M134.84,35.38h1.28v4.88h2.54v1.12h-3.82v-6Z"/>
      <path class="c" d="M139.76,35.38h4.25v1.1h-2.97v1.31h2.91v1.1h-2.91v1.4h2.97v1.11h-4.25v-6Z"/>
      <path class="c" d="M150.44,37.06l-1.69,4.32h-.56l-1.69-4.32v4.32h-1.28v-6h1.79l1.46,3.75,1.46-3.75h1.8v6h-1.29v-4.32Z"/>
      <path class="c" d="M153.14,35.38h4.25v1.1h-2.97v1.31h2.91v1.1h-2.91v1.4h2.97v1.11h-4.25v-6Z"/>
      <path class="c" d="M159.88,37.35v4.03h-1.28v-6h1.31l2.78,3.89v-3.89h1.28v6h-1.23l-2.86-4.03Z"/>
      <path class="c" d="M166.78,36.51h-1.76v-1.12h4.79v1.12h-1.75v4.88h-1.29v-4.88Z"/>
      <path class="c" d="M174.11,40.35h-2.68l-.38,1.04h-1.4l2.32-6h1.6l2.31,6h-1.4l-.38-1.04ZM171.77,39.24h1.99l-.99-2.75-1,2.75Z"/>
      <path class="c" d="M177.49,36.51h-1.76v-1.12h4.79v1.12h-1.75v4.88h-1.29v-4.88Z"/>
      <path class="c" d="M181.56,35.38h1.28v6h-1.28v-6Z"/>
      <path class="c" d="M187.1,35.28c1.82,0,3.14,1.3,3.14,3.11s-1.32,3.11-3.14,3.11-3.13-1.3-3.13-3.11,1.32-3.11,3.13-3.11ZM187.1,36.42c-1.11,0-1.82.85-1.82,1.97s.71,1.97,1.82,1.97,1.83-.86,1.83-1.97-.72-1.97-1.83-1.97Z"/>
      <path class="c" d="M192.63,37.35v4.03h-1.28v-6h1.31l2.78,3.89v-3.89h1.28v6h-1.23l-2.86-4.03Z"/>
      <path class="c" d="M203.57,35.28c1.24,0,2.03.6,2.48,1.31l-1.06.58c-.28-.42-.79-.76-1.42-.76-1.09,0-1.88.84-1.88,1.97s.79,1.97,1.88,1.97c.55,0,1.04-.22,1.3-.46v-.73h-1.6v-1.1h2.86v2.3c-.61.68-1.47,1.13-2.56,1.13-1.76,0-3.2-1.22-3.2-3.12s1.44-3.11,3.2-3.11Z"/>
      <path class="c" d="M207.37,35.38h1.3v3.57c0,.84.46,1.41,1.4,1.41s1.38-.58,1.38-1.41v-3.57h1.3v3.6c0,1.49-.86,2.51-2.67,2.51s-2.69-1.03-2.69-2.5v-3.61Z"/>
      <path class="c" d="M214.13,35.38h1.28v6h-1.28v-6Z"/>
      <path class="c" d="M216.82,35.38h2.37c1.88,0,3.19,1.2,3.19,3.01s-1.3,3-3.19,3h-2.37v-6ZM219.19,40.26c1.19,0,1.88-.86,1.88-1.87s-.65-1.88-1.88-1.88h-1.09v3.75h1.09Z"/>
      <path class="c" d="M223.51,35.38h4.25v1.1h-2.97v1.31h2.91v1.1h-2.91v1.4h2.97v1.11h-4.25v-6Z"/>
      <path class="c" d="M231.49,35.38h4.25v1.1h-2.97v1.31h2.91v1.1h-2.91v1.4h2.97v1.11h-4.25v-6Z"/>
      <path class="c" d="M238.24,37.35v4.03h-1.28v-6h1.31l2.78,3.89v-3.89h1.28v6h-1.23l-2.86-4.03Z"/>
      <path class="c" d="M246.65,35.28c1.24,0,2.03.6,2.48,1.31l-1.06.58c-.28-.42-.79-.76-1.42-.76-1.09,0-1.88.84-1.88,1.97s.79,1.97,1.88,1.97c.55,0,1.04-.22,1.3-.46v-.73h-1.6v-1.1h2.86v2.3c-.61.68-1.47,1.13-2.56,1.13-1.76,0-3.2-1.22-3.2-3.12s1.44-3.11,3.2-3.11Z"/>
      <path class="c" d="M250.45,35.38h1.28v6h-1.28v-6Z"/>
      <path class="c" d="M254.42,37.35v4.03h-1.28v-6h1.31l2.78,3.89v-3.89h1.28v6h-1.23l-2.86-4.03Z"/>
      <path class="c" d="M259.92,35.38h4.25v1.1h-2.97v1.31h2.91v1.1h-2.91v1.4h2.97v1.11h-4.25v-6Z"/>
      <path class="c" d="M265.39,35.38h4.25v1.1h-2.97v1.31h2.91v1.1h-2.91v1.4h2.97v1.11h-4.25v-6Z"/>
      <path class="c" d="M273.07,39.23h-.94v2.15h-1.28v-6h2.81c1.25,0,2.02.82,2.02,1.94s-.67,1.63-1.31,1.78l1.35,2.29h-1.47l-1.18-2.15ZM273.48,36.48h-1.34v1.66h1.34c.51,0,.9-.32.9-.83s-.39-.83-.9-.83Z"/>
      <path class="c" d="M276.87,35.38h1.28v6h-1.28v-6Z"/>
      <path class="c" d="M280.84,37.35v4.03h-1.28v-6h1.31l2.78,3.89v-3.89h1.28v6h-1.23l-2.86-4.03Z"/>
      <path class="c" d="M289.26,35.28c1.24,0,2.03.6,2.48,1.31l-1.06.58c-.28-.42-.79-.76-1.42-.76-1.09,0-1.88.84-1.88,1.97s.79,1.97,1.88,1.97c.55,0,1.04-.22,1.3-.46v-.73h-1.6v-1.1h2.86v2.3c-.61.68-1.47,1.13-2.56,1.13-1.76,0-3.2-1.22-3.2-3.12s1.44-3.11,3.2-3.11Z"/>
      <path class="c" d="M295.57,35.38h1.28v4.88h2.54v1.12h-3.82v-6Z"/>
      <path class="c" d="M300.5,35.38h1.28v6h-1.28v-6Z"/>
      <path class="c" d="M303.19,35.38h4.25v1.1h-2.97v1.31h2.91v1.1h-2.91v2.5h-1.28v-6Z"/>
      <path class="c" d="M308.54,35.38h4.25v1.1h-2.97v1.31h2.91v1.1h-2.91v1.4h2.97v1.11h-4.25v-6Z"/>
      <path class="c" d="M313.72,38.39c0-1.85,1.4-3.11,3.15-3.11,1.37,0,2.13.72,2.56,1.47l-1.1.54c-.25-.49-.79-.87-1.46-.87-1.04,0-1.84.84-1.84,1.97s.79,1.97,1.84,1.97c.67,0,1.21-.38,1.46-.87l1.1.53c-.43.75-1.19,1.48-2.56,1.48-1.76,0-3.15-1.26-3.15-3.11Z"/>
      <path class="c" d="M321.88,38.93l-2.31-3.55h1.46l1.5,2.41,1.48-2.41h1.46l-2.3,3.55v2.46h-1.28v-2.46Z"/>
      <path class="c" d="M325.6,38.39c0-1.85,1.4-3.11,3.15-3.11,1.37,0,2.13.72,2.56,1.47l-1.1.54c-.25-.49-.79-.87-1.46-.87-1.04,0-1.84.84-1.84,1.97s.79,1.97,1.84,1.97c.67,0,1.21-.38,1.46-.87l1.1.53c-.43.75-1.19,1.48-2.56,1.48-1.76,0-3.15-1.26-3.15-3.11Z"/>
      <path class="c" d="M332.29,35.38h1.28v4.88h2.54v1.12h-3.82v-6Z"/>
      <path class="c" d="M337.22,35.38h4.25v1.1h-2.97v1.31h2.91v1.1h-2.91v1.4h2.97v1.11h-4.25v-6Z"/>
      <path class="c" d="M345.21,35.38h2.81c1.3,0,2.02.88,2.02,1.94s-.72,1.92-2.02,1.92h-1.53v2.15h-1.28v-6ZM347.85,36.48h-1.36v1.66h1.36c.5,0,.88-.32.88-.83s-.38-.83-.88-.83Z"/>
      <path class="c" d="M355.16,38.86h-2.83v2.52h-1.28v-6h1.28v2.36h2.83v-2.36h1.29v6h-1.29v-2.52Z"/>
      <path class="c" d="M361.68,40.35h-2.68l-.38,1.04h-1.4l2.32-6h1.6l2.31,6h-1.4l-.38-1.04ZM359.34,39.24h1.99l-.99-2.75-1,2.75Z"/>
      <path class="c" d="M364.46,39.57c.42.44,1.08.81,1.91.81.7,0,1.04-.33,1.04-.67,0-.45-.52-.6-1.21-.76-.98-.23-2.24-.5-2.24-1.84,0-1,.86-1.81,2.28-1.81.95,0,1.75.29,2.34.84l-.71.94c-.49-.45-1.13-.66-1.72-.66s-.88.25-.88.61c0,.41.5.53,1.2.69.99.22,2.25.52,2.25,1.85,0,1.1-.78,1.93-2.4,1.93-1.15,0-1.98-.39-2.55-.96l.7-.97Z"/>
      <path class="c" d="M369.8,35.38h4.25v1.1h-2.97v1.31h2.91v1.1h-2.91v1.4h2.97v1.11h-4.25v-6Z"/>
      <path class="c" d="M375.55,39.57c.42.44,1.08.81,1.91.81.7,0,1.04-.33,1.04-.67,0-.45-.52-.6-1.21-.76-.98-.23-2.24-.5-2.24-1.84,0-1,.86-1.81,2.28-1.81.95,0,1.75.29,2.34.84l-.71.94c-.49-.45-1.13-.66-1.72-.66s-.88.25-.88.61c0,.41.5.53,1.2.69.99.22,2.25.52,2.25,1.85,0,1.1-.78,1.93-2.4,1.93-1.15,0-1.98-.39-2.55-.96l.7-.97Z"/>
    </g>
    <rect class="g" x="20.35" y="111.53" width="440.25" height="16.11"/>
    <g>
      <path class="f" d="M101.63,119.01l-1.04,4.12h-1.36l-1.72-6h1.43l1.05,4.34,1.14-4.34h1l1.13,4.34,1.04-4.34h1.44l-1.71,6h-1.36l-1.05-4.12Z"/>
      <path class="f" d="M110.02,122.1h-2.68l-.38,1.04h-1.4l2.32-6h1.6l2.31,6h-1.4l-.38-1.04ZM107.68,120.99h1.99l-.99-2.75-1,2.75Z"/>
      <path class="f" d="M113.4,118.26h-1.76v-1.12h4.79v1.12h-1.75v4.88h-1.29v-4.88Z"/>
      <path class="f" d="M117.47,117.13h4.25v1.1h-2.97v1.31h2.91v1.1h-2.91v1.4h2.97v1.11h-4.25v-6Z"/>
      <path class="f" d="M125.16,120.98h-.94v2.15h-1.28v-6h2.81c1.25,0,2.02.82,2.02,1.94s-.67,1.63-1.31,1.78l1.35,2.29h-1.47l-1.18-2.15ZM125.56,118.23h-1.34v1.66h1.34c.51,0,.9-.32.9-.83s-.39-.83-.9-.83Z"/>
      <path class="f" d="M130.5,116.95h.83l-2.13,6.36h-.83l2.13-6.36Z"/>
      <path class="f" d="M135.67,119.01l-1.04,4.12h-1.36l-1.72-6h1.43l1.05,4.34,1.14-4.34h1l1.13,4.34,1.04-4.34h1.44l-1.71,6h-1.36l-1.05-4.12Z"/>
      <path class="f" d="M144.05,122.1h-2.68l-.38,1.04h-1.4l2.32-6h1.6l2.31,6h-1.4l-.38-1.04ZM141.71,120.99h1.99l-.99-2.75-1,2.75Z"/>
      <path class="f" d="M146.83,121.32c.42.44,1.08.81,1.91.81.7,0,1.04-.33,1.04-.67,0-.45-.52-.6-1.21-.76-.98-.23-2.24-.5-2.24-1.84,0-1,.86-1.81,2.28-1.81.95,0,1.75.29,2.34.84l-.71.94c-.49-.45-1.13-.66-1.72-.66s-.88.25-.88.61c0,.41.5.53,1.2.69.99.22,2.25.52,2.25,1.85,0,1.1-.78,1.93-2.4,1.93-1.15,0-1.98-.39-2.55-.96l.7-.97Z"/>
      <path class="f" d="M153.49,118.26h-1.76v-1.12h4.79v1.12h-1.75v4.88h-1.29v-4.88Z"/>
      <path class="f" d="M157.57,117.13h4.25v1.1h-2.97v1.31h2.91v1.1h-2.91v1.4h2.97v1.11h-4.25v-6Z"/>
      <path class="f" d="M166.57,119.01l-1.04,4.12h-1.36l-1.72-6h1.43l1.05,4.34,1.14-4.34h1l1.13,4.34,1.04-4.34h1.44l-1.71,6h-1.36l-1.05-4.12Z"/>
      <path class="f" d="M174.96,122.1h-2.68l-.38,1.04h-1.4l2.32-6h1.6l2.31,6h-1.39l-.38-1.04ZM172.62,120.99h1.99l-.99-2.75-1,2.75Z"/>
      <path class="f" d="M178.33,118.26h-1.76v-1.12h4.79v1.12h-1.75v4.88h-1.29v-4.88Z"/>
      <path class="f" d="M182.41,117.13h4.25v1.1h-2.97v1.31h2.91v1.1h-2.91v1.4h2.97v1.11h-4.25v-6Z"/>
      <path class="f" d="M190.08,120.98h-.94v2.15h-1.28v-6h2.81c1.25,0,2.02.82,2.02,1.94s-.67,1.63-1.31,1.78l1.35,2.29h-1.47l-1.18-2.15ZM190.49,118.23h-1.34v1.66h1.34c.51,0,.9-.32.9-.83s-.39-.83-.9-.83Z"/>
      <path class="f" d="M196.7,121.32c.42.44,1.08.81,1.91.81.7,0,1.04-.33,1.04-.67,0-.45-.52-.6-1.21-.76-.98-.23-2.24-.5-2.24-1.84,0-1,.86-1.81,2.28-1.81.95,0,1.75.29,2.34.84l-.71.94c-.49-.45-1.13-.66-1.72-.66s-.88.25-.88.61c0,.41.5.53,1.2.69.99.22,2.25.52,2.25,1.85,0,1.1-.78,1.93-2.4,1.93-1.15,0-1.98-.39-2.55-.96l.7-.97Z"/>
      <path class="f" d="M202.04,117.13h4.25v1.1h-2.97v1.31h2.91v1.1h-2.91v1.4h2.97v1.11h-4.25v-6Z"/>
      <path class="f" d="M207.21,120.14c0-1.85,1.4-3.11,3.15-3.11,1.37,0,2.13.72,2.56,1.47l-1.1.54c-.25-.49-.79-.87-1.46-.87-1.04,0-1.84.84-1.84,1.97s.79,1.97,1.84,1.97c.67,0,1.21-.38,1.46-.87l1.1.53c-.43.75-1.19,1.48-2.56,1.48-1.76,0-3.15-1.26-3.15-3.11Z"/>
      <path class="f" d="M215.29,118.26h-1.76v-1.12h4.79v1.12h-1.75v4.88h-1.29v-4.88Z"/>
      <path class="f" d="M222,117.03c1.82,0,3.14,1.3,3.14,3.11s-1.32,3.11-3.14,3.11-3.13-1.3-3.13-3.11,1.32-3.11,3.13-3.11ZM222,118.17c-1.11,0-1.82.85-1.82,1.97s.71,1.97,1.82,1.97,1.83-.86,1.83-1.97-.72-1.97-1.83-1.97Z"/>
      <path class="f" d="M228.47,120.98h-.94v2.15h-1.28v-6h2.81c1.25,0,2.02.82,2.02,1.94s-.67,1.63-1.31,1.78l1.35,2.29h-1.47l-1.18-2.15ZM228.87,118.23h-1.34v1.66h1.34c.51,0,.9-.32.9-.83s-.39-.83-.9-.83Z"/>
      <path class="f" d="M234.8,117.13h4.25v1.1h-2.97v1.31h2.91v1.1h-2.91v1.4h2.97v1.11h-4.25v-6Z"/>
      <path class="f" d="M241.54,119.1v4.03h-1.28v-6h1.31l2.78,3.89v-3.89h1.28v6h-1.23l-2.86-4.03Z"/>
      <path class="f" d="M249.95,117.03c1.24,0,2.03.6,2.48,1.31l-1.06.58c-.28-.42-.79-.76-1.42-.76-1.09,0-1.88.84-1.88,1.97s.79,1.97,1.88,1.97c.55,0,1.04-.22,1.3-.46v-.73h-1.6v-1.1h2.86v2.3c-.61.68-1.47,1.13-2.56,1.13-1.76,0-3.2-1.22-3.2-3.12s1.44-3.11,3.2-3.11Z"/>
      <path class="f" d="M253.75,117.13h1.28v6h-1.28v-6Z"/>
      <path class="f" d="M257.72,119.1v4.03h-1.28v-6h1.31l2.78,3.89v-3.89h1.28v6h-1.23l-2.86-4.03Z"/>
      <path class="f" d="M263.23,117.13h4.25v1.1h-2.97v1.31h2.91v1.1h-2.91v1.4h2.97v1.11h-4.25v-6Z"/>
      <path class="f" d="M268.69,117.13h4.25v1.1h-2.97v1.31h2.91v1.1h-2.91v1.4h2.97v1.11h-4.25v-6Z"/>
      <path class="f" d="M276.37,120.98h-.94v2.15h-1.28v-6h2.81c1.25,0,2.02.82,2.02,1.94s-.67,1.63-1.31,1.78l1.35,2.29h-1.47l-1.18-2.15ZM276.77,118.23h-1.34v1.66h1.34c.51,0,.9-.32.9-.83s-.39-.83-.9-.83Z"/>
      <path class="f" d="M280.16,117.13h1.28v6h-1.28v-6Z"/>
      <path class="f" d="M284.13,119.1v4.03h-1.28v-6h1.31l2.78,3.89v-3.89h1.28v6h-1.23l-2.86-4.03Z"/>
      <path class="f" d="M292.55,117.03c1.24,0,2.03.6,2.48,1.31l-1.06.58c-.28-.42-.79-.76-1.42-.76-1.09,0-1.88.84-1.88,1.97s.79,1.97,1.88,1.97c.55,0,1.04-.22,1.3-.46v-.73h-1.6v-1.1h2.86v2.3c-.61.68-1.47,1.13-2.56,1.13-1.76,0-3.2-1.22-3.2-3.12s1.44-3.11,3.2-3.11Z"/>
      <path class="f" d="M298.87,117.13h1.28v4.88h2.54v1.12h-3.82v-6Z"/>
      <path class="f" d="M303.79,117.13h1.28v6h-1.28v-6Z"/>
      <path class="f" d="M306.48,117.13h4.25v1.1h-2.97v1.31h2.91v1.1h-2.91v2.5h-1.28v-6Z"/>
      <path class="f" d="M311.83,117.13h4.25v1.1h-2.97v1.31h2.91v1.1h-2.91v1.4h2.97v1.11h-4.25v-6Z"/>
      <path class="f" d="M317.02,120.14c0-1.85,1.4-3.11,3.15-3.11,1.37,0,2.13.72,2.56,1.47l-1.1.54c-.25-.49-.79-.87-1.46-.87-1.04,0-1.84.84-1.84,1.97s.79,1.97,1.84,1.97c.67,0,1.21-.38,1.46-.87l1.1.53c-.43.75-1.19,1.48-2.56,1.48-1.76,0-3.15-1.26-3.15-3.11Z"/>
      <path class="f" d="M325.17,120.68l-2.31-3.55h1.46l1.5,2.41,1.48-2.41h1.46l-2.3,3.55v2.46h-1.28v-2.46Z"/>
      <path class="f" d="M328.89,120.14c0-1.85,1.4-3.11,3.15-3.11,1.37,0,2.13.72,2.56,1.47l-1.1.54c-.25-.49-.79-.87-1.46-.87-1.04,0-1.84.84-1.84,1.97s.79,1.97,1.84,1.97c.67,0,1.21-.38,1.46-.87l1.1.53c-.43.75-1.19,1.48-2.56,1.48-1.76,0-3.15-1.26-3.15-3.11Z"/>
      <path class="f" d="M335.58,117.13h1.28v4.88h2.54v1.12h-3.82v-6Z"/>
      <path class="f" d="M340.51,117.13h4.25v1.1h-2.97v1.31h2.91v1.1h-2.91v1.4h2.97v1.11h-4.25v-6Z"/>
      <path class="f" d="M348.49,117.13h2.81c1.3,0,2.02.88,2.02,1.94s-.72,1.92-2.02,1.92h-1.53v2.15h-1.28v-6ZM351.13,118.23h-1.36v1.66h1.36c.5,0,.88-.32.88-.83s-.38-.83-.88-.83Z"/>
      <path class="f" d="M358.45,120.61h-2.83v2.52h-1.28v-6h1.28v2.36h2.83v-2.36h1.29v6h-1.29v-2.52Z"/>
      <path class="f" d="M364.96,122.1h-2.68l-.38,1.04h-1.4l2.32-6h1.6l2.31,6h-1.4l-.38-1.04ZM362.62,120.99h1.99l-.99-2.75-1,2.75Z"/>
      <path class="f" d="M367.74,121.32c.42.44,1.08.81,1.91.81.7,0,1.04-.33,1.04-.67,0-.45-.52-.6-1.21-.76-.98-.23-2.24-.5-2.24-1.84,0-1,.86-1.81,2.28-1.81.95,0,1.75.29,2.34.84l-.71.94c-.49-.45-1.13-.66-1.72-.66s-.88.25-.88.61c0,.41.5.53,1.2.69.99.22,2.25.52,2.25,1.85,0,1.1-.78,1.93-2.4,1.93-1.15,0-1.98-.39-2.55-.96l.7-.97Z"/>
      <path class="f" d="M373.08,117.13h4.25v1.1h-2.97v1.31h2.91v1.1h-2.91v1.4h2.97v1.11h-4.25v-6Z"/>
      <path class="f" d="M378.83,121.32c.42.44,1.08.81,1.91.81.7,0,1.04-.33,1.04-.67,0-.45-.52-.6-1.21-.76-.98-.23-2.24-.5-2.24-1.84,0-1,.86-1.81,2.28-1.81.95,0,1.75.29,2.34.84l-.71.94c-.49-.45-1.13-.66-1.72-.66s-.88.25-.88.61c0,.41.5.53,1.2.69.99.22,2.25.52,2.25,1.85,0,1.1-.78,1.93-2.4,1.93-1.15,0-1.98-.39-2.55-.96l.7-.97Z"/>
    </g>
    <g>
      <path class="h" d="M46.1,71.75c-.29,1.17-.98,2.02-2.29,2.02-1.78,0-2.51-1.72-2.51-3.24s.78-3.11,2.58-3.11c1.24,0,1.97.84,2.22,1.97l-.73.13c-.22-.78-.6-1.46-1.52-1.46-1.34,0-1.7,1.46-1.7,2.53,0,.49.08,1.09.29,1.54.25.55.73.99,1.38.99.95,0,1.39-.71,1.58-1.52l.7.15Z"/>
      <path class="h" d="M48.98,68.99c1.34,0,2.01,1.17,2.01,2.38,0,1.28-.74,2.4-2.12,2.4s-1.98-1.21-1.98-2.41c0-1.27.72-2.37,2.1-2.37ZM47.93,72.61c.2.35.58.58,1,.58.47,0,.84-.24,1.05-.66.19-.36.23-.77.23-1.17,0-.43-.05-.88-.29-1.25-.22-.33-.59-.54-.99-.54-.44,0-.84.25-1.04.65-.17.33-.23.77-.23,1.14,0,.41.06.89.26,1.25Z"/>
      <path class="h" d="M52.65,69.95h.02c.26-.57.77-.96,1.42-.96.55,0,1.01.23,1.3.71.23.39.22,1,.22,1.45v2.53h-.7v-2.83c0-.27,0-.61-.13-.85-.15-.26-.49-.41-.78-.41-.37,0-.7.17-.95.46-.3.36-.36.77-.36,1.23v2.39h-.7v-4.57h.67v.85Z"/>
      <path class="h" d="M60.24,72.17c-.16.93-.78,1.6-1.76,1.6-1.36,0-1.95-1.18-1.95-2.38s.59-2.4,1.95-2.4c.99,0,1.6.64,1.76,1.58l-.65.12c-.06-.6-.43-1.11-1.09-1.11-.95,0-1.22,1-1.22,1.76s.22,1.82,1.18,1.82c.68,0,1.02-.5,1.13-1.12l.65.12Z"/>
      <path class="h" d="M64.92,72.43c-.27.84-1.07,1.34-1.94,1.34-1.39,0-2.1-1.1-2.1-2.38s.75-2.4,2.12-2.4,2.03,1.19,2,2.46h-3.32c0,.36.02.69.19,1.04.22.43.69.69,1.17.69.59,0,1.03-.34,1.22-.88l.67.14ZM64.22,70.93c0-.76-.41-1.4-1.22-1.4-.77,0-1.26.68-1.29,1.4h2.51Z"/>
      <path class="h" d="M66.81,75.17h-.7v-6.07h.64v.88h.02c.23-.6.73-1,1.41-1,1.28,0,1.81,1.27,1.81,2.37,0,.52-.1,1.1-.37,1.56-.31.5-.82.86-1.44.86s-1.05-.29-1.37-.81v2.21ZM68.02,69.61c-.62,0-1.08.55-1.21,1.12v1.02c0,.77.52,1.43,1.21,1.43.39,0,.75-.23.94-.56.21-.35.24-.83.24-1.23,0-.75-.23-1.77-1.18-1.77Z"/>
      <path class="h" d="M73.08,73.72l-.67.05c-1,0-1.3-.58-1.3-1.49v-2.65h-.81v-.56h.81v-1.13l.7-.07v1.21h1.02v.56h-1.02v2.76c0,.53.15.81.73.81l.54-.04v.56Z"/>
    </g>
    <g>
      <path class="h" d="M40.96,149.64v-6.18h2.07c.53,0,1.06.06,1.49.41.41.34.63.92.63,1.44,0,.48-.2.97-.54,1.31-.41.41-.93.5-1.49.5h-1.39v2.51h-.77ZM43.04,146.49c.37,0,.69-.04.98-.31.23-.23.34-.54.34-.86,0-.37-.14-.74-.43-.97-.26-.21-.52-.23-.84-.23h-1.36v2.38h1.31Z"/>
      <path class="h" d="M46.16,149.64v-6.18h.7v6.18h-.7Z"/>
      <path class="h" d="M51.13,146.8v-.2c0-.8-.35-1.11-1.16-1.11-.58,0-1.13.18-1.25.81l-.66-.11c.13-.95,1.13-1.25,1.97-1.25.5,0,1.06.05,1.4.45.38.41.38.98.38,1.5v1.77c0,.33,0,.67.1.96h-.7l-.08-.86c-.32.66-.87.95-1.6.95-.86,0-1.59-.48-1.59-1.39,0-.55.34-1.04.85-1.27.51-.24,1.19-.27,1.76-.27h.59ZM51.13,147.34h-.58c-.72,0-1.85.1-1.85,1.04,0,.57.49.8.99.8.86,0,1.45-.74,1.45-1.55v-.3Z"/>
      <path class="h" d="M53.73,145.91h.02c.26-.57.77-.96,1.42-.96.55,0,1.01.23,1.3.71.23.39.22,1,.22,1.45v2.53h-.7v-2.83c0-.27,0-.61-.13-.85-.15-.26-.49-.41-.78-.41-.37,0-.7.17-.95.46-.3.36-.36.77-.36,1.23v2.39h-.7v-4.57h.67v.85Z"/>
      <path class="h" d="M58.6,145.91h.02c.26-.57.77-.96,1.42-.96.55,0,1.01.23,1.3.71.23.39.22,1,.22,1.45v2.53h-.7v-2.83c0-.27,0-.61-.13-.85-.15-.26-.49-.41-.78-.41-.37,0-.7.17-.95.46-.3.36-.36.77-.36,1.23v2.39h-.7v-4.57h.67v.85Z"/>
      <path class="h" d="M63.64,144.26h-.77v-.79h.77v.79ZM63.6,149.64h-.7v-4.57h.7v4.57Z"/>
      <path class="h" d="M65.61,145.91h.02c.26-.57.77-.96,1.42-.96.55,0,1.01.23,1.3.71.23.39.22,1,.22,1.45v2.53h-.7v-2.83c0-.27,0-.61-.13-.85-.15-.26-.49-.41-.78-.41-.37,0-.7.17-.95.46-.3.36-.36.77-.36,1.23v2.39h-.7v-4.57h.67v.85Z"/>
      <path class="h" d="M71.34,144.95c.32,0,.64.06.93.2.12-.65.43-.79,1.05-.79h.18s0,.58,0,.58h-.07c-.41,0-.74.04-.81.52.28.31.44.71.44,1.13,0,.45-.24.87-.58,1.14-.33.25-.75.35-1.16.35-.21,0-.45-.07-.62-.07-.22,0-.49.19-.49.42,0,.22.14.34.34.39.32.07.76.05,1.08.07.4.02.98.03,1.34.16.42.16.7.56.7,1.01,0,1.16-1.38,1.31-2.26,1.31-.42,0-.95-.02-1.34-.18-.44-.18-.78-.5-.78-1.01,0-.48.26-.77.69-.93-.26-.17-.44-.38-.44-.72,0-.45.26-.65.63-.82-.39-.31-.59-.71-.59-1.21,0-.99.84-1.56,1.75-1.56ZM71.43,150.82c.34,0,.87-.05,1.18-.2.25-.12.4-.26.4-.54,0-.44-.5-.52-.97-.55-.27-.02-1.05,0-1.55-.07-.27.13-.5.3-.5.62,0,.63.97.74,1.44.74ZM71.34,147.52c.61,0,1.02-.41,1.02-1.02,0-.58-.46-1-1.02-1-.59,0-1.03.42-1.03,1.01,0,.62.41,1.01,1.03,1.01Z"/>
    </g>
    <g>
      <path class="h" d="M46.1,158.51c-.29,1.17-.98,2.02-2.29,2.02-1.78,0-2.51-1.72-2.51-3.24s.78-3.11,2.58-3.11c1.24,0,1.97.84,2.22,1.97l-.73.13c-.22-.78-.6-1.46-1.52-1.46-1.34,0-1.7,1.46-1.7,2.53,0,.49.08,1.09.29,1.54.25.55.73.99,1.38.99.95,0,1.39-.71,1.58-1.52l.7.15Z"/>
      <path class="h" d="M48.98,155.75c1.34,0,2.01,1.17,2.01,2.38,0,1.28-.74,2.4-2.12,2.4s-1.98-1.21-1.98-2.41c0-1.27.72-2.37,2.1-2.37ZM47.93,159.37c.2.35.58.58,1,.58.47,0,.84-.24,1.05-.66.19-.36.23-.77.23-1.17,0-.43-.05-.88-.29-1.25-.22-.33-.59-.54-.99-.54-.44,0-.84.25-1.04.65-.17.33-.23.77-.23,1.14,0,.41.06.89.26,1.25Z"/>
      <path class="h" d="M52.65,156.71h.02c.26-.57.77-.96,1.42-.96.55,0,1.01.23,1.3.71.23.39.22,1,.22,1.45v2.53h-.7v-2.83c0-.27,0-.61-.13-.85-.15-.26-.49-.41-.78-.41-.37,0-.7.17-.95.46-.3.36-.36.77-.36,1.23v2.39h-.7v-4.57h.67v.85Z"/>
      <path class="h" d="M60.24,158.93c-.16.93-.78,1.6-1.76,1.6-1.36,0-1.95-1.18-1.95-2.38s.59-2.4,1.95-2.4c.99,0,1.6.64,1.76,1.58l-.65.12c-.06-.6-.43-1.11-1.09-1.11-.95,0-1.22,1-1.22,1.76s.22,1.82,1.18,1.82c.68,0,1.02-.5,1.13-1.12l.65.12Z"/>
      <path class="h" d="M64.92,159.19c-.27.84-1.07,1.34-1.94,1.34-1.39,0-2.1-1.1-2.1-2.38s.75-2.4,2.12-2.4,2.03,1.19,2,2.46h-3.32c0,.36.02.69.19,1.04.22.43.69.69,1.17.69.59,0,1.03-.34,1.22-.88l.67.14ZM64.22,157.69c0-.76-.41-1.4-1.22-1.4-.77,0-1.26.68-1.29,1.4h2.51Z"/>
      <path class="h" d="M66.81,161.93h-.7v-6.07h.64v.88h.02c.23-.6.73-1,1.41-1,1.28,0,1.81,1.27,1.81,2.37,0,.52-.1,1.1-.37,1.56-.31.5-.82.86-1.44.86s-1.05-.29-1.37-.81v2.21ZM68.02,156.37c-.62,0-1.08.55-1.21,1.12v1.02c0,.77.52,1.43,1.21,1.43.39,0,.75-.23.94-.56.21-.35.24-.83.24-1.23,0-.75-.23-1.77-1.18-1.77Z"/>
      <path class="h" d="M73.08,160.48l-.67.05c-1,0-1.3-.58-1.3-1.49v-2.65h-.81v-.56h.81v-1.13l.7-.07v1.21h1.02v.56h-1.02v2.76c0,.53.15.81.73.81l.54-.04v.56Z"/>
    </g>
    <g>
      <path class="h" d="M107.41,73.68l-1.14-2.67h-1.71v2.67h-.77v-6.18h2.31c.5,0,.99.06,1.4.38s.66.83.66,1.35c0,.73-.43,1.39-1.15,1.58l1.22,2.86h-.81ZM106.01,70.38c.41,0,.76-.03,1.06-.34.22-.22.31-.51.31-.81,0-.36-.13-.66-.43-.86-.27-.19-.53-.2-.86-.2h-1.54v2.21h1.45Z"/>
      <path class="h" d="M113.01,72.43c-.27.84-1.07,1.34-1.94,1.34-1.39,0-2.1-1.1-2.1-2.38s.75-2.4,2.12-2.4,2.04,1.19,2,2.46h-3.32c0,.36.02.69.19,1.04.22.43.69.69,1.17.69.59,0,1.03-.34,1.22-.88l.67.14ZM112.31,70.93c0-.76-.41-1.4-1.22-1.4-.76,0-1.26.68-1.29,1.4h2.51Z"/>
      <path class="h" d="M117.38,69.11h.36v6.07h-.7v-2.36h-.03c-.23.58-.71.95-1.37.95-1.31,0-1.8-1.27-1.8-2.38s.56-2.4,1.86-2.4c.7,0,1.05.3,1.4.86l.28-.74ZM117.03,71.13c0-.41-.09-.86-.38-1.19-.2-.22-.52-.39-.83-.39-.94,0-1.2,1.09-1.2,1.83s.25,1.78,1.19,1.78c.46,0,.81-.3,1.01-.68.16-.3.21-.63.21-.96v-.39Z"/>
      <path class="h" d="M122.57,73.68h-.64v-.91h-.02c-.22.57-.77,1-1.4,1-.45,0-.88-.16-1.17-.51-.31-.38-.36-.9-.36-1.37v-2.78h.7v2.78c0,.26.02.6.15.84.13.25.45.43.74.43.38,0,.7-.17.95-.47.28-.34.35-.72.35-1.15v-2.43h.7v4.57Z"/>
      <path class="h" d="M124.68,68.3h-.77v-.79h.77v.79ZM124.65,73.68h-.7v-4.57h.7v4.57Z"/>
      <path class="h" d="M126.65,69.11v1.07h.02c.22-.62.6-1.2,1.34-1.2l.26.02v.68h-.14c-.54,0-.92.26-1.18.72-.19.33-.22.62-.22.98v2.3h-.7v-4.57h.63Z"/>
      <path class="h" d="M132.63,72.43c-.27.84-1.07,1.34-1.94,1.34-1.39,0-2.1-1.1-2.1-2.38s.75-2.4,2.12-2.4,2.04,1.19,2,2.46h-3.32c0,.36.02.69.19,1.04.22.43.69.69,1.17.69.59,0,1.03-.34,1.22-.88l.67.14ZM131.93,70.93c0-.76-.41-1.4-1.22-1.4-.76,0-1.26.68-1.29,1.4h2.51Z"/>
      <path class="h" d="M134.37,69.11v.88h.02c.23-.55.73-1,1.37-1s1.14.45,1.29,1.09c.25-.63.77-1.09,1.48-1.09.47,0,.92.26,1.15.66.23.38.22.88.22,1.31v2.73h-.7v-2.73c0-.31.02-.63-.13-.91-.15-.3-.45-.48-.76-.48-.35,0-.68.22-.88.51-.26.37-.25.7-.25,1.13v2.47h-.7v-2.9c0-.25-.02-.55-.15-.77-.16-.27-.46-.44-.76-.44s-.64.21-.83.45c-.23.3-.28.67-.28,1.04v2.62h-.7v-4.57h.64Z"/>
      <path class="h" d="M144.87,72.43c-.27.84-1.07,1.34-1.94,1.34-1.39,0-2.1-1.1-2.1-2.38s.75-2.4,2.12-2.4,2.04,1.19,2,2.46h-3.32c0,.36.02.69.19,1.04.22.43.69.69,1.17.69.59,0,1.03-.34,1.22-.88l.67.14ZM144.17,70.93c0-.76-.41-1.4-1.22-1.4-.76,0-1.26.68-1.29,1.4h2.51Z"/>
      <path class="h" d="M146.64,69.95h.02c.26-.57.77-.96,1.42-.96.55,0,1.01.23,1.3.71.23.39.22,1,.22,1.45v2.53h-.7v-2.83c0-.27,0-.61-.13-.85-.15-.26-.49-.41-.78-.41-.37,0-.7.17-.95.46-.3.36-.36.77-.36,1.23v2.39h-.7v-4.57h.67v.85Z"/>
      <path class="h" d="M153.02,73.72l-.67.05c-1,0-1.3-.58-1.3-1.49v-2.65h-.81v-.56h.81v-1.13l.7-.07v1.21h1.02v.56h-1.02v2.76c0,.53.15.81.73.81l.54-.04v.56Z"/>
      <path class="h" d="M154.17,72.33c.1.62.83.86,1.38.86.49,0,1.11-.17,1.11-.76,0-.49-.5-.62-.89-.69l-.75-.14c-.7-.13-1.34-.46-1.34-1.27,0-.95.87-1.34,1.71-1.34s1.58.31,1.81,1.15l-.65.13c-.18-.5-.65-.72-1.17-.72-.41,0-.97.16-.97.67s.41.6.82.67l.67.12c.33.06.67.13.95.32.36.24.55.62.55,1.04,0,1.04-1.01,1.41-1.9,1.41s-1.77-.37-2.01-1.31l.68-.13Z"/>
    </g>
    <g>
      <path class="h" d="M109.26,149.64v-6.18h2.07c.53,0,1.06.06,1.49.41.41.34.63.92.63,1.44,0,.48-.2.97-.54,1.31-.41.41-.93.5-1.49.5h-1.39v2.51h-.77ZM111.34,146.49c.37,0,.69-.04.98-.31.23-.23.34-.54.34-.86,0-.37-.14-.74-.43-.97-.26-.21-.52-.23-.84-.23h-1.36v2.38h1.31Z"/>
      <path class="h" d="M115,145.07v1.07h.02c.22-.62.6-1.2,1.34-1.2l.26.02v.68h-.14c-.54,0-.92.26-1.18.72-.19.33-.22.62-.22.98v2.3h-.7v-4.57h.63Z"/>
      <path class="h" d="M120.98,148.39c-.27.84-1.07,1.34-1.94,1.34-1.39,0-2.1-1.1-2.1-2.38s.75-2.4,2.12-2.4,2.04,1.19,2,2.46h-3.32c0,.36.02.69.19,1.04.22.43.69.69,1.17.69.59,0,1.03-.34,1.22-.88l.67.14ZM120.27,146.89c0-.76-.41-1.4-1.22-1.4-.76,0-1.26.68-1.29,1.4h2.51Z"/>
      <path class="h" d="M122.19,149.64v-6.18h.7v6.18h-.7Z"/>
      <path class="h" d="M125.09,144.26h-.77v-.79h.77v.79ZM125.05,149.64h-.7v-4.57h.7v4.57Z"/>
      <path class="h" d="M127.03,145.07v.88h.02c.23-.55.73-1,1.37-1s1.14.45,1.29,1.09c.25-.63.77-1.09,1.48-1.09.47,0,.92.26,1.15.66.23.38.22.88.22,1.31v2.73h-.7v-2.73c0-.31.02-.63-.13-.91-.15-.3-.45-.48-.76-.48-.35,0-.68.22-.88.51-.26.37-.25.7-.25,1.13v2.47h-.7v-2.9c0-.25-.02-.55-.15-.77-.16-.27-.46-.44-.76-.44s-.64.21-.83.45c-.23.3-.28.67-.28,1.04v2.62h-.7v-4.57h.64Z"/>
      <path class="h" d="M134.63,144.26h-.77v-.79h.77v.79ZM134.59,149.64h-.7v-4.57h.7v4.57Z"/>
      <path class="h" d="M136.61,145.91h.02c.26-.57.77-.96,1.42-.96.55,0,1.01.23,1.3.71.23.39.22,1,.22,1.45v2.53h-.7v-2.83c0-.27,0-.61-.13-.85-.15-.26-.49-.41-.78-.41-.37,0-.7.17-.95.46-.3.36-.36.77-.36,1.23v2.39h-.7v-4.57h.67v.85Z"/>
      <path class="h" d="M143.72,146.8v-.2c0-.8-.35-1.11-1.16-1.11-.58,0-1.13.18-1.25.81l-.66-.11c.13-.95,1.13-1.25,1.97-1.25.5,0,1.06.05,1.4.45.38.41.38.98.38,1.5v1.77c0,.33,0,.67.1.96h-.7l-.08-.86c-.32.66-.87.95-1.6.95-.86,0-1.59-.48-1.59-1.39,0-.55.34-1.04.85-1.27.51-.24,1.19-.27,1.76-.27h.59ZM143.72,147.34h-.58c-.72,0-1.85.1-1.85,1.04,0,.57.49.8.99.8.86,0,1.45-.74,1.45-1.55v-.3Z"/>
      <path class="h" d="M146.32,145.07v1.07h.02c.22-.62.6-1.2,1.34-1.2l.26.02v.68h-.14c-.54,0-.92.26-1.18.72-.19.33-.22.62-.22.98v2.3h-.7v-4.57h.63Z"/>
      <path class="h" d="M150.4,150.07c-.13.33-.22.59-.47.85-.28.3-.52.35-.93.35-.18,0-.35-.04-.52-.08v-.57c.15.04.31.06.47.06.71,0,.84-.58,1.03-1.12l-1.58-4.49h.73l1.22,3.44,1.25-3.44h.59l-1.79,5Z"/>
    </g>
    <g>
      <path class="h" d="M103.15,154.26h1.95c.88,0,1.54.18,2.12.87.53.62.75,1.4.75,2.2,0,.76-.2,1.5-.64,2.12-.5.69-1.13.98-1.98.98h-2.21v-6.18ZM105.05,159.78c.71,0,1.28-.16,1.68-.78.31-.47.45-1.11.45-1.67,0-.63-.16-1.29-.57-1.79-.42-.53-.92-.63-1.57-.63h-1.13v4.87h1.13Z"/>
      <path class="h" d="M112.69,159.19c-.27.84-1.07,1.34-1.94,1.34-1.39,0-2.1-1.1-2.1-2.38s.75-2.4,2.12-2.4,2.03,1.19,2,2.46h-3.32c0,.36.02.69.19,1.04.22.43.69.69,1.17.69.59,0,1.03-.34,1.22-.88l.67.14ZM111.99,157.69c0-.76-.41-1.4-1.22-1.4-.77,0-1.26.68-1.29,1.4h2.51Z"/>
      <path class="h" d="M114.25,159.09c.1.62.83.86,1.38.86.49,0,1.11-.17,1.11-.76,0-.49-.5-.62-.89-.69l-.75-.14c-.7-.13-1.34-.46-1.34-1.27,0-.95.87-1.34,1.71-1.34s1.58.31,1.81,1.15l-.65.13c-.18-.5-.65-.72-1.17-.72-.41,0-.97.16-.97.67s.41.6.82.67l.67.12c.33.06.67.13.95.32.36.24.55.62.55,1.04,0,1.04-1.01,1.41-1.9,1.41s-1.77-.37-2.01-1.31l.68-.13Z"/>
      <path class="h" d="M119.33,155.06h-.77v-.79h.77v.79ZM119.29,160.44h-.7v-4.57h.7v4.57Z"/>
      <path class="h" d="M122.17,155.75c.32,0,.64.06.93.2.12-.65.43-.79,1.05-.79h.18s0,.58,0,.58h-.07c-.41,0-.74.04-.81.52.28.31.44.71.44,1.13,0,.45-.24.87-.58,1.14-.33.25-.75.35-1.16.35-.21,0-.45-.07-.62-.07-.22,0-.49.19-.49.42,0,.22.14.34.34.39.32.07.76.05,1.08.07.4.02.98.03,1.34.16.42.16.7.56.7,1.01,0,1.16-1.38,1.31-2.26,1.31-.42,0-.95-.02-1.34-.18-.44-.18-.78-.5-.78-1.01,0-.48.26-.77.69-.93-.26-.17-.44-.38-.44-.72,0-.45.26-.65.63-.82-.39-.31-.59-.71-.59-1.21,0-.99.84-1.56,1.75-1.56ZM122.26,161.62c.34,0,.87-.05,1.18-.2.25-.12.4-.26.4-.54,0-.44-.5-.52-.97-.55-.27-.02-1.05,0-1.55-.07-.27.13-.5.3-.5.62,0,.63.97.74,1.44.74ZM122.17,158.32c.61,0,1.02-.41,1.02-1.02,0-.58-.46-1-1.02-1-.59,0-1.03.42-1.03,1.01,0,.62.41,1.01,1.03,1.01Z"/>
      <path class="h" d="M125.81,156.71h.02c.26-.57.77-.96,1.42-.96.55,0,1.01.23,1.3.71.23.39.22,1,.22,1.45v2.53h-.7v-2.83c0-.27,0-.61-.13-.85-.15-.26-.49-.41-.78-.41-.37,0-.7.17-.95.46-.3.36-.36.77-.36,1.23v2.39h-.7v-4.57h.67v.85Z"/>
      <path class="h" d="M136.44,160.44l-1.14-2.67h-1.71v2.67h-.77v-6.18h2.31c.5,0,.99.06,1.4.38s.66.83.66,1.35c0,.73-.43,1.39-1.15,1.58l1.22,2.86h-.81ZM135.03,157.14c.41,0,.76-.03,1.06-.34.22-.22.31-.51.31-.81,0-.36-.13-.66-.43-.86-.27-.19-.53-.2-.86-.2h-1.54v2.21h1.45Z"/>
      <path class="h" d="M142.03,159.19c-.27.84-1.07,1.34-1.94,1.34-1.39,0-2.1-1.1-2.1-2.38s.75-2.4,2.12-2.4,2.03,1.19,2,2.46h-3.32c0,.36.02.69.19,1.04.22.43.69.69,1.17.69.59,0,1.03-.34,1.22-.88l.67.14ZM141.33,157.69c0-.76-.41-1.4-1.22-1.4-.77,0-1.26.68-1.29,1.4h2.51Z"/>
      <path class="h" d="M143.92,161.93h-.7v-6.07h.64v.88h.02c.23-.6.73-1,1.41-1,1.28,0,1.81,1.27,1.81,2.37,0,.52-.1,1.1-.37,1.56-.31.5-.82.86-1.44.86s-1.05-.29-1.37-.81v2.21ZM145.13,156.37c-.62,0-1.08.55-1.21,1.12v1.02c0,.77.52,1.43,1.21,1.43.39,0,.75-.23.94-.56.21-.35.24-.83.24-1.23,0-.75-.23-1.77-1.18-1.77Z"/>
      <path class="h" d="M149.85,155.75c1.34,0,2.01,1.17,2.01,2.38,0,1.28-.74,2.4-2.12,2.4s-1.98-1.21-1.98-2.41c0-1.27.72-2.37,2.1-2.37ZM148.8,159.37c.2.35.58.58,1,.58.47,0,.84-.24,1.05-.66.19-.36.23-.77.23-1.17,0-.43-.05-.88-.29-1.25-.22-.33-.59-.54-.99-.54-.44,0-.84.25-1.04.65-.17.33-.23.77-.23,1.14,0,.41.06.89.26,1.25Z"/>
      <path class="h" d="M153.52,155.87v1.07h.02c.22-.62.6-1.2,1.34-1.2l.26.02v.68h-.14c-.54,0-.92.26-1.18.72-.19.33-.22.62-.22.98v2.3h-.7v-4.57h.63Z"/>
      <path class="h" d="M158.37,160.48l-.67.05c-1,0-1.3-.58-1.3-1.49v-2.65h-.81v-.56h.81v-1.13l.7-.07v1.21h1.02v.56h-1.02v2.76c0,.53.15.81.73.81l.54-.04v.56Z"/>
    </g>
    <g>
      <path class="h" d="M191.06,67.5h1.95c.88,0,1.54.18,2.12.87.53.62.75,1.4.75,2.2,0,.76-.2,1.5-.64,2.12-.5.69-1.13.98-1.98.98h-2.21v-6.18ZM192.97,73.02c.71,0,1.28-.16,1.68-.78.31-.47.45-1.11.45-1.67,0-.63-.16-1.29-.57-1.79-.42-.53-.92-.63-1.57-.63h-1.13v4.87h1.13Z"/>
      <path class="h" d="M200.61,72.43c-.27.84-1.07,1.34-1.94,1.34-1.39,0-2.1-1.1-2.1-2.38s.75-2.4,2.12-2.4,2.03,1.19,2,2.46h-3.32c0,.36.02.69.19,1.04.22.43.69.69,1.17.69.59,0,1.03-.34,1.22-.88l.67.14ZM199.9,70.93c0-.76-.41-1.4-1.22-1.4-.77,0-1.26.68-1.29,1.4h2.51Z"/>
      <path class="h" d="M202.16,72.33c.1.62.83.86,1.38.86.49,0,1.11-.17,1.11-.76,0-.49-.5-.62-.89-.69l-.75-.14c-.7-.13-1.34-.46-1.34-1.27,0-.95.87-1.34,1.71-1.34s1.58.31,1.81,1.15l-.65.13c-.18-.5-.65-.72-1.17-.72-.41,0-.97.16-.97.67s.41.6.82.67l.67.12c.33.06.67.13.95.32.36.24.55.62.55,1.04,0,1.04-1.01,1.41-1.9,1.41s-1.77-.37-2.01-1.31l.68-.13Z"/>
      <path class="h" d="M207.24,68.3h-.77v-.79h.77v.79ZM207.2,73.68h-.7v-4.57h.7v4.57Z"/>
      <path class="h" d="M210.08,68.99c.32,0,.64.06.93.2.12-.65.43-.79,1.05-.79h.18s0,.58,0,.58h-.07c-.41,0-.74.04-.81.52.28.31.44.71.44,1.13,0,.45-.24.87-.58,1.14-.33.25-.75.35-1.16.35-.21,0-.45-.07-.62-.07-.22,0-.49.19-.49.42,0,.22.14.34.34.39.32.07.76.05,1.08.07.4.02.98.03,1.34.16.42.16.7.56.7,1.01,0,1.16-1.38,1.31-2.26,1.31-.42,0-.95-.02-1.34-.18-.44-.18-.78-.5-.78-1.01,0-.48.26-.77.69-.93-.26-.17-.44-.38-.44-.72,0-.45.26-.65.63-.82-.39-.31-.59-.71-.59-1.21,0-.99.84-1.56,1.75-1.56ZM210.17,74.86c.34,0,.87-.05,1.18-.2.25-.12.4-.26.4-.54,0-.44-.5-.52-.97-.55-.27-.02-1.05,0-1.55-.07-.27.13-.5.3-.5.62,0,.63.97.74,1.44.74ZM210.08,71.56c.61,0,1.02-.41,1.02-1.02,0-.58-.46-1-1.02-1-.59,0-1.03.42-1.03,1.01,0,.62.41,1.01,1.03,1.01Z"/>
      <path class="h" d="M213.72,69.95h.02c.26-.57.77-.96,1.42-.96.55,0,1.01.23,1.3.71.23.39.22,1,.22,1.45v2.53h-.7v-2.83c0-.27,0-.61-.13-.85-.15-.26-.49-.41-.78-.41-.37,0-.7.17-.95.46-.3.36-.36.77-.36,1.23v2.39h-.7v-4.57h.67v.85Z"/>
    </g>
    <g>
      <path class="h" d="M178.28,148.86h1.95c.88,0,1.54.18,2.12.87.53.62.75,1.4.75,2.2,0,.76-.2,1.5-.64,2.12-.5.69-1.13.98-1.98.98h-2.21v-6.18ZM180.19,154.38c.71,0,1.28-.16,1.68-.78.31-.47.45-1.11.45-1.67,0-.63-.16-1.29-.57-1.79-.42-.53-.92-.63-1.57-.63h-1.13v4.87h1.13Z"/>
      <path class="h" d="M187.83,153.79c-.27.84-1.07,1.34-1.94,1.34-1.39,0-2.1-1.1-2.1-2.38s.75-2.4,2.12-2.4,2.04,1.19,2,2.46h-3.32c0,.36.02.69.19,1.04.22.43.69.69,1.17.69.59,0,1.03-.34,1.22-.88l.67.14ZM187.12,152.29c0-.76-.41-1.4-1.22-1.4-.76,0-1.26.68-1.29,1.4h2.51Z"/>
      <path class="h" d="M191.12,155.08l-.67.05c-1,0-1.3-.58-1.3-1.49v-2.65h-.81v-.56h.81v-1.13l.7-.07v1.21h1.02v.56h-1.02v2.76c0,.53.15.81.73.81l.54-.04v.56Z"/>
      <path class="h" d="M194.73,152.2v-.2c0-.8-.35-1.11-1.16-1.11-.58,0-1.13.18-1.25.81l-.66-.11c.13-.95,1.13-1.25,1.97-1.25.5,0,1.06.05,1.4.45.38.41.38.98.38,1.5v1.77c0,.33,0,.67.1.96h-.7l-.08-.86c-.32.66-.87.95-1.6.95-.86,0-1.59-.48-1.59-1.39,0-.55.34-1.04.85-1.27.51-.24,1.19-.27,1.76-.27h.59ZM194.73,152.74h-.58c-.72,0-1.85.1-1.85,1.04,0,.57.49.8.99.8.86,0,1.45-.74,1.45-1.55v-.3Z"/>
      <path class="h" d="M197.52,149.66h-.77v-.79h.77v.79ZM197.48,155.04h-.7v-4.57h.7v4.57Z"/>
      <path class="h" d="M198.94,155.04v-6.18h.7v6.18h-.7Z"/>
      <path class="h" d="M203.84,148.86h1.95c.88,0,1.54.18,2.12.87.53.62.75,1.4.75,2.2,0,.76-.2,1.5-.64,2.12-.5.69-1.13.98-1.98.98h-2.21v-6.18ZM205.75,154.38c.71,0,1.28-.16,1.68-.78.31-.47.45-1.11.45-1.67,0-.63-.16-1.29-.57-1.79-.42-.53-.92-.63-1.57-.63h-1.13v4.87h1.13Z"/>
      <path class="h" d="M213.39,153.79c-.27.84-1.07,1.34-1.94,1.34-1.39,0-2.1-1.1-2.1-2.38s.75-2.4,2.12-2.4,2.03,1.19,2,2.46h-3.32c0,.36.02.69.19,1.04.22.43.69.69,1.17.69.59,0,1.03-.34,1.22-.88l.67.14ZM212.68,152.29c0-.76-.41-1.4-1.22-1.4-.77,0-1.26.68-1.29,1.4h2.51Z"/>
      <path class="h" d="M214.94,153.69c.1.62.83.86,1.38.86.49,0,1.11-.17,1.11-.76,0-.49-.5-.62-.89-.69l-.75-.14c-.7-.13-1.34-.46-1.34-1.27,0-.95.87-1.34,1.71-1.34s1.58.31,1.81,1.15l-.65.13c-.18-.5-.65-.72-1.17-.72-.41,0-.97.16-.97.67s.41.6.82.67l.67.12c.33.06.67.13.95.32.36.24.55.62.55,1.04,0,1.04-1.01,1.41-1.9,1.41s-1.77-.37-2.01-1.31l.68-.13Z"/>
      <path class="h" d="M220.02,149.66h-.77v-.79h.77v.79ZM219.98,155.04h-.7v-4.57h.7v4.57Z"/>
      <path class="h" d="M222.86,150.35c.32,0,.64.06.93.2.12-.65.43-.79,1.05-.79h.18s0,.58,0,.58h-.07c-.41,0-.74.04-.81.52.28.31.44.71.44,1.13,0,.45-.24.87-.58,1.14-.33.25-.75.35-1.16.35-.21,0-.45-.07-.62-.07-.22,0-.49.19-.49.42,0,.22.14.34.34.39.32.07.76.05,1.08.07.4.02.98.03,1.34.16.42.16.7.56.7,1.01,0,1.16-1.38,1.31-2.26,1.31-.42,0-.95-.02-1.34-.18-.44-.18-.78-.5-.78-1.01,0-.48.26-.77.69-.93-.26-.17-.44-.38-.44-.72,0-.45.26-.65.63-.82-.39-.31-.59-.71-.59-1.21,0-.99.84-1.56,1.75-1.56ZM222.95,156.22c.34,0,.87-.05,1.18-.2.25-.12.4-.26.4-.54,0-.44-.5-.52-.97-.55-.27-.02-1.05,0-1.55-.07-.27.13-.5.3-.5.62,0,.63.97.74,1.44.74ZM222.86,152.93c.61,0,1.02-.41,1.02-1.02,0-.58-.46-1-1.02-1-.59,0-1.03.42-1.03,1.01,0,.62.41,1.01,1.03,1.01Z"/>
      <path class="h" d="M226.5,151.31h.02c.26-.57.77-.96,1.42-.96.55,0,1.01.23,1.3.71.23.39.22,1,.22,1.45v2.53h-.7v-2.83c0-.27,0-.61-.13-.85-.15-.26-.49-.41-.78-.41-.37,0-.7.17-.95.46-.3.36-.36.77-.36,1.23v2.39h-.7v-4.57h.67v.85Z"/>
    </g>
    <g>
      <path class="h" d="M252.24,67.5h1.95c.88,0,1.54.18,2.12.87.53.62.75,1.4.75,2.2,0,.76-.2,1.5-.64,2.12-.5.69-1.13.98-1.98.98h-2.21v-6.18ZM254.15,73.02c.71,0,1.28-.16,1.68-.78.31-.47.45-1.11.45-1.67,0-.63-.16-1.29-.57-1.79-.42-.53-.92-.63-1.57-.63h-1.13v4.87h1.13Z"/>
      <path class="h" d="M261.79,72.43c-.27.84-1.07,1.34-1.94,1.34-1.39,0-2.1-1.1-2.1-2.38s.75-2.4,2.12-2.4,2.03,1.19,2,2.46h-3.32c0,.36.02.69.19,1.04.22.43.69.69,1.17.69.59,0,1.03-.34,1.22-.88l.67.14ZM261.09,70.93c0-.76-.41-1.4-1.22-1.4-.77,0-1.26.68-1.29,1.4h2.51Z"/>
      <path class="h" d="M264.56,73.68h-.74l-1.63-4.57h.78l1.28,3.72,1.25-3.72h.63l-1.58,4.57Z"/>
      <path class="h" d="M270.52,72.43c-.27.84-1.07,1.34-1.94,1.34-1.39,0-2.1-1.1-2.1-2.38s.75-2.4,2.12-2.4,2.03,1.19,2,2.46h-3.32c0,.36.02.69.19,1.04.22.43.69.69,1.17.69.59,0,1.03-.34,1.22-.88l.67.14ZM269.82,70.93c0-.76-.41-1.4-1.22-1.4-.77,0-1.26.68-1.29,1.4h2.51Z"/>
      <path class="h" d="M271.73,73.68v-6.18h.7v6.18h-.7Z"/>
      <path class="h" d="M275.64,68.99c1.34,0,2.01,1.17,2.01,2.38,0,1.28-.74,2.4-2.12,2.4s-1.98-1.21-1.98-2.41c0-1.27.72-2.37,2.1-2.37ZM274.59,72.61c.2.35.58.58,1,.58.47,0,.84-.24,1.05-.66.19-.36.23-.77.23-1.17,0-.43-.05-.88-.29-1.25-.22-.33-.59-.54-.99-.54-.44,0-.84.25-1.04.65-.17.33-.23.77-.23,1.14,0,.41.06.89.26,1.25Z"/>
      <path class="h" d="M279.43,75.17h-.7v-6.07h.64v.88h.02c.23-.6.73-1,1.41-1,1.28,0,1.81,1.27,1.81,2.37,0,.52-.1,1.1-.37,1.56-.31.5-.82.86-1.44.86s-1.05-.29-1.37-.81v2.21ZM280.63,69.61c-.62,0-1.08.55-1.21,1.12v1.02c0,.77.52,1.43,1.21,1.43.39,0,.75-.23.94-.56.21-.35.24-.83.24-1.23,0-.75-.23-1.77-1.18-1.77Z"/>
      <path class="h" d="M284.13,69.11v.88h.02c.23-.55.73-1,1.37-1s1.14.45,1.29,1.09c.25-.63.77-1.09,1.48-1.09.47,0,.92.26,1.15.66.23.38.22.88.22,1.31v2.73h-.7v-2.73c0-.31.02-.63-.13-.91-.15-.3-.45-.48-.76-.48-.35,0-.68.22-.88.51-.26.37-.25.7-.25,1.13v2.47h-.7v-2.9c0-.25-.02-.55-.15-.77-.16-.27-.46-.44-.76-.44s-.64.21-.83.45c-.23.3-.28.67-.28,1.04v2.62h-.7v-4.57h.64Z"/>
      <path class="h" d="M294.64,72.43c-.27.84-1.07,1.34-1.94,1.34-1.39,0-2.1-1.1-2.1-2.38s.75-2.4,2.12-2.4,2.03,1.19,2,2.46h-3.32c0,.36.02.69.19,1.04.22.43.69.69,1.17.69.59,0,1.03-.34,1.22-.88l.67.14ZM293.94,70.93c0-.76-.41-1.4-1.22-1.4-.77,0-1.26.68-1.29,1.4h2.51Z"/>
      <path class="h" d="M296.41,69.95h.02c.26-.57.77-.96,1.42-.96.55,0,1.01.23,1.3.71.23.39.22,1,.22,1.45v2.53h-.7v-2.83c0-.27,0-.61-.13-.85-.15-.26-.49-.41-.78-.41-.37,0-.7.17-.95.46-.3.36-.36.77-.36,1.23v2.39h-.7v-4.57h.67v.85Z"/>
      <path class="h" d="M302.79,73.72l-.67.05c-1,0-1.3-.58-1.3-1.49v-2.65h-.81v-.56h.81v-1.13l.7-.07v1.21h1.02v.56h-1.02v2.76c0,.53.15.81.73.81l.54-.04v.56Z"/>
    </g>
    <g>
      <path class="h" d="M254.05,153.11c-.29,1.17-.98,2.02-2.29,2.02-1.78,0-2.51-1.72-2.51-3.24s.78-3.11,2.58-3.11c1.24,0,1.97.84,2.22,1.97l-.73.13c-.22-.78-.6-1.46-1.52-1.46-1.34,0-1.7,1.46-1.7,2.53,0,.49.08,1.09.29,1.54.25.55.73.99,1.38.99.95,0,1.39-.71,1.58-1.52l.7.15Z"/>
      <path class="h" d="M256.93,150.35c1.34,0,2.01,1.17,2.01,2.38,0,1.28-.74,2.4-2.12,2.4s-1.98-1.21-1.98-2.41c0-1.27.72-2.37,2.1-2.37ZM255.88,153.97c.2.35.58.58,1,.58.47,0,.84-.24,1.05-.66.19-.36.23-.77.23-1.17,0-.43-.05-.88-.29-1.25-.22-.33-.59-.54-.99-.54-.44,0-.84.25-1.04.65-.17.33-.23.77-.23,1.14,0,.41.06.89.26,1.25Z"/>
      <path class="h" d="M260.6,151.31h.02c.26-.57.77-.96,1.42-.96.55,0,1.01.23,1.3.71.23.39.22,1,.22,1.45v2.53h-.7v-2.83c0-.27,0-.61-.13-.85-.15-.26-.49-.41-.78-.41-.37,0-.7.17-.95.46-.3.36-.36.77-.36,1.23v2.39h-.7v-4.57h.67v.85Z"/>
      <path class="h" d="M265.24,153.69c.1.62.83.86,1.38.86.49,0,1.11-.17,1.11-.76,0-.49-.5-.62-.89-.69l-.75-.14c-.7-.13-1.34-.46-1.34-1.27,0-.95.87-1.34,1.71-1.34s1.58.31,1.81,1.15l-.65.13c-.18-.5-.65-.72-1.17-.72-.41,0-.97.16-.97.67s.41.6.82.67l.67.12c.33.06.67.13.95.32.36.24.55.62.55,1.04,0,1.04-1.01,1.41-1.9,1.41s-1.77-.37-2.01-1.31l.68-.13Z"/>
      <path class="h" d="M271.66,155.08l-.67.05c-1,0-1.3-.58-1.3-1.49v-2.65h-.81v-.56h.81v-1.13l.7-.07v1.21h1.02v.56h-1.02v2.76c0,.53.15.81.73.81l.54-.04v.56Z"/>
      <path class="h" d="M273.01,150.47v1.07h.02c.22-.62.6-1.2,1.34-1.2l.26.02v.68h-.14c-.54,0-.92.26-1.18.72-.19.33-.22.62-.22.98v2.3h-.7v-4.57h.63Z"/>
      <path class="h" d="M279,155.04h-.64v-.91h-.02c-.22.57-.77,1-1.4,1-.45,0-.88-.16-1.17-.51-.31-.38-.36-.9-.36-1.37v-2.78h.7v2.78c0,.26.02.6.15.84.13.25.45.43.74.43.38,0,.7-.17.95-.47.28-.34.35-.72.35-1.15v-2.43h.7v4.57Z"/>
      <path class="h" d="M283.66,153.53c-.16.93-.78,1.6-1.76,1.6-1.36,0-1.95-1.18-1.95-2.38s.59-2.4,1.95-2.4c.99,0,1.6.64,1.76,1.58l-.65.12c-.06-.6-.43-1.11-1.09-1.11-.95,0-1.22,1-1.22,1.76s.22,1.82,1.18,1.82c.68,0,1.02-.5,1.13-1.12l.65.12Z"/>
      <path class="h" d="M286.77,155.08l-.67.05c-1,0-1.3-.58-1.3-1.49v-2.65h-.81v-.56h.81v-1.13l.7-.07v1.21h1.02v.56h-1.02v2.76c0,.53.15.81.73.81l.54-.04v.56Z"/>
      <path class="h" d="M288.31,149.66h-.77v-.79h.77v.79ZM288.27,155.04h-.7v-4.57h.7v4.57Z"/>
      <path class="h" d="M291.48,150.35c1.34,0,2.01,1.17,2.01,2.38,0,1.28-.74,2.4-2.12,2.4s-1.98-1.21-1.98-2.41c0-1.27.72-2.37,2.1-2.37ZM290.43,153.97c.2.35.58.58,1,.58.47,0,.84-.24,1.05-.66.19-.36.23-.77.23-1.17,0-.43-.05-.88-.29-1.25-.22-.33-.59-.54-.99-.54-.44,0-.84.25-1.04.65-.17.33-.23.77-.23,1.14,0,.41.06.89.26,1.25Z"/>
      <path class="h" d="M295.15,151.31h.02c.26-.57.77-.96,1.42-.96.55,0,1.01.23,1.3.71.23.39.22,1,.22,1.45v2.53h-.7v-2.83c0-.27,0-.61-.13-.85-.15-.26-.49-.41-.78-.41-.37,0-.7.17-.95.46-.3.36-.36.77-.36,1.23v2.39h-.7v-4.57h.67v.85Z"/>
      <path class="h" d="M304.96,152.2v-.2c0-.8-.35-1.11-1.16-1.11-.58,0-1.13.18-1.25.81l-.66-.11c.13-.95,1.13-1.25,1.97-1.25.5,0,1.06.05,1.4.45.38.41.38.98.38,1.5v1.77c0,.33,0,.67.1.96h-.7l-.08-.86c-.32.66-.87.95-1.6.95-.86,0-1.59-.48-1.59-1.39,0-.55.34-1.04.85-1.27.51-.24,1.19-.27,1.76-.27h.59ZM304.96,152.74h-.58c-.72,0-1.85.1-1.85,1.04,0,.57.49.8.99.8.86,0,1.45-.74,1.45-1.55v-.3Z"/>
      <path class="h" d="M307.57,151.31h.02c.26-.57.77-.96,1.42-.96.55,0,1.01.23,1.3.71.23.39.22,1,.22,1.45v2.53h-.7v-2.83c0-.27,0-.61-.13-.85-.15-.26-.49-.41-.78-.41-.37,0-.7.17-.95.46-.3.36-.36.77-.36,1.23v2.39h-.7v-4.57h.67v.85Z"/>
      <path class="h" d="M314.7,148.86h.7v6.18h-.64v-.81h-.02c-.29.58-.76.9-1.43.9-.6,0-1.06-.29-1.4-.77-.32-.47-.43-1.04-.43-1.6,0-1.14.57-2.4,1.89-2.4.58,0,1,.28,1.32.74v-2.22ZM314.7,152.33c0-.32-.04-.64-.23-.91-.23-.32-.63-.51-1.03-.51s-.74.24-.93.58c-.21.36-.27.77-.27,1.19,0,.75.2,1.87,1.18,1.87.41,0,.77-.23,1.01-.55.22-.3.27-.59.27-.94v-.73Z"/>
      <path class="h" d="M323.88,153.11c-.29,1.17-.98,2.02-2.29,2.02-1.78,0-2.51-1.72-2.51-3.24s.78-3.11,2.58-3.11c1.24,0,1.97.84,2.22,1.97l-.73.13c-.22-.78-.6-1.46-1.52-1.46-1.34,0-1.7,1.46-1.7,2.53,0,.49.08,1.09.29,1.54.25.55.73.99,1.38.99.95,0,1.39-.71,1.58-1.52l.7.15Z"/>
      <path class="h" d="M326.76,150.35c1.34,0,2.01,1.17,2.01,2.38,0,1.28-.74,2.4-2.12,2.4s-1.98-1.21-1.98-2.41c0-1.27.72-2.37,2.1-2.37ZM325.71,153.97c.2.35.58.58,1,.58.47,0,.84-.24,1.05-.66.19-.36.23-.77.23-1.17,0-.43-.05-.88-.29-1.25-.22-.33-.59-.54-.99-.54-.44,0-.84.25-1.04.65-.17.33-.23.77-.23,1.14,0,.41.06.89.26,1.25Z"/>
      <path class="h" d="M330.39,150.47v.88h.02c.23-.55.73-1,1.37-1s1.14.45,1.29,1.09c.25-.63.77-1.09,1.48-1.09.47,0,.92.26,1.15.66.23.38.22.88.22,1.31v2.73h-.7v-2.73c0-.31.02-.63-.13-.91-.15-.3-.45-.48-.76-.48-.35,0-.68.22-.88.51-.26.37-.25.7-.25,1.13v2.47h-.7v-2.9c0-.25-.02-.55-.15-.77-.16-.27-.46-.44-.76-.44s-.64.21-.83.45c-.23.3-.28.67-.28,1.04v2.62h-.7v-4.57h.64Z"/>
      <path class="h" d="M337.77,150.47v.88h.02c.23-.55.73-1,1.37-1s1.14.45,1.29,1.09c.25-.63.77-1.09,1.48-1.09.47,0,.92.26,1.15.66.23.38.22.88.22,1.31v2.73h-.7v-2.73c0-.31.02-.63-.13-.91-.15-.3-.45-.48-.76-.48-.35,0-.68.22-.88.51-.26.37-.25.7-.25,1.13v2.47h-.7v-2.9c0-.25-.02-.55-.15-.77-.16-.27-.46-.44-.76-.44s-.64.21-.83.45c-.23.3-.28.67-.28,1.04v2.62h-.7v-4.57h.64Z"/>
      <path class="h" d="M345.37,149.66h-.77v-.79h.77v.79ZM345.33,155.04h-.7v-4.57h.7v4.57Z"/>
      <path class="h" d="M347.13,153.69c.1.62.83.86,1.38.86.49,0,1.11-.17,1.11-.76,0-.49-.5-.62-.89-.69l-.75-.14c-.7-.13-1.34-.46-1.34-1.27,0-.95.87-1.34,1.71-1.34s1.58.31,1.81,1.15l-.65.13c-.18-.5-.65-.72-1.17-.72-.41,0-.97.16-.97.67s.41.6.82.67l.67.12c.33.06.67.13.95.32.36.24.55.62.55,1.04,0,1.04-1.01,1.41-1.9,1.41s-1.77-.37-2.01-1.31l.68-.13Z"/>
      <path class="h" d="M351.81,153.69c.1.62.83.86,1.38.86.49,0,1.11-.17,1.11-.76,0-.49-.5-.62-.89-.69l-.75-.14c-.7-.13-1.34-.46-1.34-1.27,0-.95.87-1.34,1.71-1.34s1.58.31,1.81,1.15l-.65.13c-.18-.5-.65-.72-1.17-.72-.41,0-.97.16-.97.67s.41.6.82.67l.67.12c.33.06.67.13.95.32.36.24.55.62.55,1.04,0,1.04-1.01,1.41-1.9,1.41s-1.77-.37-2.01-1.31l.68-.13Z"/>
      <path class="h" d="M356.89,149.66h-.77v-.79h.77v.79ZM356.85,155.04h-.7v-4.57h.7v4.57Z"/>
      <path class="h" d="M360.06,150.35c1.34,0,2.01,1.17,2.01,2.38,0,1.28-.74,2.4-2.12,2.4s-1.98-1.21-1.98-2.41c0-1.27.72-2.37,2.1-2.37ZM359,153.97c.2.35.58.58,1,.58.47,0,.84-.24,1.05-.66.19-.36.23-.77.23-1.17,0-.43-.05-.88-.29-1.25-.22-.33-.59-.54-.99-.54-.44,0-.84.25-1.04.65-.17.33-.23.77-.23,1.14,0,.41.06.89.26,1.25Z"/>
      <path class="h" d="M363.73,151.31h.02c.26-.57.77-.96,1.42-.96.55,0,1.01.23,1.3.71.23.39.22,1,.22,1.45v2.53h-.7v-2.83c0-.27,0-.61-.13-.85-.15-.26-.49-.41-.78-.41-.37,0-.7.17-.95.46-.3.36-.36.77-.36,1.23v2.39h-.7v-4.57h.67v.85Z"/>
      <path class="h" d="M368.77,149.66h-.77v-.79h.77v.79ZM368.73,155.04h-.7v-4.57h.7v4.57Z"/>
      <path class="h" d="M370.75,151.31h.02c.26-.57.77-.96,1.42-.96.55,0,1.01.23,1.3.71.23.39.22,1,.22,1.45v2.53h-.7v-2.83c0-.27,0-.61-.13-.85-.15-.26-.49-.41-.78-.41-.37,0-.7.17-.95.46-.3.36-.36.77-.36,1.23v2.39h-.7v-4.57h.67v.85Z"/>
      <path class="h" d="M376.47,150.35c.32,0,.64.06.93.2.12-.65.43-.79,1.05-.79h.18s0,.58,0,.58h-.07c-.41,0-.74.04-.81.52.28.31.44.71.44,1.13,0,.45-.24.87-.58,1.14-.33.25-.75.35-1.16.35-.21,0-.45-.07-.62-.07-.22,0-.49.19-.49.42,0,.22.14.34.34.39.32.07.76.05,1.08.07.4.02.98.03,1.34.16.42.16.7.56.7,1.01,0,1.16-1.38,1.31-2.26,1.31-.42,0-.95-.02-1.34-.18-.44-.18-.78-.5-.78-1.01,0-.48.26-.77.69-.93-.26-.17-.44-.38-.44-.72,0-.45.26-.65.63-.82-.39-.31-.59-.71-.59-1.21,0-.99.84-1.56,1.75-1.56ZM376.56,156.22c.34,0,.87-.05,1.18-.2.25-.12.4-.26.4-.54,0-.44-.5-.52-.97-.55-.27-.02-1.05,0-1.55-.07-.27.13-.5.3-.5.62,0,.63.97.74,1.44.74ZM376.47,152.93c.61,0,1.02-.41,1.02-1.02,0-.58-.46-1-1.02-1-.59,0-1.03.42-1.03,1.01,0,.62.41,1.01,1.03,1.01Z"/>
    </g>
    <g>
      <path class="h" d="M338.17,57.48h-.77v-5.5h-1.75v-.67h4.29v.67h-1.76v5.5Z"/>
      <path class="h" d="M343.51,56.23c-.27.84-1.07,1.34-1.94,1.34-1.39,0-2.1-1.1-2.1-2.38s.75-2.4,2.12-2.4,2.04,1.19,2,2.46h-3.32c0,.36.02.69.19,1.04.22.43.69.69,1.17.69.59,0,1.03-.34,1.22-.88l.67.14ZM342.81,54.73c0-.76-.41-1.4-1.22-1.4-.76,0-1.26.68-1.29,1.4h2.51Z"/>
      <path class="h" d="M345.06,56.13c.1.62.83.86,1.38.86.49,0,1.11-.17,1.11-.76,0-.49-.5-.62-.89-.69l-.75-.14c-.7-.13-1.34-.46-1.34-1.27,0-.95.87-1.34,1.71-1.34s1.58.31,1.81,1.15l-.65.13c-.18-.5-.65-.72-1.17-.72-.41,0-.97.16-.97.67s.41.6.82.67l.67.12c.33.06.67.13.95.32.36.24.55.62.55,1.04,0,1.04-1.01,1.41-1.9,1.41s-1.77-.37-2.01-1.31l.68-.13Z"/>
      <path class="h" d="M351.48,57.52l-.67.05c-1,0-1.3-.58-1.3-1.49v-2.65h-.81v-.56h.81v-1.13l.7-.07v1.21h1.02v.56h-1.02v2.76c0,.53.15.81.73.81l.54-.04v.56Z"/>
      <path class="h" d="M353.02,52.1h-.77v-.79h.77v.79ZM352.98,57.48h-.7v-4.57h.7v4.57Z"/>
      <path class="h" d="M355,53.75h.02c.26-.57.77-.96,1.42-.96.55,0,1.01.23,1.3.71.23.39.22,1,.22,1.45v2.53h-.7v-2.83c0-.27,0-.61-.13-.85-.15-.26-.49-.41-.78-.41-.37,0-.7.17-.95.46-.3.36-.36.77-.36,1.23v2.39h-.7v-4.57h.67v.85Z"/>
      <path class="h" d="M360.73,52.79c.32,0,.64.06.93.2.12-.65.43-.79,1.05-.79h.18s0,.58,0,.58h-.07c-.41,0-.74.04-.81.52.28.31.44.71.44,1.13,0,.45-.24.87-.58,1.14-.33.25-.75.35-1.16.35-.21,0-.45-.07-.62-.07-.22,0-.49.19-.49.42,0,.22.14.34.34.39.32.07.76.05,1.08.07.4.02.98.03,1.34.16.42.16.7.56.7,1.01,0,1.16-1.38,1.31-2.26,1.31-.42,0-.95-.02-1.34-.18-.44-.18-.78-.5-.78-1.01,0-.48.26-.77.69-.93-.26-.17-.44-.38-.44-.72,0-.45.26-.65.63-.82-.39-.31-.59-.71-.59-1.21,0-.99.84-1.56,1.75-1.56ZM360.81,58.66c.34,0,.87-.05,1.18-.2.25-.12.4-.26.4-.54,0-.44-.5-.52-.97-.55-.27-.02-1.05,0-1.55-.07-.27.13-.5.3-.5.62,0,.63.97.74,1.44.74ZM360.73,55.36c.61,0,1.02-.41,1.02-1.02,0-.58-.46-1-1.02-1-.59,0-1.03.42-1.03,1.01,0,.62.41,1.01,1.03,1.01Z"/>
      <path class="h" d="M365.21,57.37l-.68,1.27h-.39l.54-1.16h-.47v-1.04h.99v.93Z"/>
    </g>
    <path class="h" d="M330.89,68.28h-.74l-2.09-6.18h.81l1.72,5.1,1.71-5.1h.68l-2.09,6.18ZM336.88,67.03c-.27.84-1.07,1.34-1.94,1.34-1.39,0-2.1-1.1-2.1-2.38s.75-2.4,2.12-2.4,2.03,1.19,2,2.46h-3.32c0,.36.02.69.19,1.04.22.43.69.69,1.17.69.59,0,1.03-.34,1.22-.88l.67.14ZM336.17,65.53c0-.76-.41-1.4-1.22-1.4-.77,0-1.26.68-1.29,1.4h2.51ZM338.64,63.71v1.07h.02c.22-.62.6-1.2,1.34-1.2l.26.02v.68h-.14c-.54,0-.92.26-1.18.72-.19.33-.23.62-.23.98v2.3h-.7v-4.57h.63ZM341.71,62.9h-.77v-.79h.77v.79ZM341.67,68.28h-.7v-4.57h.7v4.57ZM345.07,63.71v.56h-1.06v4.02h-.7v-4.02h-.81v-.56h.81c0-.32,0-.67.14-.97.23-.49.66-.72,1.18-.72.15,0,.31.03.45.05v.56c-.12-.03-.23-.05-.36-.05-.71,0-.72.62-.7,1.13h1.06ZM346.25,62.9h-.77v-.79h.77v.79ZM346.22,68.28h-.7v-4.57h.7v4.57ZM350.92,66.77c-.16.93-.78,1.6-1.76,1.6-1.36,0-1.94-1.18-1.94-2.38s.59-2.4,1.95-2.4c.99,0,1.6.64,1.76,1.58l-.65.12c-.06-.6-.43-1.11-1.09-1.11-.95,0-1.22,1-1.22,1.76s.23,1.82,1.18,1.82c.68,0,1.02-.5,1.13-1.12l.65.12ZM354.76,65.44v-.2c0-.8-.35-1.11-1.16-1.11-.58,0-1.13.18-1.25.81l-.66-.11c.13-.95,1.13-1.25,1.97-1.25.5,0,1.06.05,1.4.45.38.41.38.98.38,1.5v1.77c0,.33,0,.67.1.96h-.7l-.08-.86c-.32.66-.87.95-1.6.95-.86,0-1.59-.48-1.59-1.39,0-.55.34-1.04.85-1.27.51-.24,1.19-.27,1.76-.27h.59ZM354.76,65.98h-.59c-.72,0-1.85.1-1.85,1.04,0,.57.49.8.99.8.86,0,1.45-.74,1.45-1.55v-.3ZM358.89,68.32l-.68.05c-1,0-1.3-.59-1.3-1.49v-2.65h-.81v-.56h.81v-1.13l.7-.07v1.21h1.02v.56h-1.02v2.76c0,.53.15.81.73.81l.54-.05v.56ZM360.43,62.9h-.77v-.79h.77v.79ZM360.39,68.28h-.7v-4.57h.7v4.57ZM363.6,63.59c1.34,0,2.01,1.17,2.01,2.38,0,1.28-.74,2.4-2.12,2.4s-1.98-1.21-1.98-2.41c0-1.27.72-2.37,2.1-2.37ZM362.54,67.21c.2.35.59.58,1,.58.47,0,.84-.24,1.05-.66.19-.36.23-.77.23-1.17,0-.43-.05-.88-.29-1.25-.22-.33-.59-.54-.99-.54-.44,0-.84.25-1.04.65-.17.33-.23.77-.23,1.14,0,.41.06.89.26,1.25ZM367.27,64.55h.02c.26-.57.77-.96,1.42-.96.55,0,1.01.23,1.3.71.23.39.22,1,.22,1.45v2.53h-.7v-2.83c0-.27,0-.61-.13-.85-.15-.26-.49-.41-.78-.41-.37,0-.7.17-.95.46-.3.36-.36.77-.36,1.23v2.39h-.7v-4.57h.67v.85ZM372.76,68.17l-.68,1.27h-.39l.54-1.16h-.47v-1.04h.99v.93Z"/>
    <g>
      <path class="h" d="M324.55,79.08h-.74l-2.09-6.18h.81l1.72,5.1,1.71-5.1h.67l-2.09,6.18Z"/>
      <path class="h" d="M329.78,76.24v-.2c0-.8-.35-1.11-1.16-1.11-.58,0-1.13.18-1.25.81l-.66-.11c.13-.95,1.13-1.25,1.97-1.25.5,0,1.06.05,1.4.45.38.41.38.98.38,1.5v1.77c0,.33,0,.67.1.96h-.7l-.08-.86c-.32.66-.87.95-1.6.95-.86,0-1.59-.48-1.59-1.39,0-.55.34-1.04.85-1.27.51-.24,1.19-.27,1.76-.27h.59ZM329.78,76.78h-.58c-.72,0-1.85.1-1.85,1.04,0,.57.49.8.99.8.86,0,1.45-.74,1.45-1.55v-.3Z"/>
      <path class="h" d="M331.84,79.08v-6.18h.7v6.18h-.7Z"/>
      <path class="h" d="M334.73,73.7h-.77v-.79h.77v.79ZM334.7,79.08h-.7v-4.57h.7v4.57Z"/>
      <path class="h" d="M338.98,72.9h.7v6.18h-.64v-.81h-.02c-.29.58-.76.9-1.43.9-.6,0-1.06-.29-1.4-.77-.32-.47-.43-1.04-.43-1.6,0-1.14.57-2.4,1.89-2.4.58,0,1,.28,1.32.74v-2.22ZM338.98,76.37c0-.31-.04-.64-.23-.91-.23-.32-.63-.51-1.03-.51s-.74.24-.93.58c-.21.36-.27.77-.27,1.19,0,.75.2,1.87,1.18,1.87.41,0,.77-.22,1.01-.55.22-.3.27-.59.27-.94v-.73Z"/>
      <path class="h" d="M343.82,76.24v-.2c0-.8-.35-1.11-1.16-1.11-.58,0-1.13.18-1.25.81l-.66-.11c.13-.95,1.13-1.25,1.97-1.25.5,0,1.06.05,1.4.45.38.41.38.98.38,1.5v1.77c0,.33,0,.67.1.96h-.7l-.08-.86c-.32.66-.87.95-1.6.95-.86,0-1.59-.48-1.59-1.39,0-.55.34-1.04.85-1.27.51-.24,1.19-.27,1.76-.27h.59ZM343.82,76.78h-.58c-.72,0-1.85.1-1.85,1.04,0,.57.49.8.99.8.86,0,1.45-.74,1.45-1.55v-.3Z"/>
      <path class="h" d="M347.95,79.12l-.67.05c-1,0-1.3-.58-1.3-1.49v-2.65h-.81v-.56h.81v-1.13l.7-.07v1.21h1.02v.56h-1.02v2.76c0,.53.15.81.73.81l.54-.04v.56Z"/>
      <path class="h" d="M349.49,73.7h-.77v-.79h.77v.79ZM349.46,79.08h-.7v-4.57h.7v4.57Z"/>
      <path class="h" d="M352.66,74.39c1.34,0,2.01,1.17,2.01,2.38,0,1.28-.74,2.4-2.12,2.4s-1.98-1.21-1.98-2.41c0-1.27.72-2.37,2.1-2.37ZM351.61,78.01c.2.35.58.58,1,.58.47,0,.84-.24,1.05-.66.19-.36.23-.77.23-1.17,0-.43-.05-.88-.29-1.25-.22-.33-.59-.54-.99-.54-.44,0-.84.25-1.04.65-.17.33-.23.77-.23,1.14,0,.41.06.89.26,1.25Z"/>
      <path class="h" d="M356.33,75.35h.02c.26-.57.77-.96,1.42-.96.55,0,1.01.23,1.3.71.23.39.22,1,.22,1.45v2.53h-.7v-2.83c0-.27,0-.61-.13-.85-.15-.26-.49-.41-.78-.41-.37,0-.7.17-.95.46-.3.36-.36.77-.36,1.23v2.39h-.7v-4.57h.67v.85Z"/>
      <path class="h" d="M361.82,78.97l-.68,1.27h-.39l.54-1.16h-.47v-1.04h.99v.93Z"/>
      <path class="h" d="M368.39,76.24v-.2c0-.8-.35-1.11-1.16-1.11-.58,0-1.13.18-1.25.81l-.66-.11c.13-.95,1.13-1.25,1.97-1.25.5,0,1.06.05,1.4.45.38.41.38.98.38,1.5v1.77c0,.33,0,.67.1.96h-.7l-.08-.86c-.32.66-.87.95-1.6.95-.86,0-1.59-.48-1.59-1.39,0-.55.34-1.04.85-1.27.51-.24,1.19-.27,1.76-.27h.59ZM368.39,76.78h-.58c-.72,0-1.85.1-1.85,1.04,0,.57.49.8.99.8.86,0,1.45-.74,1.45-1.55v-.3Z"/>
      <path class="h" d="M371,75.35h.02c.26-.57.77-.96,1.42-.96.55,0,1.01.23,1.3.71.23.39.22,1,.22,1.45v2.53h-.7v-2.83c0-.27,0-.61-.13-.85-.15-.26-.49-.41-.78-.41-.37,0-.7.17-.95.46-.3.36-.36.77-.36,1.23v2.39h-.7v-4.57h.67v.85Z"/>
      <path class="h" d="M378.13,72.9h.7v6.18h-.64v-.81h-.02c-.29.58-.76.9-1.43.9-.6,0-1.06-.29-1.4-.77-.32-.47-.43-1.04-.43-1.6,0-1.14.57-2.4,1.89-2.4.58,0,1,.28,1.32.74v-2.22ZM378.13,76.37c0-.31-.04-.64-.23-.91-.23-.32-.63-.51-1.03-.51s-.74.24-.93.58c-.21.36-.27.77-.27,1.19,0,.75.2,1.87,1.18,1.87.41,0,.77-.22,1.01-.55.22-.3.27-.59.27-.94v-.73Z"/>
    </g>
    <g>
      <path class="h" d="M325.62,83.7h1.95c.88,0,1.54.18,2.12.87.53.62.75,1.4.75,2.2,0,.76-.2,1.5-.64,2.12-.5.69-1.13.98-1.98.98h-2.21v-6.18ZM327.52,89.22c.71,0,1.28-.16,1.68-.78.31-.47.45-1.11.45-1.67,0-.63-.16-1.29-.57-1.79-.42-.53-.92-.63-1.57-.63h-1.13v4.87h1.13Z"/>
      <path class="h" d="M335.17,88.63c-.27.84-1.07,1.34-1.94,1.34-1.39,0-2.1-1.1-2.1-2.38s.75-2.4,2.12-2.4,2.03,1.19,2,2.46h-3.32c0,.36.02.69.19,1.04.22.43.69.69,1.17.69.59,0,1.03-.34,1.22-.88l.67.14ZM334.46,87.13c0-.76-.41-1.4-1.22-1.4-.77,0-1.26.68-1.29,1.4h2.51Z"/>
      <path class="h" d="M337.95,89.88h-.74l-1.63-4.57h.78l1.28,3.72,1.25-3.72h.63l-1.58,4.57Z"/>
      <path class="h" d="M343.9,88.63c-.27.84-1.07,1.34-1.94,1.34-1.39,0-2.1-1.1-2.1-2.38s.75-2.4,2.12-2.4,2.04,1.19,2,2.46h-3.32c0,.36.02.69.19,1.04.22.43.69.69,1.17.69.59,0,1.03-.34,1.22-.88l.67.14ZM343.2,87.13c0-.76-.41-1.4-1.22-1.4-.76,0-1.26.68-1.29,1.4h2.51Z"/>
      <path class="h" d="M345.12,89.88v-6.18h.7v6.18h-.7Z"/>
      <path class="h" d="M349.02,85.19c1.34,0,2.01,1.17,2.01,2.38,0,1.28-.74,2.4-2.12,2.4s-1.98-1.21-1.98-2.41c0-1.27.72-2.37,2.1-2.37ZM347.97,88.81c.2.35.58.58,1,.58.47,0,.84-.24,1.05-.66.19-.36.23-.77.23-1.17,0-.43-.05-.88-.29-1.25-.22-.33-.59-.54-.99-.54-.44,0-.84.25-1.04.65-.17.33-.23.77-.23,1.14,0,.41.06.89.26,1.25Z"/>
      <path class="h" d="M352.81,91.37h-.7v-6.07h.64v.88h.02c.23-.6.73-1,1.41-1,1.28,0,1.81,1.27,1.81,2.37,0,.52-.1,1.1-.37,1.56-.31.5-.82.86-1.44.86s-1.05-.29-1.37-.81v2.21ZM354.02,85.81c-.62,0-1.08.55-1.21,1.12v1.02c0,.77.52,1.43,1.21,1.43.39,0,.75-.23.94-.56.21-.35.24-.83.24-1.23,0-.75-.23-1.77-1.18-1.77Z"/>
      <path class="h" d="M357.52,85.31v.88h.02c.23-.55.73-1,1.37-1s1.14.45,1.29,1.09c.25-.63.77-1.09,1.48-1.09.47,0,.92.26,1.15.66.23.38.22.88.22,1.31v2.73h-.7v-2.73c0-.31.02-.63-.13-.91-.15-.3-.45-.48-.76-.48-.35,0-.68.22-.88.51-.26.37-.25.7-.25,1.13v2.47h-.7v-2.9c0-.25-.02-.55-.15-.77-.16-.27-.46-.44-.76-.44s-.64.21-.83.45c-.23.3-.28.67-.28,1.04v2.62h-.7v-4.57h.64Z"/>
      <path class="h" d="M368.02,88.63c-.27.84-1.07,1.34-1.94,1.34-1.39,0-2.1-1.1-2.1-2.38s.75-2.4,2.12-2.4,2.03,1.19,2,2.46h-3.32c0,.36.02.69.19,1.04.22.43.69.69,1.17.69.59,0,1.03-.34,1.22-.88l.67.14ZM367.32,87.13c0-.76-.41-1.4-1.22-1.4-.77,0-1.26.68-1.29,1.4h2.51Z"/>
      <path class="h" d="M369.8,86.15h.02c.26-.57.77-.96,1.42-.96.55,0,1.01.23,1.3.71.23.39.22,1,.22,1.45v2.53h-.7v-2.83c0-.27,0-.61-.13-.85-.15-.26-.49-.41-.78-.41-.37,0-.7.17-.95.46-.3.36-.36.77-.36,1.23v2.39h-.7v-4.57h.67v.85Z"/>
      <path class="h" d="M376.18,89.92l-.67.05c-1,0-1.3-.58-1.3-1.49v-2.65h-.81v-.56h.81v-1.13l.7-.07v1.21h1.02v.56h-1.02v2.76c0,.53.15.81.73.81l.54-.04v.56Z"/>
    </g>
    <g>
      <path class="h" d="M394.29,65.24c0-1.54.76-3.22,2.54-3.22s2.54,1.58,2.54,3.11-.77,3.25-2.53,3.25-2.55-1.58-2.55-3.13ZM398.56,65.16c0-.55-.09-1.19-.37-1.68-.28-.49-.76-.83-1.33-.83-1.38,0-1.76,1.49-1.76,2.59s.43,2.49,1.74,2.49,1.72-1.51,1.72-2.58Z"/>
      <path class="h" d="M401.21,69.77h-.7v-6.07h.64v.88h.02c.23-.6.73-1,1.41-1,1.28,0,1.81,1.27,1.81,2.37,0,.52-.1,1.1-.37,1.56-.31.5-.82.86-1.44.86s-1.05-.29-1.37-.81v2.21ZM402.41,64.21c-.62,0-1.08.55-1.21,1.12v1.02c0,.77.52,1.43,1.21,1.43.39,0,.75-.23.94-.56.21-.35.24-.83.24-1.23,0-.75-.23-1.77-1.18-1.77Z"/>
      <path class="h" d="M409.04,67.03c-.27.84-1.07,1.34-1.94,1.34-1.39,0-2.1-1.1-2.1-2.38s.75-2.4,2.12-2.4,2.04,1.19,2,2.46h-3.32c0,.36.02.69.19,1.04.22.43.69.69,1.17.69.59,0,1.03-.34,1.22-.88l.67.14ZM408.34,65.52c0-.76-.41-1.4-1.22-1.4-.76,0-1.26.68-1.29,1.4h2.51Z"/>
      <path class="h" d="M410.8,63.71v1.07h.02c.22-.62.6-1.2,1.34-1.2l.26.02v.68h-.14c-.54,0-.92.26-1.18.72-.19.33-.22.62-.22.98v2.3h-.7v-4.57h.63Z"/>
      <path class="h" d="M415.94,65.44v-.2c0-.8-.35-1.11-1.16-1.11-.58,0-1.13.18-1.25.81l-.66-.11c.13-.95,1.13-1.25,1.97-1.25.5,0,1.06.05,1.4.45.38.41.38.98.38,1.5v1.77c0,.33,0,.67.1.96h-.7l-.08-.86c-.32.66-.87.95-1.6.95-.86,0-1.59-.48-1.59-1.39,0-.55.34-1.04.85-1.27.51-.24,1.19-.27,1.76-.27h.59ZM415.94,65.98h-.58c-.72,0-1.85.1-1.85,1.04,0,.57.49.8.99.8.86,0,1.45-.74,1.45-1.55v-.3Z"/>
      <path class="h" d="M420.07,68.32l-.67.05c-1,0-1.3-.58-1.3-1.49v-2.65h-.81v-.56h.81v-1.13l.7-.07v1.21h1.02v.56h-1.02v2.76c0,.53.15.81.73.81l.54-.04v.56Z"/>
      <path class="h" d="M421.61,62.9h-.77v-.79h.77v.79ZM421.57,68.28h-.7v-4.57h.7v4.57Z"/>
      <path class="h" d="M424.78,63.59c1.34,0,2.01,1.17,2.01,2.38,0,1.28-.74,2.4-2.12,2.4s-1.98-1.21-1.98-2.41c0-1.27.72-2.37,2.1-2.37ZM423.73,67.21c.2.35.58.58,1,.58.47,0,.84-.24,1.05-.66.19-.36.23-.77.23-1.17,0-.43-.05-.88-.29-1.25-.22-.33-.59-.54-.99-.54-.44,0-.84.25-1.04.65-.17.33-.23.77-.23,1.14,0,.41.06.89.26,1.25Z"/>
      <path class="h" d="M428.45,64.55h.02c.26-.57.77-.96,1.42-.96.55,0,1.01.23,1.3.71.23.39.22,1,.22,1.45v2.53h-.7v-2.83c0-.27,0-.61-.13-.85-.15-.26-.49-.41-.78-.41-.37,0-.7.17-.95.46-.3.36-.36.77-.36,1.23v2.39h-.7v-4.57h.67v.85Z"/>
      <path class="h" d="M433.09,66.93c.1.62.83.86,1.38.86.49,0,1.11-.17,1.11-.76,0-.49-.5-.62-.89-.69l-.75-.14c-.7-.13-1.34-.46-1.34-1.27,0-.95.87-1.34,1.71-1.34s1.58.31,1.81,1.15l-.65.13c-.18-.5-.65-.72-1.17-.72-.41,0-.97.16-.97.67s.41.6.82.67l.67.12c.33.06.67.13.95.32.36.24.55.62.55,1.04,0,1.04-1.01,1.41-1.9,1.41s-1.77-.37-2.01-1.31l.68-.13Z"/>
      <path class="h" d="M442.94,65.44v-.2c0-.8-.35-1.11-1.16-1.11-.58,0-1.13.18-1.25.81l-.66-.11c.13-.95,1.13-1.25,1.97-1.25.5,0,1.06.05,1.4.45.38.41.38.98.38,1.5v1.77c0,.33,0,.67.1.96h-.7l-.08-.86c-.32.66-.87.95-1.6.95-.86,0-1.59-.48-1.59-1.39,0-.55.34-1.04.85-1.27.51-.24,1.19-.27,1.76-.27h.59ZM442.94,65.98h-.58c-.72,0-1.85.1-1.85,1.04,0,.57.49.8.99.8.86,0,1.45-.74,1.45-1.55v-.3Z"/>
      <path class="h" d="M445.55,64.55h.02c.26-.57.77-.96,1.42-.96.55,0,1.01.23,1.3.71.23.39.22,1,.22,1.45v2.53h-.7v-2.83c0-.27,0-.61-.13-.85-.15-.26-.49-.41-.78-.41-.37,0-.7.17-.95.46-.3.36-.36.77-.36,1.23v2.39h-.7v-4.57h.67v.85Z"/>
      <path class="h" d="M452.68,62.1h.7v6.18h-.64v-.81h-.02c-.29.58-.76.9-1.43.9-.6,0-1.06-.29-1.4-.77-.32-.47-.43-1.04-.43-1.6,0-1.14.57-2.4,1.89-2.4.58,0,1,.28,1.32.74v-2.22ZM452.68,65.57c0-.31-.04-.64-.23-.91-.23-.32-.63-.51-1.03-.51s-.74.24-.93.58c-.21.36-.27.77-.27,1.19,0,.75.2,1.87,1.18,1.87.41,0,.77-.22,1.01-.55.22-.3.27-.59.27-.94v-.73Z"/>
    </g>
    <g>
      <path class="h" d="M405.22,79.08h-.77v-5.39h-.04l-1.95,5.39h-.52l-2-5.39h-.04v5.39h-.65v-6.18h1.15l1.86,4.94,1.82-4.94h1.13v6.18Z"/>
      <path class="h" d="M409.46,76.24v-.2c0-.8-.35-1.11-1.16-1.11-.58,0-1.13.18-1.25.81l-.66-.11c.13-.95,1.13-1.25,1.97-1.25.5,0,1.06.05,1.4.45.38.41.38.98.38,1.5v1.77c0,.33,0,.67.1.96h-.7l-.08-.86c-.32.66-.87.95-1.6.95-.86,0-1.59-.48-1.59-1.39,0-.55.34-1.04.85-1.27.51-.24,1.19-.27,1.76-.27h.59ZM409.46,76.78h-.58c-.72,0-1.85.1-1.85,1.04,0,.57.49.8.99.8.86,0,1.45-.74,1.45-1.55v-.3Z"/>
      <path class="h" d="M412.25,73.7h-.77v-.79h.77v.79ZM412.22,79.08h-.7v-4.57h.7v4.57Z"/>
      <path class="h" d="M414.23,75.35h.02c.26-.57.77-.96,1.42-.96.55,0,1.01.23,1.3.71.23.39.22,1,.22,1.45v2.53h-.7v-2.83c0-.27,0-.61-.13-.85-.15-.26-.49-.41-.78-.41-.37,0-.7.17-.95.46-.3.36-.36.77-.36,1.23v2.39h-.7v-4.57h.67v.85Z"/>
      <path class="h" d="M420.61,79.12l-.67.05c-1,0-1.3-.58-1.3-1.49v-2.65h-.81v-.56h.81v-1.13l.7-.07v1.21h1.02v.56h-1.02v2.76c0,.53.15.81.73.81l.54-.04v.56Z"/>
      <path class="h" d="M425.06,77.83c-.27.84-1.07,1.34-1.94,1.34-1.39,0-2.1-1.1-2.1-2.38s.75-2.4,2.12-2.4,2.03,1.19,2,2.46h-3.32c0,.36.02.69.19,1.04.22.43.69.69,1.17.69.59,0,1.03-.34,1.22-.88l.67.14ZM424.36,76.33c0-.76-.41-1.4-1.22-1.4-.77,0-1.26.68-1.29,1.4h2.51Z"/>
      <path class="h" d="M426.83,75.35h.02c.26-.57.77-.96,1.42-.96.55,0,1.01.23,1.3.71.23.39.22,1,.22,1.45v2.53h-.7v-2.83c0-.27,0-.61-.13-.85-.15-.26-.49-.41-.78-.41-.37,0-.7.17-.95.46-.3.36-.36.77-.36,1.23v2.39h-.7v-4.57h.67v.85Z"/>
      <path class="h" d="M433.94,76.24v-.2c0-.8-.35-1.11-1.16-1.11-.58,0-1.13.18-1.25.81l-.66-.11c.13-.95,1.13-1.25,1.97-1.25.5,0,1.06.05,1.4.45.38.41.38.98.38,1.5v1.77c0,.33,0,.67.1.96h-.7l-.08-.86c-.32.66-.87.95-1.6.95-.86,0-1.59-.48-1.59-1.39,0-.55.34-1.04.85-1.27.51-.24,1.19-.27,1.76-.27h.59ZM433.94,76.78h-.58c-.72,0-1.85.1-1.85,1.04,0,.57.49.8.99.8.86,0,1.45-.74,1.45-1.55v-.3Z"/>
      <path class="h" d="M436.55,75.35h.02c.26-.57.77-.96,1.42-.96.55,0,1.01.23,1.3.71.23.39.22,1,.22,1.45v2.53h-.7v-2.83c0-.27,0-.61-.13-.85-.15-.26-.49-.41-.78-.41-.37,0-.7.17-.95.46-.3.36-.36.77-.36,1.23v2.39h-.7v-4.57h.67v.85Z"/>
      <path class="h" d="M444.14,77.57c-.16.93-.78,1.6-1.76,1.6-1.36,0-1.95-1.18-1.95-2.38s.59-2.4,1.95-2.4c.99,0,1.6.64,1.76,1.58l-.65.12c-.06-.6-.43-1.11-1.09-1.11-.95,0-1.22,1-1.22,1.76s.22,1.82,1.18,1.82c.68,0,1.02-.5,1.13-1.12l.65.12Z"/>
      <path class="h" d="M448.82,77.83c-.27.84-1.07,1.34-1.94,1.34-1.39,0-2.1-1.1-2.1-2.38s.75-2.4,2.12-2.4,2.03,1.19,2,2.46h-3.32c0,.36.02.69.19,1.04.22.43.69.69,1.17.69.59,0,1.03-.34,1.22-.88l.67.14ZM448.12,76.33c0-.76-.41-1.4-1.22-1.4-.77,0-1.26.68-1.29,1.4h2.51Z"/>
    </g>
    <g>
      <path class="h" d="M394.29,146.6c0-1.54.76-3.22,2.54-3.22s2.54,1.58,2.54,3.11-.77,3.25-2.53,3.25-2.55-1.58-2.55-3.13ZM398.56,146.52c0-.55-.09-1.19-.37-1.68-.28-.49-.76-.83-1.33-.83-1.38,0-1.76,1.49-1.76,2.59s.43,2.49,1.74,2.49,1.72-1.51,1.72-2.58Z"/>
      <path class="h" d="M401.21,151.13h-.7v-6.07h.64v.88h.02c.23-.6.73-1,1.41-1,1.28,0,1.81,1.27,1.81,2.37,0,.52-.1,1.1-.37,1.56-.31.5-.82.86-1.44.86s-1.05-.29-1.37-.81v2.21ZM402.41,145.57c-.62,0-1.08.55-1.21,1.12v1.02c0,.77.52,1.43,1.21,1.43.39,0,.75-.23.94-.56.21-.35.24-.83.24-1.23,0-.75-.23-1.77-1.18-1.77Z"/>
      <path class="h" d="M409.04,148.39c-.27.84-1.07,1.34-1.94,1.34-1.39,0-2.1-1.1-2.1-2.38s.75-2.4,2.12-2.4,2.04,1.19,2,2.46h-3.32c0,.36.02.69.19,1.04.22.43.69.69,1.17.69.59,0,1.03-.34,1.22-.88l.67.14ZM408.34,146.89c0-.76-.41-1.4-1.22-1.4-.76,0-1.26.68-1.29,1.4h2.51Z"/>
      <path class="h" d="M410.8,145.07v1.07h.02c.22-.62.6-1.2,1.34-1.2l.26.02v.68h-.14c-.54,0-.92.26-1.18.72-.19.33-.22.62-.22.98v2.3h-.7v-4.57h.63Z"/>
      <path class="h" d="M415.94,146.8v-.2c0-.8-.35-1.11-1.16-1.11-.58,0-1.13.18-1.25.81l-.66-.11c.13-.95,1.13-1.25,1.97-1.25.5,0,1.06.05,1.4.45.38.41.38.98.38,1.5v1.77c0,.33,0,.67.1.96h-.7l-.08-.86c-.32.66-.87.95-1.6.95-.86,0-1.59-.48-1.59-1.39,0-.55.34-1.04.85-1.27.51-.24,1.19-.27,1.76-.27h.59ZM415.94,147.34h-.58c-.72,0-1.85.1-1.85,1.04,0,.57.49.8.99.8.86,0,1.45-.74,1.45-1.55v-.3Z"/>
      <path class="h" d="M420.07,149.68l-.67.05c-1,0-1.3-.58-1.3-1.49v-2.65h-.81v-.56h.81v-1.13l.7-.07v1.21h1.02v.56h-1.02v2.76c0,.53.15.81.73.81l.54-.04v.56Z"/>
      <path class="h" d="M421.61,144.26h-.77v-.79h.77v.79ZM421.57,149.64h-.7v-4.57h.7v4.57Z"/>
      <path class="h" d="M424.78,144.95c1.34,0,2.01,1.17,2.01,2.38,0,1.28-.74,2.4-2.12,2.4s-1.98-1.21-1.98-2.41c0-1.27.72-2.37,2.1-2.37ZM423.73,148.57c.2.35.58.58,1,.58.47,0,.84-.24,1.05-.66.19-.36.23-.77.23-1.17,0-.43-.05-.88-.29-1.25-.22-.33-.59-.54-.99-.54-.44,0-.84.25-1.04.65-.17.33-.23.77-.23,1.14,0,.41.06.89.26,1.25Z"/>
      <path class="h" d="M428.45,145.91h.02c.26-.57.77-.96,1.42-.96.55,0,1.01.23,1.3.71.23.39.22,1,.22,1.45v2.53h-.7v-2.83c0-.27,0-.61-.13-.85-.15-.26-.49-.41-.78-.41-.37,0-.7.17-.95.46-.3.36-.36.77-.36,1.23v2.39h-.7v-4.57h.67v.85Z"/>
      <path class="h" d="M433.09,148.29c.1.62.83.86,1.38.86.49,0,1.11-.17,1.11-.76,0-.49-.5-.62-.89-.69l-.75-.14c-.7-.13-1.34-.46-1.34-1.27,0-.95.87-1.34,1.71-1.34s1.58.31,1.81,1.15l-.65.13c-.18-.5-.65-.72-1.17-.72-.41,0-.97.16-.97.67s.41.6.82.67l.67.12c.33.06.67.13.95.32.36.24.55.62.55,1.04,0,1.04-1.01,1.41-1.9,1.41s-1.77-.37-2.01-1.31l.68-.13Z"/>
      <path class="h" d="M442.94,146.8v-.2c0-.8-.35-1.11-1.16-1.11-.58,0-1.13.18-1.25.81l-.66-.11c.13-.95,1.13-1.25,1.97-1.25.5,0,1.06.05,1.4.45.38.41.38.98.38,1.5v1.77c0,.33,0,.67.1.96h-.7l-.08-.86c-.32.66-.87.95-1.6.95-.86,0-1.59-.48-1.59-1.39,0-.55.34-1.04.85-1.27.51-.24,1.19-.27,1.76-.27h.59ZM442.94,147.34h-.58c-.72,0-1.85.1-1.85,1.04,0,.57.49.8.99.8.86,0,1.45-.74,1.45-1.55v-.3Z"/>
      <path class="h" d="M445.55,145.91h.02c.26-.57.77-.96,1.42-.96.55,0,1.01.23,1.3.71.23.39.22,1,.22,1.45v2.53h-.7v-2.83c0-.27,0-.61-.13-.85-.15-.26-.49-.41-.78-.41-.37,0-.7.17-.95.46-.3.36-.36.77-.36,1.23v2.39h-.7v-4.57h.67v.85Z"/>
      <path class="h" d="M452.68,143.46h.7v6.18h-.64v-.81h-.02c-.29.58-.76.9-1.43.9-.6,0-1.06-.29-1.4-.77-.32-.47-.43-1.04-.43-1.6,0-1.14.57-2.4,1.89-2.4.58,0,1,.28,1.32.74v-2.22ZM452.68,146.93c0-.32-.04-.64-.23-.91-.23-.32-.63-.51-1.03-.51s-.74.24-.93.58c-.21.36-.27.77-.27,1.19,0,.75.2,1.87,1.18,1.87.41,0,.77-.23,1.01-.55.22-.3.27-.59.27-.94v-.73Z"/>
    </g>
    <g>
      <path class="h" d="M405.22,160.44h-.77v-5.39h-.04l-1.95,5.39h-.52l-2-5.39h-.04v5.39h-.65v-6.18h1.15l1.86,4.94,1.82-4.94h1.13v6.18Z"/>
      <path class="h" d="M409.46,157.6v-.2c0-.8-.35-1.11-1.16-1.11-.58,0-1.13.18-1.25.81l-.66-.11c.13-.95,1.13-1.25,1.97-1.25.5,0,1.06.05,1.4.45.38.41.38.98.38,1.5v1.77c0,.33,0,.67.1.96h-.7l-.08-.86c-.32.66-.87.95-1.6.95-.86,0-1.59-.48-1.59-1.39,0-.55.34-1.04.85-1.27.51-.24,1.19-.27,1.76-.27h.59ZM409.46,158.14h-.58c-.72,0-1.85.1-1.85,1.04,0,.57.49.8.99.8.86,0,1.45-.74,1.45-1.55v-.3Z"/>
      <path class="h" d="M412.25,155.06h-.77v-.79h.77v.79ZM412.22,160.44h-.7v-4.57h.7v4.57Z"/>
      <path class="h" d="M414.23,156.71h.02c.26-.57.77-.96,1.42-.96.55,0,1.01.23,1.3.71.23.39.22,1,.22,1.45v2.53h-.7v-2.83c0-.27,0-.61-.13-.85-.15-.26-.49-.41-.78-.41-.37,0-.7.17-.95.46-.3.36-.36.77-.36,1.23v2.39h-.7v-4.57h.67v.85Z"/>
      <path class="h" d="M420.61,160.48l-.67.05c-1,0-1.3-.58-1.3-1.49v-2.65h-.81v-.56h.81v-1.13l.7-.07v1.21h1.02v.56h-1.02v2.76c0,.53.15.81.73.81l.54-.04v.56Z"/>
      <path class="h" d="M425.06,159.19c-.27.84-1.07,1.34-1.94,1.34-1.39,0-2.1-1.1-2.1-2.38s.75-2.4,2.12-2.4,2.03,1.19,2,2.46h-3.32c0,.36.02.69.19,1.04.22.43.69.69,1.17.69.59,0,1.03-.34,1.22-.88l.67.14ZM424.36,157.69c0-.76-.41-1.4-1.22-1.4-.77,0-1.26.68-1.29,1.4h2.51Z"/>
      <path class="h" d="M426.83,156.71h.02c.26-.57.77-.96,1.42-.96.55,0,1.01.23,1.3.71.23.39.22,1,.22,1.45v2.53h-.7v-2.83c0-.27,0-.61-.13-.85-.15-.26-.49-.41-.78-.41-.37,0-.7.17-.95.46-.3.36-.36.77-.36,1.23v2.39h-.7v-4.57h.67v.85Z"/>
      <path class="h" d="M433.94,157.6v-.2c0-.8-.35-1.11-1.16-1.11-.58,0-1.13.18-1.25.81l-.66-.11c.13-.95,1.13-1.25,1.97-1.25.5,0,1.06.05,1.4.45.38.41.38.98.38,1.5v1.77c0,.33,0,.67.1.96h-.7l-.08-.86c-.32.66-.87.95-1.6.95-.86,0-1.59-.48-1.59-1.39,0-.55.34-1.04.85-1.27.51-.24,1.19-.27,1.76-.27h.59ZM433.94,158.14h-.58c-.72,0-1.85.1-1.85,1.04,0,.57.49.8.99.8.86,0,1.45-.74,1.45-1.55v-.3Z"/>
      <path class="h" d="M436.55,156.71h.02c.26-.57.77-.96,1.42-.96.55,0,1.01.23,1.3.71.23.39.22,1,.22,1.45v2.53h-.7v-2.83c0-.27,0-.61-.13-.85-.15-.26-.49-.41-.78-.41-.37,0-.7.17-.95.46-.3.36-.36.77-.36,1.23v2.39h-.7v-4.57h.67v.85Z"/>
      <path class="h" d="M444.14,158.93c-.16.93-.78,1.6-1.76,1.6-1.36,0-1.95-1.18-1.95-2.38s.59-2.4,1.95-2.4c.99,0,1.6.64,1.76,1.58l-.65.12c-.06-.6-.43-1.11-1.09-1.11-.95,0-1.22,1-1.22,1.76s.22,1.82,1.18,1.82c.68,0,1.02-.5,1.13-1.12l.65.12Z"/>
      <path class="h" d="M448.82,159.19c-.27.84-1.07,1.34-1.94,1.34-1.39,0-2.1-1.1-2.1-2.38s.75-2.4,2.12-2.4,2.03,1.19,2,2.46h-3.32c0,.36.02.69.19,1.04.22.43.69.69,1.17.69.59,0,1.03-.34,1.22-.88l.67.14ZM448.12,157.69c0-.76-.41-1.4-1.22-1.4-.77,0-1.26.68-1.29,1.4h2.51Z"/>
    </g>
    <line class="i" x1="387.23" y1="45.89" x2="387.23" y2="95.29"/>
    <line class="i" x1="387.23" y1="127.25" x2="387.23" y2="176.65"/>
    <line class="i" x1="313.85" y1="45.89" x2="313.85" y2="95.29"/>
    <line class="i" x1="240.48" y1="45.89" x2="240.48" y2="95.29"/>
    <line class="i" x1="240.48" y1="127.25" x2="240.48" y2="176.65"/>
    <line class="i" x1="167.1" y1="45.89" x2="167.1" y2="95.29"/>
    <line class="i" x1="167.1" y1="127.25" x2="167.1" y2="176.65"/>
    <line class="i" x1="93.73" y1="45.89" x2="93.73" y2="95.29"/>
    <line class="i" x1="93.73" y1="127.25" x2="93.73" y2="176.65"/>
    <rect class="i" x="20.6" y="45.89" width="439.75" height="49.41"/>
    <rect class="i" x="20.6" y="127.25" width="439.75" height="49.41"/>
    <g>
      <path class="h" d="M146.05,12.51h-2.11v-.74h5.06v.74h-2.12v5.93h-.83v-5.93Z"/>
      <path class="h" d="M152.65,17.89c-.4.44-.95.67-1.6.67-.82,0-1.69-.55-1.69-1.6s.87-1.59,1.69-1.59c.66,0,1.21.21,1.6.66v-.87c0-.65-.52-1.02-1.22-1.02-.58,0-1.05.21-1.48.67l-.35-.52c.52-.54,1.14-.8,1.93-.8,1.02,0,1.87.46,1.87,1.63v3.32h-.75v-.55ZM152.65,16.51c-.29-.4-.8-.6-1.33-.6-.7,0-1.19.44-1.19,1.06s.49,1.05,1.19,1.05c.53,0,1.04-.2,1.33-.6v-.91Z"/>
      <path class="h" d="M155.4,11.77h.75v2.57c.39-.53.97-.85,1.63-.85,1.26,0,2.15,1,2.15,2.54s-.89,2.53-2.15,2.53c-.68,0-1.27-.35-1.63-.84v.72h-.75v-6.67ZM157.59,17.89c.98,0,1.56-.79,1.56-1.86s-.58-1.87-1.56-1.87c-.59,0-1.18.36-1.44.78v2.19c.26.42.85.76,1.44.76Z"/>
      <path class="h" d="M161.65,11.77h.75v6.67h-.75v-6.67Z"/>
      <path class="h" d="M166.5,13.49c1.46,0,2.32,1.14,2.32,2.59v.19h-3.91c.06.91.7,1.67,1.74,1.67.55,0,1.11-.22,1.49-.61l.36.49c-.48.48-1.13.74-1.92.74-1.43,0-2.46-1.03-2.46-2.54,0-1.4,1-2.53,2.38-2.53ZM164.91,15.72h3.17c0-.72-.49-1.61-1.59-1.61-1.03,0-1.54.87-1.58,1.61Z"/>
      <path class="h" d="M173.64,16.94c.39.52,1.07.88,1.86.88.97,0,1.56-.48,1.56-1.25,0-.83-.68-1.18-1.66-1.18-.28,0-.59,0-.69,0v-.76c.11,0,.42,0,.69,0,.84,0,1.55-.33,1.55-1.1s-.68-1.14-1.49-1.14c-.73,0-1.27.28-1.76.81l-.46-.52c.48-.58,1.25-1.03,2.28-1.03,1.28,0,2.26.65,2.26,1.78,0,.96-.81,1.44-1.44,1.55.61.05,1.54.57,1.54,1.64s-.89,1.92-2.36,1.92c-1.13,0-1.96-.5-2.37-1.1l.49-.52Z"/>
      <path class="h" d="M182.31,15.69h2.4v.66h-2.4v-.66Z"/>
      <path class="h" d="M189.37,11.77h4.37v.74h-3.54v2.15h3.47v.74h-3.47v2.3h3.54v.74h-4.37v-6.67Z"/>
      <path class="h" d="M198.79,15.28c0-.85-.43-1.12-1.08-1.12-.59,0-1.15.36-1.43.75v3.53h-.75v-4.83h.75v.7c.34-.4,1-.82,1.72-.82,1.01,0,1.54.51,1.54,1.56v3.39h-.75v-3.16Z"/>
      <path class="h" d="M201.91,19.11c.4.48.88.66,1.57.66.8,0,1.55-.39,1.55-1.45v-.69c-.35.49-.94.86-1.62.86-1.26,0-2.15-.94-2.15-2.5s.88-2.51,2.15-2.51c.65,0,1.23.32,1.62.85v-.73h.75v4.69c0,1.6-1.12,2.1-2.3,2.1-.82,0-1.38-.16-1.95-.72l.38-.56ZM205.03,14.94c-.26-.42-.84-.78-1.44-.78-.97,0-1.55.77-1.55,1.84s.58,1.84,1.55,1.84c.6,0,1.18-.37,1.44-.79v-2.11Z"/>
      <path class="h" d="M207.65,12.29c0-.28.23-.5.5-.5s.51.22.51.5-.23.51-.51.51-.5-.23-.5-.51ZM207.78,13.61h.75v4.83h-.75v-4.83Z"/>
      <path class="h" d="M213.79,15.28c0-.85-.43-1.12-1.08-1.12-.59,0-1.15.36-1.43.75v3.53h-.75v-4.83h.75v.7c.34-.4,1-.82,1.72-.82,1.01,0,1.54.51,1.54,1.56v3.39h-.75v-3.16Z"/>
      <path class="h" d="M218.64,13.49c1.46,0,2.32,1.14,2.32,2.59v.19h-3.91c.06.91.7,1.67,1.74,1.67.55,0,1.11-.22,1.49-.61l.36.49c-.48.48-1.13.74-1.92.74-1.43,0-2.46-1.03-2.46-2.54,0-1.4,1-2.53,2.38-2.53ZM217.05,15.72h3.17c0-.72-.49-1.61-1.59-1.61-1.03,0-1.54.87-1.58,1.61Z"/>
      <path class="h" d="M224.77,13.49c1.46,0,2.32,1.14,2.32,2.59v.19h-3.91c.06.91.7,1.67,1.74,1.67.55,0,1.11-.22,1.49-.61l.36.49c-.48.48-1.13.74-1.92.74-1.43,0-2.46-1.03-2.46-2.54,0-1.4,1-2.53,2.38-2.53ZM223.18,15.72h3.17c0-.72-.49-1.61-1.59-1.61-1.03,0-1.54.87-1.58,1.61Z"/>
      <path class="h" d="M228.8,13.61h.75v.78c.39-.51.95-.88,1.61-.88v.77c-.09-.02-.18-.03-.3-.03-.46,0-1.09.38-1.31.77v3.42h-.75v-4.83Z"/>
      <path class="h" d="M232.47,12.29c0-.28.23-.5.5-.5s.51.22.51.5-.23.51-.51.51-.5-.23-.5-.51ZM232.6,13.61h.75v4.83h-.75v-4.83Z"/>
      <path class="h" d="M238.61,15.28c0-.85-.43-1.12-1.08-1.12-.59,0-1.15.36-1.43.75v3.53h-.75v-4.83h.75v.7c.34-.4,1-.82,1.72-.82,1.01,0,1.54.51,1.54,1.56v3.39h-.75v-3.16Z"/>
      <path class="h" d="M241.73,19.11c.4.48.88.66,1.57.66.8,0,1.55-.39,1.55-1.45v-.69c-.35.49-.94.86-1.62.86-1.26,0-2.15-.94-2.15-2.5s.88-2.51,2.15-2.51c.65,0,1.23.32,1.62.85v-.73h.75v4.69c0,1.6-1.12,2.1-2.3,2.1-.82,0-1.38-.16-1.95-.72l.38-.56ZM244.85,14.94c-.26-.42-.84-.78-1.44-.78-.97,0-1.55.77-1.55,1.84s.58,1.84,1.55,1.84c.6,0,1.18-.37,1.44-.79v-2.11Z"/>
      <path class="h" d="M250.71,11.77h.83v5.93h3.1v.74h-3.93v-6.67Z"/>
      <path class="h" d="M256.15,12.29c0-.28.23-.5.5-.5s.51.22.51.5-.23.51-.51.51-.5-.23-.5-.51ZM256.28,13.61h.75v4.83h-.75v-4.83Z"/>
      <path class="h" d="M259.24,14.27h-.8v-.66h.8v-.37c0-1,.56-1.57,1.4-1.57.28,0,.54.05.73.17l-.19.56c-.12-.07-.26-.11-.43-.11-.49,0-.76.34-.76.95v.37h.98v.66h-.98v4.17h-.75v-4.17Z"/>
      <path class="h" d="M264.46,13.49c1.46,0,2.32,1.14,2.32,2.59v.19h-3.91c.06.91.7,1.67,1.74,1.67.55,0,1.11-.22,1.49-.61l.36.49c-.48.48-1.13.74-1.92.74-1.43,0-2.46-1.03-2.46-2.54,0-1.4,1-2.53,2.38-2.53ZM262.87,15.72h3.17c0-.72-.49-1.61-1.59-1.61-1.03,0-1.54.87-1.58,1.61Z"/>
      <path class="h" d="M270.62,13.49c.88,0,1.4.36,1.77.84l-.5.46c-.32-.44-.73-.63-1.23-.63-1.03,0-1.67.79-1.67,1.86s.64,1.87,1.67,1.87c.5,0,.91-.2,1.23-.63l.5.46c-.37.48-.89.84-1.77.84-1.44,0-2.41-1.1-2.41-2.54s.97-2.53,2.41-2.53Z"/>
      <path class="h" d="M274.2,19.72c.33,0,.55-.11.72-.51l.32-.73-2.02-4.88h.81l1.61,3.96,1.6-3.96h.82l-2.42,5.81c-.29.7-.78.97-1.42.98-.16,0-.41-.03-.55-.07l.12-.68c.11.05.29.08.41.08Z"/>
      <path class="h" d="M281.47,13.49c.88,0,1.4.36,1.77.84l-.5.46c-.32-.44-.73-.63-1.23-.63-1.03,0-1.67.79-1.67,1.86s.64,1.87,1.67,1.87c.5,0,.91-.2,1.23-.63l.5.46c-.37.48-.89.84-1.77.84-1.44,0-2.41-1.1-2.41-2.54s.97-2.53,2.41-2.53Z"/>
      <path class="h" d="M284.79,11.77h.75v6.67h-.75v-6.67Z"/>
      <path class="h" d="M289.64,13.49c1.46,0,2.32,1.14,2.32,2.59v.19h-3.91c.06.91.7,1.67,1.74,1.67.55,0,1.11-.22,1.49-.61l.36.49c-.48.48-1.13.74-1.92.74-1.43,0-2.46-1.03-2.46-2.54,0-1.4,1-2.53,2.38-2.53ZM288.05,15.72h3.17c0-.72-.49-1.61-1.59-1.61-1.03,0-1.54.87-1.58,1.61Z"/>
      <path class="h" d="M302.48,12.89l-2.27,5.55h-.34l-2.26-5.55v5.55h-.83v-6.67h1.19l2.07,5.08,2.08-5.08h1.19v6.67h-.83v-5.55Z"/>
      <path class="h" d="M308.36,17.89c-.4.44-.95.67-1.6.67-.82,0-1.69-.55-1.69-1.6s.87-1.59,1.69-1.59c.66,0,1.21.21,1.6.66v-.87c0-.65-.52-1.02-1.22-1.02-.58,0-1.05.21-1.48.67l-.35-.52c.52-.54,1.14-.8,1.93-.8,1.02,0,1.87.46,1.87,1.63v3.32h-.75v-.55ZM308.36,16.51c-.29-.4-.8-.6-1.33-.6-.7,0-1.19.44-1.19,1.06s.49,1.05,1.19,1.05c.53,0,1.04-.2,1.33-.6v-.91Z"/>
      <path class="h" d="M311.11,20.27v-6.67h.75v.72c.35-.49.95-.84,1.63-.84,1.27,0,2.15.96,2.15,2.53s-.88,2.54-2.15,2.54c-.66,0-1.24-.31-1.63-.85v2.57h-.75ZM313.3,14.16c-.59,0-1.18.35-1.44.77v2.18c.26.42.85.78,1.44.78.97,0,1.55-.8,1.55-1.87s-.58-1.86-1.55-1.86Z"/>
      <path class="h" d="M317.35,20.27v-6.67h.75v.72c.35-.49.95-.84,1.63-.84,1.27,0,2.15.96,2.15,2.53s-.88,2.54-2.15,2.54c-.66,0-1.24-.31-1.63-.85v2.57h-.75ZM319.54,14.16c-.59,0-1.18.35-1.44.77v2.18c.26.42.85.78,1.44.78.97,0,1.55-.8,1.55-1.87s-.58-1.86-1.55-1.86Z"/>
      <path class="h" d="M323.46,12.29c0-.28.23-.5.5-.5s.51.22.51.5-.23.51-.51.51-.5-.23-.5-.51ZM323.59,13.61h.75v4.83h-.75v-4.83Z"/>
      <path class="h" d="M329.6,15.28c0-.85-.43-1.12-1.08-1.12-.59,0-1.15.36-1.43.75v3.53h-.75v-4.83h.75v.7c.34-.4,1-.82,1.72-.82,1.01,0,1.54.51,1.54,1.56v3.39h-.75v-3.16Z"/>
      <path class="h" d="M332.71,19.11c.4.48.88.66,1.57.66.8,0,1.55-.39,1.55-1.45v-.69c-.35.49-.94.86-1.62.86-1.26,0-2.15-.94-2.15-2.5s.88-2.51,2.15-2.51c.65,0,1.23.32,1.62.85v-.73h.75v4.69c0,1.6-1.12,2.1-2.3,2.1-.82,0-1.38-.16-1.95-.72l.38-.56ZM335.83,14.94c-.26-.42-.84-.78-1.44-.78-.97,0-1.55.77-1.55,1.84s.58,1.84,1.55,1.84c.6,0,1.18-.37,1.44-.79v-2.11Z"/>
    </g>
  </g>
</svg>