     <svg style="max-height: 90px" viewBox="3261.804 -481 484.584 421">
        <g clip-path="url(#_clipPath_fOzsxQLplw6xf4ck5wgc1fUmPBBnX3aK)">
          <path
            d=" M 3746.388 -271.838 L 3686.394 -166.588 L 3626.401 -61.338 L 3505.255 -60.669 L 3384.109 -60 L 3322.956 -164.581 L 3261.804 -269.162 L 3321.798 -374.412 L 3381.791 -479.662 L 3502.937 -480.331 L 3624.083 -481 L 3685.236 -376.419 L 3746.388 -271.838 Z  M 3542.765 -382.816 L 3542.765 -382.816 C 3549.946 -397.163 3558.994 -405.556 3569.91 -407.993 L 3565.043 -415.925 C 3553.336 -412.424 3543.662 -403.049 3536.022 -387.797 Q 3521.726 -396.786 3502.311 -396.817 Q 3482.943 -396.848 3468.324 -387.987 C 3460.699 -403.127 3451.057 -412.439 3439.399 -415.925 L 3434.532 -407.993 C 3445.361 -405.576 3454.351 -397.297 3461.504 -383.159 L 3461.504 -383.159 Q 3439.323 -365.007 3430.025 -322.729 L 3571.712 -322.188 Q 3564.09 -364.492 3542.765 -382.816 L 3542.765 -382.816 Z  M 3589.322 -257.516 L 3618.761 -265.945 L 3625.972 -322.188 L 3637.689 -316.239 L 3629.577 -253.868 L 3589.918 -241.12 C 3589.941 -236.036 3589.812 -230.971 3589.531 -225.927 L 3631.199 -225.927 L 3631.199 -214.03 L 3588.582 -214.03 C 3588.15 -209.872 3587.613 -205.728 3586.971 -201.599 L 3629.577 -187.351 L 3634.444 -137.598 L 3623.628 -135.795 L 3621.105 -177.616 L 3584.514 -188.208 C 3584.454 -187.922 3584.393 -187.636 3584.331 -187.351 C 3568.315 -155.136 3544.733 -136.636 3501.41 -136.877 C 3458.086 -137.117 3436.937 -156.043 3421.373 -187.351 C 3421.19 -188.069 3421.012 -188.79 3420.837 -189.515 L 3379.732 -177.616 L 3377.208 -135.795 L 3366.392 -137.598 L 3371.259 -187.351 L 3418.093 -203.013 C 3417.491 -206.609 3416.974 -210.282 3416.541 -214.03 L 3369.637 -214.03 L 3369.637 -225.927 L 3415.468 -225.927 C 3415.17 -230.461 3414.986 -235.097 3414.916 -239.835 L 3371.259 -253.868 L 3363.147 -316.239 L 3374.865 -322.188 L 3382.075 -265.945 L 3415.125 -256.482 C 3415.586 -268.423 3416.707 -280.952 3418.488 -294.067 L 3432.188 -304.161 L 3569.91 -304.161 L 3584.331 -294.067 C 3586.838 -281.771 3588.501 -269.587 3589.322 -257.516 L 3589.322 -257.516 L 3589.322 -257.516 L 3589.322 -257.516 Z "
            fill-rule="evenodd" fill="#c53023" />
        </g>
      </svg>