<?xml version="1.0" encoding="utf-8"?>
<svg version="1.1" id="Layer_1" xmlns="http://www.w3.org/2000/svg" xmlns:xlink="http://www.w3.org/1999/xlink" x="0px" y="0px"
	 viewBox="0 0 173 172" style="enable-background:new 0 0 173 172;" xml:space="preserve">
<style type="text/css">
	.st0{fill-rule:evenodd;clip-rule:evenodd;fill:#939598;}
	.st1{fill-rule:evenodd;clip-rule:evenodd;fill:#FFFFFF;}
	.st2{fill-rule:evenodd;clip-rule:evenodd;fill:#D52027;}
	.st3{fill-rule:evenodd;clip-rule:evenodd;fill:#0F4571;}
	.st4{fill-rule:evenodd;clip-rule:evenodd;fill:#0B83C3;}
	.st5{fill-rule:evenodd;clip-rule:evenodd;fill:#2BA64A;}
	.st6{fill-rule:evenodd;clip-rule:evenodd;fill:#215078;}
</style>
<g>
	<g>
		<path class="st0" d="M166.7,86c0-43.2-35-78.2-78.1-78.2c-43.2,0-78.1,35-78.1,78.2c0,43.1,35,78.1,78.1,78.1
			C131.8,164.2,166.7,129.2,166.7,86L166.7,86L166.7,86z"/>
		<path class="st1" d="M88.6,159.3c-40.5,0-73.3-32.8-73.3-73.3c0-40.5,32.8-73.3,73.3-73.3c40.5,0,73.3,32.8,73.3,73.3
			C161.9,126.5,129,159.3,88.6,159.3L88.6,159.3L88.6,159.3z"/>
		<path class="st2" d="M136,58c-0.8,0.3-1.7,0.5-2.6,0.7c4.9,8,7.6,17.3,7.6,27.3c0,29-23.5,52.6-52.5,52.6S36,115,36,86
			c0-10.4,3.1-20.2,8.3-28.4c-0.9-0.3-1.7-0.6-2.5-0.9c-5.4,8.5-8.5,18.5-8.5,29.3c0,30.5,24.7,55.1,55.1,55.1
			c30.4,0,55.1-24.7,55.1-55.1C143.7,75.8,140.9,66.2,136,58L136,58L136,58z"/>
		<path class="st3" d="M117.1,107.1c0,0.1,0,0.1-0.1,0.2c0,0.2-0.1,0.5-0.6,0.7c-0.2,0.1-0.4,0.1-0.1-0.1c0.2-0.2,0.4-1.1-0.1-1.5
			c-0.4-0.3-0.9-0.5-1.5-0.4c-0.7,0-1.8,0.1-2.2,0c-0.4-0.1-0.8,0.5-0.8,0.8c-0.2,0.6-0.4,1.4-1.3,1c-1.1-0.6-2.7-0.6-4.4-1.3
			c0.2,0.5,0.1,1,0.4,1.7c-1.6-0.4-2-1.2-3.5-1.8c0.3,0.5,0.2,1,0.5,1.5c-1.3-0.2-2.5-1.4-4.2-1.8c-0.1,0-0.1,0-0.2,0.1
			c-0.6,0.2-1.2,0.4-1.7,0.5c1.3,1.4,2.3,3.2,2.7,5.3c0,0-0.9,0-2.2-0.4c0.4,1.1,0.6,2.4,0.6,3.7c0,0-1-0.2-2.4-1
			c0.1,1.3,0.1,2.6-0.2,3.9c0,0-1.1-0.5-2.5-1.9c-0.2,1.3-0.5,2.6-1.1,3.9c0,0-1-0.7-2.1-2.4c-0.5,1.3-1,2.6-1.9,3.8
			c0,0-1.2-1.2-1.9-3.6c-1,1.5-2,2.2-2,2.2c-0.5-1.3-0.9-2.6-1-3.9c-1.3,1.4-2.5,1.9-2.5,1.9c-0.2-1.3-0.3-2.7-0.2-3.9
			c-1.3,0.9-2.3,1-2.3,1c0-1.3,0.3-2.6,0.6-3.7c-1.3,0.4-2.2,0.4-2.2,0.4c0.5-2.2,1.9-4.4,2.9-5.4l0,0c-0.5-0.1-1-0.3-1.5-0.4
			C78,106,78,106,78,106c-1.8,0.5-3,1.6-4.2,1.8c0.3-0.5,0.3-1,0.5-1.5c-1.5,0.5-1.9,1.3-3.5,1.8c0.3-0.6,0.2-1.1,0.4-1.7
			c-1.5,0.7-3.5,1.2-4.4,1.4c-0.9,0.2-1-1.3-1.3-1.6c-0.1-0.1-0.9-0.2-1.3-0.1c-0.5,0.1-1.4,0-2.2,0c-0.7,0-1.2,0.2-1.6,0.4
			c-0.5,0.4-0.3,1.4-0.1,1.6c0.2,0.2,0.1,0.2-0.1,0.1c-0.5-0.2-0.6-0.5-0.6-0.7c0,0,0-0.1,0-0.1c-0.2,0-0.5,0-0.8,0
			c-0.3,0.1-0.5,0.3-0.5,0.4c0,0.3,0.1,1.1,0.6,1.2c0.5,0.1,0.6-0.1,1.3-0.1c-0.4,0.2-1,0.5-0.8,1c0.1,0.2,0.2,0.4,0.5,0.7
			c0.2,0.2,0.5,0.2,0.8,0c0.3-0.2,0.4-0.4,0.7-0.4c-0.2,0.1-0.2,0.4-0.3,0.5c-0.1,0.3-0.1,0.6,0.1,0.8c0.3,0.2,0.8,0.3,1,0.4
			c0.5,0,0.6-0.4,0.7-0.7c0-0.3,0-0.6,0-0.9c0.3,0.1,0.5,1,0,1.7c-0.2,0.3-0.7,0.5-1.6,0.1c-0.5-0.2-0.9-0.4-0.8-0.9
			c0-0.2,0.1-0.3,0.2-0.5c-0.1,0.1-0.2,0.2-0.4,0.3c-0.4,0.2-0.8,0-1.2-0.5c-0.5-0.6-0.4-0.9-0.3-1c0.1-0.1,0.2-0.2,0.3-0.3
			c-0.2,0.1-0.4,0.1-0.5,0c-0.4,0-0.5-0.3-0.7-0.9c-0.2-0.7-0.3-0.8,0-1.2c0.2-0.3,1.2-0.5,1.6-0.3c0-0.4,0.1-0.7,0.5-0.9
			c0.4-0.2,1.3-0.7,2.2-0.6c0.6,0.1,1.7,0,2,0c0.3,0,2.6-0.4,4.1-1.6c-0.8,0.1-1-0.4-1.6-0.5c0.9-0.9,2.2-1,2.9-1.8
			c-0.6-0.1-1.1-0.6-1.6-0.6c1.4-0.8,2.3-1.2,3.2-2.2c0,0,0.4-0.4,0.5-0.6c-0.4-1.1-0.7-2.3-0.8-3.7c-0.1-0.3-0.1-0.6-0.1-1
			c-0.3,0.4-1,0.7-2.1,1.1c-0.5-1.2-0.3-3.6,0.4-5.4c-0.9,1.8-2,3-3.8,3.6c-0.4-1.3-0.2-3.7,0.4-5.4c-1.2,2-2.5,3-4.6,3.7
			c-0.2-1.6,0-3.8,0.8-5.7c-1.6,1.6-3,2.1-4.9,2.4c-0.1-1.9,0.4-3.7,1.4-5.9c-1.2,1.4-3.7,2.4-5.5,2.6c0.1-1.7,1.3-4,2-5.3
			c-1.8,1.3-3.6,2.1-5.6,2.2c0.3-1.9,1.1-4,2.6-5.6c-1.7,1.3-4.3,2-6.3,1.7c0.5-2.1,1.8-4.2,3.5-5.2c-1,0.2-2.8,0.6-4.9,0.4
			c-1.3,4.1-1.9,8.5-1.9,13c-1-0.8-1.8-1-2.5-1.8c0.1,1,0.2,1.5,0.4,2.8c0.2,2.2,1,3.4,2.4,4.2c0.1,0.6,0.1,1.2,0.2,1.8
			c-1-0.7-2.4-1.1-4.2-1c1.1,3.6,2.7,3.8,4.8,4.1c0.1,0.4,0.1,0.7,0.2,1c-1.1-0.3-2.4-0.3-4,0.1c1,1.6,2.5,2.6,4.8,3c0,0,0,0,0,0
			c-1.4-0.1-3,0.1-4.2,0.7c1.8,1.5,3.5,2.1,5.2,1.9c0,0.2,0.1,0.4,0.2,0.6c-1.3,0.4-2.4,1-3.1,1.7c1.4,0.4,2.8,0.7,4.1,0.5
			c0,0,0,0,0,0.1c-0.8,0.6-1.4,1.5-1.8,3c1-0.3,2-0.3,3-0.6c0.2,0.4,0.4,0.8,0.6,1.1c-0.5,1-0.7,2.2-0.4,3.7
			c0.9-0.2,1.5-0.5,2.1-0.9c0.2,0.3,0.4,0.6,0.6,0.9c-0.2,1.6,0.2,3.2,1.1,4.3c0.4-0.4,0.7-0.9,1-1.3c2.1-3.2,0.8-5.5,0.9-7.6
			c0,0,0-0.1,0-0.1c0.2,2.5,2.3,4.9-0.2,7.9c0,0.1-0.1,0.1-0.1,0.1c8.5,9.9,21,16.1,35,16.1c19.9,0,36.8-12.6,43.3-30.2l2.1-0.9
			l-0.2,0.9l3-2.6l-3.9,0.8l0.9,0.4l-1.6,0.6c0.3-0.8,0.5-1.6,0.8-2.5l2.3-1.3l0,0.9l2.7-2.9l-3.8,1.2l0.9,0.3l-1.8,1
			c0.3-0.9,0.5-1.8,0.7-2.7l1.8-1.1l-0.1,1l2.8-2.9l-3.8,1.2l0.9,0.4l-1.4,0.8c0.1-0.8,0.3-1.6,0.4-2.4l2.1-1.8l0,0.9l2.4-3.2
			l-3.6,1.7l0.9,0.3l-1.7,1.4c0.1-1,0.2-1.9,0.3-2.9l2.1-2.3l0.1,0.9l1.9-3.5l-3.4,2.2l0.9,0.1l-1.6,1.8c0-0.6,0-1.2,0-1.8
			c0-4.6-0.7-9.1-1.9-13.3c-2.1,0.2-4.2-0.5-5.2-0.7c2.7,1.6,3.6,3.3,4,5.2c-2.2,0.5-5-0.2-6.6-1.5c1.5,1.4,2.5,3.4,2.6,5.6
			c-2.2,0.1-4.2-0.9-5.8-2.4c1,1.1,2.2,3.8,1.9,5.7c-1.8-0.2-4-1.4-5.2-2.8c1,2.2,1.4,3.9,1.3,5.9c-1.8-0.4-3.2-0.9-4.9-2.4
			c0.8,1.9,1.1,3.9,0.9,5.6c-2.1-0.8-3.5-1.6-4.7-3.6c0.6,1.8,1,4,0.6,5.4c-1.8-0.5-3-1.6-3.9-3.4c0.9,1.9,0.8,4.2,0.5,5.4
			c-0.7-0.1-1.7-0.7-2.3-1.3c0,0.3,0,0.7,0,1c-0.1,1.3-0.4,2.6-0.8,3.7c0.2,0.2,0.5,0.6,0.5,0.6c0.9,1,2.2,2,3.2,2.3
			c-0.4,0.1-1,0.5-1.7,0.5c0.7,0.7,2.1,0.9,2.9,1.8c-0.7,0.1-0.9,0.6-1.6,0.5c1.5,1.2,2.9,1.2,3.7,1.3c0.3,0,1.4,0.1,2,0
			c0.8-0.1,1.6,0.2,2.1,0.4l8.4-16.9l-0.9,0.2l2.6-3l-0.8,3.9l-0.5-0.9l-8.4,17c0.2,0.2,0.2,0.5,0.3,0.7c0,0,0,0,0,0l0.3-0.3
			l13.5-10.7l-0.9-0.3l3.6-1.6l-2.4,3.2l0-0.9L118,106.7c0.4,0.1,0.7,0.2,0.8,0.4c0.2,0.4,0.2,0.5-0.1,1.2c-0.2,0.6-0.4,0.8-0.8,0.9
			c-0.1,0-0.3,0-0.5-0.1c0.1,0.1,0.2,0.1,0.3,0.3c0.1,0.2,0.1,0.5-0.4,1c-0.4,0.5-0.9,0.7-1.2,0.5c-0.2-0.1-0.3-0.2-0.4-0.3
			c0,0.1,0.1,0.3,0.1,0.4c0.1,0.5-0.3,0.7-0.8,0.8c-0.9,0.3-1.3,0.2-1.6-0.1c-0.5-0.7-0.2-1.6,0.1-1.7c-0.1,0.3-0.1,0.5,0,0.9
			c0,0.2,0.2,0.7,0.7,0.6c0.3,0,0.8-0.1,1-0.3c0.2-0.1,0.2-0.5,0.1-0.8c0-0.1-0.1-0.4-0.3-0.5c0.3,0.1,0.5,0.2,0.7,0.4
			c0.2,0.2,0.6,0.3,0.8,0c0.3-0.3,0.4-0.5,0.5-0.7c0.2-0.4-0.4-0.9-0.7-1c0.6,0,0.7,0.3,1.2,0.2c0.5,0,0.7-0.9,0.7-1.2
			c0-0.2-0.2-0.4-0.5-0.5C117.6,107.1,117.3,107.1,117.1,107.1L117.1,107.1L117.1,107.1z"/>
		<path class="st2" d="M58,43.3c8.6-6.2,19.2-9.8,30.6-9.8c12.7,0,24.4,4.5,33.5,12.1c1-0.3,2-0.5,3-0.8
			c-9.7-8.6-22.5-13.8-36.5-13.8c-12.6,0-24.2,4.2-33.4,11.3c0.4,0.2,0.9,0.3,1.3,0.5C57,42.9,57.5,43.1,58,43.3L58,43.3L58,43.3z"
			/>
		<path class="st3" d="M114.9,48.1c-7.5-5.2-16.6-8.2-26.3-8.2c-9,0-17.3,2.5-24.3,6.9c1.8,1.4,2.9,2.9,3.1,4.5
			c0.2,1.4,0.4,3-0.4,5.4c-0.8,2.6-1.3,5.2,0.6,7.8c1.9,2.7,4.3,3.8,6.3,4.2c2.7-0.5,5.6-0.8,8.5-1.1c0.4-1.2,1.5-2.3,2.7-3.1
			c1.6-1.3,1.3-2.4,0.9-3.3c-0.3-0.7-0.9-1.2-1.8-1.7c-0.7-0.4-3.5-0.7-3.4,1.1c-0.4-0.6-0.8-1.5-0.5-2.6c0.4-1.5,2.8-1.9,3.5-1.8
			c-0.5-0.4-0.2-1.1,0.9-1.3c1.3-0.4,2.5-0.4,3.7-0.4c2.5,0.1,2.9,0.7,4.1,1.8c1.5,1.4,3.5,1.8,4.3,1c-0.5,1.3-2.3,2-3.5,1.8
			c0.6,1.8,0.8,3.3,1,5.2c0.1,0.9,0.3,2.3,0.5,3.5c3.3,0.3,6.6,0.7,9.5,1.3c1.2-0.3,2.4-1,3.5-2.3c1.1-1.2,2-2.8,1.6-6.7
			c-0.1-1.1-0.6-3.9-0.6-5.2C109.1,51.7,111.4,49.7,114.9,48.1L114.9,48.1L114.9,48.1z"/>
		<path class="st3" d="M71.5,82.6c4.9-1.1,11.5-1.8,17.1-1.8c5.6,0,12.2,0.8,17.1,1.8c0.2-4.3,0.4-8.7,0.5-12.1
			c-5.2-1.2-12.2-1.9-17.6-1.9c-5.5,0-12.4,0.8-17.7,1.9C71,73.9,71.2,78.3,71.5,82.6L71.5,82.6L71.5,82.6z"/>
		<path class="st3" d="M137.1,42.5c-3.1,2.8-8.1,3.6-13.3,5.3c-4,1.3-6.4,2.1-9.9,4.9c-1,0.8-2,2-1.8,4c0.1,2.3,0.5,3.2,0.6,6.3
			c0,2.3-0.8,4-1.7,5.1c-1,1.1-2.3,2.1-3.5,2.7c-0.1,1.9-0.1,3.8-0.3,6.1c0.8,0.5,1.9,0.8,2.5,1c0.5-1.2,0.6-2.9,0.3-4.2
			c1.6,0.9,3.8,1.3,5.4,1.4c-0.1-1.5-0.6-3.6-1.9-5.1c2,0.3,3.8,0.3,5.4-0.1c-0.4-1.2-1.1-2.5-2.2-3.5c2.2,0,4.9-0.7,6.3-1.4
			c-0.8-1.4-2.3-2.8-3.7-3.6c2-0.2,5.3-0.6,6.7-1.2c-0.7-1-2.2-2.7-3.2-3.1c2.7-0.2,5.4-1.2,6.8-1.8c-0.5-0.8-1.3-1.7-2.1-2.4
			c2.5-0.1,4.8-0.6,6.5-1.5c-0.4-0.7-1.5-2-2.4-2.6C137,47.2,137.1,44.6,137.1,42.5L137.1,42.5L137.1,42.5z"/>
		<path class="st3" d="M69.7,70.3c-1.1-0.5-2.1-1.2-3.2-2.2c-3.3-3.1-4.1-6.3-3.1-10c0.6-2.2,1.5-3.3,1.2-5.6
			c-0.1-1.3-1.1-2.3-2-3.2c-2.3-2.2-4.9-3.5-8.8-4.8c-2.4-0.8-9.4-3-12.6-5.8c-0.7,2.1,0.8,4.8,2.6,5.2c-1.6,0.2-2.9,1-3.6,1.9
			c1.2,1.4,3.6,2.8,5.5,2.9c-0.9,0.6-2,1.9-2.4,2.6c1.7,0.9,4.4,1.7,6.5,1.5c-0.9,0.7-1.7,1.6-2.2,2.4c1.4,0.6,4.2,1.6,6.8,1.8
			c-0.9,0.4-2.3,2.1-3.1,3.1c1.5,0.7,4.7,1.1,6.7,1.3c-1.4,0.8-2.9,2.2-3.7,3.6c1.4,0.7,4.1,1.4,6.3,1.4c-1.1,1-1.8,2.3-2.2,3.5
			c1.7,0.4,3.4,0.4,5.5,0.1c-1.3,1.6-1.8,3.6-1.9,5.1c1.7-0.1,3.9-0.4,5.4-1.4c-0.3,1.3-0.2,3,0.3,4.2c0.6-0.1,1.4-0.4,2.2-0.9
			C69.9,74.8,69.8,72.4,69.7,70.3L69.7,70.3L69.7,70.3z"/>
		<path class="st1" d="M117.7,105.5c0.1-0.2,0.3-0.5,0.4-0.8l13.7-14.9l-0.9-0.1l3.4-2.2l-1.9,3.5l-0.2-0.9L119,104.5
			C118.5,104.9,118.1,105.3,117.7,105.5L117.7,105.5L117.7,105.5z"/>
		<path class="st4" d="M87.3,92.8c0.2,0.6,0.5,0.7,0.7,0.8V81.9c-5.2,0.1-11.5,0.8-16.5,1.8c0.2,3.9,0.4,7.6,0.6,10.7
			c0.1,1.7,0.4,2.4,0.8,3.5l0.7-1.3l0.6-0.6l0.5,0.6l1-0.8l0.5-0.8l1-1.8l1.5-0.8l1.1-1.1l0.7-1.2l1.3-0.3l0.9-1l1.5,1.4l1.3,0.6
			l0.6,1.6L87.3,92.8L87.3,92.8L87.3,92.8z"/>
		<path class="st4" d="M103.6,86.4c0.5-0.4,1.1-0.9,1.9-1c0-0.5,0.1-1.1,0.1-1.6c-5-1.1-11.3-1.8-16.5-1.8v4.5
			c0.2,0.1,0.3,0.2,0.4,0.3c0.7,0.4,1.3,0.8,2.2,0.8c0.5,0,1.1-0.4,1.8-0.8c0.9-0.5,1.9-1.1,3.2-1.1c1.3,0,2.1,0.6,2.8,1
			c0.6,0.4,1.2,0.8,2.2,0.8C102.6,87.3,103,86.9,103.6,86.4L103.6,86.4L103.6,86.4z"/>
		<polygon class="st3" points="36,131.4 36.5,131 35.7,130 43,124.7 43.7,125.7 44.3,125.4 42.5,122.9 34.7,124.5 38.4,117.2 
			36.8,115 36.2,115.4 37,116.5 29.7,121.8 29,120.7 28.4,121.1 30.6,124 31.1,123.6 30.3,122.5 35.6,118.7 31.9,126.1 40,124.4 
			34.6,128.4 33.8,127.3 33.3,127.7 36,131.4 36,131.4 		"/>
		<path class="st4" d="M89.1,95v4.3c0.2,0.1,0.3,0.2,0.4,0.3c0.7,0.4,1.3,0.8,2.2,0.8c0.5,0,1.1-0.4,1.8-0.8
			c0.9-0.5,1.9-1.1,3.2-1.1c1.3,0,2.1,0.6,2.8,1c0.6,0.4,1.2,0.8,2.2,0.8c0.7,0,1.1-0.3,1.6-0.6c0.9-1.4,1.5-3.2,1.7-5.2
			c0,0,0-0.1,0-0.2c0,0-0.1,0-0.1,0.1c-0.7,0.6-1.6,1.3-3.1,1.3c-1.5,0-2.4-0.6-3.2-1.1c-0.6-0.4-1.1-0.7-1.8-0.7
			c-0.8,0-1.5,0.4-2.3,0.8c-0.8,0.5-1.7,1-2.7,1C90.6,95.7,89.8,95.4,89.1,95L89.1,95L89.1,95z"/>
		<polygon class="st3" points="115.7,33.4 115.9,32.8 114.7,32.3 117.9,24 119.1,24.4 119.4,23.8 116.5,22.7 110.9,28.3 110,20.2 
			107.5,19.2 107.3,19.8 108.5,20.3 105.2,28.7 104,28.2 103.7,28.8 107.1,30.1 107.3,29.5 106.1,29 108.5,22.9 109.3,31.1 
			115.3,25.3 112.8,31.6 111.6,31.1 111.4,31.7 115.7,33.4 115.7,33.4 		"/>
		<path class="st5" d="M88,98.5H73.2c0.2,0.4,0.5,0.9,0.8,1.3c1,1.5,2.6,2.6,4.5,3.2c2.6,0.8,4.3,1.3,5.5,1.7l1.4,0.5
			c1.2,0.4,2,0.9,2.6,1.5V98.5L88,98.5L88,98.5z"/>
		<path class="st3" d="M130.6,100.5l-11.2,5.6c-0.2,0.1-0.4,0.3-0.4,0.4c0.1,0.1,0.1,0.1,0.2,0.2c0,0.1,0,0.1,0,0.1l11.6-5.8
			l-0.1,0.9l3-2.7l-3.9,0.9L130.6,100.5L130.6,100.5L130.6,100.5z"/>
		<path class="st3" d="M136.5,36.2l-0.4,0.5l0.9,0.8l-4.4,4.9l1.1-8.7l-2.3-2.1l-0.4,0.5l0.8,0.7l-0.1,1l-5.5,6l-0.9-0.8l-0.5,0.4
			l2.6,2.4l0.4-0.5l-0.9-0.8l4.6-5l-1,8c0.9-0.3,1.9-0.5,3.1-0.9c0.1,0,0.2,0,0.3,0l3.9-4.3l0.9,0.9l0.4-0.5L136.5,36.2L136.5,36.2
			L136.5,36.2z"/>
		<path class="st3" d="M146.1,123.6l-0.4,0.5c-0.2,0.3-0.4,0.3-1.1,0.3l-4.1-0.3c0.5-1.4,0.2-2.6-0.9-3.4c-0.7-0.5-1.4-0.7-2.1-0.6
			c-0.8,0.1-1.4,0.6-2.2,1.7l-2.7,3.7l0.5,0.4l0.7-0.9l7.2,5.4l-0.7,0.9l0.5,0.4l2.6-3.5l-0.6-0.4l-0.7,0.9l-3.2-2.3l0.2-0.3
			l4.3,0.3c1,0,1.2,0,1.7-0.8l1.2-1.6L146.1,123.6L146.1,123.6L146.1,123.6z"/>
		<path class="st1" d="M123,98.7c-0.5,0.6-1.1,1.2-1.6,1.7c0.7-1,1.4-2.1,2.1-3.2l8.6-10.9l-0.9-0.1l3.2-2.4l-1.6,3.7l-0.3-0.9
			L123,98.7L123,98.7L123,98.7z"/>
		<polygon class="st3" points="22.7,106.9 23.3,106.7 23.1,105.6 31.8,103.4 32.1,104.6 32.7,104.5 31.7,100.2 31,100.4 31.3,101.5 
			27.4,102.4 26.3,97.5 30.1,96.6 30.4,97.7 31,97.6 30,93.3 29.3,93.5 29.6,94.7 20.9,96.8 20.6,95.6 20,95.8 21,100 21.7,99.8 
			21.4,98.7 25.4,97.8 26.6,102.7 22.6,103.6 22.3,102.5 21.7,102.7 22.7,106.9 22.7,106.9 		"/>
		<path class="st3" d="M132.4,127.1l-0.4-0.5l-2.7,2.4l0.4,0.5l0.9-0.9l3.9,4.3c1.3,1.4,1.2,3-0.2,4.2c-0.3,0.3-0.7,0.5-1.1,0.6
			c-0.9,0.2-1.6-0.1-2.6-1.3l-3.9-4.3l0.9-0.8l-0.4-0.5l-3.2,3l0.4,0.4l0.9-0.8l4.2,4.6c1.4,1.6,3.6,1.5,5.4-0.2
			c0.6-0.5,1-1.2,1.3-1.9c0.5-1.3,0.3-2.6-0.9-3.9l-3.9-4.3L132.4,127.1L132.4,127.1L132.4,127.1z"/>
		<polygon class="st3" points="44,139.4 45.4,137.9 44.9,137.3 44,138.1 41.6,135.8 44.2,133 46,134.7 45.3,135.5 45.9,136.1 
			48,133.8 47.3,133.3 46.7,134 44.8,132.3 47.3,129.6 49.7,131.8 48.9,132.6 49.5,133.2 51.2,131.4 50.6,130.8 50.3,131.2 
			45.6,126.8 45.1,127.3 46,128.1 39.9,134.7 39.1,133.9 38.6,134.4 44,139.4 44,139.4 		"/>
		<path class="st1" d="M121.8,102.3c0.7-0.7,1.4-1.5,2.1-2.3l8-7.4l-0.9-0.2l3.5-1.9l-2.1,3.4l-0.1-0.9l-7.9,7.4
			C123.5,101,122.6,101.7,121.8,102.3L121.8,102.3L121.8,102.3z"/>
		<path class="st1" d="M121.5,104.5c0.5-0.4,1-0.8,1.6-1.3l8.1-5.3l-0.9-0.4l3.8-1.3l-2.7,3l0.1-1l-7.4,4.9
			C123.2,103.7,122.3,104.1,121.5,104.5L121.5,104.5L121.5,104.5z"/>
		<polygon class="st3" points="153.8,108.7 153.2,108.5 152.7,109.9 144.6,106.8 145.5,104.3 146.7,104.8 147,104 144.5,103 
			144.2,103.8 144.7,104 142,110.9 141.6,110.7 141.3,111.5 143.8,112.5 144.1,111.7 142.9,111.2 143.9,108.7 152,111.8 
			151.5,113.1 152.1,113.4 153.8,108.7 153.8,108.7 		"/>
		<path class="st3" d="M147,47.6l-0.4,0.3l-4.5-5.9l0.4-0.3L142,41l-2.1,1.6l0.5,0.7l1-0.8l1.6,2.1l-6.9,5.3l-0.4-0.5
			c-0.2,0.1-0.4,0.2-0.6,0.3l2.6,3.3l0.5-0.4l-0.9-1.2l6.9-5.3l1.6,2.1l-1,0.8l0.5,0.7l2.1-1.6L147,47.6L147,47.6L147,47.6z"/>
		<polygon class="st3" points="75.3,154.2 77.6,144.7 78.9,145 79,144.4 75.6,143.5 75.5,144.2 76.6,144.4 75.2,150.8 71.9,142.6 
			68.9,141.9 68.7,142.5 69.8,142.8 70.1,143.7 68.2,151.6 67,151.3 66.8,152 70.3,152.8 70.4,152.1 69.2,151.9 70.8,145.2 
			74.3,153.9 75.3,154.2 75.3,154.2 		"/>
		<path class="st3" d="M54.2,32c-1.7-2.3-4.9-2.7-7.2-1L43,33.8l0.4,0.6l0.9-0.7l5.3,7.3c0.2,0.1,0.5,0.2,0.7,0.3l2.6-1.9
			c1.2-0.9,1.9-1.9,2.1-3.2C55.4,34.6,55,33.2,54.2,32L54.2,32L54.2,32z"/>
		<polygon class="st3" points="145.9,72.5 146.6,72.3 146.3,71.3 150.3,70.3 150.9,72.7 149.8,73 150.1,73.8 153,73 152.8,72.2 
			151.8,72.5 151.2,70 154.7,69.1 155.6,72.3 154.4,72.6 154.7,73.4 157,72.7 156.9,71.9 156.4,72.1 154.8,65.9 154.2,66 
			154.5,67.2 145.8,69.4 145.5,68.2 144.9,68.4 145.9,72.5 145.9,72.5 		"/>
		<polygon class="st3" points="123.3,38.4 124.4,36.6 123.7,36.2 123.1,37.1 120.2,35.3 122.3,32.1 124.4,33.4 123.8,34.3 
			124.5,34.8 126.2,32.2 125.4,31.8 124.9,32.7 122.8,31.3 124.8,28.2 127.5,30 126.9,30.9 127.6,31.4 128.9,29.3 128.2,28.8 
			128,29.2 122.6,25.7 122.2,26.3 123.2,26.9 118.4,34.5 117.4,33.8 117,34.4 123.3,38.4 123.3,38.4 		"/>
		<path class="st3" d="M24.3,61.4l-0.6-0.2l-1,3.5l0.7,0.2l0.4-1.2l5.5,1.6c1.8,0.5,2.6,1.9,2,3.7c-0.1,0.5-0.4,0.9-0.6,1.2
			c-0.6,0.6-1.4,0.7-2.9,0.3l-5.5-1.7l0.3-1.1l-0.6-0.2l-1.2,4.2l0.6,0.2l0.3-1.1l6,1.8c2.1,0.6,3.9-0.6,4.6-3
			c0.2-0.8,0.3-1.6,0.2-2.3c-0.2-1.4-1.1-2.3-2.8-2.8L24,62.7L24.3,61.4L24.3,61.4L24.3,61.4z"/>
		<polygon class="st3" points="156.6,97.3 156,97.1 155.7,98.3 151.1,97.4 147.4,94 147.6,92.9 147,92.8 146.3,96.4 146.9,96.5 
			147.2,95.2 150.1,97.8 146.4,99.4 146.6,98.2 146,98.1 145.1,102.4 145.7,102.5 146,101.6 151.1,99.4 155.3,100.3 155.1,101.4 
			155.8,101.5 156.6,97.3 156.6,97.3 		"/>
		<polygon class="st3" points="64.3,32.4 63.4,30.5 62.6,30.9 63.2,31.9 60.2,33.4 58.4,30 60.6,28.9 61.1,29.9 61.8,29.5 
			60.4,26.7 59.7,27.1 60.2,28.1 58,29.2 56.3,26 59.2,24.5 59.7,25.5 60.4,25 59.3,22.9 58.6,23.3 58.7,23.7 53.1,26.6 53.3,27.2 
			54.4,26.6 58.5,34.6 57.4,35.1 57.7,35.7 64.3,32.4 64.3,32.4 		"/>
		<path class="st1" d="M106,115.3h-0.5l-3.2,2.7l-0.1-0.8l-1.1-0.2l3.9-2.4l0.4-0.3l0.8,0.1l6.1-4c-0.2,0.2-0.9,0.9-1.4,1.5
			L106,115.3L106,115.3L106,115.3z"/>
		<path class="st1" d="M102,115.7l-0.1-0.6l-1.1-0.4l4.6-2.2l0.8,0.2l5.8-2.9c0,0-0.1,0-0.1,0s0,0-0.1,0c-1.1,0.7-5.5,3.5-5.5,3.5
			l-0.6-0.1l-1.8,1.2L102,115.7L102,115.7L102,115.7z"/>
		<polygon class="st3" points="149.9,118 149.3,117.7 148.7,118.7 140.8,114.5 141.4,113.4 140.8,113.2 138.8,117 139.3,117.3 
			139.9,116.3 147.8,120.5 147.2,121.6 147.8,121.9 149.9,118 149.9,118 		"/>
		<path class="st3" d="M127.7,143.2l-1.1-1.8l-0.7,0.5l0.6,1c-0.4,0.8-0.8,1.2-1.4,1.6c-1.8,1.1-4.3,0.3-5.6-1.8
			c-1.3-2.2-1-4.6,0.9-5.7c0.7-0.4,1.2-0.6,2.3-0.5l0.5,0.9l0.7-0.4l-1.4-2.4l-0.7,0.4l0.3,0.5c-1,0.1-1.6,0.4-2.5,0.9
			c-2.7,1.6-3.5,4.8-1.9,7.4c1.6,2.7,4.8,3.3,7.6,1.6C126.2,144.8,126.8,144.3,127.7,143.2L127.7,143.2L127.7,143.2z"/>
		<polygon class="st3" points="117.3,149.5 116.6,147.6 115.8,147.9 116.2,148.9 113.1,150.2 111.6,146.6 114,145.7 114.4,146.7 
			115.1,146.4 114,143.5 113.2,143.9 113.6,144.8 111.3,145.7 110,142.3 113,141.1 113.4,142.2 114.1,141.9 113.2,139.6 
			112.5,139.9 112.6,140.3 106.7,142.6 106.9,143.3 108,142.8 111.3,151.2 110.2,151.6 110.4,152.2 117.3,149.5 117.3,149.5 		"/>
		<path class="st3" d="M149.7,65.3c2.7-1.2,3.9-4.2,2.8-6.8c-1.2-2.6-4.2-3.8-6.9-2.6c-2.8,1.2-4,4.2-2.8,6.8
			C143.9,65.4,147,66.6,149.7,65.3L149.7,65.3L149.7,65.3z"/>
		<path class="st3" d="M32,116.6c2.7-1.2,3.9-4.3,2.7-6.9c-1.2-2.6-4.2-3.7-7-2.5c-2.7,1.2-3.9,4.3-2.7,6.9
			C26.2,116.7,29.3,117.9,32,116.6L32,116.6L32,116.6z"/>
		<polygon class="st3" points="83.3,26.6 82.7,26.7 77.2,17.5 76.2,17.7 74,28.2 73,28.4 73.1,29 76.3,28.5 76.2,27.8 75,28 
			75.6,25.4 79.3,24.7 80.7,27 79.6,27.2 79.7,27.9 83.4,27.2 83.3,26.6 83.3,26.6 		"/>
		<path class="st3" d="M85.5,144.7l-4.9-0.2l-0.1,0.6l1.2,0l-0.3,9l-1.2,0l0,0.7l4.9,0.2c1.5,0.1,2.7-0.4,3.7-1.3
			c1.1-0.9,1.7-2.3,1.8-3.7C90.6,147.1,88.4,144.8,85.5,144.7L85.5,144.7L85.5,144.7z"/>
		<path class="st3" d="M36.2,59.4l-0.5-0.3c0.7-0.4,1.2-0.9,1.7-1.7c0.9-1.6,0.4-3.3-1.1-4.2c-0.5-0.3-1-0.5-1.6-0.4
			c-0.5,0-0.9,0.1-1.4,0.3c-0.2,0.1-0.6,0.4-1.4,0.7c-1.6,0.8-2.1,1-2.6,0.7c-0.7-0.4-0.9-1.2-0.5-1.9c0.3-0.5,0.6-0.8,1.3-1.2
			l0.9,0.5l0.4-0.7L29.1,50l-0.4,0.7l0.4,0.2c-0.5,0.4-0.8,0.8-1.1,1.3c-0.9,1.7-0.5,3.3,0.9,4.1c0.6,0.4,1.3,0.5,1.8,0.4
			c0.6-0.1,0.8-0.2,2.4-1.1c1.5-0.8,2.2-1,2.8-0.6c0.7,0.4,0.9,1.3,0.4,2.1c-0.4,0.7-0.8,1-1.6,1.3l-1-0.5l-0.4,0.7l2.4,1.4
			L36.2,59.4L36.2,59.4L36.2,59.4z"/>
		<polygon class="st3" points="64.6,150.5 63.9,150.2 64.6,139.6 63.7,139.2 55.9,146.6 55,146.2 54.8,146.8 57.7,148.1 58,147.5 
			56.8,147 58.8,145.1 62.2,146.7 62.1,149.4 61.1,148.9 60.8,149.5 64.3,151.1 64.6,150.5 64.6,150.5 		"/>
		<path class="st3" d="M94.1,26.6h-0.6c-0.3,0-0.5-0.1-0.9-0.7l-2.2-3.4c1.5-0.5,2.2-1.4,2.2-2.8c0-0.8-0.3-1.5-0.8-2
			c-0.6-0.5-1.3-0.8-2.7-0.8h-4.6v0.7h1.2v9h-1.2v0.6l4.4,0v-0.7h-1.2v-3.9h0.4l2.3,3.6c0.5,0.9,0.7,0.9,1.6,0.9h2V26.6L94.1,26.6
			L94.1,26.6z"/>
		<polygon class="st3" points="53.3,145.7 54.5,144 53.8,143.5 53.1,144.5 50.4,142.7 55.3,135.4 56.2,136.1 56.6,135.5 53,133.1 
			52.6,133.6 53.6,134.3 48.6,141.7 47.6,141.1 47.2,141.6 53.3,145.7 53.3,145.7 		"/>
		<polygon class="st3" points="101.1,28.5 101.2,27.9 99.8,27.6 101.2,19 103.8,19.5 103.7,20.7 104.5,20.9 104.9,18.3 104.1,18.1 
			104,18.6 96.7,17.3 96.8,16.9 96,16.7 95.5,19.3 96.4,19.5 96.6,18.2 99.2,18.7 97.8,27.3 96.3,27 96.2,27.7 101.1,28.5 
			101.1,28.5 		"/>
		<path class="st1" d="M125,91.7l3-2.6l-1.3,3.8l-0.3-0.9l-7.3,11.1c0,0,0,0.1-0.1,0.1c0.5-1,1.1-2.3,1.8-3.5l5.2-8L125,91.7
			L125,91.7L125,91.7z"/>
		<path class="st3" d="M70.7,30.1l-0.2-0.6l-1.3,0.4l-2.7-8.3l0.9-0.3c1.1-0.4,1.9,0.2,2.3,1.6c0.4,1.3,0.1,2.2-0.9,2.6
			c-0.1,0-0.2,0.1-0.4,0.1l0.2,0.7c0.4,0,0.6-0.1,0.9-0.2c1.7-0.6,2.7-2.4,2.2-4c-0.6-1.7-2.1-2.4-4-1.8l-4.5,1.5l0.2,0.6l1.1-0.4
			l2.8,8.5l-1.1,0.4l0.2,0.6L70.7,30.1L70.7,30.1L70.7,30.1z"/>
		<path class="st1" d="M146.5,57.9c2.2-0.9,4.6-0.5,5.3,0.9c0.6,1.4-0.7,3.6-2.9,4.5c-2.2,0.9-4.6,0.5-5.3-0.9
			C143,61,144.3,58.9,146.5,57.9L146.5,57.9L146.5,57.9z"/>
		<path class="st1" d="M28.7,109.2c2.1-1,4.6-0.5,5.3,0.9c0.6,1.4-0.7,3.6-2.8,4.6c-2.2,1-4.6,0.6-5.3-0.9
			C25.1,112.3,26.5,110.2,28.7,109.2L28.7,109.2L28.7,109.2z"/>
		<path class="st3" d="M101.5,154.5l-0.1-0.5c0.8,0.3,1.5,0.3,2.3,0.1c1.8-0.4,2.8-1.9,2.4-3.6c-0.1-0.6-0.4-1-0.8-1.4
			c-0.3-0.4-0.7-0.6-1.1-0.8c-0.2-0.1-0.7-0.3-1.5-0.5c-1.7-0.6-2.1-0.9-2.3-1.5c-0.1-0.7,0.4-1.5,1.1-1.6c0.6-0.1,1-0.1,1.8,0.2
			l0.2,1.1l0.8-0.2l-0.6-2.6l-0.8,0.2l0.1,0.5c-0.6-0.1-1.1-0.1-1.7,0c-1.8,0.4-2.8,1.8-2.5,3.4c0.1,0.7,0.5,1.3,1,1.6
			c0.5,0.4,0.7,0.4,2.4,1.1c1.6,0.6,2.2,1,2.3,1.7c0.2,0.8-0.4,1.5-1.3,1.7c-0.8,0.2-1.3,0.1-2.1-0.3l-0.3-1.1l-0.8,0.2l0.6,2.7
			L101.5,154.5L101.5,154.5L101.5,154.5z"/>
		<path class="st1" d="M52.2,38.8l-1,0.8l-5-6.9l1-0.8c1.5-1.1,3.9-0.4,5.3,1.5C53.9,35.3,53.8,37.6,52.2,38.8L52.2,38.8L52.2,38.8z
			"/>
		<path class="st1" d="M112.8,111.3l-2.3,2.7l-0.6,0.1l-3.1,4l-0.2-0.9l-0.9,0h-0.1h-0.2l3.7-3.7l0.1,0l0.8-0.1l2.7-2.9
			C112.7,110.9,112.7,111.1,112.8,111.3L112.8,111.3L112.8,111.3z"/>
		<path class="st1" d="M55.2,98.9c0.9-1.4,2.4-2.3,3.7-2.7c-0.1,5.5-2.7,5.9-3.8,7.3c0.2-1.7,1.1-4,2.6-5.9
			c-2.1,1.4-2.8,3.4-2.8,5.4c-0.1-0.4-0.3-0.9-0.3-1.2c-0.2,0.4-0.5,0.9-1,1.4c-0.4-2.5,0.2-5.2,0.6-6.5c-1.1,1.1-1.4,3.7-1,5.8
			c0.2,0.1,0.4,0.4,0.4,0.6c0.1,0.5-0.2,1-0.7,1.1c-0.5,0.1-0.9-0.2-1.1-0.7c-0.1-0.5,0.2-0.9,0.7-1.1c0.1,0,0.2,0,0.4,0
			c-1.1-2.3-0.2-5.7,2.4-7.6C55,96.2,55.3,97.6,55.2,98.9L55.2,98.9L55.2,98.9z"/>
		<path class="st1" d="M64.2,109.3c3.8,2.8,5.9,6.8,6.4,9.9c-0.4-0.3-1.3-0.7-1.9-0.6c-0.5-3.3-2.2-6-4.9-8.2
			C63.9,109.9,64.1,109.5,64.2,109.3L64.2,109.3L64.2,109.3z"/>
		<path class="st1" d="M52.6,105.1c0.1,0.4-0.2,0.9-0.6,1c-0.5,0.1-0.9-0.2-0.9-0.6c0,0,0,0,0,0c-1.3,0.2-3.5,1-4.9,1.8
			c1.3-1.6,3.6-2,4.9-1.9h0c-0.1-0.5,0.2-0.9,0.7-1C52.1,104.4,52.6,104.7,52.6,105.1L52.6,105.1L52.6,105.1z"/>
		<path class="st1" d="M50.8,104.1c0.1,0.3-0.1,0.7-0.5,0.7c-0.4,0.1-0.7-0.2-0.7-0.5c0-0.1,0-0.2,0-0.3l0,0c-1.6,0-3.5,0.4-5.3,0.8
			c1.6-0.9,3.6-1.2,5.4-0.9c0.1-0.2,0.2-0.3,0.4-0.4C50.4,103.5,50.8,103.7,50.8,104.1L50.8,104.1L50.8,104.1z"/>
		<path class="st1" d="M47.8,99.9c0,0.4-0.2,0.7-0.6,0.7c-0.3,0.1-0.7-0.1-0.7-0.5c0-0.1,0-0.3,0.1-0.4c-1.5-1-3.8-1.7-4.5-1.9
			c1.1,0,2.5,0,4.6,1.8c0.1-0.1,0.2-0.2,0.4-0.2C47.4,99.3,47.7,99.6,47.8,99.9L47.8,99.9L47.8,99.9z"/>
		<path class="st1" d="M113.7,112.4l-2,4.1l0.2,0.8l-2.2,4.6l-0.4-1.1l-1.1,0.4l2.4-4.5l0.7-0.3l2-4.1
			C113.4,112.3,113.6,112.3,113.7,112.4L113.7,112.4L113.7,112.4z"/>
		<path class="st1" d="M45.4,96.3c0,0.4-0.2,0.7-0.5,0.7c-0.3,0.1-0.7-0.2-0.7-0.5c-0.1-0.4,0.1-0.6,0.5-0.7c-1.3-1.2-3.2-2.3-4.5-3
			c2.3,0.3,3.7,1.7,4.6,2.9C45.1,95.7,45.4,96,45.4,96.3L45.4,96.3L45.4,96.3z"/>
		<path class="st1" d="M88.3,149.9c-0.1,2.4-1.6,4.2-3.6,4.1l-1.3-0.1l0.3-8.5l1.3,0C86.9,145.6,88.4,147.6,88.3,149.9L88.3,149.9
			L88.3,149.9z"/>
		<path class="st1" d="M45.4,91.9c0.1,0.4-0.2,0.9-0.6,1c-0.5,0.1-0.9-0.2-1-0.6c-0.1-0.4,0.1-0.8,0.4-0.9c-0.7-1.6-2.1-3.7-3.2-5.2
			c2.3,1.6,2.8,3.2,3.3,5.2c0,0,0,0,0.1,0C44.9,91.2,45.4,91.5,45.4,91.9L45.4,91.9L45.4,91.9z"/>
		<path class="st1" d="M48,101.8c-1.3-0.4-2.5-0.7-4.3-0.8C45.6,100.7,46.6,100.9,48,101.8C48.1,101.8,48.2,101.8,48,101.8L48,101.8
			L48,101.8z"/>
		<path class="st1" d="M51.1,93.3c2.7,5.5-0.4,6.5-0.9,8.6c-0.4-2,0.1-5.2,0.3-6.8c-0.9,1.1-1.1,2.6-1,4.2c0,0,0,0,0,0
			c0.1,0.1,0.1,0.2,0,0.2c0.1,0.7,0.2,1.3,0.4,2c-0.3-0.4-0.5-0.9-0.7-1.4c-0.1,0.1-0.2,0.1-0.3,0.1c-0.4,0.1-0.8-0.2-0.9-0.6
			c-0.1-0.4,0.2-0.8,0.6-0.9c0.1,0,0.1,0,0.2,0C48.6,97,49.1,95,51.1,93.3L51.1,93.3L51.1,93.3z"/>
		<path class="st1" d="M135.3,123.5l0.5-0.8c0.7-0.9,1.6-1,2.7-0.2c1,0.7,1.2,1.8,0.6,2.7l-0.5,0.7L135.3,123.5L135.3,123.5
			L135.3,123.5z"/>
		<path class="st1" d="M46.4,96.7c-1.5-2.8-0.1-6.4,2.8-7.7C50.5,94.2,47.8,94.7,46.4,96.7L46.4,96.7L46.4,96.7z"/>
		<path class="st3" d="M84.2,56.3c0.5,0.4,0.7,0.4,0.9,0.4c0,0.1,0.2,0.2,0.2,0.2c0.1,0.1,0.1,0.2,0.2,0.3c0.2-0.1,0.8-0.3,1.3-0.5
			c0.5-0.2,1.2-0.4,1.2-0.4C85.7,55.9,85.4,56.5,84.2,56.3L84.2,56.3L84.2,56.3z"/>
		<path class="st1" d="M48.9,111.6c0.2-1.3,1.1-2.9,2.4-4c0.9-0.8,1.4-1,0.7-0.2C50.8,108.6,49.5,110.5,48.9,111.6L48.9,111.6
			L48.9,111.6z"/>
		<path class="st1" d="M46.3,83.3c0.9,2.8,0.3,5.7-1.5,7.3c0.1-1.3-0.4-2.7-1.3-3.9C44,85.1,45.3,83.8,46.3,83.3L46.3,83.3
			L46.3,83.3z"/>
		<polygon class="st1" points="59.5,144.4 62.6,141.5 62.3,145.7 59.5,144.4 59.5,144.4 		"/>
		<polygon class="st1" points="75.7,24.4 76.6,20.3 78.7,23.8 75.7,24.4 75.7,24.4 		"/>
		<path class="st1" d="M87.8,17.9h1c1.1,0,1.8,0.7,1.7,1.9c0,1.3-0.7,2.1-1.8,2.1l-0.9-0.1V17.9L87.8,17.9L87.8,17.9z"/>
		<polygon class="st1" points="98.7,75.2 98,74.6 99,74.8 99.3,73.9 99.4,74.8 100.4,74.9 99.5,75.3 99.7,76.2 99.1,75.6 98.3,76.1 
			98.7,75.2 98.7,75.2 		"/>
		<polygon class="st1" points="94.6,74.8 93.8,74.2 94.7,74.4 95.1,73.5 95.2,74.4 96.2,74.4 95.4,74.8 95.6,75.8 94.9,75.1 
			94.2,75.7 94.6,74.8 94.6,74.8 		"/>
		<polygon class="st1" points="75.5,80.4 75.7,79.4 74.8,79 75.8,78.9 75.9,78 76.3,78.9 77.2,78.7 76.5,79.3 77,80.2 76.1,79.7 
			75.5,80.4 75.5,80.4 		"/>
		<polygon class="st1" points="91.4,75.5 90.8,74.9 90,75.4 90.4,74.6 89.6,74 90.6,74.1 90.8,73.2 91,74.1 92,74.1 91.2,74.6 
			91.4,75.5 91.4,75.5 		"/>
		<polygon class="st1" points="80.7,72.6 79.9,72.1 79.2,72.8 79.4,71.8 78.6,71.4 79.5,71.3 79.7,70.4 80,71.3 81,71.2 80.2,71.7 
			80.7,72.6 80.7,72.6 		"/>
		<polygon class="st1" points="83.2,75.7 82.4,75.1 81.7,75.7 82,74.8 81.1,74.4 82.1,74.3 82.3,73.4 82.6,74.3 83.5,74.2 
			82.8,74.8 83.2,75.7 83.2,75.7 		"/>
		<polygon class="st1" points="73.5,76.9 73.6,75.9 72.8,75.6 73.7,75.5 73.8,74.5 74.2,75.4 75.1,75.2 74.4,75.8 74.9,76.6 
			74.1,76.2 73.5,76.9 73.5,76.9 		"/>
		<polygon class="st1" points="77.6,76.2 77.8,75.3 77,74.9 77.9,74.8 78,73.9 78.4,74.8 79.3,74.6 78.6,75.2 79,76.1 78.2,75.5 
			77.6,76.2 77.6,76.2 		"/>
		<polygon class="st1" points="81.1,79.7 80.3,79.1 79.7,79.8 79.9,78.9 79.1,78.4 80,78.4 80.1,77.4 80.5,78.4 81.5,78.2 
			80.7,78.8 81.1,79.7 81.1,79.7 		"/>
		<polygon class="st1" points="96.7,78.9 96,78.2 96.9,78.4 97.3,77.5 97.4,78.4 98.4,78.5 97.5,78.9 97.8,79.8 97.1,79.2 
			96.3,79.7 96.7,78.9 96.7,78.9 		"/>
		<polygon class="st1" points="101.3,79.7 100.5,80.2 100.9,79.3 100.2,78.7 101.1,78.9 101.5,78 101.6,79 102.6,79.1 101.7,79.5 
			101.9,80.4 101.3,79.7 101.3,79.7 		"/>
		<polygon class="st1" points="85.3,79.3 84.5,78.8 83.9,79.4 84.1,78.5 83.3,78 84.3,78 84.4,77.1 84.7,78 85.7,77.9 84.9,78.5 
			85.3,79.3 85.3,79.3 		"/>
		<polygon class="st1" points="85,72.3 84.2,71.7 83.5,72.4 83.8,71.4 83,71 83.9,71 84.1,70 84.4,70.9 85.4,70.8 84.6,71.4 
			85,72.3 85,72.3 		"/>
		<polygon class="st1" points="74.9,73.4 75.1,72.4 74.2,72.1 75.2,71.9 75.3,71 75.6,71.9 76.6,71.7 75.9,72.3 76.3,73.1 
			75.5,72.6 74.9,73.4 74.9,73.4 		"/>
		<polygon class="st1" points="92.5,71.4 91.8,70.8 92.8,70.9 93,70 93.2,71 94.2,71 93.3,71.4 93.6,72.4 92.9,71.7 92.2,72.3 
			92.5,71.4 92.5,71.4 		"/>
		<polygon class="st1" points="96.9,71.7 96.2,71.2 97.1,71.3 97.4,70.4 97.6,71.3 98.6,71.4 97.7,71.8 97.9,72.8 97.3,72.1 
			96.5,72.6 96.9,71.7 96.9,71.7 		"/>
		<polygon class="st1" points="101.6,72.6 100.8,73.1 101.3,72.3 100.6,71.7 101.5,71.9 101.9,71 102,72 102.9,72.1 102.1,72.4 
			102.3,73.4 101.6,72.6 101.6,72.6 		"/>
		<polygon class="st1" points="89.5,79.3 88.7,78.7 88,79.3 88.3,78.4 87.5,77.9 88.5,77.9 88.7,77 89,77.9 89.9,77.9 89.1,78.4 
			89.5,79.3 89.5,79.3 		"/>
		<path class="st1" d="M51.8,115.2c-0.5-1.3-0.1-3.3,0.4-4.6c0.4-0.9,1.3-2.3,1.6-2.4C52.8,109.8,51.7,114,51.8,115.2L51.8,115.2
			L51.8,115.2z"/>
		<polygon class="st1" points="103.2,76.2 102.4,76.6 102.9,75.8 102.3,75.2 103.2,75.4 103.6,74.5 103.7,75.5 104.5,75.6 103.7,76 
			103.9,76.9 103.2,76.2 103.2,76.2 		"/>
		<polygon class="st1" points="87.3,75.4 86.6,74.8 85.9,75.5 86.2,74.6 85.4,74.1 86.3,74.1 86.5,73.2 86.8,74.1 87.7,74 87,74.6 
			87.3,75.4 87.3,75.4 		"/>
		<polygon class="st1" points="89.3,72.2 88.6,71.6 87.8,72.2 88.2,71.3 87.4,70.8 88.3,70.8 88.6,69.9 88.8,70.8 89.7,70.8 
			89,71.3 89.3,72.2 89.3,72.2 		"/>
		<polygon class="st1" points="92.5,78.5 91.8,77.9 92.7,78 93,77.1 93.2,78 94.2,78.1 93.3,78.5 93.6,79.4 92.9,78.8 92.1,79.3 
			92.5,78.5 92.5,78.5 		"/>
		<path class="st3" d="M34.2,63.8c0.2-0.5,0-1.1-0.5-1.3c-0.5-0.2-1.1,0-1.3,0.5c-0.2,0.5,0,1.1,0.5,1.3
			C33.4,64.6,34,64.4,34.2,63.8L34.2,63.8L34.2,63.8z"/>
		<path class="st3" d="M40.2,52.4c0-0.6-0.5-1-1-1c-0.6,0-1,0.4-1,1c0,0.5,0.4,1,1,1C39.8,53.4,40.2,52.9,40.2,52.4L40.2,52.4
			L40.2,52.4z"/>
		<path class="st1" d="M56.6,107.4c0.1,0.5-0.2,1-0.7,1.1c-0.5,0.1-1-0.2-1.1-0.7c-0.1-0.5,0.2-1,0.7-1.1
			C56,106.5,56.5,106.9,56.6,107.4L56.6,107.4L56.6,107.4z"/>
		<path class="st1" d="M57,104.5c0.1,0.5-0.3,1-0.8,1.1c-0.5,0.1-1-0.2-1.1-0.7c-0.1-0.5,0.2-1,0.8-1.2
			C56.3,103.7,56.8,104,57,104.5L57,104.5L57,104.5z"/>
		<path class="st1" d="M49.5,102.5c0.1,0.5-0.2,1-0.7,1.1c-0.5,0.1-1-0.2-1.1-0.7c-0.1-0.5,0.2-1,0.7-1.1
			C48.9,101.7,49.4,102,49.5,102.5L49.5,102.5L49.5,102.5z"/>
		<path class="st1" d="M47.6,97.7c0.1,0.5-0.2,0.9-0.7,1c-0.5,0.1-0.9-0.2-1-0.7c-0.1-0.5,0.2-0.9,0.7-1
			C47,96.9,47.5,97.2,47.6,97.7L47.6,97.7L47.6,97.7z"/>
		<path class="st1" d="M58.9,105.8c0.1,0.4-0.2,0.8-0.6,0.9c-0.4,0.1-0.8-0.2-0.9-0.6c-0.1-0.4,0.2-0.8,0.6-0.8
			C58.4,105.1,58.8,105.4,58.9,105.8L58.9,105.8L58.9,105.8z"/>
		<path class="st1" d="M54.8,105.7c0.1,0.4-0.2,0.7-0.5,0.8c-0.4,0.1-0.8-0.2-0.8-0.5c-0.1-0.4,0.1-0.7,0.5-0.8
			C54.3,105,54.7,105.3,54.8,105.7L54.8,105.7L54.8,105.7z"/>
		<path class="st1" d="M114.8,107.8c0.4-0.2,1-0.2,1.3,0.1c0,0.4-0.2,1.3-1.1,1.4C115,109.1,115,108.3,114.8,107.8L114.8,107.8
			L114.8,107.8z"/>
		<path class="st1" d="M60.7,108.3c0.2-0.3,0.9-0.4,1.2-0.1c-0.2,0.4-0.3,1.2-0.1,1.6C60.9,109.6,60.8,108.7,60.7,108.3L60.7,108.3
			L60.7,108.3z"/>
		<path class="st1" d="M114.6,107.9c-0.4,0.2-0.8,0.2-1,0.1c-0.2-0.1-0.2-0.3-0.2-0.7c0-0.4,0.3-0.2,0.4,0
			C113.9,107.6,114.1,107.9,114.6,107.9L114.6,107.9L114.6,107.9z"/>
		<path class="st1" d="M62.1,108.2c0.5,0,0.7-0.3,0.8-0.5c0.1-0.3,0.4-0.4,0.4,0c0,0.4,0,0.6-0.2,0.7
			C62.8,108.4,62.5,108.5,62.1,108.2L62.1,108.2L62.1,108.2z"/>
		<path class="st1" d="M114.7,109.5c0.1,0.2,0.3,0.3,0.5,0.4c-0.2,0.2-0.5,0.3-0.9,0.3c-0.3-0.1-0.3-0.1-0.3-0.2
			c0.1-0.5,0.3-1.2,0.4-1.3C114.4,109,114.5,109.3,114.7,109.5L114.7,109.5L114.7,109.5z"/>
		<path class="st1" d="M62.3,109.1c0.1,0.2,0.3,0.8,0.4,1.3c0,0.1,0,0.1-0.3,0.2c-0.3,0-0.6-0.1-0.9-0.3c0.1-0.1,0.3-0.3,0.4-0.4
			C62.2,109.6,62.3,109.4,62.3,109.1L62.3,109.1L62.3,109.1z"/>
		<path class="st6" d="M103.6,92.8c0.4-0.3,0.9-0.7,1.5-1c0-1.3,0.1-2.8,0.2-4.4c-0.1,0.1-0.3,0.2-0.5,0.4c-0.7,0.6-1.6,1.3-3.1,1.3
			c-1.5,0-2.4-0.5-3.2-1c-0.6-0.4-1.1-0.7-1.8-0.7c-0.8,0-1.5,0.4-2.3,0.8c-0.8,0.5-1.7,1-2.7,1c-1.1,0-1.9-0.3-2.6-0.7v4.1
			c0.2,0.1,0.3,0.2,0.4,0.3c0.7,0.4,1.3,0.8,2.2,0.8c0.5,0,1.1-0.4,1.8-0.8c0.9-0.5,1.9-1.1,3.2-1.1c1.3,0,2.1,0.5,2.8,1
			c0.6,0.4,1.2,0.8,2.2,0.8C102.6,93.7,103,93.3,103.6,92.8L103.6,92.8L103.6,92.8z"/>
		<path class="st6" d="M91.7,102.3c-1.1,0-1.9-0.3-2.6-0.7v5.1c0.6-0.6,1.4-1.1,2.6-1.5l1.4-0.5c1.2-0.4,2.9-0.9,5.5-1.7
			c0.8-0.3,1.5-0.6,2.1-0.9c-0.9-0.2-1.7-0.6-2.3-1c-0.6-0.4-1.1-0.7-1.8-0.7c-0.8,0-1.5,0.4-2.3,0.8
			C93.7,101.8,92.8,102.3,91.7,102.3L91.7,102.3L91.7,102.3z"/>
	</g>
</g>
</svg>
