<?xml version="1.0" encoding="utf-8"?>
<!-- Generator: Adobe Illustrator 15.0.2, SVG Export Plug-In . SVG Version: 6.00 Build 0)  -->
<!DOCTYPE svg PUBLIC "-//W3C//DTD SVG 1.1//EN" "http://www.w3.org/Graphics/SVG/1.1/DTD/svg11.dtd">
<svg version="1.1" id="Artwork" xmlns="http://www.w3.org/2000/svg" xmlns:xlink="http://www.w3.org/1999/xlink" x="0px" y="0px"
	 width="395px" height="83px" viewBox="202.75 255.18 395 83" enable-background="new 202.75 255.18 395 83" xml:space="preserve">
<g id="ACET_Logo">
	<g>
		
			<image overflow="visible" opacity="0.38" enable-background="new    " width="396" height="84" xlink:href="D888912E.png"  transform="matrix(0.9975 0 0 0.9881 202.75 255.1797)">
		</image>
		<path fill="#FFFFFF" d="M269.266,258.507l-62.83,72.985h14.722l50.565-59.612l21.763,48.831h-48.77l-9.222,10.781h77.726
			l-33.897-72.985H269.266L269.266,258.507z M418.296,258.507L406.1,320.711h-68.111c-8.156,0-11.84-2.004-11.053-6.014
			l7.724-39.396c0.786-4.007,5.256-6.012,13.412-6.012h55.672l2.113-10.783h-55.671c-17.351,0-27.12,5.598-29.315,16.795
			l-7.724,39.396c-2.195,11.197,5.378,16.796,22.729,16.796h143.172l2.113-10.782H419.89l4.392-22.394h58.161l2.115-10.781h-58.163
			l3.577-18.247h107.612l-12.194,62.204h13.786l12.195-62.204h37.219l2.115-10.782H418.296z"/>
	</g>
</g>
</svg>
